<svg width="37" height="36" viewBox="0 0 37 36" fill="none" xmlns="http://www.w3.org/2000/svg">
<g clip-path="url(#clip0_5126_1605)">
<path d="M25.4866 26.2209C24.3299 27.3717 19.8505 24.7573 15.4715 20.3782C11.0925 15.9992 8.47216 11.514 9.62888 10.3632C10.7856 9.21234 15.265 11.8268 19.644 16.2058C24.023 20.5848 26.6374 25.0641 25.4866 26.2209Z" fill="#FDB396"/>
<path d="M19.6447 16.2057C15.3678 11.9288 10.9982 9.33974 9.72461 10.2988C11.7146 10.9556 14.8171 13.1498 17.8742 16.2057C22.2532 20.5847 24.8676 25.0641 23.7168 26.2208C23.6872 26.2439 23.656 26.265 23.6236 26.2839C24.4828 26.5672 25.1385 26.5678 25.4873 26.2208C26.6381 25.0641 24.0237 20.5847 19.6447 16.2057Z" fill="#EF875E"/>
<path d="M15.5202 30.9362C12.9589 31.9454 10.1674 32.9546 7.47035 33.7808C5.47703 32.181 3.66433 30.3682 2.06445 28.3749C2.89068 25.6838 3.89986 22.8923 4.90904 20.331C5.79906 21.7529 6.79952 23.1027 7.90117 24.3677C8.42052 24.9697 8.99494 25.5874 9.62445 26.2208C10.1733 26.7697 10.7163 27.2713 11.2415 27.7435C12.3057 28.6806 13.4294 29.5479 14.6054 30.3402C14.9241 30.5585 15.231 30.7592 15.5202 30.9362Z" fill="#FDB396"/>
<path d="M9.28722 18.5488C8.43341 20.3737 7.96147 22.3539 7.90033 24.3678C6.79868 23.1027 5.79822 21.753 4.9082 20.3311C5.67542 18.3953 6.44263 16.5894 7.14492 15.0609C7.77032 16.2757 8.48645 17.4417 9.28722 18.5488Z" fill="#FEECE4"/>
<path d="M12.4388 22.3376C11.689 24.0436 11.2819 25.8804 11.2407 27.7435C10.7155 27.2713 10.1725 26.7697 9.62367 26.2208C8.99219 25.5913 8.41777 24.9736 7.90039 24.3677C7.96152 22.3538 8.43347 20.3737 9.28728 18.5487C10.2443 19.8866 11.2976 21.1529 12.4388 22.3376Z" fill="#FEECE4"/>
<path d="M15.8632 25.4714C15.1722 27.0117 14.7472 28.6579 14.6061 30.3402C13.4301 29.548 12.3064 28.6806 11.2422 27.7435C11.2834 25.8804 11.6905 24.0436 12.4402 22.3376C12.6055 22.5205 12.7825 22.6976 12.9655 22.8805C13.8816 23.7983 14.849 24.6633 15.8632 25.4714Z" fill="#FEECE4"/>
<path d="M20.7904 28.7054C19.2619 29.4018 17.456 30.169 15.5202 30.9362C15.231 30.7592 14.9242 30.5585 14.6055 30.3402C14.7465 28.6579 15.1716 27.0116 15.8625 25.4713C17.3933 26.7108 19.0442 27.7942 20.7904 28.7054Z" fill="#FEECE4"/>
<path d="M25.4868 26.2209C25.0855 26.6163 23.3091 27.5605 20.7891 28.7055C19.0429 27.7942 17.3921 26.7108 15.8613 25.4714C14.8471 24.6633 13.8796 23.7983 12.9635 22.8805C12.7806 22.6976 12.6035 22.5205 12.4383 22.3376C11.2971 21.1529 10.2438 19.8866 9.28683 18.5487C8.48605 17.4416 7.76992 16.2757 7.14453 15.0609C8.28945 12.535 9.23371 10.7586 9.62912 10.3632C8.4724 11.514 11.0927 15.9992 15.4717 20.3782C19.8508 24.7573 24.3301 27.3717 25.4868 26.2209Z" fill="#FEECE4"/>
<path d="M7.4708 33.7808C6.26096 34.1526 5.06883 34.4831 3.92981 34.7664C3.12896 34.9655 2.28234 34.7304 1.69882 34.1469C1.11529 33.5633 0.880202 32.7167 1.07932 31.9159C1.3626 30.7768 1.69309 29.5847 2.06489 28.3749C3.66477 30.3682 5.47748 32.1809 7.4708 33.7808Z" fill="#FEECE4"/>
<path d="M7.14667 15.0609L7.14062 15.0548L7.14667 15.0609Z" fill="#CAD9FC"/>
<path d="M7.12369 29.9028C7.77556 29.9028 8.30401 29.3744 8.30401 28.7225C8.30401 28.0706 7.77556 27.5422 7.12369 27.5422C6.47181 27.5422 5.94336 28.0706 5.94336 28.7225C5.94336 29.3744 6.47181 29.9028 7.12369 29.9028Z" fill="#FEECE4"/>
<path d="M28.7451 12.9662C29.7229 12.9662 30.5156 12.1735 30.5156 11.1957C30.5156 10.2179 29.7229 9.42523 28.7451 9.42523C27.7673 9.42523 26.9746 10.2179 26.9746 11.1957C26.9746 12.1735 27.7673 12.9662 28.7451 12.9662Z" fill="#FEECE4"/>
<path d="M19.8932 2.95056C20.5451 2.95056 21.0735 2.42211 21.0735 1.77023C21.0735 1.11836 20.5451 0.589905 19.8932 0.589905C19.2413 0.589905 18.7129 1.11836 18.7129 1.77023C18.7129 2.42211 19.2413 2.95056 19.8932 2.95056Z" fill="#FEECE4"/>
<path d="M34.0553 24.1965C34.7072 24.1965 35.2357 23.668 35.2357 23.0161C35.2357 22.3643 34.7072 21.8358 34.0553 21.8358C33.4035 21.8358 32.875 22.3643 32.875 23.0161C32.875 23.668 33.4035 24.1965 34.0553 24.1965Z" fill="#FEECE4"/>
<path d="M2.84981 31.9159C4.87998 23.7533 10.097 11.665 11.4013 10.3631C11.4276 10.3391 11.4554 10.3168 11.4845 10.2964C10.7645 10.0603 10.0262 9.9653 9.63079 10.3631C8.32653 11.665 3.10948 23.7533 1.07932 31.9159C0.880202 32.7167 1.11529 33.5633 1.69882 34.1469C2.28234 34.7304 3.12896 34.9655 3.92981 34.7663C4.04784 34.7374 4.16588 34.7073 4.28391 34.6755C3.17853 34.2487 2.56377 33.0657 2.84981 31.9159Z" fill="white"/>
<path d="M3.45061 22.4852L4.55658 22.8983C4.01323 24.365 3.499 25.8418 3.01389 27.3286L1.89258 26.9663C2.38005 25.4602 2.8994 23.9665 3.45061 22.4852Z" fill="white"/>
<path d="M22.148 11.1957C22.3783 11.4253 22.751 11.4253 22.9813 11.1957C23.0273 11.1503 27.4866 6.59659 23.8595 2.06355C23.7301 1.89199 23.5177 1.80432 23.305 1.83466C23.0922 1.865 22.9128 2.00856 22.8365 2.20945C22.7603 2.41033 22.7992 2.63679 22.9382 2.80066C25.9008 6.50394 22.3008 10.206 22.1462 10.3618C21.9167 10.5927 21.9175 10.9658 22.148 11.1957Z" fill="#451E09"/>
<path d="M27.0745 12.8655C27.8709 13.6617 29.1189 13.7844 30.0552 13.1586C30.9915 12.5329 31.3554 11.3329 30.9244 10.2925C30.4934 9.25205 29.3874 8.66096 28.2829 8.88068C27.1784 9.1004 26.3829 10.0697 26.3828 11.1959C26.3809 11.8225 26.63 12.4238 27.0745 12.8655ZM27.909 10.3614C28.37 9.90052 29.1174 9.90065 29.5783 10.3617C30.0391 10.8227 30.039 11.5701 29.578 12.031C29.1111 12.477 28.3759 12.477 27.909 12.031C27.6875 11.8096 27.5631 11.5093 27.5631 11.1962C27.5631 10.8831 27.6875 10.5828 27.909 10.3614Z" fill="#451E09"/>
<path d="M21.1421 3.02258C21.8333 2.3312 21.8333 1.21048 21.1421 0.519106C20.4414 -0.149598 19.3388 -0.149598 18.638 0.519106C17.9464 1.21042 17.9461 2.33153 18.6375 3.02317C19.3288 3.71481 20.4499 3.71508 21.1415 3.02376L21.1421 3.02258ZM19.3002 1.77025C19.3002 1.50312 19.4795 1.26925 19.7376 1.20009C19.9956 1.13092 20.2679 1.24371 20.4015 1.47506C20.535 1.70641 20.4965 1.99863 20.3076 2.1875C20.0742 2.41068 19.7065 2.41068 19.4731 2.1875C19.3621 2.07711 19.2998 1.92685 19.3002 1.77025Z" fill="#451E09"/>
<path d="M32.806 21.7639C32.1144 22.4552 32.1141 23.5763 32.8054 24.268C33.4967 24.9596 34.6178 24.9599 35.3095 24.2686C36.0007 23.5772 36.0007 22.4565 35.3095 21.7651C34.6091 21.0964 33.507 21.0959 32.806 21.7639ZM34.475 23.4335C34.2416 23.6567 33.8739 23.6567 33.6405 23.4335C33.4717 23.2647 33.4212 23.0108 33.5125 22.7903C33.6038 22.5697 33.819 22.4259 34.0578 22.4259C34.2965 22.4259 34.5117 22.5697 34.603 22.7903C34.6943 23.0108 34.6438 23.2647 34.475 23.4335Z" fill="#451E09"/>
<path d="M28.7445 2.36029C28.4185 2.36029 28.1543 2.62452 28.1543 2.95045V3.54062C28.1543 3.86656 28.4185 4.13078 28.7445 4.13078C29.0704 4.13078 29.3346 3.86656 29.3346 3.54062V2.95045C29.3346 2.62452 29.0704 2.36029 28.7445 2.36029Z" fill="#FDB396"/>
<path d="M29.9241 5.31119H30.5143C30.8403 5.31119 31.1045 5.04696 31.1045 4.72102C31.1045 4.39508 30.8403 4.13086 30.5143 4.13086H29.9241C29.5982 4.13086 29.334 4.39508 29.334 4.72102C29.334 5.04696 29.5982 5.31119 29.9241 5.31119Z" fill="#FDB396"/>
<path d="M28.1543 6.49167C28.1543 6.81761 28.4185 7.08183 28.7445 7.08183C29.0704 7.08183 29.3346 6.81761 29.3346 6.49167V5.9015C29.3346 5.57557 29.0704 5.31134 28.7445 5.31134C28.4185 5.31134 28.1543 5.57557 28.1543 5.9015V6.49167Z" fill="#FDB396"/>
<path d="M27.5631 4.13086H26.973C26.647 4.13086 26.3828 4.39508 26.3828 4.72102C26.3828 5.04696 26.647 5.31119 26.973 5.31119H27.5631C27.8891 5.31119 28.1533 5.04696 28.1533 4.72102C28.1533 4.39508 27.8891 4.13086 27.5631 4.13086Z" fill="#FDB396"/>
<path d="M33.4652 14.1637C33.7911 14.1637 34.0553 13.8995 34.0553 13.5735V12.9834C34.0553 12.6574 33.7911 12.3932 33.4652 12.3932C33.1392 12.3932 32.875 12.6574 32.875 12.9834V13.5735C32.875 13.8995 33.1392 14.1637 33.4652 14.1637Z" fill="#FDB396"/>
<path d="M35.237 14.1638H34.6468C34.3209 14.1638 34.0566 14.428 34.0566 14.7539C34.0566 15.0799 34.3209 15.3441 34.6468 15.3441H35.237C35.5629 15.3441 35.8271 15.0799 35.8271 14.7539C35.8271 14.428 35.5629 14.1638 35.237 14.1638Z" fill="#FDB396"/>
<path d="M32.875 16.5244C32.875 16.8503 33.1392 17.1145 33.4652 17.1145C33.7911 17.1145 34.0553 16.8503 34.0553 16.5244V15.9342C34.0553 15.6083 33.7911 15.3441 33.4652 15.3441C33.1392 15.3441 32.875 15.6083 32.875 15.9342V16.5244Z" fill="#FDB396"/>
<path d="M32.2858 14.1638H31.6956C31.3697 14.1638 31.1055 14.428 31.1055 14.7539C31.1055 15.0799 31.3697 15.3441 31.6956 15.3441H32.2858C32.6117 15.3441 32.876 15.0799 32.876 14.7539C32.876 14.428 32.6117 14.1638 32.2858 14.1638Z" fill="#FDB396"/>
<path d="M3.21422 25.4995C2.88828 25.5011 2.62273 25.2382 2.6211 24.9123C2.61947 24.5863 2.88238 24.3208 3.20831 24.3192H3.21422C3.54015 24.3192 3.80438 24.5834 3.80438 24.9093C3.80438 25.2353 3.54015 25.4995 3.21422 25.4995Z" fill="#451E09"/>
<path d="M8.3745 29.9749C8.97478 29.3773 9.06904 28.4388 8.5996 27.7337C8.13016 27.0287 7.2279 26.7537 6.44502 27.077C5.66213 27.4004 5.21689 28.2319 5.38178 29.0627C5.54668 29.8935 6.27574 30.492 7.12277 30.4919C7.59197 30.4919 8.04208 30.306 8.3745 29.9749ZM6.70493 29.1398C6.47449 28.9092 6.47462 28.5355 6.70523 28.305C6.93583 28.0746 7.30957 28.0747 7.54001 28.3053C7.77045 28.5359 7.77032 28.9097 7.53972 29.1401C7.30912 29.3705 6.93537 29.3704 6.70493 29.1398Z" fill="#451E09"/>
<path d="M26.8471 15.0591C25.1285 15.5111 23.7859 17.0656 22.458 18.4018C20.9348 16.5896 19.2591 14.9113 17.4493 13.3854L18.8067 12.028C21.2989 9.53572 21.5804 7.28896 19.6417 5.35087C18.7696 4.36088 17.4518 3.88574 16.1486 4.09146C15.2582 4.26995 14.4407 4.70819 13.7991 5.35087C13.5755 5.58243 13.5787 5.95052 13.8063 6.17817C14.034 6.40581 14.402 6.40901 14.6336 6.18536C15.1049 5.71539 15.7022 5.39194 16.3534 5.25408C17.2766 5.1255 18.2017 5.47659 18.8073 6.18536C21.08 8.45867 18.6709 10.4936 16.528 12.6376C14.7959 11.2802 10.7615 8.38844 9.21001 9.94116C8.51589 10.9165 7.9195 11.9579 7.42948 13.0501C6.09099 15.7938 4.43912 19.8347 3.45001 22.4851C3.37621 22.6827 3.41342 22.9046 3.54762 23.0673C3.68181 23.23 3.89261 23.3087 4.1006 23.2738C4.30859 23.239 4.48218 23.0958 4.55597 22.8982C4.71473 22.4733 4.88588 22.0525 5.04935 21.6288C7.51033 25.2326 10.6251 28.3432 14.2323 30.7993C12.0947 31.6256 9.82673 32.4311 7.60594 33.1216C5.81366 31.6682 4.17756 30.0321 2.72411 28.2398C2.81794 27.9388 2.91119 27.6378 3.01093 27.3286C3.09 27.1245 3.04961 26.8934 2.90601 26.7282C2.7624 26.563 2.53916 26.4908 2.32604 26.5408C2.11293 26.5907 1.94494 26.7544 1.88961 26.9662C1.33014 28.6936 0.865089 30.3113 0.504499 31.7743C0.256209 32.7762 0.55059 33.8349 1.2804 34.5649C2.01022 35.2948 3.06893 35.5893 4.07086 35.3412C13.0172 33.1376 24.6989 27.8385 25.9016 26.6357C27.0932 25.4442 25.6608 22.4568 23.2057 19.3242C25.3445 17.1677 27.3694 14.7504 29.6574 17.0379C30.2577 17.5652 30.6017 18.3254 30.6017 19.1244C30.6017 19.9234 30.2577 20.6836 29.6574 21.2109C29.4338 21.4425 29.437 21.8106 29.6646 22.0382C29.8923 22.2659 30.2603 22.2691 30.4919 22.0454C31.5772 20.9607 32.7977 18.5086 30.4919 16.2028C29.5926 15.1605 28.1806 14.7174 26.8471 15.0591ZM9.04535 12.4747C10.6152 17.1276 18.7376 25.2453 23.3798 26.8045C22.6864 27.1586 21.8135 27.5823 20.802 28.0438C15.3309 25.0181 10.8239 20.5108 7.79834 15.0396C8.35073 13.8298 8.62693 13.2821 9.04535 12.4747ZM15.5749 30.2717C15.4616 30.1997 15.3465 30.1248 15.2285 30.0463C15.3622 28.8019 15.6598 27.5807 16.1137 26.4144C17.1772 27.2303 18.2924 27.9765 19.4523 28.6482C18.2732 29.1669 16.9624 29.7181 15.5749 30.2717ZM12.6589 23.4022C13.4621 24.1989 14.2996 24.9461 15.1506 25.6413C14.6697 26.8139 14.3277 28.0388 14.1314 29.2909C13.3541 28.732 12.5881 28.1235 11.8415 27.4785C11.8943 26.0848 12.1703 24.7085 12.6589 23.4022ZM7.19637 16.3852C7.62129 17.1246 8.10109 17.8765 8.61689 18.6136C8.02652 19.9673 7.62404 21.3953 7.42063 22.8581C6.76114 22.0285 6.14535 21.1651 5.57578 20.2714C6.08804 18.9866 6.63689 17.6505 7.19637 16.3852ZM8.50181 24.1523C8.56279 22.6377 8.87779 21.144 9.43368 19.7338C10.1593 20.6831 10.9335 21.5943 11.753 22.4638C11.233 23.746 10.8876 25.0922 10.7261 26.4663C10.0174 25.7971 9.31565 25.0818 8.50181 24.1523ZM3.78876 34.1945C3.18812 34.3441 2.55301 34.168 2.11525 33.7303C1.6775 33.2927 1.50116 32.6576 1.6506 32.057C1.8424 31.2785 2.06902 30.4523 2.31866 29.5865C3.51581 31.0116 4.83425 32.3303 6.25919 33.5277C5.42056 33.772 4.59315 33.9968 3.78876 34.1945ZM25.0671 25.8012C24.5029 26.3678 20.7471 24.8198 15.8859 19.9586C11.0248 15.0974 9.47912 11.3475 10.0433 10.7786C10.1496 10.7011 10.2808 10.6658 10.4116 10.6795C11.8811 10.6795 14.5221 12.5745 15.6871 13.481L14.2164 14.9517C13.9859 15.1826 13.9863 15.5566 14.2173 15.787C14.4482 16.0175 14.8222 16.0171 15.0526 15.7861L16.6124 14.2258C18.4256 15.7492 20.1039 17.4262 21.6288 19.238C20.9265 19.9462 20.2821 20.5995 19.8843 21.0032C19.6774 21.2384 19.6902 21.5943 19.9136 21.8139C20.137 22.0335 20.4931 22.0403 20.7247 21.8294C21.1036 21.4452 21.7091 20.832 22.373 20.1616C24.7449 23.2222 25.4855 25.3828 25.0671 25.8012Z" fill="#451E09"/>
</g>
<defs>
<clipPath id="clip0_5126_1605">
<rect width="36" height="36" fill="white" transform="translate(0.125)"/>
</clipPath>
</defs>
</svg>
