<svg width="37" height="36" viewBox="0 0 37 36" fill="none" xmlns="http://www.w3.org/2000/svg">
<path d="M7.17656 26.5332C8.94388 26.5332 10.3766 25.1006 10.3766 23.3332C10.3766 21.5659 8.94388 20.1332 7.17656 20.1332C5.40925 20.1332 3.97656 21.5659 3.97656 23.3332C3.97656 25.1006 5.40925 26.5332 7.17656 26.5332Z" fill="#FEECE4"/>
<path d="M7.175 20.1333C6.90489 20.1348 6.63608 20.1707 6.375 20.24C7.78423 20.6056 8.76824 21.8774 8.76824 23.3333C8.76824 24.7892 7.78423 26.061 6.375 26.4266C7.57832 26.7453 8.85721 26.3372 9.65357 25.3805C10.4499 24.4237 10.6192 23.092 10.0875 21.9665C9.55588 20.8409 8.41977 20.1259 7.175 20.1333Z" fill="#FDB396"/>
<path d="M15.1749 30.8001C15.1749 31.3892 14.6973 31.8668 14.1082 31.8668H10.3749C9.7865 31.865 9.30996 31.3885 9.30821 30.8001V32.4001C9.30645 32.9885 8.82991 33.465 8.24154 33.4668H3.97487C3.3865 33.465 2.90996 32.9885 2.9082 32.4001V29.7334C2.9082 27.9661 4.34089 26.5334 6.10821 26.5334H8.24154C9.69866 26.5346 10.9717 27.5184 11.3402 28.9281C11.4594 29.3999 11.8829 29.7312 12.3695 29.7334H14.1082C14.39 29.7325 14.6606 29.8438 14.8602 30.0428C15.0638 30.2419 15.1775 30.5154 15.1749 30.8001Z" fill="#FEECE4"/>
<path d="M9.74125 28.9281C9.86047 29.3999 10.2839 29.7312 10.7706 29.7334H12.3706C11.8839 29.7312 11.4605 29.3999 11.3412 28.9281C10.9727 27.5184 9.6997 26.5346 8.24258 26.5334H6.64258C8.0997 26.5346 9.37272 27.5184 9.74125 28.9281Z" fill="#FDB396"/>
<path d="M14.8598 30.0424C14.6603 29.8434 14.3896 29.7321 14.1078 29.7331L12.5078 29.7331C12.7896 29.7321 13.0603 29.8434 13.2598 30.0424C13.4634 30.2415 13.5771 30.515 13.5745 30.7998C13.5745 31.3889 13.0969 31.8664 12.5078 31.8664H14.1078C14.6969 31.8664 15.1745 31.3889 15.1745 30.7998C15.1771 30.515 15.0634 30.2415 14.8598 30.0424Z" fill="#FDB396"/>
<path d="M29.575 26.5332C31.3423 26.5332 32.775 25.1006 32.775 23.3332C32.775 21.5659 31.3423 20.1332 29.575 20.1332C27.8077 20.1332 26.375 21.5659 26.375 23.3332C26.375 25.1006 27.8077 26.5332 29.575 26.5332Z" fill="#FEECE4"/>
<path d="M29.5734 20.1332C29.3033 20.1348 29.0345 20.1706 28.7734 20.2399C30.1857 20.6033 31.1729 21.8766 31.1729 23.3348C31.1729 24.7931 30.1857 26.0664 28.7734 26.4298C29.9751 26.743 31.2495 26.3327 32.0427 25.3772C32.8359 24.4216 33.0047 23.0935 32.4756 21.97C31.9466 20.8465 30.8153 20.1305 29.5734 20.1332Z" fill="#FDB396"/>
<path d="M33.8419 29.7334V32.4001C33.8376 32.9874 33.3626 33.4624 32.7753 33.4668H26.3753C25.7869 33.465 25.3104 32.9885 25.3086 32.4001V29.7334C25.3086 27.9661 26.7413 26.5334 28.5086 26.5334H30.6419C32.4092 26.5334 33.8419 27.9661 33.8419 29.7334Z" fill="#FEECE4"/>
<path d="M30.641 26.5334H29.041C30.8083 26.5334 32.241 27.9661 32.241 29.7334V32.4001C32.2367 32.9874 31.7616 33.4624 31.1744 33.4668H32.7744C33.3616 33.4624 33.8367 32.9874 33.841 32.4001V29.7334C33.841 27.9661 32.4083 26.5334 30.641 26.5334Z" fill="#FDB396"/>
<path d="M27.9734 7.95745C27.9734 11.3441 25.2588 13.7815 21.0561 17.4775C21.0069 17.4684 20.9568 17.4648 20.9068 17.4668C20.1801 17.4878 19.5197 17.8943 19.1734 18.5335C18.8272 17.8943 18.1668 17.4878 17.4401 17.4668C16.992 17.4625 16.5612 17.6395 16.2454 17.9575C11.7281 13.9895 8.77344 11.4935 8.77344 7.95745C8.77344 5.01878 10.7308 2.53345 13.5734 2.53345C16.9014 2.53345 18.3734 5.65345 18.3734 5.65345C18.3734 5.65345 19.8454 2.53345 23.1734 2.53345C26.0161 2.53345 27.9734 5.01878 27.9734 7.95745Z" fill="#FEECE4"/>
<path d="M23.175 2.53345C22.9018 2.53547 22.6293 2.55973 22.3601 2.60598C24.7702 3.01825 26.375 5.29878 26.375 7.95745C26.375 11.3441 23.6603 13.7815 19.4577 17.4775C19.4084 17.4684 19.3584 17.4648 19.3083 17.4668C18.9798 17.4663 18.6573 17.5548 18.375 17.7228C18.7069 17.9198 18.9824 18.199 19.175 18.5335C19.5212 17.8943 20.1817 17.4878 20.9083 17.4668C20.9584 17.4648 21.0084 17.4684 21.0577 17.4775C25.2603 13.7815 27.975 11.3441 27.975 7.95745C27.975 5.01878 26.0177 2.53345 23.175 2.53345Z" fill="#FDB396"/>
<path d="M17.3081 25.0508C17.3081 25.9148 16.4868 26.4961 15.2814 27.5574C15.2224 27.616 15.1271 27.616 15.0681 27.5574C13.8628 26.4961 13.0414 25.9148 13.0414 25.0508C13.0219 24.7513 13.1242 24.4567 13.325 24.2338C13.5259 24.0108 13.8083 23.8785 14.1081 23.8668C14.561 23.8844 14.969 24.1455 15.1748 24.5494C15.3805 24.1455 15.7885 23.8844 16.2414 23.8668C16.5413 23.8785 16.8236 24.0108 17.0245 24.2338C17.2253 24.4567 17.3276 24.7513 17.3081 25.0508Z" fill="#FDB396"/>
<path d="M22.6426 19.3226C22.6426 20.6773 21.3146 21.5893 19.3519 23.248C19.2501 23.3333 19.1018 23.3333 18.9999 23.248C17.0372 21.5893 15.7092 20.6773 15.7092 19.3226C15.7009 18.8142 15.8946 18.3231 16.2479 17.9573C16.5637 17.6393 16.9945 17.4624 17.4426 17.4666C18.1692 17.4877 18.8297 17.8941 19.1759 18.5333C19.5222 17.8941 20.1826 17.4877 20.9092 17.4666C20.9593 17.4647 21.0093 17.4683 21.0586 17.4773C21.9932 17.5734 22.6892 18.3842 22.6426 19.3226Z" fill="#FDB396"/>
<path d="M21.0577 17.4773C21.0084 17.4683 20.9584 17.4647 20.9083 17.4666C20.6245 17.4657 20.3444 17.5309 20.0902 17.657C20.6945 17.99 21.0618 18.633 21.0417 19.3226C21.0417 20.528 19.9889 21.384 18.375 22.7258C18.575 22.8922 18.7825 23.065 18.999 23.248C19.1008 23.3333 19.2492 23.3333 19.351 23.248C21.3137 21.5893 22.6417 20.6773 22.6417 19.3226C22.6883 18.3842 21.9923 17.5734 21.0577 17.4773Z" fill="#EF875E"/>
<path d="M8.00095 20.2459C6.70215 19.8964 5.32345 20.397 4.55157 21.4985C3.77969 22.6 3.77969 24.0668 4.55157 25.1683C5.32345 26.2698 6.70215 26.7704 8.00095 26.4209C6.57783 26.0735 5.57653 24.7983 5.57653 23.3334C5.57653 21.8685 6.57783 20.5933 8.00095 20.2459Z" fill="white"/>
<path d="M4.5082 32.4001V29.7334C4.5082 27.9661 5.94089 26.5334 7.70821 26.5334H6.10821C4.34089 26.5334 2.9082 27.9661 2.9082 29.7334V32.4001C2.90996 32.9885 3.3865 33.465 3.97487 33.4668H5.57487C4.9865 33.465 4.50996 32.9885 4.5082 32.4001Z" fill="white"/>
<path d="M17.3068 19.3228C17.2984 18.8143 17.4922 18.3233 17.8454 17.9575C13.3281 13.9895 10.3734 11.4935 10.3734 7.95745C10.3734 5.29878 11.9782 3.01825 14.3884 2.60598C14.1191 2.55973 13.8466 2.53547 13.5734 2.53345C10.7308 2.53345 8.77344 5.01878 8.77344 7.95745C8.77344 11.4935 11.7281 13.9895 16.2454 17.9575C15.8922 18.3233 15.6984 18.8143 15.7068 19.3228C15.7068 20.5281 16.7596 21.3841 18.3734 22.726C18.5734 22.8924 18.7809 23.0652 18.9974 23.2481C19.0993 23.3334 19.2476 23.3334 19.3494 23.2481C19.566 23.0652 19.7761 22.8924 19.9734 22.726C18.3596 21.3841 17.3068 20.5281 17.3068 19.3228Z" fill="white"/>
<path d="M10.5889 11.6165L9.71365 12.2266C8.78971 10.9919 8.27519 9.49906 8.24219 7.95728H9.30885C9.34131 9.28105 9.78908 10.5611 10.5889 11.6165Z" fill="white"/>
<path d="M14.1083 29.2002H12.3707C12.1276 29.1989 11.9162 29.0333 11.8566 28.7976C11.5488 27.6107 10.6766 26.6514 9.52434 26.2322C10.7538 25.2373 11.2229 23.5755 10.6952 22.0845C10.1675 20.5935 8.75746 19.5968 7.1758 19.5968C5.59415 19.5968 4.18413 20.5935 3.65641 22.0845C3.12868 23.5755 3.59777 25.2373 4.82727 26.2322C3.35704 26.7703 2.37817 28.168 2.375 29.7336V32.4002C2.375 33.2839 3.09134 34.0002 3.975 34.0002H8.24167C9.12533 34.0002 9.84167 33.2839 9.84167 32.4002V32.3032C10.0126 32.3658 10.193 32.3986 10.375 32.4002H14.1083C14.992 32.4002 15.7083 31.6839 15.7083 30.8002C15.7083 29.9166 14.992 29.2002 14.1083 29.2002ZM4.50833 23.3336C4.50833 21.8608 5.70224 20.6669 7.175 20.6669C8.64776 20.6669 9.84167 21.8608 9.84167 23.3336C9.84167 24.8063 8.64776 26.0002 7.175 26.0002C5.70297 25.9985 4.5101 24.8056 4.50833 23.3336ZM14.1083 31.3336H10.375C10.0805 31.3336 9.84167 31.0948 9.84167 30.8002V29.7336C9.84167 29.439 9.60289 29.2002 9.30834 29.2002C9.01378 29.2002 8.775 29.439 8.775 29.7336V32.4002C8.775 32.6948 8.53622 32.9336 8.24167 32.9336H5.47687C5.54004 32.7628 5.57323 32.5823 5.575 32.4002V29.7336C5.575 29.439 5.33622 29.2002 5.04167 29.2002C4.74712 29.2002 4.50833 29.439 4.50833 29.7336V32.4002C4.50833 32.6948 4.26955 32.9336 3.975 32.9336C3.68045 32.9336 3.44167 32.6948 3.44167 32.4002V29.7336C3.44343 28.2615 4.63631 27.0687 6.10834 27.0669H8.24167C9.4569 27.0663 10.5188 27.8874 10.8241 29.0637C11.005 29.7705 11.6412 30.2654 12.3707 30.2669H14.1083C14.4029 30.2669 14.6417 30.5057 14.6417 30.8002C14.6417 31.0948 14.4029 31.3336 14.1083 31.3336Z" fill="#451E09"/>
<path d="M31.9201 26.2316C33.1497 25.2367 33.619 23.5749 33.0913 22.0838C32.5636 20.5927 31.1536 19.5959 29.5718 19.5959C27.9901 19.5959 26.5801 20.5927 26.0524 22.0838C25.5247 23.5749 25.9939 25.2367 27.2236 26.2316C25.754 26.7705 24.7761 28.1682 24.7734 29.7335V32.4001C24.7734 33.2838 25.4898 34.0001 26.3734 34.0001H32.7734C33.6571 34.0001 34.3734 33.2838 34.3734 32.4001V29.7335C34.3703 28.1674 33.3909 26.7694 31.9201 26.2316ZM26.9068 23.3335C26.9068 21.8607 28.1007 20.6668 29.5734 20.6668C31.0462 20.6668 32.2401 21.8607 32.2401 23.3335C32.2401 24.8062 31.0462 26.0001 29.5734 26.0001C28.1014 25.9984 26.9085 24.8055 26.9068 23.3335ZM33.3068 32.4001C33.3068 32.6947 33.068 32.9335 32.7734 32.9335C32.4789 32.9335 32.2401 32.6947 32.2401 32.4001V29.7335C32.2401 29.4389 32.0013 29.2001 31.7068 29.2001C31.4122 29.2001 31.1734 29.4389 31.1734 29.7335V32.4001C31.1752 32.5822 31.2084 32.7627 31.2716 32.9335H27.8753C27.9385 32.7627 27.9717 32.5822 27.9734 32.4001V29.7335C27.9734 29.4389 27.7347 29.2001 27.4401 29.2001C27.1456 29.2001 26.9068 29.4389 26.9068 29.7335V32.4001C26.9068 32.6947 26.668 32.9335 26.3734 32.9335C26.0789 32.9335 25.8401 32.6947 25.8401 32.4001V29.7335C25.8419 28.2614 27.0347 27.0686 28.5068 27.0668H30.6401C32.1121 27.0686 33.305 28.2614 33.3068 29.7335V32.4001Z" fill="#451E09"/>
<path d="M9.1571 10.5866C8.86255 10.5881 8.62257 10.3505 8.6211 10.056C8.61963 9.76141 8.85722 9.52143 9.15177 9.51996H9.1571C9.45165 9.51996 9.69043 9.75874 9.69043 10.0533C9.69043 10.3478 9.45165 10.5866 9.1571 10.5866Z" fill="#451E09"/>
<path d="M12.7491 5.39C12.9253 5.30783 13.0428 5.13626 13.0558 4.94224C13.0688 4.74823 12.9752 4.56252 12.8115 4.4576C12.6478 4.35267 12.4399 4.34516 12.2691 4.438C11.0343 5.16974 10.3057 6.52445 10.3757 7.958C10.3937 8.98986 10.7271 9.9915 11.3309 10.8284C11.4938 11.0741 11.825 11.1412 12.0707 10.9783C12.3163 10.8154 12.3834 10.4842 12.2205 10.2385C11.7354 9.57513 11.4639 8.77961 11.4424 7.958C11.4424 7.00814 11.8467 5.84547 12.7491 5.39Z" fill="#451E09"/>
<path d="M16.2425 23.3335C15.8524 23.3332 15.4747 23.4705 15.1758 23.7212C14.6814 23.2989 13.9822 23.2135 13.4007 23.5043C12.8191 23.7951 12.468 24.4056 12.5091 25.0546C12.5091 26.0514 13.2489 26.6903 14.2723 27.5756L14.7145 27.9602C14.9785 28.1916 15.3731 28.1916 15.6371 27.9602L16.0793 27.5751C17.1027 26.6892 17.8425 26.0503 17.8425 25.0535C17.8627 24.6121 17.7045 24.1811 17.4035 23.8576C17.1026 23.5341 16.6842 23.3452 16.2425 23.3335ZM15.3817 26.7676L15.1758 26.9463L14.9699 26.7676C14.0286 25.9532 13.5758 25.541 13.5758 25.0535C13.5572 24.8956 13.6034 24.7369 13.7039 24.6138C13.8045 24.4906 13.9507 24.4135 14.1091 24.4002C14.3572 24.4169 14.579 24.5605 14.6958 24.7799C14.784 24.9619 14.9682 25.0778 15.1705 25.0786C15.3726 25.0754 15.5574 24.9637 15.6542 24.7863C15.7696 24.5639 15.9925 24.4176 16.2425 24.4002C16.4009 24.4135 16.5471 24.4906 16.6476 24.6138C16.7482 24.7369 16.7944 24.8956 16.7758 25.0535C16.7758 25.541 16.323 25.9532 15.3817 26.7676Z" fill="#451E09"/>
<path d="M22.0875 17.2816C25.8529 13.9595 28.5089 11.4304 28.5089 7.95734C28.5089 4.56 26.2155 2 23.1755 2C21.2402 2.03119 19.4446 3.01419 18.3755 4.62773C17.3065 3.01419 15.5108 2.03119 13.5755 2C10.5355 2 8.24219 4.56 8.24219 7.95734C8.24219 8.25189 8.48097 8.49067 8.77552 8.49067C9.07007 8.49067 9.30885 8.25189 9.30885 7.95734C9.30885 5.16907 11.143 3.06667 13.5755 3.06667C16.5142 3.06667 17.8385 5.76694 17.8955 5.88054C17.9833 6.06638 18.17 6.18526 18.3755 6.18614C18.5823 6.19064 18.7715 6.07057 18.8555 5.8816C18.9126 5.76694 20.2369 3.06667 23.1755 3.06667C25.6081 3.06667 27.4422 5.16907 27.4422 7.95734C27.4422 11.1099 24.8289 13.4507 20.8662 16.936C20.2289 16.9453 19.6212 17.2062 19.1755 17.6619C18.7201 17.1946 18.0947 16.9318 17.4422 16.9333C17.0298 16.9347 16.6262 17.0527 16.2779 17.2736C15.3083 16.4203 14.3387 15.576 13.407 14.704C12.365 13.7734 11.4208 12.7389 10.5889 11.6165C10.4174 11.3879 10.1 11.3276 9.85659 11.4773C9.73318 11.5536 9.64744 11.6781 9.62026 11.8206C9.59308 11.963 9.62697 12.1104 9.71365 12.2267C10.5874 13.4104 11.5801 14.5014 12.6763 15.4827C13.6139 16.36 14.5729 17.1973 15.5275 18.0352C15.2953 18.4251 15.1736 18.871 15.1755 19.3248C15.1755 20.7536 16.3323 21.7179 17.9339 23.0523C18.1625 23.2425 18.402 23.4432 18.6523 23.6544C18.9542 23.9091 19.3957 23.9091 19.6977 23.6544C19.9483 23.4411 20.1883 23.2416 20.4171 23.0512C22.0171 21.7179 23.1755 20.7525 23.1755 19.3237C23.1885 18.5011 22.7775 17.7297 22.0875 17.2816ZM19.7345 22.2331C19.5567 22.3821 19.3704 22.5378 19.1755 22.7003C18.9825 22.5378 18.7961 22.3821 18.6166 22.2331C17.1361 20.9989 16.2422 20.2539 16.2422 19.3248C16.2202 18.9887 16.3355 18.6579 16.5616 18.4083C16.7878 18.1586 17.1055 18.0113 17.4422 18C17.9666 18.0193 18.4425 18.3125 18.6955 18.7723C18.7857 18.9517 18.9689 19.0652 19.1697 19.0661C19.3732 19.0743 19.562 18.9604 19.6497 18.7765C19.9027 18.3134 20.3814 18.0182 20.9089 18C21.2456 18.0113 21.5633 18.1586 21.7894 18.4083C22.0156 18.6579 22.1309 18.9887 22.1089 19.3248C22.1089 20.2539 21.215 20.9989 19.7345 22.2331Z" fill="#451E09"/>
</svg>
