<svg width="37" height="36" viewBox="0 0 37 36" fill="none" xmlns="http://www.w3.org/2000/svg">
<path d="M34.078 14.5531L33.4113 18.0096C33.3859 18.1301 33.3274 18.2411 33.2424 18.3301C33.1574 18.4192 33.0493 18.4828 32.9301 18.5138C32.811 18.5448 32.6856 18.542 32.5679 18.5057C32.4503 18.4694 32.3451 18.4011 32.2642 18.3083L31.5922 17.5723L22.5144 25.216C22.3211 25.378 22.0769 25.4668 21.8248 25.4666C21.6413 25.4681 21.4607 25.4202 21.3021 25.328L13.4899 20.9333C13.4154 20.8916 13.3319 20.8683 13.2465 20.8655C13.1611 20.8627 13.0763 20.8805 12.9992 20.9173L4.67287 24.832C4.54651 24.8915 4.40964 24.9255 4.2701 24.932C4.13057 24.9385 3.99113 24.9173 3.8598 24.8697C3.72846 24.8222 3.60783 24.7491 3.50482 24.6548C3.40181 24.5604 3.31846 24.4466 3.25955 24.32C3.19204 24.1784 3.1574 24.0235 3.15822 23.8667C3.15858 23.6628 3.21695 23.4632 3.32649 23.2912C3.43604 23.1192 3.59225 22.982 3.77688 22.8955L12.8387 18.6336C12.9924 18.5606 13.1615 18.5258 13.3315 18.5323C13.5016 18.5388 13.6675 18.5864 13.8152 18.671L21.3837 22.9275C21.4782 22.9799 21.5865 23.0024 21.6942 22.9919C21.8018 22.9815 21.9037 22.9385 21.9864 22.8688L30.1447 15.999L29.4407 15.2304C29.3554 15.1425 29.2964 15.0325 29.2703 14.9128C29.2442 14.7931 29.2522 14.6685 29.2933 14.5531C29.3343 14.4377 29.4069 14.3361 29.5027 14.2597C29.5985 14.1834 29.7137 14.1354 29.8354 14.1211L33.3292 13.7371C33.4363 13.726 33.5445 13.74 33.6451 13.7781C33.7458 13.8163 33.8361 13.8774 33.9089 13.9567C33.9817 14.0361 34.0349 14.1313 34.0642 14.2349C34.0936 14.3384 34.0983 14.4474 34.078 14.5531Z" fill="#FDB396"/>
<path d="M33.3323 13.7372L32.2 13.8614C32.3087 13.9376 32.3929 14.0436 32.4424 14.1667C32.4919 14.2898 32.5046 14.4246 32.4789 14.5548L31.8438 17.8481L32.2651 18.3099C32.346 18.4027 32.4512 18.4711 32.5689 18.5074C32.6865 18.5437 32.8119 18.5465 32.9311 18.5155C33.0502 18.4844 33.1583 18.4208 33.2433 18.3318C33.3283 18.2427 33.3868 18.1317 33.4123 18.0113L34.0789 14.5548C34.0995 14.4491 34.095 14.3402 34.0659 14.2366C34.0367 14.133 33.9838 14.0377 33.9112 13.9582C33.8386 13.8788 33.7485 13.8174 33.648 13.779C33.5474 13.7406 33.4393 13.7263 33.3323 13.7372Z" fill="#EF875E"/>
<path d="M6.35767 27.0667H7.42433C7.70723 27.0667 7.97854 27.179 8.17858 27.3791C8.37861 27.5791 8.49099 27.8504 8.49099 28.1333V31.3333H5.29102V28.1333C5.29102 27.8504 5.4034 27.5791 5.60343 27.3791C5.80347 27.179 6.07478 27.0667 6.35767 27.0667Z" fill="#FDB396"/>
<path d="M12.2249 23.8667H13.2915C13.5744 23.8667 13.8457 23.9791 14.0458 24.1791C14.2458 24.3792 14.3582 24.6505 14.3582 24.9334V31.3333H11.1582V24.9334C11.1582 24.6505 11.2706 24.3792 11.4706 24.1791C11.6707 23.9791 11.942 23.8667 12.2249 23.8667Z" fill="#FDB396"/>
<path d="M23.9592 27.0667H25.0259C25.3088 27.0667 25.5801 27.179 25.7801 27.3791C25.9802 27.5791 26.0926 27.8504 26.0926 28.1333V31.3333H22.8926V28.1333C22.8926 27.8504 23.005 27.5791 23.205 27.3791C23.405 27.179 23.6763 27.0667 23.9592 27.0667Z" fill="#FDB396"/>
<path d="M25.0247 27.0667H23.9581C23.8679 27.0678 23.7783 27.0805 23.6914 27.1045C23.9197 27.1635 24.122 27.2964 24.2668 27.4825C24.4115 27.6687 24.4905 27.8975 24.4914 28.1333V31.3333H26.0914V28.1333C26.0914 27.8504 25.979 27.5791 25.779 27.3791C25.5789 27.179 25.3076 27.0667 25.0247 27.0667Z" fill="#EF875E"/>
<path d="M29.8245 22.2668H30.8911C31.174 22.2668 31.4453 22.3792 31.6454 22.5793C31.8454 22.7793 31.9578 23.0506 31.9578 23.3335V31.3335H28.7578V23.3335C28.7578 23.0506 28.8702 22.7793 29.0702 22.5793C29.2703 22.3792 29.5416 22.2668 29.8245 22.2668Z" fill="#FDB396"/>
<path d="M30.8919 22.2668H29.8253C29.7351 22.268 29.6455 22.2807 29.5586 22.3047C29.7869 22.3637 29.9892 22.4966 30.134 22.6827C30.2787 22.8689 30.3577 23.0977 30.3586 23.3335V31.3335H31.9586V23.3335C31.9586 23.0506 31.8462 22.7793 31.6462 22.5793C31.4461 22.3792 31.1748 22.2668 30.8919 22.2668Z" fill="#EF875E"/>
<path d="M18.0901 26.5334H19.1568C19.4397 26.5334 19.711 26.6458 19.911 26.8459C20.111 27.0459 20.2234 27.3172 20.2234 27.6001V31.3334H17.0234V27.6001C17.0234 27.3172 17.1358 27.0459 17.3359 26.8459C17.5359 26.6458 17.8072 26.5334 18.0901 26.5334Z" fill="#FDB396"/>
<path d="M19.1595 26.5334H18.0928C18.0027 26.5346 17.9131 26.5473 17.8262 26.5713C18.0545 26.6303 18.2568 26.7632 18.4016 26.9493C18.5463 27.1355 18.6253 27.3643 18.6262 27.6001V31.3334H20.2262V27.6001C20.2262 27.3172 20.1138 27.0459 19.9137 26.8459C19.7137 26.6458 19.4424 26.5334 19.1595 26.5334Z" fill="#EF875E"/>
<path d="M33.0266 31.3333H4.22682C3.63772 31.3333 3.16016 31.8108 3.16016 32.3999C3.16016 32.989 3.63772 33.4666 4.22682 33.4666H33.0266C33.6157 33.4666 34.0933 32.989 34.0933 32.3999C34.0933 31.8108 33.6157 31.3333 33.0266 31.3333Z" fill="#FEECE4"/>
<path d="M33.0258 31.3333H31.4258C31.7087 31.3333 31.98 31.4456 32.18 31.6457C32.3801 31.8457 32.4924 32.117 32.4924 32.3999C32.4924 32.6828 32.3801 32.9541 32.18 33.1542C31.98 33.3542 31.7087 33.4666 31.4258 33.4666H33.0258C33.3087 33.4666 33.58 33.3542 33.78 33.1542C33.9801 32.9541 34.0924 32.6828 34.0924 32.3999C34.0924 32.117 33.9801 31.8457 33.78 31.6457C33.58 31.4456 33.3087 31.3333 33.0258 31.3333Z" fill="#FDB396"/>
<path d="M26.0914 9.78149V15.3335C26.0906 15.6161 25.9779 15.8869 25.7781 16.0868C25.5782 16.2866 25.3074 16.3993 25.0248 16.4001H12.2249C11.9422 16.3993 11.6714 16.2866 11.4716 16.0868C11.2717 15.8869 11.159 15.6161 11.1582 15.3335V9.78149H26.0914Z" fill="#FEECE4"/>
<path d="M24.4924 9.78149V15.3335C24.4916 15.6161 24.3789 15.8869 24.1791 16.0868C23.9792 16.2866 23.7084 16.3993 23.4258 16.4001H25.0258C25.3084 16.3993 25.5792 16.2866 25.7791 16.0868C25.9789 15.8869 26.0916 15.6161 26.0924 15.3335V9.78149H24.4924Z" fill="#FDB396"/>
<path d="M19.6916 11.0668C23.0772 11.0668 25.1364 10.2706 26.0558 9.80176C26.2284 9.71208 26.3729 9.57648 26.4733 9.4099C26.5737 9.24333 26.6262 9.05226 26.6249 8.85777V6.26685C26.6249 5.98396 26.5125 5.71265 26.3125 5.51261C26.1125 5.31258 25.8411 5.2002 25.5583 5.2002H11.6917C11.4088 5.2002 11.1375 5.31258 10.9374 5.51261C10.7374 5.71265 10.625 5.98396 10.625 6.26685V8.85777C10.6237 9.05226 10.6762 9.24333 10.7766 9.4099C10.877 9.57648 11.0215 9.71208 11.1941 9.80176C12.1135 10.2706 14.1727 11.0668 17.5583 11.0668H19.6916Z" fill="#FEECE4"/>
<path d="M25.5584 5.2002H23.9584C24.2413 5.2002 24.5126 5.31258 24.7127 5.51261C24.9127 5.71265 25.0251 5.98396 25.0251 6.26685V8.85777C25.0264 9.05226 24.9739 9.24333 24.8735 9.4099C24.7731 9.57648 24.6286 9.71208 24.456 9.80176C23.5366 10.2706 21.4779 11.0668 18.0918 11.0668H19.6918C23.0779 11.0668 25.1365 10.2706 26.056 9.80176C26.2286 9.71208 26.3731 9.57648 26.4735 9.4099C26.5739 9.24333 26.6264 9.05226 26.6251 8.85777V6.26685C26.6251 5.98396 26.5127 5.71265 26.3127 5.51261C26.1126 5.31258 25.8413 5.2002 25.5584 5.2002Z" fill="#FDB396"/>
<path d="M19.69 11.0669C19.69 10.4778 19.2124 10.0002 18.6233 10.0002C18.0342 10.0002 17.5566 10.4778 17.5566 11.0669V11.6002C17.5566 12.1893 18.0342 12.6669 18.6233 12.6669C19.2124 12.6669 19.69 12.1893 19.69 11.6002V11.0669Z" fill="#FEECE4"/>
<path d="M4.6741 24.8318L5.09063 24.6361C4.96459 24.5161 4.86981 24.3672 4.81454 24.2022C4.75927 24.0372 4.74519 23.8612 4.77354 23.6896C4.80189 23.5179 4.8718 23.3558 4.97717 23.2173C5.08255 23.0789 5.22019 22.9683 5.37809 22.8953L14.0644 18.8105L13.8164 18.6708C13.6688 18.5862 13.5028 18.5386 13.3328 18.5321C13.1627 18.5256 12.9936 18.5604 12.8399 18.6334L3.77811 22.8953C3.52066 23.0156 3.32155 23.2333 3.22454 23.5004C3.12753 23.7676 3.14057 24.0623 3.26078 24.3198C3.31968 24.4465 3.40303 24.5602 3.50604 24.6546C3.60905 24.7489 3.72969 24.822 3.86102 24.8695C3.99235 24.9171 4.13179 24.9383 4.27133 24.9318C4.41086 24.9253 4.54774 24.8913 4.6741 24.8318Z" fill="white"/>
<path d="M4.22486 33.4667H5.82485C5.54196 33.4667 5.27065 33.3543 5.07061 33.1543C4.87057 32.9543 4.75819 32.683 4.75819 32.4001C4.75819 32.1172 4.87057 31.8458 5.07061 31.6458C5.27065 31.4458 5.54196 31.3334 5.82485 31.3334H6.89151V28.1334C6.89239 27.8976 6.97138 27.6688 7.11612 27.4826C7.26086 27.2965 7.4632 27.1636 7.69151 27.1046C7.25042 27.036 6.80245 27.0233 6.35818 27.0668C6.07529 27.0668 5.80398 27.1791 5.60394 27.3792C5.4039 27.5792 5.29152 27.8505 5.29152 28.1334V31.3334H4.22486C3.94197 31.3334 3.67066 31.4458 3.47062 31.6458C3.27058 31.8458 3.1582 32.1172 3.1582 32.4001C3.1582 32.683 3.27058 32.9543 3.47062 33.1543C3.67066 33.3543 3.94197 33.4667 4.22486 33.4667Z" fill="white"/>
<path d="M11.1583 15.3333C11.1592 15.616 11.2718 15.8868 11.4717 16.0866C11.6715 16.2865 11.9424 16.3992 12.225 16.4H13.825C13.5423 16.3992 13.2715 16.2865 13.0717 16.0866C12.8718 15.8868 12.7592 15.616 12.7583 15.3333V9.78137H12.7658C12.6014 9.68969 12.4646 9.55567 12.3695 9.39324C12.2744 9.2308 12.2245 9.04587 12.225 8.85765V6.26673C12.225 5.98384 12.3374 5.71253 12.5374 5.51249C12.7374 5.31245 13.0088 5.20007 13.2917 5.20007H11.6917C11.4088 5.20007 11.1375 5.31245 10.9374 5.51249C10.7374 5.71253 10.625 5.98384 10.625 6.26673V8.85765C10.6245 9.04587 10.6744 9.2308 10.7695 9.39324C10.8646 9.55567 11.0014 9.68969 11.1658 9.78137H11.1583V15.3333Z" fill="white"/>
<path d="M3.55664 22.4139L7.41795 20.5964L7.87234 21.5617L4.01104 23.3793L3.55664 22.4139Z" fill="white"/>
<path d="M5.22467 22.2135C5.26962 22.3089 5.34184 22.3888 5.43222 22.4432C5.52259 22.4976 5.62706 22.5239 5.73241 22.5189C5.83777 22.5139 5.93927 22.4778 6.0241 22.4151C6.10893 22.3525 6.17327 22.266 6.20898 22.1668C6.24469 22.0676 6.25018 21.96 6.22475 21.8576C6.19932 21.7552 6.1441 21.6627 6.06609 21.5917C5.98809 21.5208 5.89078 21.4745 5.78648 21.4588C5.68218 21.4431 5.57558 21.4587 5.48014 21.5036C5.41674 21.5334 5.35984 21.5755 5.31269 21.6273C5.26554 21.6791 5.22906 21.7397 5.20534 21.8056C5.18161 21.8715 5.17111 21.9415 5.17443 22.0115C5.17774 22.0814 5.19482 22.1501 5.22467 22.2135Z" fill="#451E09"/>
<path d="M4.00261 23.3786C4.12711 23.3166 4.22247 23.2084 4.26835 23.0771C4.31424 22.9458 4.30702 22.8018 4.24824 22.6757C4.18946 22.5497 4.08377 22.4516 3.9537 22.4024C3.82362 22.3531 3.67946 22.3566 3.55195 22.4122C3.27539 22.5417 3.04139 22.7472 2.87726 23.0047C2.71313 23.2623 2.62564 23.5612 2.62502 23.8666C2.62372 24.1018 2.67568 24.3343 2.77702 24.5466C2.95744 24.9293 3.28214 25.225 3.68005 25.3689C4.07796 25.5129 4.51668 25.4933 4.90021 25.3146L13.2282 21.3978L21.0361 25.7866C21.2752 25.9271 21.5476 26.0008 21.8249 25.9999C22.2018 26.0002 22.5669 25.8681 22.8564 25.6266L31.5443 18.3103L31.875 18.6725C32.0273 18.8381 32.2226 18.9583 32.4391 19.0197C32.6557 19.0811 32.885 19.0813 33.1016 19.0202C33.3111 18.9605 33.5 18.8439 33.6474 18.6834C33.7947 18.5229 33.8947 18.3247 33.9363 18.1109L34.6019 14.6586C34.6387 14.4708 34.631 14.277 34.5793 14.0927C34.5276 13.9085 34.4334 13.7389 34.3042 13.5977C34.175 13.4565 34.0145 13.3476 33.8355 13.2797C33.6566 13.2118 33.4642 13.1869 33.2739 13.2069L29.7811 13.5909C29.564 13.6137 29.3575 13.6965 29.1849 13.8302C29.0122 13.9639 28.8804 14.1431 28.804 14.3477C28.7254 14.5574 28.7068 14.7848 28.7504 15.0045C28.7941 15.2241 28.8982 15.4272 29.051 15.5909L29.379 15.9488L21.6457 22.4628L14.0799 18.2079C13.8581 18.0806 13.6087 18.0089 13.3532 17.9992C13.0976 17.9894 12.8435 18.0419 12.6127 18.1519L7.41112 20.5973C7.28311 20.6574 7.18426 20.766 7.1363 20.8991C7.08834 21.0322 7.09521 21.1788 7.15539 21.3069C7.21558 21.4349 7.32415 21.5337 7.45723 21.5817C7.5903 21.6296 7.73698 21.6228 7.86499 21.5626L13.066 19.1162H13.0714C13.1477 19.0809 13.2314 19.0645 13.3154 19.0683C13.3993 19.0721 13.4812 19.096 13.554 19.1381L21.1273 23.3956C21.3165 23.5002 21.5328 23.5451 21.748 23.5243C21.9631 23.5036 22.1669 23.4182 22.3326 23.2794L30.4926 16.409C30.5476 16.3627 30.5927 16.3057 30.6252 16.2415C30.6576 16.1773 30.6767 16.1071 30.6813 16.0353C30.686 15.9635 30.676 15.8915 30.6521 15.8237C30.6282 15.7558 30.5908 15.6935 30.5422 15.6405L29.8355 14.8693C29.8161 14.8507 29.8026 14.8269 29.7966 14.8007C29.7906 14.7746 29.7925 14.7472 29.8019 14.7221C29.8089 14.7024 29.8215 14.6851 29.8382 14.6725C29.8549 14.6599 29.8749 14.6525 29.8958 14.6512L33.3869 14.2666C33.4114 14.2642 33.436 14.2677 33.4587 14.277C33.4814 14.2863 33.5014 14.3011 33.5171 14.32C33.5335 14.3376 33.5454 14.3589 33.5519 14.3821C33.5584 14.4053 33.5592 14.4297 33.5544 14.4533L32.8883 17.9061C32.8854 17.9272 32.8763 17.9469 32.8622 17.9628C32.848 17.9786 32.8294 17.9899 32.8088 17.9951C32.782 18.0029 32.7536 18.0027 32.7269 17.9947C32.7002 17.9866 32.6764 17.9711 32.6584 17.9498L31.9864 17.2138C31.8936 17.112 31.7649 17.0501 31.6274 17.041C31.4899 17.032 31.3542 17.0765 31.2488 17.1653L22.1721 24.8068C22.0892 24.878 21.9863 24.9216 21.8776 24.9316C21.7688 24.9416 21.6596 24.9176 21.5652 24.8628L13.7545 20.4698C13.6057 20.3855 13.4387 20.3382 13.2677 20.332C13.0967 20.3258 12.9268 20.3608 12.7722 20.4341L4.44634 24.3492C4.38301 24.3794 4.31427 24.3966 4.24418 24.3998C4.17409 24.403 4.10407 24.3921 4.03825 24.3678C3.97243 24.3435 3.91215 24.3063 3.86096 24.2583C3.80977 24.2103 3.76872 24.1525 3.74022 24.0884C3.70758 24.0191 3.69099 23.9432 3.69168 23.8666C3.69191 23.7641 3.72126 23.6638 3.77631 23.5774C3.83136 23.491 3.90985 23.4221 4.00261 23.3786Z" fill="#451E09"/>
<path d="M33.0248 30.8H32.4915V23.3334C32.4915 22.909 32.3229 22.5021 32.0228 22.202C31.7228 21.902 31.3158 21.7334 30.8915 21.7334H29.8248C29.4005 21.7334 28.9935 21.902 28.6934 22.202C28.3934 22.5021 28.2248 22.909 28.2248 23.3334V30.8H26.6248V28.1334C26.6248 27.709 26.4563 27.302 26.1562 27.002C25.8561 26.7019 25.4492 26.5334 25.0248 26.5334H23.9582C23.5338 26.5334 23.1269 26.7019 22.8268 27.002C22.5268 27.302 22.3582 27.709 22.3582 28.1334V30.8H20.7582V27.6C20.7582 27.1757 20.5896 26.7687 20.2896 26.4687C19.9895 26.1686 19.5826 26 19.1582 26H18.0916C17.6672 26 17.2603 26.1686 16.9602 26.4687C16.6601 26.7687 16.4916 27.1757 16.4916 27.6V30.8H14.8916V24.9334C14.8916 24.509 14.723 24.1021 14.423 23.802C14.1229 23.502 13.7159 23.3334 13.2916 23.3334H12.2249C11.8006 23.3334 11.3936 23.502 11.0936 23.802C10.7935 24.1021 10.6249 24.509 10.6249 24.9334V30.8H9.02496V28.1334C9.02496 27.709 8.85639 27.302 8.55633 27.002C8.25627 26.7019 7.84931 26.5334 7.42497 26.5334H6.35831C5.93396 26.5334 5.527 26.7019 5.22694 27.002C4.92689 27.302 4.75832 27.709 4.75832 28.1334V30.8H4.22499C3.80065 30.8 3.39368 30.9686 3.09363 31.2686C2.79357 31.5687 2.625 31.9756 2.625 32.4C2.625 32.8243 2.79357 33.2313 3.09363 33.5314C3.39368 33.8314 3.80065 34 4.22499 34H33.0248C33.4491 34 33.8561 33.8314 34.1561 33.5314C34.4562 33.2313 34.6248 32.8243 34.6248 32.4C34.6248 31.9756 34.4562 31.5687 34.1561 31.2686C33.8561 30.9686 33.4491 30.8 33.0248 30.8ZM29.2915 23.3334C29.2915 23.1919 29.3477 23.0563 29.4477 22.9563C29.5477 22.8562 29.6834 22.8001 29.8248 22.8001H30.8915C31.0329 22.8001 31.1686 22.8562 31.2686 22.9563C31.3686 23.0563 31.4248 23.1919 31.4248 23.3334V30.8H29.2915V23.3334ZM23.4249 28.1334C23.4249 27.9919 23.481 27.8563 23.5811 27.7562C23.6811 27.6562 23.8167 27.6 23.9582 27.6H25.0248C25.1663 27.6 25.3019 27.6562 25.402 27.7562C25.502 27.8563 25.5582 27.9919 25.5582 28.1334V30.8H23.4249V28.1334ZM17.5582 27.6C17.5582 27.4586 17.6144 27.3229 17.7144 27.2229C17.8145 27.1229 17.9501 27.0667 18.0916 27.0667H19.1582C19.2997 27.0667 19.4353 27.1229 19.5353 27.2229C19.6354 27.3229 19.6915 27.4586 19.6915 27.6V30.8H17.5582V27.6ZM11.6916 24.9334C11.6916 24.7919 11.7478 24.6563 11.8478 24.5563C11.9478 24.4562 12.0835 24.4 12.2249 24.4H13.2916C13.433 24.4 13.5687 24.4562 13.6687 24.5563C13.7687 24.6563 13.8249 24.7919 13.8249 24.9334V30.8H11.6916V24.9334ZM5.82498 28.1334C5.82498 27.9919 5.88117 27.8563 5.98119 27.7562C6.08121 27.6562 6.21686 27.6 6.35831 27.6H7.42497C7.56641 27.6 7.70207 27.6562 7.80209 27.7562C7.90211 27.8563 7.9583 27.9919 7.9583 28.1334V30.8H5.82498V28.1334ZM33.0248 32.9333H4.22499C4.08354 32.9333 3.94789 32.8771 3.84787 32.7771C3.74785 32.6771 3.69166 32.5414 3.69166 32.4C3.69166 32.2585 3.74785 32.1229 3.84787 32.0229C3.94789 31.9229 4.08354 31.8667 4.22499 31.8667H33.0248C33.1662 31.8667 33.3019 31.9229 33.4019 32.0229C33.5019 32.1229 33.5581 32.2585 33.5581 32.4C33.5581 32.5414 33.5019 32.6771 33.4019 32.7771C33.3019 32.8771 33.1662 32.9333 33.0248 32.9333Z" fill="#451E09"/>
<path d="M12.2232 16.9332H25.0231C25.4474 16.9332 25.8544 16.7647 26.1545 16.4646C26.4545 16.1645 26.6231 15.7576 26.6231 15.3332V10.0533C26.7916 9.90359 26.9263 9.71972 27.0183 9.51392C27.1103 9.30812 27.1573 9.0851 27.1564 8.85969V6.26664C27.1564 5.84229 26.9878 5.43533 26.6878 5.13527C26.3877 4.83522 25.9808 4.66665 25.5564 4.66665H22.3031C22.0855 3.53066 21.1517 2 18.6231 2C16.0946 2 15.1629 3.53066 14.9432 4.66665H11.6899C11.2655 4.66665 10.8585 4.83522 10.5585 5.13527C10.2584 5.43533 10.0899 5.84229 10.0899 6.26664V8.85755C10.0886 9.08332 10.1356 9.30676 10.2275 9.51295C10.3195 9.71914 10.4544 9.90335 10.6232 10.0533V15.3332C10.6232 15.7576 10.7918 16.1645 11.0918 16.4646C11.3919 16.7647 11.7988 16.9332 12.2232 16.9332ZM25.0231 15.8666H12.2232C12.0817 15.8666 11.9461 15.8104 11.8461 15.7104C11.746 15.6103 11.6899 15.4747 11.6899 15.3332V10.6095C13.3953 11.2505 15.2012 11.5832 17.0232 11.5919V11.5999C17.0232 12.0243 17.1917 12.4312 17.4918 12.7313C17.7918 13.0314 18.1988 13.1999 18.6231 13.1999C19.0475 13.1999 19.4544 13.0314 19.7545 12.7313C20.0546 12.4312 20.2231 12.0243 20.2231 11.5999V11.5919C22.0451 11.5832 23.8509 11.2505 25.5564 10.6095V15.3332C25.5564 15.4747 25.5002 15.6103 25.4002 15.7104C25.3002 15.8104 25.1645 15.8666 25.0231 15.8666ZM18.0898 11.5999V11.0666C18.0898 10.9252 18.146 10.7895 18.246 10.6895C18.346 10.5895 18.4817 10.5333 18.6231 10.5333C18.7646 10.5333 18.9002 10.5895 19.0003 10.6895C19.1003 10.7895 19.1565 10.9252 19.1565 11.0666V11.5999C19.1565 11.7414 19.1003 11.877 19.0003 11.9771C18.9002 12.0771 18.7646 12.1333 18.6231 12.1333C18.4817 12.1333 18.346 12.0771 18.246 11.9771C18.146 11.877 18.0898 11.7414 18.0898 11.5999ZM18.6231 3.06666C20.4413 3.06666 21.0183 4.02665 21.2023 4.66665H16.0445C16.229 4.02665 16.8061 3.06666 18.6231 3.06666ZM11.1565 6.26664C11.1565 6.12519 11.2127 5.98954 11.3127 5.88952C11.4128 5.7895 11.5484 5.73331 11.6899 5.73331H25.5564C25.6979 5.73331 25.8335 5.7895 25.9335 5.88952C26.0336 5.98954 26.0898 6.12519 26.0898 6.26664V8.85755C26.0913 8.95375 26.0662 9.0485 26.0172 9.13127C25.9681 9.21403 25.897 9.28156 25.8119 9.32635C24.0286 10.1451 22.0849 10.5553 20.1229 10.5269C20.0131 10.2168 19.81 9.94845 19.5414 9.75862C19.2728 9.56879 18.952 9.46686 18.6231 9.46686C18.2943 9.46686 17.9735 9.56879 17.7049 9.75862C17.4363 9.94845 17.2332 10.2168 17.1234 10.5269C15.1613 10.5553 13.2177 10.1451 11.4344 9.32635C11.3492 9.28156 11.2782 9.21403 11.2291 9.13127C11.1801 9.0485 11.1549 8.95375 11.1565 8.85755V6.26664Z" fill="#451E09"/>
</svg>
