<svg width="37" height="36" viewBox="0 0 37 36" fill="none" xmlns="http://www.w3.org/2000/svg">
<path d="M29.0651 2.61275L28.4481 7.18441C28.3795 7.76887 28.1229 8.31569 27.7172 8.74204L25.3264 11.2765L25.2965 11.3066L23.8044 12.8882C23.7261 12.9916 23.684 13.118 23.6848 13.2479V19.2932L24.158 24.0746L24.4996 23.9968L24.9789 26.669C25.0598 27.1324 25.0657 27.6056 24.9968 28.071L24.871 28.7001C24.7723 29.3356 24.3415 29.8698 23.7414 30.1007C23.1414 30.3316 22.4635 30.224 21.9644 29.8185C21.4652 29.4131 21.221 28.7717 21.3241 28.1368L21.4557 27.4118L20.9945 24.8236L22.4624 24.4761L17.094 19.467V14.9614L15.9315 15.5846L14.877 12.0675L17.3517 10.7492L18.1905 10.3058C18.5128 10.1312 18.8605 10.008 19.2211 9.94051C19.4383 9.89952 19.6589 9.87945 19.88 9.88056H20.6711C21.2357 9.88168 21.768 9.61761 22.1091 9.16756L22.8159 8.53848L24.2598 7.25022L24.2718 7.24408L24.7152 6.84868C24.8225 6.75443 24.8928 6.62477 24.9131 6.4834L25.4942 2.17524C25.5556 1.61421 25.8835 1.11675 26.3748 0.839298C26.7134 0.642712 27.1071 0.562684 27.4955 0.611482C27.8081 0.651635 28.1051 0.77126 28.3583 0.958922C28.8722 1.34456 29.1415 1.97475 29.0651 2.61275Z" fill="#FDB396"/>
<path d="M18.273 24.6259L17.3503 26.2555C17.0863 26.7061 16.7135 27.0831 16.2659 27.3522L15.8103 27.6157L14.5703 28.3465L11.4246 30.1083C10.6112 30.5856 9.56723 30.3528 9.0338 29.5748L8.96214 29.4669C8.45994 28.6097 8.74687 27.508 9.6032 27.0044L12.7249 25.2371L12.7547 25.219L14.1629 24.4162C14.2535 24.3604 14.3279 24.2821 14.3784 24.1884L15.3549 22.4629L17.2363 23.8588L18.273 24.6259Z" fill="#FDB396"/>
<path d="M16.4954 32.4029C16.4949 34.0573 15.1539 35.3983 13.4995 35.3988C13.1953 35.3977 12.8928 35.3534 12.6008 35.2669C11.3524 34.8715 10.5039 33.7127 10.5039 32.4029C10.5039 31.0932 11.3524 29.9346 12.6008 29.5389C12.8928 29.4525 13.1953 29.4081 13.4995 29.4073C15.1539 29.4078 16.4949 30.7488 16.4954 32.4029Z" fill="#EF875E"/>
<path d="M14.698 32.403C14.698 30.8213 13.7591 29.5389 12.6008 29.5389C11.4428 29.5389 10.5039 30.8213 10.5039 32.403C10.5039 33.9848 11.4428 35.267 12.6008 35.267C13.7591 35.267 14.698 33.9848 14.698 32.403Z" fill="#FDB396"/>
<path d="M23.0853 6.89081C23.0847 8.54491 21.7438 9.88588 20.0894 9.88644C19.7852 9.8856 19.4826 9.84126 19.1907 9.75482C17.9423 9.35914 17.0938 8.20054 17.0938 6.89081C17.0938 5.58107 17.9423 4.42219 19.1907 4.02679C19.4826 3.94035 19.7852 3.89573 20.0894 3.8949C21.7438 3.89546 23.0847 5.23642 23.0853 6.89081Z" fill="#FDB396"/>
<path d="M21.2879 6.89081C21.2879 5.30892 20.349 4.02679 19.1907 4.02679C18.0326 4.02679 17.0938 5.30892 17.0938 6.89081C17.0938 8.47242 18.0326 9.75482 19.1907 9.75482C20.349 9.75482 21.2879 8.47242 21.2879 6.89081Z" fill="#FEECE4"/>
<path d="M27.2663 2.61281L26.6493 7.18447C26.5807 7.76893 26.3241 8.31574 25.9181 8.7421L24.8998 9.82067L24.9176 9.88648L23.4978 11.3066L22.0057 12.8882C21.9273 12.9917 21.8852 13.118 21.886 13.2479V18.8979L22.8804 25.0035L23.1802 26.669C23.261 27.1325 23.2669 27.6057 23.198 28.0711L23.0722 28.7001C22.9861 29.235 22.6651 29.7031 22.1975 29.9764C21.5531 29.6036 21.2054 28.8722 21.3228 28.1369L21.4544 27.4119L20.999 24.8476L20.9932 24.8236L20.484 21.8637H19.8728L18.285 24.6318L16.9906 24.2963L16.2958 25.5247C15.9901 26.0489 15.5574 26.4878 15.0376 26.8009L14.8519 26.9086L14.8756 26.9267L13.6356 27.6575L10.4899 29.4193C10.0499 29.6794 9.51899 29.736 9.0338 29.5749L8.96214 29.467C8.45994 28.6098 8.74687 27.5081 9.6032 27.0045L12.7249 25.2372L12.8147 25.3088L12.7547 25.219L14.1629 24.4162C14.2535 24.3605 14.3279 24.2821 14.3784 24.1884L15.3549 22.4629L15.4149 22.5048L15.3789 22.4568L17.0927 19.4852V19.467L17.2243 19.4311H17.0927V14.9615L15.9302 15.5847L15.5588 15.7824C15.4642 15.8289 15.3853 15.9017 15.3312 15.9921L13.8271 18.3946C13.5751 18.8006 13.1713 19.0892 12.7056 19.196C12.2397 19.3031 11.7506 19.2194 11.3468 18.9637C11.0786 18.8003 10.8608 18.5661 10.7175 18.2867C10.4102 17.7212 10.433 17.0333 10.7774 16.4892L12.3891 13.9069C12.7037 13.4016 13.1459 12.9881 13.6715 12.7087L14.8756 12.0676L17.3503 10.7492L18.1891 10.3059C18.5115 10.1313 18.8592 10.0081 19.2197 9.94057C19.4369 9.89958 19.6575 9.8795 19.8786 9.88062H20.6697C21.2344 9.88173 21.7667 9.61767 22.1077 9.16761L24.2704 7.24414L24.7138 6.84874C24.8212 6.75449 24.8914 6.62483 24.9118 6.48345L25.4929 2.1753C25.5542 1.61427 25.8822 1.11681 26.3735 0.839355C26.4376 0.875605 26.4998 0.915759 26.5595 0.95898C27.0734 1.34462 27.3427 1.97481 27.2663 2.61281Z" fill="#FEECE4"/>
<path d="M12.2996 32.4029C12.2999 31.1052 13.1342 29.9547 14.3678 29.5509C14.3355 29.5411 14.304 29.5297 14.2714 29.5211L13.2223 30.1083C12.6995 30.4131 12.0582 30.4334 11.5166 30.1627C10.7058 30.8774 10.343 31.9735 10.5672 33.0309C10.7916 34.0883 11.568 34.9429 12.5991 35.2669C12.8911 35.3534 13.1936 35.3977 13.4978 35.3988C13.7934 35.3946 14.0865 35.3461 14.3676 35.2549C13.1342 34.8512 12.2999 33.7007 12.2996 32.4029Z" fill="white"/>
<path d="M19.9884 10.3058C20.3107 10.1313 20.6584 10.008 21.019 9.94053C21.2362 9.89954 21.457 9.87946 21.6779 9.88058H21.8078C21.5976 9.87389 21.3887 9.84628 21.1841 9.79776C21.0181 9.84991 20.8453 9.87779 20.6715 9.88058H20.1498C20.4248 9.87249 20.6975 9.82593 20.9599 9.74283C19.7263 9.33934 18.892 8.18855 18.892 6.89053C18.892 5.5925 19.7263 4.44171 20.9599 4.03822C20.6788 3.94732 20.3857 3.89908 20.0901 3.8949C19.7859 3.89573 19.4834 3.94035 19.1914 4.02679C17.943 4.42219 17.0945 5.58107 17.0945 6.89081C17.0945 8.20054 17.943 9.35914 19.1914 9.75482C19.458 9.83178 19.7332 9.87389 20.0104 9.88058H19.8805C19.6593 9.87946 19.4388 9.89954 19.2215 9.94053C18.861 10.008 18.5133 10.1313 18.1909 10.3058L17.3522 10.7492L14.8774 12.0676L13.6734 12.7086C13.1477 12.988 12.7055 13.4016 12.391 13.9068L10.7792 16.4892C10.4349 17.0332 10.412 17.7211 10.7193 18.2866C10.8626 18.566 11.0804 18.8003 11.3486 18.9637C11.9125 19.3189 12.6277 19.3298 13.2021 18.9918C13.1837 18.9812 13.1642 18.9751 13.1461 18.9637C12.8778 18.8003 12.66 18.566 12.517 18.2866C12.2094 17.7211 12.2323 17.0332 12.5767 16.4892L14.1884 13.9068C14.5029 13.4016 14.9452 12.988 15.4708 12.7086L16.6751 12.0676L19.1496 10.7492L19.9884 10.3058Z" fill="white"/>
<path d="M20.089 10.4812C18.1036 10.4812 16.4941 8.87175 16.4941 6.88637C16.4941 4.901 18.1036 3.2915 20.089 3.2915C22.0747 3.2915 23.6842 4.901 23.6842 6.88637C23.6819 8.87091 22.0735 10.4793 20.089 10.4812ZM20.089 4.4897C18.7656 4.4897 17.6923 5.56269 17.6923 6.88637C17.6923 8.21005 18.7656 9.28304 20.089 9.28304C21.4127 9.28304 22.4857 8.21005 22.4857 6.88637C22.4843 5.56325 21.4121 4.49109 20.089 4.4897Z" fill="#451E09"/>
<path d="M17.6344 11.2798L14.1962 13.109C13.9397 13.2295 13.6985 13.3806 13.4785 13.5591C13.2735 13.7306 13.0942 13.9308 12.9464 14.1536L11.9231 15.791L11.2884 16.8079L10.2715 16.1736L10.9064 15.1566L11.9473 13.4916C12.159 13.1726 12.4155 12.8857 12.7091 12.64C12.9933 12.4086 13.3034 12.2109 13.633 12.0511L17.0711 10.2222L17.6344 11.2798Z" fill="white"/>
<path d="M14.7084 12.1578C14.8646 12.4492 15.2265 12.5599 15.5187 12.4055L17.6349 11.2798L17.0716 10.2221L14.956 11.3475C14.6646 11.5037 14.5539 11.8656 14.7084 12.1578Z" fill="#451E09"/>
<path d="M10.2715 16.1735L11.2882 16.8079L11.9228 15.7909L12.2404 15.2826C12.4158 15.0021 12.3302 14.6323 12.0494 14.4572C11.7686 14.2818 11.3991 14.3674 11.2237 14.6482L10.9064 15.1566L10.2715 16.1735Z" fill="#451E09"/>
<path d="M13.5274 13.52C13.6311 13.4299 13.7003 13.3064 13.7229 13.1709L13.7318 13.061C13.7326 13.0214 13.7293 12.9818 13.7215 12.9428C13.719 12.9052 13.7112 12.8678 13.6986 12.8321C13.6855 12.7942 13.6699 12.7571 13.6518 12.7211C13.5745 12.5786 13.4382 12.4777 13.2795 12.4451C13.1931 12.4322 13.1049 12.4384 13.0213 12.4629C12.7544 12.5362 12.5606 12.7666 12.5333 13.0418C12.5316 13.1232 12.5489 13.2038 12.5835 13.2774C12.615 13.3494 12.6619 13.4135 12.7207 13.4656C12.8409 13.5644 12.9889 13.6232 13.144 13.6341C13.2812 13.6416 13.4167 13.6012 13.5274 13.52Z" fill="#451E09"/>
<path d="M10.5138 30.9202C10.3027 30.9202 10.0927 30.8923 9.88862 30.8377C8.95281 30.587 8.2596 29.7984 8.13078 28.8383C8.00195 27.878 8.4626 26.9347 9.29914 26.4458L13.8836 23.8738L16.4964 19.3264V15.9602L15.8411 16.309L14.3381 18.7135C14.0016 19.2547 13.4631 19.639 12.8419 19.7815C12.2209 19.9237 11.5687 19.8124 11.0299 19.4719C10.6702 19.2519 10.3785 18.9366 10.1867 18.561C9.78014 17.8075 9.81333 16.8929 10.2737 16.171C10.4505 15.891 10.8205 15.8074 11.1005 15.9841C11.3804 16.1609 11.4638 16.5312 11.287 16.8109C11.0578 17.1731 11.0433 17.6313 11.2494 18.0069C11.3422 18.1912 11.4847 18.346 11.661 18.4536C11.93 18.6273 12.2577 18.6856 12.57 18.615C12.8823 18.5448 13.1533 18.3515 13.3218 18.0791L14.8247 15.6744C14.936 15.4962 15.0924 15.3503 15.2778 15.2516L16.814 14.434C16.9997 14.3351 17.2236 14.3409 17.404 14.4494C17.5845 14.5576 17.6949 14.7528 17.6946 14.963V19.4867C17.6949 19.5916 17.6673 19.6947 17.6148 19.7856L14.9145 24.4761C14.8097 24.6582 14.6585 24.8096 14.4767 24.915L9.89559 27.4854C9.47983 27.7324 9.25257 28.2045 9.31838 28.6833C9.38446 29.1623 9.73107 29.5552 10.1979 29.6804C10.5043 29.763 10.8306 29.7198 11.1049 29.5608L14.2712 27.8122L15.9585 26.8309C16.321 26.6198 16.6219 26.3179 16.8313 25.9542L19.3562 21.5669C19.463 21.3812 19.661 21.2666 19.8754 21.2666H20.4867C20.7783 21.2669 21.0273 21.4766 21.077 21.764L22.0415 27.3362C22.0541 27.407 22.0532 27.4795 22.0398 27.5501L21.9021 28.2765C21.8017 28.929 22.2476 29.5396 22.8995 29.6428C23.5515 29.7463 24.1644 29.3029 24.2706 28.6515L24.3961 28.0079C24.4594 27.615 24.4563 27.2141 24.3877 26.8223L23.0955 19.3986C23.09 19.3643 23.0869 19.3294 23.0872 19.2949V13.2459C23.0877 12.986 23.1722 12.7334 23.3281 12.5254C23.3415 12.5075 23.356 12.4902 23.3713 12.474L27.2846 8.33125C27.5992 7.99636 27.7991 7.57001 27.8549 7.11409L28.4728 2.53379C28.521 2.10967 28.3398 1.69224 27.9974 1.43737C27.8275 1.31273 27.629 1.23354 27.4199 1.20677C27.1053 1.16801 26.7883 1.25584 26.5387 1.45131C26.2894 1.64678 26.128 1.93372 26.0906 2.24825L25.5084 6.56003C25.4699 6.84445 25.3305 7.10573 25.1158 7.29618L22.5501 9.57629C22.0942 10.1465 21.4046 10.4792 20.6746 10.4811H19.8813C19.3897 10.4814 18.9056 10.6024 18.4717 10.8333L17.6355 11.2792C17.4461 11.3843 17.2147 11.3793 17.0301 11.2658C16.8458 11.1523 16.7368 10.9482 16.7454 10.7318C16.7541 10.5154 16.8787 10.3205 17.0717 10.2221L17.9085 9.77567C18.5158 9.45277 19.1934 9.28351 19.8816 9.28295H20.6746C21.0511 9.28183 21.4052 9.10532 21.6322 8.80501C21.6561 8.77322 21.6832 8.74394 21.713 8.71773L24.3208 6.39997L24.9022 2.09628C24.98 1.46693 25.3045 0.894461 25.8048 0.504636C26.305 0.114811 26.94 -0.0600247 27.569 0.0183306C27.9859 0.0707535 28.3822 0.230253 28.7193 0.481213C29.405 0.994009 29.7641 1.83389 29.6615 2.68353L29.0433 7.26606C28.9555 7.97349 28.6446 8.63463 28.156 9.15384L24.2862 13.2512L24.2857 19.2427L25.5683 26.6151C25.6609 27.1455 25.6634 27.6875 25.5756 28.2187L25.4501 28.8629C25.2262 30.1609 23.9965 31.0348 22.6968 30.8195C21.3926 30.6026 20.5095 29.3715 20.7223 28.0665L20.8428 27.4324L20.0377 22.7843L17.87 26.5515C17.5563 27.0967 17.1048 27.5501 16.5611 27.8663L14.8624 28.8539L11.6955 30.6029C11.3367 30.8112 10.929 30.9207 10.5138 30.9202Z" fill="#451E09"/>
<path d="M22.378 35.9528C21.8192 35.9712 21.271 35.7964 20.8263 35.4579C20.0134 34.8073 19.8696 33.642 20.4415 32.3415L21.5923 29.7399C21.7264 29.4373 22.0802 29.3004 22.3828 29.4343C22.6856 29.5684 22.8222 29.9223 22.6884 30.2248L21.5379 32.8247C21.1932 33.6083 21.2066 34.2276 21.575 34.5226C22.1335 34.9688 23.535 34.8054 25.1341 33.6281C25.4004 33.4421 25.7668 33.5023 25.9595 33.7642C26.1525 34.026 26.1012 34.3935 25.8444 34.5929C24.8575 35.394 23.6462 35.8692 22.378 35.9528Z" fill="#451E09"/>
<path d="M13.5011 35.9999C11.5157 35.9999 9.90625 34.3905 9.90625 32.4051C9.90625 30.4197 11.5157 28.8099 13.5011 28.8099C15.4868 28.8099 17.0963 30.4197 17.0963 32.4051C17.094 34.3896 15.4857 35.9977 13.5011 35.9999ZM13.5011 30.0084C12.1777 30.0084 11.1047 31.0814 11.1047 32.4051C11.1047 33.7288 12.1777 34.8018 13.5011 34.8018C14.8248 34.8018 15.8978 33.7288 15.8978 32.4051C15.8964 31.082 14.8242 30.0098 13.5011 30.0084Z" fill="#451E09"/>
</svg>
