<svg width="37" height="36" viewBox="0 0 37 36" fill="none" xmlns="http://www.w3.org/2000/svg">
<g clip-path="url(#clip0_5126_2663)">
<path d="M34.9926 25.8779L27.5046 33.5039C27.0819 33.9326 26.5103 34.1819 25.9086 34.1999H15.0726C14.306 34.2011 13.5465 34.3477 12.8346 34.6319L10.9266 35.3999H0.726562V34.1999C0.726562 34.1999 3.72656 31.7999 4.92656 30.5999C6.19063 29.3042 7.59994 28.1586 9.12656 27.1859C11.0786 25.8933 13.3674 25.2027 15.7086 25.1999C16.6808 25.1964 17.6235 25.534 18.3726 26.1539C18.4781 26.2387 18.598 26.3037 18.7266 26.3459C18.8473 26.3819 18.9726 26.4001 19.0986 26.3999H25.2126C26.0772 26.3881 26.8401 26.9634 27.0666 27.7979L31.9266 23.7299L32.5386 23.2199C33.2791 22.598 34.3776 22.6677 35.0336 23.3782C35.6896 24.0888 35.6715 25.1893 34.9926 25.8779Z" fill="#FEECE4"/>
<path d="M35.0894 23.4479C34.5259 22.7741 33.5592 22.6037 32.7992 23.0441C32.9853 23.1484 33.1514 23.2852 33.2894 23.4479C33.8833 24.1634 33.8419 25.2116 33.1934 25.8779L25.7054 33.5039C25.2827 33.9326 24.7111 34.1819 24.1094 34.1999H25.9094C26.5111 34.1819 27.0827 33.9326 27.5054 33.5039L34.9934 25.8779C35.6419 25.2116 35.6833 24.1634 35.0894 23.4479Z" fill="#FDB396"/>
<path d="M31.927 10.8V23.73L27.067 27.798C26.8405 26.9635 26.0776 26.3882 25.213 26.4H19.099C18.8357 26.405 18.579 26.318 18.373 26.154C17.6239 25.5342 16.6812 25.1966 15.709 25.2C13.3678 25.2028 11.079 25.8934 9.12695 27.1861V10.8H31.927Z" fill="#FEECE4"/>
<path d="M30.1269 10.8V23.73L26.4297 26.8249C26.7465 27.0674 26.9712 27.4107 27.0669 27.798L31.9269 23.73V10.8H30.1269Z" fill="#FDB396"/>
<path d="M9.12578 6.00006H31.9258C32.5885 6.00006 33.1258 6.53732 33.1258 7.20006V10.2001C33.1258 10.5314 32.8572 10.8001 32.5258 10.8001H8.52578C8.19441 10.8001 7.92578 10.5314 7.92578 10.2001V7.20006C7.92578 6.53732 8.46304 6.00006 9.12578 6.00006Z" fill="#FEECE4"/>
<path d="M31.927 6.00006H30.127C30.7897 6.00006 31.327 6.53732 31.327 7.20006V10.2001C31.327 10.5314 31.0583 10.8001 30.727 10.8001H32.527C32.8583 10.8001 33.127 10.5314 33.127 10.2001V7.20006C33.127 6.53732 32.5897 6.00006 31.927 6.00006Z" fill="#FDB396"/>
<path d="M17.5273 5.99988H23.5273V10.7999H17.5273V5.99988Z" fill="#FDB396"/>
<path d="M22.3266 10.7999V26.3999H19.0986C18.9726 26.4001 18.8473 26.3819 18.7266 26.3459V10.7999H22.3266Z" fill="#FDB396"/>
<path d="M6.72656 30.6001C7.99063 29.3044 9.39995 28.1588 10.9266 27.1861V10.8001H10.3266C9.99519 10.8001 9.72656 10.5315 9.72656 10.2001V7.20012C9.72656 6.53738 10.2638 6.00012 10.9266 6.00012H9.12656C8.46382 6.00012 7.92656 6.53738 7.92656 7.20012V10.2001C7.92656 10.5315 8.19519 10.8001 8.52656 10.8001H9.12656V27.1861C7.59995 28.1588 6.19063 29.3044 4.92656 30.6001C3.72656 31.8001 0.726562 34.2001 0.726562 34.2001V35.4001H2.52656C2.526 34.6464 2.86333 33.9321 3.44576 33.4537C4.42976 32.6473 5.95256 31.3741 6.72656 30.6001Z" fill="white"/>
<path d="M8.52734 10.8002H9.72734V15.6002H8.52734V10.8002Z" fill="white"/>
<path d="M33.9193 22.208C33.4363 22.1655 32.9516 22.2701 32.5291 22.508V11.4002C33.1918 11.4002 33.7291 10.8629 33.7291 10.2002V7.20018C33.7291 6.20607 32.9232 5.40018 31.9291 5.40018H26.3725C27.1852 4.41504 27.3565 3.04941 26.8123 1.89405C26.2682 0.738682 25.1062 0.00102825 23.8291 0.000183105H23.2291C22.1531 0.000879999 21.1452 0.526791 20.5291 1.40898C19.913 0.526791 18.9051 0.000879999 17.8291 0.000183105H17.2291C15.952 0.00102825 14.79 0.738682 14.2459 1.89405C13.7017 3.04941 13.873 4.41504 14.6857 5.40018H9.1291C8.13499 5.40018 7.3291 6.20607 7.3291 7.20018V10.2002C7.3291 10.8629 7.86636 11.4002 8.5291 11.4002H18.1291V25.256C17.3964 24.8274 16.563 24.6011 15.7141 24.6002C13.6186 24.5953 11.5573 25.1307 9.7291 26.1548V15.6002C9.7291 15.2688 9.46047 15.0002 9.1291 15.0002C8.79773 15.0002 8.5291 15.2688 8.5291 15.6002V26.8664C7.07363 27.8231 5.72457 28.9326 4.5049 30.176C3.3421 31.3382 0.384104 33.7082 0.354104 33.7316C0.0953034 33.9387 0.0533973 34.3164 0.260504 34.5752C0.467611 34.834 0.845303 34.8759 1.1041 34.6688C1.2277 34.5698 4.1437 32.234 5.3533 31.0244C10.0363 26.3402 13.5091 25.8002 15.7141 25.8002C16.5465 25.7953 17.3538 26.0843 17.9941 26.6162C18.3083 26.8688 18.7004 27.0046 19.1035 27.0002H25.2151C25.8793 26.982 26.445 27.4792 26.5123 28.1402C26.5288 28.4687 26.4096 28.7896 26.1828 29.0278C25.9559 29.266 25.6412 29.4006 25.3123 29.4002H18.7123C18.3809 29.4002 18.1123 29.6688 18.1123 30.0002C18.1123 30.3316 18.3809 30.6002 18.7123 30.6002H25.3123C25.9703 30.6002 26.5995 30.3301 27.0526 29.853C27.5058 29.3759 27.7432 28.7337 27.7093 28.0766C27.7093 28.0682 27.7057 28.0604 27.7051 28.052L32.9251 23.6804C33.1711 23.4743 33.489 23.3745 33.8087 23.4031C34.1284 23.4317 34.4235 23.5863 34.6291 23.8328C35.0235 24.3127 34.9962 25.0118 34.5655 25.4594L27.0793 33.0794C26.7719 33.3958 26.3549 33.5822 25.9141 33.6002H15.0745C14.2315 33.5998 13.3964 33.7615 12.6145 34.0766L10.7071 34.8434C10.3996 34.967 10.2505 35.3165 10.3741 35.624C10.4977 35.9315 10.8472 36.0806 11.1547 35.957L13.0621 35.1896C13.7018 34.9323 14.385 34.8001 15.0745 34.8002H25.9345C26.6912 34.7782 27.4101 34.4646 27.9409 33.9248L35.4259 26.3C36.0786 25.6343 36.2894 24.6522 35.9673 23.7773C35.6451 22.9025 34.8478 22.2915 33.9193 22.208ZM32.5291 7.20018V10.2002H24.1291V6.60018H31.9291C32.2605 6.60018 32.5291 6.86881 32.5291 7.20018ZM22.3291 10.2002H18.1291V6.60018H22.9291V10.2002H22.3291ZM23.2291 1.20018H23.8291C24.9889 1.20018 25.9291 2.14039 25.9291 3.30018C25.9291 4.45998 24.9889 5.40018 23.8291 5.40018H21.1291V3.30018C21.1291 2.14039 22.0693 1.20018 23.2291 1.20018ZM15.1291 3.30018C15.1291 2.14039 16.0693 1.20018 17.2291 1.20018H17.8291C18.9889 1.20018 19.9291 2.14039 19.9291 3.30018V5.40018H17.2291C16.0693 5.40018 15.1291 4.45998 15.1291 3.30018ZM8.5291 10.2002V7.20018C8.5291 6.86881 8.79773 6.60018 9.1291 6.60018H16.9291V10.2002H8.5291ZM21.7291 11.4002V25.8002H19.3291V11.4002H21.7291ZM25.2151 25.8002H22.9291V11.4002H31.3291V23.4548L27.2767 26.8478C26.7997 26.1853 26.0314 25.7949 25.2151 25.8002Z" fill="#451E09"/>
<path d="M9.1293 13.8C9.46067 13.8 9.7293 13.5313 9.7293 13.2C9.7293 12.8686 9.46067 12.6 9.1293 12.6C8.79793 12.6 8.5293 12.8686 8.5293 13.2C8.5293 13.5313 8.79793 13.8 9.1293 13.8Z" fill="#451E09"/>
<path d="M35.196 2.5009L33.396 3.7009C33.1203 3.88481 33.0459 4.2574 33.2298 4.5331C33.4138 4.8088 33.7863 4.88321 34.062 4.6993L35.862 3.4993C36.0404 3.38033 36.1417 3.17525 36.1279 2.96131C36.114 2.74738 35.9871 2.55708 35.7949 2.46211C35.6027 2.36715 35.3744 2.38193 35.196 2.5009Z" fill="#451E09"/>
<path d="M31.9281 3.60009C32.2031 3.59981 32.4427 3.41263 32.5095 3.14589L33.1095 0.745888C33.1781 0.429343 32.9832 0.115435 32.669 0.0366853C32.3548 -0.0420645 32.0348 0.142775 31.9461 0.454288L31.3461 2.85429C31.3074 3.00873 31.3317 3.17219 31.4137 3.3087C31.4956 3.4452 31.6284 3.54355 31.7829 3.58209C31.8303 3.59418 31.8791 3.60023 31.9281 3.60009Z" fill="#451E09"/>
<path d="M5.86277 2.5009C5.68442 2.38193 5.45615 2.36715 5.26395 2.46211C5.07174 2.55708 4.9448 2.74738 4.93095 2.96131C4.91709 3.17525 5.01842 3.38033 5.19677 3.4993L6.99677 4.6993C7.27247 4.88321 7.64506 4.8088 7.82897 4.5331C8.01288 4.2574 7.93847 3.88481 7.66277 3.7009L5.86277 2.5009Z" fill="#451E09"/>
<path d="M8.38444 0.0181236C8.22997 0.0566643 8.09716 0.155013 8.01523 0.291516C7.93331 0.428019 7.90899 0.591485 7.94764 0.745924L8.54764 3.14592C8.61451 3.41288 8.85443 3.60012 9.12964 3.60012C9.1788 3.60032 9.22779 3.59427 9.27544 3.58212C9.4299 3.54358 9.56272 3.44523 9.64464 3.30873C9.72656 3.17223 9.75088 3.00876 9.71224 2.85432L9.11224 0.454324C9.03171 0.132899 8.70586 -0.0623905 8.38444 0.0181236Z" fill="#451E09"/>
</g>
<defs>
<clipPath id="clip0_5126_2663">
<rect width="36" height="36" fill="white" transform="translate(0.125)"/>
</clipPath>
</defs>
</svg>
