<svg width="37" height="36" viewBox="0 0 37 36" fill="none" xmlns="http://www.w3.org/2000/svg">
<path d="M28.5351 7.66933C27.5586 7.09158 26.4431 6.79103 25.3085 6.79999C22.4551 6.79999 20.1245 8.59199 19.9805 10.848C20.0711 3.05599 25.2818 2.53333 25.2818 2.53333C26.5407 2.53349 27.628 3.41399 27.8898 4.64533L28.5351 7.66933Z" fill="#FEECE4"/>
<path d="M26.2878 4.64533L26.7838 6.97013C27.4003 7.10893 27.9908 7.34495 28.5331 7.66933L27.8878 4.64533C27.626 3.41399 26.5387 2.53349 25.2798 2.53333C25.046 2.56522 24.8157 2.61879 24.5918 2.69333C25.4563 3.0075 26.0974 3.74546 26.2878 4.64533Z" fill="#FDB396"/>
<path d="M24.1048 19.904C22.2475 19.3345 20.3141 19.0522 18.3715 19.0667C16.4289 19.0522 14.4955 19.3345 12.6382 19.904C15.0648 18.0053 16.7075 15.248 16.7662 11.296C16.7715 11.2213 16.7715 11.1467 16.7715 11.0667C16.7715 10.9867 16.7715 10.9173 16.7662 10.848C16.6755 3.05599 11.4648 2.53333 11.4648 2.53333H25.2782C25.2782 2.53333 20.0675 3.05599 19.9768 10.848C19.9715 10.9173 19.9715 10.992 19.9715 11.0667C19.9715 11.152 19.9715 11.232 19.9768 11.312C20.0408 15.2587 21.6782 18.0053 24.1048 19.904Z" fill="white"/>
<path d="M16.772 19.0669C15.5955 19.0682 14.4213 19.1717 13.2627 19.3762C13.0605 19.5581 12.8541 19.7357 12.6387 19.9042C14.2396 19.4154 15.8988 19.1437 17.572 19.0962C17.3053 19.0861 17.044 19.0669 16.772 19.0669Z" fill="#FEECE4"/>
<path d="M19.9764 11.3123C19.9711 11.2323 19.9711 11.1523 19.9711 11.067C19.9711 10.9923 19.9711 10.9176 19.9764 10.8483C20.0671 3.0563 25.2778 2.53363 25.2778 2.53363H23.6778C23.6778 2.53363 18.4671 3.0563 18.3764 10.8483C18.3711 10.9176 18.3711 10.9923 18.3711 11.067C18.3711 11.1523 18.3711 11.2323 18.3764 11.3123C18.4346 14.9086 19.802 17.5064 21.8799 19.3763C22.6324 19.502 23.3756 19.6784 24.1044 19.9043C21.6778 18.0056 20.0404 15.259 19.9764 11.3123Z" fill="#FEECE4"/>
<path d="M16.7656 10.8483C16.6216 8.5923 14.2909 6.8003 11.4376 6.8003C10.303 6.79133 9.18745 7.09189 8.21094 7.66963L8.85627 4.64563C9.11812 3.41429 10.2054 2.53379 11.4643 2.53363C11.4643 2.53363 16.6749 3.0563 16.7656 10.8483Z" fill="#FEECE4"/>
<path d="M31.7152 23.1364C30.4234 22.8788 29.1564 22.5095 27.9286 22.0324C26.8383 21.0331 25.5284 20.3042 24.1046 19.9044C21.6779 18.0057 20.0406 15.259 19.9766 11.3124C20.1366 13.5577 22.4619 15.3337 25.3046 15.3337C26.9966 15.3805 28.6235 14.6802 29.7526 13.419L30.5846 17.323L31.5606 21.9204C31.6458 22.3207 31.6975 22.7275 31.7152 23.1364Z" fill="#FEECE4"/>
<path d="M28.9865 17.3226L29.9625 21.92C30.018 22.1915 30.0584 22.4659 30.0836 22.7418C30.6233 22.8896 31.1679 23.0229 31.7172 23.136C31.6995 22.727 31.6478 22.3203 31.5625 21.92L30.5865 17.3226L29.7545 13.4186C29.3732 13.8732 28.9123 14.2547 28.3945 14.5445L28.9865 17.3226Z" fill="#FDB396"/>
<path d="M16.766 11.2957C16.7073 15.2477 15.0647 18.005 12.638 19.9037C11.2142 20.3035 9.90428 21.0324 8.81401 22.0317C7.58618 22.5087 6.31918 22.8781 5.02734 23.1357C5.04503 22.7267 5.09676 22.32 5.18201 21.9197L6.15801 17.3223L6.99001 13.4183C8.11908 14.6794 9.74596 15.3797 11.438 15.333C14.286 15.333 16.6167 13.5463 16.766 11.2957Z" fill="#FEECE4"/>
<path d="M25.5252 30.8318C25.2639 30.8745 24.9919 30.9118 24.7145 30.9491C24.3888 31.0025 24.1015 31.1927 23.9252 31.4718C23.1465 32.6291 20.9599 33.4665 18.3732 33.4665C15.7865 33.4665 13.5999 32.6291 12.8212 31.4718C12.6449 31.1927 12.3576 31.0025 12.0319 30.9491C11.7545 30.9118 11.4825 30.8745 11.2212 30.8318C7.50166 30.2122 4.83811 26.9017 5.02919 23.1358C6.32103 22.8783 7.58803 22.5089 8.81586 22.0318C8.14377 22.6406 7.74413 23.4937 7.70653 24.3998C7.70653 27.3438 12.4799 29.7331 18.3732 29.7331C24.2665 29.7331 29.0399 27.3438 29.0399 24.3998C29.0023 23.4937 28.6026 22.6406 27.9305 22.0318C29.1584 22.5089 30.4254 22.8783 31.7172 23.1358C31.9083 26.9017 29.2447 30.2122 25.5252 30.8318Z" fill="#FDB396"/>
<path d="M16.7721 11.0665C16.7721 11.1465 16.7721 11.2212 16.7668 11.2959C16.6175 13.5465 14.2868 15.3332 11.4388 15.3332C9.74675 15.38 8.11988 14.6797 6.9908 13.4185C6.62637 12.9877 6.36222 12.4813 6.21747 11.9359L6.21214 11.9305C6.14127 11.648 6.10544 11.3578 6.10547 11.0665C6.15971 9.64191 6.96013 8.35111 8.21214 7.66921C9.18865 7.09147 10.3042 6.79091 11.4388 6.79988C14.2921 6.79988 16.6228 8.59188 16.7668 10.8479C16.7721 10.9172 16.7721 10.9919 16.7721 11.0665Z" fill="#FEECE4"/>
<path d="M16.7681 10.848C16.6241 8.59199 14.2934 6.79999 11.4401 6.79999C11.1689 6.80147 10.898 6.81928 10.6289 6.85332C13.111 7.14879 15.0374 8.80639 15.1681 10.8501C15.1734 10.9195 15.1734 10.9941 15.1734 11.0688C15.1734 11.1435 15.1734 11.2235 15.1681 11.2981C15.0332 13.3339 13.1121 14.9845 10.6396 15.2827C10.9052 15.3156 11.1725 15.3325 11.4401 15.3333C14.2881 15.3333 16.6188 13.5467 16.7681 11.296C16.7734 11.2213 16.7734 11.1467 16.7734 11.0667C16.7734 10.9867 16.7734 10.9173 16.7681 10.848Z" fill="#FDB396"/>
<path d="M30.6393 11.0665C30.6393 11.3578 30.6035 11.648 30.5327 11.9305L30.5273 11.9359C30.3826 12.4813 30.1184 12.9877 29.754 13.4185C28.6249 14.6797 26.998 15.38 25.306 15.3332C22.4633 15.3332 20.138 13.5572 19.978 11.3119C19.9727 11.2319 19.9727 11.1519 19.9727 11.0665C19.9727 10.9919 19.9727 10.9172 19.978 10.8479C20.122 8.59188 22.4527 6.79988 25.306 6.79988C26.4406 6.79091 27.5561 7.09147 28.5327 7.66921C29.7847 8.35111 30.5851 9.64191 30.6393 11.0665Z" fill="#FEECE4"/>
<path d="M28.5345 7.66921C27.558 7.09147 26.4424 6.79091 25.3078 6.79988C25.0441 6.80214 24.7807 6.81995 24.519 6.85321C25.3727 6.95182 26.1959 7.22991 26.9345 7.66921C28.1865 8.35111 28.9869 9.64191 29.0411 11.0665C29.0412 11.3578 29.0053 11.648 28.9345 11.9305L28.9291 11.9359C28.7844 12.4813 28.5202 12.9877 28.1558 13.4185C27.2201 14.4795 25.916 15.1449 24.5078 15.2799C24.7732 15.3137 25.0403 15.3315 25.3078 15.3332C26.9999 15.38 28.6267 14.6797 29.7558 13.4185C30.1202 12.9877 30.3844 12.4813 30.5291 11.9359L30.5345 11.9305C30.6053 11.648 30.6412 11.3578 30.6411 11.0665C30.5869 9.64191 29.7865 8.35111 28.5345 7.66921Z" fill="#FDB396"/>
<path d="M29.0404 24.3997C29.0404 27.3437 24.267 29.7331 18.3737 29.7331C12.4804 29.7331 7.70703 27.3437 7.70703 24.3997C7.74463 23.4936 8.14428 22.6406 8.81636 22.0317C9.90663 21.0325 11.2165 20.3035 12.6404 19.9037C14.4977 19.3343 16.4311 19.0519 18.3737 19.0664C20.3163 19.0519 22.2497 19.3343 24.107 19.9037C25.5309 20.3035 26.8408 21.0325 27.931 22.0317C28.6031 22.6406 29.0028 23.4936 29.0404 24.3997Z" fill="#FEECE4"/>
<path d="M27.9316 22.0317C26.8413 21.0325 25.5314 20.3035 24.1076 19.9037C22.2502 19.3343 20.3168 19.0519 18.3742 19.0664C18.1022 19.0664 17.8409 19.0856 17.5742 19.0957C19.2474 19.1432 20.9067 19.4149 22.5076 19.9037C23.9314 20.3035 25.2413 21.0325 26.3316 22.0317C27.0036 22.6406 27.4033 23.4936 27.4409 24.3997C27.4409 27.2088 23.0921 29.5075 17.5742 29.7128C17.8409 29.7229 18.1044 29.7331 18.3742 29.7331C24.2676 29.7331 29.0409 27.3437 29.0409 24.3997C29.0033 23.4936 28.6036 22.6406 27.9316 22.0317Z" fill="#FDB396"/>
<path d="M18.3732 27.5999C23.086 27.5999 26.9065 26.1672 26.9065 24.3999C26.9065 22.6326 23.086 21.1999 18.3732 21.1999C13.6603 21.1999 9.83984 22.6326 9.83984 24.3999C9.83984 26.1672 13.6603 27.5999 18.3732 27.5999Z" fill="white"/>
<path d="M18.3742 21.1999C18.1006 21.1999 17.8366 21.2084 17.5742 21.2191C22.3902 21.4132 25.3076 23.33 25.3076 24.3999C25.3076 25.4698 22.3902 27.3866 17.5742 27.5807C17.8366 27.5914 18.1006 27.5999 18.3742 27.5999C23.6676 27.5999 26.9076 25.5279 26.9076 24.3999C26.9076 23.2719 23.6676 21.1999 18.3742 21.1999Z" fill="#FEECE4"/>
<path d="M20.5049 2.53333C19.5054 3.58918 18.7738 4.86947 18.3716 6.26666C17.9694 4.86947 17.2378 3.58918 16.2383 2.53333" fill="#FEECE4"/>
<path d="M6.99158 13.4186L6.15958 17.3226C5.97982 17.4206 5.77765 17.4703 5.57292 17.4666C4.39425 17.4666 2.90625 16.0319 2.90625 14.2666C2.90625 12.5013 3.32758 11.0666 4.50625 11.0666C5.16657 11.1191 5.77966 11.4295 6.21292 11.9306L6.21825 11.9359C6.363 12.4813 6.62715 12.9878 6.99158 13.4186Z" fill="#FDB396"/>
<path d="M33.8412 14.2666C33.8412 16.0319 32.3532 17.4666 31.1745 17.4666C30.9698 17.4703 30.7676 17.4206 30.5879 17.3226L29.7559 13.4186C30.1203 12.9878 30.3844 12.4813 30.5292 11.9359L30.5345 11.9306C30.9678 11.4295 31.5809 11.1191 32.2412 11.0666C33.4199 11.0666 33.8412 12.5013 33.8412 14.2666Z" fill="#FDB396"/>
<path d="M11.4383 13.1997C13.2056 13.1997 14.6383 12.2446 14.6383 11.0664C14.6383 9.88817 13.2056 8.93304 11.4383 8.93304C9.67097 8.93304 8.23828 9.88817 8.23828 11.0664C8.23828 12.2446 9.67097 13.1997 11.4383 13.1997Z" fill="#FDB396"/>
<path d="M25.3055 13.1997C27.0728 13.1997 28.5055 12.2446 28.5055 11.0664C28.5055 9.88817 27.0728 8.93304 25.3055 8.93304C23.5382 8.93304 22.1055 9.88817 22.1055 11.0664C22.1055 12.2446 23.5382 13.1997 25.3055 13.1997Z" fill="#FDB396"/>
<path d="M9.81213 7.66933L10.4575 4.64533C10.7193 3.41399 11.8066 2.53349 13.0655 2.53333H11.4655C10.2066 2.53349 9.11931 3.41399 8.85747 4.64533L8.21214 7.66933C6.96013 8.35123 6.15971 9.64203 6.10547 11.0667C6.25109 11.0679 6.39595 11.0879 6.5364 11.1264C6.81128 11.1878 7.0993 11.1355 7.33509 10.9814C7.57088 10.8274 7.73445 10.5846 7.78867 10.3083C8.0776 9.19071 8.80785 8.23835 9.81213 7.66933Z" fill="white"/>
<path d="M5.57292 17.4666C5.77765 17.4703 5.97982 17.4206 6.15958 17.3226L5.18358 21.9199C4.76307 23.9063 5.16887 25.9784 6.30767 27.6594C7.44646 29.3404 9.2202 30.4857 11.2209 30.8319C11.4833 30.8746 11.7543 30.9119 12.0343 30.9498C12.3601 31.0033 12.6472 31.1943 12.8225 31.4741C13.6023 32.6303 15.7879 33.4666 18.3729 33.4666C18.6449 33.4666 18.9111 33.4554 19.1729 33.4373C16.9452 33.2853 15.1196 32.5087 14.4225 31.4746C14.2463 31.1938 13.9578 31.0024 13.6305 30.9493C13.3537 30.9119 13.0817 30.8746 12.8209 30.8319C10.8202 30.4857 9.04646 29.3404 7.90767 27.6594C6.76888 25.9784 6.36307 23.9063 6.78358 21.9199L7.38198 19.1013C7.53949 18.3532 7.1458 17.5982 6.44225 17.2991C5.2693 16.7426 4.51741 15.5648 4.50625 14.2666C4.50625 12.9253 4.75052 11.7765 5.38465 11.3013C5.11431 11.1552 4.8134 11.0748 4.50625 11.0666C3.32758 11.0666 2.90625 12.5013 2.90625 14.2666C2.90625 16.0319 4.39425 17.4666 5.57292 17.4666Z" fill="white"/>
<path d="M7.07812 29.3831L7.80026 28.5975C8.77848 29.4942 9.99624 30.0871 11.3053 30.3042L11.1347 31.357C9.61969 31.1063 8.21031 30.4205 7.07812 29.3831Z" fill="white"/>
<path d="M9.20202 30.7244C8.90747 30.7259 8.6675 30.4883 8.66602 30.1938C8.66455 29.8992 8.90214 29.6592 9.19669 29.6578H9.20202C9.49657 29.6578 9.73536 29.8966 9.73536 30.1911C9.73536 30.4857 9.49657 30.7244 9.20202 30.7244Z" fill="#451E09"/>
<path d="M11.4404 13.7335C13.4638 13.7335 15.1737 12.5122 15.1737 11.0669C15.1737 9.62154 13.4638 8.40021 11.4404 8.40021C9.4169 8.40021 7.70703 9.62154 7.70703 11.0669C7.70703 12.5122 9.4169 13.7335 11.4404 13.7335ZM11.4404 9.46687C12.9422 9.46687 14.107 10.3271 14.107 11.0669C14.107 11.8066 12.9422 12.6669 11.4404 12.6669C9.9385 12.6669 8.7737 11.8066 8.7737 11.0669C8.7737 10.3271 9.9385 9.46687 11.4404 9.46687Z" fill="#451E09"/>
<path d="M25.3076 8.40021C23.2841 8.40021 21.5742 9.62154 21.5742 11.0669C21.5742 12.5122 23.2841 13.7335 25.3076 13.7335C27.331 13.7335 29.0409 12.5122 29.0409 11.0669C29.0409 9.62154 27.331 8.40021 25.3076 8.40021ZM25.3076 12.6669C23.8057 12.6669 22.6409 11.8066 22.6409 11.0669C22.6409 10.3271 23.8057 9.46687 25.3076 9.46687C26.8094 9.46687 27.9742 10.3271 27.9742 11.0669C27.9742 11.8066 26.8094 12.6669 25.3076 12.6669Z" fill="#451E09"/>
<path d="M18.3753 20.6668C13.2691 20.6668 9.30859 22.6737 9.30859 24.4001C9.30859 26.1265 13.2691 28.1335 18.3753 28.1335C23.4814 28.1335 27.4419 26.1265 27.4419 24.4001C27.4419 22.6737 23.4814 20.6668 18.3753 20.6668ZM18.9086 21.7463C19.8031 21.7679 20.6947 21.8585 21.5753 22.0172V23.8668H18.9086V21.7463ZM17.8419 23.8668H15.1753V22.0172C16.0559 21.8585 16.9474 21.7679 17.8419 21.7463V23.8668ZM14.1086 23.8668H10.7166C11.7064 23.0724 12.8678 22.5198 14.1086 22.2529V23.8668ZM14.1086 24.9335V26.5473C12.8678 26.2805 11.7064 25.7279 10.7166 24.9335H14.1086ZM15.1753 24.9335H17.8419V27.054C16.9474 27.0324 16.0559 26.9418 15.1753 26.7831V24.9335ZM18.9086 24.9335H21.5753V26.7831C20.6947 26.9418 19.8031 27.0324 18.9086 27.054V24.9335ZM22.6419 24.9335H26.0339C25.0442 25.7279 23.8827 26.2805 22.6419 26.5473V24.9335ZM22.6419 23.8668V22.2529C23.8827 22.5198 25.0442 23.0724 26.0339 23.8668H22.6419Z" fill="#451E09"/>
<path d="M32.2417 10.5333C31.8646 10.5415 31.4944 10.6354 31.159 10.808C31.0247 9.38209 30.23 8.10151 29.0118 7.34827L28.4113 4.5344C28.0923 3.05972 26.7904 2.00546 25.2817 2H11.4683C9.95972 2.0054 8.65792 3.0594 8.33873 4.53387L7.7382 7.34827C6.52015 8.10186 5.72545 9.38253 5.591 10.8085C5.25582 10.6354 4.88549 10.5413 4.50833 10.5333C3.71153 10.5333 2.375 11.0181 2.375 14.2667C2.375 16.288 4.04647 17.92 5.4758 17.9931L4.66407 21.8085C4.58366 22.2089 4.53267 22.6146 4.51153 23.0224C4.50885 23.0477 4.50778 23.0732 4.50833 23.0987C4.38071 25.4732 5.325 27.7797 7.08113 29.3829C7.18428 29.486 7.32643 29.5402 7.472 29.5321C7.61758 29.5239 7.75279 29.4542 7.8438 29.3403C8.02078 29.1182 8.00335 28.7988 7.80327 28.5973C6.38126 27.3091 5.5716 25.4788 5.575 23.56C6.23207 23.4139 6.86407 23.2485 7.46673 23.0635C7.27921 23.4844 7.17993 23.9392 7.175 24.4C7.175 27.6896 12.0945 30.2667 18.375 30.2667C24.6555 30.2667 29.575 27.6896 29.575 24.4C29.5704 23.9393 29.4715 23.4845 29.2843 23.0635C29.893 23.2501 30.5297 23.4171 31.1942 23.5643C31.1838 24.9406 30.7611 26.2822 29.9809 27.416C28.9325 28.9652 27.2895 30.0112 25.4422 30.3056C25.1858 30.3465 24.9192 30.3858 24.6422 30.4235C24.1663 30.494 23.7445 30.7676 23.4859 31.1733C22.7905 32.2096 20.6891 32.9333 18.375 32.9333C16.0609 32.9333 13.9595 32.2096 13.2641 31.1733C13.0053 30.7677 12.5833 30.4943 12.1073 30.424C11.831 30.3867 11.5643 30.3474 11.3073 30.3061C11.117 30.2709 10.9225 30.3415 10.7992 30.4906C10.6758 30.6397 10.6429 30.8439 10.7132 31.0242C10.7835 31.2046 10.9459 31.3326 11.1377 31.3589C11.4033 31.4016 11.6785 31.4421 11.9633 31.4805C12.1355 31.514 12.2858 31.618 12.3777 31.7675C13.2881 33.1232 15.6417 34 18.375 34C21.1083 34 23.4619 33.1232 24.3718 31.7669C24.4637 31.6175 24.614 31.5134 24.7862 31.48C25.0706 31.4416 25.346 31.4011 25.6123 31.3584C27.7487 31.0189 29.649 29.8096 30.8614 28.0181C31.8441 26.5696 32.3286 24.8405 32.2417 23.0923C32.2419 23.0686 32.2404 23.0449 32.2374 23.0213C32.2178 22.614 32.167 22.2087 32.0854 21.8091L31.2737 17.9931C32.7035 17.92 34.375 16.288 34.375 14.2667C34.375 11.0181 33.0385 10.5333 32.2417 10.5333ZM25.9179 17.7413C25.975 17.8368 27.3281 20.0144 30.727 20.5472L31.0427 22.0315C31.0726 22.1712 31.0897 22.3115 31.111 22.4517C30.1331 22.2266 29.1721 21.9331 28.2353 21.5733C27.1216 20.5753 25.7983 19.8397 24.3627 19.4208C22.6771 18.1131 21.4649 16.2905 20.9105 14.2304C22.1199 15.3072 23.6892 15.8911 25.3083 15.8667C26.8025 15.8859 28.2584 15.3944 29.4353 14.4736L30.4875 19.4213C29.0249 19.1812 27.7134 18.3808 26.831 17.1899C26.7325 17.0268 26.5544 16.9286 26.3639 16.9324C26.1734 16.9361 25.9994 17.0412 25.9074 17.2081C25.8154 17.375 25.8194 17.5782 25.9179 17.7413ZM17.3083 11.0667C17.3083 6.46293 15.5819 4.18667 14.015 3.06667H16.0091C16.8692 4.02243 17.5013 5.16087 17.8577 6.39627C17.9171 6.63354 18.1304 6.79994 18.375 6.79994C18.6196 6.79994 18.8329 6.63354 18.8923 6.39627C19.2487 5.16087 19.8808 4.02243 20.7409 3.06667H22.735C21.1681 4.18667 19.4417 6.46293 19.4417 11.0667C19.351 13.934 20.3519 16.729 22.2422 18.8869C19.686 18.4156 17.0651 18.4156 14.5089 18.8869C16.3988 16.7288 17.3993 13.9339 17.3083 11.0667ZM17.3798 3.06667H19.3702C18.9857 3.58103 18.6524 4.13174 18.375 4.71093C18.0976 4.13174 17.7643 3.58103 17.3798 3.06667ZM30.1083 11.0667C30.1083 13.1253 27.9547 14.8 25.3083 14.8C22.6619 14.8 20.5083 13.1253 20.5083 11.0667C20.5083 9.008 22.6619 7.33333 25.3083 7.33333C27.9547 7.33333 30.1083 9.008 30.1083 11.0667ZM27.3681 4.75627L27.7873 6.72267C26.9959 6.41999 26.1556 6.26542 25.3083 6.26667C23.6577 6.23927 22.0595 6.8459 20.8427 7.9616C21.8657 3.68 24.9179 3.12 25.3014 3.06667C26.2999 3.07923 27.1573 3.78016 27.3681 4.75627ZM9.38193 4.75627C9.59267 3.78035 10.4497 3.07948 11.4481 3.06667C11.8395 3.12 14.8854 3.68427 15.9073 7.96C14.6903 6.84488 13.0921 6.23883 11.4417 6.26667C10.5942 6.26548 9.75377 6.42005 8.9622 6.72267L9.38193 4.75627ZM11.4417 7.33333C14.0881 7.33333 16.2417 9.008 16.2417 11.0667C16.2417 13.1253 14.0881 14.8 11.4417 14.8C8.79527 14.8 6.64167 13.1253 6.64167 11.0667C6.64167 9.008 8.79527 7.33333 11.4417 7.33333ZM5.575 16.9333C4.73607 16.9333 3.44167 15.7883 3.44167 14.2667C3.44167 13.4667 3.54567 11.6 4.50833 11.6C4.989 11.6511 5.43403 11.8774 5.75847 12.2357C5.90447 12.7048 6.12918 13.1455 6.423 13.5392L5.70407 16.9195C5.66152 16.9278 5.61834 16.9324 5.575 16.9333ZM5.27473 21.9392L5.70727 22.0309L6.023 20.5472C9.42193 20.0139 10.775 17.8368 10.8321 17.7413C10.9844 17.4892 10.9034 17.1614 10.6513 17.0091C10.3991 16.8568 10.0713 16.9377 9.919 17.1899C9.03693 18.3811 7.72523 19.1816 6.26247 19.4213L7.31473 14.4736C8.49157 15.3944 9.94751 15.8859 11.4417 15.8667C13.0605 15.8917 14.6298 15.3086 15.8395 14.2325C15.2851 16.2926 14.0729 18.1152 12.3873 19.4229C10.9519 19.8412 9.6286 20.5761 8.51473 21.5733C7.581 21.9309 6.62348 22.223 5.64913 22.4475C5.66887 22.3083 5.67953 22.1675 5.70727 22.0293L5.27473 21.9392ZM18.375 29.2C12.8817 29.2 8.24167 27.0016 8.24167 24.4C8.24167 21.7984 12.8817 19.6 18.375 19.6C23.8683 19.6 28.5083 21.7984 28.5083 24.4C28.5083 27.0016 23.8683 29.2 18.375 29.2ZM31.175 16.9333C31.1317 16.9324 31.0885 16.9278 31.0459 16.9195L30.327 13.5392C30.6212 13.1453 30.8461 12.7041 30.9921 12.2347C31.3163 11.8765 31.7612 11.6506 32.2417 11.6C33.2017 11.6 33.3083 13.4667 33.3083 14.2667C33.3083 15.7883 32.0139 16.9333 31.175 16.9333Z" fill="#451E09"/>
<path d="M5.0431 13.2001C4.74855 13.2001 4.50977 13.4389 4.50977 13.7334V14.2667C4.50977 14.5613 4.74855 14.8001 5.0431 14.8001C5.33765 14.8001 5.57643 14.5613 5.57643 14.2667V13.7334C5.57643 13.4389 5.33765 13.2001 5.0431 13.2001Z" fill="#451E09"/>
<path d="M31.7091 13.2001C31.4146 13.2001 31.1758 13.4389 31.1758 13.7334V14.2667C31.1758 14.5613 31.4146 14.8001 31.7091 14.8001C32.0037 14.8001 32.2424 14.5613 32.2424 14.2667V13.7334C32.2424 13.4389 32.0037 13.2001 31.7091 13.2001Z" fill="#451E09"/>
<path d="M17.3068 18C17.6013 18 17.8401 17.7612 17.8401 17.4666V16.9333C17.8401 16.6387 17.6013 16.4 17.3068 16.4C17.0122 16.4 16.7734 16.6387 16.7734 16.9333V17.4666C16.7734 17.7612 17.0122 18 17.3068 18Z" fill="#451E09"/>
<path d="M19.4415 18C19.7361 18 19.9749 17.7612 19.9749 17.4666V16.9333C19.9749 16.6387 19.7361 16.4 19.4415 16.4C19.147 16.4 18.9082 16.6387 18.9082 16.9333V17.4666C18.9082 17.7612 19.147 18 19.4415 18Z" fill="#451E09"/>
</svg>
