<svg width="20" height="18" viewBox="0 0 20 18" fill="none" xmlns="http://www.w3.org/2000/svg">
<path d="M10.0561 11.43C10.3587 10.9061 10.1301 10.1723 9.39483 9.30781C8.73073 8.52695 7.71881 7.72406 6.54557 7.04706C4.34979 5.77839 1.65795 5.04976 0.994203 6.19828L0.770844 6.5857C0.57514 6.92519 0.379281 7.26496 0.182719 7.60433C-0.120094 8.12824 0.108539 8.86214 0.843812 9.72671C1.50791 10.5076 2.51983 11.3105 3.69315 11.9875C5.12205 12.8127 6.76069 13.4093 7.91409 13.4093C8.53327 13.4093 9.01276 13.2372 9.24455 12.8362L10.0561 11.43ZM2.3142 6.17382C3.21838 6.17382 4.70139 6.61328 6.27205 7.52078C7.39256 8.16734 8.35358 8.92785 8.97811 9.66222C9.52538 10.3057 9.75123 10.8643 9.58237 11.1565C9.41385 11.4487 8.81717 11.5325 7.98635 11.3803C7.03807 11.2066 5.89877 10.7546 4.77823 10.1075C2.45627 8.76769 1.11553 7.08285 1.46807 6.47156C1.58237 6.2741 1.88213 6.17382 2.3142 6.17382ZM8.77077 12.5627C8.6569 12.7598 8.35787 12.8598 7.92741 12.8603L8.0951 12.5693L7.62123 12.2962L7.32573 12.8088C7.02467 12.7616 6.68854 12.682 6.32674 12.5692L6.55034 12.1819L6.07662 11.9084L5.79987 12.3878C5.50647 12.2776 5.20088 12.148 4.88733 11.9985L5.12862 11.5807L4.65491 11.3072L4.3978 11.7525C4.25506 11.6768 4.1112 11.5973 3.96655 11.5138C3.82319 11.4311 3.68252 11.3464 3.54471 11.2602L3.80209 10.8145L3.32838 10.541L3.08647 10.9599C2.80452 10.7668 2.5383 10.5681 2.29186 10.3664L2.5708 9.88324L2.09709 9.60972L1.871 10.0013C1.6433 9.79164 1.43791 9.58097 1.26049 9.37234C1.22709 9.33304 1.19491 9.2941 1.16393 9.2555L1.46143 8.73921L0.987484 8.46613L0.819554 8.75753C0.605961 8.38261 0.544281 8.07183 0.656117 7.87828C0.76889 7.68355 0.881234 7.48851 0.993734 7.29355C1.42979 8.37078 2.90916 9.66058 4.50475 10.5813C5.67799 11.2589 6.87948 11.7337 7.88776 11.9184C8.19553 11.9748 8.47545 12.0028 8.72577 12.0028C8.86248 12.0028 8.98983 11.9939 9.10866 11.9773L8.77077 12.5627ZM1.82827 7.15589C1.77166 6.94414 1.82104 6.79382 1.87245 6.70503C2.40596 5.78054 5.23245 7.26417 5.79362 7.57093L5.53123 8.05089C4.74932 7.62343 3.97756 7.28683 3.35799 7.1032C2.63448 6.88871 2.39866 6.95964 2.34967 6.98187C2.35494 7.06589 2.48463 7.36101 3.05377 7.87964C3.59123 8.36945 4.35034 8.90664 5.19123 9.39222C6.03213 9.87781 6.87694 10.2667 7.56998 10.4873C8.30709 10.7219 8.62709 10.6852 8.70049 10.6475C8.69635 10.5649 8.56803 10.2693 7.99639 9.74824C7.45866 9.25804 6.69959 8.72101 5.85897 8.23609L6.13233 7.76226C7.52405 8.56515 9.01905 9.71441 9.22182 10.4721C9.2785 10.6841 9.22916 10.8344 9.17772 10.9232C9.12694 11.0116 9.02147 11.1296 8.80963 11.1866C8.72166 11.2102 8.62034 11.2214 8.5078 11.2214C7.65248 11.2214 6.14791 10.5764 4.91768 9.86597C3.52565 9.06206 2.03049 7.91234 1.82827 7.15589ZM10.2612 8.30992C10.4257 8.5948 10.5905 8.87988 10.755 9.16581C10.9865 9.56636 11.4653 9.73812 12.0844 9.73808C13.2376 9.73796 14.877 9.14156 16.3062 8.31683C17.4797 7.6391 18.4917 6.83609 19.1555 6.05566C19.8908 5.19124 20.1194 4.45749 19.8167 3.93371C19.5456 3.46449 19.2755 2.99636 19.0054 2.52816C18.7028 2.00386 17.9523 1.83421 16.836 2.03867C15.8282 2.22328 14.627 2.69792 13.4538 3.37523C11.2573 4.64367 9.28057 6.61128 9.94323 7.75929C10.049 7.94285 10.1551 8.12636 10.2612 8.30992ZM19.1797 5.08671L19.0119 4.79546L18.5379 5.06855L18.8353 5.5846C18.8043 5.62312 18.7722 5.66202 18.7389 5.7012C18.5614 5.90976 18.356 6.12042 18.1283 6.33007L17.9021 5.93886L17.4286 6.21273L17.7076 6.69507C17.461 6.89683 17.1947 7.0957 16.9127 7.28894L16.6709 6.87023L16.1972 7.14374L16.4545 7.58937C16.3168 7.67558 16.1761 7.76027 16.0328 7.84308C15.8881 7.92656 15.7442 8.00605 15.6014 8.08164L15.3444 7.63652L14.8707 7.91003L15.1118 8.32761C14.7983 8.47691 14.4927 8.60648 14.1993 8.7166L13.9228 8.23683L13.4489 8.50999L13.6725 8.89796C13.3106 9.01078 12.9744 9.09038 12.6733 9.13761L12.3781 8.6255L11.9042 8.89867L12.0717 9.18925C11.6413 9.18902 11.3425 9.08917 11.2288 8.89253C11.1163 8.69695 11.0034 8.50171 10.8906 8.3064C11.0093 8.32296 11.1364 8.33179 11.2729 8.33179C11.5234 8.33179 11.8036 8.30374 12.1116 8.2473C13.1196 8.06253 14.321 7.58785 15.4946 6.91058C17.0899 5.98929 18.5692 4.69913 19.0053 3.62214C19.1179 3.81722 19.2302 4.01199 19.3431 4.20738C19.455 4.40105 19.3933 4.71183 19.1797 5.08671ZM13.7273 3.84898C14.8477 3.20218 15.9867 2.75038 16.9345 2.57675C17.2076 2.52675 17.4555 2.50222 17.6711 2.50222C18.1116 2.50222 18.4179 2.60456 18.5313 2.80093C18.883 3.41171 17.5422 5.09636 15.221 6.43687C14.1003 7.08363 12.9609 7.5355 12.0129 7.70925C11.1821 7.8616 10.5856 7.77812 10.4171 7.48624C10.0646 6.87542 11.4052 5.18999 13.7273 3.84898ZM11.4951 7.55167C11.7525 7.55167 12.0764 7.49316 12.4691 7.37632C13.2237 7.15179 14.1514 6.73238 15.0815 6.19531C16.0122 5.65788 16.8394 5.06413 17.4106 4.52343C18.0967 3.8741 18.331 3.38675 18.1269 3.03331C17.9228 2.68085 17.3839 2.64042 16.4788 2.90999C15.7251 3.13445 14.7976 3.55371 13.8669 4.09054C12.9363 4.62796 12.109 5.22175 11.5378 5.76246C10.8517 6.41179 10.6174 6.89914 10.8212 7.25214C10.9364 7.45199 11.1592 7.55167 11.4951 7.55167ZM12.0019 6.07785C12.5393 5.58781 13.2987 5.05027 14.1402 4.56433C14.9816 4.07894 15.8266 3.69023 16.5194 3.46976C17.2554 3.23562 17.5754 3.27179 17.6496 3.30945C17.6453 3.39238 17.5172 3.68757 16.9464 4.208C16.409 4.69804 15.6496 5.23558 14.808 5.7216C13.9676 6.20687 13.1229 6.59562 12.4295 6.81617C11.693 7.05042 11.3728 7.01413 11.2987 6.97656C11.3029 6.89386 11.4308 6.59859 12.0019 6.07785ZM18.3019 10.8343C17.6386 9.68652 14.9467 10.4151 12.7506 11.6832C11.5771 12.361 10.5652 13.164 9.90139 13.9444C9.16612 14.8088 8.93748 15.5426 9.24022 16.0664C9.51143 16.5358 9.78159 17.0041 10.0518 17.4725C10.271 17.8523 10.725 18.0457 11.383 18.0457C11.6333 18.0457 11.9132 18.0177 12.2208 17.9613C13.2287 17.7767 14.4299 17.3021 15.6031 16.6248C17.7996 15.3563 19.7763 13.3887 19.1137 12.2407C18.8435 11.7723 18.5732 11.3039 18.3019 10.8343ZM10.318 14.2988C10.9423 13.5648 11.9035 12.8041 13.0242 12.1569C14.5954 11.2496 16.0784 10.8103 16.9825 10.8103C17.4144 10.8103 17.7142 10.9106 17.8283 11.108C18.1799 11.7192 16.8394 13.4042 14.5179 14.7448C13.3969 15.3917 12.2578 15.8435 11.3102 16.0171C10.4799 16.1691 9.88338 16.0855 9.71412 15.7933C9.54534 15.5012 9.7708 14.9421 10.318 14.2988ZM18.4761 13.393L18.3086 13.1031L17.8349 13.3768L18.1307 13.8885C17.9393 14.1258 17.7022 14.3772 17.4236 14.6343L17.2003 14.2471L16.7264 14.5203L17.003 15C16.761 15.1989 16.4961 15.3987 16.2101 15.5955L15.969 15.1773L15.4951 15.4504L15.7522 15.8966C15.6153 15.9825 15.4743 16.0675 15.3295 16.151C15.1864 16.2337 15.043 16.313 14.8997 16.3891L14.6424 15.9433L14.1687 16.2168L14.4105 16.6357C14.102 16.7834 13.7966 16.9146 13.4985 17.0272L13.2194 16.5444L12.7459 16.8182L12.9719 17.2091C12.6766 17.3014 12.3915 17.3739 12.1223 17.4233C12.0716 17.4326 12.0218 17.4409 11.9728 17.4485L11.6749 16.9322L11.2011 17.2056L11.3696 17.4976C10.9378 17.4951 10.6375 17.393 10.5255 17.1991C10.4131 17.0041 10.3003 16.8088 10.1878 16.6138C10.3081 16.6307 10.4357 16.6393 10.5705 16.6393C11.7236 16.6393 13.3624 16.0431 14.7915 15.2185C16.3871 14.2971 17.8664 13.0067 18.3025 11.9294C18.4149 12.1243 18.5276 12.3193 18.6399 12.5141C18.7536 12.7111 18.6909 13.0201 18.4761 13.393ZM10.7921 15.8594C11.0495 15.8594 11.3735 15.8009 11.7664 15.6838C12.5201 15.4594 13.4477 15.0401 14.3784 14.5032C15.309 13.9658 16.1362 13.3721 16.7075 12.8314C17.3935 12.182 17.6278 11.6947 17.4241 11.3419C17.3729 11.2529 17.2674 11.1348 17.0556 11.0779C16.2989 10.8745 14.5558 11.5946 13.1637 12.3985C12.233 12.9359 11.4058 13.5296 10.8346 14.0703C10.1486 14.7197 9.91424 15.207 10.1183 15.5605C10.2338 15.76 10.4564 15.8594 10.7921 15.8594ZM11.2988 14.3858C11.8362 13.8957 12.5956 13.3582 13.4372 12.8722C14.2781 12.3866 15.1229 11.9977 15.8159 11.7771C16.5531 11.5425 16.873 11.5793 16.9465 11.6169C16.9426 11.6993 16.8149 11.9946 16.2433 12.5159C15.7058 13.006 14.9464 13.5435 14.1049 14.0294C13.2635 14.5148 12.4185 14.9036 11.7257 15.124C10.9898 15.3581 10.6697 15.3219 10.5955 15.2844C10.5999 15.2014 10.7281 14.9062 11.2988 14.3858Z" fill="#8AB0BA"/>
<path d="M7.34812 5.39008H7.97926V6.02125H8.52629V5.39008H9.15633V4.84309H8.52629V4.21191H7.97926V4.84309H7.34812V5.39008Z" fill="#CFECF3"/>
<path d="M7.20859 14.9493H6.57746V14.3192H6.03043V14.9493H5.40039V15.4963H6.03043V16.1274H6.57746V15.4963H7.20859V14.9493Z" fill="#CFECF3"/>
<path d="M19.7818 8.76949H19.1518V8.13945H18.6048V8.76949H17.9736V9.31648H18.6048V9.94762H19.1518V9.31648H19.7818V8.76949Z" fill="#CFECF3"/>
</svg>
