<svg width="22" height="22" viewBox="0 0 22 22" fill="none" xmlns="http://www.w3.org/2000/svg">
<g clip-path="url(#clip0_3992_10973)">
<path d="M17.9521 5.54764L12.4521 2.79766C12.3384 2.74081 12.2064 2.73441 12.0863 2.77841L5.35254 5.3038C4.86944 5.48529 4.45695 5.82904 4.19204 6.27089L2.28906 9.44252C1.88391 10.1181 1.85181 10.9422 2.20471 11.6462L4.0463 15.3293C4.08389 15.4044 4.13889 15.4649 4.20395 15.5071C4.1801 15.9609 4.30385 16.41 4.56235 16.7978C4.9721 17.4147 5.64769 17.7502 6.33884 17.7502C6.71284 17.7502 7.09233 17.6512 7.43793 17.444L10.5876 15.5548C11.0807 15.4347 13.5309 14.7014 15.3872 11.6984C17.3406 8.53958 18.1473 6.20394 18.1812 6.10585C18.2555 5.88864 18.1574 5.65029 17.9521 5.54764ZM14.6062 11.2181C12.7986 14.1422 10.3474 14.6712 10.3236 14.6757C10.2723 14.6867 10.2219 14.706 10.177 14.7326L6.96497 16.6594C6.40673 16.9958 5.68533 16.8336 5.32233 16.2891C5.13898 16.0132 5.07574 15.6832 5.14358 15.3596C5.21233 15.0369 5.40298 14.761 5.68168 14.5841C8.14476 13.0157 8.58931 12.8433 8.58016 12.8333C8.83316 12.8333 9.03666 12.6499 9.03756 12.3969C9.08431 12.11 9.9194 10.768 10.738 9.94942C10.869 9.81832 10.9085 9.62127 10.837 9.44983C10.7664 9.27842 10.5986 9.16658 10.4135 9.16658C8.98806 9.16658 7.96137 8.35898 7.95132 8.35073C7.85872 8.27739 7.74597 8.23064 7.63322 8.23064C7.57732 8.23064 7.52232 8.24254 7.47007 8.26824C7.31057 8.34433 7.21342 8.47633 7.21342 8.65233C7.05207 9.04558 5.29208 10.0402 4.91353 10.0832C4.72468 10.0832 4.55693 10.1987 4.48818 10.3747C4.41943 10.5507 4.46528 10.7506 4.60368 10.8789C4.61103 10.8853 5.37278 11.6003 5.37278 12.3749C5.37278 12.6279 5.56803 12.8323 5.82102 12.8323C5.89893 12.8515 6.03917 13.0046 6.16662 13.1953C5.87877 13.374 5.55522 13.5784 5.19038 13.8104C4.95297 13.9616 4.75128 14.1532 4.59363 14.3759L3.02429 11.2364C2.81254 10.8138 2.83089 10.3197 3.07469 9.91453L4.97768 6.7429C5.13718 6.47705 5.38468 6.27175 5.67433 6.16265L12.2193 3.70876L17.172 6.18465C16.8695 6.95929 16.0601 8.86687 14.6062 11.2181ZM6.25913 12.0257C6.17663 11.5252 5.93278 11.0833 5.70179 10.7598C6.40303 10.4591 7.34078 9.91462 7.81652 9.36002C8.18227 9.57452 8.75792 9.85042 9.47751 9.99162C8.94217 10.6544 8.39587 11.4739 8.19877 12.0211C7.97327 12.122 7.60112 12.3218 6.94938 12.7141C6.78988 12.4648 6.55518 12.1788 6.25913 12.0257Z" fill="#085266"/>
<path d="M5.82944 16.9583C5.57644 16.9583 5.37109 17.1637 5.37109 17.4167V19.7083C5.37109 19.9613 5.57644 20.1667 5.82944 20.1667C6.08244 20.1667 6.28778 19.9613 6.28778 19.7083V17.4167C6.28774 17.1637 6.08244 16.9583 5.82944 16.9583Z" fill="#085266"/>
<path d="M19.76 2.78678L13.3434 0.0368008C13.1555 -0.043851 12.9345 0.0111486 12.8053 0.17155L10.9719 2.46319C10.8848 2.57134 10.8518 2.71254 10.8821 2.84819C10.9123 2.98384 11.0012 3.09844 11.125 3.15984L18.0485 6.62116C18.2429 6.71832 18.4491 6.76782 18.6627 6.76782C19.0156 6.76782 19.3648 6.62667 19.6197 6.38007C19.8901 6.11972 20.0386 5.76957 20.0386 5.39192V3.20843C20.0387 3.02509 19.9296 2.85919 19.76 2.78678ZM19.122 5.39192C19.122 5.55327 19.0468 5.65957 18.9845 5.72007C18.8461 5.85207 18.6352 5.89057 18.4592 5.80167L12.0426 2.59334L13.3039 1.0167L19.122 3.51003V5.39192H19.122Z" fill="#085266"/>
<path d="M7.98627 16.4285C7.83592 16.291 7.61412 16.2681 7.44177 16.3735L6.96512 16.6586C6.42153 16.984 5.67263 16.8135 5.32248 16.2873C5.27663 16.2186 5.23998 16.1471 5.20973 16.0738C5.11348 15.8409 4.84583 15.73 4.61208 15.8253C3.40299 16.3222 2.62109 17.4872 2.62109 18.7917C2.62109 20.5608 4.06024 22 5.82942 22C7.59861 22 9.03775 20.5609 9.03865 18.7917C9.03861 17.8997 8.65452 17.039 7.98627 16.4285ZM5.82938 21.0824C4.56623 21.0824 3.53774 20.0539 3.53774 18.7908C3.53774 17.9951 3.94474 17.2728 4.60198 16.8575C5.22533 17.7284 6.50957 18.0006 7.43632 17.4442L7.59856 17.347C7.93772 17.7559 8.12106 18.2573 8.12106 18.7908C8.12102 20.0539 7.09253 21.0824 5.82938 21.0824Z" fill="#085266"/>
</g>
<defs>
<clipPath id="clip0_3992_10973">
<rect width="22" height="22" fill="white"/>
</clipPath>
</defs>
</svg>
