<svg width="20" height="18" viewBox="0 0 20 18" fill="none" xmlns="http://www.w3.org/2000/svg">
<path d="M3.75033 8.75C1.90949 8.75 0.416992 10.2425 0.416992 12.0833V13.75C0.416992 14.6704 1.16324 15.4167 2.08366 15.4167H5.41699C6.33741 15.4167 7.08366 14.6704 7.08366 13.75V12.0833C7.08366 10.2425 5.59116 8.75 3.75033 8.75Z" fill="#F7F7F7"/>
<path d="M3.75033 8.75C3.73324 8.75 3.71699 8.75208 3.70033 8.7525C4.72366 9.32167 5.41699 10.4125 5.41699 11.6667V12.0833C5.41699 13.0038 4.67074 13.75 3.75033 13.75H0.416992C0.416992 14.6704 1.16324 15.4167 2.08366 15.4167H5.41699C6.33741 15.4167 7.08366 14.6704 7.08366 13.75V12.0833C7.08366 10.2425 5.59116 8.75 3.75033 8.75Z" fill="#CFECF3"/>
<path d="M3.75033 8.74992C4.90092 8.74992 5.83366 7.81718 5.83366 6.66659C5.83366 5.51599 4.90092 4.58325 3.75033 4.58325C2.59973 4.58325 1.66699 5.51599 1.66699 6.66659C1.66699 7.81718 2.59973 8.74992 3.75033 8.74992Z" fill="#F7F7F7"/>
<path d="M4.39805 4.69678C4.64096 5.01303 4.79096 5.40386 4.79096 5.83344C4.79096 6.86886 3.95138 7.70844 2.91596 7.70844C2.48638 7.70844 2.09555 7.55844 1.7793 7.31553C2.05305 8.14636 2.8268 8.75011 3.7493 8.75011C4.89971 8.75011 5.83263 7.81719 5.83263 6.66678C5.83263 5.74428 5.22888 4.97053 4.39805 4.69678Z" fill="#CFECF3"/>
<path d="M16.2503 8.75C14.4095 8.75 12.917 10.2425 12.917 12.0833V13.75C12.917 14.6704 13.6632 15.4167 14.5837 15.4167H17.917C18.8374 15.4167 19.5837 14.6704 19.5837 13.75V12.0833C19.5837 10.2425 18.0912 8.75 16.2503 8.75Z" fill="#F7F7F7"/>
<path d="M16.2503 8.75C16.2332 8.75 16.217 8.75208 16.2003 8.7525C17.2237 9.32167 17.917 10.4125 17.917 11.6667V12.0833C17.917 13.0038 17.1707 13.75 16.2503 13.75H12.917C12.917 14.6704 13.6632 15.4167 14.5837 15.4167H17.917C18.8374 15.4167 19.5837 14.6704 19.5837 13.75V12.0833C19.5837 10.2425 18.0912 8.75 16.2503 8.75Z" fill="#CFECF3"/>
<path d="M16.2503 8.74992C17.4009 8.74992 18.3337 7.81718 18.3337 6.66659C18.3337 5.51599 17.4009 4.58325 16.2503 4.58325C15.0997 4.58325 14.167 5.51599 14.167 6.66659C14.167 7.81718 15.0997 8.74992 16.2503 8.74992Z" fill="#F7F7F7"/>
<path d="M16.898 4.69678C17.141 5.01303 17.291 5.40386 17.291 5.83344C17.291 6.86886 16.4514 7.70844 15.416 7.70844C14.9864 7.70844 14.5955 7.55844 14.2793 7.31553C14.553 8.14636 15.3268 8.75011 16.2493 8.75011C17.3997 8.75011 18.3326 7.81719 18.3326 6.66678C18.3326 5.74428 17.7289 4.97053 16.898 4.69678Z" fill="#CFECF3"/>
<path d="M12.4997 16.6666H7.49967C6.57926 16.6666 5.83301 15.9203 5.83301 14.9999V12.4999C5.83301 10.1987 7.69842 8.33325 9.99967 8.33325C12.3009 8.33325 14.1663 10.1987 14.1663 12.4999V14.9999C14.1663 15.9203 13.4201 16.6666 12.4997 16.6666Z" fill="#FAFBFB"/>
<path d="M10.9888 8.4563C11.9118 9.22047 12.4997 10.3746 12.4997 11.6667V13.3334C12.4997 14.2538 11.7534 15 10.833 15H5.83301C5.83301 15.9205 6.57926 16.6667 7.49967 16.6667H12.4997C13.4201 16.6667 14.1663 15.9205 14.1663 15V12.5C14.1663 10.5405 12.8118 8.9013 10.9888 8.4563Z" fill="#F7F7F7"/>
<path d="M10 8.33325C11.3807 8.33325 12.5 7.21396 12.5 5.83325C12.5 4.45254 11.3807 3.33325 10 3.33325C8.61929 3.33325 7.5 4.45254 7.5 5.83325C7.5 7.21396 8.61929 8.33325 10 8.33325Z" fill="#FAFBFB"/>
<path d="M10.8989 3.50244C11.2464 3.90411 11.4581 4.42661 11.4581 4.99994C11.4581 6.26577 10.4323 7.29161 9.16645 7.29161C8.59353 7.29161 8.07103 7.07994 7.66895 6.73244C8.0302 7.66828 8.93645 8.33327 9.99978 8.33327C11.3806 8.33327 12.4998 7.21411 12.4998 5.83327C12.4998 4.76994 11.8348 3.86411 10.8989 3.50244Z" fill="#F7F7F7"/>
<path d="M17.7608 8.65383C18.3604 8.19675 18.75 7.47716 18.75 6.66675C18.75 5.288 17.6287 4.16675 16.25 4.16675C14.8712 4.16675 13.75 5.288 13.75 6.66675C13.75 7.48008 14.1421 8.20133 14.745 8.65841C14.6813 8.68675 14.6158 8.71091 14.5542 8.743C14.35 8.84883 14.27 9.1005 14.3758 9.30466C14.4821 9.50925 14.7342 9.58841 14.9375 9.48258C15.3358 9.27591 15.79 9.16675 16.25 9.16675C17.8579 9.16675 19.1667 10.4751 19.1667 12.0834V13.7501C19.1667 14.4392 18.6058 15.0001 17.9167 15.0001H15.8083C15.5779 15.0001 15.3917 15.1867 15.3917 15.4167C15.3917 15.6467 15.5779 15.8334 15.8083 15.8334H17.9167C19.0654 15.8334 20 14.8988 20 13.7501V12.0834C20 10.5534 19.0779 9.23633 17.7608 8.65383ZM14.5833 6.66675C14.5833 5.74758 15.3308 5.00008 16.25 5.00008C17.1692 5.00008 17.9167 5.74758 17.9167 6.66675C17.9167 7.58591 17.1692 8.33341 16.25 8.33341C15.3308 8.33341 14.5833 7.58591 14.5833 6.66675Z" fill="#8AB0BA"/>
<path d="M5.62417 9.30466C5.73 9.1005 5.65 8.84883 5.44583 8.743C5.38417 8.71091 5.31875 8.68675 5.255 8.65841C5.85792 8.20175 6.25 7.48008 6.25 6.66675C6.25 5.288 5.12875 4.16675 3.75 4.16675C2.37125 4.16675 1.25 5.288 1.25 6.66675C1.25 7.47716 1.63958 8.19675 2.23917 8.65383C0.922083 9.23633 0 10.5534 0 12.0834V13.7501C0 14.8988 0.934583 15.8334 2.08333 15.8334H4.19167C4.42208 15.8334 4.60833 15.6467 4.60833 15.4167C4.60833 15.1867 4.42208 15.0001 4.19167 15.0001H2.08333C1.39417 15.0001 0.833333 14.4392 0.833333 13.7501V12.0834C0.833333 10.4751 2.14208 9.16675 3.75 9.16675C4.21 9.16675 4.66417 9.27591 5.0625 9.48258C5.26542 9.58758 5.51792 9.50883 5.62417 9.30466ZM2.08333 6.66675C2.08333 5.74758 2.83083 5.00008 3.75 5.00008C4.66917 5.00008 5.41667 5.74758 5.41667 6.66675C5.41667 7.58591 4.66917 8.33341 3.75 8.33341C2.83083 8.33341 2.08333 7.58591 2.08333 6.66675Z" fill="#8AB0BA"/>
<path d="M11.6566 8.23133C12.417 7.70425 12.917 6.82675 12.917 5.83341C12.917 4.22508 11.6082 2.91675 10.0003 2.91675C8.39241 2.91675 7.08366 4.22508 7.08366 5.83341C7.08366 6.82675 7.58366 7.70425 8.34407 8.23133C6.63408 8.89716 5.41699 10.5576 5.41699 12.5001V15.0001C5.41699 16.1488 6.35158 17.0834 7.50033 17.0834H12.5003C13.6491 17.0834 14.5837 16.1488 14.5837 15.0001V12.5001C14.5837 10.5572 13.3666 8.89716 11.6566 8.23133ZM7.91699 5.83341C7.91699 4.68466 8.85158 3.75008 10.0003 3.75008C11.1491 3.75008 12.0837 4.68466 12.0837 5.83341C12.0837 6.98216 11.1491 7.91675 10.0003 7.91675C8.85158 7.91675 7.91699 6.98216 7.91699 5.83341ZM13.7503 15.0001C13.7503 15.6892 13.1895 16.2501 12.5003 16.2501H7.50033C6.81116 16.2501 6.25033 15.6892 6.25033 15.0001V12.5001C6.25033 10.4326 7.93241 8.75008 10.0003 8.75008C12.0682 8.75008 13.7503 10.4326 13.7503 12.5001V15.0001Z" fill="#8AB0BA"/>
</svg>
