<svg width="20" height="19" viewBox="0 0 20 19" fill="none" xmlns="http://www.w3.org/2000/svg">
<g clip-path="url(#clip0_3992_11035)">
<path d="M19.6641 6.85044C19.6641 12.6098 12.8359 16.4098 10.7578 17.4192C10.4016 17.5974 9.92658 17.5974 9.57034 17.4192C7.49221 16.4098 0.664062 12.7286 0.664062 6.85044C0.664062 3.8817 2.86093 1.44733 5.5328 1.44733C7.67031 1.44733 9.45157 2.93172 10.1047 5.00981C10.7578 2.93168 12.5984 1.44733 14.6765 1.44733C17.4672 1.44733 19.6641 3.8817 19.6641 6.85044Z" fill="#E24C4B"/>
<path d="M19.6656 6.85044C19.6656 12.6098 12.8375 16.4098 10.7594 17.4192C10.4032 17.5974 9.92815 17.5974 9.51251 17.4192C8.56249 17.0036 6.78126 15.9942 5 14.5692H5.05937C10.7 14.5692 15.2125 9.99733 15.2125 4.41607C15.2125 3.40669 15.0344 2.3973 14.7375 1.44733C17.5281 1.50669 19.6656 3.8817 19.6656 6.85044Z" fill="#D1403F"/>
<g opacity="0.2">
<path d="M5.24085 5.95972C4.29083 6.19722 3.40022 5.84099 3.22208 5.18784C3.10335 4.47532 3.69709 3.76281 4.64711 3.5253C5.59713 3.2878 6.48774 3.64404 6.66588 4.29718C6.84398 5.0097 6.19087 5.72221 5.24085 5.95972Z" fill="white"/>
</g>
</g>
<defs>
<clipPath id="clip0_3992_11035">
<rect width="19" height="19" fill="white" transform="translate(0.664062 6.10352e-05)"/>
</clipPath>
</defs>
</svg>
