<svg width="19" height="18" viewBox="0 0 19 18" fill="none" xmlns="http://www.w3.org/2000/svg">
<path d="M12.8987 17.0626H2.55094C1.80282 17.0626 1.10982 16.7326 0.660946 16.1551C0.204196 15.5701 0.0703275 14.835 0.298702 14.1375L3.61407 3.99002C3.91332 3.04502 4.82683 2.40002 5.86633 2.40002H15.5526C16.5054 2.40002 17.3638 2.94009 17.7261 3.78009C17.923 4.21509 17.9623 4.7101 17.8442 5.1976L15.1903 15.345C14.9383 16.3575 13.9933 17.0626 12.8987 17.0626ZM5.87419 3.53253C5.36232 3.53253 4.8977 3.85508 4.74807 4.32758L1.4327 14.4751C1.32245 14.8276 1.38545 15.1951 1.6217 15.4951C1.8422 15.7801 2.1887 15.9451 2.55882 15.9451H12.9066C13.45 15.9451 13.9224 15.5926 14.0484 15.0901L16.7023 4.93503C16.7653 4.68753 16.7496 4.44006 16.6472 4.22256C16.4582 3.79506 16.0408 3.52502 15.5605 3.52502H5.87419V3.53253Z" fill="#292D32"/>
<path d="M16.3646 17.0624H12.6004C12.2775 17.0624 12.0098 16.8074 12.0098 16.4999C12.0098 16.1924 12.2775 15.9374 12.6004 15.9374H16.3646C16.6875 15.9374 16.9868 15.8099 17.2073 15.5849C17.4278 15.3599 17.538 15.0599 17.5144 14.7524L16.7348 4.53739C16.7111 4.22989 16.9553 3.95985 17.2781 3.93735C17.601 3.92235 17.8845 4.14731 17.9081 4.45481L18.6878 14.6699C18.735 15.2849 18.5066 15.8999 18.0656 16.3499C17.6325 16.8074 17.0104 17.0624 16.3646 17.0624Z" fill="#292D32"/>
<path d="M7.62348 5.34747C7.57623 5.34747 7.52898 5.33995 7.48173 5.33245C7.16673 5.25745 6.96987 4.95743 7.04862 4.64993L7.8676 1.40997C7.94635 1.10997 8.26135 0.922432 8.58423 0.997432C8.89923 1.07243 9.09612 1.37246 9.01737 1.67996L8.19836 4.92001C8.13536 5.17501 7.89123 5.34747 7.62348 5.34747Z" fill="#292D32"/>
<path d="M12.8988 5.35487C12.8594 5.35487 12.8122 5.35485 12.7728 5.33985C12.4578 5.27235 12.2531 4.97234 12.3161 4.67234L13.0563 1.41737C13.1272 1.10987 13.4422 0.922401 13.7572 0.982401C14.0722 1.0424 14.2769 1.34982 14.2139 1.64982L13.4737 4.90489C13.4186 5.17489 13.1744 5.35487 12.8988 5.35487Z" fill="#292D32"/>
<path d="M12.3633 9.5625H6.06328C5.74041 9.5625 5.47266 9.3075 5.47266 9C5.47266 8.6925 5.74041 8.4375 6.06328 8.4375H12.3633C12.6862 8.4375 12.9539 8.6925 12.9539 9C12.9539 9.3075 12.6862 9.5625 12.3633 9.5625Z" fill="#292D32"/>
<path d="M11.5762 12.5624H5.27617C4.9533 12.5624 4.68555 12.3074 4.68555 11.9999C4.68555 11.6924 4.9533 11.4374 5.27617 11.4374H11.5762C11.899 11.4374 12.1668 11.6924 12.1668 11.9999C12.1668 12.3074 11.899 12.5624 11.5762 12.5624Z" fill="#292D32"/>
</svg>
