<svg width="27" height="26" viewBox="0 0 27 26" fill="none" xmlns="http://www.w3.org/2000/svg">
<path d="M18.7422 4.06256C16.6449 4.06256 14.8087 4.96444 13.6641 6.48889C12.5195 4.96444 10.6832 4.06256 8.58594 4.06256C6.91648 4.06444 5.31594 4.72847 4.13545 5.90895C2.95497 7.08944 2.29094 8.68998 2.28906 10.3594C2.28906 17.4688 12.8302 23.2233 13.2791 23.461C13.3975 23.5246 13.5297 23.558 13.6641 23.558C13.7984 23.558 13.9307 23.5246 14.049 23.461C14.4979 23.2233 25.0391 17.4688 25.0391 10.3594C25.0372 8.68998 24.3732 7.08944 23.1927 5.90895C22.0122 4.72847 20.4116 4.06444 18.7422 4.06256ZM13.6641 21.8157C11.8095 20.7351 3.91406 15.8123 3.91406 10.3594C3.91567 9.12087 4.40841 7.9335 5.2842 7.0577C6.16 6.18191 7.34737 5.68917 8.58594 5.68756C10.5613 5.68756 12.2198 6.73975 12.9125 8.42975C12.9737 8.57877 13.0778 8.70623 13.2117 8.79593C13.3455 8.88563 13.503 8.93353 13.6641 8.93353C13.8252 8.93353 13.9826 8.88563 14.1165 8.79593C14.2503 8.70623 14.3544 8.57877 14.4156 8.42975C15.1083 6.7367 16.7668 5.68756 18.7422 5.68756C19.9808 5.68917 21.1681 6.18191 22.0439 7.0577C22.9197 7.9335 23.4125 9.12087 23.4141 10.3594C23.4141 15.8042 15.5166 20.734 13.6641 21.8157Z" fill="black"/>
</svg>
