<svg width="27" height="27" viewBox="0 0 27 27" fill="none" xmlns="http://www.w3.org/2000/svg">
<path d="M24.657 11.3047L16.532 3.17974C16.4468 3.09463 16.3382 3.03667 16.2201 3.01321C16.1019 2.98974 15.9795 3.0018 15.8682 3.04788C15.7569 3.09396 15.6618 3.17198 15.5948 3.2721C15.5279 3.37221 15.4921 3.48992 15.492 3.61037V7.8963C9.95885 8.26091 3.26487 13.4822 2.49908 20.1508C2.47421 20.3632 2.51699 20.578 2.62131 20.7646C2.72564 20.9512 2.88619 21.1001 3.08011 21.1902C3.27402 21.2802 3.4914 21.3067 3.70128 21.266C3.91116 21.2253 4.10284 21.1194 4.24901 20.9633C5.3926 19.7436 9.49979 15.8588 15.492 15.6079V19.8604C15.4921 19.9808 15.5279 20.0985 15.5948 20.1986C15.6618 20.2987 15.7569 20.3768 15.8682 20.4228C15.9795 20.4689 16.1019 20.481 16.2201 20.4575C16.3382 20.4341 16.4468 20.3761 16.532 20.291L24.657 12.166C24.7711 12.0517 24.8352 11.8969 24.8352 11.7354C24.8352 11.5739 24.7711 11.419 24.657 11.3047ZM16.7107 18.3897V14.9854C16.7107 14.8237 16.6465 14.6688 16.5322 14.5545C16.418 14.4402 16.263 14.376 16.1014 14.376C13.285 14.376 10.5398 15.1123 7.94385 16.5647C6.43081 17.4146 5.03709 18.4614 3.79908 19.6776C4.27643 16.9801 5.84658 14.3963 8.26783 12.3376C10.6647 10.3074 13.5917 9.09474 16.1014 9.09474C16.263 9.09474 16.418 9.03054 16.5322 8.91626C16.6465 8.80198 16.7107 8.64698 16.7107 8.48536V5.08201L23.3641 11.7354L16.7107 18.3897Z" fill="black"/>
</svg>
