<svg width="27" height="26" viewBox="0 0 27 26" fill="none" xmlns="http://www.w3.org/2000/svg">
<path d="M24.0456 10.9443L15.9206 2.81933C15.8354 2.73421 15.7269 2.67626 15.6088 2.65279C15.4906 2.62932 15.3682 2.64139 15.2569 2.68747C15.1456 2.73355 15.0505 2.81157 14.9835 2.91168C14.9166 3.0118 14.8808 3.12951 14.8806 3.24995V7.53589C9.34752 7.9005 2.65354 13.1218 1.88776 19.7904C1.86289 20.0028 1.90566 20.2175 2.00998 20.4042C2.11431 20.5908 2.27487 20.7397 2.46878 20.8297C2.66269 20.9198 2.88007 20.9463 3.08995 20.9056C3.29983 20.8649 3.49151 20.7589 3.63768 20.6029C4.78127 19.3832 8.88846 15.4984 14.8806 15.2475V19.5C14.8808 19.6204 14.9166 19.7381 14.9835 19.8382C15.0505 19.9383 15.1456 20.0164 15.2569 20.0624C15.3682 20.1085 15.4906 20.1206 15.6088 20.0971C15.7269 20.0736 15.8354 20.0157 15.9206 19.9306L24.0456 11.8056C24.1598 11.6913 24.2239 11.5364 24.2239 11.375C24.2239 11.2135 24.1598 11.0586 24.0456 10.9443ZM16.0994 18.0293V14.625C16.0994 14.4633 16.0352 14.3083 15.9209 14.1941C15.8066 14.0798 15.6516 14.0156 15.49 14.0156C12.6737 14.0156 9.92846 14.7519 7.33252 16.2042C5.81948 17.0542 4.42576 18.101 3.18776 19.3171C3.6651 16.6196 5.23526 14.0359 7.65651 11.9772C10.0534 9.94698 12.9804 8.73433 15.49 8.73433C15.6516 8.73433 15.8066 8.67013 15.9209 8.55585C16.0352 8.44157 16.0994 8.28657 16.0994 8.12495V4.72159L22.7528 11.375L16.0994 18.0293Z" fill="#636399"/>
</svg>
