<svg width="326" height="324" viewBox="0 0 326 324" fill="none" xmlns="http://www.w3.org/2000/svg">
<g clip-path="url(#clip0_3992_7305)">
<path d="M102.184 143.344L105.498 138.204L133.777 157.553L130.463 162.693C128.972 164.872 121.433 162.307 113.623 156.964C105.815 151.621 100.693 145.523 102.184 143.344Z" fill="#EB7754"/>
<path d="M133.778 157.553C135.269 155.374 130.148 149.276 122.339 143.933C114.53 138.59 106.991 136.025 105.5 138.204C104.009 140.383 109.13 146.481 116.939 151.824C124.748 157.167 132.287 159.732 133.778 157.553Z" fill="url(#paint0_linear_3992_7305)"/>
<path d="M115.892 149.151C115.681 148.979 115.477 148.807 115.277 148.635C115.735 148.979 116.21 149.32 116.703 149.658C121.875 153.196 126.868 154.895 127.855 153.452C128.61 152.349 126.806 149.729 123.604 146.976C123.502 146.889 123.4 146.802 123.296 146.714C123.514 146.885 123.727 147.056 123.935 147.226C127.517 150.163 129.602 153.047 128.801 154.218C127.813 155.661 122.82 153.963 117.649 150.424C117.036 150.005 116.45 149.579 115.892 149.151Z" fill="#F5DCB1"/>
<path d="M110.074 141.404C110.075 141.402 110.077 141.401 110.078 141.399C110.08 141.397 110.081 141.395 110.082 141.392C111.069 139.949 116.062 141.648 121.234 145.186C121.846 145.605 122.433 146.032 122.991 146.459C123.094 146.545 123.196 146.629 123.297 146.714C123.402 146.801 123.504 146.889 123.605 146.976C123.147 146.632 122.672 146.29 122.179 145.953C117.007 142.414 112.015 140.716 111.027 142.159C110.272 143.262 112.077 145.881 115.278 148.635C115.478 148.807 115.683 148.979 115.893 149.151C111.738 145.966 109.203 142.676 110.074 141.404Z" fill="#D3561D"/>
<path d="M111.027 142.159C112.015 140.716 117.008 142.414 122.179 145.953C122.672 146.29 123.147 146.632 123.605 146.976C126.807 149.729 128.611 152.349 127.856 153.452C126.869 154.895 121.876 153.196 116.705 149.658C116.212 149.321 115.737 148.979 115.279 148.635C112.077 145.882 110.273 143.262 111.027 142.159Z" fill="#F2693B"/>
<path d="M139.912 133.832C148.64 133.832 155.716 126.757 155.716 118.028C155.716 109.3 148.64 102.224 139.912 102.224C131.183 102.224 124.107 109.3 124.107 118.028C124.107 126.757 131.183 133.832 139.912 133.832Z" fill="#F5DCB1"/>
<path d="M140.947 135.421C149.675 135.421 156.751 128.345 156.751 119.616C156.751 110.888 149.675 103.812 140.947 103.812C132.218 103.812 125.143 110.888 125.143 119.616C125.143 128.345 132.218 135.421 140.947 135.421Z" fill="url(#paint1_linear_3992_7305)"/>
<path d="M131.744 114.186C131.899 113.975 132.06 113.77 132.229 113.573C131.981 114.046 131.764 114.542 131.588 115.064C129.732 120.538 132.665 126.481 138.139 128.336C142.323 129.755 146.781 128.375 149.478 125.201C149.563 125.101 149.647 124.999 149.729 124.895C149.591 125.117 149.446 125.333 149.294 125.542C146.67 129.148 141.916 130.799 137.471 129.292C131.996 127.436 129.063 121.493 130.919 116.019C131.139 115.371 131.418 114.759 131.744 114.186Z" fill="#FFF7CF"/>
<path d="M144.195 109.467C144.201 109.469 144.208 109.472 144.214 109.474C144.222 109.477 144.231 109.479 144.239 109.482C149.713 111.338 152.646 117.28 150.79 122.754C150.571 123.402 150.292 124.013 149.965 124.586C149.889 124.691 149.811 124.793 149.731 124.894C149.65 124.998 149.566 125.1 149.48 125.2C149.728 124.727 149.945 124.23 150.122 123.709C151.978 118.234 149.044 112.292 143.57 110.436C139.386 109.018 134.928 110.398 132.231 113.572C132.063 113.769 131.901 113.974 131.747 114.185C134.18 109.918 139.368 107.831 144.195 109.467Z" fill="#D3561D"/>
<path d="M143.567 110.437C149.042 112.293 151.975 118.235 150.119 123.709C149.942 124.231 149.725 124.728 149.478 125.201C146.78 128.375 142.323 129.755 138.139 128.336C132.664 126.48 129.731 120.538 131.587 115.064C131.764 114.542 131.981 114.046 132.228 113.572C134.926 110.399 139.383 109.018 143.567 110.437Z" fill="#F2693B"/>
<path d="M207.06 111.832C199.621 102.309 188.957 98.0928 182.658 101.972L182.651 101.97C182.651 101.97 177.832 103.966 175.247 107.246L177.997 110.733C177.648 116.245 179.978 123.129 184.761 129.252C189.62 135.472 195.856 139.43 201.353 140.347L203.205 142.695C203.205 142.695 207.694 141.017 210.489 138.122C210.492 138.119 210.494 138.115 210.497 138.112C216.054 133.045 214.604 121.489 207.06 111.832Z" fill="#F5DCB1"/>
<path d="M205.017 141.594C211.175 136.784 209.867 124.822 202.097 114.876C194.328 104.93 183.037 100.767 176.88 105.577C170.723 110.387 172.03 122.349 179.8 132.295C187.57 142.241 198.86 146.404 205.017 141.594Z" fill="url(#paint2_linear_3992_7305)"/>
<path d="M196.384 115.328C196.107 115.087 195.827 114.855 195.544 114.633C196.072 115.189 196.585 115.778 197.075 116.406C202.221 122.993 203.087 130.915 199.009 134.101C195.892 136.536 190.789 135.498 186.259 131.932C186.116 131.819 185.973 131.704 185.831 131.586C186.099 131.844 186.371 132.092 186.645 132.331C191.371 136.45 196.924 137.783 200.235 135.196C204.313 132.01 203.447 124.088 198.302 117.501C197.692 116.722 197.049 115.997 196.384 115.328Z" fill="#F5DCB1"/>
<path d="M181.602 111.343C181.597 111.347 181.592 111.352 181.587 111.355C181.581 111.36 181.575 111.364 181.569 111.369C177.491 114.555 178.356 122.477 183.502 129.064C184.111 129.844 184.754 130.568 185.419 131.237C185.556 131.357 185.694 131.473 185.832 131.587C185.974 131.705 186.116 131.82 186.259 131.933C185.731 131.377 185.219 130.787 184.728 130.16C179.582 123.573 178.717 115.65 182.795 112.465C185.912 110.03 191.015 111.068 195.545 114.634C195.827 114.856 196.108 115.087 196.385 115.33C191.433 110.347 185.196 108.535 181.602 111.343Z" fill="#D3561D"/>
<path d="M182.794 112.465C178.716 115.65 179.582 123.572 184.728 130.159C185.218 130.787 185.731 131.377 186.259 131.933C190.789 135.498 195.892 136.537 199.009 134.102C203.087 130.916 202.221 122.994 197.075 116.407C196.585 115.779 196.072 115.189 195.544 114.634C191.014 111.068 185.912 110.029 182.794 112.465Z" fill="#F2693B"/>
<path d="M166.616 179.49C181.227 179.49 193.072 167.645 193.072 153.033C193.072 138.422 181.227 126.577 166.616 126.577C152.004 126.577 140.159 138.422 140.159 153.033C140.159 167.645 152.004 179.49 166.616 179.49Z" fill="#D77F31"/>
<path d="M165.366 176.758C179.977 176.758 191.822 164.913 191.822 150.302C191.822 135.69 179.977 123.845 165.366 123.845C150.754 123.845 138.909 135.69 138.909 150.302C138.909 164.913 150.754 176.758 165.366 176.758Z" fill="url(#paint3_linear_3992_7305)"/>
<path d="M182.873 146.64C182.742 146.222 182.595 145.811 182.435 145.407C182.573 146.291 182.65 147.194 182.65 148.116C182.65 157.792 174.806 165.637 165.13 165.637C157.733 165.637 151.409 161.053 148.838 154.572C148.757 154.367 148.679 154.16 148.605 153.952C148.704 154.378 148.818 154.798 148.947 155.212C151.169 162.338 157.818 167.51 165.676 167.51C175.352 167.51 183.197 159.666 183.197 149.989C183.196 148.844 183.083 147.725 182.873 146.64Z" fill="#F5DCB1"/>
<path d="M165.675 132.469C165.664 132.469 165.652 132.469 165.641 132.469C165.626 132.469 165.612 132.469 165.598 132.469C155.922 132.469 148.077 140.313 148.077 149.989C148.077 151.135 148.19 152.254 148.4 153.338C148.465 153.544 148.534 153.748 148.605 153.951C148.679 154.16 148.757 154.367 148.838 154.571C148.7 153.688 148.623 152.784 148.623 151.862C148.623 142.186 156.467 134.342 166.144 134.342C173.54 134.342 179.864 138.925 182.435 145.407C182.595 145.811 182.742 146.222 182.873 146.64C181.309 138.566 174.206 132.469 165.675 132.469Z" fill="#D77F31"/>
<path d="M166.146 134.342C156.469 134.342 148.625 142.186 148.625 151.862C148.625 152.784 148.702 153.688 148.84 154.571C151.41 161.053 157.735 165.637 165.131 165.637C174.807 165.637 182.652 157.793 182.652 148.116C182.652 147.194 182.575 146.29 182.437 145.407C179.866 138.926 173.542 134.342 166.146 134.342Z" fill="#FCCF4F"/>
<path d="M166.146 134.342C156.469 134.342 148.625 142.186 148.625 151.862C148.625 152.784 148.702 153.688 148.84 154.571C151.41 161.053 157.735 165.637 165.131 165.637C174.807 165.637 182.652 157.793 182.652 148.116C182.652 147.194 182.575 146.29 182.437 145.407C179.866 138.926 173.542 134.342 166.146 134.342Z" fill="url(#paint4_linear_3992_7305)"/>
<path d="M228.763 166.221L222.679 160.137L189.539 195.144L195.623 201.227C198.32 203.781 207.926 198.015 217.077 188.348C226.229 178.682 231.46 168.775 228.763 166.221Z" fill="#F5DCB1"/>
<path d="M210.994 182.267C220.145 172.6 225.377 162.694 222.679 160.14C219.982 157.586 210.376 163.352 201.225 173.018C192.073 182.685 186.841 192.592 189.539 195.146C192.237 197.7 201.842 191.934 210.994 182.267Z" fill="url(#paint5_linear_3992_7305)"/>
<path d="M211.63 178.278C211.868 177.979 212.098 177.681 212.322 177.386C211.794 177.995 211.243 178.606 210.665 179.216C204.604 185.618 198.243 189.436 196.457 187.745C195.091 186.452 196.795 182.314 200.379 177.577C200.493 177.427 200.608 177.277 200.725 177.126C200.476 177.425 200.234 177.723 199.999 178.019C195.946 183.122 193.934 187.706 195.385 189.08C197.172 190.771 203.533 186.953 209.593 180.551C210.31 179.793 210.99 179.033 211.63 178.278Z" fill="#F5DCB1"/>
<path d="M217.333 165.896C217.331 165.894 217.328 165.893 217.326 165.891C217.323 165.888 217.321 165.885 217.318 165.882C215.532 164.191 209.171 168.01 203.11 174.412C202.393 175.169 201.713 175.929 201.073 176.684C200.955 176.832 200.84 176.979 200.726 177.125C200.609 177.276 200.494 177.427 200.381 177.576C200.909 176.968 201.46 176.357 202.038 175.746C208.098 169.345 214.46 165.526 216.246 167.217C217.611 168.51 215.908 172.648 212.323 177.385C212.1 177.681 211.869 177.978 211.632 178.278C216.4 172.663 218.908 167.387 217.333 165.896Z" fill="#D77F31"/>
<path d="M216.244 167.218C214.457 165.526 208.096 169.345 202.036 175.747C201.458 176.357 200.906 176.968 200.379 177.577C196.794 182.314 195.09 186.452 196.456 187.745C198.243 189.436 204.604 185.617 210.664 179.216C211.242 178.605 211.794 177.994 212.321 177.386C215.906 172.648 217.609 168.51 216.244 167.218Z" fill="url(#paint6_linear_3992_7305)"/>
<path d="M128.677 206.258C119.154 198.819 114.938 188.156 118.817 181.857L118.815 181.85C118.815 181.85 120.811 177.031 124.091 174.446L127.577 177.196C133.089 176.847 139.974 179.177 146.096 183.96C152.317 188.819 156.275 195.055 157.192 200.552L159.54 202.404C159.54 202.404 157.862 206.893 154.967 209.687C154.963 209.69 154.96 209.693 154.957 209.696C149.89 215.252 138.333 213.802 128.677 206.258Z" fill="#EB7754"/>
<path d="M158.431 204.222C163.241 198.065 159.078 186.775 149.132 179.005C139.186 171.235 127.224 169.928 122.414 176.085C117.604 182.242 121.767 193.532 131.713 201.302C141.659 209.072 153.621 210.379 158.431 204.222Z" fill="url(#paint7_linear_3992_7305)"/>
<path d="M132.17 195.586C131.928 195.309 131.697 195.029 131.475 194.746C132.031 195.274 132.62 195.787 133.248 196.278C139.835 201.423 147.757 202.289 150.943 198.211C153.378 195.094 152.339 189.991 148.774 185.461C148.661 185.318 148.546 185.175 148.428 185.033C148.686 185.301 148.934 185.573 149.173 185.847C153.292 190.573 154.625 196.126 152.038 199.437C148.852 203.515 140.93 202.649 134.343 197.504C133.564 196.894 132.839 196.251 132.17 195.586Z" fill="#F5DCB1"/>
<path d="M128.184 180.803C128.187 180.798 128.192 180.793 128.195 180.788C128.2 180.782 128.204 180.776 128.209 180.77C131.395 176.692 139.317 177.557 145.904 182.703C146.684 183.312 147.408 183.955 148.077 184.62C148.196 184.757 148.312 184.895 148.427 185.033C148.545 185.175 148.66 185.317 148.773 185.46C148.217 184.932 147.627 184.42 146.999 183.929C140.412 178.783 132.49 177.918 129.305 181.996C126.869 185.113 127.908 190.216 131.474 194.746C131.696 195.028 131.927 195.309 132.169 195.586C127.187 190.634 125.375 184.397 128.184 180.803Z" fill="#EB7754"/>
<path d="M129.304 181.996C132.489 177.918 140.412 178.783 146.999 183.929C147.626 184.42 148.216 184.932 148.772 185.46C152.337 189.99 153.376 195.093 150.941 198.21C147.755 202.288 139.833 201.423 133.246 196.277C132.619 195.786 132.029 195.274 131.473 194.746C127.907 190.216 126.869 185.113 129.304 181.996Z" fill="#FCCF4F"/>
<path d="M129.304 181.996C132.489 177.918 140.412 178.783 146.999 183.929C147.626 184.42 148.216 184.932 148.772 185.46C152.337 189.99 153.376 195.093 150.941 198.21C147.755 202.288 139.833 201.423 133.246 196.277C132.619 195.786 132.029 195.274 131.473 194.746C127.907 190.216 126.869 185.113 129.304 181.996Z" fill="url(#paint8_linear_3992_7305)"/>
<path opacity="0.6" d="M101.925 136.521C101.731 134.22 101.63 131.92 101.561 129.619C101.518 128.468 101.508 127.318 101.483 126.168L101.457 122.716L101.482 119.265C101.508 118.115 101.516 116.964 101.56 115.814C101.628 113.513 101.73 111.212 101.925 108.912C102.12 111.212 102.222 113.513 102.291 115.814C102.335 116.964 102.343 118.115 102.369 119.265L102.394 122.716L102.368 126.168C102.342 127.318 102.333 128.468 102.289 129.619C102.221 131.92 102.119 134.22 101.925 136.521Z" fill="white"/>
<path opacity="0.6" d="M133.171 193.293C132.978 190.992 132.876 188.692 132.807 186.391C132.764 185.24 132.754 184.09 132.729 182.94L132.703 179.488L132.728 176.037C132.754 174.887 132.762 173.736 132.806 172.586C132.874 170.285 132.976 167.984 133.171 165.684C133.366 167.984 133.468 170.285 133.537 172.586C133.581 173.736 133.589 174.887 133.615 176.037L133.64 179.488L133.614 182.94C133.588 184.09 133.579 185.24 133.536 186.391C133.467 188.692 133.365 190.992 133.171 193.293Z" fill="white"/>
<path opacity="0.6" d="M140.854 129.668C140.66 127.367 140.559 125.066 140.49 122.766C140.447 121.615 140.437 120.465 140.412 119.314L140.386 115.863L140.41 112.412C140.436 111.261 140.445 110.111 140.488 108.961C140.557 106.66 140.659 104.359 140.854 102.058C141.049 104.359 141.151 106.66 141.22 108.961C141.263 110.111 141.271 111.261 141.298 112.412L141.322 115.863L141.296 119.314C141.271 120.465 141.261 121.615 141.218 122.766C141.149 125.066 141.048 127.367 140.854 129.668Z" fill="white"/>
<path opacity="0.6" d="M106.102 130.391C105.908 129.3 105.807 128.209 105.738 127.117C105.663 126.026 105.636 124.935 105.634 123.843C105.634 122.752 105.662 121.661 105.737 120.569C105.805 119.478 105.907 118.387 106.102 117.296C106.297 118.387 106.399 119.478 106.468 120.569C106.542 121.661 106.57 122.752 106.57 123.843C106.569 124.935 106.541 126.026 106.466 127.117C106.397 128.209 106.296 129.3 106.102 130.391Z" fill="white"/>
<path opacity="0.6" d="M151.276 146.272C151.082 143.971 150.981 141.67 150.912 139.37C150.868 138.219 150.859 137.069 150.834 135.919L150.808 132.467L150.832 129.016C150.858 127.865 150.867 126.715 150.91 125.565C150.979 123.264 151.081 120.963 151.276 118.663C151.471 120.963 151.573 123.264 151.641 125.565C151.685 126.715 151.693 127.865 151.72 129.016L151.744 132.467L151.718 135.919C151.693 137.069 151.683 138.219 151.64 139.37C151.571 141.67 151.47 143.971 151.276 146.272Z" fill="white"/>
<path opacity="0.6" d="M155.455 140.144C155.261 139.053 155.159 137.962 155.09 136.87C155.016 135.779 154.988 134.688 154.986 133.596C154.987 132.505 155.015 131.414 155.089 130.322C155.158 129.231 155.259 128.14 155.455 127.048C155.65 128.14 155.752 129.231 155.82 130.322C155.894 131.414 155.923 132.505 155.923 133.596C155.921 134.688 155.893 135.779 155.819 136.87C155.75 137.961 155.649 139.053 155.455 140.144Z" fill="white"/>
<path opacity="0.6" d="M152.268 104.794C152.074 103.703 151.973 102.612 151.904 101.52C151.829 100.429 151.802 99.3376 151.8 98.2462C151.8 97.1547 151.828 96.0637 151.903 94.9722C151.971 93.8808 152.073 92.7897 152.268 91.6983C152.463 92.7897 152.565 93.8808 152.634 94.9722C152.708 96.0637 152.736 97.1547 152.736 98.2462C152.735 99.3376 152.707 100.429 152.632 101.52C152.563 102.612 152.462 103.703 152.268 104.794Z" fill="white"/>
<path opacity="0.6" d="M116.752 177.47C116.558 176.379 116.456 175.288 116.387 174.196C116.313 173.105 116.285 172.014 116.283 170.922C116.284 169.831 116.312 168.74 116.386 167.649C116.455 166.557 116.556 165.466 116.752 164.375C116.946 165.466 117.048 166.557 117.117 167.649C117.191 168.74 117.219 169.831 117.22 170.922C117.218 172.014 117.19 173.105 117.116 174.196C117.047 175.288 116.945 176.379 116.752 177.47Z" fill="white"/>
<path opacity="0.6" d="M201.585 167.774C201.391 166.33 201.289 164.886 201.22 163.442C201.177 162.72 201.168 161.998 201.142 161.277L201.116 159.111L201.141 156.946C201.167 156.224 201.175 155.502 201.219 154.78C201.288 153.336 201.389 151.892 201.585 150.448C201.779 151.892 201.881 153.336 201.95 154.78C201.994 155.502 202.002 156.224 202.028 156.946L202.053 159.111L202.027 161.277C202.002 161.999 201.992 162.721 201.949 163.442C201.88 164.886 201.778 166.33 201.585 167.774Z" fill="white"/>
<path opacity="0.6" d="M157.291 112.472C157.097 111.028 156.996 109.584 156.927 108.14C156.884 107.418 156.874 106.696 156.849 105.975L156.823 103.809L156.848 101.643C156.874 100.921 156.882 100.199 156.926 99.4777C156.995 98.0337 157.096 96.5901 157.292 95.1461C157.486 96.5901 157.589 98.0337 157.657 99.4777C157.701 100.2 157.709 100.922 157.735 101.643L157.76 103.809L157.734 105.975C157.709 106.697 157.699 107.419 157.656 108.14C157.586 109.584 157.485 111.028 157.291 112.472Z" fill="white"/>
<path opacity="0.6" d="M218.952 155.698C218.758 154.606 218.657 153.515 218.588 152.424C218.513 151.332 218.485 150.241 218.483 149.15C218.484 148.058 218.512 146.967 218.586 145.876C218.655 144.784 218.756 143.693 218.952 142.602C219.147 143.693 219.249 144.784 219.317 145.876C219.392 146.967 219.419 148.058 219.42 149.15C219.418 150.241 219.39 151.332 219.316 152.424C219.247 153.515 219.146 154.607 218.952 155.698Z" fill="white"/>
<path opacity="0.6" d="M115.159 134.78C114.965 131.106 114.864 127.432 114.795 123.757C114.751 121.92 114.742 120.083 114.716 118.246L114.69 112.735L114.715 107.223C114.741 105.386 114.75 103.549 114.793 101.712C114.862 98.0376 114.963 94.3632 115.159 90.6889C115.354 94.3632 115.456 98.0376 115.524 101.712C115.568 103.549 115.576 105.386 115.602 107.223L115.627 112.735L115.601 118.246C115.576 120.083 115.567 121.92 115.523 123.757C115.454 127.432 115.353 131.106 115.159 134.78Z" fill="white"/>
<path opacity="0.6" d="M227.847 160.249C227.653 156.575 227.552 152.901 227.483 149.226C227.44 147.389 227.43 145.552 227.405 143.715L227.379 138.204L227.404 132.692C227.43 130.855 227.438 129.018 227.482 127.181C227.55 123.507 227.652 119.832 227.847 116.158C228.042 119.832 228.144 123.507 228.213 127.181C228.256 129.018 228.264 130.855 228.291 132.692L228.316 138.204L228.289 143.715C228.264 145.552 228.255 147.389 228.211 149.226C228.142 152.901 228.041 156.575 227.847 160.249Z" fill="white"/>
<path opacity="0.6" d="M186.636 145.406C186.455 140.528 186.334 135.65 186.272 130.771C186.229 128.332 186.219 125.893 186.194 123.454L186.168 116.136L186.193 108.818C186.219 106.379 186.227 103.94 186.271 101.5C186.332 96.6221 186.454 91.7437 186.636 86.8654C186.818 91.7437 186.941 96.6221 187.002 101.5C187.045 103.94 187.054 106.379 187.08 108.818L187.105 116.136L187.079 123.454C187.053 125.893 187.044 128.332 187 130.771C186.939 135.65 186.817 140.528 186.636 145.406Z" fill="white"/>
<path opacity="0.6" d="M145.124 155.231C144.93 151.557 144.828 147.882 144.759 144.208C144.716 142.371 144.707 140.534 144.681 138.697L144.655 133.185L144.68 127.674C144.706 125.837 144.714 124 144.758 122.163C144.827 118.488 144.928 114.814 145.124 111.14C145.319 114.814 145.421 118.488 145.489 122.163C145.533 124 145.541 125.837 145.567 127.674L145.592 133.185L145.566 138.697C145.541 140.534 145.531 142.371 145.488 144.208C145.418 147.882 145.317 151.557 145.124 155.231Z" fill="white"/>
<path d="M356.921 0.115601L280.133 168.854L305.647 185.406L394.23 54.4629L356.921 0.115601Z" fill="#A5EEFC"/>
<path d="M177.055 257.409C186.13 259.286 204.802 262.491 225.851 262.311L248.475 246.177L184.381 244.798C180.106 244.706 176.101 247.051 174.058 250.843C172.61 253.53 174.097 256.796 177.055 257.409Z" fill="#63DEF5"/>
<path d="M184.908 237.106C193.406 239.371 210.925 243.405 230.88 244.352L253.175 230.232L192.522 225.519C188.477 225.205 184.557 227.219 182.419 230.712C180.903 233.187 182.139 236.368 184.908 237.106Z" fill="#63DEF5"/>
<path d="M207.242 222.873C215.74 225.137 233.26 229.172 253.214 230.118L275.509 215.997L214.856 211.285C210.811 210.971 206.891 212.986 204.753 216.478C203.238 218.954 204.473 222.134 207.242 222.873Z" fill="#63DEF5"/>
<path d="M250.388 202.223L222.876 233.981L226.181 258.246L251.254 253.313L271.675 214.075L250.388 202.223Z" fill="#63DEF5"/>
<path d="M259.83 211.326L248.732 237.719C247.975 240.052 246.538 242.118 244.606 243.649L238.23 248.699C236.977 249.693 235.546 250.435 234.019 250.887L184.854 266.1C181.01 267.289 177.419 269.229 174.433 271.93C171.126 274.919 168.107 279.146 169.256 284.094C169.551 285.364 170.857 286.131 172.145 285.848L242.907 268.367C242.907 268.367 262.371 263.588 276.06 243.623C289.749 223.659 305.646 185.407 305.646 185.407L310.852 169.386L289.822 165.527L259.83 211.326Z" fill="#A5EEFC"/>
<path d="M184.881 282.783C185.565 282.38 185.905 281.577 185.716 280.806C185.133 278.428 182.359 274.434 169.309 282.989C159.593 289.358 178.142 286.751 184.881 282.783Z" fill="#25AFC9"/>
<path d="M280.13 168.854C280.13 168.854 261.822 170.322 249.629 187.113L219.506 229.146C216.409 233.233 211.257 243.198 215.016 246.535C218.834 249.924 222.841 249.154 226.551 245.497L246.964 226.362C246.964 226.362 287.901 206.608 295.954 182.006L296.496 163.75L280.13 168.854Z" fill="#A5EEFC"/>
<path d="M231.884 240.395C232.325 239.735 232.284 238.864 231.78 238.25C230.225 236.363 225.996 233.972 217.946 247.358C211.951 257.324 227.532 246.903 231.884 240.395Z" fill="#25AFC9"/>
<path d="M250.381 225.92C250.411 225.9 261.718 219.829 270.199 209.518C270.386 209.291 270.353 208.956 270.126 208.77C269.899 208.583 269.565 208.616 269.378 208.843C265.221 213.9 260.339 217.943 256.499 220.716C254.579 222.102 252.92 223.171 251.742 223.892C251.154 224.253 250.685 224.527 250.365 224.71C250.206 224.801 250.083 224.871 250 224.916C249.917 224.962 249.878 224.983 249.878 224.983C249.619 225.123 249.522 225.444 249.661 225.703C249.8 225.962 250.122 226.059 250.381 225.92Z" fill="#63DEF5"/>
<path d="M280.266 169.37L291.907 166.399C292.191 166.327 292.362 166.038 292.29 165.753C292.217 165.469 291.928 165.297 291.643 165.37L280.003 168.34C279.719 168.413 279.547 168.702 279.619 168.987C279.692 169.271 279.981 169.443 280.266 169.37Z" fill="#63DEF5"/>
<path d="M287.23 157.274C287.367 159.061 286.033 160.62 284.251 160.757C282.469 160.894 280.914 159.557 280.777 157.771C280.64 155.985 281.974 154.424 283.756 154.288C285.538 154.151 287.093 155.487 287.23 157.274Z" fill="#063844"/>
<path d="M294.503 157.168C294.639 158.954 293.305 160.515 291.523 160.651C289.741 160.788 288.185 159.451 288.049 157.664C287.912 155.878 289.246 154.319 291.028 154.182C292.81 154.045 294.365 155.382 294.503 157.168Z" fill="#063844"/>
<path d="M301.309 159.429C301.446 161.216 300.112 162.775 298.33 162.912C296.547 163.049 294.992 161.712 294.855 159.926C294.719 158.139 296.053 156.58 297.835 156.443C299.617 156.306 301.172 157.643 301.309 159.429Z" fill="#063844"/>
<path d="M307.342 163.524C307.478 165.31 306.145 166.87 304.362 167.007C302.58 167.144 301.025 165.808 300.888 164.02C300.751 162.234 302.086 160.675 303.867 160.538C305.649 160.401 307.205 161.738 307.342 163.524Z" fill="#063844"/>
<path d="M312.381 169.044C312.517 170.831 311.183 172.39 309.401 172.527C307.619 172.664 306.064 171.327 305.927 169.54C305.79 167.754 307.124 166.195 308.906 166.058C310.688 165.921 312.243 167.257 312.381 169.044Z" fill="#063844"/>
<path d="M314.76 175.754C314.896 177.541 313.563 179.1 311.78 179.237C309.998 179.374 308.443 178.037 308.307 176.25C308.169 174.464 309.503 172.904 311.286 172.767C313.068 172.63 314.623 173.968 314.76 175.754Z" fill="#063844"/>
<path d="M-30.3805 112.714L101.101 60.5779L86.069 26.0041L-58.6846 60.9327L-30.3805 112.714Z" fill="#07AED8"/>
<path d="M53.0547 32.2687L66.6336 29.3012C74.1539 41.119 69.1858 74.2956 69.1858 74.2956L54.845 80.3093L53.0547 32.2687Z" fill="white"/>
<path d="M56.7673 32.7538C61.6726 53.3929 58.568 81.0793 58.568 81.0793C58.646 83.1726 57.419 85.0945 55.4883 85.9056L-26.1085 120.174L-29.0117 42.2626L50.8541 27.988C53.8635 27.4504 56.0603 29.7795 56.7673 32.7538Z" fill="#063844"/>
<path d="M234.089 53.1887C228.136 46.126 215.481 32.1107 198.882 19.2729L171.238 17.9315L220.595 58.5257C223.887 61.2325 228.466 61.8696 232.398 60.1667H232.399C235.186 58.9598 236.029 55.4903 234.089 53.1887Z" fill="#0588A9"/>
<path d="M215.45 64.21C210.186 57.2004 198.944 43.2463 183.897 30.2048L157.748 27.4933L202.359 68.5693C205.335 71.309 209.644 72.1517 213.467 70.7405C216.176 69.7412 217.166 66.4941 215.45 64.21Z" fill="#0588A9"/>
<path d="M189.201 61.5627C183.937 54.5537 172.696 40.5997 157.648 27.5581L131.5 24.8453L176.111 65.922C179.087 68.6617 183.396 69.5044 187.218 68.0939C189.928 67.0939 190.917 63.8468 189.201 61.5627Z" fill="#0588A9"/>
<path d="M142.705 51.0969L183.788 43.2439L196.123 22.2459L173.45 10.6418L133.321 28.7119L142.705 51.0969Z" fill="#0588A9"/>
<path d="M140.907 38.1636L165.833 24.3816C167.861 23.0255 170.257 22.2977 172.712 22.293L180.812 22.2769C182.404 22.2735 183.982 22.5752 185.456 23.1639L236.315 43.463C236.315 43.463 251.062 49.2926 256.608 37.1448C257.147 35.9655 256.607 34.5657 255.424 33.9925L189.244 4.02536C189.244 4.02536 171.058 -4.24026 148.057 2.92057C125.056 10.0807 86.0695 26.0051 86.0695 26.0051L75.1475 39.4787L89.246 55.4602L140.907 38.1636Z" fill="#07AED8"/>
<path d="M101.103 60.5779C101.103 60.5779 115.792 70.2815 135.669 64.6791L191.616 50.135C196.556 48.8508 199.666 44.0762 198.774 39.1505C197.867 34.1488 193.147 31.4063 187.991 31.9782L160.233 34.3436C160.233 34.3436 116.018 24.5405 94.5789 38.799L82.9258 52.7296L101.103 60.5779Z" fill="#07AED8"/>
<path d="M157.29 32.5849C157.268 32.5816 152.544 31.7496 145.908 31.749C141.699 31.7496 136.719 32.0836 131.679 33.1823C131.394 33.2448 131.213 33.5271 131.275 33.8127C131.337 34.0983 131.62 34.279 131.905 34.2165C136.846 33.1386 141.755 32.8074 145.908 32.8074C149.182 32.8074 151.987 33.013 153.97 33.2186C154.962 33.3215 155.749 33.4236 156.286 33.5002C156.555 33.5392 156.761 33.5708 156.9 33.5929C157.038 33.6151 157.106 33.6272 157.106 33.6272C157.394 33.6783 157.668 33.4861 157.719 33.1978C157.77 32.9102 157.578 32.6353 157.29 32.5849Z" fill="#0588A9"/>
<path d="M100.902 59.9162L89.4547 54.9737C89.1865 54.8574 88.8754 54.9811 88.7591 55.2492C88.6436 55.518 88.7672 55.8291 89.0353 55.9454L100.483 60.8879C100.751 61.0035 101.062 60.8799 101.178 60.6118C101.294 60.3436 101.17 60.0318 100.902 59.9162Z" fill="#0588A9"/>
<path d="M158.039 375.294L90.8516 259.176L59.0078 276.86L106.113 412.802L158.039 375.294Z" fill="#23C7ED"/>
<path d="M62.2695 303.645L79.8435 354.167L153.579 353.614L119.765 296.142L62.2695 303.645Z" fill="#DF6342"/>
<path d="M71.3308 131.978C65.0953 138.362 52.7982 151.841 42.0029 169.003L43.2942 195.712L77.7228 144.457C80.0197 141.038 80.2045 136.575 78.1993 132.952C76.778 130.384 73.3629 129.897 71.3308 131.978Z" fill="#13AACD"/>
<path d="M83.6713 148.873C77.4223 154.589 65.0535 166.704 53.9165 182.392L53.75 207.791L89.0856 161.055C91.4429 157.937 91.8508 153.715 90.1372 150.17C88.9223 147.658 85.7081 147.01 83.6713 148.873Z" fill="#13AACD"/>
<path d="M83.5736 174.364C77.3247 180.08 64.9559 192.194 53.8187 207.883L53.6523 233.282L88.9879 186.546C91.3453 183.428 91.7532 179.205 90.0396 175.661C88.8246 173.149 85.6098 172.501 83.5736 174.364Z" fill="#13AACD"/>
<path d="M77.8531 220.055L66.4647 181.281L45.1201 171.38L36.0771 194.267L57.2019 231.17L77.8531 220.055Z" fill="#13AACD"/>
<path d="M65.5842 222.989L50.0028 200.307C48.5094 198.484 47.5857 196.247 47.3518 193.886L46.5801 186.098C46.4286 184.568 46.5709 183.022 46.999 181.549L61.7712 130.745C61.7712 130.745 66.0002 116.019 53.8009 111.82C52.616 111.412 51.3206 112.062 50.8795 113.253L28.2411 179.694C28.2411 179.694 21.9906 197.954 31.0243 219.404C40.0574 240.855 59.0123 276.86 59.0123 276.86L72.989 286.105L87.0412 271.055L65.5842 222.989Z" fill="#23C7ED"/>
<path d="M90.8523 259.176C90.8523 259.176 98.8128 244.144 91.5693 225.552L72.3582 173.109C70.6621 168.479 65.7807 165.933 61.1269 167.252C56.4016 168.59 54.2055 173.386 55.2361 178.29L60.1029 204.763C60.1029 204.763 54.8043 248.198 70.5183 267.484L85.0032 277.39L90.8523 259.176Z" fill="#23C7ED"/>
<path d="M58.6809 207.759C58.6801 207.771 58.5762 209.11 58.5762 211.336C58.577 215.883 59.0065 224.129 61.6474 232.334C61.7351 232.607 62.027 232.756 62.2993 232.669C62.5712 232.581 62.7208 232.289 62.6334 232.017C60.0417 223.973 59.6107 215.817 59.6118 211.336C59.6118 210.239 59.6372 209.362 59.6629 208.761C59.6756 208.46 59.6884 208.228 59.6979 208.073C59.7073 207.917 59.7133 207.84 59.7133 207.84C59.7354 207.554 59.5225 207.306 59.2372 207.283C58.9524 207.261 58.703 207.474 58.6809 207.759Z" fill="#13AACD"/>
<path d="M90.2322 259.427L86.5483 270.897C86.461 271.169 86.6108 271.46 86.883 271.548C87.1552 271.636 87.4468 271.486 87.5348 271.213L91.2181 259.743C91.3061 259.471 91.1562 259.18 90.8834 259.092C90.6112 259.005 90.3196 259.155 90.2322 259.427Z" fill="#13AACD"/>
</g>
<defs>
<linearGradient id="paint0_linear_3992_7305" x1="111.809" y1="143.339" x2="139.713" y2="138.693" gradientUnits="userSpaceOnUse">
<stop stop-color="#FEC88B"/>
<stop offset="0.1462" stop-color="#FDC47E"/>
<stop offset="0.4164" stop-color="#FC8F5C"/>
<stop offset="0.778" stop-color="#FB5B25"/>
<stop offset="1" stop-color="#FA3A00"/>
</linearGradient>
<linearGradient id="paint1_linear_3992_7305" x1="138.714" y1="111.291" x2="147.758" y2="145.044" gradientUnits="userSpaceOnUse">
<stop stop-color="#FEC88B"/>
<stop offset="0.1462" stop-color="#FDC47E"/>
<stop offset="0.4164" stop-color="#FC8F5C"/>
<stop offset="0.778" stop-color="#FB5B25"/>
<stop offset="1" stop-color="#FA3A00"/>
</linearGradient>
<linearGradient id="paint2_linear_3992_7305" x1="181.963" y1="115.329" x2="224.112" y2="138.309" gradientUnits="userSpaceOnUse">
<stop stop-color="#FEC88B"/>
<stop offset="0.1462" stop-color="#FDC47E"/>
<stop offset="0.4164" stop-color="#FC8F5C"/>
<stop offset="0.778" stop-color="#FB5B25"/>
<stop offset="1" stop-color="#FA3A00"/>
</linearGradient>
<linearGradient id="paint3_linear_3992_7305" x1="152.883" y1="143.085" x2="203.555" y2="172.329" gradientUnits="userSpaceOnUse">
<stop stop-color="#FECA8B"/>
<stop offset="0.1462" stop-color="#FDC27E"/>
<stop offset="0.4164" stop-color="#FCA75C"/>
<stop offset="0.778" stop-color="#FB6225"/>
<stop offset="1" stop-color="#FA2A00"/>
</linearGradient>
<linearGradient id="paint4_linear_3992_7305" x1="137.754" y1="122.415" x2="195.219" y2="189.595" gradientUnits="userSpaceOnUse">
<stop stop-color="#FE9413" stop-opacity="0"/>
<stop offset="0.1837" stop-color="#FD4B15" stop-opacity="0.184"/>
<stop offset="0.3944" stop-color="#FA501C" stop-opacity="0.394"/>
<stop offset="0.6184" stop-color="#F55B28" stop-opacity="0.618"/>
<stop offset="0.8502" stop-color="#EE6638" stop-opacity="0.85"/>
<stop offset="1" stop-color="#E96D44"/>
</linearGradient>
<linearGradient id="paint5_linear_3992_7305" x1="196.959" y1="184.639" x2="222.49" y2="192.751" gradientUnits="userSpaceOnUse">
<stop stop-color="#FECA8B"/>
<stop offset="0.1462" stop-color="#FDC27E"/>
<stop offset="0.4164" stop-color="#FCA75C"/>
<stop offset="0.778" stop-color="#FB6225"/>
<stop offset="1" stop-color="#FA2A00"/>
</linearGradient>
<linearGradient id="paint6_linear_3992_7305" x1="189.365" y1="158.689" x2="228.969" y2="200.071" gradientUnits="userSpaceOnUse">
<stop stop-color="#FE9413" stop-opacity="0"/>
<stop offset="0.1837" stop-color="#FD4B15" stop-opacity="0.184"/>
<stop offset="0.3944" stop-color="#FA501C" stop-opacity="0.394"/>
<stop offset="0.6184" stop-color="#F55B28" stop-opacity="0.618"/>
<stop offset="0.8502" stop-color="#EE6638" stop-opacity="0.85"/>
<stop offset="1" stop-color="#E96D44"/>
</linearGradient>
<linearGradient id="paint7_linear_3992_7305" x1="131.401" y1="191.576" x2="160.14" y2="173.379" gradientUnits="userSpaceOnUse">
<stop stop-color="#FECA8B"/>
<stop offset="0.1462" stop-color="#FDC27E"/>
<stop offset="0.4164" stop-color="#FCA75C"/>
<stop offset="0.778" stop-color="#FB6225"/>
<stop offset="1" stop-color="#FA2A00"/>
</linearGradient>
<linearGradient id="paint8_linear_3992_7305" x1="120.221" y1="171.285" x2="159.129" y2="218.855" gradientUnits="userSpaceOnUse">
<stop stop-color="#FE9413" stop-opacity="0"/>
<stop offset="0.1837" stop-color="#FD4B15" stop-opacity="0.184"/>
<stop offset="0.3944" stop-color="#FA501C" stop-opacity="0.394"/>
<stop offset="0.6184" stop-color="#F55B28" stop-opacity="0.618"/>
<stop offset="0.8502" stop-color="#EE6638" stop-opacity="0.85"/>
<stop offset="1" stop-color="#E96D44"/>
</linearGradient>
<clipPath id="clip0_3992_7305">
<rect width="336" height="336" fill="white"/>
</clipPath>
</defs>
</svg>
