<svg width="32" height="32" viewBox="0 0 32 32" fill="none" xmlns="http://www.w3.org/2000/svg">
<g clip-path="url(#clip0_4513_2426)">
<path d="M19.8457 30.6499H12.1582C13.752 29.1499 13.9332 27.5437 13.702 25.4562C15.277 25.2062 16.7332 25.2062 18.302 25.4562C18.0707 27.5562 18.252 29.1437 19.8457 30.6499Z" fill="url(#paint0_linear_4513_2426)"/>
<path d="M19.8457 30.6499H12.1582C13.752 29.1499 13.9332 27.5437 13.702 25.4562C15.277 25.2062 16.7332 25.2062 18.302 25.4562C18.0707 27.5562 18.252 29.1437 19.8457 30.6499Z" fill="url(#paint1_linear_4513_2426)"/>
<path d="M32 21.6563V24.85C32 25.9375 31.1187 26.8188 30.0312 26.8188H1.96875C0.88125 26.8188 0 25.9375 0 24.85V21.6563L16 18.2438L32 21.6563Z" fill="url(#paint2_linear_4513_2426)"/>
<path d="M32 21.6563V24.85C32 25.9375 31.1187 26.8188 30.0312 26.8188H1.96875C0.88125 26.8188 0 25.9375 0 24.85V21.6563L16 18.2438L32 21.6563Z" fill="url(#paint3_linear_4513_2426)"/>
<path d="M20.6934 26.8188H30.0309C31.1184 26.8188 31.9996 25.9375 31.9996 24.85V21.6563L20.6934 19.2438V26.8188Z" fill="url(#paint4_linear_4513_2426)"/>
<path d="M30.0312 4.85632H1.96875C0.88125 4.85632 0 5.73757 0 6.83132V21.6563H32V6.83132C32 5.73757 31.1187 4.85632 30.0312 4.85632Z" fill="url(#paint5_linear_4513_2426)"/>
<path d="M30.0309 4.8562H20.6934V21.65H31.9996V6.8312C31.9996 5.73745 31.1184 4.8562 30.0309 4.8562Z" fill="url(#paint6_linear_4513_2426)"/>
<path d="M0 13.6249H32V21.6561H0V13.6249Z" fill="url(#paint7_linear_4513_2426)"/>
<path d="M19.5 31.9996H12.5C11.8438 31.9996 11.3125 31.4684 11.3125 30.8121C11.3125 30.1559 11.8438 29.6246 12.5 29.6246H19.5C20.1563 29.6246 20.6875 30.1559 20.6875 30.8121C20.6938 31.4684 20.1625 31.9996 19.5 31.9996Z" fill="url(#paint8_linear_4513_2426)"/>
<path d="M19.5 31.9996H12.5C11.8438 31.9996 11.3125 31.4684 11.3125 30.8121C11.3125 30.1559 11.8438 29.6246 12.5 29.6246H19.5C20.1563 29.6246 20.6875 30.1559 20.6875 30.8121C20.6938 31.4684 20.1625 31.9996 19.5 31.9996Z" fill="url(#paint9_linear_4513_2426)"/>
<path d="M19.5 29.6185H16V31.9998H19.5C20.1562 31.9998 20.6875 31.4685 20.6875 30.8123C20.6875 30.156 20.1625 29.6185 19.5 29.6185Z" fill="url(#paint10_linear_4513_2426)"/>
<path d="M2.8998 24.9247C3.24843 24.9247 3.53105 24.6421 3.53105 24.2935C3.53105 23.9449 3.24843 23.6622 2.8998 23.6622C2.55118 23.6622 2.26855 23.9449 2.26855 24.2935C2.26855 24.6421 2.55118 24.9247 2.8998 24.9247Z" fill="url(#paint11_linear_4513_2426)"/>
<path d="M16.2238 17.6397C19.0474 17.6397 21.3363 15.3507 21.3363 12.5272C21.3363 9.70362 19.0474 7.41467 16.2238 7.41467C13.4003 7.41467 11.1113 9.70362 11.1113 12.5272C11.1113 15.3507 13.4003 17.6397 16.2238 17.6397Z" fill="url(#paint12_linear_4513_2426)"/>
<path d="M16.224 16.6585C18.5056 16.6585 20.3553 14.8089 20.3553 12.5272C20.3553 10.2456 18.5056 8.396 16.224 8.396C13.9424 8.396 12.0928 10.2456 12.0928 12.5272C12.0928 14.8089 13.9424 16.6585 16.224 16.6585Z" fill="url(#paint13_linear_4513_2426)"/>
<path d="M12.8475 12.5272C12.8475 10.3772 14.4975 8.6085 16.5975 8.41475C16.4725 8.40225 16.3475 8.396 16.2162 8.396C13.935 8.396 12.085 10.246 12.085 12.5272C12.085 14.8085 13.935 16.6585 16.2162 16.6585C16.3412 16.6585 16.4725 16.6522 16.5975 16.6397C14.4975 16.446 12.8475 14.6772 12.8475 12.5272Z" fill="url(#paint14_linear_4513_2426)"/>
<path d="M11.1113 12.5272C11.1113 15.3522 13.3988 17.6397 16.2238 17.6397C19.0488 17.6397 21.3363 15.3522 21.3363 12.5272C21.3363 12.1585 21.2988 11.8022 21.2238 11.4585H11.2238C11.1488 11.8022 11.1113 12.1585 11.1113 12.5272Z" fill="url(#paint15_linear_4513_2426)"/>
<path d="M16.224 17.6397C19.049 17.6397 21.3365 15.3522 21.3365 12.5272C21.3365 9.70217 19.049 7.41467 16.224 7.41467C15.8553 7.41467 15.499 7.45217 15.1553 7.52717V17.5209C15.499 17.5959 15.8553 17.6397 16.224 17.6397Z" fill="url(#paint16_linear_4513_2426)"/>
<path d="M12.6047 16.1397C14.5984 18.1335 17.8359 18.1335 19.8297 16.1397C21.8234 14.146 21.8234 10.9085 19.8297 8.91475C19.5672 8.65225 19.2859 8.42725 18.9922 8.23975L11.9297 15.3022C12.1234 15.6022 12.3484 15.8835 12.6047 16.1397Z" fill="url(#paint17_linear_4513_2426)"/>
<path d="M20.812 15.6146C21.2995 15.6146 21.6433 16.1021 21.4808 16.5584C20.8808 18.2021 18.7558 19.4209 16.2245 19.4209C13.6933 19.4209 11.5683 18.2021 10.9683 16.5584C10.7995 16.1021 11.1433 15.6146 11.637 15.6146H20.812Z" fill="url(#paint18_linear_4513_2426)"/>
<path d="M20.8117 15.6146H14.0742V19.1084C14.7305 19.3084 15.4617 19.4209 16.2242 19.4209C18.7555 19.4209 20.8805 18.2021 21.4805 16.5584C21.643 16.0959 21.2992 15.6146 20.8117 15.6146Z" fill="url(#paint19_linear_4513_2426)"/>
</g>
<defs>
<linearGradient id="paint0_linear_4513_2426" x1="14.4259" y1="27.9572" x2="17.838" y2="27.9572" gradientUnits="userSpaceOnUse">
<stop stop-color="#EAFAFF"/>
<stop offset="0.2651" stop-color="#E5F8FE"/>
<stop offset="0.5398" stop-color="#D9F5FE"/>
<stop offset="0.8179" stop-color="#C4F0FE"/>
<stop offset="1" stop-color="#B3EBFE"/>
</linearGradient>
<linearGradient id="paint1_linear_4513_2426" x1="16.002" y1="28.9693" x2="16.002" y2="26.7663" gradientUnits="userSpaceOnUse">
<stop stop-color="#8AE1FE" stop-opacity="0"/>
<stop offset="0.1291" stop-color="#89E0FD" stop-opacity="0.019"/>
<stop offset="0.2629" stop-color="#88DEFB" stop-opacity="0.075"/>
<stop offset="0.3989" stop-color="#87DCF8" stop-opacity="0.168"/>
<stop offset="0.5365" stop-color="#85D8F4" stop-opacity="0.298"/>
<stop offset="0.6753" stop-color="#83D4EF" stop-opacity="0.466"/>
<stop offset="0.8151" stop-color="#7FCFE9" stop-opacity="0.672"/>
<stop offset="0.9532" stop-color="#7CC8E1" stop-opacity="0.911"/>
<stop offset="1" stop-color="#7BC6DF"/>
</linearGradient>
<linearGradient id="paint2_linear_4513_2426" x1="14.7657" y1="18.3527" x2="17.2409" y2="28.4187" gradientUnits="userSpaceOnUse">
<stop stop-color="#EAF6FF"/>
<stop offset="0.2651" stop-color="#E5F3FE"/>
<stop offset="0.5398" stop-color="#D9EDFE"/>
<stop offset="0.8179" stop-color="#C4E3FE"/>
<stop offset="1" stop-color="#B3DAFE"/>
</linearGradient>
<linearGradient id="paint3_linear_4513_2426" x1="16" y1="24.5873" x2="16" y2="26.7875" gradientUnits="userSpaceOnUse">
<stop stop-color="#8AE1FE" stop-opacity="0"/>
<stop offset="0.1291" stop-color="#89E0FD" stop-opacity="0.019"/>
<stop offset="0.2629" stop-color="#88DEFB" stop-opacity="0.075"/>
<stop offset="0.3989" stop-color="#87DCF8" stop-opacity="0.168"/>
<stop offset="0.5365" stop-color="#85D8F4" stop-opacity="0.298"/>
<stop offset="0.6753" stop-color="#83D4EF" stop-opacity="0.466"/>
<stop offset="0.8151" stop-color="#7FCFE9" stop-opacity="0.672"/>
<stop offset="0.9532" stop-color="#7CC8E1" stop-opacity="0.911"/>
<stop offset="1" stop-color="#7BCEDF"/>
</linearGradient>
<linearGradient id="paint4_linear_4513_2426" x1="29.4125" y1="23.0323" x2="32.1218" y2="23.0323" gradientUnits="userSpaceOnUse">
<stop stop-color="#8AE1FE" stop-opacity="0"/>
<stop offset="0.1291" stop-color="#89E0FD" stop-opacity="0.019"/>
<stop offset="0.2629" stop-color="#88DEFB" stop-opacity="0.075"/>
<stop offset="0.3989" stop-color="#87DCF8" stop-opacity="0.168"/>
<stop offset="0.5365" stop-color="#85D8F4" stop-opacity="0.298"/>
<stop offset="0.6753" stop-color="#83D4EF" stop-opacity="0.466"/>
<stop offset="0.8151" stop-color="#7FCFE9" stop-opacity="0.672"/>
<stop offset="0.9532" stop-color="#7CC8E1" stop-opacity="0.911"/>
<stop offset="1" stop-color="#7BC6DF"/>
</linearGradient>
<linearGradient id="paint5_linear_4513_2426" x1="13.6894" y1="7.10501" x2="19.3549" y2="24.2117" gradientUnits="userSpaceOnUse">
<stop stop-color="#1DCAF5"/>
<stop offset="0.2729" stop-color="#1BC2EF"/>
<stop offset="0.5557" stop-color="#10B8EB"/>
<stop offset="0.8419" stop-color="#09B1E4"/>
<stop offset="1" stop-color="#03A7D9"/>
</linearGradient>
<linearGradient id="paint6_linear_4513_2426" x1="29.4125" y1="13.2558" x2="32.348" y2="13.2558" gradientUnits="userSpaceOnUse">
<stop stop-color="#01D6FC" stop-opacity="0"/>
<stop offset="0.192" stop-color="#01C0F5" stop-opacity="0.04"/>
<stop offset="0.5932" stop-color="#01B2C6" stop-opacity="0.362"/>
<stop offset="0.656885" stop-color="#019BE3" stop-opacity="0.161"/>
<stop offset="0.7966" stop-color="#01709C" stop-opacity="0.643"/>
<stop offset="1" stop-color="#025167"/>
</linearGradient>
<linearGradient id="paint7_linear_4513_2426" x1="16" y1="19.1233" x2="16" y2="22.2821" gradientUnits="userSpaceOnUse">
<stop stop-color="#0182FC" stop-opacity="0"/>
<stop offset="0.192" stop-color="#017FF5" stop-opacity="0.04"/>
<stop offset="0.391" stop-color="#0179E3" stop-opacity="0.161"/>
<stop offset="0.5932" stop-color="#016EC6" stop-opacity="0.362"/>
<stop offset="0.7966" stop-color="#015F9C" stop-opacity="0.643"/>
<stop offset="1" stop-color="#024C67"/>
</linearGradient>
<linearGradient id="paint8_linear_4513_2426" x1="16" y1="29.7666" x2="16" y2="31.9134" gradientUnits="userSpaceOnUse">
<stop stop-color="#EAF6FF"/>
<stop offset="0.2651" stop-color="#E5F3FE"/>
<stop offset="0.5398" stop-color="#D9EDFE"/>
<stop offset="0.8179" stop-color="#C4E3FE"/>
<stop offset="1" stop-color="#B3DAFE"/>
</linearGradient>
<linearGradient id="paint9_linear_4513_2426" x1="16" y1="30.8117" x2="16" y2="31.9943" gradientUnits="userSpaceOnUse">
<stop stop-color="#8AC9FE" stop-opacity="0"/>
<stop offset="0.1291" stop-color="#89C8FD" stop-opacity="0.019"/>
<stop offset="0.2629" stop-color="#88C6FB" stop-opacity="0.075"/>
<stop offset="0.3989" stop-color="#87C4F8" stop-opacity="0.168"/>
<stop offset="0.5365" stop-color="#85C0F4" stop-opacity="0.298"/>
<stop offset="0.6753" stop-color="#83BBEF" stop-opacity="0.466"/>
<stop offset="0.8151" stop-color="#7FB5E9" stop-opacity="0.672"/>
<stop offset="0.9532" stop-color="#7CAEE1" stop-opacity="0.911"/>
<stop offset="1" stop-color="#7BACDF"/>
</linearGradient>
<linearGradient id="paint10_linear_4513_2426" x1="18.456" y1="31.1057" x2="20.2161" y2="32.0408" gradientUnits="userSpaceOnUse">
<stop stop-color="#8AC9FE" stop-opacity="0"/>
<stop offset="0.1291" stop-color="#89C8FD" stop-opacity="0.019"/>
<stop offset="0.2629" stop-color="#88C6FB" stop-opacity="0.075"/>
<stop offset="0.3989" stop-color="#87C4F8" stop-opacity="0.168"/>
<stop offset="0.5365" stop-color="#85C0F4" stop-opacity="0.298"/>
<stop offset="0.6753" stop-color="#83BBEF" stop-opacity="0.466"/>
<stop offset="0.8151" stop-color="#7FB5E9" stop-opacity="0.672"/>
<stop offset="0.9532" stop-color="#7CAEE1" stop-opacity="0.911"/>
<stop offset="1" stop-color="#7BACDF"/>
</linearGradient>
<linearGradient id="paint11_linear_4513_2426" x1="2.40505" y1="23.7986" x2="3.36193" y2="24.7555" gradientUnits="userSpaceOnUse">
<stop stop-color="#00F2A6"/>
<stop offset="0.2453" stop-color="#00EDA3"/>
<stop offset="0.4994" stop-color="#01E19A"/>
<stop offset="0.7566" stop-color="#04CC8C"/>
<stop offset="1" stop-color="#07B27B"/>
</linearGradient>
<linearGradient id="paint12_linear_4513_2426" x1="15.5016" y1="9.83393" x2="18.4272" y2="20.7528" gradientUnits="userSpaceOnUse">
<stop stop-color="#FEC88B"/>
<stop offset="0.1462" stop-color="#FDC47E"/>
<stop offset="0.4164" stop-color="#FC8F5C"/>
<stop offset="0.778" stop-color="#FB5B25"/>
<stop offset="1" stop-color="#FA3A00"/>
</linearGradient>
<linearGradient id="paint13_linear_4513_2426" x1="13.9999" y1="2.83737" x2="19.03" y2="24.7583" gradientUnits="userSpaceOnUse">
<stop stop-color="#FE9413" stop-opacity="0"/>
<stop offset="0.1837" stop-color="#FD4B15" stop-opacity="0.184"/>
<stop offset="0.3944" stop-color="#FA541C" stop-opacity="0.394"/>
<stop offset="0.6184" stop-color="#F55B28" stop-opacity="0.618"/>
<stop offset="0.8502" stop-color="#EE6638" stop-opacity="0.85"/>
<stop offset="1" stop-color="#E96D44"/>
</linearGradient>
<linearGradient id="paint14_linear_4513_2426" x1="7.87746" y1="4.85968" x2="20.0604" y2="17.0426" gradientUnits="userSpaceOnUse">
<stop stop-color="#FE9738" stop-opacity="0"/>
<stop offset="0.1207" stop-color="#FE8138" stop-opacity="0.016"/>
<stop offset="0.2459" stop-color="#FE7038" stop-opacity="0.065"/>
<stop offset="0.3731" stop-color="#FE6A38" stop-opacity="0.147"/>
<stop offset="0.5018" stop-color="#FE6638" stop-opacity="0.262"/>
<stop offset="0.6317" stop-color="#FE6D38" stop-opacity="0.41"/>
<stop offset="0.7625" stop-color="#FE7338" stop-opacity="0.59"/>
<stop offset="0.8916" stop-color="#FE7338" stop-opacity="0.8"/>
<stop offset="1" stop-color="#FE7338"/>
</linearGradient>
<linearGradient id="paint15_linear_4513_2426" x1="16.2213" y1="14.0444" x2="16.2213" y2="15.6063" gradientUnits="userSpaceOnUse">
<stop stop-color="#FE9738" stop-opacity="0"/>
<stop offset="0.1207" stop-color="#FE9738" stop-opacity="0.016"/>
<stop offset="0.2459" stop-color="#FE9738" stop-opacity="0.065"/>
<stop offset="0.3731" stop-color="#FE9738" stop-opacity="0.147"/>
<stop offset="0.5018" stop-color="#FE9738" stop-opacity="0.262"/>
<stop offset="0.6317" stop-color="#FE9738" stop-opacity="0.41"/>
<stop offset="0.7625" stop-color="#FE9738" stop-opacity="0.59"/>
<stop offset="0.8916" stop-color="#FE9738" stop-opacity="0.8"/>
<stop offset="1" stop-color="#FE9738"/>
</linearGradient>
<linearGradient id="paint16_linear_4513_2426" x1="17.0161" y1="12.5274" x2="21.6781" y2="12.5274" gradientUnits="userSpaceOnUse">
<stop stop-color="#FE9738" stop-opacity="0"/>
<stop offset="0.1207" stop-color="#FE9738" stop-opacity="0.016"/>
<stop offset="0.2459" stop-color="#FE9738" stop-opacity="0.065"/>
<stop offset="0.3731" stop-color="#FE9738" stop-opacity="0.147"/>
<stop offset="0.5018" stop-color="#FE9738" stop-opacity="0.262"/>
<stop offset="0.6317" stop-color="#FE9738" stop-opacity="0.41"/>
<stop offset="0.7625" stop-color="#FE9738" stop-opacity="0.59"/>
<stop offset="0.8916" stop-color="#FE9738" stop-opacity="0.8"/>
<stop offset="1" stop-color="#FE9738"/>
</linearGradient>
<linearGradient id="paint17_linear_4513_2426" x1="15.9996" y1="13.4691" x2="20.0284" y2="17.4411" gradientUnits="userSpaceOnUse">
<stop stop-color="#FE9013" stop-opacity="0"/>
<stop offset="0.1837" stop-color="#FD7215" stop-opacity="0.184"/>
<stop offset="0.3944" stop-color="#FA571C" stop-opacity="0.394"/>
<stop offset="0.6184" stop-color="#F56928" stop-opacity="0.618"/>
<stop offset="0.8502" stop-color="#EE5D38" stop-opacity="0.85"/>
<stop offset="1" stop-color="#E94444"/>
</linearGradient>
<linearGradient id="paint18_linear_4513_2426" x1="16.2219" y1="15.871" x2="16.2219" y2="18.6779" gradientUnits="userSpaceOnUse">
<stop stop-color="#EAF6FF"/>
<stop offset="0.2651" stop-color="#E5F3FE"/>
<stop offset="0.5398" stop-color="#D9EDFE"/>
<stop offset="0.8179" stop-color="#C4E3FE"/>
<stop offset="1" stop-color="#B3DAFE"/>
</linearGradient>
<linearGradient id="paint19_linear_4513_2426" x1="17.62" y1="17.3937" x2="19.4467" y2="19.1314" gradientUnits="userSpaceOnUse">
<stop stop-color="#8AC9FE" stop-opacity="0"/>
<stop offset="0.1291" stop-color="#89C8FD" stop-opacity="0.019"/>
<stop offset="0.2629" stop-color="#88C6FB" stop-opacity="0.075"/>
<stop offset="0.3989" stop-color="#87C4F8" stop-opacity="0.168"/>
<stop offset="0.5365" stop-color="#85C0F4" stop-opacity="0.298"/>
<stop offset="0.6753" stop-color="#83BBEF" stop-opacity="0.466"/>
<stop offset="0.8151" stop-color="#7FB5E9" stop-opacity="0.672"/>
<stop offset="0.9532" stop-color="#7CAEE1" stop-opacity="0.911"/>
<stop offset="1" stop-color="#7BACDF"/>
</linearGradient>
<clipPath id="clip0_4513_2426">
<rect width="32" height="32" fill="white"/>
</clipPath>
</defs>
</svg>
