<svg width="32" height="32" viewBox="0 0 32 32" fill="none" xmlns="http://www.w3.org/2000/svg">
<g clip-path="url(#clip0_4513_4540)">
<path d="M16.4944 17.6144C16.2101 17.6695 15.9662 17.826 15.8314 18.0696L14.7357 20.0475C14.3327 20.7746 13.7129 21.363 12.9453 21.7659C14.1445 22.4097 15.5695 22.208 16.2362 21.2938C16.4057 21.0613 16.562 20.8189 16.7041 20.5673L17.6589 18.8762C17.8318 18.57 17.7898 18.1979 17.5864 17.8867C17.5263 17.841 17.4623 17.7994 17.393 17.7627C17.0983 17.605 16.7762 17.5599 16.4944 17.6144Z" fill="url(#paint0_linear_4513_4540)"/>
<path d="M16.4944 17.6144C16.2101 17.6695 15.9662 17.826 15.8314 18.0696L14.7357 20.0475C14.3327 20.7746 13.7129 21.363 12.9453 21.7659C14.1445 22.4097 15.5695 22.208 16.2362 21.2938C16.4057 21.0613 16.562 20.8189 16.7041 20.5673L17.6589 18.8762C17.8318 18.57 17.7898 18.1979 17.5864 17.8867C17.5263 17.841 17.4623 17.7994 17.393 17.7627C17.0983 17.605 16.7762 17.5599 16.4944 17.6144Z" fill="url(#paint1_linear_4513_4540)"/>
<path d="M21.2268 18.5086L19.1801 20.7253C18.8754 21.055 18.5564 21.3685 18.2243 21.665C16.9185 22.8305 14.9392 22.8094 13.6504 21.6251C14.8528 21.2147 15.9457 20.506 16.8158 19.5513L19.182 16.954C19.4732 16.6342 19.8685 16.4628 20.2703 16.4459C20.6684 16.4291 21.0739 16.5638 21.3908 16.8542C21.3916 16.8549 21.3923 16.8556 21.3931 16.8563C21.5382 16.9884 21.6243 17.1763 21.6352 17.3722C21.6577 17.7754 21.5236 18.1872 21.2268 18.5086Z" fill="url(#paint2_linear_4513_4540)"/>
<path d="M21.2268 18.5086L19.1801 20.7253C18.8754 21.055 18.5564 21.3685 18.2243 21.665C16.9185 22.8305 14.9392 22.8094 13.6504 21.6251C14.8528 21.2147 15.9457 20.506 16.8158 19.5513L19.182 16.954C19.4732 16.6342 19.8685 16.4628 20.2703 16.4459C20.6684 16.4291 21.0739 16.5638 21.3908 16.8542C21.3916 16.8549 21.3923 16.8556 21.3931 16.8563C21.5382 16.9884 21.6243 17.1763 21.6352 17.3722C21.6577 17.7754 21.5236 18.1872 21.2268 18.5086Z" fill="url(#paint3_linear_4513_4540)"/>
<path d="M24.8891 19.7006L21.7069 21.8925C21.2333 22.2186 20.7463 22.5202 20.2478 22.7969C18.2878 23.8847 15.8209 23.3001 14.5449 21.4571C16.1629 21.2835 17.7281 20.7063 19.0844 19.7591L22.7729 17.1817C23.2269 16.8643 23.7691 16.7617 24.2759 16.8538C24.7781 16.9451 25.2466 17.2279 25.5607 17.68C25.5614 17.6811 25.5622 17.6822 25.5629 17.6832C25.7146 17.9002 25.7619 18.1741 25.7131 18.4342C25.6199 18.9298 25.339 19.3907 24.8891 19.7006Z" fill="url(#paint4_linear_4513_4540)"/>
<path d="M10.3556 13.1083C13.3296 13.1083 15.7405 10.6974 15.7405 7.72342C15.7405 4.74941 13.3296 2.3385 10.3556 2.3385C7.38161 2.3385 4.9707 4.74941 4.9707 7.72342C4.9707 10.6974 7.38161 13.1083 10.3556 13.1083Z" fill="url(#paint5_linear_4513_4540)"/>
<path d="M10.3555 11.946C12.6876 11.946 14.5782 10.0554 14.5782 7.72328C14.5782 5.39116 12.6876 3.50061 10.3555 3.50061C8.02337 3.50061 6.13281 5.39116 6.13281 7.72328C6.13281 10.0554 8.02337 11.946 10.3555 11.946Z" fill="url(#paint6_linear_4513_4540)"/>
<path d="M5.15358 9.11701C5.92333 11.9897 8.87606 13.6945 11.7488 12.9247C14.6215 12.155 16.3262 9.20223 15.5565 6.32954C15.5098 6.15555 15.4549 5.98605 15.3927 5.82092L5.04102 8.59467C5.06986 8.76872 5.10694 8.94302 5.15358 9.11701Z" fill="url(#paint7_linear_4513_4540)"/>
<path d="M27.0543 9.9715C29.7853 9.9715 31.9992 7.75759 31.9992 5.02658C31.9992 2.29558 29.7853 0.081665 27.0543 0.081665C24.3233 0.081665 22.1094 2.29558 22.1094 5.02658C22.1094 7.75759 24.3233 9.9715 27.0543 9.9715Z" fill="url(#paint8_linear_4513_4540)"/>
<path d="M27.0534 8.90429C29.195 8.90429 30.931 7.16822 30.931 5.02667C30.931 2.88512 29.195 1.14905 27.0534 1.14905C24.9119 1.14905 23.1758 2.88512 23.1758 5.02667C23.1758 7.16822 24.9119 8.90429 27.0534 8.90429Z" fill="url(#paint9_linear_4513_4540)"/>
<path d="M22.7707 2.55407C21.4052 4.91921 22.2156 7.94348 24.5807 9.309C26.9458 10.6745 29.9701 9.86413 31.3356 7.49905C31.4184 7.35577 31.4927 7.21006 31.5596 7.06248L23.0369 2.14185C22.9425 2.27351 22.8535 2.41079 22.7707 2.55407Z" fill="url(#paint10_linear_4513_4540)"/>
<path d="M18.5431 19.0283C21.5171 19.0283 23.928 16.6174 23.928 13.6433C23.928 10.6693 21.5171 8.25842 18.5431 8.25842C15.5691 8.25842 13.1582 10.6693 13.1582 13.6433C13.1582 16.6174 15.5691 19.0283 18.5431 19.0283Z" fill="url(#paint11_linear_4513_4540)"/>
<path d="M18.543 17.8659C20.8751 17.8659 22.7657 15.9753 22.7657 13.6432C22.7657 11.3111 20.8751 9.42053 18.543 9.42053C16.2109 9.42053 14.3203 11.3111 14.3203 13.6432C14.3203 15.9753 16.2109 17.8659 18.543 17.8659Z" fill="url(#paint12_linear_4513_4540)"/>
<path d="M13.1582 13.6433C13.1582 16.6173 15.5691 19.0282 18.5431 19.0282C21.5171 19.0282 23.928 16.6173 23.928 13.6433C23.928 13.4632 23.9188 13.2852 23.9015 13.1096H13.1847C13.1674 13.2852 13.1582 13.4631 13.1582 13.6433Z" fill="url(#paint13_linear_4513_4540)"/>
<path d="M13.4243 25.4058C16.0101 25.4058 18.1064 24.4819 18.1064 23.3422C18.1064 22.2026 16.0101 21.2787 13.4243 21.2787C10.8384 21.2787 8.74219 22.2026 8.74219 23.3422C8.74219 24.4819 10.8384 25.4058 13.4243 25.4058Z" fill="url(#paint14_linear_4513_4540)"/>
<path d="M13.4243 25.406C16.0101 25.406 18.1064 24.4821 18.1064 23.3425C18.1064 22.2028 16.0101 21.2789 13.4243 21.2789C10.8384 21.2789 8.74219 22.2028 8.74219 23.3425C8.74219 24.4821 10.8384 25.406 13.4243 25.406Z" fill="url(#paint15_linear_4513_4540)"/>
<path d="M26.8933 16.5088C25.9419 15.8594 24.6402 16.1083 23.994 17.0616L22.9877 18.6527C22.9425 18.7192 22.8963 18.7856 22.8492 18.8508C21.5874 20.6211 19.7242 21.8675 17.6275 22.4431C15.8747 22.9232 15.1529 23.0619 12.5272 22.7147C12.0693 22.6546 11.8602 22.2645 12.0629 21.8494L12.1186 21.7354C13.5486 20.4136 14.8539 18.9629 16.0165 17.4035C16.6841 16.5081 16.4752 15.2368 15.5603 14.5967C15.4557 14.5234 15.3458 14.4616 15.2332 14.411C14.4489 14.0593 13.507 14.2524 12.9234 14.9238C11.7668 16.2561 10.3428 17.3372 8.74026 18.0942C8.46863 18.223 8.18407 18.3224 7.89334 18.3994C6.90183 18.6626 4.3813 19.3494 3.60318 19.7296C3.59582 19.7328 3.58889 19.7366 3.58152 19.7398C3.53657 19.7617 3.492 19.784 3.44836 19.8075C2.5053 20.3047 1.77013 21.1221 1.33418 22.0952C0.454674 24.0552 0 26.179 0 28.3272V30.4189C0 31.2478 0.671929 31.9197 1.50081 31.9197H3.38811C4.77873 31.9197 6.12733 31.4429 7.20892 30.5687L8.09268 29.8545C8.58574 29.4314 9.19056 29.1423 9.84982 29.0305L11.8027 28.6991L14.8898 28.1452C19.7215 27.2403 23.9989 24.4593 26.7778 20.4183L27.4336 19.3882C28.0834 18.4438 27.8416 17.1545 26.8933 16.5088Z" fill="url(#paint16_linear_4513_4540)"/>
</g>
<defs>
<linearGradient id="paint0_linear_4513_4540" x1="14.7189" y1="19.019" x2="15.9917" y2="20.8979" gradientUnits="userSpaceOnUse">
<stop stop-color="#CFF5FF"/>
<stop offset="1" stop-color="#8FE9FF"/>
</linearGradient>
<linearGradient id="paint1_linear_4513_4540" x1="13.0807" y1="21.6124" x2="17.1698" y2="18.9591" gradientUnits="userSpaceOnUse">
<stop stop-color="#80E0F8" stop-opacity="0"/>
<stop offset="0.9972" stop-color="#5AB0C5"/>
</linearGradient>
<linearGradient id="paint2_linear_4513_4540" x1="16.8664" y1="17.9537" x2="18.2908" y2="20.6508" gradientUnits="userSpaceOnUse">
<stop stop-color="#CFF5FF"/>
<stop offset="1" stop-color="#8FE9FF"/>
</linearGradient>
<linearGradient id="paint3_linear_4513_4540" x1="17.4384" y1="20.9606" x2="17.8442" y2="18.2762" gradientUnits="userSpaceOnUse">
<stop stop-color="#80E0F8" stop-opacity="0"/>
<stop offset="0.9972" stop-color="#5AB0C5"/>
</linearGradient>
<linearGradient id="paint4_linear_4513_4540" x1="19.6581" y1="18.5613" x2="20.749" y2="21.2584" gradientUnits="userSpaceOnUse">
<stop stop-color="#CFF5FF"/>
<stop offset="1" stop-color="#0BC0ED"/>
</linearGradient>
<linearGradient id="paint5_linear_4513_4540" x1="7.81502" y1="6.25454" x2="18.1286" y2="12.207" gradientUnits="userSpaceOnUse">
<stop stop-color="#FECA8B"/>
<stop offset="0.1462" stop-color="#FDC27E"/>
<stop offset="0.4164" stop-color="#FCA75C"/>
<stop offset="0.778" stop-color="#FB6225"/>
<stop offset="1" stop-color="#FA2A00"/>
</linearGradient>
<linearGradient id="paint6_linear_4513_4540" x1="3.43473" y1="0.282057" x2="19.0908" y2="17.1156" gradientUnits="userSpaceOnUse">
<stop stop-color="#FE9413" stop-opacity="0"/>
<stop offset="0.1837" stop-color="#FD4B15" stop-opacity="0.184"/>
<stop offset="0.3944" stop-color="#FA501C" stop-opacity="0.394"/>
<stop offset="0.6184" stop-color="#F55B28" stop-opacity="0.618"/>
<stop offset="0.8502" stop-color="#EE6638" stop-opacity="0.85"/>
<stop offset="1" stop-color="#E96D44"/>
</linearGradient>
<linearGradient id="paint7_linear_4513_4540" x1="10.8384" y1="9.51258" x2="11.9128" y2="13.5198" gradientUnits="userSpaceOnUse">
<stop stop-color="#FE9413" stop-opacity="0"/>
<stop offset="0.1837" stop-color="#FD8915" stop-opacity="0.184"/>
<stop offset="0.3944" stop-color="#FA871C" stop-opacity="0.394"/>
<stop offset="0.6184" stop-color="#F58828" stop-opacity="0.618"/>
<stop offset="0.8502" stop-color="#EE5D38" stop-opacity="0.85"/>
<stop offset="1" stop-color="#E96244"/>
</linearGradient>
<linearGradient id="paint8_linear_4513_4540" x1="26.3558" y1="2.42162" x2="29.1854" y2="12.9826" gradientUnits="userSpaceOnUse">
<stop stop-color="#FEC88B"/>
<stop offset="0.1462" stop-color="#FDC47E"/>
<stop offset="0.4164" stop-color="#FC8F5C"/>
<stop offset="0.778" stop-color="#FB5B25"/>
<stop offset="1" stop-color="#FA3A00"/>
</linearGradient>
<linearGradient id="paint9_linear_4513_4540" x1="24.9658" y1="-4.06832" x2="29.6871" y2="16.5068" gradientUnits="userSpaceOnUse">
<stop stop-color="#FE9413" stop-opacity="0"/>
<stop offset="0.1837" stop-color="#FD4B15" stop-opacity="0.184"/>
<stop offset="0.3944" stop-color="#FA541C" stop-opacity="0.394"/>
<stop offset="0.6184" stop-color="#F55B28" stop-opacity="0.618"/>
<stop offset="0.8502" stop-color="#EE6638" stop-opacity="0.85"/>
<stop offset="1" stop-color="#E96D44"/>
</linearGradient>
<linearGradient id="paint10_linear_4513_4540" x1="26.202" y1="6.50026" x2="24.2973" y2="9.79913" gradientUnits="userSpaceOnUse">
<stop stop-color="#FE9013" stop-opacity="0"/>
<stop offset="0.1837" stop-color="#FD7215" stop-opacity="0.184"/>
<stop offset="0.3944" stop-color="#FA571C" stop-opacity="0.394"/>
<stop offset="0.6184" stop-color="#F56928" stop-opacity="0.618"/>
<stop offset="0.8502" stop-color="#EE5D38" stop-opacity="0.85"/>
<stop offset="1" stop-color="#E94444"/>
</linearGradient>
<linearGradient id="paint11_linear_4513_4540" x1="16.4663" y1="11.5665" x2="24.8855" y2="19.9857" gradientUnits="userSpaceOnUse">
<stop stop-color="#FEC68B"/>
<stop offset="0.1462" stop-color="#FDC07E"/>
<stop offset="0.4164" stop-color="#FC9F5C"/>
<stop offset="0.778" stop-color="#FBA225"/>
<stop offset="1" stop-color="#FA9200"/>
</linearGradient>
<linearGradient id="paint12_linear_4513_4540" x1="11.6222" y1="6.20198" x2="27.2783" y2="23.0355" gradientUnits="userSpaceOnUse">
<stop stop-color="#FE9413" stop-opacity="0"/>
<stop offset="0.1837" stop-color="#FD4B15" stop-opacity="0.184"/>
<stop offset="0.3944" stop-color="#FA501C" stop-opacity="0.394"/>
<stop offset="0.6184" stop-color="#F55B28" stop-opacity="0.618"/>
<stop offset="0.8502" stop-color="#EE6638" stop-opacity="0.85"/>
<stop offset="1" stop-color="#E96D44"/>
</linearGradient>
<linearGradient id="paint13_linear_4513_4540" x1="18.5432" y1="15.4962" x2="18.5432" y2="19.6444" gradientUnits="userSpaceOnUse">
<stop stop-color="#FEA613" stop-opacity="0"/>
<stop offset="0.1837" stop-color="#FDA215" stop-opacity="0.184"/>
<stop offset="0.3944" stop-color="#FA941C" stop-opacity="0.394"/>
<stop offset="0.6184" stop-color="#F57D28" stop-opacity="0.618"/>
<stop offset="0.8502" stop-color="#EE5D38" stop-opacity="0.85"/>
<stop offset="1" stop-color="#E94444"/>
</linearGradient>
<linearGradient id="paint14_linear_4513_4540" x1="12.7495" y1="21.1951" x2="13.7495" y2="24.3771" gradientUnits="userSpaceOnUse">
<stop stop-color="#CFF5FF"/>
<stop offset="1" stop-color="#04C0EF"/>
</linearGradient>
<linearGradient id="paint15_linear_4513_4540" x1="12.0924" y1="19.4553" x2="15.6717" y2="29.9018" gradientUnits="userSpaceOnUse">
<stop stop-color="#80E0F8" stop-opacity="0"/>
<stop offset="0.9972" stop-color="#5AB0C5"/>
</linearGradient>
<linearGradient id="paint16_linear_4513_4540" x1="10.7353" y1="16.7117" x2="16.2291" y2="29.8219" gradientUnits="userSpaceOnUse">
<stop stop-color="#96EAFF"/>
<stop offset="1" stop-color="#01B0DC"/>
</linearGradient>
<clipPath id="clip0_4513_4540">
<rect width="32" height="32" fill="white"/>
</clipPath>
</defs>
</svg>
