<svg width="32" height="32" viewBox="0 0 32 32" fill="none" xmlns="http://www.w3.org/2000/svg">
<g clip-path="url(#clip0_4513_5434)">
<path d="M15.8934 25.4937C15.8934 25.4937 12.5291 27.1421 12.3421 22.3904C12.3343 22.1922 12.4856 22.0237 12.6834 22.0078C13.6343 21.9314 16.1817 22.0435 15.8934 25.4937Z" fill="url(#paint0_linear_4513_5434)"/>
<path d="M12.6829 22.0078C12.5732 22.0166 12.478 22.0725 12.416 22.1541C13.8633 23.9309 15.8931 25.4939 15.8931 25.4939C16.1812 22.0435 13.6338 21.9314 12.6829 22.0078Z" fill="url(#paint1_linear_4513_5434)"/>
<path d="M15.3374 30.334L14.1926 29.7642L14.7651 30.0491L14.1921 29.7651C14.2009 29.7473 15.0684 27.9656 15.4749 24.9932C15.8496 22.2554 15.8987 17.9143 14.0059 12.7822L15.2056 12.3398C17.2002 17.7476 17.1372 22.3337 16.7334 25.2288C16.2922 28.3892 15.3762 30.2559 15.3374 30.334Z" fill="url(#paint2_linear_4513_5434)"/>
<path d="M15.2056 12.3398L14.0059 12.7822C14.9746 15.4089 15.4338 17.8271 15.6021 19.9304L16.9526 21.2812C16.8923 18.76 16.4485 15.7095 15.2056 12.3398Z" fill="url(#paint3_linear_4513_5434)"/>
<path d="M26.1025 32.0002H6.76953C6.19751 32.0002 5.72583 31.5403 5.72461 30.9683C5.72461 30.9646 5.72461 30.9612 5.72461 30.9575C5.72461 29.5349 6.28003 28.2419 7.18628 27.2842C7.52954 26.9333 7.91479 26.6235 8.33398 26.3638C9.2644 25.7866 10.3618 25.4531 11.5374 25.4531C13.2717 25.4531 14.8357 26.1782 15.9441 27.342C16.2214 27.6328 16.6343 27.7549 17.0229 27.6506C17.2844 27.5801 17.5596 27.5427 17.8438 27.5427C18.7415 27.5427 19.5515 27.918 20.1255 28.5198C20.427 28.8364 20.8867 28.9451 21.2976 28.7959C21.7429 28.6343 22.2234 28.5454 22.7246 28.5454C24.5078 28.5454 26.03 29.6631 26.6294 31.2351C26.77 31.6047 26.4976 32.0002 26.1025 32.0002Z" fill="url(#paint4_linear_4513_5434)"/>
<path d="M16.6491 26.0529C16.6491 26.0529 15.5419 20.5827 22.4604 22.1049C22.7489 22.1684 22.9345 22.4499 22.883 22.7409C22.6344 24.1403 21.5128 27.769 16.6491 26.0529Z" fill="url(#paint5_linear_4513_5434)"/>
<path d="M22.8843 22.7407C22.9128 22.5793 22.8684 22.4211 22.7739 22.3013C19.668 23.7168 16.6504 26.0527 16.6504 26.0527C21.5142 27.7688 22.6357 24.1401 22.8843 22.7407Z" fill="url(#paint6_linear_4513_5434)"/>
<path d="M21.1594 23.8633C21.1023 23.8599 21.0454 23.8523 20.9893 23.8455C20.9329 23.8389 20.8767 23.8325 20.8213 23.823C20.7656 23.8147 20.7109 23.7983 20.6567 23.7832C20.6025 23.7676 20.5481 23.7612 20.4922 23.7632C20.4365 23.7659 20.3809 23.7712 20.3228 23.7822C20.386 23.7378 20.4492 23.6936 20.5127 23.6489L20.8245 23.4353C20.9285 23.3635 21.0354 23.2988 21.1404 23.2285C21.3523 23.0918 21.5679 22.9644 21.793 22.8511L21.7732 22.7961L21.5901 22.8547L21.4978 22.8843C21.4675 22.895 21.4382 22.9075 21.4084 22.9189C21.2905 22.9678 21.1687 23.0122 21.0537 23.0667C20.8193 23.1699 20.5913 23.2844 20.3621 23.3977C20.3186 23.4207 20.2749 23.4436 20.2314 23.4666C20.2476 23.429 20.2607 23.3904 20.2678 23.3491C20.2776 23.2937 20.2866 23.2371 20.3032 23.1833C20.3188 23.1294 20.3372 23.0759 20.3557 23.0225C20.374 22.9688 20.3921 22.9143 20.4138 22.8613C20.4526 22.7527 20.5015 22.6482 20.5486 22.5391L20.5227 22.5195C20.4333 22.5989 20.3494 22.6855 20.2732 22.7793C20.2346 22.8257 20.1992 22.8748 20.1631 22.9238C20.1299 22.9741 20.0962 23.0249 20.0654 23.0774C20.0342 23.1296 19.9995 23.1809 19.967 23.2339C19.9358 23.2874 19.9141 23.345 19.9048 23.4062C19.9031 23.4182 19.9014 23.4304 19.9001 23.4426C19.8865 23.5752 19.8064 23.6921 19.6897 23.7568L19.6875 23.7581C19.4844 23.8706 19.2844 23.9875 19.0833 24.1035C19.1047 24.05 19.1204 23.9976 19.1335 23.9451C19.1462 23.8906 19.1506 23.8359 19.146 23.7798C19.1416 23.7239 19.136 23.6667 19.1387 23.6106C19.1401 23.5542 19.1448 23.498 19.1494 23.4417C19.1538 23.385 19.1572 23.3276 19.165 23.271C19.1755 23.1562 19.1968 23.0427 19.2151 22.9255L19.1851 22.9131C19.1187 23.012 19.0588 23.1172 19.0085 23.2268C18.9827 23.2815 18.9607 23.3379 18.938 23.3943C18.9185 23.4514 18.8987 23.509 18.8821 23.5676C18.8647 23.626 18.844 23.6843 18.8259 23.7437C18.8091 23.8032 18.8022 23.8645 18.8086 23.926C18.8118 23.9534 18.8159 23.9807 18.8215 24.0078C18.8491 24.1409 18.7825 24.2759 18.6641 24.342C18.5623 24.3992 18.4604 24.4558 18.3591 24.5137C18.2305 24.5864 18.1064 24.6658 17.9854 24.7495C18.0027 24.7031 18.0164 24.6572 18.0278 24.6113C18.0405 24.5569 18.0449 24.5024 18.0403 24.4463C18.0359 24.3901 18.0303 24.3333 18.033 24.2771C18.0344 24.2207 18.0391 24.1646 18.0437 24.1079C18.0479 24.0513 18.0515 23.9941 18.0593 23.9375C18.0698 23.8225 18.0911 23.7092 18.1094 23.5918L18.0793 23.5793C18.0129 23.6785 17.9534 23.7834 17.9028 23.8931C17.877 23.9478 17.8552 24.0042 17.8325 24.0605C17.8127 24.1177 17.793 24.1753 17.7764 24.2339C17.759 24.2922 17.7383 24.3506 17.7202 24.4099C17.7034 24.4695 17.6965 24.5305 17.7029 24.5923C17.71 24.6536 17.7222 24.7153 17.7451 24.7756C17.7712 24.845 17.7524 24.9226 17.6956 24.97C17.5481 25.0925 17.2832 25.3159 17.1506 25.4443C16.9673 25.6248 16.7898 25.813 16.6328 26.0291L16.667 26.0764C16.9214 25.9973 17.1577 25.8943 17.3882 25.7834C17.6184 25.6719 17.8418 25.5513 18.0591 25.4224C18.063 25.4199 18.0669 25.4177 18.0708 25.4155C18.1409 25.374 18.228 25.3884 18.2854 25.4463C18.3279 25.4888 18.375 25.5239 18.4236 25.5547C18.4763 25.5869 18.5344 25.6077 18.5955 25.6182C18.6567 25.6274 18.7183 25.634 18.7786 25.644C18.8384 25.6543 18.8989 25.6614 18.959 25.6685C19.0198 25.6726 19.0798 25.6772 19.1404 25.6777C19.2612 25.6799 19.3816 25.6719 19.4998 25.6548L19.5015 25.6223C19.3877 25.5881 19.2764 25.5579 19.1685 25.5173C19.114 25.4998 19.0608 25.4783 19.0078 25.4578C18.9551 25.4373 18.9023 25.417 18.8511 25.3938C18.7991 25.3721 18.7502 25.3423 18.7017 25.314C18.6531 25.2854 18.6021 25.2659 18.5474 25.2537C18.488 25.2415 18.4275 25.2324 18.3623 25.2292C18.4717 25.1545 18.5784 25.0762 18.6829 24.9944C18.7656 24.9282 18.8784 24.8403 18.9778 24.7632C19.0833 24.6814 19.2307 24.6731 19.3406 24.749C19.3943 24.7861 19.4531 24.8152 19.5037 24.8472C19.5564 24.8796 19.6145 24.9001 19.6755 24.9109C19.7368 24.9202 19.7983 24.9268 19.8584 24.9365C19.9185 24.9468 19.9788 24.9541 20.0388 24.9612C20.0996 24.9651 20.1599 24.9697 20.2205 24.9702C20.3411 24.9724 20.4617 24.9644 20.5796 24.9473L20.5815 24.9148C20.4678 24.8806 20.3564 24.8503 20.2485 24.8101C20.1941 24.7925 20.1409 24.771 20.0881 24.7502C20.0352 24.7297 19.9824 24.7095 19.9312 24.6865C19.8794 24.6646 19.8303 24.6348 19.7817 24.6067C19.7332 24.5781 19.6821 24.5583 19.6274 24.5461C19.5229 24.5247 19.415 24.5125 19.2825 24.5283C19.4863 24.3809 19.6895 24.2312 19.8955 24.0867L19.9036 24.0811C20.0269 23.9905 20.1917 23.9697 20.3289 24.0378C20.3677 24.0571 20.4075 24.0723 20.4475 24.085C20.5068 24.1033 20.5681 24.1086 20.6299 24.1038C20.6917 24.0974 20.7529 24.0884 20.8135 24.0828C20.874 24.0779 20.9346 24.0696 20.9944 24.0615C21.0542 24.0503 21.1138 24.0396 21.1724 24.0249C21.2898 23.9968 21.4045 23.959 21.5144 23.9128L21.5081 23.8809C21.3896 23.8767 21.2742 23.8755 21.1594 23.8633Z" fill="url(#paint7_linear_4513_5434)"/>
<path d="M25.4028 10.0139C25.4028 15.5444 20.9194 20.0278 15.3889 20.0278C9.8584 20.0278 5.375 15.5444 5.375 10.0139C5.375 4.4834 9.8584 0 15.3889 0C20.9194 0 25.4028 4.4834 25.4028 10.0139Z" fill="url(#paint8_radial_4513_5434)"/>
<path d="M5.375 10.0139C5.375 13.5879 7.2478 16.7241 10.0654 18.4961H20.7124C23.53 16.7241 25.4028 13.5879 25.4028 10.0139C25.4028 6.4397 23.53 3.30347 20.7124 1.53149H10.0654C7.2478 3.30347 5.375 6.4397 5.375 10.0139Z" fill="url(#paint9_linear_4513_5434)"/>
<path d="M5.375 10.0139C5.375 12.5635 6.32861 14.8901 7.89771 16.658H22.8801C24.4492 14.8901 25.4026 12.5635 25.4026 10.0139C25.4026 7.46411 24.4492 5.13745 22.8801 3.36963H7.89771C6.32837 5.13745 5.375 7.46411 5.375 10.0139Z" fill="url(#paint10_linear_4513_5434)"/>
<path d="M5.375 10.0139C5.375 11.5042 5.70093 12.918 6.28491 14.1887H24.4929C25.0767 12.918 25.4028 11.5039 25.4028 10.0139C25.4028 8.52368 25.0767 7.10986 24.4929 5.83887H6.28491C5.70093 7.10986 5.375 8.52368 5.375 10.0139Z" fill="url(#paint11_linear_4513_5434)"/>
<path d="M5.375 10.0139C5.375 10.8765 5.48438 11.7134 5.68945 12.512H25.0881C25.2935 11.7134 25.4028 10.8765 25.4028 10.0139C25.4028 9.15137 25.2935 8.31445 25.0881 7.51587H5.68945C5.48438 8.31445 5.375 9.15137 5.375 10.0139Z" fill="url(#paint12_linear_4513_5434)"/>
<path d="M14.5938 0.0314941C9.43506 0.436768 5.375 4.75098 5.375 10.0139C5.375 15.2769 9.43506 19.5911 14.5938 19.9963C19.7524 19.5911 23.8123 15.2766 23.8123 10.0139C23.8123 4.75098 19.7524 0.436768 14.5938 0.0314941Z" fill="url(#paint13_radial_4513_5434)"/>
<path d="M15.1121 0.947693C14.7681 0.901062 14.4192 0.901062 14.0752 0.947693C9.61084 1.55511 6.16992 5.38251 6.16992 10.0139C6.16992 14.645 9.61084 18.4724 14.0754 19.0798C14.4192 19.1266 14.7683 19.1266 15.1121 19.0798C19.5767 18.4724 23.0173 14.645 23.0173 10.0139C23.0173 5.38251 19.5767 1.55511 15.1121 0.947693Z" fill="url(#paint14_radial_4513_5434)"/>
<path d="M21.25 10.0137C21.25 5.97852 18.252 2.70752 14.5537 2.70752C10.8555 2.70752 7.85742 5.97852 7.85742 10.0137C7.85742 14.0486 10.8555 17.3198 14.5537 17.3198C18.252 17.3198 21.25 14.0486 21.25 10.0137Z" fill="url(#paint15_radial_4513_5434)"/>
<path d="M16.3923 2.98676C15.5586 2.72772 14.668 2.72772 13.8345 2.98676C11.03 3.85858 8.97656 6.6745 8.97656 10.0139C8.97656 13.4186 11.1113 16.279 14 17.0895C14.7273 17.2939 15.4993 17.2939 16.2268 17.0895C19.1155 16.279 21.25 13.4186 21.25 10.0139C21.25 6.6745 19.1965 3.85858 16.3923 2.98676Z" fill="url(#paint16_radial_4513_5434)"/>
<path d="M16.1965 19.993C16.1965 19.993 15.073 14.5352 6.92746 14.8169C6.62863 14.8272 6.25851 15.1336 6.3342 15.3072C7.09347 17.0477 10.247 23.1185 16.1965 19.993Z" fill="url(#paint17_linear_4513_5434)"/>
<path d="M6.3341 15.3071C6.29992 15.2285 6.35754 15.1226 6.45837 15.0293C11.142 15.2122 16.1964 19.9929 16.1964 19.9929C10.2469 23.1184 7.09338 17.0476 6.3341 15.3071Z" fill="url(#paint18_linear_4513_5434)"/>
<path d="M6.33416 15.3071C6.2846 15.1931 6.42693 15.0227 6.61492 14.9155C6.64544 14.9631 6.6762 15.0115 6.70721 15.0613C10.1271 20.5657 16.1967 19.9929 16.1967 19.9929C10.247 23.1184 7.09344 17.0476 6.33416 15.3071Z" fill="url(#paint19_linear_4513_5434)"/>
<path d="M16.1973 19.9929C16.1973 19.9929 16.9534 14.4722 25.0994 14.2083C25.3982 14.1985 25.7881 14.4795 25.7241 14.6577C25.0833 16.4451 22.3425 22.7131 16.1973 19.9929Z" fill="url(#paint20_linear_4513_5434)"/>
<path d="M25.7241 14.6577C25.7532 14.5769 25.6885 14.4751 25.5815 14.3887C20.9207 14.8845 16.1973 19.9929 16.1973 19.9929C22.3425 22.7131 25.0833 16.4451 25.7241 14.6577Z" fill="url(#paint21_linear_4513_5434)"/>
<path d="M25.7241 14.658C25.7661 14.541 25.6125 14.3804 25.418 14.2861C25.3906 14.3354 25.363 14.3857 25.3354 14.4377C22.2917 20.1584 16.1973 19.9932 16.1973 19.9932C22.3425 22.7134 25.0833 16.4453 25.7241 14.658Z" fill="url(#paint22_linear_4513_5434)"/>
</g>
<defs>
<linearGradient id="paint0_linear_4513_5434" x1="13.3239" y1="23.5299" x2="16.1101" y2="24.8959" gradientUnits="userSpaceOnUse">
<stop stop-color="#00E7B2"/>
<stop offset="0.2459" stop-color="#05E5B1"/>
<stop offset="0.5301" stop-color="#13DDAC"/>
<stop offset="0.8322" stop-color="#2AD1A5"/>
<stop offset="1" stop-color="#3AC9A0"/>
</linearGradient>
<linearGradient id="paint1_linear_4513_5434" x1="14.7297" y1="22.8869" x2="12.8298" y2="25.9841" gradientUnits="userSpaceOnUse">
<stop stop-color="#3AC9A0" stop-opacity="0"/>
<stop offset="0.0351" stop-color="#38C69D" stop-opacity="0.035294"/>
<stop offset="0.4167" stop-color="#23AA82" stop-opacity="0.415686"/>
<stop offset="0.7511" stop-color="#169971" stop-opacity="0.752941"/>
<stop offset="1" stop-color="#11936B"/>
</linearGradient>
<linearGradient id="paint2_linear_4513_5434" x1="14.0058" y1="21.3368" x2="16.9602" y2="21.3368" gradientUnits="userSpaceOnUse">
<stop stop-color="#00E7B2"/>
<stop offset="0.2459" stop-color="#05E5B1"/>
<stop offset="0.5301" stop-color="#13DDAC"/>
<stop offset="0.8322" stop-color="#2AD1A5"/>
<stop offset="1" stop-color="#3AC9A0"/>
</linearGradient>
<linearGradient id="paint3_linear_4513_5434" x1="19.4637" y1="20.1951" x2="16.4392" y2="17.1706" gradientUnits="userSpaceOnUse">
<stop stop-color="#3AC9A0" stop-opacity="0"/>
<stop offset="0.0351" stop-color="#38C69D" stop-opacity="0.035294"/>
<stop offset="0.4167" stop-color="#23AA82" stop-opacity="0.415686"/>
<stop offset="0.7511" stop-color="#169971" stop-opacity="0.752941"/>
<stop offset="1" stop-color="#11936B"/>
</linearGradient>
<linearGradient id="paint4_linear_4513_5434" x1="15.5" y1="27.5" x2="16.5" y2="35.5" gradientUnits="userSpaceOnUse">
<stop stop-color="#80D9F4"/>
<stop offset="0.0633" stop-color="#70D9F4"/>
<stop offset="0.4033" stop-color="#10B9E4"/>
<stop offset="0.7232" stop-color="#0ABBE9"/>
<stop offset="1" stop-color="#0DAFE1"/>
</linearGradient>
<linearGradient id="paint5_linear_4513_5434" x1="19.4008" y1="23.6153" x2="21.5743" y2="27.4087" gradientUnits="userSpaceOnUse">
<stop stop-color="#00E7B2"/>
<stop offset="0.2459" stop-color="#05E5B1"/>
<stop offset="0.5301" stop-color="#13DDAC"/>
<stop offset="0.8322" stop-color="#2AD1A5"/>
<stop offset="1" stop-color="#3AC9A0"/>
</linearGradient>
<linearGradient id="paint6_linear_4513_5434" x1="20.7975" y1="25.5559" x2="18.6715" y2="22.8297" gradientUnits="userSpaceOnUse">
<stop stop-color="#3AC9A0" stop-opacity="0"/>
<stop offset="0.0351" stop-color="#38C69D" stop-opacity="0.035294"/>
<stop offset="0.4167" stop-color="#23AA82" stop-opacity="0.415686"/>
<stop offset="0.7511" stop-color="#169971" stop-opacity="0.752941"/>
<stop offset="1" stop-color="#11936B"/>
</linearGradient>
<linearGradient id="paint7_linear_4513_5434" x1="18.8087" y1="23.6373" x2="19.3142" y2="24.6118" gradientUnits="userSpaceOnUse">
<stop stop-color="#3B395F"/>
<stop offset="0.0633" stop-color="#37355A"/>
<stop offset="0.4033" stop-color="#232543"/>
<stop offset="0.7232" stop-color="#171B35"/>
<stop offset="1" stop-color="#131830"/>
</linearGradient>
<radialGradient id="paint8_radial_4513_5434" cx="0" cy="0" r="1" gradientUnits="userSpaceOnUse" gradientTransform="translate(14.9026 9.66869) scale(10.4298)">
<stop stop-color="#FFA700"/>
<stop offset="0.3227" stop-color="#FCA300"/>
<stop offset="0.6649" stop-color="#F39600"/>
<stop offset="1" stop-color="#E58200"/>
</radialGradient>
<linearGradient id="paint9_linear_4513_5434" x1="15.3889" y1="8.43174" x2="15.3889" y2="26.326" gradientUnits="userSpaceOnUse">
<stop stop-color="#E58200" stop-opacity="0"/>
<stop offset="0.0396" stop-color="#E27F04" stop-opacity="0.039216"/>
<stop offset="0.4671" stop-color="#C15D2F" stop-opacity="0.466667"/>
<stop offset="0.8016" stop-color="#AD4949" stop-opacity="0.8"/>
<stop offset="1" stop-color="#A64153"/>
</linearGradient>
<linearGradient id="paint10_linear_4513_5434" x1="15.3889" y1="12.4371" x2="15.3889" y2="-5.64584" gradientUnits="userSpaceOnUse">
<stop stop-color="#E58200" stop-opacity="0"/>
<stop offset="0.0396" stop-color="#E27F04" stop-opacity="0.039216"/>
<stop offset="0.4671" stop-color="#C15D2F" stop-opacity="0.466667"/>
<stop offset="0.8016" stop-color="#AD4949" stop-opacity="0.8"/>
<stop offset="1" stop-color="#A64153"/>
</linearGradient>
<linearGradient id="paint11_linear_4513_5434" x1="15.3889" y1="10.3166" x2="15.3889" y2="16.0998" gradientUnits="userSpaceOnUse">
<stop stop-color="#E54900" stop-opacity="0"/>
<stop offset="0.0396" stop-color="#E25D04" stop-opacity="0.039216"/>
<stop offset="0.4671" stop-color="#C1422F" stop-opacity="0.466667"/>
<stop offset="0.8016" stop-color="#AD5149" stop-opacity="0.8"/>
<stop offset="1" stop-color="#A64E41"/>
</linearGradient>
<linearGradient id="paint12_linear_4513_5434" x1="15.3889" y1="12.2015" x2="15.3889" y2="2.35356" gradientUnits="userSpaceOnUse">
<stop stop-color="#E58200" stop-opacity="0"/>
<stop offset="0.0396" stop-color="#E27F04" stop-opacity="0.039216"/>
<stop offset="0.4671" stop-color="#C15D2F" stop-opacity="0.466667"/>
<stop offset="0.8016" stop-color="#AD4949" stop-opacity="0.8"/>
<stop offset="1" stop-color="#A64153"/>
</linearGradient>
<radialGradient id="paint13_radial_4513_5434" cx="0" cy="0" r="1" gradientUnits="userSpaceOnUse" gradientTransform="translate(11.663 7.31261) scale(14.0188)">
<stop stop-color="#FFA238"/>
<stop offset="0.2837" stop-color="#FFA034"/>
<stop offset="0.5391" stop-color="#FF9029"/>
<stop offset="0.7827" stop-color="#FF7C17"/>
<stop offset="1" stop-color="#FF5E00"/>
</radialGradient>
<radialGradient id="paint14_radial_4513_5434" cx="0" cy="0" r="1" gradientUnits="userSpaceOnUse" gradientTransform="translate(14.5937 10.0138) scale(8.76891)">
<stop stop-color="#FFFCF8"/>
<stop offset="0.9485" stop-color="#FFFCF8" stop-opacity="0.05098"/>
<stop offset="1" stop-color="#FFFCF8" stop-opacity="0"/>
</radialGradient>
<radialGradient id="paint15_radial_4513_5434" cx="0" cy="0" r="1" gradientUnits="userSpaceOnUse" gradientTransform="translate(15.2393 9.07677) scale(10.4803 11.4351)">
<stop stop-color="#FFA700"/>
<stop offset="0.3227" stop-color="#FCA300"/>
<stop offset="0.6649" stop-color="#F39600"/>
<stop offset="1" stop-color="#E58200"/>
</radialGradient>
<radialGradient id="paint16_radial_4513_5434" cx="0" cy="0" r="1" gradientUnits="userSpaceOnUse" gradientTransform="translate(12.5609 7.50085) scale(10.6801)">
<stop stop-color="#FFA538"/>
<stop offset="0.2837" stop-color="#FFA434"/>
<stop offset="0.5391" stop-color="#FF9B29"/>
<stop offset="0.7827" stop-color="#FF8317"/>
<stop offset="1" stop-color="#FF6600"/>
</radialGradient>
<linearGradient id="paint17_linear_4513_5434" x1="11.6047" y1="17.2742" x2="10.1211" y2="20.3911" gradientUnits="userSpaceOnUse">
<stop stop-color="#00E7B2"/>
<stop offset="0.2459" stop-color="#05E5B1"/>
<stop offset="0.5301" stop-color="#13DDAC"/>
<stop offset="0.8322" stop-color="#2AD1A5"/>
<stop offset="1" stop-color="#3AC9A0"/>
</linearGradient>
<linearGradient id="paint18_linear_4513_5434" x1="9.91229" y1="18.2988" x2="15.3606" y2="15.2515" gradientUnits="userSpaceOnUse">
<stop stop-color="#3AC9A0" stop-opacity="0"/>
<stop offset="0.0351" stop-color="#38C69D" stop-opacity="0.035294"/>
<stop offset="0.4167" stop-color="#23AA82" stop-opacity="0.415686"/>
<stop offset="0.7511" stop-color="#169971" stop-opacity="0.752941"/>
<stop offset="1" stop-color="#11936B"/>
</linearGradient>
<linearGradient id="paint19_linear_4513_5434" x1="8.95829" y1="18.2515" x2="16.0331" y2="19.7617" gradientUnits="userSpaceOnUse">
<stop stop-color="#3AC9A0" stop-opacity="0"/>
<stop offset="0.0351" stop-color="#38C69D" stop-opacity="0.035294"/>
<stop offset="0.4167" stop-color="#23AA82" stop-opacity="0.415686"/>
<stop offset="0.7511" stop-color="#169971" stop-opacity="0.752941"/>
<stop offset="1" stop-color="#11936B"/>
</linearGradient>
<linearGradient id="paint20_linear_4513_5434" x1="20.5998" y1="16.9753" x2="22.2885" y2="19.986" gradientUnits="userSpaceOnUse">
<stop stop-color="#00E7B2"/>
<stop offset="0.2459" stop-color="#05E5B1"/>
<stop offset="0.5301" stop-color="#13DDAC"/>
<stop offset="0.8322" stop-color="#2AD1A5"/>
<stop offset="1" stop-color="#3AC9A0"/>
</linearGradient>
<linearGradient id="paint21_linear_4513_5434" x1="22.3568" y1="17.8845" x2="16.717" y2="15.2083" gradientUnits="userSpaceOnUse">
<stop stop-color="#3AC9A0" stop-opacity="0"/>
<stop offset="0.0351" stop-color="#38C69D" stop-opacity="0.035294"/>
<stop offset="0.4167" stop-color="#23AA82" stop-opacity="0.415686"/>
<stop offset="0.7511" stop-color="#169971" stop-opacity="0.752941"/>
<stop offset="1" stop-color="#11936B"/>
</linearGradient>
<linearGradient id="paint22_linear_4513_5434" x1="23.3056" y1="17.7737" x2="16.3474" y2="19.7537" gradientUnits="userSpaceOnUse">
<stop stop-color="#3AC9A0" stop-opacity="0"/>
<stop offset="0.0351" stop-color="#38C69D" stop-opacity="0.035294"/>
<stop offset="0.4167" stop-color="#23AA82" stop-opacity="0.415686"/>
<stop offset="0.7511" stop-color="#169971" stop-opacity="0.752941"/>
<stop offset="1" stop-color="#11936B"/>
</linearGradient>
<clipPath id="clip0_4513_5434">
<rect width="32" height="32" fill="white"/>
</clipPath>
</defs>
</svg>
