<svg width="32" height="32" viewBox="0 0 32 32" fill="none" xmlns="http://www.w3.org/2000/svg">
<g clip-path="url(#clip0_4513_2570)">
<path d="M14.2431 32C22.1094 32 28.4863 25.6231 28.4863 17.7569C28.4863 9.8906 22.1094 3.51373 14.2431 3.51373C6.37687 3.51373 0 9.8906 0 17.7569C0 25.6231 6.37687 32 14.2431 32Z" fill="url(#paint0_linear_4513_2570)"/>
<path d="M24.1614 27.9776C26.8282 25.3891 28.4859 21.7669 28.4859 17.757C28.4859 13.8239 26.8917 10.2631 24.3142 7.68561L14.0918 17.908L24.1614 27.9776Z" fill="url(#paint1_linear_4513_2570)"/>
<path d="M0.320312 20.7686C1.70246 27.1883 7.41051 32 14.2433 32C21.0761 32 26.7842 27.1883 28.1663 20.7686H0.320312Z" fill="url(#paint2_linear_4513_2570)"/>
<path d="M14.2426 28.7397C20.3083 28.7397 25.2254 23.8225 25.2254 17.7568C25.2254 11.6912 20.3083 6.77399 14.2426 6.77399C8.17695 6.77399 3.25977 11.6912 3.25977 17.7568C3.25977 23.8225 8.17695 28.7397 14.2426 28.7397Z" fill="url(#paint3_linear_4513_2570)"/>
<path d="M21.8561 25.672C23.9329 23.6739 25.2256 20.8664 25.2256 17.7568C25.2256 14.724 23.9963 11.9783 22.0088 9.99078L14.0918 17.9078L21.8561 25.672Z" fill="url(#paint4_linear_4513_2570)"/>
<path d="M3.67773 20.7686C4.98697 25.37 9.2212 28.7397 14.2424 28.7397C19.2637 28.7397 23.4979 25.37 24.8071 20.7686H3.67773Z" fill="url(#paint5_linear_4513_2570)"/>
<path d="M14.2425 25.5931C18.5704 25.5931 22.0788 22.0846 22.0788 17.7568C22.0788 13.4289 18.5704 9.92047 14.2425 9.92047C9.91468 9.92047 6.40625 13.4289 6.40625 17.7568C6.40625 22.0846 9.91468 25.5931 14.2425 25.5931Z" fill="url(#paint6_linear_4513_2570)"/>
<path d="M19.6307 23.4468C21.1384 22.0185 22.0791 19.9977 22.0791 17.757C22.0791 15.593 21.2019 13.634 19.7838 12.2159L14.0918 17.9079L19.6307 23.4468Z" fill="url(#paint7_linear_4513_2570)"/>
<path d="M14.2433 22.1603C16.6753 22.1603 18.6467 20.1888 18.6467 17.7568C18.6467 15.3249 16.6753 13.3534 14.2433 13.3534C11.8113 13.3534 9.83984 15.3249 9.83984 17.7568C9.83984 20.1888 11.8113 22.1603 14.2433 22.1603Z" fill="url(#paint8_linear_4513_2570)"/>
<path d="M17.2018 21.0178C18.089 20.2123 18.6461 19.0497 18.6461 17.7569C18.6461 16.5409 18.1533 15.4401 17.3564 14.6431L14.0918 17.9078L17.2018 21.0178Z" fill="url(#paint9_linear_4513_2570)"/>
<path d="M14.243 19.7772C15.3588 19.7772 16.2633 18.8727 16.2633 17.7569C16.2633 16.6411 15.3588 15.7366 14.243 15.7366C13.1272 15.7366 12.2227 16.6411 12.2227 17.7569C12.2227 18.8727 13.1272 19.7772 14.243 19.7772Z" fill="url(#paint10_linear_4513_2570)"/>
<path d="M15.5122 19.3281C15.9701 18.9577 16.2631 18.3916 16.2631 17.7568C16.2631 17.1988 16.037 16.6938 15.6713 16.3282L14.0918 17.9077L15.5122 19.3281Z" fill="url(#paint11_linear_4513_2570)"/>
<path d="M14.0929 17.9078C13.9091 17.724 13.9091 17.4261 14.0929 17.2423L19.3727 11.9625C19.5564 11.7788 19.8544 11.7788 20.0382 11.9625C20.222 12.1463 20.222 12.4443 20.0382 12.6281L14.7585 17.9078C14.5747 18.0916 14.2767 18.0916 14.0929 17.9078Z" fill="url(#paint12_linear_4513_2570)"/>
<path d="M32.0018 4.33713C32.0018 3.13945 31.0308 2.16853 29.8332 2.16853C29.8332 0.970918 28.8623 0 27.6646 0C26.4669 0 25.4961 0.970918 25.4961 2.16853V4.25512C25.4961 4.85202 25.7332 5.42444 26.1552 5.84646C26.5773 6.26849 27.1497 6.5056 27.7466 6.5056H29.8332C31.0308 6.50566 32.0018 5.53481 32.0018 4.33713Z" fill="url(#paint13_linear_4513_2570)"/>
<path d="M26.1543 5.84651C26.5763 6.26853 27.1488 6.50565 27.7456 6.50565H29.8322C31.0299 6.50565 32.0008 5.53473 32.0008 4.33711C32.0008 3.13943 31.0298 2.16858 29.8322 2.16858L26.1543 5.84651Z" fill="url(#paint14_linear_4513_2570)"/>
<path d="M24.3371 7.66466C24.1533 7.48088 24.1533 7.18291 24.3371 6.99913L29.6168 1.71938C29.8006 1.5356 30.0986 1.5356 30.2823 1.71938C30.4661 1.90316 30.4661 2.20114 30.2823 2.38492L25.0026 7.66466C24.8188 7.84844 24.5208 7.84844 24.3371 7.66466Z" fill="url(#paint15_linear_4513_2570)"/>
<path d="M21.6476 13.9027C19.1115 16.4388 17.348 16.6132 16.3678 15.633C15.3877 14.6529 15.5621 12.8894 18.0982 10.3533C20.6343 7.81713 25.3748 4.66576 26.3549 5.6459C27.335 6.62604 24.1837 11.3666 21.6476 13.9027Z" fill="url(#paint16_linear_4513_2570)"/>
<path d="M21.6475 13.9027C19.1115 16.4388 17.3479 16.6131 16.3678 15.6331C15.3877 14.653 15.5621 12.8894 18.0981 10.3533C18.1749 10.2766 18.2534 10.1998 18.3328 10.123C18.8333 10.6945 19.4149 11.3152 20.0503 11.9506C20.6857 12.5859 21.3063 13.1676 21.8778 13.668C21.801 13.7475 21.7243 13.826 21.6475 13.9027Z" fill="url(#paint17_linear_4513_2570)"/>
<path d="M15.8457 13.8919L18.1083 16.1545C18.6262 16.072 19.2193 15.8269 19.8874 15.3824L16.6177 12.1128C16.1733 12.7809 15.9282 13.374 15.8457 13.8919Z" fill="url(#paint18_linear_4513_2570)"/>
<path d="M16.6191 12.1127L19.8888 15.3824C20.2655 15.1318 20.6666 14.8163 21.0909 14.4327L17.5689 10.9106C17.1852 11.3349 16.8697 11.736 16.6191 12.1127Z" fill="url(#paint19_linear_4513_2570)"/>
<path d="M17.4197 10.7046C17.4176 10.707 17.4155 10.7093 17.4134 10.7117C17.2547 10.888 17.2561 11.1551 17.4134 11.3327C18.4347 12.4853 19.5164 13.567 20.6691 14.5883C20.8467 14.7456 21.1138 14.7471 21.2901 14.5884C21.2924 14.5863 21.2947 14.5842 21.2971 14.582C21.5037 14.3959 21.5039 14.0715 21.2957 13.8871C20.1692 12.8895 19.1123 11.8326 18.1147 10.7061C17.9303 10.4978 17.6059 10.4981 17.4197 10.7046Z" fill="url(#paint20_linear_4513_2570)"/>
<path d="M16.3846 11.7397C16.3824 11.7421 16.3804 11.7444 16.3782 11.7468C16.2195 11.9231 16.221 12.1902 16.3783 12.3678C17.3995 13.5204 18.4813 14.6021 19.6339 15.6234C19.8115 15.7807 20.0786 15.7822 20.2549 15.6235C20.2573 15.6214 20.2596 15.6193 20.262 15.6172C20.4685 15.431 20.4688 15.1066 20.2606 14.9223C19.134 13.9247 18.0771 12.8678 17.0795 11.7412C16.8951 11.533 16.5708 11.5332 16.3846 11.7397Z" fill="url(#paint21_linear_4513_2570)"/>
</g>
<defs>
<linearGradient id="paint0_linear_4513_2570" x1="4.2934" y1="7.80713" x2="24.2872" y2="27.8009" gradientUnits="userSpaceOnUse">
<stop stop-color="#07AED8"/>
<stop offset="1" stop-color="#2BD1FB"/>
</linearGradient>
<linearGradient id="paint1_linear_4513_2570" x1="26.7952" y1="20.3889" x2="19.8493" y2="13.4432" gradientUnits="userSpaceOnUse">
<stop stop-color="#14CAF8" stop-opacity="0"/>
<stop offset="1" stop-color="#27A1C0"/>
</linearGradient>
<linearGradient id="paint2_linear_4513_2570" x1="14.2433" y1="23.0274" x2="14.2433" y2="30.6289" gradientUnits="userSpaceOnUse">
<stop stop-color="#14CAF8" stop-opacity="0"/>
<stop offset="1" stop-color="#27A1C0"/>
</linearGradient>
<linearGradient id="paint3_linear_4513_2570" x1="6.57039" y1="10.0846" x2="21.9875" y2="25.5018" gradientUnits="userSpaceOnUse">
<stop stop-color="#EDF5FF"/>
<stop offset="1" stop-color="#C7E9FF"/>
</linearGradient>
<linearGradient id="paint4_linear_4513_2570" x1="27.1484" y1="23.0473" x2="19.3052" y2="15.2041" gradientUnits="userSpaceOnUse">
<stop stop-color="#7BACDF" stop-opacity="0"/>
<stop offset="1" stop-color="#7BACDF"/>
</linearGradient>
<linearGradient id="paint5_linear_4513_2570" x1="14.2424" y1="22.2118" x2="14.2424" y2="29.124" gradientUnits="userSpaceOnUse">
<stop stop-color="#7BACDF" stop-opacity="0"/>
<stop offset="1" stop-color="#7BACDF"/>
</linearGradient>
<linearGradient id="paint6_linear_4513_2570" x1="8.76841" y1="12.2826" x2="19.7686" y2="23.2828" gradientUnits="userSpaceOnUse">
<stop stop-color="#10C8F6"/>
<stop offset="1" stop-color="#11B4DD"/>
</linearGradient>
<linearGradient id="paint7_linear_4513_2570" x1="23.3535" y1="21.4776" x2="17.7288" y2="15.8528" gradientUnits="userSpaceOnUse">
<stop stop-color="#14CAF8" stop-opacity="0"/>
<stop offset="1" stop-color="#27A1C0"/>
</linearGradient>
<linearGradient id="paint8_linear_4513_2570" x1="11.1672" y1="14.6808" x2="17.3485" y2="20.8621" gradientUnits="userSpaceOnUse">
<stop stop-color="#EDF5FF"/>
<stop offset="1" stop-color="#C7E9FF"/>
</linearGradient>
<linearGradient id="paint9_linear_4513_2570" x1="21.0731" y1="21.6245" x2="15.6784" y2="16.2298" gradientUnits="userSpaceOnUse">
<stop stop-color="#7BACDF" stop-opacity="0"/>
<stop offset="1" stop-color="#7BACDF"/>
</linearGradient>
<linearGradient id="paint10_linear_4513_2570" x1="12.8317" y1="16.3456" x2="15.6677" y2="19.1816" gradientUnits="userSpaceOnUse">
<stop stop-color="#10C8F6"/>
<stop offset="1" stop-color="#11B4DD"/>
</linearGradient>
<linearGradient id="paint11_linear_4513_2570" x1="18.9913" y1="21.2278" x2="14.6928" y2="16.9292" gradientUnits="userSpaceOnUse">
<stop stop-color="#14CAF8" stop-opacity="0"/>
<stop offset="1" stop-color="#27A1C0"/>
</linearGradient>
<linearGradient id="paint12_linear_4513_2570" x1="16.7333" y1="14.5953" x2="17.3987" y2="15.2607" gradientUnits="userSpaceOnUse">
<stop stop-color="#537983"/>
<stop offset="1" stop-color="#3E5959"/>
</linearGradient>
<linearGradient id="paint13_linear_4513_2570" x1="28.7476" y1="0.363506" x2="28.7476" y2="6.86813" gradientUnits="userSpaceOnUse">
<stop stop-color="#62DBFB"/>
<stop offset="1" stop-color="#08A9F1"/>
</linearGradient>
<linearGradient id="paint14_linear_4513_2570" x1="29.7581" y1="5.31899" x2="28.0058" y2="3.56669" gradientUnits="userSpaceOnUse">
<stop stop-color="#017BAE" stop-opacity="0"/>
<stop offset="0.6303" stop-color="#02678E" stop-opacity="0.63"/>
<stop offset="1" stop-color="#025F80"/>
</linearGradient>
<linearGradient id="paint15_linear_4513_2570" x1="26.9759" y1="4.35364" x2="27.6413" y2="5.01906" gradientUnits="userSpaceOnUse">
<stop stop-color="#62DBFB"/>
<stop offset="1" stop-color="#08A9F1"/>
</linearGradient>
<linearGradient id="paint16_linear_4513_2570" x1="20.4296" y1="9.70134" x2="22.4337" y2="11.7054" gradientUnits="userSpaceOnUse">
<stop stop-color="#62DBFB"/>
<stop offset="1" stop-color="#02ADD8"/>
</linearGradient>
<linearGradient id="paint17_linear_4513_2570" x1="17.6601" y1="13.1806" x2="18.9695" y2="14.49" gradientUnits="userSpaceOnUse">
<stop stop-color="#FFC277"/>
<stop offset="1" stop-color="#FE6A38"/>
</linearGradient>
<linearGradient id="paint18_linear_4513_2570" x1="17.1484" y1="14.845" x2="18.24" y2="13.7534" gradientUnits="userSpaceOnUse">
<stop stop-color="#F84D14" stop-opacity="0"/>
<stop offset="0.2509" stop-color="#F04E18" stop-opacity="0.251"/>
<stop offset="0.6394" stop-color="#DA4F21" stop-opacity="0.639"/>
<stop offset="1" stop-color="#C04D27"/>
</linearGradient>
<linearGradient id="paint19_linear_4513_2570" x1="18.3984" y1="13.5963" x2="19.3192" y2="12.6756" gradientUnits="userSpaceOnUse">
<stop stop-color="#F84D14" stop-opacity="0"/>
<stop offset="0.2509" stop-color="#F02818" stop-opacity="0.251"/>
<stop offset="0.6394" stop-color="#DA2721" stop-opacity="0.639"/>
<stop offset="1" stop-color="#C0272D"/>
</linearGradient>
<linearGradient id="paint20_linear_4513_2570" x1="19.6074" y1="12.3876" x2="19.0585" y2="12.9365" gradientUnits="userSpaceOnUse">
<stop stop-color="#FFC277"/>
<stop offset="1" stop-color="#FE6A38"/>
</linearGradient>
<linearGradient id="paint21_linear_4513_2570" x1="18.5723" y1="13.4226" x2="18.0235" y2="13.9715" gradientUnits="userSpaceOnUse">
<stop stop-color="#FFC277"/>
<stop offset="1" stop-color="#FE6638"/>
</linearGradient>
<clipPath id="clip0_4513_2570">
<rect width="32" height="32" fill="white"/>
</clipPath>
</defs>
</svg>
