<svg width="46" height="21" viewBox="0 0 46 21" fill="none" xmlns="http://www.w3.org/2000/svg">
<mask id="path-1-outside-1_3992_7303" maskUnits="userSpaceOnUse" x="-0.85151" y="-2.53344" width="48.9553" height="24.0109" fill="black">
<rect fill="white" x="-0.85151" y="-2.53344" width="48.9553" height="24.0109"/>
<path d="M7.21264 11.7216L6.8386 12.3014C7.36014 12.2795 7.82896 12.2823 8.24506 12.3097C8.6604 12.3313 9.04542 12.3688 9.40013 12.422C9.75985 12.4687 10.0769 12.5269 10.3513 12.5966C11.3169 12.8578 11.8449 13.33 11.9353 14.0133C11.9905 14.4303 11.8534 14.8639 11.5241 15.314C11.1948 15.7642 10.7439 16.1863 10.1714 16.5802C9.60474 16.9734 9.0086 17.2998 8.38299 17.5594C7.76394 17.824 7.19092 17.9911 6.66393 18.0609C5.78369 18.1774 5.07598 18.106 4.54082 17.8469C4.00489 17.5819 3.69937 17.1657 3.62427 16.5982C3.57215 16.2044 3.6614 15.7212 3.89203 15.1485C4.12265 14.5759 4.50108 13.8511 5.02731 12.9742C4.54937 13.0139 4.20429 12.9889 3.99207 12.8991C3.77908 12.8035 3.6584 12.6486 3.63004 12.4344C3.61242 12.3012 3.63665 12.1948 3.70273 12.1154C3.76882 12.0359 3.86365 11.9733 3.98722 11.9275C4.11003 11.8759 4.34789 11.8031 4.7008 11.7093C5.05951 11.6147 5.51803 11.4951 6.07635 11.3505C6.60488 10.4909 7.09249 9.83418 7.53917 9.38027C7.99088 8.9198 8.49956 8.62267 9.06521 8.48888C9.11077 8.47696 9.15961 8.46755 9.21173 8.46065C9.26964 8.45299 9.30051 8.46363 9.30435 8.49259C9.30894 8.52733 9.25461 8.6288 9.14134 8.797C9.03387 8.96443 8.8543 9.23273 8.60264 9.60191C8.35677 9.97033 8.06393 10.4068 7.72413 10.9114C8.79369 10.6225 9.66078 10.3399 10.3254 10.0633C10.995 9.78026 11.4892 9.48505 11.808 9.1777C12.1268 8.87035 12.2651 8.55742 12.2229 8.23891C12.1716 7.85091 11.9462 7.59495 11.5468 7.47103C11.1474 7.34712 10.5597 7.33651 9.78365 7.43921C9.35511 7.49593 8.86862 7.60451 8.32417 7.76495C7.78551 7.92462 7.29761 8.08937 6.86047 8.25918C6.42912 8.42823 6.04525 8.59983 5.70885 8.77398C5.37748 8.94158 5.21563 9.05433 5.22329 9.11224C5.22559 9.12962 5.24527 9.14469 5.28231 9.15747C5.57987 9.22415 5.73325 9.29224 5.74245 9.36173C5.75471 9.45439 5.34414 9.6914 4.51073 10.0727C3.67656 10.4483 3.1089 10.656 2.80777 10.6959C2.5935 10.7242 2.47218 10.6313 2.44383 10.417C2.4101 10.1622 2.5812 9.67404 2.95711 8.95255C3.33805 8.22449 3.70736 7.74252 4.06505 7.50662C4.18981 7.42529 4.48622 7.28294 4.95428 7.07958C5.42234 6.87621 5.93749 6.6725 6.49973 6.46846C7.06777 6.26365 7.64718 6.07795 8.23796 5.91138C8.82873 5.7448 9.35576 5.63086 9.81905 5.56955C10.9136 5.42469 11.762 5.51276 12.3642 5.83374C12.9657 6.14893 13.3056 6.60187 13.3837 7.19256C13.4366 7.59215 13.3602 7.99412 13.1544 8.39847C12.9545 8.80205 12.6099 9.20415 12.1208 9.60475C11.6318 10.0054 10.9751 10.3869 10.151 10.7493C9.33269 11.111 8.35323 11.4351 7.21264 11.7216ZM6.44016 12.964C6.18654 13.3629 5.95941 13.717 5.75876 14.0264C5.56314 14.3293 5.42471 14.5745 5.34346 14.762C5.26724 14.943 5.24062 15.1203 5.26362 15.294C5.30041 15.572 5.47524 15.8023 5.78813 15.9848C6.10604 16.1607 6.53428 16.213 7.07285 16.1418C7.57089 16.0759 8.08927 15.9189 8.62802 15.6708C9.17178 15.4162 9.61599 15.1217 9.96065 14.7873C10.3111 14.4522 10.4672 14.1399 10.4288 13.8503C10.3959 13.6013 10.2268 13.4145 9.92157 13.2899C9.61635 13.1653 9.16614 13.0805 8.57093 13.0356C7.97496 12.9848 7.26471 12.9609 6.44016 12.964ZM15.7396 9.83293C15.5948 9.85209 15.4485 9.81547 15.3008 9.72306C15.1588 9.62989 15.0767 9.49934 15.0545 9.3314C15.0208 9.07659 15.1048 8.77673 15.3067 8.43182C15.5085 8.08692 15.7397 7.89722 16.0003 7.86273C16.1741 7.83974 16.3261 7.87559 16.4565 7.97029C16.5861 8.0592 16.6643 8.205 16.6912 8.40769C16.7241 8.65671 16.6418 8.94749 16.4442 9.28005C16.2466 9.61261 16.0118 9.7969 15.7396 9.83293ZM16.8442 13.6377L16.9281 14.2718C16.4622 15.07 16.0105 15.6866 15.5731 16.1216C15.1349 16.5509 14.745 16.7881 14.4033 16.8333C13.9285 16.8961 13.5422 16.6939 13.2447 16.2265C12.9471 15.7591 12.7593 15.2301 12.6811 14.6394C12.6512 14.4136 12.646 14.1962 12.6655 13.9874C12.6843 13.7728 12.7167 13.5947 12.7627 13.453C12.8088 13.3114 12.8999 13.0872 13.0361 12.7805C13.6891 11.3918 14.3572 10.6523 15.0406 10.5618C15.3938 10.5151 15.5885 10.6278 15.6245 10.9C15.649 11.0853 15.5715 11.3902 15.392 11.8146C15.2182 12.2383 15.0527 12.546 14.8954 12.7377C14.456 13.2908 14.1707 13.6733 14.0397 13.8851C13.9144 14.0961 13.8678 14.3233 13.9 14.5665C13.9276 14.775 14.0288 14.9383 14.2035 15.0566C14.3783 15.1749 14.5902 15.2176 14.8392 15.1846C15.1114 15.1486 15.3966 15.0107 15.6948 14.7709C15.9981 14.5245 16.3812 14.1468 16.8442 13.6377ZM18.2059 13.7756L18.2347 13.9928C18.2799 14.3345 18.3991 14.5898 18.5923 14.7586C18.7856 14.9275 19.0183 14.9939 19.2905 14.9579C19.5742 14.9204 19.8579 14.8151 20.1414 14.642C20.4307 14.4682 20.7113 14.2513 20.9833 13.9914C21.2553 13.7315 21.584 13.3875 21.9693 12.9594L22.0394 13.4893C21.4892 14.3635 20.9555 15.0499 20.4381 15.5485C19.92 16.0413 19.3656 16.3268 18.7749 16.405C18.2595 16.4732 17.8247 16.3275 17.4707 15.9677C17.1167 15.608 16.8937 15.0807 16.8017 14.3857C16.7213 13.7777 16.7903 13.2087 17.009 12.679C17.2268 12.1434 17.6207 11.558 18.1907 10.9227C18.581 10.4881 18.9807 10.1464 19.3897 9.89785C19.7988 9.64926 20.1741 9.50236 20.5158 9.45714C20.788 9.42112 21.0107 9.45646 21.1839 9.56317C21.3622 9.66332 21.4678 9.83791 21.5007 10.0869C21.549 10.4518 21.4612 10.8346 21.2373 11.2355C21.0126 11.6305 20.6432 12.0448 20.129 12.4782C19.6198 12.905 18.9788 13.3375 18.2059 13.7756ZM18.2181 13.1995C18.7124 12.9279 19.125 12.6169 19.4558 12.2667C19.7865 11.9165 20.0208 11.5939 20.1585 11.2987C20.3012 10.997 20.3642 10.7824 20.3473 10.655C20.3297 10.5218 20.2601 10.4632 20.1385 10.4793C20.0342 10.4931 19.8722 10.5823 19.6524 10.747C19.4384 10.9108 19.2239 11.116 19.0091 11.3624C18.8 11.6081 18.6191 11.8884 18.4663 12.2032C18.3135 12.5181 18.2307 12.8502 18.2181 13.1995ZM27.616 10.6123C26.747 11.8822 26.342 12.7401 26.401 13.186C26.4339 13.4351 26.5517 13.5461 26.7544 13.5193C26.9224 13.4971 27.128 13.3815 27.3714 13.1725C27.6199 12.957 28.0008 12.5854 28.5144 12.0578L28.5937 12.6572C27.8787 13.5768 27.3249 14.2452 26.9322 14.6625C26.5396 15.0798 26.2044 15.3068 25.9264 15.3436C25.4515 15.4065 25.1727 15.1252 25.0899 14.4997C25.0654 14.3144 25.0702 14.1282 25.1044 13.941C25.1385 13.7538 25.1922 13.5581 25.2653 13.354C25.3435 13.1433 25.4631 12.8447 25.624 12.458C25.7842 12.0656 25.9701 11.6226 26.1818 11.1291C25.8739 11.3407 25.5039 11.7285 25.0718 12.2925C24.7889 12.6481 24.5533 12.9827 24.365 13.2964C24.1759 13.6043 23.9741 13.9492 23.7595 14.3311C23.5499 14.7065 23.3923 14.9631 23.2868 15.1008C23.1863 15.2319 23.0753 15.3055 22.9536 15.3216C22.7683 15.3462 22.5718 15.1748 22.3641 14.8075C22.1564 14.4402 22.0184 13.9988 21.9502 13.4834C21.9081 13.1649 21.9099 12.9113 21.9556 12.7225C22.0071 12.5331 22.1182 12.2591 22.2888 11.9006C22.6071 11.2339 22.8923 10.7395 23.1443 10.4174C23.3955 10.0895 23.6543 9.90797 23.9207 9.87271C24.106 9.84819 24.2579 9.8605 24.3764 9.90964C24.5006 9.95801 24.5716 10.0488 24.5892 10.182C24.5969 10.2399 24.5875 10.303 24.5612 10.3713C24.5349 10.4396 24.502 10.5029 24.4626 10.5611C24.429 10.6186 24.3526 10.7318 24.2335 10.9008C23.4527 12.0353 23.0822 12.7532 23.122 13.0543C23.1443 13.2222 23.2104 13.2989 23.3204 13.2844C23.3899 13.2752 23.5085 13.1475 23.6763 12.9014C23.8491 12.6487 24.0681 12.3222 24.3333 11.9217C24.6035 11.5147 24.9269 11.086 25.3033 10.6355C25.6855 10.1842 26.1275 9.73975 26.6294 9.3021C26.908 9.04721 27.1486 8.90635 27.3513 8.87953C27.4439 8.86726 27.5506 8.98279 27.6712 9.2261C27.7975 9.46864 27.878 9.72022 27.9125 9.98081C27.9293 10.1082 27.8305 10.3187 27.616 10.6123ZM30.9192 7.18758L31.2927 7.13815C31.5268 6.54737 31.7535 6.12258 31.9726 5.86377C32.1909 5.59917 32.4594 5.4458 32.7779 5.40364C33.0964 5.36149 33.2652 5.4128 33.2844 5.55758C33.2936 5.62707 33.194 5.83176 32.9856 6.17164C32.7772 6.51153 32.6231 6.79414 32.5233 7.01948C32.7232 7.01659 32.8997 7.01386 33.0525 7.01131C33.2112 7.00799 33.3347 7.00637 33.4231 7.00646C33.1743 7.664 32.8434 8.34713 32.4304 9.05585C32.2667 9.06573 32.1295 9.07505 32.0187 9.08382C31.9071 9.0868 31.793 9.09306 31.6765 9.1026C31.5649 9.10558 31.4273 9.11201 31.2636 9.12189C31.0175 9.6671 30.8138 10.1537 30.6524 10.5816C30.4961 11.003 30.3818 11.3864 30.3097 11.7318C30.2434 12.0765 30.2297 12.3965 30.2688 12.6918C30.3217 13.0914 30.5074 13.2701 30.8259 13.228C31.046 13.1988 31.3173 13.0451 31.6399 12.7667C31.9675 12.4817 32.3974 12.0566 32.9295 11.4912L33.0065 12.0732C31.6675 13.9769 30.6244 14.9782 29.8774 15.0771C29.6168 15.1115 29.392 15.0382 29.203 14.857C29.0198 14.675 28.9072 14.4247 28.865 14.1062C28.8367 13.8919 28.8464 13.6314 28.8942 13.3245C28.9477 13.0169 29.0509 12.5495 29.2036 11.9224C29.1317 12.0026 29.0627 12.0825 28.9966 12.1619C28.9356 12.2348 28.877 12.3044 28.821 12.3708C28.7699 12.4306 28.7139 12.4969 28.6528 12.5698C28.591 12.6369 28.5296 12.7069 28.4685 12.7798L28.3892 12.1804C28.9298 11.5904 29.5469 10.5983 30.2404 9.20427C30.1527 9.20998 30.0713 9.21781 29.996 9.22778C29.9199 9.23195 29.8298 9.24093 29.7255 9.25473C29.3839 9.29995 29.1321 9.35683 28.9703 9.42539C28.9031 9.45196 28.8392 9.48104 28.7786 9.51264C28.723 9.53768 28.6836 9.55173 28.6604 9.55479C28.6372 9.55786 28.6234 9.54202 28.6188 9.50727C28.5935 9.31617 28.6743 9.0138 28.8611 8.60016C29.0093 8.25057 29.157 7.98648 29.3043 7.80789C29.4573 7.62854 29.652 7.49671 29.8883 7.4124C30.1297 7.32154 30.4733 7.24659 30.9192 7.18758ZM38.4976 10.7543L38.5746 11.3363C38.2384 11.7343 37.9621 12.0066 37.7458 12.153C37.5295 12.2995 37.2026 12.3899 36.7653 12.4242C36.1304 13.4157 35.5264 13.9494 34.9531 14.0252C34.6288 14.0682 34.3192 14.0001 34.0245 13.8211C33.7297 13.6421 33.4768 13.378 33.2656 13.0288C33.0602 12.6789 32.9272 12.2752 32.8666 11.8177C32.8176 11.4471 32.8848 11.0198 33.0682 10.5359C33.2575 10.0512 33.5204 9.58923 33.857 9.14988C34.1987 8.70397 34.5768 8.33279 34.9913 8.03634C35.405 7.7341 35.803 7.55769 36.1852 7.50711C36.4574 7.47108 36.6774 7.48616 36.8453 7.55233C37.0123 7.61271 37.1059 7.71819 37.1258 7.86876C37.1411 7.98458 37.0921 8.12659 36.9789 8.29478C37.2051 8.31199 37.366 8.37024 37.4616 8.46954C37.5565 8.56305 37.6227 8.75169 37.6603 9.03545C37.697 9.31342 37.6768 9.6726 37.5996 10.113C37.5281 10.5526 37.404 10.9726 37.2272 11.3732L37.4042 11.5088L37.5345 11.4916C37.633 11.4786 37.7255 11.4427 37.812 11.3842C37.9035 11.319 37.9835 11.2554 38.0519 11.1933C38.1195 11.1254 38.2681 10.9791 38.4976 10.7543ZM36.4058 8.7065C35.9635 9.05967 35.5872 9.37758 35.2769 9.66023C34.9659 9.93709 34.7078 10.2128 34.5025 10.4875C34.2965 10.7564 34.1691 11.0178 34.1202 11.2717C34.0612 11.9395 34.0352 12.2994 34.0421 12.3515C34.0927 12.7337 34.3844 12.8896 34.9172 12.8191C35.1662 12.7861 35.5548 12.5167 36.083 12.0107C35.9485 11.7516 35.8648 11.4975 35.8318 11.2485C35.7835 10.8836 35.8098 10.503 35.9105 10.1067C36.0105 9.70456 36.1756 9.23783 36.4058 8.7065ZM36.2356 4.54829C36.1834 4.55519 36.1197 4.60782 36.0443 4.70618C35.9747 4.80378 35.9052 4.90138 35.8356 4.99897C35.3918 5.65285 35.0338 5.9978 34.7616 6.03382C34.501 6.06831 34.3558 5.97263 34.3259 5.74678C34.309 5.61937 34.4261 5.32399 34.6771 4.86062C34.928 4.39725 35.2162 3.9702 35.5417 3.57948C35.8721 3.18219 36.1705 2.96592 36.4369 2.93067C36.7033 2.89541 36.9365 3.03249 37.1365 3.34188C37.3131 3.60725 37.4888 3.95523 37.6636 4.38581C37.8384 4.8164 37.9339 5.0925 37.95 5.21411C37.9615 5.30098 37.9408 5.38916 37.8878 5.47867C37.8406 5.56741 37.7707 5.61791 37.678 5.63017C37.5275 5.6501 37.3415 5.58043 37.12 5.42118C36.8979 5.25613 36.669 5.01831 36.4334 4.70772C36.3768 4.59147 36.3108 4.53833 36.2356 4.54829ZM40.9436 5.8609L41.3171 5.81147C41.5512 5.22069 41.7778 4.7959 41.9969 4.53709C42.2153 4.27249 42.4837 4.11912 42.8022 4.07697C43.1208 4.03481 43.2896 4.08612 43.3088 4.2309C43.318 4.30039 43.2184 4.50508 43.01 4.84497C42.8016 5.18485 42.6475 5.46746 42.5476 5.6928C42.7476 5.68991 42.924 5.68718 43.0769 5.68463C43.2355 5.68131 43.3591 5.67969 43.4475 5.67978C43.1986 6.33732 42.8677 7.02045 42.4548 7.72917C42.2911 7.73905 42.1538 7.74837 42.043 7.75714C41.9315 7.76012 41.8174 7.76638 41.7008 7.77592C41.5892 7.7789 41.4516 7.78533 41.2879 7.79521C41.0419 8.34042 40.8382 8.82699 40.6768 9.25494C40.5204 9.67632 40.4062 10.0597 40.3341 10.4051C40.2677 10.7498 40.2541 11.0698 40.2932 11.3651C40.3461 11.7647 40.5318 11.9434 40.8503 11.9013C41.0703 11.8722 41.3417 11.7184 41.6642 11.44C41.9919 11.1551 42.4217 10.7299 42.9538 10.1645L43.0309 10.7465C41.6918 12.6502 40.6488 13.6515 39.9017 13.7504C39.6411 13.7849 39.4164 13.7115 39.2274 13.5303C39.0442 13.3483 38.9315 13.098 38.8894 12.7795C38.861 12.5652 38.8707 12.3047 38.9185 11.9978C38.9721 11.6902 39.0752 11.2229 39.2279 10.5957C39.156 10.676 39.0871 10.7558 39.021 10.8352C38.9599 10.9081 38.9014 10.9778 38.8453 11.0441C38.7943 11.1039 38.7383 11.1702 38.6772 11.2431C38.6154 11.3102 38.5539 11.3802 38.4929 11.4531L38.4135 10.8538C38.9542 10.2637 39.5712 9.27162 40.2647 7.87759C40.1771 7.8833 40.0956 7.89113 40.0203 7.9011C39.9443 7.90527 39.8541 7.91425 39.7499 7.92805C39.4082 7.97327 39.1565 8.03016 38.9947 8.09871C38.9275 8.12528 38.8636 8.15436 38.8029 8.18596C38.7473 8.211 38.7079 8.22505 38.6848 8.22811C38.6616 8.23118 38.6477 8.21534 38.6431 8.18059C38.6178 7.98949 38.6986 7.68712 38.8855 7.27348C39.0336 6.92389 39.1814 6.6598 39.3286 6.48122C39.4816 6.30186 39.6763 6.17003 39.9127 6.08572C40.154 5.99486 40.4976 5.91992 40.9436 5.8609Z"/>
</mask>
<path d="M7.21264 11.7216L6.8386 12.3014C7.36014 12.2795 7.82896 12.2823 8.24506 12.3097C8.6604 12.3313 9.04542 12.3688 9.40013 12.422C9.75985 12.4687 10.0769 12.5269 10.3513 12.5966C11.3169 12.8578 11.8449 13.33 11.9353 14.0133C11.9905 14.4303 11.8534 14.8639 11.5241 15.314C11.1948 15.7642 10.7439 16.1863 10.1714 16.5802C9.60474 16.9734 9.0086 17.2998 8.38299 17.5594C7.76394 17.824 7.19092 17.9911 6.66393 18.0609C5.78369 18.1774 5.07598 18.106 4.54082 17.8469C4.00489 17.5819 3.69937 17.1657 3.62427 16.5982C3.57215 16.2044 3.6614 15.7212 3.89203 15.1485C4.12265 14.5759 4.50108 13.8511 5.02731 12.9742C4.54937 13.0139 4.20429 12.9889 3.99207 12.8991C3.77908 12.8035 3.6584 12.6486 3.63004 12.4344C3.61242 12.3012 3.63665 12.1948 3.70273 12.1154C3.76882 12.0359 3.86365 11.9733 3.98722 11.9275C4.11003 11.8759 4.34789 11.8031 4.7008 11.7093C5.05951 11.6147 5.51803 11.4951 6.07635 11.3505C6.60488 10.4909 7.09249 9.83418 7.53917 9.38027C7.99088 8.9198 8.49956 8.62267 9.06521 8.48888C9.11077 8.47696 9.15961 8.46755 9.21173 8.46065C9.26964 8.45299 9.30051 8.46363 9.30435 8.49259C9.30894 8.52733 9.25461 8.6288 9.14134 8.797C9.03387 8.96443 8.8543 9.23273 8.60264 9.60191C8.35677 9.97033 8.06393 10.4068 7.72413 10.9114C8.79369 10.6225 9.66078 10.3399 10.3254 10.0633C10.995 9.78026 11.4892 9.48505 11.808 9.1777C12.1268 8.87035 12.2651 8.55742 12.2229 8.23891C12.1716 7.85091 11.9462 7.59495 11.5468 7.47103C11.1474 7.34712 10.5597 7.33651 9.78365 7.43921C9.35511 7.49593 8.86862 7.60451 8.32417 7.76495C7.78551 7.92462 7.29761 8.08937 6.86047 8.25918C6.42912 8.42823 6.04525 8.59983 5.70885 8.77398C5.37748 8.94158 5.21563 9.05433 5.22329 9.11224C5.22559 9.12962 5.24527 9.14469 5.28231 9.15747C5.57987 9.22415 5.73325 9.29224 5.74245 9.36173C5.75471 9.45439 5.34414 9.6914 4.51073 10.0727C3.67656 10.4483 3.1089 10.656 2.80777 10.6959C2.5935 10.7242 2.47218 10.6313 2.44383 10.417C2.4101 10.1622 2.5812 9.67404 2.95711 8.95255C3.33805 8.22449 3.70736 7.74252 4.06505 7.50662C4.18981 7.42529 4.48622 7.28294 4.95428 7.07958C5.42234 6.87621 5.93749 6.6725 6.49973 6.46846C7.06777 6.26365 7.64718 6.07795 8.23796 5.91138C8.82873 5.7448 9.35576 5.63086 9.81905 5.56955C10.9136 5.42469 11.762 5.51276 12.3642 5.83374C12.9657 6.14893 13.3056 6.60187 13.3837 7.19256C13.4366 7.59215 13.3602 7.99412 13.1544 8.39847C12.9545 8.80205 12.6099 9.20415 12.1208 9.60475C11.6318 10.0054 10.9751 10.3869 10.151 10.7493C9.33269 11.111 8.35323 11.4351 7.21264 11.7216ZM6.44016 12.964C6.18654 13.3629 5.95941 13.717 5.75876 14.0264C5.56314 14.3293 5.42471 14.5745 5.34346 14.762C5.26724 14.943 5.24062 15.1203 5.26362 15.294C5.30041 15.572 5.47524 15.8023 5.78813 15.9848C6.10604 16.1607 6.53428 16.213 7.07285 16.1418C7.57089 16.0759 8.08927 15.9189 8.62802 15.6708C9.17178 15.4162 9.61599 15.1217 9.96065 14.7873C10.3111 14.4522 10.4672 14.1399 10.4288 13.8503C10.3959 13.6013 10.2268 13.4145 9.92157 13.2899C9.61635 13.1653 9.16614 13.0805 8.57093 13.0356C7.97496 12.9848 7.26471 12.9609 6.44016 12.964ZM15.7396 9.83293C15.5948 9.85209 15.4485 9.81547 15.3008 9.72306C15.1588 9.62989 15.0767 9.49934 15.0545 9.3314C15.0208 9.07659 15.1048 8.77673 15.3067 8.43182C15.5085 8.08692 15.7397 7.89722 16.0003 7.86273C16.1741 7.83974 16.3261 7.87559 16.4565 7.97029C16.5861 8.0592 16.6643 8.205 16.6912 8.40769C16.7241 8.65671 16.6418 8.94749 16.4442 9.28005C16.2466 9.61261 16.0118 9.7969 15.7396 9.83293ZM16.8442 13.6377L16.9281 14.2718C16.4622 15.07 16.0105 15.6866 15.5731 16.1216C15.1349 16.5509 14.745 16.7881 14.4033 16.8333C13.9285 16.8961 13.5422 16.6939 13.2447 16.2265C12.9471 15.7591 12.7593 15.2301 12.6811 14.6394C12.6512 14.4136 12.646 14.1962 12.6655 13.9874C12.6843 13.7728 12.7167 13.5947 12.7627 13.453C12.8088 13.3114 12.8999 13.0872 13.0361 12.7805C13.6891 11.3918 14.3572 10.6523 15.0406 10.5618C15.3938 10.5151 15.5885 10.6278 15.6245 10.9C15.649 11.0853 15.5715 11.3902 15.392 11.8146C15.2182 12.2383 15.0527 12.546 14.8954 12.7377C14.456 13.2908 14.1707 13.6733 14.0397 13.8851C13.9144 14.0961 13.8678 14.3233 13.9 14.5665C13.9276 14.775 14.0288 14.9383 14.2035 15.0566C14.3783 15.1749 14.5902 15.2176 14.8392 15.1846C15.1114 15.1486 15.3966 15.0107 15.6948 14.7709C15.9981 14.5245 16.3812 14.1468 16.8442 13.6377ZM18.2059 13.7756L18.2347 13.9928C18.2799 14.3345 18.3991 14.5898 18.5923 14.7586C18.7856 14.9275 19.0183 14.9939 19.2905 14.9579C19.5742 14.9204 19.8579 14.8151 20.1414 14.642C20.4307 14.4682 20.7113 14.2513 20.9833 13.9914C21.2553 13.7315 21.584 13.3875 21.9693 12.9594L22.0394 13.4893C21.4892 14.3635 20.9555 15.0499 20.4381 15.5485C19.92 16.0413 19.3656 16.3268 18.7749 16.405C18.2595 16.4732 17.8247 16.3275 17.4707 15.9677C17.1167 15.608 16.8937 15.0807 16.8017 14.3857C16.7213 13.7777 16.7903 13.2087 17.009 12.679C17.2268 12.1434 17.6207 11.558 18.1907 10.9227C18.581 10.4881 18.9807 10.1464 19.3897 9.89785C19.7988 9.64926 20.1741 9.50236 20.5158 9.45714C20.788 9.42112 21.0107 9.45646 21.1839 9.56317C21.3622 9.66332 21.4678 9.83791 21.5007 10.0869C21.549 10.4518 21.4612 10.8346 21.2373 11.2355C21.0126 11.6305 20.6432 12.0448 20.129 12.4782C19.6198 12.905 18.9788 13.3375 18.2059 13.7756ZM18.2181 13.1995C18.7124 12.9279 19.125 12.6169 19.4558 12.2667C19.7865 11.9165 20.0208 11.5939 20.1585 11.2987C20.3012 10.997 20.3642 10.7824 20.3473 10.655C20.3297 10.5218 20.2601 10.4632 20.1385 10.4793C20.0342 10.4931 19.8722 10.5823 19.6524 10.747C19.4384 10.9108 19.2239 11.116 19.0091 11.3624C18.8 11.6081 18.6191 11.8884 18.4663 12.2032C18.3135 12.5181 18.2307 12.8502 18.2181 13.1995ZM27.616 10.6123C26.747 11.8822 26.342 12.7401 26.401 13.186C26.4339 13.4351 26.5517 13.5461 26.7544 13.5193C26.9224 13.4971 27.128 13.3815 27.3714 13.1725C27.6199 12.957 28.0008 12.5854 28.5144 12.0578L28.5937 12.6572C27.8787 13.5768 27.3249 14.2452 26.9322 14.6625C26.5396 15.0798 26.2044 15.3068 25.9264 15.3436C25.4515 15.4065 25.1727 15.1252 25.0899 14.4997C25.0654 14.3144 25.0702 14.1282 25.1044 13.941C25.1385 13.7538 25.1922 13.5581 25.2653 13.354C25.3435 13.1433 25.4631 12.8447 25.624 12.458C25.7842 12.0656 25.9701 11.6226 26.1818 11.1291C25.8739 11.3407 25.5039 11.7285 25.0718 12.2925C24.7889 12.6481 24.5533 12.9827 24.365 13.2964C24.1759 13.6043 23.9741 13.9492 23.7595 14.3311C23.5499 14.7065 23.3923 14.9631 23.2868 15.1008C23.1863 15.2319 23.0753 15.3055 22.9536 15.3216C22.7683 15.3462 22.5718 15.1748 22.3641 14.8075C22.1564 14.4402 22.0184 13.9988 21.9502 13.4834C21.9081 13.1649 21.9099 12.9113 21.9556 12.7225C22.0071 12.5331 22.1182 12.2591 22.2888 11.9006C22.6071 11.2339 22.8923 10.7395 23.1443 10.4174C23.3955 10.0895 23.6543 9.90797 23.9207 9.87271C24.106 9.84819 24.2579 9.8605 24.3764 9.90964C24.5006 9.95801 24.5716 10.0488 24.5892 10.182C24.5969 10.2399 24.5875 10.303 24.5612 10.3713C24.5349 10.4396 24.502 10.5029 24.4626 10.5611C24.429 10.6186 24.3526 10.7318 24.2335 10.9008C23.4527 12.0353 23.0822 12.7532 23.122 13.0543C23.1443 13.2222 23.2104 13.2989 23.3204 13.2844C23.3899 13.2752 23.5085 13.1475 23.6763 12.9014C23.8491 12.6487 24.0681 12.3222 24.3333 11.9217C24.6035 11.5147 24.9269 11.086 25.3033 10.6355C25.6855 10.1842 26.1275 9.73975 26.6294 9.3021C26.908 9.04721 27.1486 8.90635 27.3513 8.87953C27.4439 8.86726 27.5506 8.98279 27.6712 9.2261C27.7975 9.46864 27.878 9.72022 27.9125 9.98081C27.9293 10.1082 27.8305 10.3187 27.616 10.6123ZM30.9192 7.18758L31.2927 7.13815C31.5268 6.54737 31.7535 6.12258 31.9726 5.86377C32.1909 5.59917 32.4594 5.4458 32.7779 5.40364C33.0964 5.36149 33.2652 5.4128 33.2844 5.55758C33.2936 5.62707 33.194 5.83176 32.9856 6.17164C32.7772 6.51153 32.6231 6.79414 32.5233 7.01948C32.7232 7.01659 32.8997 7.01386 33.0525 7.01131C33.2112 7.00799 33.3347 7.00637 33.4231 7.00646C33.1743 7.664 32.8434 8.34713 32.4304 9.05585C32.2667 9.06573 32.1295 9.07505 32.0187 9.08382C31.9071 9.0868 31.793 9.09306 31.6765 9.1026C31.5649 9.10558 31.4273 9.11201 31.2636 9.12189C31.0175 9.6671 30.8138 10.1537 30.6524 10.5816C30.4961 11.003 30.3818 11.3864 30.3097 11.7318C30.2434 12.0765 30.2297 12.3965 30.2688 12.6918C30.3217 13.0914 30.5074 13.2701 30.8259 13.228C31.046 13.1988 31.3173 13.0451 31.6399 12.7667C31.9675 12.4817 32.3974 12.0566 32.9295 11.4912L33.0065 12.0732C31.6675 13.9769 30.6244 14.9782 29.8774 15.0771C29.6168 15.1115 29.392 15.0382 29.203 14.857C29.0198 14.675 28.9072 14.4247 28.865 14.1062C28.8367 13.8919 28.8464 13.6314 28.8942 13.3245C28.9477 13.0169 29.0509 12.5495 29.2036 11.9224C29.1317 12.0026 29.0627 12.0825 28.9966 12.1619C28.9356 12.2348 28.877 12.3044 28.821 12.3708C28.7699 12.4306 28.7139 12.4969 28.6528 12.5698C28.591 12.6369 28.5296 12.7069 28.4685 12.7798L28.3892 12.1804C28.9298 11.5904 29.5469 10.5983 30.2404 9.20427C30.1527 9.20998 30.0713 9.21781 29.996 9.22778C29.9199 9.23195 29.8298 9.24093 29.7255 9.25473C29.3839 9.29995 29.1321 9.35683 28.9703 9.42539C28.9031 9.45196 28.8392 9.48104 28.7786 9.51264C28.723 9.53768 28.6836 9.55173 28.6604 9.55479C28.6372 9.55786 28.6234 9.54202 28.6188 9.50727C28.5935 9.31617 28.6743 9.0138 28.8611 8.60016C29.0093 8.25057 29.157 7.98648 29.3043 7.80789C29.4573 7.62854 29.652 7.49671 29.8883 7.4124C30.1297 7.32154 30.4733 7.24659 30.9192 7.18758ZM38.4976 10.7543L38.5746 11.3363C38.2384 11.7343 37.9621 12.0066 37.7458 12.153C37.5295 12.2995 37.2026 12.3899 36.7653 12.4242C36.1304 13.4157 35.5264 13.9494 34.9531 14.0252C34.6288 14.0682 34.3192 14.0001 34.0245 13.8211C33.7297 13.6421 33.4768 13.378 33.2656 13.0288C33.0602 12.6789 32.9272 12.2752 32.8666 11.8177C32.8176 11.4471 32.8848 11.0198 33.0682 10.5359C33.2575 10.0512 33.5204 9.58923 33.857 9.14988C34.1987 8.70397 34.5768 8.33279 34.9913 8.03634C35.405 7.7341 35.803 7.55769 36.1852 7.50711C36.4574 7.47108 36.6774 7.48616 36.8453 7.55233C37.0123 7.61271 37.1059 7.71819 37.1258 7.86876C37.1411 7.98458 37.0921 8.12659 36.9789 8.29478C37.2051 8.31199 37.366 8.37024 37.4616 8.46954C37.5565 8.56305 37.6227 8.75169 37.6603 9.03545C37.697 9.31342 37.6768 9.6726 37.5996 10.113C37.5281 10.5526 37.404 10.9726 37.2272 11.3732L37.4042 11.5088L37.5345 11.4916C37.633 11.4786 37.7255 11.4427 37.812 11.3842C37.9035 11.319 37.9835 11.2554 38.0519 11.1933C38.1195 11.1254 38.2681 10.9791 38.4976 10.7543ZM36.4058 8.7065C35.9635 9.05967 35.5872 9.37758 35.2769 9.66023C34.9659 9.93709 34.7078 10.2128 34.5025 10.4875C34.2965 10.7564 34.1691 11.0178 34.1202 11.2717C34.0612 11.9395 34.0352 12.2994 34.0421 12.3515C34.0927 12.7337 34.3844 12.8896 34.9172 12.8191C35.1662 12.7861 35.5548 12.5167 36.083 12.0107C35.9485 11.7516 35.8648 11.4975 35.8318 11.2485C35.7835 10.8836 35.8098 10.503 35.9105 10.1067C36.0105 9.70456 36.1756 9.23783 36.4058 8.7065ZM36.2356 4.54829C36.1834 4.55519 36.1197 4.60782 36.0443 4.70618C35.9747 4.80378 35.9052 4.90138 35.8356 4.99897C35.3918 5.65285 35.0338 5.9978 34.7616 6.03382C34.501 6.06831 34.3558 5.97263 34.3259 5.74678C34.309 5.61937 34.4261 5.32399 34.6771 4.86062C34.928 4.39725 35.2162 3.9702 35.5417 3.57948C35.8721 3.18219 36.1705 2.96592 36.4369 2.93067C36.7033 2.89541 36.9365 3.03249 37.1365 3.34188C37.3131 3.60725 37.4888 3.95523 37.6636 4.38581C37.8384 4.8164 37.9339 5.0925 37.95 5.21411C37.9615 5.30098 37.9408 5.38916 37.8878 5.47867C37.8406 5.56741 37.7707 5.61791 37.678 5.63017C37.5275 5.6501 37.3415 5.58043 37.12 5.42118C36.8979 5.25613 36.669 5.01831 36.4334 4.70772C36.3768 4.59147 36.3108 4.53833 36.2356 4.54829ZM40.9436 5.8609L41.3171 5.81147C41.5512 5.22069 41.7778 4.7959 41.9969 4.53709C42.2153 4.27249 42.4837 4.11912 42.8022 4.07697C43.1208 4.03481 43.2896 4.08612 43.3088 4.2309C43.318 4.30039 43.2184 4.50508 43.01 4.84497C42.8016 5.18485 42.6475 5.46746 42.5476 5.6928C42.7476 5.68991 42.924 5.68718 43.0769 5.68463C43.2355 5.68131 43.3591 5.67969 43.4475 5.67978C43.1986 6.33732 42.8677 7.02045 42.4548 7.72917C42.2911 7.73905 42.1538 7.74837 42.043 7.75714C41.9315 7.76012 41.8174 7.76638 41.7008 7.77592C41.5892 7.7789 41.4516 7.78533 41.2879 7.79521C41.0419 8.34042 40.8382 8.82699 40.6768 9.25494C40.5204 9.67632 40.4062 10.0597 40.3341 10.4051C40.2677 10.7498 40.2541 11.0698 40.2932 11.3651C40.3461 11.7647 40.5318 11.9434 40.8503 11.9013C41.0703 11.8722 41.3417 11.7184 41.6642 11.44C41.9919 11.1551 42.4217 10.7299 42.9538 10.1645L43.0309 10.7465C41.6918 12.6502 40.6488 13.6515 39.9017 13.7504C39.6411 13.7849 39.4164 13.7115 39.2274 13.5303C39.0442 13.3483 38.9315 13.098 38.8894 12.7795C38.861 12.5652 38.8707 12.3047 38.9185 11.9978C38.9721 11.6902 39.0752 11.2229 39.2279 10.5957C39.156 10.676 39.0871 10.7558 39.021 10.8352C38.9599 10.9081 38.9014 10.9778 38.8453 11.0441C38.7943 11.1039 38.7383 11.1702 38.6772 11.2431C38.6154 11.3102 38.5539 11.3802 38.4929 11.4531L38.4135 10.8538C38.9542 10.2637 39.5712 9.27162 40.2647 7.87759C40.1771 7.8833 40.0956 7.89113 40.0203 7.9011C39.9443 7.90527 39.8541 7.91425 39.7499 7.92805C39.4082 7.97327 39.1565 8.03016 38.9947 8.09871C38.9275 8.12528 38.8636 8.15436 38.8029 8.18596C38.7473 8.211 38.7079 8.22505 38.6848 8.22811C38.6616 8.23118 38.6477 8.21534 38.6431 8.18059C38.6178 7.98949 38.6986 7.68712 38.8855 7.27348C39.0336 6.92389 39.1814 6.6598 39.3286 6.48122C39.4816 6.30186 39.6763 6.17003 39.9127 6.08572C40.154 5.99486 40.4976 5.91992 40.9436 5.8609Z" fill="#F47C4D"/>
<path d="M7.21264 11.7216L6.64497 9.46144C6.07181 9.6054 5.57476 9.96174 5.25441 10.4583L7.21264 11.7216ZM6.8386 12.3014L4.88037 11.0382C4.40841 11.7698 4.38366 12.7035 4.8162 13.4591C5.24873 14.2147 6.06641 14.6662 6.93629 14.6297L6.8386 12.3014ZM8.24506 12.3097L8.0918 14.635C8.10248 14.6357 8.11316 14.6363 8.12384 14.6369L8.24506 12.3097ZM9.40013 12.422L9.05429 14.7265C9.06961 14.7288 9.08494 14.731 9.1003 14.733L9.40013 12.422ZM10.3513 12.5966L10.9596 10.3471C10.9483 10.344 10.9368 10.341 10.9254 10.3381L10.3513 12.5966ZM10.1714 16.5802L8.85033 14.6605L8.84297 14.6656L10.1714 16.5802ZM8.38299 17.5594L7.48993 15.407C7.48231 15.4101 7.4747 15.4133 7.46711 15.4166L8.38299 17.5594ZM4.54082 17.8469L3.50809 19.9359C3.51378 19.9387 3.51947 19.9415 3.52517 19.9442L4.54082 17.8469ZM5.02731 12.9742L7.02546 14.1733C7.47528 13.4237 7.46773 12.4854 7.00591 11.7431C6.54409 11.0009 5.70569 10.5795 4.83449 10.6519L5.02731 12.9742ZM3.99207 12.8991L3.03821 15.0252C3.0535 15.0321 3.06886 15.0388 3.08429 15.0453L3.99207 12.8991ZM3.98722 11.9275L4.79734 14.1124C4.8285 14.1009 4.8594 14.0887 4.89004 14.0758L3.98722 11.9275ZM4.7008 11.7093L4.10648 9.45602L4.10194 9.45723L4.7008 11.7093ZM6.07635 11.3505L6.66061 13.6063C7.24382 13.4553 7.74587 13.0843 8.06143 12.5711L6.07635 11.3505ZM7.53917 9.38027L9.20014 11.0148L9.20271 11.0121L7.53917 9.38027ZM9.06521 8.48888L9.60157 10.7566C9.61948 10.7524 9.63733 10.748 9.65513 10.7433L9.06521 8.48888ZM9.14134 8.797L7.20845 7.49534C7.19891 7.50951 7.18952 7.52378 7.18029 7.53816L9.14134 8.797ZM8.60264 9.60191L6.67713 8.28935C6.67283 8.29566 6.66856 8.30199 6.66432 8.30834L8.60264 9.60191ZM7.72413 10.9114L5.79124 9.60975C5.24789 10.4166 5.26287 11.4761 5.82883 12.2672C6.39478 13.0584 7.39263 13.4148 8.33173 13.1611L7.72413 10.9114ZM10.3254 10.0633L11.2206 12.2149L11.2328 12.2098L10.3254 10.0633ZM8.32417 7.76495L7.66545 5.52966L7.66187 5.53072L8.32417 7.76495ZM6.86047 8.25918L6.01666 6.08698L6.01019 6.08952L6.86047 8.25918ZM5.70885 8.77398L6.7606 10.8535C6.76716 10.8501 6.7737 10.8468 6.78022 10.8434L5.70885 8.77398ZM5.28231 9.15747L4.52263 11.3605C4.60461 11.3888 4.6881 11.4124 4.77271 11.4314L5.28231 9.15747ZM4.51073 10.0727L5.4674 12.1976C5.47173 12.1957 5.47604 12.1937 5.48036 12.1918L4.51073 10.0727ZM2.95711 8.95255L0.892344 7.8722L0.890476 7.87579L2.95711 8.95255ZM4.06505 7.50662L2.79247 5.55441L2.78207 5.56128L4.06505 7.50662ZM6.49973 6.46846L5.70932 4.27628L5.70477 4.27793L6.49973 6.46846ZM12.3642 5.83374L11.2682 7.89023C11.273 7.89278 11.2778 7.89532 11.2826 7.89784L12.3642 5.83374ZM13.1544 8.39847L11.0775 7.34163C11.0738 7.34903 11.07 7.35645 11.0664 7.36389L13.1544 8.39847ZM10.151 10.7493L9.21287 8.61618L9.20899 8.6179L10.151 10.7493ZM6.44016 12.964L6.43151 10.6337C5.63751 10.6366 4.89966 11.0437 4.47365 11.7137L6.44016 12.964ZM5.75876 14.0264L3.80359 12.7585L3.80132 12.762L5.75876 14.0264ZM5.34346 14.762L3.2052 13.8356C3.20205 13.8429 3.19893 13.8501 3.19586 13.8575L5.34346 14.762ZM5.78813 15.9848L4.614 17.9977C4.62914 18.0065 4.64437 18.0152 4.65971 18.0236L5.78813 15.9848ZM8.62802 15.6708L9.60269 17.7875C9.60722 17.7854 9.61175 17.7833 9.61626 17.7812L8.62802 15.6708ZM9.96065 14.7873L8.35012 13.1031C8.34609 13.107 8.34207 13.1108 8.33807 13.1147L9.96065 14.7873ZM8.57093 13.0356L8.37316 15.3575C8.38056 15.3581 8.38796 15.3587 8.39537 15.3592L8.57093 13.0356ZM5.25441 10.4583L4.88037 11.0382L8.79683 13.5646L9.17087 12.9848L5.25441 10.4583ZM6.93629 14.6297C7.39398 14.6105 7.77691 14.6142 8.0918 14.635L8.39832 9.98443C7.88101 9.95033 7.32629 9.94856 6.74091 9.97312L6.93629 14.6297ZM8.12384 14.6369C8.47553 14.6552 8.78467 14.6861 9.05429 14.7265L9.74596 10.1175C9.30618 10.0515 8.84527 10.0075 8.36628 9.98254L8.12384 14.6369ZM9.1003 14.733C9.39188 14.7708 9.61405 14.8137 9.7772 14.8551L10.9254 10.3381C10.5398 10.2401 10.1278 10.1666 9.69995 10.111L9.1003 14.733ZM9.74298 14.8462C10.0105 14.9185 10.0129 14.9685 9.918 14.8836C9.86348 14.8349 9.7921 14.7544 9.73087 14.64C9.66917 14.5247 9.63738 14.4115 9.62515 14.3191L14.2455 13.7076C13.9776 11.6834 12.354 10.7242 10.9596 10.3471L9.74298 14.8462ZM9.62515 14.3191C9.60439 14.1622 9.62608 14.0307 9.65199 13.9488C9.67486 13.8764 9.69108 13.8729 9.64334 13.9381L13.4049 16.6899C13.9697 15.9178 14.4024 14.8928 14.2455 13.7076L9.62515 14.3191ZM9.64334 13.9381C9.50139 14.1322 9.25791 14.3801 8.85034 14.6605L11.4925 18.4999C12.2299 17.9925 12.8882 17.3962 13.4049 16.6899L9.64334 13.9381ZM8.84297 14.6656C8.41004 14.966 7.95957 15.2121 7.48993 15.407L9.27604 19.7118C10.0576 19.3875 10.7994 18.9808 11.4999 18.4948L8.84297 14.6656ZM7.46711 15.4166C6.99371 15.6189 6.628 15.715 6.35819 15.7507L6.96967 20.371C7.75383 20.2673 8.53417 20.029 9.29887 19.7022L7.46711 15.4166ZM6.35819 15.7507C5.72052 15.8351 5.52568 15.7346 5.55647 15.7495L3.52517 19.9442C4.62629 20.4774 5.84685 20.5196 6.96967 20.371L6.35819 15.7507ZM5.57355 15.7579C5.58734 15.7647 5.68757 15.8199 5.78832 15.9571C5.89175 16.098 5.92631 16.231 5.93444 16.2924L1.31409 16.9039C1.49641 18.2816 2.31261 19.3449 3.50809 19.9359L5.57355 15.7579ZM5.93444 16.2924C5.94704 16.3876 5.93338 16.4195 5.94368 16.3637C5.95393 16.3082 5.9824 16.196 6.05362 16.0191L1.73043 14.278C1.42549 15.0351 1.18784 15.95 1.31409 16.9039L5.93444 16.2924ZM6.05362 16.0191C6.21857 15.6095 6.5271 15.0038 7.02546 14.1733L3.02915 11.7751C2.47506 12.6985 2.02673 13.5423 1.73043 14.278L6.05362 16.0191ZM4.83449 10.6519C4.75738 10.6583 4.69724 10.6611 4.65231 10.6619C4.60684 10.6627 4.58346 10.6613 4.5787 10.661C4.57295 10.6606 4.59798 10.6619 4.64632 10.6719C4.69324 10.6815 4.78359 10.7037 4.89984 10.7528L3.08429 15.0453C3.85307 15.3705 4.68917 15.3406 5.22013 15.2965L4.83449 10.6519ZM4.94592 10.7729C5.12117 10.8515 5.36639 11.0047 5.58018 11.2792C5.79957 11.5608 5.90567 11.8676 5.94022 12.1286L1.31987 12.7401C1.46404 13.8295 2.15914 14.6309 3.03821 15.0252L4.94592 10.7729ZM5.94022 12.1286C5.9809 12.4359 5.95977 13.0459 5.49434 13.6055L1.91113 10.6252C1.31352 11.3437 1.24394 12.1664 1.31987 12.7401L5.94022 12.1286ZM5.49434 13.6055C5.2373 13.9146 4.95284 14.0548 4.79734 14.1124L3.1771 9.74249C2.77446 9.89178 2.30034 10.1573 1.91113 10.6252L5.49434 13.6055ZM4.89004 14.0758C4.8583 14.0891 4.84494 14.0932 4.86038 14.0879C4.8732 14.0835 4.89845 14.0751 4.93909 14.0627C5.02127 14.0376 5.13937 14.004 5.29967 13.9613L4.10194 9.45723C3.76466 9.54691 3.37682 9.65625 3.0844 9.77913L4.89004 14.0758ZM5.29513 13.9625C5.64918 13.8692 6.10402 13.7505 6.66061 13.6063L5.4921 9.09457C4.93203 9.23962 4.46984 9.36018 4.10648 9.45602L5.29513 13.9625ZM8.06143 12.5711C8.54466 11.7852 8.92668 11.2927 9.20013 11.0148L5.8782 7.74577C5.2583 8.37571 4.6651 9.19665 4.09128 10.1299L8.06143 12.5711ZM9.20271 11.0121C9.3812 10.8302 9.51023 10.7782 9.60157 10.7566L8.52884 6.22113C7.48888 6.46709 6.60056 7.0094 5.87563 7.74839L9.20271 11.0121ZM9.65513 10.7433C9.59719 10.7585 9.55029 10.7665 9.51747 10.7708L8.90599 6.15047C8.76893 6.16861 8.62435 6.19546 8.47529 6.23447L9.65513 10.7433ZM9.51747 10.7708C9.42844 10.7826 9.01789 10.8381 8.51864 10.6659C8.23417 10.5678 7.86386 10.3754 7.54381 10.0102C7.21221 9.63176 7.04671 9.19533 6.99417 8.79833L11.6145 8.18684C11.5601 7.77536 11.3893 7.32675 11.049 6.93845C10.7203 6.56334 10.3379 6.36329 10.038 6.25987C9.50788 6.07707 9.05294 6.13103 8.90599 6.15047L9.51747 10.7708ZM6.99417 8.79833C6.94928 8.45914 6.99099 8.18998 7.01696 8.05818C7.046 7.9108 7.0839 7.7973 7.10777 7.73191C7.15452 7.60388 7.20071 7.5171 7.2127 7.49471C7.24025 7.44326 7.24881 7.43541 7.20845 7.49534L11.0742 10.0987C11.1471 9.9904 11.2395 9.84771 11.3214 9.69479C11.3605 9.62166 11.4265 9.49248 11.4857 9.3304C11.5111 9.26085 11.6946 8.79156 11.6145 8.18684L6.99417 8.79833ZM7.18029 7.53816C7.09161 7.67631 6.92776 7.92168 6.67713 8.28935L10.5281 10.9145C10.7808 10.5438 10.9761 10.2526 11.1024 10.0558L7.18029 7.53816ZM6.66432 8.30834C6.42078 8.67327 6.12985 9.10694 5.79124 9.60975L9.65702 12.2131C9.99802 11.7067 10.2928 11.2674 10.541 10.8955L6.66432 8.30834ZM8.33173 13.1611C9.45306 12.8583 10.4267 12.5452 11.2206 12.2149L9.43023 7.91181C8.89488 8.13455 8.13433 8.38681 7.11653 8.6617L8.33173 13.1611ZM11.2328 12.2098C12.0187 11.8775 12.8107 11.448 13.4255 10.8552L10.1905 7.50015C10.1907 7.49999 10.1405 7.54705 10.0032 7.62905C9.86884 7.70933 9.67817 7.80696 9.41804 7.91692L11.2328 12.2098ZM13.4255 10.8552C14.0604 10.243 14.706 9.23955 14.5331 7.93317L9.91274 8.54465C9.87397 8.25166 9.92715 7.97913 10.0194 7.77045C10.0616 7.67494 10.1058 7.60635 10.1372 7.56375C10.1683 7.52157 10.1895 7.5011 10.1905 7.50015L13.4255 10.8552ZM14.5331 7.93317C14.456 7.35079 14.2256 6.73979 13.7643 6.21593C13.3107 5.70082 12.7536 5.40556 12.2373 5.24536L10.8563 9.6967C10.7393 9.66042 10.4946 9.5551 10.2664 9.29594C10.0305 9.02805 9.93847 8.73902 9.91274 8.54465L14.5331 7.93317ZM12.2373 5.24536C11.3443 4.96833 10.3466 5.01407 9.47791 5.12903L10.0894 9.74939C10.3974 9.70862 10.6176 9.69743 10.7644 9.70008C10.9199 9.70289 10.9326 9.72037 10.8563 9.6967L12.2373 5.24536ZM9.47791 5.12903C8.89968 5.20556 8.29191 5.34506 7.66545 5.52966L8.98288 10.0002C9.44533 9.86395 9.81054 9.78629 10.0894 9.74939L9.47791 5.12903ZM7.66187 5.53072C7.07345 5.70515 6.5237 5.89003 6.01667 6.08699L7.70428 10.4314C8.07152 10.2887 8.49758 10.1441 8.98647 9.99917L7.66187 5.53072ZM6.01019 6.08952C5.51937 6.28187 5.05951 6.48605 4.63748 6.70455L6.78022 10.8434C7.03098 10.7136 7.33887 10.5746 7.71075 10.4288L6.01019 6.08952ZM4.65711 6.6945C4.46308 6.79264 4.22375 6.92109 4.00689 7.07217C3.9086 7.14064 3.7129 7.28303 3.52019 7.49633C3.44057 7.58446 2.76537 8.30158 2.91312 9.41799L7.53347 8.8065C7.61041 9.38788 7.44986 9.84747 7.32534 10.1044C7.20122 10.3604 7.05709 10.5337 6.97847 10.6207C6.82431 10.7914 6.68835 10.8842 6.67098 10.8963C6.61598 10.9346 6.62326 10.9229 6.7606 10.8535L4.65711 6.6945ZM2.91312 9.41799C3.02395 10.2555 3.52746 10.7603 3.82242 10.9863C4.11204 11.2082 4.38821 11.3141 4.52263 11.3605L6.04199 6.95445C6.13937 6.98803 6.38718 7.08001 6.65712 7.28685C6.93241 7.49779 7.42493 7.9864 7.53347 8.8065L2.91312 9.41799ZM4.77271 11.4314C4.87192 11.4536 4.80855 11.4477 4.675 11.3884C4.61307 11.3609 4.41993 11.2722 4.20314 11.0887C4.0039 10.9201 3.53702 10.459 3.43227 9.66747L8.05262 9.05599C7.94327 8.22973 7.45377 7.73405 7.21388 7.53104C6.95645 7.31319 6.70464 7.1902 6.56603 7.12866C6.2791 7.00129 5.99026 6.928 5.79191 6.88355L4.77271 11.4314ZM3.43227 9.66747C3.3723 9.21438 3.45783 8.83514 3.55191 8.57855C3.64407 8.32722 3.76176 8.14401 3.84131 8.0344C3.99335 7.82494 4.14196 7.69999 4.18655 7.66309C4.28796 7.57916 4.345 7.5525 4.2787 7.59078C4.17095 7.65297 3.94038 7.77103 3.5411 7.95373L5.48036 12.1918C5.91448 11.9931 6.3059 11.802 6.60873 11.6272C6.74771 11.547 6.95719 11.4198 7.15817 11.2535C7.25255 11.1754 7.43774 11.0137 7.61314 10.7721C7.74662 10.5882 8.1719 9.95724 8.05262 9.05599L3.43227 9.66747ZM3.55406 7.94785C3.16509 8.12298 2.87035 8.2443 2.6586 8.32178C2.5535 8.36024 2.48422 8.38222 2.44499 8.3934C2.39841 8.40667 2.42493 8.3959 2.50202 8.3857L3.11351 13.0061C3.81077 12.9138 4.68923 12.548 5.4674 12.1976L3.55406 7.94785ZM2.50202 8.3857C2.75099 8.35275 3.37048 8.33568 3.97343 8.79769C4.57638 9.2597 4.72105 9.8623 4.754 10.1113L0.133648 10.7227C0.194956 11.186 0.414467 11.9422 1.13873 12.4972C1.86299 13.0521 2.65027 13.0674 3.11351 13.0061L2.50202 8.3857ZM4.754 10.1113C4.77252 10.2512 4.77171 10.3646 4.76748 10.4404C4.76318 10.5173 4.75429 10.5741 4.74842 10.6058C4.73749 10.6649 4.72951 10.6777 4.74601 10.6306C4.76103 10.5877 4.78915 10.5157 4.83689 10.4101C4.88403 10.3058 4.94548 10.1795 5.02375 10.0293L0.890476 7.87579C0.676637 8.28621 0.48468 8.69818 0.347703 9.08899C0.239865 9.39666 0.0409033 10.022 0.133648 10.7227L4.754 10.1113ZM5.02188 10.0329C5.17054 9.74876 5.28875 9.56781 5.36953 9.46237C5.45658 9.34878 5.45611 9.38068 5.34803 9.45196L2.78207 5.56128C1.91177 6.13525 1.31694 7.06072 0.892348 7.8722L5.02188 10.0329ZM5.33761 9.45879C5.28672 9.49197 5.26087 9.50445 5.28381 9.49227C5.30054 9.48339 5.33423 9.46616 5.38974 9.4395C5.50123 9.38596 5.66291 9.31246 5.88291 9.21687L4.02565 4.94228C3.60575 5.12472 3.11386 5.34496 2.79249 5.55444L5.33761 9.45879ZM5.88291 9.21687C6.30027 9.03553 6.77012 8.84937 7.2947 8.65899L5.70477 4.27793C5.10486 4.49564 4.5444 4.71689 4.02565 4.94228L5.88291 9.21687ZM7.29015 8.66064C7.80528 8.4749 8.33196 8.30605 8.87035 8.15425L7.60556 3.66851C6.9624 3.84985 6.33026 4.05239 5.70932 4.27628L7.29015 8.66064ZM8.87035 8.15425C9.38511 8.00911 9.79984 7.92273 10.1248 7.87972L9.51331 3.25937C8.91168 3.33899 8.27235 3.4805 7.60556 3.66851L8.87035 8.15425ZM10.1248 7.87972C10.5409 7.82466 10.8373 7.82424 11.0356 7.84482C11.2326 7.86527 11.2899 7.90181 11.2682 7.89023L13.4602 3.77725C12.2368 3.12518 10.8169 3.08684 9.51331 3.25937L10.1248 7.87972ZM11.2826 7.89784C11.3367 7.92617 11.2817 7.90898 11.2062 7.80838C11.1695 7.75936 11.1371 7.7025 11.1128 7.64184C11.0887 7.58177 11.0779 7.53143 11.0736 7.4983L15.6939 6.88682C15.5013 5.43162 14.61 4.37968 13.4458 3.76964L11.2826 7.89784ZM11.0736 7.4983C11.0669 7.44778 11.0692 7.39799 11.0768 7.3584C11.0839 7.32117 11.0913 7.31448 11.0775 7.34163L15.2313 9.4553C15.623 8.68559 15.8163 7.81117 15.6939 6.88682L11.0736 7.4983ZM11.0664 7.36389C11.0601 7.37653 10.9737 7.53215 10.6442 7.80197L13.5975 11.4075C14.2462 10.8761 14.8488 10.2276 15.2425 9.43305L11.0664 7.36389ZM10.6442 7.80197C10.3718 8.02513 9.91803 8.30606 9.21287 8.61619L11.0892 12.8825C12.0323 12.4677 12.8917 11.9856 13.5975 11.4075L10.6442 7.80197ZM9.20899 8.6179C8.54235 8.91253 7.69475 9.19777 6.64497 9.46144L7.78031 13.9817C9.0117 13.6724 10.123 13.3095 11.093 12.8807L9.20899 8.6179ZM4.47365 11.7137C4.2228 12.1083 3.99955 12.4563 3.80359 12.7585L7.71394 15.2944C7.91927 14.9778 8.15028 14.6175 8.40667 14.2143L4.47365 11.7137ZM3.80132 12.762C3.58016 13.1044 3.36169 13.4744 3.2052 13.8356L7.48172 15.6884C7.48035 15.6916 7.49458 15.6591 7.53744 15.5832C7.57866 15.5102 7.63694 15.4136 7.71621 15.2909L3.80132 12.762ZM3.19586 13.8575C2.97865 14.3731 2.86976 14.9675 2.95344 15.5998L7.57379 14.9883C7.61149 15.2731 7.55582 15.5128 7.49107 15.6665L3.19586 13.8575ZM2.95344 15.5998C3.1112 16.7918 3.87689 17.5677 4.614 17.9977L6.96226 13.9718C7.00592 13.9973 7.13984 14.0837 7.27821 14.2659C7.42752 14.4625 7.53742 14.7134 7.57379 14.9883L2.95344 15.5998ZM4.65971 18.0236C5.58268 18.5345 6.57804 18.5579 7.37859 18.4519L6.76711 13.8316C6.64511 13.8477 6.60628 13.8399 6.63043 13.8429C6.65868 13.8463 6.76969 13.8646 6.91655 13.9459L4.65971 18.0236ZM7.37859 18.4519C8.14541 18.3505 8.88912 18.1161 9.60269 17.7875L7.65334 13.5541C7.28942 13.7217 6.99636 13.8013 6.76711 13.8316L7.37859 18.4519ZM9.61626 17.7812C10.3381 17.4432 11.0131 17.013 11.5832 16.4599L8.33807 13.1147C8.21893 13.2303 8.00545 13.3892 7.63977 13.5604L9.61626 17.7812ZM11.5712 16.4715C12.1053 15.9608 12.9249 14.9494 12.739 13.5446L8.11866 14.1561C8.06562 13.7553 8.16726 13.4376 8.25595 13.2601C8.33442 13.1031 8.40126 13.0542 8.35012 13.1031L11.5712 16.4715ZM12.739 13.5446C12.562 12.2069 11.6042 11.4598 10.8023 11.1324L9.04086 15.4474C8.9659 15.4168 8.76003 15.3197 8.54963 15.0873C8.31793 14.8313 8.16443 14.5019 8.11866 14.1561L12.739 13.5446ZM10.8023 11.1324C10.1591 10.8699 9.4213 10.7628 8.7465 10.7119L8.39537 15.3592C8.63129 15.3771 8.804 15.4004 8.92374 15.4229C9.04963 15.4466 9.07698 15.4621 9.04086 15.4474L10.8023 11.1324ZM8.7687 10.7136C8.08394 10.6553 7.30124 10.6305 6.43151 10.6337L6.44881 15.2943C7.22817 15.2914 7.86598 15.3143 8.37316 15.3575L8.7687 10.7136ZM15.3008 9.72306L14.0222 11.6713C14.0364 11.6806 14.0508 11.6898 14.0652 11.6988L15.3008 9.72306ZM16.4565 7.97029L15.087 9.85575C15.104 9.86805 15.1211 9.88012 15.1383 9.89196L16.4565 7.97029ZM16.4442 9.28005L14.4408 8.08979L16.4442 9.28005ZM16.8442 13.6377L19.1543 13.3319C19.0353 12.4328 18.4055 11.6844 17.5399 11.4136C16.6743 11.1429 15.7303 11.3989 15.1201 12.0699L16.8442 13.6377ZM16.9281 14.2718L18.9406 15.4465C19.2014 14.9998 19.3061 14.4789 19.2383 13.9661L16.9281 14.2718ZM15.5731 16.1216L17.2038 17.7863C17.208 17.7822 17.2122 17.7781 17.2163 17.7739L15.5731 16.1216ZM13.2447 16.2265L11.2789 17.478L13.2447 16.2265ZM12.6655 13.9874L14.9858 14.2041L14.987 14.1901L12.6655 13.9874ZM12.7627 13.453L10.5467 12.7321L12.7627 13.453ZM13.0361 12.7805L10.9273 11.7889C10.9201 11.8042 10.9131 11.8195 10.9062 11.835L13.0361 12.7805ZM15.392 11.8146L13.2457 10.9068C13.2424 10.9147 13.2391 10.9226 13.2359 10.9305L15.392 11.8146ZM14.8954 12.7377L13.0939 11.2595C13.0862 11.269 13.0785 11.2785 13.0708 11.2881L14.8954 12.7377ZM14.0397 13.8851L12.0581 12.6588C12.0505 12.671 12.0431 12.6832 12.0358 12.6955L14.0397 13.8851ZM15.6948 14.7709L17.1551 16.5869L17.1642 16.5796L15.6948 14.7709ZM15.4338 7.52275C15.9252 7.45772 16.3174 7.61037 16.5364 7.74728L14.0652 11.6988C14.5796 12.0206 15.2644 12.2465 16.0453 12.1431L15.4338 7.52275ZM16.5794 7.77483C16.7593 7.89294 16.9513 8.06959 17.1054 8.31478C17.2597 8.56012 17.3362 8.81044 17.3647 9.02566L12.7443 9.63714C12.8556 10.4783 13.3156 11.2076 14.0222 11.6713L16.5794 7.77483ZM17.3647 9.02566C17.397 9.2699 17.3616 9.45329 17.3361 9.5444C17.3116 9.63152 17.2908 9.65516 17.3179 9.6088L13.2954 7.25485C12.9685 7.81352 12.6141 8.65288 12.7443 9.63714L17.3647 9.02566ZM17.3179 9.6088C17.3178 9.60904 17.3145 9.6146 17.3077 9.62455C17.3009 9.63449 17.29 9.64974 17.2743 9.66905C17.2436 9.70693 17.1902 9.76624 17.1095 9.83245C16.9367 9.97421 16.6632 10.1256 16.3061 10.1729L15.6946 5.55255C14.4121 5.72228 13.6669 6.62002 13.2954 7.25485L17.3179 9.6088ZM16.3061 10.1729C16.1464 10.194 15.9406 10.1949 15.7099 10.1405C15.4755 10.0852 15.2639 9.9842 15.087 9.85575L17.826 6.08484C17.1679 5.60687 16.4039 5.45868 15.6946 5.55255L16.3061 10.1729ZM15.1383 9.89196C14.5708 9.50267 14.4132 8.95687 14.381 8.71343L19.0013 8.10195C18.9155 7.45313 18.6014 6.61574 17.7747 6.04862L15.1383 9.89196ZM14.381 8.71343C14.3482 8.46597 14.3838 8.27721 14.4119 8.17785C14.4388 8.083 14.4635 8.0516 14.4408 8.08979L18.4476 10.4703C18.776 9.91767 19.1313 9.08421 19.0013 8.10195L14.381 8.71343ZM14.4408 8.08979C14.4477 8.07825 14.5165 7.96375 14.6814 7.83434C14.8625 7.69228 15.1207 7.56419 15.4338 7.52275L16.0453 12.1431C17.2821 11.9794 18.0425 11.1522 18.4476 10.4703L14.4408 8.08979ZM14.534 13.9434L14.6179 14.5775L19.2383 13.9661L19.1543 13.3319L14.534 13.9434ZM14.9155 13.0971C14.5062 13.7983 14.1718 14.2287 13.9298 14.4694L17.2163 17.7739C17.8491 17.1446 18.4181 16.3418 18.9406 15.4465L14.9155 13.0971ZM13.9424 14.457C13.8789 14.5192 13.8289 14.5628 13.7925 14.5921C13.7558 14.6217 13.7385 14.632 13.7408 14.6306C13.7429 14.6294 13.7727 14.6113 13.8294 14.5894C13.8867 14.5673 13.9774 14.539 14.0976 14.5231L14.7091 19.1435C15.8105 18.9977 16.6537 18.3252 17.2038 17.7863L13.9424 14.457ZM14.0976 14.5231C14.2874 14.498 14.5638 14.5205 14.8386 14.6644C15.0916 14.7969 15.1987 14.9565 15.2104 14.975L11.2789 17.478C11.5883 17.9639 12.0372 18.4584 12.6764 18.7931C13.3374 19.1393 14.0444 19.2314 14.7091 19.1435L14.0976 14.5231ZM15.2104 14.975C15.1087 14.8152 15.0283 14.6136 14.9913 14.3337L10.3709 14.9452C10.4902 15.8466 10.7856 16.7031 11.2789 17.478L15.2104 14.975ZM14.9913 14.3337C14.9824 14.2663 14.9838 14.2247 14.9857 14.2041L10.3453 13.7707C10.3082 14.1677 10.3201 14.5608 10.3709 14.9452L14.9913 14.3337ZM14.987 14.1901C14.9891 14.1664 14.9912 14.1479 14.9929 14.1342C14.9947 14.1204 14.9961 14.1126 14.9966 14.11C14.997 14.1073 14.9964 14.1115 14.9939 14.1216C14.9914 14.1316 14.9867 14.1495 14.9787 14.174L10.5467 12.7321C10.4276 13.0983 10.372 13.4648 10.344 13.7847L14.987 14.1901ZM14.9787 14.174C14.9774 14.1782 14.9886 14.1442 15.0244 14.0562C15.058 13.9737 15.1044 13.8647 15.166 13.726L10.9062 11.835C10.7675 12.1475 10.6331 12.4667 10.5467 12.7321L14.9787 14.174ZM15.1449 13.7721C15.4204 13.1863 15.6354 12.8801 15.7561 12.7465C15.8813 12.6079 15.7523 12.8183 15.3463 12.872L14.7348 8.25165C13.6455 8.39582 12.8407 9.02123 12.2978 9.62212C11.7503 10.2281 11.3048 10.986 10.9273 11.7889L15.1449 13.7721ZM15.3463 12.872C15.2908 12.8793 14.8251 12.9414 14.2837 12.6279C13.6164 12.2415 13.3678 11.6103 13.3143 11.2057L17.9347 10.5942C17.8451 9.91747 17.4812 9.09382 16.6193 8.59471C15.8832 8.16846 15.1436 8.19756 14.7348 8.25165L15.3463 12.872ZM13.3143 11.2057C13.2897 11.0199 13.2995 10.8798 13.3069 10.811C13.3148 10.7382 13.3256 10.6962 13.3263 10.6935C13.3274 10.6888 13.3236 10.7046 13.3097 10.7442C13.296 10.7829 13.2755 10.8366 13.2457 10.9068L17.5382 12.7224C17.6548 12.4468 17.7656 12.1471 17.8432 11.8417C17.912 11.5712 18.0036 11.1148 17.9347 10.5942L13.3143 11.2057ZM13.2359 10.9305C13.1709 11.0889 13.12 11.1947 13.0853 11.2592C13.0474 11.3297 13.0472 11.3164 13.0939 11.2595L16.6969 14.2159C17.077 13.7527 17.3474 13.1881 17.5481 12.6987L13.2359 10.9305ZM13.0708 11.2881C12.6421 11.8278 12.272 12.3131 12.0581 12.6588L16.0212 15.1114C16.0211 15.1115 16.0253 15.1048 16.0351 15.0901C16.0447 15.0758 16.0579 15.0563 16.0754 15.0313C16.1109 14.9807 16.1584 14.9151 16.2199 14.8326C16.3434 14.667 16.5088 14.4532 16.72 14.1873L13.0708 11.2881ZM12.0358 12.6955C11.6435 13.3563 11.489 14.1101 11.5899 14.8722L16.2102 14.2607C16.2262 14.3816 16.2255 14.5261 16.1937 14.6815C16.1618 14.837 16.1056 14.97 16.0435 15.0746L12.0358 12.6955ZM11.5899 14.8722C11.7051 15.7432 12.1735 16.4965 12.8973 16.9864L15.5098 13.1269C15.6675 13.2336 15.8392 13.3946 15.9778 13.6185C16.1166 13.8427 16.1849 14.0693 16.2102 14.2607L11.5899 14.8722ZM12.8973 16.9864C13.6316 17.4835 14.4437 17.5876 15.1449 17.4948L14.5335 12.8745C14.6234 12.8626 14.7703 12.856 14.9536 12.8929C15.1429 12.931 15.3351 13.0086 15.5098 13.1269L12.8973 16.9864ZM15.1449 17.4948C15.9749 17.385 16.6496 16.9934 17.1551 16.5869L14.2346 12.9548C14.1955 12.9862 14.1978 12.978 14.2428 12.9563C14.2899 12.9335 14.3889 12.8936 14.5335 12.8745L15.1449 17.4948ZM17.1642 16.5796C17.6017 16.2242 18.0761 15.7466 18.5682 15.2055L15.1201 12.0699C14.6863 12.5469 14.3946 12.8248 14.2255 12.9622L17.1642 16.5796ZM18.2059 13.7756L17.0566 11.7484C16.2304 12.2169 15.7711 13.1398 15.8957 14.0814L18.2059 13.7756ZM20.1414 14.642L18.9412 12.6445C18.9366 12.6473 18.9319 12.6501 18.9273 12.653L20.1414 14.642ZM20.9833 13.9914L22.5932 15.6762L20.9833 13.9914ZM21.9693 12.9594L24.2794 12.6536C24.1602 11.7524 23.5276 11.0028 22.6593 10.7336C21.7909 10.4644 20.8453 10.7248 20.2371 11.4005L21.9693 12.9594ZM22.0394 13.4893L24.0117 14.7305C24.3014 14.2701 24.4209 13.7228 24.3496 13.1835L22.0394 13.4893ZM20.4381 15.5485L22.0441 17.237C22.0478 17.2335 22.0515 17.2299 22.0552 17.2264L20.4381 15.5485ZM17.4707 15.9677L15.8098 17.6023L17.4707 15.9677ZM17.009 12.679L19.1631 13.5678L19.1675 13.557L17.009 12.679ZM18.1907 10.9227L16.4568 9.36581L16.4563 9.3664L18.1907 10.9227ZM21.1839 9.56317L19.9617 11.5472C19.9883 11.5636 20.0152 11.5795 20.0424 11.5948L21.1839 9.56317ZM21.2373 11.2355L23.263 12.3874C23.2659 12.3822 23.2689 12.377 23.2718 12.3718L21.2373 11.2355ZM20.129 12.4782L21.626 14.264L21.6308 14.26L20.129 12.4782ZM18.2181 13.1995L15.8893 13.1149C15.8588 13.9532 16.2813 14.7432 16.9954 15.1833C17.7096 15.6235 18.6051 15.6458 19.3403 15.2418L18.2181 13.1995ZM20.1585 11.2987L18.052 10.3022L18.0467 10.3135L20.1585 11.2987ZM19.6524 10.747L18.2555 8.88174C18.2489 8.88668 18.2423 8.89165 18.2358 8.89666L19.6524 10.747ZM19.0091 11.3624L17.2525 9.83107C17.2464 9.83808 17.2404 9.84513 17.2343 9.85221L19.0091 11.3624ZM15.8957 14.0814L15.9245 14.2986L20.5448 13.6871L20.5161 13.4699L15.8957 14.0814ZM15.9245 14.2986C16.0182 15.0069 16.3116 15.8602 17.0588 16.5133L20.1258 13.004C20.4866 13.3193 20.5415 13.6621 20.5448 13.6871L15.9245 14.2986ZM17.0588 16.5133C17.7953 17.1569 18.7121 17.3851 19.5962 17.2681L18.9847 12.6477C19.1227 12.6295 19.3221 12.6288 19.5515 12.6943C19.785 12.761 19.9799 12.8765 20.1258 13.004L17.0588 16.5133ZM19.5962 17.2681C20.2493 17.1817 20.8389 16.9464 21.3555 16.6311L18.9273 12.653C18.901 12.669 18.8936 12.6704 18.9049 12.6662C18.9171 12.6616 18.9445 12.6531 18.9847 12.6477L19.5962 17.2681ZM21.3415 16.6395C21.7943 16.3675 22.2106 16.0418 22.5932 15.6762L19.3734 12.3066C19.212 12.4608 19.0671 12.5689 18.9412 12.6445L21.3415 16.6395ZM22.5932 15.6762C22.9235 15.3607 23.2952 14.9697 23.7014 14.5182L20.2371 11.4005C19.8728 11.8053 19.5872 12.1023 19.3734 12.3066L22.5932 15.6762ZM19.6591 13.2651L19.7292 13.795L24.3496 13.1835L24.2794 12.6536L19.6591 13.2651ZM20.0671 12.2481C19.5776 13.0259 19.158 13.5458 18.821 13.8706L22.0552 17.2264C22.753 16.5539 23.4009 15.701 24.0117 14.7305L20.0671 12.2481ZM18.8321 13.86C18.5976 14.083 18.4802 14.0934 18.4691 14.0948L19.0806 18.7152C20.2509 18.5603 21.2423 17.9996 22.0441 17.237L18.8321 13.86ZM18.4691 14.0948C18.516 14.0886 18.6413 14.0832 18.8031 14.1374C18.9674 14.1925 19.0778 14.2785 19.1316 14.3332L15.8098 17.6023C16.6948 18.5016 17.8656 18.876 19.0806 18.7152L18.4691 14.0948ZM19.1316 14.3332C19.1867 14.3891 19.1965 14.4238 19.1843 14.3948C19.1699 14.3609 19.1364 14.2649 19.1119 14.08L14.4916 14.6915C14.6246 15.6971 14.986 16.7652 15.8098 17.6023L19.1316 14.3332ZM19.1119 14.08C19.0812 13.8475 19.1112 13.6935 19.1631 13.5678L14.8548 11.7901C14.4694 12.724 14.3614 13.7078 14.4916 14.6915L19.1119 14.08ZM19.1675 13.557C19.2482 13.3587 19.4573 13.0005 19.9252 12.4791L16.4563 9.3664C15.7842 10.1154 15.2054 10.9281 14.8504 11.8009L19.1675 13.557ZM19.9246 12.4797C20.1948 12.1787 20.4232 11.9967 20.6 11.8893L18.1795 7.90644C17.5382 8.29617 16.9672 8.79741 16.4568 9.36581L19.9246 12.4797ZM20.6 11.8893C20.7102 11.8223 20.7856 11.7876 20.8273 11.7713C20.8688 11.755 20.8652 11.7615 20.8216 11.7673L20.2101 7.14696C19.4492 7.24766 18.7643 7.55102 18.1795 7.90644L20.6 11.8893ZM20.8216 11.7673C20.7477 11.7771 20.3825 11.8064 19.9617 11.5472L22.4062 7.57911C21.6389 7.10647 20.8283 7.06514 20.2101 7.14696L20.8216 11.7673ZM20.0424 11.5948C19.7817 11.4483 19.5587 11.2329 19.4029 10.9753C19.2555 10.7317 19.2068 10.5152 19.1905 10.3927L23.8109 9.78118C23.7062 8.99043 23.2903 8.07372 22.3254 7.53158L20.0424 11.5948ZM19.1905 10.3927C19.1758 10.2813 19.1857 10.188 19.1997 10.1268C19.2127 10.0701 19.2247 10.0599 19.2028 10.0991L23.2718 12.3718C23.679 11.6427 23.9399 10.7559 23.8109 9.78118L19.1905 10.3927ZM19.2116 10.0835C19.1717 10.1538 19.0223 10.3633 18.6272 10.6963L21.6308 14.26C22.2641 13.7263 22.8536 13.1073 23.263 12.3874L19.2116 10.0835ZM18.632 10.6923C18.2603 11.0038 17.7448 11.3583 17.0566 11.7484L19.3552 15.8028C20.2128 15.3167 20.9793 14.8061 21.626 14.264L18.632 10.6923ZM19.3403 15.2418C20.0117 14.8729 20.627 14.4205 21.1498 13.8669L17.7617 10.6666C17.623 10.8134 17.4132 10.9828 17.0958 11.1572L19.3403 15.2418ZM21.1498 13.8669C21.5779 13.4137 21.9896 12.8855 22.2703 12.2839L18.0467 10.3135C18.0529 10.3002 18.0421 10.3265 17.9937 10.3931C17.9461 10.4587 17.8719 10.5499 17.7617 10.6666L21.1498 13.8669ZM22.265 12.2952C22.3657 12.0823 22.4709 11.8332 22.5489 11.5674C22.614 11.3455 22.7291 10.8905 22.6575 10.3493L18.0371 10.9607C18.0068 10.7316 18.0225 10.5526 18.0355 10.4557C18.0493 10.3536 18.0684 10.2837 18.0766 10.2556C18.0917 10.2043 18.094 10.2133 18.052 10.3022L22.265 12.2952ZM22.6575 10.3493C22.6081 9.97596 22.4333 9.27562 21.7818 8.72772C21.0886 8.1448 20.3065 8.10647 19.8327 8.16917L20.4442 12.7895C20.0921 12.8361 19.4055 12.819 18.782 12.2947C18.2001 11.8053 18.0689 11.2008 18.0371 10.9607L22.6575 10.3493ZM19.8327 8.16917C19.3539 8.23254 18.9868 8.42057 18.8148 8.51523C18.6053 8.63061 18.4149 8.76237 18.2555 8.88174L21.0493 12.6122C21.1097 12.5669 21.1102 12.5718 21.0627 12.598C21.037 12.6121 20.9777 12.6434 20.8902 12.6772C20.808 12.709 20.6531 12.7619 20.4442 12.7895L19.8327 8.16917ZM18.2358 8.89666C17.8752 9.17269 17.549 9.49108 17.2525 9.83107L20.7656 12.8938C20.8989 12.7409 21.0015 12.6489 21.069 12.5973L18.2358 8.89666ZM17.2343 9.85221C16.8873 10.26 16.6013 10.7087 16.3698 11.1859L20.5628 13.2206C20.6368 13.0681 20.7127 12.9562 20.7838 12.8727L17.2343 9.85221ZM16.3698 11.1859C16.0757 11.7918 15.9137 12.4415 15.8893 13.1149L20.5468 13.2841C20.5478 13.2588 20.5512 13.2444 20.5628 13.2206L16.3698 11.1859ZM27.616 10.6123L25.7345 9.2373C25.7203 9.25673 25.7064 9.27639 25.6928 9.29625L27.616 10.6123ZM27.3714 13.1725L28.8895 14.9405L28.8986 14.9326L27.3714 13.1725ZM28.5144 12.0578L30.8246 11.7521C30.7074 10.8671 30.0951 10.1269 29.2478 9.84591C28.4005 9.56497 27.4672 9.79274 26.8445 10.4324L28.5144 12.0578ZM28.5937 12.6572L30.4333 14.0876C30.8162 13.5952 30.9857 12.9698 30.9039 12.3514L28.5937 12.6572ZM26.9322 14.6625L28.6295 16.2593L26.9322 14.6625ZM25.2653 13.354L23.0806 12.5433C23.0775 12.5515 23.0746 12.5597 23.0716 12.5678L25.2653 13.354ZM25.624 12.458L27.7754 13.3536C27.7774 13.3487 27.7795 13.3437 27.7815 13.3387L25.624 12.458ZM26.1818 11.1291L28.3235 12.0475C28.7324 11.094 28.4617 9.98503 27.6594 9.32717C26.8572 8.66931 25.7167 8.62102 24.8617 9.20873L26.1818 11.1291ZM25.0718 12.2925L26.8955 13.7432C26.9042 13.7321 26.9129 13.721 26.9215 13.7098L25.0718 12.2925ZM24.365 13.2964L26.3507 14.5159C26.3548 14.5092 26.3589 14.5025 26.3629 14.4958L24.365 13.2964ZM23.7595 14.3311L21.7279 13.1896L21.7248 13.1951L23.7595 14.3311ZM23.2868 15.1008L21.4371 13.6834L23.2868 15.1008ZM21.9556 12.7225L19.7069 12.1111C19.7013 12.1319 19.6959 12.1528 19.6908 12.1737L21.9556 12.7225ZM22.2888 11.9006L20.1858 10.8966L20.1846 10.8993L22.2888 11.9006ZM23.1443 10.4174L24.9796 11.8534C24.9844 11.8472 24.9892 11.841 24.994 11.8348L23.1443 10.4174ZM24.3764 9.90964L23.4835 12.0621C23.4992 12.0686 23.5151 12.075 23.531 12.0812L24.3764 9.90964ZM24.4626 10.5611L22.5328 9.25485C22.5043 9.29705 22.4771 9.34017 22.4513 9.38416L24.4626 10.5611ZM24.2335 10.9008L22.3286 9.55851C22.3237 9.56552 22.3188 9.57255 22.314 9.5796L24.2335 10.9008ZM23.6763 12.9014L21.7528 11.586L21.7508 11.5888L23.6763 12.9014ZM24.3333 11.9217L22.3919 10.6327L22.3904 10.635L24.3333 11.9217ZM25.3033 10.6355L23.5251 9.12939C23.5217 9.13335 23.5184 9.13733 23.515 9.14131L25.3033 10.6355ZM26.6294 9.3021L28.161 11.0584C28.175 11.0462 28.1888 11.0339 28.2025 11.0213L26.6294 9.3021ZM27.6712 9.2261L25.5832 10.2609C25.5902 10.275 25.5973 10.289 25.6046 10.3029L27.6712 9.2261ZM25.6928 9.29625C25.2257 9.97885 24.8306 10.6257 24.5531 11.2134C24.3296 11.687 23.966 12.5491 24.0908 13.4918L28.7111 12.8803C28.7324 13.0412 28.7261 13.1663 28.7185 13.2401C28.7107 13.3151 28.699 13.3611 28.6961 13.372C28.6918 13.388 28.7046 13.3368 28.7678 13.2029C28.8953 12.9327 29.1372 12.5156 29.5391 11.9283L25.6928 9.29625ZM24.0908 13.4918C24.1409 13.8702 24.3026 14.5738 24.9154 15.1516C25.6142 15.8105 26.4626 15.9086 27.0602 15.8295L26.4487 11.2091C26.8435 11.1569 27.5317 11.2128 28.1127 11.7606C28.6077 12.2273 28.694 12.7509 28.7111 12.8803L24.0908 13.4918ZM27.0602 15.8295C27.9248 15.7151 28.5626 15.2212 28.8895 14.9405L25.8534 11.4045C25.8096 11.4421 25.8239 11.4233 25.8928 11.3846C25.9541 11.3501 26.1478 11.249 26.4487 11.2091L27.0602 15.8295ZM28.8986 14.9326C29.2271 14.6476 29.6667 14.2149 30.1842 13.6832L26.8445 10.4324C26.335 10.9559 26.0126 11.2663 25.8442 11.4124L28.8986 14.9326ZM26.2042 12.3636L26.2835 12.9629L30.9039 12.3514L30.8246 11.7521L26.2042 12.3636ZM26.7541 11.2268C26.0481 12.1347 25.5492 12.7317 25.235 13.0657L28.6295 16.2593C29.1005 15.7587 29.7093 15.0188 30.4333 14.0876L26.7541 11.2268ZM25.235 13.0657C25.112 13.1964 25.0603 13.2294 25.0797 13.2162C25.0928 13.2073 25.1415 13.1755 25.2247 13.1397C25.3082 13.1038 25.4425 13.057 25.6206 13.0335L26.2321 17.6538C27.3709 17.5031 28.1898 16.7267 28.6295 16.2593L25.235 13.0657ZM25.6206 13.0335C25.7527 13.016 25.9797 13.008 26.2557 13.088C26.5461 13.1722 26.8095 13.3308 27.0162 13.5393C27.3919 13.9184 27.4115 14.2801 27.4001 14.194L22.7797 14.8055C22.8511 15.3448 23.0515 16.1599 23.7061 16.8203C24.4677 17.5887 25.4416 17.7584 26.2321 17.6538L25.6206 13.0335ZM27.4001 14.194C27.408 14.2538 27.4055 14.3118 27.3968 14.3592L22.8119 13.5227C22.7349 13.9445 22.7228 14.3751 22.7797 14.8055L27.4001 14.194ZM27.3968 14.3592C27.4053 14.3131 27.423 14.2408 27.459 14.1402L23.0716 12.5678C22.9614 12.8755 22.8718 13.1945 22.8119 13.5227L27.3968 14.3592ZM27.4501 14.1647C27.5123 13.9971 27.618 13.7317 27.7754 13.3536L23.4727 11.5624C23.3082 11.9576 23.1747 12.2895 23.0806 12.5433L27.4501 14.1647ZM27.7815 13.3387C27.9354 12.9617 28.1159 12.5316 28.3235 12.0475L24.0401 10.2107C23.8244 10.7136 23.633 11.1695 23.4665 11.5773L27.7815 13.3387ZM24.8617 9.20873C24.2441 9.63329 23.6943 10.2588 23.2221 10.8751L26.9215 13.7098C27.1018 13.4745 27.2475 13.3046 27.3594 13.1873C27.477 13.0641 27.5237 13.0344 27.5018 13.0495L24.8617 9.20873ZM23.2481 10.8417C22.9162 11.259 22.6186 11.6779 22.367 12.097L26.3629 14.4958C26.4879 14.2876 26.6616 14.0372 26.8955 13.7432L23.2481 10.8417ZM22.3792 12.0769C22.1715 12.4152 21.9543 12.7867 21.7279 13.1896L25.7911 15.4726C25.9939 15.1117 26.1803 14.7933 26.3507 14.5159L22.3792 12.0769ZM21.7248 13.1951C21.6297 13.3655 21.5548 13.4936 21.4983 13.5856C21.4359 13.6873 21.4184 13.7078 21.4371 13.6834L25.1365 16.5181C25.3563 16.2313 25.5864 15.8391 25.7941 15.4671L21.7248 13.1951ZM21.4371 13.6834C21.5783 13.4992 21.9681 13.1014 22.6479 13.0115L23.2594 17.6318C24.1824 17.5097 24.7944 16.9647 25.1365 16.5181L21.4371 13.6834ZM22.6479 13.0115C23.4493 12.9054 23.9994 13.2812 24.199 13.4553C24.3842 13.6168 24.4366 13.7382 24.3926 13.6604L20.3357 15.9545C20.4994 16.2441 20.7538 16.6348 21.1356 16.9677C21.5317 17.3132 22.2726 17.7624 23.2594 17.6318L22.6479 13.0115ZM24.3926 13.6604C24.3615 13.6055 24.2983 13.4637 24.2604 13.1777L19.6401 13.7891C19.7386 14.5339 19.9513 15.2748 20.3357 15.9545L24.3926 13.6604ZM24.2604 13.1777C24.2554 13.1396 24.2527 13.1116 24.2514 13.0927C24.2501 13.0736 24.2502 13.0668 24.2502 13.0707C24.2502 13.0745 24.2499 13.0935 24.2465 13.1252C24.2431 13.1567 24.236 13.2069 24.2204 13.2714L19.6908 12.1737C19.5473 12.766 19.5816 13.3473 19.6401 13.7891L24.2604 13.1777ZM24.2043 13.334C24.1968 13.3616 24.201 13.3396 24.2372 13.2504C24.2708 13.1675 24.3212 13.0528 24.393 12.902L20.1846 10.8993C20.0017 11.2834 19.8155 11.7119 19.7069 12.1111L24.2043 13.334ZM24.3917 12.9047C24.6854 12.2896 24.8842 11.9753 24.9796 11.8534L21.309 8.98145C20.9003 9.50373 20.5289 10.1782 20.1858 10.8966L24.3917 12.9047ZM24.994 11.8348C25.0168 11.805 24.9793 11.8629 24.8651 11.943C24.7418 12.0295 24.5252 12.1434 24.2265 12.1829L23.615 7.56254C22.4754 7.71336 21.7241 8.43947 21.2945 9.00006L24.994 11.8348ZM24.2265 12.1829C24.1794 12.1891 23.8784 12.2259 23.4835 12.0621L25.2693 7.75716C24.6375 7.49508 24.0326 7.50726 23.615 7.56254L24.2265 12.1829ZM23.531 12.0812C23.2649 11.9776 22.9474 11.7826 22.6866 11.4488C22.4264 11.1159 22.3156 10.7638 22.279 10.4877L26.8994 9.87625C26.8452 9.46698 26.6901 9.0029 26.359 8.57917C26.0272 8.15459 25.6121 7.89003 25.2218 7.73808L23.531 12.0812ZM22.279 10.4877C22.2242 10.0732 22.3077 9.73857 22.3867 9.53348L26.7357 11.2091C26.8674 10.8674 26.9696 10.4066 26.8994 9.87625L22.279 10.4877ZM22.3867 9.53348C22.4214 9.44354 22.4692 9.34878 22.5328 9.25485L26.3924 11.8674C26.5348 11.657 26.6484 11.4357 26.7357 11.2091L22.3867 9.53348ZM22.4513 9.38416C22.466 9.35905 22.4744 9.34637 22.4704 9.35254C22.4679 9.3565 22.4609 9.36722 22.448 9.38631C22.422 9.42483 22.3831 9.48121 22.3286 9.55851L26.1385 12.2431C26.2466 12.0896 26.3818 11.8954 26.4738 11.7381L22.4513 9.38416ZM22.314 9.5796C21.9008 10.18 21.55 10.7355 21.2993 11.2213C21.1746 11.4627 21.0472 11.7394 20.9525 12.0311C20.8738 12.2736 20.7338 12.7704 20.8119 13.36L25.4322 12.7486C25.4645 12.9925 25.4443 13.181 25.4292 13.2783C25.4133 13.3813 25.3925 13.4485 25.3856 13.4696C25.3736 13.5065 25.3801 13.4764 25.4408 13.3589C25.5605 13.1269 25.7855 12.7562 26.1531 12.222L22.314 9.5796ZM20.8119 13.36C20.8466 13.6227 20.9554 14.2168 21.4235 14.7596C22.0254 15.4577 22.8808 15.6932 23.6262 15.5946L23.0147 10.9742C23.2831 10.9387 23.6373 10.9452 24.0212 11.0805C24.4143 11.2192 24.7273 11.4542 24.9531 11.716C25.355 12.1821 25.4197 12.6538 25.4322 12.7486L20.8119 13.36ZM23.6262 15.5946C24.2035 15.5182 24.5981 15.2521 24.7526 15.1397C24.9414 15.0024 25.0818 14.8614 25.1685 14.7681C25.3438 14.5795 25.4912 14.3762 25.6018 14.214L21.7508 11.5888C21.6936 11.6727 21.6978 11.6563 21.7545 11.5954C21.7819 11.5659 21.8691 11.474 22.0109 11.3708C22.0848 11.3171 22.1986 11.2418 22.3496 11.1701C22.4981 11.0996 22.7247 11.0126 23.0147 10.9742L23.6262 15.5946ZM25.5999 14.2168C25.7817 13.9509 26.0077 13.6138 26.2762 13.2085L22.3904 10.635C22.1285 11.0306 21.9165 11.3466 21.7528 11.586L25.5999 14.2168ZM26.2747 13.2107C26.4894 12.8873 26.7594 12.5272 27.0915 12.1297L23.515 9.14131C23.0944 9.64477 22.7177 10.1421 22.3919 10.6327L26.2747 13.2107ZM27.0815 12.1416C27.3792 11.7901 27.7367 11.4284 28.161 11.0584L25.0978 7.54578C24.5184 8.05107 23.9918 8.57828 23.5251 9.12939L27.0815 12.1416ZM28.2025 11.0213C28.2601 10.9687 28.2574 10.9805 28.196 11.0164C28.14 11.0492 27.9532 11.1505 27.657 11.1897L27.0455 6.56935C26.1137 6.69267 25.4298 7.24111 25.0563 7.58287L28.2025 11.0213ZM27.657 11.1897C26.5557 11.3355 25.8993 10.6577 25.7883 10.5375C25.6205 10.3556 25.561 10.2161 25.5832 10.2609L29.7591 8.19128C29.6607 7.99274 29.4876 7.67382 29.2132 7.37648C28.9956 7.14071 28.2396 6.41133 27.0455 6.56935L27.657 11.1897ZM25.6046 10.3029C25.6085 10.3106 25.6083 10.3115 25.6066 10.3064C25.6059 10.304 25.605 10.3009 25.6042 10.2973C25.6034 10.2936 25.6027 10.29 25.6023 10.2866L30.2226 9.67507C30.1511 9.13441 29.9845 8.62283 29.7378 8.14928L25.6046 10.3029ZM25.6023 10.2866C25.558 9.95179 25.6036 9.68759 25.6388 9.54254C25.6753 9.39192 25.7206 9.28845 25.7416 9.24376C25.7807 9.16057 25.7969 9.15185 25.7345 9.2373L29.4974 11.9872C29.6495 11.7791 29.8224 11.5184 29.9603 11.2247C30.0669 10.9978 30.3202 10.4126 30.2226 9.67507L25.6023 10.2866ZM31.2927 7.13815L31.5985 9.44832C32.436 9.33748 33.1479 8.78205 33.4591 7.99667L31.2927 7.13815ZM31.9726 5.86377L33.7511 7.36956C33.7574 7.36209 33.7637 7.35457 33.7699 7.34701L31.9726 5.86377ZM32.5233 7.01948L30.3926 6.07572C30.0709 6.80196 30.1413 7.64204 30.5794 8.30463C31.0174 8.96722 31.7628 9.36105 32.557 9.34956L32.5233 7.01948ZM33.0525 7.01131L33.0915 9.34132L33.1013 9.34112L33.0525 7.01131ZM33.4231 7.00646L35.6026 7.83129C35.8734 7.11568 35.7757 6.31271 35.3411 5.68295C34.9066 5.05319 34.1905 4.67688 33.4254 4.67614L33.4231 7.00646ZM32.4304 9.05585L32.5708 11.3819C33.3486 11.335 34.0515 10.9024 34.4439 10.2291L32.4304 9.05585ZM32.0187 9.08382L32.0809 11.4133C32.1215 11.4122 32.1621 11.4101 32.2026 11.4069L32.0187 9.08382ZM31.6765 9.1026L31.7387 11.4321C31.7813 11.431 31.8239 11.4286 31.8664 11.4252L31.6765 9.1026ZM31.2636 9.12189L31.1232 6.7958C30.2593 6.84793 29.4955 7.37451 29.1395 8.16336L31.2636 9.12189ZM30.6524 10.5816L28.472 9.75932L28.4677 9.77092L30.6524 10.5816ZM30.3097 11.7318L28.0286 11.2554C28.0261 11.2674 28.0237 11.2794 28.0214 11.2913L30.3097 11.7318ZM31.6399 12.7667L33.1624 14.5309L33.1692 14.525L31.6399 12.7667ZM32.9295 11.4912L35.2397 11.1854C35.1216 10.2935 34.5006 9.54914 33.6442 9.27317C32.7879 8.9972 31.8491 9.23889 31.2325 9.8941L32.9295 11.4912ZM33.0065 12.0732L34.9126 13.4138C35.2492 12.9352 35.3935 12.3475 35.3167 11.7674L33.0065 12.0732ZM29.203 14.857L27.5606 16.5101C27.5704 16.5198 27.5802 16.5294 27.5901 16.5389L29.203 14.857ZM28.8942 13.3245L26.5984 12.9247C26.596 12.9385 26.5937 12.9522 26.5916 12.966L28.8942 13.3245ZM29.2036 11.9224L31.4677 12.4737C31.7205 11.4355 31.2348 10.3584 30.2894 9.86052C29.3439 9.36263 28.181 9.57154 27.468 10.3674L29.2036 11.9224ZM28.9966 12.1619L30.783 13.6583L30.7882 13.6521L28.9966 12.1619ZM28.821 12.3708L30.5937 13.8834L30.6012 13.8745L28.821 12.3708ZM28.6528 12.5698L30.3667 14.1488C30.3915 14.1218 30.4157 14.0943 30.4393 14.0662L28.6528 12.5698ZM28.4685 12.7798L26.1583 13.0856C26.2796 14.0017 26.9307 14.7596 27.8181 15.0176C28.7056 15.2755 29.6615 14.9846 30.2549 14.2762L28.4685 12.7798ZM28.3892 12.1804L26.671 10.6063C26.2053 11.1145 25.9886 11.8028 26.079 12.4862L28.3892 12.1804ZM30.2404 9.20427L32.3268 10.2422C32.6981 9.49567 32.6424 8.6076 32.1805 7.91341C31.7186 7.21922 30.921 6.82471 30.089 6.87888L30.2404 9.20427ZM29.996 9.22778L30.1236 11.5546C30.1832 11.5513 30.2426 11.5458 30.3017 11.538L29.996 9.22778ZM28.9703 9.42539L29.8272 11.5924C29.8447 11.5855 29.8621 11.5784 29.8794 11.5711L28.9703 9.42539ZM28.7786 9.51264L29.7352 11.6375C29.7758 11.6193 29.8159 11.5998 29.8554 11.5792L28.7786 9.51264ZM28.8611 8.60016L30.9848 9.55949C30.9923 9.54295 30.9995 9.52632 31.0066 9.50961L28.8611 8.60016ZM29.3043 7.80789L27.5316 6.29528C27.5231 6.30526 27.5146 6.31531 27.5063 6.32543L29.3043 7.80789ZM29.8883 7.4124L30.6713 9.60724C30.684 9.60269 30.6967 9.59804 30.7094 9.59328L29.8883 7.4124ZM31.2249 9.49776L31.5985 9.44832L30.987 4.82797L30.6135 4.8774L31.2249 9.49776ZM33.4591 7.99667C33.5535 7.75867 33.6329 7.58853 33.6943 7.47334C33.7594 7.35129 33.7824 7.3326 33.7511 7.36956L30.1941 4.35798C29.7254 4.91159 29.3871 5.62148 29.1263 6.27962L33.4591 7.99667ZM33.7699 7.34701C33.7194 7.40827 33.6296 7.49602 33.4938 7.57362C33.3555 7.65261 33.2118 7.69686 33.0836 7.71382L32.4721 3.09347C31.5279 3.21844 30.7406 3.69545 30.1753 4.38053L33.7699 7.34701ZM33.0836 7.71382C33.0815 7.7141 33.0309 7.72108 32.9449 7.71946C32.8663 7.71799 32.6906 7.70848 32.4658 7.64014C32.2371 7.57063 31.8834 7.41674 31.5598 7.07923C31.214 6.71847 31.0293 6.27934 30.9742 5.86332L35.5946 5.25184C35.5299 4.76343 35.317 4.26359 34.9241 3.85382C34.5535 3.46728 34.1341 3.27605 33.821 3.18089C33.2548 3.0088 32.7341 3.0588 32.4721 3.09347L33.0836 7.71382ZM30.9742 5.86332C30.933 5.55196 30.9667 5.30657 30.987 5.18987C31.01 5.05831 31.0401 4.95892 31.0578 4.90534C31.0768 4.84755 31.0939 4.80556 31.1032 4.78373C31.1129 4.76061 31.1197 4.74664 31.1212 4.7436C31.1234 4.73901 31.116 4.7544 31.0931 4.79488C31.0712 4.83367 31.0404 4.88599 30.999 4.95357L34.9722 7.38972C35.0913 7.19545 35.2136 6.98512 35.312 6.78283C35.3598 6.68467 35.427 6.53775 35.484 6.36475C35.5128 6.27758 35.6703 5.82378 35.5946 5.25184L30.9742 5.86332ZM30.999 4.95357C30.7651 5.33494 30.5518 5.71637 30.3926 6.07572L34.6539 7.96324C34.6944 7.87191 34.7893 7.68812 34.9722 7.38972L30.999 4.95357ZM32.557 9.34956C32.7582 9.34664 32.9364 9.34389 33.0915 9.3413L33.0136 4.68131C32.8629 4.68383 32.6883 4.68653 32.4896 4.6894L32.557 9.34956ZM33.1013 9.34112C33.254 9.33792 33.3578 9.33672 33.4209 9.33678L33.4254 4.67614C33.3117 4.67603 33.1684 4.67805 33.0038 4.6815L33.1013 9.34112ZM31.2437 6.18162C31.0472 6.70073 30.7755 7.26738 30.4169 7.88265L34.4439 10.2291C34.9113 9.42688 35.3013 8.62726 35.6026 7.83129L31.2437 6.18162ZM32.29 6.72976C32.1179 6.74015 31.9651 6.75045 31.8348 6.76077L32.2026 11.4069C32.2938 11.3997 32.4155 11.3913 32.5708 11.3819L32.29 6.72976ZM31.9565 6.75433C31.8003 6.75851 31.6435 6.76719 31.4865 6.78004L31.8664 11.4252C31.9425 11.4189 32.014 11.4151 32.0809 11.4133L31.9565 6.75433ZM31.6142 6.77311C31.4676 6.77703 31.3021 6.785 31.1232 6.7958L31.404 11.448C31.5524 11.439 31.6621 11.4341 31.7387 11.4321L31.6142 6.77311ZM29.1395 8.16336C28.879 8.74061 28.6551 9.27393 28.472 9.75933L32.8329 11.4039C32.9726 11.0334 33.1561 10.5936 33.3876 10.0804L29.1395 8.16336ZM28.4677 9.77092C28.2813 10.2733 28.1299 10.7705 28.0286 11.2554L32.5908 12.2082C32.6338 12.0023 32.7109 11.7327 32.8372 11.3923L28.4677 9.77092ZM28.0214 11.2913C27.9159 11.8392 27.8814 12.4142 27.9586 12.9976L32.579 12.3861C32.578 12.3787 32.5708 12.3137 32.598 12.1723L28.0214 11.2913ZM27.9586 12.9976C28.0176 13.4427 28.1968 14.1934 28.8318 14.8046C29.5598 15.5052 30.4596 15.6271 31.1316 15.5381L30.5202 10.9178C30.8737 10.871 31.5214 10.9246 32.0637 11.4465C32.513 11.879 32.573 12.3405 32.579 12.3861L27.9586 12.9976ZM31.1316 15.5381C32.0555 15.4159 32.7621 14.8764 33.1624 14.5309L30.1174 11.0025C30.0329 11.0754 30.0101 11.0835 30.0455 11.0634C30.0658 11.0519 30.1138 11.0263 30.1877 10.9988C30.2615 10.9713 30.3741 10.9371 30.5202 10.9178L31.1316 15.5381ZM33.1692 14.525C33.5838 14.1644 34.0756 13.6736 34.6265 13.0882L31.2325 9.8941C30.7192 10.4395 30.3512 10.7991 30.1106 11.0084L33.1692 14.525ZM30.6193 11.7969L30.6963 12.3789L35.3167 11.7674L35.2397 11.1854L30.6193 11.7969ZM31.1005 10.7325C30.4719 11.6262 29.9746 12.2171 29.6062 12.5709C29.424 12.7457 29.3134 12.8235 29.273 12.8484C29.2253 12.8777 29.333 12.7985 29.5716 12.7669L30.1831 17.3872C31.3289 17.2356 32.2343 16.5084 32.8338 15.933C33.5083 15.2854 34.2021 14.4239 34.9126 13.4138L31.1005 10.7325ZM29.5716 12.7669C29.7481 12.7435 29.9818 12.7495 30.2364 12.8326C30.4913 12.9158 30.6851 13.0496 30.816 13.1751L27.5901 16.5389C28.2924 17.2123 29.224 17.5142 30.1831 17.3872L29.5716 12.7669ZM30.8454 13.2038C31.1093 13.4659 31.1666 13.7356 31.1752 13.8005L26.5548 14.4119C26.6477 15.1138 26.9304 15.884 27.5606 16.5101L30.8454 13.2038ZM31.1752 13.8005C31.1813 13.8467 31.1788 13.8618 31.1797 13.8369C31.1806 13.8128 31.1843 13.7629 31.1967 13.6831L26.5916 12.966C26.5231 13.4056 26.4876 13.9039 26.5548 14.4119L31.1752 13.8005ZM31.1899 13.7243C31.2295 13.4968 31.3173 13.0917 31.4677 12.4737L26.9394 11.3711C26.7845 12.0074 26.6659 12.537 26.5984 12.9247L31.1899 13.7243ZM27.468 10.3674C27.3778 10.468 27.2901 10.5695 27.205 10.6718L30.7882 13.6521C30.8353 13.5955 30.8855 13.5373 30.9391 13.4775L27.468 10.3674ZM27.2102 10.6656C27.151 10.7362 27.0945 10.8034 27.0407 10.8671L30.6012 13.8745C30.6595 13.8055 30.7201 13.7334 30.783 13.6583L27.2102 10.6656ZM27.0483 10.8582C26.9918 10.9243 26.9311 10.9962 26.8664 11.0735L30.4393 14.0662C30.4967 13.9976 30.5481 13.9368 30.5936 13.8834L27.0483 10.8582ZM26.939 10.9908C26.8513 11.086 26.7657 11.1836 26.6821 11.2835L30.2549 14.2762C30.2934 14.2302 30.3307 14.1878 30.3667 14.1488L26.939 10.9908ZM30.7787 12.4741L30.6994 11.8747L26.079 12.4862L26.1583 13.0856L30.7787 12.4741ZM30.1074 13.7546C30.8757 12.9161 31.6095 11.684 32.3268 10.2422L28.1539 8.16634C27.4842 9.51263 26.9839 10.2646 26.671 10.6063L30.1074 13.7546ZM30.089 6.87888C29.9575 6.88744 29.824 6.8999 29.6902 6.9176L30.3017 11.538C30.3186 11.5357 30.348 11.5325 30.3917 11.5297L30.089 6.87888ZM29.8683 6.90096C29.7152 6.90936 29.5627 6.92564 29.4198 6.94455L30.0313 11.5649C30.0624 11.5608 30.0859 11.5581 30.1024 11.5565C30.1193 11.5548 30.1259 11.5545 30.1236 11.5546L29.8683 6.90096ZM29.4198 6.94455C29.0292 6.99625 28.5221 7.08446 28.0612 7.2797L29.8794 11.5711C29.829 11.5924 29.7951 11.6031 29.785 11.6062C29.7738 11.6095 29.7758 11.6085 29.7941 11.6043C29.8329 11.5955 29.9087 11.5811 30.0313 11.5649L29.4198 6.94455ZM28.1134 7.25834C27.9754 7.3129 27.8378 7.37514 27.7018 7.44603L29.8554 11.5792C29.8406 11.5869 29.8308 11.591 29.8272 11.5924L28.1134 7.25834ZM27.8219 7.38774C27.8278 7.38509 27.8653 7.36817 27.9243 7.34712C27.9549 7.33622 28.0035 7.31978 28.0657 7.30275C28.1237 7.28689 28.2248 7.2618 28.3547 7.24462L28.9661 11.865C29.3722 11.8112 29.7015 11.6527 29.7352 11.6375L27.8219 7.38774ZM28.3547 7.24462C28.639 7.20698 29.0073 7.21356 29.4045 7.35053C29.8118 7.49101 30.1421 7.73194 30.3852 8.00936C30.8225 8.50833 30.9069 9.03518 30.9289 9.20153L26.3086 9.81301C26.3352 10.0141 26.4289 10.5663 26.88 11.0811C27.4633 11.7466 28.2816 11.9556 28.9661 11.865L28.3547 7.24462ZM30.9289 9.20153C30.9534 9.38633 30.9439 9.52785 30.9354 9.60346C30.9266 9.68202 30.9141 9.72968 30.9117 9.73862C30.9084 9.75111 30.9225 9.69731 30.9848 9.55949L26.7374 7.64083C26.6128 7.91664 26.4931 8.22085 26.409 8.53571C26.3328 8.82082 26.2385 9.28346 26.3086 9.81301L30.9289 9.20153ZM31.0066 9.50961C31.0556 9.39416 31.0932 9.31977 31.1168 9.27749C31.142 9.23242 31.1396 9.24505 31.1022 9.29036L27.5063 6.32543C27.1544 6.75226 26.903 7.24853 26.7156 7.69071L31.0066 9.50961ZM31.0769 9.3205C31.0179 9.38967 30.9482 9.45224 30.8717 9.50406C30.7958 9.55542 30.7258 9.5878 30.6713 9.60724L29.1053 5.21757C28.5106 5.42971 27.9662 5.78588 27.5316 6.29528L31.0769 9.3205ZM30.7094 9.59328C30.6942 9.599 30.7254 9.58626 30.8236 9.56485C30.9178 9.54431 31.0494 9.52099 31.2249 9.49776L30.6135 4.8774C30.1009 4.94524 29.5536 5.04843 29.0672 5.23153L30.7094 9.59328ZM38.4976 10.7543L40.8078 10.4485C40.692 9.57348 40.0917 8.83898 39.2573 8.55124C38.4228 8.26349 37.4974 8.47189 36.8669 9.08956L38.4976 10.7543ZM38.5746 11.3363L40.3549 12.84C40.7785 12.3384 40.9709 11.6814 40.8848 11.0305L38.5746 11.3363ZM36.7653 12.4242L36.583 10.1011C35.8553 10.1582 35.1963 10.5529 34.8027 11.1677L36.7653 12.4242ZM33.2656 13.0288L31.2559 14.2085C31.2611 14.2173 31.2663 14.2261 31.2716 14.2349L33.2656 13.0288ZM33.0682 10.5359L30.8975 9.68834C30.8947 9.6955 30.8919 9.70266 30.8892 9.70984L33.0682 10.5359ZM33.857 9.14988L35.7068 10.5672L33.857 9.14988ZM34.9913 8.03634L36.3469 9.93177C36.3533 9.92722 36.3596 9.92264 36.3659 9.91803L34.9913 8.03634ZM36.8453 7.55233L35.9906 9.72027C36.0114 9.72846 36.0323 9.73635 36.0533 9.74394L36.8453 7.55233ZM36.9789 8.29478L35.046 6.99312C34.5825 7.68131 34.5199 8.56402 34.8817 9.31071C35.2434 10.0574 35.9748 10.5555 36.8021 10.6184L36.9789 8.29478ZM37.4616 8.46954L35.7832 10.0861C35.7972 10.1006 35.8114 10.115 35.8258 10.1292L37.4616 8.46954ZM37.5996 10.113L35.3043 9.71036C35.3026 9.71993 35.301 9.72951 35.2994 9.7391L37.5996 10.113ZM37.2272 11.3732L35.0953 10.4321C34.6611 11.4158 34.9563 12.5689 35.8098 13.2229L37.2272 11.3732ZM37.4042 11.5088L35.9869 13.3586C36.4775 13.7345 37.0973 13.9001 37.71 13.819L37.4042 11.5088ZM37.812 11.3842L39.1186 13.3137C39.1336 13.3036 39.1484 13.2933 39.1631 13.2828L37.812 11.3842ZM38.0519 11.1933L39.6183 12.9187C39.6471 12.8925 39.6753 12.8656 39.7028 12.838L38.0519 11.1933ZM36.4058 8.7065L38.5441 9.6329C38.9695 8.65102 38.6715 7.5056 37.8215 6.85551C36.9715 6.20542 35.7881 6.21775 34.9518 6.88541L36.4058 8.7065ZM35.2769 9.66023L36.8264 11.4008C36.833 11.3949 36.8397 11.3889 36.8463 11.3828L35.2769 9.66023ZM34.5025 10.4875L36.3523 11.9048C36.358 11.8974 36.3636 11.89 36.3692 11.8825L34.5025 10.4875ZM34.1202 11.2717L31.8319 10.8312C31.8169 10.9091 31.8059 10.9878 31.7989 11.0668L34.1202 11.2717ZM36.083 12.0107L37.695 13.6936C38.442 12.978 38.6278 11.8556 38.1514 10.9374L36.083 12.0107ZM35.9105 10.1067L38.1691 10.6808L38.172 10.669L35.9105 10.1067ZM36.0443 4.70618L34.1946 3.28883C34.1783 3.31009 34.1624 3.33162 34.1468 3.35342L36.0443 4.70618ZM35.8356 4.99897L33.9381 3.64621C33.9277 3.6608 33.9175 3.6755 33.9074 3.69032L35.8356 4.99897ZM34.6771 4.86062L36.7261 5.97046L34.6771 4.86062ZM35.5417 3.57948L37.3323 5.07079L37.3333 5.06962L35.5417 3.57948ZM37.1365 3.34188L35.1796 4.60715C35.1851 4.61568 35.1907 4.62417 35.1963 4.63263L37.1365 3.34188ZM37.6636 4.38581L39.8227 3.50912L37.6636 4.38581ZM37.8878 5.47867L35.8824 4.2918C35.8643 4.32236 35.8469 4.35334 35.8302 4.3847L37.8878 5.47867ZM37.12 5.42118L35.7305 7.29186C35.74 7.29898 35.7497 7.30602 35.7594 7.31299L37.12 5.42118ZM36.4334 4.70772L34.3385 5.72831C34.4051 5.86497 34.4848 5.99478 34.5767 6.1159L36.4334 4.70772ZM36.1874 11.06L36.2645 11.642L40.8848 11.0305L40.8078 10.4485L36.1874 11.06ZM36.7944 9.83253C36.6576 9.99443 36.5534 10.1064 36.4796 10.1792C36.399 10.2586 36.388 10.2582 36.4392 10.2235L39.0524 14.0826C39.5445 13.7494 39.989 13.2731 40.3549 12.84L36.7944 9.83253ZM36.4392 10.2235C36.5181 10.1701 36.5852 10.1365 36.6313 10.1164C36.6773 10.0963 36.7079 10.0873 36.7173 10.0847C36.732 10.0806 36.694 10.0924 36.583 10.1011L36.9475 14.7474C37.546 14.7005 38.3463 14.5608 39.0524 14.0826L36.4392 10.2235ZM34.8027 11.1677C34.5535 11.557 34.3776 11.7471 34.2932 11.8217C34.2064 11.8984 34.3266 11.7575 34.6473 11.7151L35.2588 16.3354C36.1528 16.2171 36.8618 15.7714 37.379 15.3145C37.8986 14.8554 38.3422 14.2829 38.7278 13.6808L34.8027 11.1677ZM34.6473 11.7151C34.745 11.7021 34.8596 11.7044 34.9781 11.7304C35.0949 11.7561 35.1816 11.7975 35.2342 11.8294L32.8148 15.8129C33.5371 16.2516 34.3779 16.452 35.2588 16.3354L34.6473 11.7151ZM35.2342 11.8294C35.2516 11.84 35.2659 11.8503 35.2769 11.8592C35.2878 11.868 35.2943 11.8744 35.2965 11.8768C35.301 11.8815 35.2867 11.8676 35.2595 11.8228L31.2716 14.2349C31.6416 14.8466 32.1452 15.4062 32.8148 15.8129L35.2342 11.8294ZM35.2752 11.8492C35.2475 11.8019 35.2021 11.7031 35.1768 11.5119L30.5565 12.1234C30.6522 12.8472 30.8728 13.5558 31.2559 14.2085L35.2752 11.8492ZM35.1768 11.5119C35.1858 11.58 35.1781 11.6077 35.1823 11.5813C35.1866 11.5535 35.2017 11.4821 35.2472 11.362L30.8892 9.70984C30.6189 10.4229 30.4411 11.2519 30.5565 12.1234L35.1768 11.5119ZM35.2389 11.3835C35.3436 11.1155 35.4949 10.8438 35.7068 10.5672L32.0073 7.73253C31.5459 8.33469 31.1713 8.98699 30.8975 9.68834L35.2389 11.3835ZM35.7068 10.5672C35.9225 10.2857 36.138 10.0812 36.3469 9.93177L33.6357 6.14091C33.0156 6.58437 32.4749 7.12226 32.0073 7.73253L35.7068 10.5672ZM36.3659 9.91803C36.4615 9.84819 36.5212 9.81803 36.5444 9.80775C36.566 9.79819 36.5465 9.80993 36.4909 9.81728L35.8795 5.19693C35.0044 5.31274 34.2455 5.69529 33.6167 6.15465L36.3659 9.91803ZM36.4909 9.81728C36.5086 9.81494 36.4724 9.82157 36.3951 9.81627C36.3176 9.81096 36.172 9.7918 35.9906 9.72027L37.6999 5.38439C37.0203 5.11648 36.3563 5.13382 35.8795 5.19693L36.4909 9.81728ZM36.0533 9.74394C35.8641 9.67559 35.5673 9.52756 35.297 9.22262C35.0114 8.90046 34.8616 8.52238 34.8156 8.1745L39.436 7.56302C39.37 7.06457 39.1636 6.55847 38.7844 6.13083C38.4206 5.72041 37.9935 5.48946 37.6372 5.36072L36.0533 9.74394ZM34.8156 8.1745C34.7642 7.78624 34.8367 7.47886 34.8975 7.30245C34.9576 7.12832 35.0261 7.02268 35.046 6.99312L38.9118 9.59645C39.1294 9.27322 39.5642 8.53179 39.436 7.56302L34.8156 8.1745ZM36.8021 10.6184C36.7686 10.6158 36.6465 10.6043 36.476 10.5425C36.3004 10.479 36.035 10.3475 35.7832 10.0861L39.1401 6.85301C38.46 6.14693 37.6079 6.00557 37.1556 5.97117L36.8021 10.6184ZM35.8258 10.1292C35.5257 9.83342 35.4143 9.54027 35.3836 9.45295C35.3464 9.34687 35.3441 9.29621 35.3501 9.34119L39.9704 8.72971C39.9388 8.49092 39.8847 8.20406 39.7812 7.90935C39.6844 7.6334 39.4924 7.19917 39.0974 6.80989L35.8258 10.1292ZM35.3501 9.34119C35.3448 9.30154 35.3501 9.30984 35.346 9.38227C35.3421 9.4521 35.3308 9.55945 35.3043 9.71036L39.8948 10.5156C39.9918 9.96278 40.0512 9.34037 39.9704 8.72971L35.3501 9.34119ZM35.2994 9.7391C35.2592 9.98668 35.1908 10.2159 35.0953 10.4321L39.359 12.3142C39.6172 11.7294 39.797 11.1185 39.8997 10.4868L35.2994 9.7391ZM35.8098 13.2229L35.9869 13.3586L38.8216 9.6591L38.6445 9.52343L35.8098 13.2229ZM37.71 13.819L37.8403 13.8018L37.2288 9.18141L37.0985 9.19866L37.71 13.819ZM37.8403 13.8018C38.3162 13.7388 38.7486 13.5642 39.1186 13.3137L36.5054 9.4546C36.7023 9.32125 36.9498 9.21833 37.2288 9.18141L37.8403 13.8018ZM39.1631 13.2828C39.3143 13.1752 39.4689 13.0543 39.6183 12.9187L36.4855 9.46793C36.4925 9.46162 36.4944 9.46035 36.4899 9.46393C36.4855 9.46745 36.4761 9.47469 36.4609 9.4855L39.1631 13.2828ZM39.7028 12.838C39.7584 12.7821 39.8963 12.6463 40.1283 12.419L36.8669 9.08956C36.6399 9.31191 36.4806 9.46874 36.401 9.54862L39.7028 12.838ZM34.9518 6.88541C34.4826 7.26007 34.0655 7.61152 33.7075 7.93761L36.8463 11.3828C37.1089 11.1436 37.4444 10.8593 37.8598 10.5276L34.9518 6.88541ZM33.7275 7.91965C33.3233 8.27942 32.9524 8.66898 32.6359 9.09253L36.3692 11.8825C36.4632 11.7567 36.6085 11.5948 36.8264 11.4008L33.7275 7.91965ZM32.6528 9.07015C32.2923 9.54062 31.967 10.1295 31.8319 10.8312L36.4085 11.7122C36.3712 11.906 36.3007 11.9721 36.3523 11.9048L32.6528 9.07015ZM31.7989 11.0668C31.7691 11.4045 31.7466 11.6759 31.7322 11.8745C31.7252 11.9721 31.7191 12.0658 31.7153 12.1467C31.7135 12.1861 31.7115 12.238 31.7109 12.2935C31.7107 12.3071 31.707 12.4685 31.7319 12.6573L36.3523 12.0458C36.3669 12.1561 36.3697 12.2412 36.3704 12.2666C36.3716 12.303 36.3714 12.3299 36.3713 12.3416C36.371 12.3649 36.3704 12.3749 36.3709 12.3628C36.372 12.3407 36.3748 12.2929 36.3807 12.2105C36.3924 12.0491 36.4123 11.8067 36.4415 11.4766L31.7989 11.0668ZM31.7319 12.6573C31.8371 13.4516 32.2762 14.3165 33.2006 14.8104C33.97 15.2215 34.7498 15.1919 35.2229 15.1293L34.6114 10.5089C34.6131 10.5087 34.63 10.5065 34.6601 10.5056C34.69 10.5047 34.7387 10.505 34.8027 10.5116C34.9267 10.5244 35.1455 10.5653 35.397 10.6998C35.6642 10.8425 35.9108 11.061 36.0915 11.345C36.2648 11.6175 36.3296 11.8742 36.3523 12.0458L31.7319 12.6573ZM35.2229 15.1293C35.913 15.0379 36.4482 14.698 36.7232 14.5073C37.057 14.2759 37.3846 13.9908 37.695 13.6936L34.471 10.3279C34.3665 10.428 34.2792 10.5065 34.2081 10.5666C34.136 10.6276 34.0899 10.6618 34.0675 10.6773C34.042 10.695 34.0654 10.6759 34.1315 10.6445C34.1666 10.6279 34.2228 10.6034 34.2982 10.579C34.373 10.5547 34.479 10.5264 34.6114 10.5089L35.2229 15.1293ZM38.1514 10.9374C38.1364 10.9086 38.1321 10.8951 38.1326 10.8966C38.1333 10.8985 38.1383 10.9144 38.142 10.9427L33.5217 11.5542C33.5953 12.1108 33.7754 12.6232 34.0145 13.084L38.1514 10.9374ZM38.142 10.9427C38.1367 10.9028 38.1332 10.8218 38.169 10.6808L33.652 9.5326C33.4864 10.1843 33.4304 10.8645 33.5217 11.5542L38.142 10.9427ZM38.172 10.669C38.2316 10.4295 38.3465 10.089 38.5441 9.6329L34.2675 7.78009C34.0047 8.38671 33.7895 8.97966 33.6491 9.54443L38.172 10.669ZM35.9298 2.23812C35.2894 2.32287 34.8573 2.63719 34.665 2.79596C34.4478 2.97531 34.292 3.16174 34.1946 3.28883L37.8941 6.12353C37.872 6.15227 37.7858 6.2632 37.6323 6.38992C37.5038 6.49606 37.1296 6.78061 36.5413 6.85847L35.9298 2.23812ZM34.1468 3.35342C34.1113 3.40328 34.1302 3.37677 34.0947 3.42662C34.0591 3.47647 34.078 3.44996 34.0425 3.49982C34.01 3.54534 34.0227 3.52749 33.9903 3.57301C33.9578 3.61853 33.9706 3.60069 33.9381 3.64621L37.7331 6.35173C37.7671 6.30405 37.7513 6.32622 37.7852 6.27854C37.8192 6.23085 37.8034 6.25303 37.8374 6.20534C37.8452 6.1945 37.8819 6.14298 37.8896 6.13214C37.8973 6.1213 37.9341 6.06978 37.9418 6.05895L34.1468 3.35342ZM33.9074 3.69032C33.8237 3.81366 33.7551 3.90603 33.7016 3.97271C33.6752 4.00557 33.6544 4.02974 33.6393 4.04655C33.6241 4.06351 33.6167 4.07059 33.6173 4.07004C33.6176 4.0697 33.6296 4.05814 33.6533 4.03931C33.6766 4.02076 33.7176 3.99011 33.7762 3.95467C33.8837 3.88969 34.1166 3.76855 34.4559 3.72364L35.0674 8.344C35.9589 8.22601 36.5682 7.69886 36.8512 7.42615C37.1937 7.09609 37.4975 6.69986 37.7637 6.30763L33.9074 3.69032ZM34.4559 3.72364C34.6071 3.70363 35.1552 3.6572 35.7392 4.04191C36.3937 4.47305 36.5916 5.10488 36.6361 5.44103L32.0157 6.05252C32.0901 6.61453 32.3756 7.40712 33.1753 7.93394C33.9045 8.41434 34.6556 8.3985 35.0674 8.344L34.4559 3.72364ZM36.6361 5.44103C36.6635 5.6483 36.6551 5.81584 36.645 5.91865C36.6345 6.02568 36.6175 6.10788 36.6059 6.15711C36.5836 6.25097 36.5625 6.30068 36.5675 6.28821C36.5771 6.26398 36.6201 6.1662 36.7261 5.97046L32.628 3.75077C32.4831 4.01841 32.3421 4.3 32.2346 4.57116C32.181 4.70638 32.1181 4.88279 32.0708 5.08235C32.0317 5.24753 31.9572 5.61046 32.0157 6.05252L36.6361 5.44103ZM36.7261 5.97046C36.9064 5.63756 37.1089 5.33899 37.3323 5.07079L33.751 2.08817C33.3236 2.60141 32.9497 3.15694 32.628 3.75077L36.7261 5.97046ZM37.3333 5.06962C37.4198 4.96556 37.4378 4.9649 37.3808 5.00621C37.3275 5.04481 37.109 5.19236 36.7426 5.24085L36.1311 0.620493C34.9425 0.777806 34.1526 1.60537 33.75 2.08933L37.3333 5.06962ZM36.7426 5.24085C36.3569 5.2919 35.959 5.20894 35.6308 5.01605C35.342 4.8463 35.2091 4.65266 35.1796 4.60715L39.0935 2.07662C38.6166 1.33909 37.6215 0.423245 36.1311 0.620493L36.7426 5.24085ZM35.1963 4.63263C35.2567 4.72331 35.3644 4.91742 35.5045 5.26251L39.8227 3.50912C39.6132 2.99304 39.3695 2.49119 39.0767 2.05114L35.1963 4.63263ZM35.5045 5.26251C35.5843 5.45911 35.635 5.59373 35.6639 5.67734C35.6784 5.71901 35.6818 5.732 35.6793 5.72331C35.6779 5.71818 35.6728 5.6999 35.6664 5.67124C35.6605 5.64476 35.6493 5.59169 35.6398 5.51985L40.2602 4.90837C40.2182 4.59083 40.1169 4.29376 40.0687 4.15432C40.0022 3.96182 39.9177 3.7431 39.8227 3.50912L35.5045 5.26251ZM35.6398 5.51985C35.5706 4.99688 35.721 4.56444 35.8824 4.2918L39.8932 6.66553C40.1605 6.21388 40.3524 5.60507 40.2602 4.90837L35.6398 5.51985ZM35.8302 4.3847C35.9463 4.16637 36.1376 3.90918 36.4355 3.69401C36.7389 3.47485 37.0691 3.36012 37.3723 3.31999L37.9838 7.94035C38.886 7.82094 39.5761 7.26724 39.9454 6.57264L35.8302 4.3847ZM37.3723 3.31999C37.7749 3.26671 38.0844 3.35118 38.243 3.4106C38.3257 3.44158 38.3855 3.4723 38.421 3.49223C38.4569 3.51241 38.477 3.52668 38.4807 3.52936L35.7594 7.31299C36.1152 7.56888 36.9258 8.08037 37.9838 7.94035L37.3723 3.31999ZM38.5096 3.5505C38.5193 3.55771 38.5024 3.54635 38.4608 3.50312C38.4197 3.4604 38.3624 3.39477 38.2902 3.29954L34.5767 6.1159C34.8956 6.53644 35.2758 6.95412 35.7305 7.29186L38.5096 3.5505ZM38.5284 3.68713C38.3813 3.38514 37.6087 2.01592 35.9298 2.23812L36.5413 6.85847C35.8705 6.94725 35.2799 6.71794 34.8795 6.3953C34.5424 6.12377 34.3887 5.8313 34.3385 5.72831L38.5284 3.68713ZM41.3171 5.81147L41.6228 8.12164C42.4603 8.0108 43.1723 7.45537 43.4835 6.66999L41.3171 5.81147ZM41.9969 4.53709L43.7754 6.04288C43.7818 6.03541 43.788 6.02789 43.7943 6.02033L41.9969 4.53709ZM42.5476 5.6928L40.417 4.74904C40.0953 5.47528 40.1657 6.31536 40.6037 6.97795C41.0418 7.64054 41.7872 8.03437 42.5814 8.02288L42.5476 5.6928ZM43.0769 5.68463L43.1158 8.01465L43.1256 8.01444L43.0769 5.68463ZM43.4475 5.67978L45.6269 6.50461C45.8978 5.789 45.8 4.98603 45.3655 4.35627C44.9309 3.72651 44.2149 3.3502 43.4497 3.34946L43.4475 5.67978ZM42.4548 7.72917L42.5951 10.0553C43.373 10.0083 44.0759 9.57568 44.4682 8.90237L42.4548 7.72917ZM42.043 7.75714L42.1053 10.0866C42.1459 10.0856 42.1864 10.0834 42.2269 10.0802L42.043 7.75714ZM41.7008 7.77592L41.763 10.1054C41.8057 10.1043 41.8483 10.102 41.8908 10.0985L41.7008 7.77592ZM41.2879 7.79521L41.1476 5.46912C40.2837 5.52125 39.5199 6.04784 39.1639 6.83668L41.2879 7.79521ZM40.6768 9.25494L38.4964 8.43264L38.492 8.44424L40.6768 9.25494ZM40.3341 10.4051L38.0529 9.92877C38.0505 9.94071 38.0481 9.95267 38.0457 9.96465L40.3341 10.4051ZM41.6642 11.44L43.1867 13.2042L43.1935 13.1983L41.6642 11.44ZM42.9538 10.1645L45.264 9.85875C45.146 8.96678 44.525 8.22247 43.6686 7.94649C42.8122 7.67052 41.8735 7.91221 41.2568 8.56742L42.9538 10.1645ZM43.0309 10.7465L44.9369 12.0872C45.2735 11.6086 45.4178 11.0208 45.341 10.4408L43.0309 10.7465ZM39.2274 13.5303L37.585 15.1834C37.5947 15.1931 37.6045 15.2027 37.6144 15.2122L39.2274 13.5303ZM38.9185 11.9978L36.6227 11.598C36.6203 11.6118 36.6181 11.6255 36.6159 11.6393L38.9185 11.9978ZM39.2279 10.5957L41.4921 11.147C41.7449 10.1088 41.2592 9.03173 40.3137 8.53384C39.3683 8.03595 38.2054 8.24486 37.4923 9.04069L39.2279 10.5957ZM39.021 10.8352L40.8074 12.3316L40.8126 12.3254L39.021 10.8352ZM38.8453 11.0441L40.618 12.5567L40.6255 12.5478L38.8453 11.0441ZM38.6772 11.2431L40.391 12.8221C40.4159 12.7952 40.4401 12.7676 40.4636 12.7395L38.6772 11.2431ZM38.4929 11.4531L36.1827 11.7589C36.3039 12.675 36.9551 13.433 37.8425 13.6909C38.7299 13.9488 39.6859 13.6579 40.2793 12.9495L38.4929 11.4531ZM38.4135 10.8538L36.6953 9.27958C36.2297 9.78784 36.0129 10.4762 36.1034 11.1595L38.4135 10.8538ZM40.2647 7.87759L42.3511 8.91553C42.7225 8.16899 42.6667 7.28092 42.2048 6.58673C41.7429 5.89254 40.9454 5.49803 40.1133 5.5522L40.2647 7.87759ZM40.0203 7.9011L40.148 10.2279C40.2075 10.2247 40.267 10.2191 40.3261 10.2113L40.0203 7.9011ZM38.9947 8.09871L39.8516 10.2658C39.8691 10.2588 39.8865 10.2517 39.9038 10.2444L38.9947 8.09871ZM38.8029 8.18596L39.7596 10.3109C39.8002 10.2926 39.8403 10.2731 39.8798 10.2526L38.8029 8.18596ZM38.8855 7.27348L41.0092 8.23281C41.0166 8.21627 41.0239 8.19964 41.031 8.18293L38.8855 7.27348ZM39.3286 6.48122L37.5559 4.9686C37.5474 4.97858 37.539 4.98863 37.5306 4.99875L39.3286 6.48122ZM39.9127 6.08572L40.6957 8.28056C40.7084 8.27602 40.7211 8.27136 40.7337 8.2666L39.9127 6.08572ZM41.2493 8.17108L41.6228 8.12164L41.0113 3.50129L40.6378 3.55072L41.2493 8.17108ZM43.4835 6.66999C43.5778 6.432 43.6572 6.26185 43.7187 6.14667C43.7838 6.02461 43.8067 6.00592 43.7754 6.04288L40.2185 3.0313C39.7497 3.58491 39.4115 4.2948 39.1507 4.95294L43.4835 6.66999ZM43.7943 6.02033C43.7437 6.08159 43.6539 6.16934 43.5181 6.24695C43.3799 6.32593 43.2361 6.37018 43.108 6.38714L42.4965 1.76679C41.5522 1.89176 40.765 2.36877 40.1996 3.05386L43.7943 6.02033ZM43.108 6.38714C43.1059 6.38742 43.0552 6.3944 42.9693 6.39278C42.8907 6.39131 42.715 6.3818 42.4901 6.31346C42.2614 6.24395 41.9078 6.09006 41.5842 5.75255C41.2383 5.39179 41.0536 4.95266 40.9986 4.53664L45.6189 3.92516C45.5543 3.43675 45.3413 2.93692 44.9485 2.52714C44.5779 2.1406 44.1585 1.94937 43.8454 1.85421C43.2792 1.68213 42.7585 1.73212 42.4965 1.76679L43.108 6.38714ZM40.9986 4.53664C40.9574 4.22528 40.9911 3.97989 41.0114 3.86319C41.0343 3.73163 41.0645 3.63224 41.0821 3.57866C41.1012 3.52087 41.1183 3.47888 41.1275 3.45705C41.1373 3.43393 41.1441 3.41996 41.1455 3.41692C41.1478 3.41233 41.1404 3.42772 41.1175 3.4682C41.0955 3.50699 41.0648 3.55931 41.0233 3.62689L44.9966 6.06304C45.1157 5.86877 45.2379 5.65844 45.3364 5.45615C45.3841 5.35799 45.4513 5.21107 45.5084 5.03808C45.5371 4.9509 45.6946 4.4971 45.6189 3.92516L40.9986 4.53664ZM41.0233 3.62689C40.7895 4.00826 40.5762 4.38969 40.417 4.74904L44.6783 6.63656C44.7188 6.54523 44.8136 6.36144 44.9966 6.06304L41.0233 3.62689ZM42.5814 8.02288C42.7826 8.01997 42.9608 8.01721 43.1158 8.01462L43.038 3.35463C42.8873 3.35715 42.7126 3.35985 42.5139 3.36272L42.5814 8.02288ZM43.1256 8.01444C43.2783 8.01124 43.3821 8.01004 43.4452 8.0101L43.4497 3.34946C43.336 3.34935 43.1927 3.35137 43.0281 3.35482L43.1256 8.01444ZM41.268 4.85495C41.0716 5.37405 40.7998 5.9407 40.4413 6.55597L44.4682 8.90237C44.9356 8.1002 45.3257 7.30059 45.6269 6.50461L41.268 4.85495ZM42.3144 5.40308C42.1423 5.41347 41.9895 5.42377 41.8591 5.43409L42.2269 10.0802C42.3182 10.073 42.4399 10.0646 42.5951 10.0553L42.3144 5.40308ZM41.9808 5.42765C41.8246 5.43183 41.6679 5.44051 41.5108 5.45336L41.8908 10.0985C41.9669 10.0923 42.0383 10.0884 42.1053 10.0866L41.9808 5.42765ZM41.6386 5.44643C41.492 5.45035 41.3264 5.45832 41.1476 5.46912L41.4283 10.1213C41.5768 10.1123 41.6865 10.1075 41.763 10.1054L41.6386 5.44643ZM39.1639 6.83668C38.9034 7.41393 38.6794 7.94725 38.4964 8.43265L42.8572 10.0772C42.9969 9.70674 43.1804 9.2669 43.412 8.75374L39.1639 6.83668ZM38.492 8.44424C38.3056 8.9466 38.1542 9.44383 38.0529 9.92877L42.6152 10.8815C42.6582 10.6756 42.7352 10.406 42.8616 10.0656L38.492 8.44424ZM38.0457 9.96465C37.9403 10.5126 37.9058 11.0875 37.983 11.6709L42.6033 11.0594C42.6024 11.0521 42.5952 10.987 42.6224 10.8456L38.0457 9.96465ZM37.983 11.6709C38.0419 12.116 38.2211 12.8667 38.8562 13.4779C39.5842 14.1785 40.484 14.3004 41.156 14.2115L40.5445 9.59111C40.898 9.54432 41.5457 9.59793 42.088 10.1198C42.5374 10.5523 42.5973 11.0138 42.6033 11.0594L37.983 11.6709ZM41.156 14.2115C42.0799 14.0892 42.7864 13.5497 43.1867 13.2042L40.1418 9.67579C40.0572 9.74875 40.0345 9.75677 40.0699 9.73671C40.0902 9.7252 40.1382 9.69961 40.2121 9.67211C40.2859 9.64466 40.3985 9.61044 40.5445 9.59111L41.156 14.2115ZM43.1935 13.1983C43.6082 12.8377 44.0999 12.3469 44.6508 11.7616L41.2568 8.56742C40.7436 9.11283 40.3756 9.47243 40.135 9.6817L43.1935 13.1983ZM40.6437 10.4702L40.7207 11.0522L45.341 10.4408L45.264 9.85875L40.6437 10.4702ZM41.1248 9.40583C40.4962 10.2995 39.999 10.8905 39.6305 11.2442C39.4484 11.419 39.3378 11.4969 39.2974 11.5217C39.2497 11.551 39.3573 11.4718 39.596 11.4402L40.2075 16.0606C41.3533 15.9089 42.2587 15.1818 42.8581 14.6063C43.5327 13.9588 44.2265 13.0972 44.9369 12.0872L41.1248 9.40583ZM39.596 11.4402C39.7724 11.4169 40.0062 11.4228 40.2608 11.5059C40.5156 11.5891 40.7095 11.7229 40.8403 11.8484L37.6144 15.2122C38.3167 15.8857 39.2484 16.1875 40.2075 16.0606L39.596 11.4402ZM40.8698 11.8771C41.1336 12.1392 41.191 12.4089 41.1996 12.4738L36.5792 13.0853C36.6721 13.7871 36.9548 14.5573 37.585 15.1834L40.8698 11.8771ZM41.1996 12.4738C41.2057 12.52 41.2032 12.5351 41.2041 12.5102C41.205 12.4861 41.2087 12.4362 41.2211 12.3564L36.6159 11.6393C36.5475 12.0789 36.512 12.5772 36.5792 13.0853L41.1996 12.4738ZM41.2143 12.3977C41.2539 12.1701 41.3416 11.765 41.4921 11.147L36.9637 10.0444C36.8088 10.6807 36.6903 11.2104 36.6227 11.598L41.2143 12.3977ZM37.4923 9.04069C37.4022 9.14131 37.3145 9.24277 37.2294 9.3451L40.8126 12.3254C40.8596 12.2688 40.9099 12.2106 40.9635 12.1508L37.4923 9.04069ZM37.2345 9.33889C37.1754 9.40956 37.1189 9.47671 37.0651 9.54038L40.6255 12.5478C40.6838 12.4788 40.7445 12.4067 40.8074 12.3316L37.2345 9.33889ZM37.0726 9.5315C37.0162 9.59766 36.9555 9.66952 36.8908 9.74677L40.4636 12.7395C40.521 12.6709 40.5724 12.6101 40.618 12.5567L37.0726 9.5315ZM36.9634 9.66414C36.8757 9.75932 36.7901 9.85695 36.7064 9.95678L40.2793 12.9495C40.3178 12.9035 40.3551 12.8612 40.391 12.8221L36.9634 9.66414ZM40.803 11.1474L40.7237 10.548L36.1034 11.1595L36.1827 11.7589L40.803 11.1474ZM40.1318 12.428C40.9 11.5894 41.6339 10.3573 42.3511 8.91553L38.1783 6.83966C37.5086 8.18595 37.0083 8.93795 36.6953 9.27958L40.1318 12.428ZM40.1133 5.5522C39.9818 5.56076 39.8483 5.57322 39.7146 5.59092L40.3261 10.2113C40.3429 10.209 40.3723 10.2058 40.4161 10.203L40.1133 5.5522ZM39.8927 5.57428C39.7395 5.58268 39.5871 5.59896 39.4442 5.61787L40.0556 10.2382C40.0868 10.2341 40.1102 10.2315 40.1268 10.2298C40.1437 10.2281 40.1502 10.2278 40.148 10.2279L39.8927 5.57428ZM39.4442 5.61787C39.0535 5.66957 38.5464 5.75778 38.0856 5.95302L39.9038 10.2444C39.8533 10.2658 39.8195 10.2764 39.8093 10.2795C39.7982 10.2828 39.8002 10.2818 39.8185 10.2776C39.8573 10.2689 39.9331 10.2544 40.0556 10.2382L39.4442 5.61787ZM38.1378 5.93166C37.9998 5.98622 37.8622 6.04846 37.7261 6.11935L39.8798 10.2526C39.865 10.2603 39.8552 10.2643 39.8516 10.2658L38.1378 5.93166ZM37.8463 6.06107C37.8521 6.05841 37.8897 6.04149 37.9487 6.02044C37.9792 6.00954 38.0279 5.9931 38.0901 5.97607C38.1481 5.96021 38.2492 5.93512 38.379 5.91794L38.9905 10.5383C39.3966 10.4846 39.7259 10.326 39.7596 10.3109L37.8463 6.06107ZM38.379 5.91794C38.6634 5.8803 39.0316 5.88689 39.4288 6.02385C39.8362 6.16433 40.1665 6.40526 40.4096 6.68268C40.8468 7.18165 40.9313 7.7085 40.9533 7.87485L36.3329 8.48633C36.3596 8.68743 36.4533 9.23957 36.9044 9.75438C37.4876 10.4199 38.306 10.6289 38.9905 10.5383L38.379 5.91794ZM40.9533 7.87485C40.9778 8.05965 40.9683 8.20117 40.9598 8.27679C40.9509 8.35535 40.9385 8.403 40.9361 8.41194C40.9328 8.42443 40.9469 8.37063 41.0092 8.23281L36.7618 6.31415C36.6372 6.58997 36.5175 6.89417 36.4334 7.20903C36.3572 7.49415 36.2629 7.95678 36.3329 8.48633L40.9533 7.87485ZM41.031 8.18293C41.0799 8.06748 41.1175 7.99309 41.1412 7.95081C41.1664 7.90574 41.1639 7.91838 41.1266 7.96368L37.5306 4.99875C37.1787 5.42558 36.9274 5.92185 36.7399 6.36403L41.031 8.18293ZM41.1013 7.99383C41.0423 8.06299 40.9725 8.12556 40.896 8.17738C40.8202 8.22874 40.7501 8.26112 40.6957 8.28056L39.1297 3.89089C38.535 4.10303 37.9906 4.45921 37.5559 4.9686L41.1013 7.99383ZM40.7337 8.2666C40.7185 8.27232 40.7498 8.25959 40.8479 8.23817C40.9421 8.21763 41.0737 8.19431 41.2493 8.17108L40.6378 3.55072C40.1253 3.61856 39.5779 3.72175 39.0916 3.90485L40.7337 8.2666Z" fill="white" mask="url(#path-1-outside-1_3992_7303)"/>
</svg>
