<svg width="183" height="58" viewBox="0 0 183 58" fill="none" xmlns="http://www.w3.org/2000/svg">
<rect width="182.201" height="57.1871" rx="14" fill="#083044"/>
<rect x="0.664966" y="0.664966" width="180.871" height="55.8572" rx="13.335" stroke="white" stroke-opacity="0.4" stroke-width="1.32993"/>
<g clip-path="url(#clip0_3992_7213)">
<g clip-path="url(#clip1_3992_7213)">
<g clip-path="url(#clip2_3992_7213)">
<path d="M122.303 25.457V28.7324H120.266V30.8804H122.303V38.1789C122.303 40.6711 123.421 41.668 126.236 41.668C126.73 41.668 127.201 41.6085 127.614 41.5374V39.4131C127.26 39.4487 127.036 39.4724 126.648 39.4724C125.388 39.4724 124.834 38.8791 124.834 37.5262V30.8804H127.614V28.7324H124.834V25.457H122.303Z" fill="white"/>
<path d="M134.783 41.8449C138.528 41.8449 140.824 39.3171 140.824 35.128C140.824 30.9625 138.516 28.4229 134.783 28.4229C131.038 28.4229 128.73 30.9625 128.73 35.128C128.73 39.3171 131.027 41.8449 134.783 41.8449ZM134.783 39.5782C132.581 39.5782 131.345 37.9525 131.345 35.128C131.345 32.3273 132.581 30.6896 134.783 30.6896C136.973 30.6896 138.222 32.3273 138.222 35.128C138.222 37.9405 136.973 39.5782 134.783 39.5782Z" fill="white"/>
<path d="M142.789 41.5962H145.321V33.9654C145.321 32.1497 146.675 30.9273 148.594 30.9273C149.042 30.9273 149.795 31.0105 150.007 31.0816V28.5658C149.737 28.4946 149.254 28.459 148.877 28.459C147.205 28.459 145.78 29.3846 145.415 30.6544H145.227V28.6726H142.789V41.5962Z" fill="white"/>
<path d="M156.293 30.5946C158.166 30.5946 159.391 31.9119 159.449 33.9413H152.974C153.115 31.9238 154.422 30.5946 156.293 30.5946ZM159.439 38.1068C158.966 39.1154 157.918 39.6731 156.388 39.6731C154.362 39.6731 153.056 38.2372 152.974 35.9706V35.8282H162.028V34.9381C162.028 30.8794 159.873 28.4229 156.305 28.4229C152.691 28.4229 150.395 31.0456 150.395 35.1754C150.395 39.3053 152.644 41.8449 156.317 41.8449C159.25 41.8449 161.299 40.4208 161.875 38.1068H159.439Z" fill="white"/>
<path d="M105.699 36.8233C105.895 39.9968 108.519 42.0263 112.424 42.0263C116.598 42.0263 119.21 39.8984 119.21 36.5035C119.21 33.8343 117.721 32.3583 114.109 31.5096L112.168 31.0299C109.873 30.4887 108.946 29.763 108.946 28.4961C108.946 26.897 110.386 25.8515 112.546 25.8515C114.597 25.8515 116.012 26.8724 116.269 28.5083H118.929C118.771 25.5194 116.159 23.416 112.583 23.416C108.738 23.416 106.175 25.5194 106.175 28.6806C106.175 31.2882 107.628 32.8381 110.813 33.5884L113.083 34.1419C115.414 34.6954 116.44 35.5072 116.44 36.8602C116.44 38.4347 114.829 39.5785 112.632 39.5785C110.276 39.5785 108.641 38.5085 108.409 36.8233H105.699Z" fill="white"/>
<path d="M79.4734 28.459C77.7307 28.459 76.2235 29.3371 75.4463 30.8087H75.2578V28.6726H72.8203V45.8923H75.3521V39.6381H75.5523C76.2235 41.0029 77.6718 41.8098 79.497 41.8098C82.7352 41.8098 84.796 39.2346 84.796 35.1285C84.796 31.0223 82.7352 28.459 79.4734 28.459ZM78.7551 39.5194C76.6356 39.5194 75.3049 37.8342 75.3049 35.1403C75.3049 32.4346 76.6356 30.7494 78.767 30.7494C80.91 30.7494 82.1935 32.3989 82.1935 35.1285C82.1935 37.8699 80.91 39.5194 78.7551 39.5194Z" fill="white"/>
<path d="M93.657 28.459C91.9143 28.459 90.4069 29.3371 89.6297 30.8087H89.4414V28.6726H87.0039V45.8923H89.5356V39.6381H89.7357C90.4069 41.0029 91.8554 41.8098 93.6806 41.8098C96.9188 41.8098 98.9795 39.2346 98.9795 35.1285C98.9795 31.0223 96.9188 28.459 93.657 28.459ZM92.9387 39.5194C90.8191 39.5194 89.4885 37.8342 89.4885 35.1403C89.4885 32.4346 90.8191 30.7494 92.9504 30.7494C95.0936 30.7494 96.3771 32.3989 96.3771 35.1285C96.3771 37.8699 95.0936 39.5194 92.9387 39.5194Z" fill="white"/>
<path d="M68.2796 41.596H71.1843L64.8255 23.8467H61.8842L55.5254 41.596H58.3325L59.9558 36.8849H66.6685L68.2796 41.596ZM63.2145 27.0694H63.422L65.9728 34.5726H60.6515L63.2145 27.0694Z" fill="white"/>
<path d="M57.2227 10.457V19.0194H60.2903C62.8219 19.0194 64.2879 17.4469 64.2879 14.7115C64.2879 12.0176 62.8101 10.457 60.2903 10.457H57.2227ZM58.5415 11.6675H60.1431C61.9035 11.6675 62.9456 12.7949 62.9456 14.7293C62.9456 16.6934 61.9212 17.8089 60.1431 17.8089H58.5415V11.6675Z" fill="white"/>
<path d="M68.7802 19.1446C70.6524 19.1446 71.8006 17.8807 71.8006 15.7861C71.8006 13.7034 70.6466 12.4336 68.7802 12.4336C66.9079 12.4336 65.7539 13.7034 65.7539 15.7861C65.7539 17.8807 66.902 19.1446 68.7802 19.1446ZM68.7802 18.0113C67.6793 18.0113 67.061 17.1984 67.061 15.7861C67.061 14.3858 67.6793 13.5669 68.7802 13.5669C69.8754 13.5669 70.4994 14.3858 70.4994 15.7861C70.4994 17.1924 69.8754 18.0113 68.7802 18.0113Z" fill="white"/>
<path d="M81.5759 12.5586H80.3101L79.1679 17.4895H79.0678L77.7489 12.5586H76.5361L75.2172 17.4895H75.1231L73.9749 12.5586H72.6914L74.4577 19.0204H75.7589L77.0778 14.2616H77.1778L78.5025 19.0204H79.8155L81.5759 12.5586Z" fill="white"/>
<path d="M83.0332 19.02H84.299V15.2402C84.299 14.2315 84.8936 13.6025 85.8299 13.6025C86.7661 13.6025 87.2134 14.1188 87.2134 15.1572V19.02H88.4793V14.8368C88.4793 13.2999 87.6904 12.4336 86.2596 12.4336C85.2941 12.4336 84.6582 12.8668 84.3461 13.5847H84.252V12.5582H83.0332V19.02Z" fill="white"/>
<path d="M90.4746 19.0198H91.7404V10.0361H90.4746V19.0198Z" fill="white"/>
<path d="M96.5009 19.1446C98.3731 19.1446 99.5213 17.8807 99.5213 15.7861C99.5213 13.7034 98.3673 12.4336 96.5009 12.4336C94.6286 12.4336 93.4746 13.7034 93.4746 15.7861C93.4746 17.8807 94.6227 19.1446 96.5009 19.1446ZM96.5009 18.0113C95.3999 18.0113 94.7817 17.1984 94.7817 15.7861C94.7817 14.3858 95.3999 13.5669 96.5009 13.5669C97.5961 13.5669 98.2201 14.3858 98.2201 15.7861C98.2201 17.1924 97.5961 18.0113 96.5009 18.0113Z" fill="white"/>
<path d="M103.293 18.0528C102.604 18.0528 102.104 17.7146 102.104 17.1331C102.104 16.5635 102.504 16.2608 103.387 16.2015L104.953 16.1006V16.6406C104.953 17.4417 104.247 18.0528 103.293 18.0528ZM102.969 19.1268C103.811 19.1268 104.512 18.7589 104.895 18.1122H104.995V19.02H106.213V14.6053C106.213 13.2406 105.307 12.4336 103.699 12.4336C102.245 12.4336 101.209 13.1456 101.079 14.2552H102.304C102.445 13.7983 102.934 13.5373 103.64 13.5373C104.506 13.5373 104.953 13.923 104.953 14.6053V15.1631L103.216 15.264C101.692 15.3589 100.832 16.0294 100.832 17.1924C100.832 18.3732 101.733 19.1268 102.969 19.1268Z" fill="white"/>
<path d="M110.509 19.1266C111.392 19.1266 112.14 18.7053 112.522 17.9992H112.623V19.0198H113.835V10.0361H112.57V13.5845H112.475C112.128 12.8724 111.386 12.4511 110.509 12.4511C108.89 12.4511 107.848 13.7447 107.848 15.7859C107.848 17.833 108.878 19.1266 110.509 19.1266ZM110.868 13.5964C111.928 13.5964 112.593 14.4449 112.593 15.7918C112.593 17.1447 111.934 17.9814 110.868 17.9814C109.797 17.9814 109.155 17.1566 109.155 15.7859C109.155 14.4271 109.802 13.5964 110.868 13.5964Z" fill="white"/>
<path d="M122.044 19.1446C123.916 19.1446 125.064 17.8807 125.064 15.7861C125.064 13.7034 123.91 12.4336 122.044 12.4336C120.172 12.4336 119.018 13.7034 119.018 15.7861C119.018 17.8807 120.166 19.1446 122.044 19.1446ZM122.044 18.0113C120.943 18.0113 120.325 17.1984 120.325 15.7861C120.325 14.3858 120.943 13.5669 122.044 13.5669C123.139 13.5669 123.763 14.3858 123.763 15.7861C123.763 17.1924 123.139 18.0113 122.044 18.0113Z" fill="white"/>
<path d="M126.738 19.02H128.004V15.2402C128.004 14.2315 128.599 13.6025 129.535 13.6025C130.471 13.6025 130.919 14.1188 130.919 15.1572V19.02H132.184V14.8368C132.184 13.2999 131.395 12.4336 129.965 12.4336C128.999 12.4336 128.363 12.8668 128.051 13.5847H127.957V12.5582H126.738V19.02Z" fill="white"/>
<path d="M138.015 10.9512V12.5889H136.996V13.6629H138.015V17.3121C138.015 18.5582 138.574 19.0566 139.981 19.0566C140.228 19.0566 140.464 19.027 140.67 18.9914V17.9292C140.493 17.947 140.381 17.9589 140.187 17.9589C139.557 17.9589 139.281 17.6622 139.281 16.9858V13.6629H140.67V12.5889H139.281V10.9512H138.015Z" fill="white"/>
<path d="M142.371 19.0208H143.637V15.2469C143.637 14.2679 144.214 13.6092 145.25 13.6092C146.145 13.6092 146.622 14.1314 146.622 15.1638V19.0208H147.888V14.8494C147.888 13.3125 147.046 12.4403 145.68 12.4403C144.714 12.4403 144.037 12.8734 143.725 13.5973H143.625V10.0371H142.371V19.0208Z" fill="white"/>
<path d="M152.454 13.5195C153.39 13.5195 154.002 14.1781 154.031 15.1928H150.793C150.864 14.184 151.517 13.5195 152.454 13.5195ZM154.026 17.2755C153.791 17.7799 153.267 18.0588 152.501 18.0588C151.488 18.0588 150.835 17.3408 150.793 16.2074V16.1362H155.321V15.6912C155.321 13.6619 154.244 12.4336 152.46 12.4336C150.652 12.4336 149.504 13.7449 149.504 15.8099C149.504 17.8748 150.628 19.1446 152.465 19.1446C153.932 19.1446 154.956 18.4326 155.244 17.2755H154.026Z" fill="white"/>
<path d="M41.7882 27.0288C41.819 24.6255 43.0997 22.3515 45.1313 21.0927C43.8496 19.248 41.7029 18.0784 39.4694 18.0079C37.0873 17.7559 34.7779 19.4445 33.5639 19.4445C32.3266 19.4445 30.4576 18.033 28.445 18.0747C25.8216 18.1601 23.376 19.6632 22.0997 21.9747C19.3561 26.7618 21.4026 33.7973 24.0307 37.667C25.3456 39.5617 26.8823 41.6783 28.8931 41.6033C30.8608 41.521 31.5957 40.3387 33.9709 40.3387C36.3239 40.3387 37.0134 41.6033 39.0651 41.5556C41.1765 41.521 42.5067 39.6523 43.7754 37.7395C44.7202 36.3894 45.4471 34.8973 45.9295 33.3182C43.4481 32.2605 41.7912 29.744 41.7882 27.0288Z" fill="white"/>
<path d="M37.9097 15.4631C39.0611 14.0703 39.6282 12.2801 39.4909 10.4727C37.7321 10.6588 36.1074 11.506 34.9405 12.8454C33.7996 14.154 33.2059 15.9127 33.3182 17.6511C35.0777 17.6693 36.8072 16.8451 37.9097 15.4631Z" fill="white"/>
</g>
</g>
</g>
<defs>
<clipPath id="clip0_3992_7213">
<rect width="142.303" height="37.2381" fill="white" transform="translate(19.9492 9.97461)"/>
</clipPath>
<clipPath id="clip1_3992_7213">
<rect width="142.303" height="37.2381" fill="white" transform="translate(19.9492 9.97461)"/>
</clipPath>
<clipPath id="clip2_3992_7213">
<rect width="142.303" height="37.2381" fill="white" transform="translate(19.9492 9.97461)"/>
</clipPath>
</defs>
</svg>
