<svg width="176" height="194" viewBox="0 0 176 194" fill="none" xmlns="http://www.w3.org/2000/svg">
<mask id="mask0_3992_7260" style="mask-type:alpha" maskUnits="userSpaceOnUse" x="0" y="0" width="176" height="194">
<path d="M141.06 70.53C141.06 31.5774 109.483 4.57764e-05 70.53 4.57764e-05C31.5774 4.57764e-05 0 31.5774 0 70.53C0 109.483 123.98 193.607 162.932 193.607C201.885 193.607 141.06 109.483 141.06 70.53Z" fill="#FFCB3C"/>
</mask>
<g mask="url(#mask0_3992_7260)">
<path fill-rule="evenodd" clip-rule="evenodd" d="M62.1274 79.9725C57.7676 81.8017 52.8419 82.1659 47.4124 80.577C28.8724 75.1514 21.2805 60.7039 20.2651 43.4932C18.8428 19.3029 30.9109 -10.4758 41.7194 -25.2721C42.9828 -27.0005 45.4088 -27.3764 47.1373 -26.1169C48.8618 -24.8535 49.2416 -22.4275 47.9782 -20.6991C37.9564 -6.98013 26.6828 20.605 28.0043 43.0359C28.8181 56.9099 34.6468 68.7648 49.5904 73.1401C52.8225 74.0857 55.7639 73.9539 58.4108 73.0238C57.5504 71.2993 56.7288 69.5709 55.9499 67.8425C52.8379 60.921 48.1875 41.7027 49.9237 27.573C51.2994 16.3924 56.5816 8.37428 67.4792 8.6688C73.7186 8.83544 78.3228 12.6062 81.0859 18.7875C84.4924 26.4104 84.9575 38.0715 82.5625 49.2521C80.5744 58.5492 76.6291 67.4704 71.095 73.4696C70.3199 74.3105 69.5138 75.0972 68.6806 75.8258C86.8486 108.034 119.639 137.922 153.304 150.652C155.304 151.408 156.311 153.644 155.556 155.648C154.8 157.647 152.56 158.655 150.56 157.899C115.445 144.622 81.2177 113.545 62.1274 79.9725ZM64.9216 68.7067C64.2628 67.3619 63.6271 66.0133 63.0225 64.6646C60.2283 58.4524 56.0585 41.2029 57.6164 28.5187C58.4419 21.8064 60.7322 16.2414 67.2739 16.4157C70.4827 16.501 72.5909 18.772 74.0093 21.9499C75.8928 26.1624 76.5633 31.8747 76.2649 37.9552C75.796 47.388 72.9476 57.7121 67.9328 65.0134C67.0066 66.362 66.0028 67.6061 64.9216 68.7067Z" fill="#07AED8"/>
<path fill-rule="evenodd" clip-rule="evenodd" d="M127.355 102.18C130.377 119.809 141.938 138.566 154.358 151.564C155.835 153.111 155.781 155.564 154.235 157.044C152.688 158.521 150.231 158.466 148.755 156.92C135.334 142.872 122.979 122.537 119.716 103.49C119.356 101.381 120.774 99.3779 122.882 99.0174C124.991 98.657 126.994 100.072 127.355 102.18Z" fill="#07AED8"/>
<path fill-rule="evenodd" clip-rule="evenodd" d="M149.088 157.66C136.319 150.371 116.733 149.417 102.456 153.114C100.382 153.649 98.2663 152.401 97.7314 150.332C97.1966 148.262 98.4407 146.146 100.514 145.608C116.566 141.457 138.574 142.732 152.933 150.929C154.789 151.987 155.436 154.358 154.375 156.215C153.313 158.071 150.945 158.718 149.088 157.66Z" fill="#07AED8"/>
</g>
</svg>
