<svg width="369" height="206" viewBox="0 0 369 206" fill="none" xmlns="http://www.w3.org/2000/svg">
<path d="M486.401 242.885C485.581 242.403 484.691 242.003 483.952 241.415C468.093 228.834 452.224 216.261 436.412 203.623C399.121 173.799 361.541 144.35 323.351 115.694C300.145 98.2793 276.616 81.2976 252.384 65.3201C236.836 55.0821 221.021 45.2441 204.756 36.1655C189.145 27.4623 173.008 19.8124 156.345 13.3382C143.495 8.34978 130.136 5.10855 116.574 2.74907C113.176 2.15308 109.69 1.94899 106.236 1.82652C98.9776 1.5571 91.7261 1.78572 84.504 2.57765C79.429 3.14099 74.5068 4.38191 69.6915 6.08008C57.2091 10.497 45.9351 16.9141 35.8701 25.6009C26.0648 34.0591 17.3609 43.448 9.58934 53.8166C-1.9672 69.2145 -11.2565 85.9186 -19.6322 103.194C-26.9654 118.314 -32.8845 133.998 -38.5448 149.788C-45.3056 168.655 -50.5365 187.972 -55.4808 207.37C-59.3017 222.368 -62.4376 237.513 -65.251 252.731C-65.4069 253.58 -65.6959 254.397 -65.9237 255.229C-66.3556 255.229 -66.7908 255.229 -67.2227 255.229C-66.843 253.662 -66.385 252.102 -66.0993 250.519C-61.4595 224.499 -55.1077 198.88 -47.6218 173.554C-41.2406 151.959 -33.6095 130.789 -24.3757 110.232C-19.4992 99.3652 -14.1091 88.7434 -8.23492 78.3911C-1.22344 66.0222 6.96371 54.4453 15.9762 43.4725C23.9919 33.7162 33.2837 25.258 43.5144 17.9019C54.3663 10.1051 66.4299 4.83095 79.536 2.16123C83.6557 1.32031 87.8864 0.854974 92.0902 0.642702C97.9219 0.365117 103.777 0.348804 109.618 0.495761C115.362 0.642718 120.999 1.78565 126.614 3.00213C141.884 6.32499 156.699 10.9624 170.988 17.3795C190.075 25.9356 208.508 35.6674 226.406 46.5096C251.429 61.6625 275.465 78.2605 299.247 95.2585C323.206 112.387 346.536 130.349 369.909 148.253C399.728 171.105 429.059 194.569 458.521 217.87C466.927 224.524 475.323 231.177 483.736 237.815C484.578 238.485 485.51 239.031 486.401 239.636C486.401 240.713 486.401 241.799 486.401 242.885Z" fill="url(#paint0_linear_3992_7009)" fill-opacity="0.1"/>
<path d="M459.108 255.229C450.003 247.906 440.914 240.566 431.788 233.267C408.789 214.873 385.908 196.332 362.383 178.616C342.063 163.308 321.797 147.918 300.813 133.524C282.244 120.788 263.475 108.338 243.979 97.0464C226.829 87.1268 209.241 77.991 190.882 70.4881C177.04 64.8302 162.738 60.5276 148.084 57.4578C141.281 56.0372 134.364 55.5637 127.441 55.327C121.6 55.1147 115.761 55.0331 109.919 55.6046C104.721 56.1108 99.6556 57.1558 94.646 58.5682C81.6925 62.2177 69.8658 68.0877 59.0048 76.0724C48.748 83.6162 39.4718 92.1316 31.083 101.716C18.4643 116.126 8.0091 131.99 -1.41003 148.612C-9.91231 163.61 -16.9401 179.302 -23.594 195.181C-31.2162 213.363 -37.3271 232.075 -43.0454 250.927C-43.4838 252.372 -44.0006 253.801 -44.4815 255.229C-44.9134 255.229 -45.3494 255.229 -45.7812 255.229C-43.6234 248.314 -41.4762 241.391 -39.3094 234.476C-31.7811 210.481 -22.411 187.213 -11.3974 164.614C-4.18426 149.812 4.09351 135.59 13.4212 122.013C20.5437 111.644 28.5945 102.002 37.2691 92.899C46.818 82.8814 57.7573 74.5702 69.6192 67.5162C79.3788 61.7033 90.0715 58.2171 101.092 55.678C106.914 54.3391 112.827 53.7594 118.802 53.7349C126.928 53.7023 135.037 53.9228 143.104 54.9923C149.343 55.8169 155.447 57.2374 161.5 58.9029C176.546 63.0422 191.273 68.0306 205.399 74.7498C227.809 85.4042 249.437 97.422 270.358 110.787C297.47 128.12 323.604 146.8 349.415 165.986C376.181 185.874 402.321 206.562 428.372 227.373C439.115 235.953 449.823 244.575 460.543 253.172C461.376 253.841 462.186 254.544 463.008 255.229C461.708 255.229 460.408 255.229 459.108 255.229Z" fill="url(#paint1_linear_3992_7009)" fill-opacity="0.1"/>
<path d="M413.624 255.228C413.447 254.975 413.317 254.665 413.084 254.485C394.45 240.189 375.961 225.706 357.129 211.68C333.689 194.216 309.587 177.692 284.729 162.31C267.146 151.427 249.01 141.5 230.292 132.707C214.104 125.098 197.253 119.219 179.968 114.631C172.738 112.712 165.34 111.676 157.895 111.006C154.88 110.737 151.852 110.565 148.837 110.263C135.49 108.924 122.52 110.982 109.706 114.541C101.102 116.933 93.0712 120.607 85.3062 124.975C69.7794 133.719 56.3418 144.978 44.1705 157.934C33.6769 169.103 24.5958 181.309 16.1262 194.037C6.44742 208.569 -1.86057 223.861 -9.32027 239.626C-11.7736 244.802 -14.1356 250.027 -16.5391 255.228C-16.9718 255.228 -17.407 255.228 -17.8389 255.228C-17.7319 254.82 -17.6797 254.387 -17.5074 254.003C-10.6298 238.81 -3.53996 223.722 4.94599 209.345C12.8213 196.004 21.308 183.048 30.9835 170.924C38.9012 161.004 47.6664 151.852 57.0823 143.345C68.2518 133.254 80.8583 125.269 94.3963 118.787C103.237 114.549 112.708 112.206 122.27 110.255C131.565 108.353 140.932 107.945 150.386 108.753C156.643 109.292 162.896 109.79 169.113 110.712C176.195 111.774 183.144 113.398 189.967 115.537C206.924 120.852 223.603 126.877 239.488 134.936C263.844 147.288 287.438 160.914 310.163 176.1C340.164 196.143 369.275 217.387 397.713 239.577C404.116 244.574 410.562 249.513 416.979 254.485C417.212 254.673 417.344 254.975 417.523 255.228C416.223 255.228 414.923 255.228 413.624 255.228Z" fill="url(#paint2_linear_3992_7009)" fill-opacity="0.1"/>
<path d="M360.342 255.231C359.057 254.268 357.793 253.28 356.487 252.349C342.193 242.185 327.805 232.151 312.81 223.031C296.622 213.193 280.357 203.461 263.379 195.028C245.808 186.3 227.631 179.018 208.869 173.245C199.95 170.502 190.782 168.886 181.557 167.604C177.378 167.016 173.177 166.583 168.984 166.11C159.549 165.032 150.169 165.71 140.831 167.155C136.985 167.759 133.167 168.543 129.35 169.318C122.426 170.731 115.788 173.041 109.378 175.989C97.7499 181.344 86.4595 187.304 76.3619 195.265C61.8589 206.703 48.4597 219.284 37.1277 233.931C32.2928 240.184 27.6245 246.569 22.8843 252.888C22.2997 253.664 21.7274 254.447 21.1494 255.231C20.7167 255.231 20.2815 255.231 19.8496 255.231C19.9468 254.937 19.9827 254.594 20.155 254.349C28.992 241.891 37.998 229.555 48.5871 218.5C57.8135 208.866 67.6033 199.82 78.4446 192.032C91.2585 182.814 105.139 175.556 120.113 170.478C128.759 167.555 137.725 166.061 146.748 164.869C153.103 164.036 159.49 163.857 165.873 164.224C170.191 164.477 174.5 164.959 178.793 165.506C186.954 166.534 195.065 167.873 203.076 169.792C213.103 172.184 222.718 175.801 232.354 179.393C253.831 187.386 274.061 197.893 293.889 209.307C316.246 222.174 337.816 236.225 358.77 251.255C360.603 252.561 362.417 253.9 364.24 255.231C362.94 255.231 361.641 255.231 360.342 255.231Z" fill="url(#paint3_linear_3992_7009)" fill-opacity="0.1"/>
<defs>
<linearGradient id="paint0_linear_3992_7009" x1="486.401" y1="127.817" x2="-67.2227" y2="127.817" gradientUnits="userSpaceOnUse">
<stop stop-color="white"/>
<stop offset="1" stop-color="#CFDCE0"/>
</linearGradient>
<linearGradient id="paint1_linear_3992_7009" x1="463.008" y1="154.481" x2="-45.7812" y2="154.481" gradientUnits="userSpaceOnUse">
<stop stop-color="white"/>
<stop offset="1" stop-color="#CFDCE0"/>
</linearGradient>
<linearGradient id="paint2_linear_3992_7009" x1="417.523" y1="181.794" x2="-17.8389" y2="181.794" gradientUnits="userSpaceOnUse">
<stop stop-color="white"/>
<stop offset="1" stop-color="#CFDCE0"/>
</linearGradient>
<linearGradient id="paint3_linear_3992_7009" x1="364.24" y1="209.637" x2="19.8496" y2="209.637" gradientUnits="userSpaceOnUse">
<stop stop-color="white"/>
<stop offset="1" stop-color="#CFDCE0"/>
</linearGradient>
</defs>
</svg>
