<svg width="183" height="58" viewBox="0 0 183 58" fill="none" xmlns="http://www.w3.org/2000/svg">
<rect x="0.798828" width="182.201" height="57.1871" rx="14" fill="#083044"/>
<rect x="1.46379" y="0.664966" width="180.871" height="55.8572" rx="13.335" stroke="white" stroke-opacity="0.4" stroke-width="1.32993"/>
<g clip-path="url(#clip0_3992_7240)">
<g clip-path="url(#clip1_3992_7240)">
<g clip-path="url(#clip2_3992_7240)">
<path d="M92.1259 30.2615C89.0632 30.2615 86.567 32.577 86.567 35.7662C86.567 38.936 89.0632 41.271 92.1259 41.271C95.1898 41.271 97.686 38.936 97.686 35.7662C97.6847 32.577 95.1885 30.2615 92.1259 30.2615ZM92.1259 39.1044C90.4473 39.1044 89.0007 37.7284 89.0007 35.7675C89.0007 33.7859 90.4487 32.4308 92.1259 32.4308C93.8043 32.4308 95.251 33.7859 95.251 35.7675C95.251 37.7272 93.8043 39.1044 92.1259 39.1044ZM79.9978 30.2615C76.9351 30.2615 74.4389 32.577 74.4389 35.7662C74.4389 38.936 76.9351 41.271 79.9978 41.271C83.0617 41.271 85.5579 38.936 85.5579 35.7662C85.5579 32.577 83.0617 30.2615 79.9978 30.2615ZM79.9978 39.1044C78.3193 39.1044 76.8726 37.7284 76.8726 35.7675C76.8726 33.7859 78.3206 32.4308 79.9978 32.4308C81.6762 32.4308 83.1229 33.7859 83.1229 35.7675C83.1242 37.7272 81.6762 39.1044 79.9978 39.1044ZM65.5726 31.9518V34.2868H71.1952C71.0273 35.6005 70.5872 36.5596 69.9152 37.2262C69.0976 38.039 67.8176 38.936 65.5726 38.936C62.1115 38.936 59.4057 36.1623 59.4057 32.7219C59.4057 29.2816 62.1115 26.5079 65.5726 26.5079C67.44 26.5079 68.8033 27.2379 69.8098 28.1762L71.4675 26.5286C70.0612 25.1941 68.1952 24.1729 65.5726 24.1729C60.8315 24.1729 56.8457 28.0093 56.8457 32.7219C56.8457 37.4346 60.8315 41.271 65.5726 41.271C68.1313 41.271 70.0625 40.4361 71.5716 38.8726C73.1237 37.3297 73.6068 35.1604 73.6068 33.4093C73.6068 32.8682 73.5651 32.3673 73.4805 31.9505H65.5726V31.9518ZM124.57 33.7652C124.109 32.5355 122.703 30.2615 119.829 30.2615C116.976 30.2615 114.605 32.4929 114.605 35.7662C114.605 38.8519 116.955 41.271 120.101 41.271C122.639 41.271 124.108 39.7282 124.717 38.8312L122.829 37.5796C122.2 38.4973 121.339 39.1017 120.101 39.1017C118.864 39.1017 117.982 38.5387 117.416 37.4333L124.821 34.389L124.57 33.7652ZM117.018 35.6005C116.955 33.4726 118.675 32.3894 119.914 32.3894C120.878 32.3894 121.696 32.8695 121.97 33.5568L117.018 35.6005ZM110.998 40.9384H113.43V24.758H110.998V40.9384ZM107.011 31.4924H106.927C106.382 30.8452 105.332 30.2615 104.012 30.2615C101.242 30.2615 98.7042 32.6805 98.7042 35.7882C98.7042 38.8739 101.242 41.2723 104.012 41.2723C105.333 41.2723 106.382 40.6886 106.927 40.022H107.011V40.8141C107.011 42.9201 105.878 44.0461 104.053 44.0461C102.564 44.0461 101.641 42.9834 101.263 42.0865L99.1444 42.9627C99.7525 44.4215 101.367 46.2154 104.053 46.2154C106.906 46.2154 109.319 44.547 109.319 40.4802V30.5967H107.012V31.4924H107.011ZM104.221 39.1044C102.543 39.1044 101.138 37.7065 101.138 35.7882C101.138 33.848 102.543 32.4308 104.221 32.4308C105.878 32.4308 107.179 33.848 107.179 35.7882C107.179 37.7065 105.878 39.1044 104.221 39.1044ZM135.969 24.758H130.147V40.9384H132.575V34.8084H135.968C138.66 34.8084 141.309 32.8709 141.309 29.7838C141.309 26.6968 138.661 24.758 135.969 24.758ZM136.032 32.5562H132.575V27.0101H136.032C137.847 27.0101 138.879 28.505 138.879 29.7838C138.879 31.0368 137.847 32.5562 136.032 32.5562ZM151.047 30.2329C149.288 30.2329 147.466 31.003 146.713 32.7104L148.869 33.6047C149.33 32.7104 150.19 32.4178 151.089 32.4178C152.346 32.4178 153.624 33.1672 153.644 34.4991V34.6661C153.204 34.4162 152.261 34.0421 151.11 34.0421C148.786 34.0421 146.419 35.3119 146.419 37.6845C146.419 39.8499 148.325 41.2438 150.461 41.2438C152.093 41.2438 152.994 40.5151 153.56 39.6609H153.643V40.9099H155.99V34.7062C155.991 31.8354 153.832 30.2329 151.047 30.2329ZM150.753 39.1004C149.959 39.1004 148.849 38.7044 148.849 37.7259C148.849 36.4768 150.231 35.998 151.425 35.998C152.492 35.998 152.995 36.227 153.644 36.5389C153.455 38.039 152.157 39.1004 150.753 39.1004ZM164.533 30.5863L161.749 37.6016H161.665L158.775 30.5863H156.157L160.492 40.3909L158.021 45.8453H160.554L167.235 30.5863H164.533ZM142.65 40.9384H145.079V24.758H142.65V40.9384Z" fill="white"/>
<path d="M65.1487 15.3638C65.1487 16.4485 64.8258 17.3118 64.1786 17.9564C63.4443 18.7226 62.4859 19.1057 61.3087 19.1057C60.1811 19.1057 59.2214 18.7174 58.4336 17.9408C57.6444 17.1629 57.25 16.2 57.25 15.0506C57.25 13.8999 57.6444 12.9369 58.4336 12.1603C59.2214 11.3824 60.1811 10.9941 61.3087 10.9941C61.8687 10.9941 62.4039 11.1029 62.9116 11.319C63.4208 11.5365 63.8284 11.8251 64.1331 12.1862L63.4468 12.8696C62.9299 12.2548 62.2176 11.9481 61.3073 11.9481C60.4845 11.9481 59.7735 12.2354 59.1732 12.8101C58.5729 13.3848 58.2734 14.1316 58.2734 15.0493C58.2734 15.967 58.5729 16.7138 59.1732 17.2885C59.7735 17.8632 60.4845 18.1505 61.3073 18.1505C62.1798 18.1505 62.9077 17.8619 63.4898 17.2833C63.8674 16.9067 64.0861 16.3825 64.1448 15.7107H61.3073V14.7775H65.0927C65.1318 14.9807 65.1487 15.1761 65.1487 15.3638Z" fill="white"/>
<path d="M71.1513 12.1209H67.5938V14.5827H70.8023V15.516H67.5938V17.9778H71.1513V18.933H66.5898V11.167H71.1513V12.1209Z" fill="white"/>
<path d="M75.3856 18.9331H74.3816V12.121H72.1992V11.1671H77.568V12.121H75.3856V18.9331Z" fill="white"/>
<path d="M81.4492 18.933V11.167H82.4531V18.933H81.4492Z" fill="white"/>
<path d="M86.909 18.933H85.9051V12.1209H83.7227V11.167H89.0914V12.1209H86.909V18.933Z" fill="white"/>
<path d="M99.2523 17.9298C98.484 18.7142 97.5296 19.1064 96.3875 19.1064C95.2456 19.1064 94.2911 18.7142 93.5241 17.9298C92.7559 17.1455 92.373 16.1851 92.373 15.0499C92.373 13.9148 92.7559 12.9544 93.5241 12.17C94.2911 11.3857 95.2456 10.9922 96.3875 10.9922C97.5231 10.9922 98.4762 11.387 99.2471 12.1752C100.018 12.9635 100.403 13.9213 100.403 15.0499C100.403 16.1851 100.019 17.1455 99.2523 17.9298ZM94.2651 17.2788C94.8432 17.8612 95.5502 18.1511 96.3875 18.1511C97.2248 18.1511 97.9331 17.8599 98.51 17.2788C99.0882 16.6963 99.3786 15.9534 99.3786 15.0499C99.3786 14.1465 99.0882 13.4035 98.51 12.8211C97.9331 12.2386 97.2248 11.9487 96.3875 11.9487C95.5502 11.9487 94.8432 12.2399 94.2651 12.8211C93.6882 13.4035 93.3978 14.1465 93.3978 15.0499C93.3978 15.9534 93.6882 16.6963 94.2651 17.2788Z" fill="white"/>
<path d="M101.812 18.933V11.167H103.034L106.831 17.2077H106.874L106.831 15.7114V11.167H107.835V18.933H106.787L102.814 12.5985H102.771L102.814 14.0948V18.933H101.812Z" fill="white"/>
<path d="M65.1487 15.3638C65.1487 16.4485 64.8258 17.3118 64.1786 17.9564C63.4443 18.7226 62.4859 19.1057 61.3087 19.1057C60.1811 19.1057 59.2214 18.7174 58.4336 17.9408C57.6444 17.1629 57.25 16.2 57.25 15.0506C57.25 13.8999 57.6444 12.9369 58.4336 12.1603C59.2214 11.3824 60.1811 10.9941 61.3087 10.9941C61.8687 10.9941 62.4039 11.1029 62.9116 11.319C63.4208 11.5365 63.8284 11.8251 64.1331 12.1862L63.4468 12.8696C62.9299 12.2548 62.2176 11.9481 61.3073 11.9481C60.4845 11.9481 59.7735 12.2354 59.1732 12.8101C58.5729 13.3848 58.2734 14.1316 58.2734 15.0493C58.2734 15.967 58.5729 16.7138 59.1732 17.2885C59.7735 17.8632 60.4845 18.1505 61.3073 18.1505C62.1798 18.1505 62.9077 17.8619 63.4898 17.2833C63.8674 16.9067 64.0861 16.3825 64.1448 15.7107H61.3073V14.7775H65.0927C65.1318 14.9807 65.1487 15.1761 65.1487 15.3638Z" stroke="white" stroke-width="0.240806" stroke-miterlimit="10"/>
<path d="M71.1513 12.1209H67.5938V14.5827H70.8023V15.516H67.5938V17.9778H71.1513V18.933H66.5898V11.167H71.1513V12.1209Z" stroke="white" stroke-width="0.240806" stroke-miterlimit="10"/>
<path d="M75.3856 18.9331H74.3816V12.121H72.1992V11.1671H77.568V12.121H75.3856V18.9331Z" stroke="white" stroke-width="0.240806" stroke-miterlimit="10"/>
<path d="M81.4492 18.933V11.167H82.4531V18.933H81.4492Z" stroke="white" stroke-width="0.240806" stroke-miterlimit="10"/>
<path d="M86.909 18.933H85.9051V12.1209H83.7227V11.167H89.0914V12.1209H86.909V18.933Z" stroke="white" stroke-width="0.240806" stroke-miterlimit="10"/>
<path d="M99.2523 17.9298C98.484 18.7142 97.5296 19.1064 96.3875 19.1064C95.2456 19.1064 94.2911 18.7142 93.5241 17.9298C92.7559 17.1455 92.373 16.1851 92.373 15.0499C92.373 13.9148 92.7559 12.9544 93.5241 12.17C94.2911 11.3857 95.2456 10.9922 96.3875 10.9922C97.5231 10.9922 98.4762 11.387 99.2471 12.1752C100.018 12.9635 100.403 13.9213 100.403 15.0499C100.403 16.1851 100.019 17.1455 99.2523 17.9298ZM94.2651 17.2788C94.8432 17.8612 95.5502 18.1511 96.3875 18.1511C97.2248 18.1511 97.9331 17.8599 98.51 17.2788C99.0882 16.6963 99.3786 15.9534 99.3786 15.0499C99.3786 14.1465 99.0882 13.4035 98.51 12.8211C97.9331 12.2386 97.2248 11.9487 96.3875 11.9487C95.5502 11.9487 94.8432 12.2399 94.2651 12.8211C93.6882 13.4035 93.3978 14.1465 93.3978 15.0499C93.3978 15.9534 93.6882 16.6963 94.2651 17.2788Z" stroke="white" stroke-width="0.240806" stroke-miterlimit="10"/>
<path d="M101.812 18.933V11.167H103.034L106.831 17.2077H106.874L106.831 15.7114V11.167H107.835V18.933H106.787L102.814 12.5985H102.771L102.814 14.0948V18.933H101.812Z" stroke="white" stroke-width="0.240806" stroke-miterlimit="10"/>
<path fill-rule="evenodd" clip-rule="evenodd" d="M16.6483 12.3718C16.4813 12.7261 16.3887 13.166 16.3887 13.6813V42.3068C16.3887 42.8234 16.4815 43.2632 16.6486 43.6174L32.3643 27.9937L16.6483 12.3718ZM17.4865 44.4822C18.0731 44.7537 18.8491 44.6838 19.6974 44.2056L38.1745 33.7689L33.2183 28.8424L17.4865 44.4822ZM39.2644 33.1546L45.0904 29.8644C46.9095 28.8354 46.9095 27.1541 45.0904 26.1263L39.2618 22.8343L34.0722 27.9936L39.2644 33.1546ZM38.1728 22.2192L19.6974 11.7839C18.8491 11.3047 18.073 11.2354 17.4864 11.5072L33.2182 27.1447L38.1728 22.2192Z" fill="white"/>
</g>
</g>
</g>
<defs>
<clipPath id="clip0_3992_7240">
<rect width="152.942" height="36.121" fill="white" transform="translate(15.4277 10.5332)"/>
</clipPath>
<clipPath id="clip1_3992_7240">
<rect width="152.942" height="36.121" fill="white" transform="translate(15.4277 10.5342)"/>
</clipPath>
<clipPath id="clip2_3992_7240">
<rect width="152.912" height="36.121" fill="white" transform="translate(15.4414 10.5352)"/>
</clipPath>
</defs>
</svg>
