<svg width="273" height="273" viewBox="0 0 273 273" fill="none" xmlns="http://www.w3.org/2000/svg">
<circle cx="136.5" cy="136.5" r="136.5" fill="white"/>
<path d="M200.191 182.611L224.704 180.311L218.602 115.257C218.199 110.962 214.39 107.806 210.094 108.209L201.138 109.049C196.842 109.452 193.686 113.261 194.089 117.557L200.191 182.611Z" fill="#2EB7DC"/>
<path d="M55.0285 196.464L79.5416 194.165L73.4399 129.111C73.037 124.815 69.228 121.659 64.9322 122.062L55.9755 122.902C51.6797 123.305 48.5239 127.114 48.9268 131.41L55.0285 196.464Z" fill="#2EB7DC"/>
<path d="M46.0733 101.005C45.6704 96.709 48.8262 92.8999 53.122 92.497L62.0787 91.6569C66.3745 91.254 70.1835 94.4098 70.5864 98.7056L71.1059 104.245C71.5089 108.54 68.3531 112.349 64.0573 112.752L55.1006 113.592C50.8048 113.995 46.9957 110.84 46.5928 106.544L46.0733 101.005Z" fill="black"/>
<path d="M191.259 87.3876C190.856 83.0918 194.012 79.2827 198.308 78.8798L207.264 78.0397C211.56 77.6368 215.369 80.7926 215.772 85.0884L216.291 90.6274C216.694 94.9232 213.539 98.7323 209.243 99.1352L200.286 99.9753C195.99 100.378 192.181 97.2224 191.778 92.9266L191.259 87.3876Z" fill="black"/>
<path d="M177.156 81.1008L83.2129 89.9121L85.2026 111.125L146.114 105.412L90.4587 167.165L92.8591 192.757L186.802 183.946L184.805 162.654L123.254 168.427L179.482 105.898L177.156 81.1008Z" fill="#2EB7DC"/>
</svg>
