<svg width="218" height="71" viewBox="0 0 218 71" fill="none" xmlns="http://www.w3.org/2000/svg">
<path d="M103.814 57.2635C101.374 57.0623 98.9417 56.9202 96.5135 56.7485C94.4897 56.5441 92.4725 56.2904 90.4553 56.0521C91.4568 51.3628 91.0621 46.6469 89.2395 42.6178C86.6964 36.9974 81.408 32.7906 74.8596 31.1652C73.1919 37.7034 74.3936 44.3526 78.1422 49.2533C80.1135 51.8318 82.7769 53.9092 85.8754 55.3589C84.6082 55.1413 83.3432 54.9172 82.076 54.7073L81.1795 54.5531L80.2917 54.3509L78.5162 53.9474L74.9681 53.1427C72.7879 52.6004 70.6183 52.0144 68.4619 51.3792C70.1007 47.4088 70.5573 43.1943 69.6864 39.3122C68.4201 33.6662 64.3637 28.7974 58.6583 26.059C55.8831 31.746 55.7225 38.0818 58.232 43.2951C59.4262 45.7748 61.2161 47.9845 63.4467 49.806C59.0597 48.3407 54.7446 46.6593 50.5352 44.7289C52.2696 41.2379 52.9179 37.445 52.314 33.8967C51.4637 28.8948 48.1329 24.4455 43.2615 21.7869C40.5714 26.6411 40.1413 32.1821 42.1016 36.8616C42.9998 39.0068 44.3942 40.9581 46.1674 42.6153C42.2733 40.6306 38.482 38.4405 34.8135 36.0569C36.57 33.0708 37.3926 29.7519 37.0983 26.5629C36.6798 22.0222 34.0011 17.8063 29.8183 15.0894C27.0743 19.2539 26.3077 24.1896 27.7431 28.5177C28.245 30.0321 29.0133 31.4645 30.0049 32.7723C27.6735 31.099 25.3988 29.3458 23.1861 27.5153C22.259 26.7538 21.3433 25.9783 20.4387 25.1899C22.4367 22.3574 23.4847 19.0997 23.3553 15.917C23.1801 11.6246 20.8646 7.52902 17.061 4.76945C14.2777 8.55566 13.318 13.1619 14.4587 17.3034C14.882 18.8417 15.5931 20.3079 16.5446 21.6514C14.9828 20.1723 13.4581 18.6515 11.9727 17.0935C12.5911 13.6921 12.1738 10.3039 10.7248 7.47654C8.76534 3.65426 4.94383 0.907814 0.333479 0.000350952C-0.604051 4.60436 0.458119 9.18869 3.23113 12.4698C5.25937 14.8685 8.18151 16.5479 11.511 17.3001C14.7175 20.8305 18.1244 24.1815 21.7119 27.3317C20.0979 26.4788 18.3798 25.9197 16.6279 25.7003C12.1034 25.1335 7.4106 26.844 3.85815 30.3452C7.33625 33.9198 11.9914 35.7285 16.5271 35.2566C19.8907 34.9073 23.1541 33.3091 25.8251 30.7774C29.9157 34.0544 34.2122 37.079 38.682 39.8264C35.9581 38.9316 33.1406 38.6789 30.4632 39.1393C25.4629 39.9998 21.0196 43.3379 18.3699 48.2143C23.2289 50.8959 28.7706 51.3158 33.4473 49.3465C36.8741 47.9046 39.8027 45.1948 41.8257 41.6966C43.5337 42.6797 45.2654 43.6223 47.0186 44.5247C49.7327 45.9247 52.4976 47.2349 55.3091 48.4411C52.5057 48.0909 49.7233 48.3078 47.1464 49.1222C41.6284 50.8653 37.1231 55.3217 34.8818 61.241C40.7845 63.5206 47.1108 63.1401 52.091 60.1947C55.6854 58.0693 58.5443 54.6286 60.2979 50.451C64.5755 52.0614 68.948 53.4215 73.3973 54.4799C71.1389 54.6351 68.9539 55.1424 66.9312 56.0051C61.2575 58.4268 56.9384 63.6234 55.1734 70.1364C61.674 71.9436 68.348 70.8842 73.3269 67.2423C76.9243 64.6118 79.6029 60.6605 81.0297 56.0401C81.2932 56.0805 81.5589 56.1111 81.8224 56.1483L85.4752 56.6326C86.6932 56.7802 87.9035 56.9891 89.1302 57.0601C91.5804 57.2055 94.025 57.3969 96.4697 57.5029C98.9231 57.4778 101.371 57.4832 103.814 57.4286L103.895 57.3531L103.819 57.2635H103.814Z" fill="white" fill-opacity="0.4"/>
<path d="M205.677 17.3005C209.008 16.5481 211.93 14.8687 213.958 12.4698C216.731 9.18861 217.793 4.60429 216.854 0.000411987C212.246 0.908363 208.424 3.65411 206.465 7.47735C205.016 10.3045 204.598 13.6922 205.216 17.0934C203.731 18.6519 202.206 20.1722 200.643 21.6517C201.596 20.3085 202.306 18.8423 202.732 17.3039C203.871 13.1626 202.912 8.55561 200.129 4.76998C196.325 7.52898 194.008 11.6246 193.834 15.9173C193.703 19.0995 194.753 22.3576 196.75 25.1901C195.845 25.9784 194.93 26.754 194.004 27.5154C191.789 29.3459 189.516 31.0991 187.184 32.7724C188.176 31.4647 188.944 30.0322 189.445 28.5178C190.881 24.1898 190.115 19.2541 187.372 15.0896C183.189 17.8062 180.51 22.0223 180.091 26.563C179.796 29.752 180.619 33.071 182.376 36.057C178.707 38.4406 174.915 40.6307 171.022 42.6154C172.794 40.9582 174.189 39.007 175.088 36.8617C177.048 32.1821 176.618 26.6412 173.927 21.7871C169.055 24.4457 165.725 28.8949 164.875 33.8969C164.27 37.4452 164.92 41.2379 166.653 44.729C162.445 46.6593 158.129 48.3408 153.741 49.8061C155.975 47.9846 157.763 45.7749 158.957 43.2952C161.466 38.0819 161.306 31.7461 158.532 26.0592C152.826 28.7975 148.768 33.6664 147.502 39.3123C146.632 43.1944 147.088 47.4088 148.728 51.3792C146.572 52.0146 144.401 52.6005 142.221 53.1428L138.673 53.9474L136.897 54.3509L136.009 54.5532L135.114 54.7074C133.847 54.9174 132.58 55.1414 131.313 55.3591C134.413 53.9092 137.074 51.8319 139.047 49.2534C142.795 44.3527 143.998 37.7035 142.33 31.1654C135.78 32.7908 130.492 36.9975 127.95 42.618C126.127 46.647 125.732 51.3629 126.733 56.0522C124.717 56.2905 122.699 56.5441 120.675 56.7487C118.248 56.9202 115.815 57.0623 113.376 57.2636H113.37L113.295 57.3445L113.376 57.4287C115.818 57.4834 118.265 57.4778 120.72 57.503C123.165 57.3969 125.609 57.2057 128.061 57.0602C129.286 56.9891 130.496 56.7803 131.714 56.6328L135.367 56.1484C135.63 56.1112 135.897 56.0805 136.16 56.0402C137.586 60.6605 140.265 64.6118 143.862 67.2423C148.842 70.8843 155.515 71.9436 162.016 70.1363C160.25 63.6234 155.932 58.4268 150.257 56.0052C148.236 55.1425 146.051 54.6351 143.793 54.4799C148.241 53.4216 152.613 52.0616 156.892 50.4511C158.646 54.6287 161.505 58.0694 165.097 60.1948C170.077 63.1403 176.404 63.5206 182.307 61.2411C180.066 55.3218 175.561 50.8654 170.043 49.1224C167.466 48.308 164.683 48.091 161.881 48.4411C164.691 47.235 167.457 45.9247 170.171 44.5248C171.924 43.6224 173.654 42.6798 175.364 41.6966C177.387 45.1948 180.316 47.9046 183.742 49.3466C188.418 51.3159 193.959 50.8961 198.819 48.2144C196.169 43.3379 191.726 40 186.726 39.1394C184.049 38.679 181.231 38.9318 178.508 39.8265C182.978 37.0792 187.275 34.0545 191.364 30.7776C194.035 33.3093 197.299 34.9074 200.662 35.2568C205.196 35.7286 209.854 33.9199 213.331 30.3453C209.778 26.8442 205.085 25.1337 200.562 25.7004C198.808 25.9199 197.091 26.479 195.477 27.3318C199.064 24.1816 202.471 20.8305 205.677 17.3005Z" fill="white" fill-opacity="0.4"/>
</svg>
