<svg width="347" height="20" viewBox="0 0 347 20" fill="none" xmlns="http://www.w3.org/2000/svg">
<path fill-rule="evenodd" clip-rule="evenodd" d="M147.375 1.90411C131.073 2.55663 114.962 3.35897 99.2512 4.23613C77.011 5.47699 54.7794 6.76065 32.6819 8.79309C25.7261 9.43492 18.6623 9.84138 11.75 10.6437C7.41089 11.1464 1.65731 11.863 0.902226 12.0128C0.507286 12.0984 0.334987 12.2269 0.279312 12.2696C-0.112148 12.5692 -0.0407213 12.8579 0.180237 13.0825C0.268968 13.1788 0.493342 13.4142 1.1162 13.4463C42.7711 15.6392 85.3656 11.3604 127.071 10.9111C199.396 10.1409 273.912 13.2003 345.663 19.8752C346.289 19.9287 346.898 19.6612 346.985 19.2654C347.089 18.8803 346.637 18.5059 346.011 18.4524C274.139 11.7668 199.5 8.6967 127.036 9.47759C88.1684 9.89477 48.5334 13.6495 9.61177 12.3659C10.506 12.2589 11.383 12.1519 12.1833 12.0556C19.0678 11.2533 26.1019 10.8576 33.0299 10.2158C55.0804 8.18331 77.2667 6.89966 99.4773 5.6695C127.036 4.12912 155.795 2.80267 184.781 2.18224C195.15 2.27852 205.485 2.37483 215.819 2.4925C238.176 2.74923 260.637 3.49803 282.942 4.50356C289.658 4.81377 296.373 5.13466 303.089 5.41278C305.316 5.50905 311.058 5.78713 311.858 5.76574C312.85 5.74434 313.041 5.23093 313.058 5.14535C313.111 4.95281 313.076 4.68536 312.589 4.46073C312.536 4.42863 312.223 4.3216 311.527 4.25741C270.972 0.47065 227.668 -0.160378 184.816 0.748873C139.615 0.353082 94.2404 0.18185 49.1546 0C48.5091 0 47.9819 0.320959 47.9767 0.716751C47.9732 1.11254 48.4934 1.43351 49.1389 1.44421C81.785 1.57257 114.596 1.70087 147.375 1.90411Z" fill="#FD8342"/>
</svg>
