<svg width="55" height="55" viewBox="0 0 55 55" fill="none" xmlns="http://www.w3.org/2000/svg">
<rect width="55" height="55" rx="12" fill="white"/>
<g clip-path="url(#clip0_3992_8202)">
<path d="M14.1699 34.0893C16.1289 35.808 18.4214 37.6753 20.5703 39.3742V37.4454C20.5703 34.9171 21.8401 32.6802 23.7751 31.3377C23.0487 29.4534 21.2146 28.1562 19.1381 28.1562C16.3986 28.1562 14.1699 30.385 14.1699 33.1243V34.0893Z" fill="url(#paint0_linear_3992_8202)"/>
<path d="M49 21.743C49 14.6728 43.2686 8.94141 36.1985 8.94141C33.079 8.94141 30.221 10.0584 28 11.9128C25.779 10.0585 22.921 8.94141 19.8015 8.94141C12.7314 8.94149 7 14.6729 7 21.743C7 24.7607 8.11899 27.4769 9.79103 29.723C10.2454 30.3333 10.9441 31.0842 11.8073 31.9224C12.1624 29.7486 13.4639 27.8888 15.2739 26.7817C13.8886 25.6555 13.0014 23.939 13.0014 22.0187C13.0014 18.6346 15.7545 15.8815 19.1387 15.8815C22.1392 15.8815 24.6421 18.0465 25.1712 20.8961C26.0184 20.4541 26.9801 20.2026 28 20.2026C29.0199 20.2026 29.9816 20.4541 30.8288 20.8961C31.358 18.0466 33.8608 15.8815 36.8613 15.8815C40.2454 15.8815 42.9985 18.6346 42.9985 22.0187C42.9985 23.939 42.1113 25.6554 40.7261 26.7817C42.5361 27.8887 43.8376 29.7486 44.1927 31.9224C45.0559 31.0843 45.7546 30.3333 46.209 29.723C47.881 27.4769 49 24.7607 49 21.743Z" fill="url(#paint1_linear_3992_8202)"/>
<path d="M22.8155 22.018C22.8155 19.991 21.1664 18.3418 19.1392 18.3418C17.112 18.3418 15.4629 19.991 15.4629 22.018C15.4629 24.0452 17.112 25.6943 19.1392 25.6943C21.1664 25.6943 22.8155 24.0452 22.8155 22.018Z" fill="black"/>
<path d="M22.8155 22.018C22.8155 19.991 21.1664 18.3418 19.1392 18.3418C17.112 18.3418 15.4629 19.991 15.4629 22.018C15.4629 24.0452 17.112 25.6943 19.1392 25.6943C21.1664 25.6943 22.8155 24.0452 22.8155 22.018Z" fill="url(#paint2_linear_3992_8202)"/>
<path d="M41.8298 34.0893V33.1243C41.8298 30.3849 39.6012 28.1562 36.8618 28.1562C34.7851 28.1562 32.951 29.4533 32.2246 31.3378C34.1596 32.6803 35.4294 34.9172 35.4294 37.4455V39.3743C37.5784 37.6753 39.8708 35.808 41.8298 34.0893Z" fill="url(#paint3_linear_3992_8202)"/>
<path d="M36.8619 18.3418C34.8348 18.3418 33.1855 19.991 33.1855 22.018C33.1855 24.0452 34.8347 25.6943 36.8619 25.6943C38.889 25.6943 40.5381 24.0452 40.5381 22.018C40.5381 19.991 38.8889 18.3418 36.8619 18.3418Z" fill="black"/>
<path d="M36.8619 18.3418C34.8348 18.3418 33.1855 19.991 33.1855 22.018C33.1855 24.0452 34.8347 25.6943 36.8619 25.6943C38.889 25.6943 40.5381 24.0452 40.5381 22.018C40.5381 19.991 38.8889 18.3418 36.8619 18.3418Z" fill="url(#paint4_linear_3992_8202)"/>
<path d="M32.9674 41.2967V37.4447C32.9674 34.7052 30.7388 32.4766 27.9994 32.4766C25.26 32.4766 23.0312 34.7053 23.0312 37.4447V41.2966C25.863 43.4858 27.9993 45.0596 27.9993 45.0596C27.9993 45.0596 30.1356 43.4858 32.9674 41.2967Z" fill="url(#paint5_linear_3992_8202)"/>
<path d="M28.5823 29.9694C30.5862 29.6446 31.9474 27.7567 31.6226 25.7528C31.2977 23.7489 29.4098 22.3877 27.4059 22.7126C25.4019 23.0374 24.0407 24.9253 24.3655 26.9292C24.6904 28.9332 26.5783 30.2943 28.5823 29.9694Z" fill="black"/>
<path d="M28.5823 29.9694C30.5862 29.6446 31.9474 27.7567 31.6226 25.7528C31.2977 23.7489 29.4098 22.3877 27.4059 22.7126C25.4019 23.0374 24.0407 24.9253 24.3655 26.9292C24.6904 28.9332 26.5783 30.2943 28.5823 29.9694Z" fill="url(#paint6_linear_3992_8202)"/>
</g>
<defs>
<linearGradient id="paint0_linear_3992_8202" x1="18.9725" y1="30.4124" x2="18.9725" y2="38.0048" gradientUnits="userSpaceOnUse">
<stop stop-color="#14CAF8" stop-opacity="0.2"/>
<stop offset="1" stop-color="#27A1C0"/>
</linearGradient>
<linearGradient id="paint1_linear_3992_8202" x1="13.3302" y1="12.4051" x2="26.9145" y2="37.2317" gradientUnits="userSpaceOnUse">
<stop stop-color="#07AED8"/>
<stop offset="1" stop-color="#2BD1FB"/>
</linearGradient>
<linearGradient id="paint2_linear_3992_8202" x1="19.5532" y1="21.5921" x2="18.5824" y2="22.5629" gradientUnits="userSpaceOnUse">
<stop stop-color="#FCAE7D"/>
<stop offset="1" stop-color="#FA9374"/>
</linearGradient>
<linearGradient id="paint3_linear_3992_8202" x1="37.0272" y1="30.4124" x2="37.0272" y2="38.0049" gradientUnits="userSpaceOnUse">
<stop stop-color="#14CAF8" stop-opacity="0.2"/>
<stop offset="1" stop-color="#27A1C0"/>
</linearGradient>
<linearGradient id="paint4_linear_3992_8202" x1="37.2758" y1="21.5921" x2="36.305" y2="22.5629" gradientUnits="userSpaceOnUse">
<stop stop-color="#FCAE7D"/>
<stop offset="1" stop-color="#FA9374"/>
</linearGradient>
<linearGradient id="paint5_linear_3992_8202" x1="27.9993" y1="35.0072" x2="27.9993" y2="43.5235" gradientUnits="userSpaceOnUse">
<stop stop-color="#14CAF8" stop-opacity="0.2"/>
<stop offset="1" stop-color="#27A1C0"/>
</linearGradient>
<linearGradient id="paint6_linear_3992_8202" x1="28.3345" y1="25.8543" x2="27.5317" y2="26.9678" gradientUnits="userSpaceOnUse">
<stop stop-color="#FCAE7D"/>
<stop offset="1" stop-color="#FA9374"/>
</linearGradient>
<clipPath id="clip0_3992_8202">
<rect width="42" height="42" fill="white" transform="translate(7 6)"/>
</clipPath>
</defs>
</svg>
