<svg width="646" height="942" viewBox="0 0 646 942" fill="none" xmlns="http://www.w3.org/2000/svg">
<g clip-path="url(#clip0_3992_13715)">
<path d="M0 50C0 22.3857 22.3858 0 50 0H746V942H50C22.3857 942 0 919.614 0 892V50Z" fill="url(#paint0_radial_3992_13715)"/>
<path d="M7.75147 -24.953C7.75147 -24.953 -37.3395 28.284 -21.2375 94.739C-5.13553 161.195 50.1175 196.164 50.1175 196.164C50.1175 196.164 76.7905 116.498 53.9455 75.118C31.1005 33.739 22.9495 -29.541 22.9495 -29.541L7.75147 -24.953Z" fill="#4DB2D6"/>
<path d="M11.3896 -21.9634C11.3896 -21.9634 22.4797 43.0406 78.7017 68.1766C134.924 93.3116 191.895 70.3416 191.895 70.3416C191.895 70.3416 151.413 4.63664 108.9 -1.09536C66.3867 -6.82736 17.0556 -36.3184 17.0556 -36.3184L11.3896 -21.9634Z" fill="#4DB2D6"/>
<path d="M705.878 -50C705.878 -50 632.329 -43.118 599.512 17.438C566.695 77.994 587.551 143.44 587.551 143.44C587.551 143.44 664.36 103.851 674.347 56.942C684.334 10.033 721.436 -42.474 721.436 -42.474L705.878 -50Z" fill="#4DB2D6"/>
<path d="M658.86 492C658.86 492 585.311 498.882 552.494 559.438C519.677 619.993 540.533 685.44 540.533 685.44C540.533 685.44 617.342 645.851 627.328 598.942C637.316 552.033 674.418 499.526 674.418 499.526L658.86 492Z" fill="#4DB2D6"/>
<path d="M397.391 -1.36719C397.391 -1.36719 371.606 8.61981 365.982 33.7788C360.357 58.9378 374.563 80.3798 374.563 80.3798C374.563 80.3798 398.176 58.2808 396.975 40.3668C395.773 22.4528 403.765 -0.245188 403.765 -0.245188L397.391 -1.36719Z" fill="#4DB2D6"/>
<path d="M42.7866 586.802C42.7866 586.802 34.1856 613.058 50.1066 633.346C66.0286 653.634 91.6346 656.239 91.6346 656.239C91.6346 656.239 89.4806 623.988 74.8446 613.567C60.2096 603.146 47.6936 582.588 47.6936 582.588L42.7866 586.802Z" fill="#4DB2D6"/>
<path d="M399.422 3.53977C399.422 3.53977 392.576 30.3058 409.805 49.4978C427.034 68.6898 452.757 69.5988 452.757 69.5988C452.757 69.5988 448.473 37.5598 433.18 28.1278C417.889 18.6958 404.04 -0.990234 404.04 -0.990234L399.422 3.53977Z" fill="#4DB2D6"/>
<path d="M560.01 284.311C560.01 284.311 581.632 286.939 594.891 271.551C608.151 256.162 606.254 236 606.254 236C606.254 236 581.638 242.59 575.813 255.478C569.989 268.367 556 281.168 556 281.168L560.01 284.311Z" fill="#4DB2D6"/>
<path d="M426.903 388.421C426.903 388.421 417.198 426.366 441.623 453.573C466.047 480.78 502.513 482.068 502.513 482.068C502.513 482.068 496.44 436.649 474.761 423.278C453.081 409.907 433.449 382 433.449 382L426.903 388.421Z" fill="#4DB2D6"/>
<path d="M-45.4064 242.928C-45.4064 242.928 -66.8884 289.441 -41.9234 330.219C-16.9574 370.996 29.6436 381.283 29.6436 381.283C29.6436 381.283 32.6026 321.422 7.88757 299.092C-16.8274 276.761 -35.4634 236.217 -35.4634 236.217L-45.4064 242.928Z" fill="#4DB2D6"/>
<path d="M618.933 729.346C614.289 667.102 576.349 586.986 576.349 586.986H501.832C501.848 587.335 501.883 587.668 501.883 588.025V588.895L501.782 588.025C501.782 587.666 501.817 587.333 501.834 586.986H427.317C427.317 586.986 389.377 667.102 384.732 729.346L501.782 788.239L501.883 787.276V788.239L618.933 729.346Z" fill="#024442"/>
<path d="M548.873 289.49C543.554 284.058 538.481 287.227 535.967 289.543L534.1 274.603C531.089 250.522 509.128 233.441 485.047 236.451C460.966 239.462 443.884 261.423 446.895 285.504L448.762 300.445C445.753 298.821 440.056 296.997 436.239 303.571C431.106 312.409 443.225 328.921 452.609 327.673C458.235 348.482 478.459 362.507 500.461 359.758C522.463 357.007 538.611 338.436 538.943 316.883C548.341 315.782 556.022 296.795 548.873 289.49Z" fill="#FFBDA8"/>
<path d="M494.272 327.541C498.019 326.977 501.59 326.258 504.885 324.881C506.53 324.197 508.038 323.276 509.448 322.196C510.869 321.104 511.984 319.696 513.163 318.182C512.693 320.009 511.813 321.833 510.435 323.251C509.083 324.683 507.405 325.802 505.608 326.583C503.791 327.315 501.891 327.782 499.97 327.939C498.06 328.098 496.123 328.03 494.272 327.541Z" fill="#2E150C"/>
<path d="M504.646 330.288C506.023 329.554 507.42 329.041 508.706 328.31C509.374 327.999 510 327.617 510.594 327.199C511.189 326.783 511.739 326.309 512.24 325.705C512.088 326.484 511.61 327.172 511.055 327.741C510.499 328.322 509.811 328.73 509.135 329.128C507.721 329.806 506.221 330.294 504.646 330.288Z" fill="#2E150C"/>
<path d="M493.058 292.857C493.932 295.217 494.534 297.632 494.843 300.138C495.15 302.633 495.154 305.238 494.606 307.793C494.054 310.359 493.097 312.459 493.285 314.542C493.376 315.56 493.681 316.562 494.42 317.258C495.152 317.979 496.281 318.472 497.509 318.138C496.564 319.061 494.898 319.045 493.646 318.381C492.327 317.689 491.48 316.296 491.15 314.923C490.447 312.073 491.443 309.399 491.888 307.216C492.366 304.968 492.578 302.629 492.683 300.229C492.79 297.826 492.792 295.363 493.058 292.857Z" fill="#2E150C"/>
<path d="M439.546 309.332C439.41 307.832 439.662 306.068 440.975 304.794C441.601 304.176 442.526 303.727 443.528 303.717C444.527 303.686 445.442 304.077 446.188 304.559C447.717 305.555 448.661 306.954 449.52 308.265C450.373 309.571 451.084 310.88 451.872 312.188C452.261 312.837 452.053 313.678 451.404 314.067C450.856 314.397 450.167 314.298 449.733 313.868L449.687 313.82C448.766 312.905 447.468 312.273 446.151 312.246C445.492 312.231 445.042 312.312 444.688 312.608C444.309 312.907 444.031 313.457 443.915 314.045C443.693 315.197 444.356 316.656 445.424 317.764C446.456 318.865 447.896 319.821 449.613 319.561C448.059 320.499 445.964 319.866 444.502 318.842C443.046 317.816 441.628 316.132 441.688 313.851C441.721 312.767 442.133 311.665 442.984 310.801C443.853 309.905 445.168 309.557 446.176 309.579C448.228 309.598 450.252 310.406 451.668 311.918L449.481 313.55C448.762 312.225 447.985 310.888 447.313 309.571C446.623 308.295 445.877 307.078 444.952 306.253C444.004 305.433 442.912 305.112 441.776 305.816C440.647 306.449 439.963 307.861 439.546 309.332Z" fill="#2E150C"/>
<path d="M547.082 295.89C546.317 294.567 545.306 293.366 544.051 293.026C542.777 292.622 541.798 293.203 541.081 294.231C540.387 295.257 539.966 296.621 539.61 298.029C539.284 299.471 538.862 300.957 538.489 302.42L535.969 301.375C536.968 299.56 538.732 298.278 540.714 297.757C541.685 297.487 543.045 297.501 544.108 298.155C545.147 298.781 545.817 299.748 546.115 300.79C546.734 302.987 545.777 304.967 544.617 306.319C543.453 307.673 541.578 308.8 539.841 308.275C541.569 308.106 542.732 306.824 543.459 305.503C544.22 304.168 544.504 302.591 544.005 301.528C543.75 300.988 543.344 300.522 542.903 300.327C542.486 300.127 542.031 300.16 541.396 300.335C540.127 300.685 539.025 301.619 538.357 302.731L538.324 302.787C537.934 303.436 537.094 303.646 536.444 303.257C535.894 302.927 535.661 302.272 535.837 301.687C536.278 300.226 536.642 298.783 537.149 297.306C537.66 295.826 538.231 294.237 539.468 292.894C540.071 292.242 540.863 291.637 541.839 291.422C542.812 291.187 543.818 291.393 544.578 291.839C546.167 292.756 546.845 294.404 547.082 295.89Z" fill="#2E150C"/>
<path d="M482.37 285.445C480.94 285.316 479.162 285.217 477.556 285.281C475.914 285.34 474.28 285.505 472.683 285.866C471.075 286.214 469.557 286.841 468.094 287.624C466.602 288.386 465.322 289.499 464.005 290.665L463.925 290.737C463.513 291.102 462.884 291.063 462.519 290.653C462.223 290.319 462.194 289.839 462.414 289.476C463.416 287.83 464.599 286.173 466.177 284.918C467.692 283.591 469.474 282.536 471.366 281.808C473.247 281.048 475.236 280.543 477.245 280.37C479.289 280.219 481.193 280.25 483.363 280.763C484.647 281.066 485.443 282.352 485.14 283.638C484.864 284.811 483.765 285.577 482.599 285.47L482.37 285.445Z" fill="#2E150C"/>
<path d="M498.302 278.894C500.28 277.864 502.118 277.363 504.135 277.007C506.124 276.679 508.177 276.679 510.188 276.953C512.199 277.192 514.188 277.777 515.982 278.69C517.823 279.519 519.374 280.834 520.751 282.183C521.144 282.569 521.151 283.199 520.765 283.591C520.452 283.91 519.978 283.974 519.599 283.78L519.502 283.731C517.938 282.925 516.425 282.161 514.791 281.79C513.18 281.39 511.552 281.157 509.91 281.215C508.273 281.258 506.647 281.501 505.042 281.847C503.47 282.179 501.772 282.713 500.416 283.191L500.202 283.267C498.957 283.706 497.593 283.055 497.154 281.81C496.75 280.671 497.261 279.434 498.302 278.894Z" fill="#2E150C"/>
<path d="M511.868 299.012C512.326 302.68 511.118 305.85 509.171 306.093C507.224 306.336 505.272 303.56 504.813 299.892C504.355 296.224 505.563 293.055 507.51 292.81C509.46 292.568 511.409 295.344 511.868 299.012Z" fill="#2E150C"/>
<path d="M476.839 303.393C477.298 307.061 479.248 309.836 481.197 309.591C483.145 309.348 484.352 306.177 483.895 302.511C483.435 298.842 481.486 296.067 479.536 296.312C477.587 296.553 476.379 299.724 476.839 303.393Z" fill="#2E150C"/>
<path d="M511.826 254.713C511.826 254.713 517.223 269.675 521.147 272.618C525.07 275.561 527.525 294.94 530.958 294.204C534.391 293.468 536.109 289.052 536.109 289.052C536.109 289.052 535.619 258.881 525.563 252.015C515.505 245.147 511.826 254.713 511.826 254.713Z" fill="#F0B29E"/>
<path d="M462.485 260.714C462.485 260.714 461.436 276.586 458.476 280.499C455.519 284.412 458.52 303.713 455.014 303.954C451.511 304.197 448.641 300.428 448.641 300.428C448.641 300.428 440.771 271.298 448.538 261.918C456.302 252.537 462.485 260.714 462.485 260.714Z" fill="#F0B29E"/>
<path d="M462.485 260.714C462.485 260.714 482.148 266.977 495.883 264.524L488.279 258.882C488.279 258.882 499.806 263.789 511.826 254.713C523.844 245.638 529.977 257.166 529.977 257.166C529.977 257.166 522.795 219.663 485.336 227.485C443.638 236.194 445.109 275.071 445.109 275.071C445.109 275.071 447.644 255.94 462.485 260.714Z" fill="#2E150C"/>
<path d="M517.738 348.284L480.888 352.889L485.315 388.317L522.165 383.713L517.738 348.284Z" fill="#FFBDA8"/>
<path d="M518.356 353.355L519.366 361.44C514.107 364.747 508.042 366.997 501.464 367.82C494.887 368.642 488.455 367.953 482.543 366.041L481.533 357.957C487.445 359.867 493.877 360.558 500.455 359.735C507.032 358.915 513.097 356.663 518.356 353.355Z" fill="#F5A78E"/>
<path d="M580.097 400.328C580.097 400.328 670.432 440.409 728.668 502.908C732.645 507.176 735.561 512.301 737.191 517.904C743.004 537.882 751.455 590.381 720.072 679.296C720.072 679.296 690.639 682.238 683.771 679.296C676.903 676.353 688.678 573.334 679.847 562.54C671.017 551.749 561.13 466.39 559.169 443.823C557.203 421.259 580.097 400.328 580.097 400.328Z" fill="#1796C9"/>
<path d="M458.703 407.994C458.703 407.994 460.92 394.054 449.023 394.491C437.772 394.903 374.002 466.432 348.329 579.224C345.572 591.337 344.556 603.757 345.465 616.146C348.453 656.89 356.49 759.581 364.708 805.351H364.702C364.702 805.351 351.981 842.193 354.013 843.994C356.045 845.795 361.031 835.728 361.031 835.728C361.031 835.728 357.18 853.965 358.69 854.798C360.201 855.628 366.95 838.673 366.95 838.673C366.95 838.673 366.379 859.568 368.034 859.987C369.688 860.407 374.675 841.43 374.675 841.43C374.675 841.43 376.614 858.26 377.791 858.536C378.968 858.812 387.002 829.933 387.002 829.933C387.002 829.933 396.768 838.59 398.015 838.106C399.262 837.622 391.561 804.333 391.561 804.333C394.032 772.02 403.319 650.961 407.814 599.026C407.814 599.026 465.264 430.578 458.703 407.994Z" fill="#FFBDA8"/>
<path d="M445.354 395.014C445.354 395.014 406.11 421.749 376.675 482.089C347.242 542.428 339.883 604.239 339.883 604.239L359.505 785.748C359.505 785.748 386.976 794.087 395.806 786.238C404.636 778.389 411.995 599.332 411.995 599.332L461.052 437.446L445.354 395.014Z" fill="#1796C9"/>
<path d="M573.766 561.641C576.672 519.677 585.183 438.665 576.402 415.614C566.746 390.267 522.824 381.151 505.763 378.527H498.905C481.845 381.151 427.996 519.677 430.902 561.641C431.982 577.228 428.551 587.07 428.551 587.07H498.907H505.765H576.122C576.118 587.068 572.687 577.226 573.766 561.641Z" fill="#FFBDA8"/>
<path d="M577.564 586.829C577.564 586.829 499.319 619.944 425.484 587.797C425.484 587.797 429.42 561.317 428.431 544.151C427.442 526.965 437.024 401.633 445.35 395.018C450.831 390.67 465.792 386.116 475.436 383.478C475.436 383.478 475.436 383.478 475.456 383.478C476.322 383.252 477.126 383.025 477.888 382.84C481.639 381.85 484.111 381.273 484.111 381.273C484.111 381.273 497.836 394.276 522.131 381.768C522.131 381.768 524.336 382.407 527.943 383.499C528.643 383.705 529.385 383.932 530.189 384.179C545.85 388.898 579.542 399.305 587.373 403.591C597.677 409.237 577.564 586.829 577.564 586.829Z" fill="#1796C9"/>
<path opacity="0.5" d="M530.188 384.179C522.461 391.989 513.991 396.028 504.986 396.193H504.368C491.365 396.193 480.69 388.259 475.456 383.479C476.322 383.252 477.125 383.025 477.888 382.84C483.225 387.415 492.993 394.132 504.388 394.132H504.945C513.084 393.968 520.792 390.403 527.942 383.499C528.643 383.705 529.385 383.932 530.188 384.179Z" fill="#1796C9"/>
<path opacity="0.5" d="M587.641 480.559L566.004 458.664L585.581 504L587.641 480.559Z" fill="#1796C9"/>
<path opacity="0.5" d="M428.107 545.814L450.089 464.416L428.107 565.39V545.814Z" fill="#1796C9"/>
<path d="M432.222 611.6C431.892 616.133 431.501 621.409 431.048 627.302C427.441 674.431 420.291 760.053 412.955 800.587C413.799 803.018 425.566 837.35 423.608 839.081C421.568 840.894 416.581 830.817 416.581 830.817C416.581 830.817 420.435 849.055 418.931 849.899C417.426 850.724 410.667 833.764 410.667 833.764C410.667 833.764 411.244 854.66 409.575 855.092C407.927 855.505 402.94 836.525 402.94 836.525C402.94 836.525 401.003 853.361 399.828 853.629C398.653 853.918 390.617 825.027 390.617 825.027C390.617 825.027 380.849 833.682 379.592 833.208C378.355 832.713 386.062 799.433 386.062 799.433H386.145C383.672 767.162 374.378 646.343 369.886 594.517C369.886 594.517 332.834 427.373 339.388 404.849C339.388 404.849 316.782 389.93 328.672 390.363C339.408 390.754 398.056 455.872 425.649 559.752C426.967 564.678 428.204 569.664 429.358 574.754C432.119 586.851 433.149 599.236 432.222 611.6Z" fill="#BA6C44"/>
<path d="M432.222 611.599C431.892 616.133 431.501 621.408 431.047 627.302C413.181 626.127 399.086 611.27 399.086 593.115C399.086 576.856 410.42 563.235 425.648 559.752C426.967 564.677 428.204 569.664 429.358 574.754C432.119 586.85 433.149 599.235 432.222 611.599Z" fill="#A3653C"/>
<path d="M256.96 394.691C254.466 415.071 164.434 519.363 140.283 544.36C136.862 547.904 127.135 555.714 116.605 562.453C102.366 571.561 86.6427 578.67 83.0364 570.551C79.9042 563.483 77.4313 556.147 75.6591 548.666C74.6082 544.257 73.7839 539.805 73.2275 535.293C73.2069 535.148 73.1863 534.983 73.1657 534.86C70.7547 514.582 66.592 478.87 62.9652 442.396C59.3178 405.942 56.2061 368.726 55.8558 345.461C55.8558 345.461 36.3409 311.727 37.9895 309.584C39.5762 307.502 45.9644 315.704 46.4384 316.302C46.0468 315.374 39.2259 299.136 40.5035 298.085C41.7812 297.013 51.0956 311.418 51.6726 312.283C51.4459 311.253 47.1802 291.903 48.6845 291.202C50.2301 290.481 58.7614 308.141 58.7614 308.141C58.7614 308.141 57.4425 291.264 58.5347 290.749C59.6475 290.254 73.042 317.064 73.042 317.064C73.042 317.064 80.9757 306.699 82.2946 306.946C82.7686 307.028 82.9128 311.397 82.9128 317.002C82.9128 327.141 82.4182 341.319 82.4182 341.319C88.1058 361.967 104.097 419.934 118.439 471.39C179.58 404.273 244.389 375.011 253.374 378.473C264.481 382.739 256.96 394.691 256.96 394.691Z" fill="#BA6C44"/>
<path d="M116.605 562.452C102.366 571.56 86.6427 578.67 83.0365 570.55C79.9042 563.482 77.4314 556.146 75.6592 548.666C79.3891 547.264 83.428 546.502 87.6525 546.502C99.8518 546.502 110.547 552.87 116.605 562.452Z" fill="#A3653C"/>
<path d="M346.798 556.737C341.902 501.683 358.215 433.763 349.432 410.709C339.775 385.363 295.854 376.246 278.793 373.623H271.935C254.875 376.246 210.953 385.363 201.296 410.709C192.514 433.763 201.024 514.773 203.93 556.737C205.01 572.324 201.579 582.166 201.579 582.166H271.935H278.793H349.15C349.15 582.166 348.181 572.299 346.798 556.737Z" fill="#BA6C44"/>
<path d="M293.933 347.551H256.797V383.255H293.933V347.551Z" fill="#BA6C44"/>
<path d="M293.919 352.691V360.839C288.289 363.469 281.993 364.951 275.364 364.951C268.735 364.951 262.439 363.469 256.81 360.839V352.691C262.439 355.321 268.735 356.802 275.364 356.802C281.993 356.8 288.289 355.321 293.919 352.691Z" fill="#A15D3A"/>
<path d="M410.029 504.156C400.22 520.848 357.543 535.066 357.543 535.066L347.239 496.799L350.66 549.842C351.896 569.047 358.099 587.532 368.217 603.914C394.779 646.942 403.826 703.508 403.826 703.508H145.455C152.647 652.485 192.954 598.845 200.806 582.895C208.657 566.966 197.364 481.364 197.364 481.364L178.735 502.693C153.719 495.089 146.609 441.366 146.609 441.366C169.504 416.535 201.857 398.483 221.31 389.024C222.834 388.283 224.298 387.603 225.637 386.964C233.303 383.399 238.084 381.523 238.084 381.523H312.413C317.668 381.771 323.335 383.728 329.229 386.964C330.383 387.603 331.537 388.283 332.711 389.024C371.864 413.464 418.333 490.061 410.029 504.156Z" fill="#AB9909"/>
<path opacity="0.5" d="M332.711 389.024H221.31C222.834 388.282 224.298 387.602 225.637 386.963H329.229C330.383 387.602 331.537 388.282 332.711 389.024Z" fill="#AB9909"/>
<path d="M406.443 701.53H285.438L187.308 404.913C187.308 404.913 189.348 403.821 192.604 402.09C193.181 401.781 193.819 401.451 194.479 401.101C204.844 395.619 223.7 385.79 232.148 382.225C232.89 381.915 233.529 381.668 234.086 381.462C234.601 381.277 235.033 381.132 235.384 381.029C235.384 381.029 342.334 559.61 363.91 581.845C363.91 581.845 406.443 660.976 406.443 701.53Z" fill="white"/>
<path d="M356.759 577.394C356.574 577.642 356.265 577.765 355.976 577.765C355.749 577.765 355.502 577.683 355.317 577.518C313.052 541.579 242.988 403.842 232.148 382.225C232.89 381.916 233.529 381.669 234.086 381.463C245.172 403.533 314.803 540.343 356.656 575.952C357.089 576.302 357.13 576.962 356.759 577.394Z" fill="#CCE8F2"/>
<path d="M278.782 627.058C278.576 627.284 278.288 627.387 278.02 627.387C277.772 627.387 277.504 627.305 277.319 627.119C254.672 605.915 201.238 430.693 192.604 402.091C193.181 401.782 193.819 401.452 194.479 401.102C202.433 427.458 256.65 604.926 278.72 625.594C279.132 625.986 279.153 626.645 278.782 627.058Z" fill="#CCE8F2"/>
<path d="M283.171 619.659C282.767 619.659 282.382 619.42 282.219 619.02C274.858 601.136 210.53 443.933 218.346 431.274C218.793 430.549 219.45 430.134 220.244 430.077C220.332 430.071 220.423 430.066 220.512 430.066C227.771 430.066 237.222 451.65 251.826 486.985C262.336 512.412 274.246 541.231 280.777 542.397C281.317 542.49 281.467 542.317 281.548 542.218C284.838 538.243 272.822 506.745 264.048 483.748C252.679 453.946 248.626 442.484 251.189 440.376C251.661 439.987 252.502 439.702 253.835 440.535C266.329 448.343 331.82 600.416 334.602 606.889C334.827 607.413 334.586 608.018 334.062 608.241C333.543 608.468 332.935 608.224 332.709 607.701C309.231 553.101 262.305 448.258 252.741 442.282C252.63 442.212 252.541 442.165 252.469 442.132C251.636 445.435 259.566 466.223 265.971 483.014C278.786 516.612 286.905 538.975 283.132 543.535C282.679 544.083 281.838 544.681 280.41 544.429C273.284 543.156 264.135 522.178 249.918 487.776C239.132 461.68 226.918 432.129 220.542 432.129C220.493 432.129 220.444 432.131 220.394 432.133C220.324 432.139 220.227 432.146 220.097 432.358C214.601 441.258 255.375 548.396 284.121 618.237C284.338 618.765 284.086 619.367 283.561 619.581C283.435 619.635 283.303 619.659 283.171 619.659Z" fill="#CCE8F2"/>
<path d="M332.119 293.102C327.515 287.052 322.088 289.568 319.306 291.555V276.499C319.306 252.23 299.632 232.557 275.363 232.557C251.094 232.557 231.421 252.23 231.421 276.499V291.555C228.637 289.57 223.211 287.054 218.607 293.102C212.409 301.25 222.426 319.178 231.903 319.048C234.91 340.387 253.192 356.821 275.361 356.821C297.53 356.821 315.813 340.387 318.819 319.048C328.303 319.178 338.318 301.248 332.119 293.102Z" fill="#BA6C44"/>
<path d="M281.009 332.88C282.466 332.323 283.916 331.987 285.283 331.421C285.983 331.194 286.653 330.895 287.292 330.553C287.935 330.213 288.539 329.813 289.111 329.275C288.864 330.03 288.304 330.652 287.683 331.151C287.059 331.66 286.325 331.977 285.606 332.288C284.118 332.783 282.569 333.082 281.009 332.88Z" fill="#2E150C"/>
<path d="M276.321 289.52C276.896 291.97 277.193 294.441 277.189 296.965C277.183 299.481 276.865 302.065 276.004 304.532C275.136 307.009 273.929 308.975 273.857 311.064C273.82 312.084 273.999 313.117 274.646 313.902C275.283 314.708 276.342 315.338 277.603 315.157C276.55 315.954 274.899 315.734 273.739 314.92C272.515 314.069 271.848 312.583 271.693 311.178C271.349 308.262 272.668 305.733 273.381 303.621C274.135 301.449 274.634 299.153 275.035 296.786C275.439 294.416 275.746 291.974 276.321 289.52Z" fill="#2E150C"/>
<path d="M221.179 299.229C221.228 297.725 221.696 296.006 223.157 294.901C223.856 294.366 224.83 294.034 225.824 294.147C226.819 294.24 227.68 294.743 228.36 295.314C229.755 296.492 230.518 297.997 231.208 299.402C231.892 300.803 232.434 302.19 233.055 303.585C233.362 304.278 233.048 305.087 232.356 305.392C231.771 305.652 231.101 305.469 230.722 304.986L230.681 304.935C229.881 303.913 228.671 303.124 227.367 302.934C226.714 302.837 226.258 302.862 225.871 303.113C225.459 303.363 225.115 303.874 224.927 304.442C224.564 305.559 225.043 307.086 225.962 308.319C226.848 309.539 228.16 310.666 229.898 310.62C228.239 311.358 226.24 310.47 224.917 309.273C223.598 308.073 222.401 306.227 222.743 303.973C222.91 302.901 223.456 301.858 224.408 301.108C225.383 300.327 226.73 300.144 227.728 300.292C229.762 300.564 231.67 301.617 232.886 303.295L230.514 304.644C229.963 303.239 229.36 301.817 228.857 300.426C228.329 299.074 227.742 297.774 226.926 296.84C226.085 295.909 225.045 295.454 223.831 296.012C222.627 296.503 221.774 297.821 221.179 299.229Z" fill="#2E150C"/>
<path d="M329.549 299.229C328.953 297.822 328.1 296.505 326.897 296.012C325.683 295.454 324.64 295.909 323.802 296.841C322.986 297.774 322.398 299.074 321.871 300.426C321.37 301.817 320.764 303.239 320.214 304.644L317.842 303.295C319.06 301.617 320.968 300.564 323 300.292C323.997 300.144 325.345 300.327 326.32 301.108C327.272 301.86 327.818 302.901 327.985 303.973C328.327 306.229 327.132 308.076 325.811 309.273C324.488 310.472 322.487 311.358 320.83 310.621C322.565 310.666 323.878 309.539 324.766 308.319C325.687 307.086 326.165 305.557 325.8 304.443C325.613 303.874 325.269 303.363 324.857 303.113C324.467 302.864 324.014 302.839 323.361 302.934C322.058 303.126 320.847 303.915 320.047 304.935L320.008 304.987C319.542 305.582 318.681 305.687 318.085 305.219C317.58 304.824 317.43 304.146 317.677 303.585C318.295 302.19 318.837 300.803 319.524 299.402C320.214 297.997 320.976 296.49 322.371 295.314C323.052 294.743 323.911 294.24 324.906 294.147C325.899 294.034 326.874 294.364 327.573 294.901C329.032 296.004 329.499 297.725 329.549 299.229Z" fill="#2E150C"/>
<path d="M266.634 280.839C265.23 280.532 263.477 280.213 261.878 280.079C260.241 279.935 258.599 279.894 256.969 280.054C255.333 280.201 253.746 280.633 252.196 281.229C250.62 281.8 249.215 282.748 247.764 283.741L247.675 283.803C247.222 284.114 246.602 283.996 246.292 283.543C246.039 283.174 246.07 282.694 246.334 282.362C247.533 280.852 248.91 279.356 250.634 278.305C252.301 277.175 254.201 276.349 256.167 275.863C258.129 275.341 260.165 275.088 262.178 275.166C264.225 275.271 266.11 275.537 268.2 276.316C269.436 276.776 270.067 278.152 269.607 279.389C269.187 280.518 268.002 281.142 266.858 280.891L266.634 280.839Z" fill="#2E150C"/>
<path d="M283.253 276.314C285.343 275.537 287.231 275.269 289.277 275.164C291.29 275.086 293.328 275.34 295.288 275.861C297.254 276.347 299.154 277.174 300.821 278.303C302.544 279.354 303.922 280.85 305.122 282.36C305.464 282.791 305.392 283.417 304.961 283.76C304.611 284.038 304.133 284.042 303.78 283.803L303.692 283.741C302.241 282.748 300.833 281.802 299.259 281.229C297.709 280.633 296.125 280.199 294.486 280.054C292.856 279.894 291.214 279.935 289.578 280.079C287.977 280.213 286.225 280.532 284.822 280.84L284.599 280.889C283.311 281.171 282.038 280.355 281.755 279.065C281.494 277.887 282.155 276.722 283.253 276.314Z" fill="#2E150C"/>
<path d="M294.221 297.961C294.221 301.658 292.63 304.654 290.666 304.654C288.702 304.654 287.111 301.658 287.111 297.961C287.111 294.264 288.702 291.268 290.666 291.268C292.63 291.27 294.221 294.266 294.221 297.961Z" fill="#2E150C"/>
<path d="M291.818 292.757C291.818 292.757 294.827 292.56 296.525 291.27C296.525 291.27 295.136 294.849 292.437 294.96L291.818 292.757Z" fill="#2E150C"/>
<path d="M262.473 304.654C264.436 304.654 266.027 301.657 266.027 297.961C266.027 294.264 264.436 291.268 262.473 291.268C260.509 291.268 258.918 294.264 258.918 297.961C258.918 301.657 260.509 304.654 262.473 304.654Z" fill="#2E150C"/>
<path d="M261.321 292.757C261.321 292.757 258.312 292.56 256.614 291.27C256.614 291.27 258.003 294.849 260.703 294.96L261.321 292.757Z" fill="#2E150C"/>
<path d="M291.179 318.398C291.041 320.184 290.61 322.519 289.512 324.619C288.197 327.131 285.92 329.309 281.976 329.857C281.251 329.956 280.562 329.995 279.897 329.975C270.832 329.779 266.554 319.713 266.554 319.713L269.144 319.261L291.22 315.455C291.22 315.455 291.336 316.671 291.179 318.398Z" fill="#2E150C"/>
<path d="M291.18 318.398L270.478 322.008C270.006 322.086 269.575 321.792 269.497 321.322L269.145 319.261L291.221 315.455C291.221 315.455 291.336 316.671 291.18 318.398Z" fill="white"/>
<path d="M289.512 324.618C288.197 327.13 285.92 329.309 281.976 329.857C281.251 329.956 280.563 329.995 279.897 329.974C279.779 329.544 279.72 329.072 279.72 328.6C279.72 325.459 282.271 322.91 285.43 322.91C287.019 322.91 288.472 323.559 289.512 324.618Z" fill="#A3653C"/>
<path d="M174.725 416.844L187.971 407.524L187.153 405.072L235.555 380.871L236.045 382.342C240.134 380.38 256.813 376.455 256.813 376.455V352.744C237.517 344.242 231.141 319.386 231.141 319.386C217.404 315.952 214.462 297.147 219.531 291.75C224.6 286.353 231.714 291.75 231.714 291.75C257.468 285.126 275.864 258.146 275.864 258.146C275.864 258.146 297.38 299.768 318.719 291.918C318.719 291.918 326.964 286.19 332.033 292.893C337.102 299.597 331.542 315.295 319.932 318.893C319.932 318.893 314.7 343.749 294.095 352.577L293.933 376.288L310.939 381.52C310.939 381.52 328.927 383.972 345.607 398.69C354.61 386.128 356.681 367.47 350.647 353.241C349.135 349.674 347.169 346.309 345.759 342.7C339.39 326.404 345.114 308.239 346.697 290.814C347.261 284.605 347.259 278.19 345.141 272.325C343.023 266.461 338.462 261.195 332.435 259.596C332.033 259.489 330.191 253.701 329.776 252.93C328.629 250.793 327.231 248.769 325.63 246.946C318.09 238.361 306.839 231.697 296.224 227.709C287.153 224.301 277.154 222.918 267.677 224.942C259.403 226.708 251.917 230.99 245.38 236.257C239.083 241.33 231.872 247.587 227.545 254.465C217.495 270.444 201.269 278.202 195.388 296.139C190.522 310.98 199.977 326.858 198.71 342.424C198.143 349.387 195.355 356.153 190.848 361.49C184.32 369.226 174.088 374.454 171.158 384.141C168.343 393.441 169.833 408.451 174.725 416.844Z" fill="#2E150C"/>
<path d="M237.651 337.497C237.651 342.103 233.917 345.837 229.311 345.837C224.706 345.837 220.972 342.103 220.972 337.497C220.972 332.891 224.706 320.082 229.311 320.082C233.917 320.082 237.651 332.891 237.651 337.497Z" fill="#FFA901"/>
<path d="M229.312 322.533C231.513 322.533 233.297 320.749 233.297 318.548C233.297 316.347 231.513 314.562 229.312 314.562C227.111 314.562 225.326 316.347 225.326 318.548C225.326 320.749 227.111 322.533 229.312 322.533Z" fill="#FFA901"/>
<path d="M329.713 337.497C329.713 342.103 325.979 345.837 321.373 345.837C316.767 345.837 313.033 342.103 313.033 337.497C313.033 332.891 316.767 320.082 321.373 320.082C325.979 320.082 329.713 332.891 329.713 337.497Z" fill="#FFA901"/>
<path d="M321.373 322.533C323.574 322.533 325.358 320.749 325.358 318.548C325.358 316.347 323.574 314.562 321.373 314.562C319.172 314.562 317.388 316.347 317.388 318.548C317.388 320.749 319.172 322.533 321.373 322.533Z" fill="#FFA901"/>
<path d="M463.504 915.265H227.059C223.123 874.545 257.949 781.34 257.949 781.34H427.689C456.148 828.921 463.504 915.265 463.504 915.265Z" fill="#024442"/>
<path d="M295.001 786.801C290.776 805.451 269.098 830.344 266.625 833.126C265.965 837.618 258.197 891.794 260.587 915.266H258.506C256.177 891.547 263.596 839.597 264.544 833.126C256.631 826.449 264.935 790.284 265.945 786.08C266.069 785.524 266.625 785.173 267.181 785.318C267.738 785.441 268.088 785.998 267.944 786.554C265.368 797.393 260.154 825.707 265.533 831.271C269.345 826.861 289.107 803.431 292.981 786.348C293.105 785.792 293.661 785.441 294.218 785.565C294.774 785.689 295.124 786.245 295.001 786.801Z" fill="#1E2224"/>
<path d="M589.382 642.266C626.578 669.1 723.159 739.514 755.757 770.421L741.874 792.973C741.874 792.973 596.564 718.095 539.08 689.223C539.08 689.223 354.357 647.312 337.552 628.768C337.552 628.768 323.679 623 330.712 612.462C337.364 602.496 437.77 584.601 554.321 624.263C566.838 628.523 578.66 634.53 589.382 642.266Z" fill="#B36138"/>
<path d="M722.514 737.179C722.514 737.179 700.938 768.584 692.098 771.531C683.278 774.457 536.597 692.544 536.597 692.544C536.597 692.544 480.01 680.942 429.915 667.857C397.624 659.429 368.032 650.403 358.037 643.479C347.569 636.225 347.033 627.982 350.062 620.77C350.433 619.884 350.846 618.998 351.32 618.153C356.306 609.065 366.033 602.224 366.033 602.224C366.033 602.224 368.403 602.017 372.586 601.75C373.431 601.688 374.358 601.626 375.368 601.564C397.479 600.245 454.602 598.205 499.319 608.653C555.968 621.903 578.78 630.723 593.988 643.973C609.196 657.224 722.514 737.179 722.514 737.179Z" fill="#FF6F15"/>
<path d="M298.773 639.579C302.738 629.626 306.441 619.463 311.074 609.792C308.275 608.378 305.042 607.84 301.852 608.415C231.699 621.095 154.613 696.957 154.613 696.957L122.929 612.094C120.098 604.51 112.088 600.195 104.198 602.004L100.89 602.763C92.7277 604.634 87.3554 612.427 88.5053 620.722C94.1805 661.645 112.175 774.504 138.912 781.99C160.869 788.137 235.594 734.734 282.735 690.856C286.813 673.344 292.088 656.362 298.773 639.579Z" fill="#B36138"/>
<path d="M325.664 603.502L323.665 608.056L322.696 610.24L284.697 696.46C284.697 696.46 271.673 706.578 253.23 719.87C215.21 747.257 154.131 788.182 136.306 782.062C109.805 772.995 83.7988 646.921 88.7033 636.865C93.6284 626.809 129.917 623.367 129.917 623.367L156.418 690.835C156.418 690.835 205.71 652.567 240.536 629.013C267.552 610.756 303.841 605.48 318.781 604.038C319.296 603.976 319.79 603.935 320.244 603.893C320.512 603.873 320.78 603.832 321.027 603.811C323.994 603.564 325.664 603.502 325.664 603.502Z" fill="#FF6F15"/>
<path d="M368.564 575.891L329.229 572.021L325.51 609.836L364.844 613.706L368.564 575.891Z" fill="#B36138"/>
<path opacity="0.5" d="M367.986 581.348L367.244 588.88C361.009 591.079 354.186 591.992 347.163 591.302C340.142 590.611 333.628 588.386 327.938 585.012L328.68 577.48C334.368 580.852 340.884 583.077 347.905 583.768C354.925 584.46 361.748 583.547 367.986 581.348Z" fill="#A35933"/>
<path d="M433.583 786.74C432.346 798.012 270.231 811.51 255.497 786.74C250.263 777.941 250.345 754.511 252.468 728.422C252.53 727.742 252.591 727.041 252.633 726.361C252.818 724.218 253.024 722.034 253.23 719.87C253.972 712.142 254.838 704.312 255.785 696.667C255.888 695.822 255.992 694.997 256.115 694.153C256.218 693.287 256.321 692.442 256.424 691.597C256.527 690.897 256.61 690.196 256.713 689.495C257.867 680.511 259.103 671.897 260.257 664.211V664.19C260.978 659.285 261.679 654.772 262.297 650.734C262.792 647.519 263.245 644.634 263.637 642.12C264.976 633.506 270.19 626.005 277.814 621.801C289.128 615.557 306.17 606.964 318.864 604.162C319.338 604.059 319.791 603.976 320.244 603.894C320.492 603.832 320.759 603.791 321.007 603.75C322.758 603.44 324.386 603.276 325.911 603.255C325.911 603.255 340.274 614.98 366.033 602.225C366.033 602.225 368.032 602.575 371.267 603.337C371.968 603.502 372.751 603.688 373.555 603.894C384.868 606.738 406.134 613.476 417.138 626.067C426.494 636.762 429.194 652.485 429.915 667.858C430.203 673.566 430.203 679.212 430.162 684.529C430.162 685.23 430.162 685.91 430.141 686.59C430.121 689.887 430.1 693.04 430.141 695.966C430.162 698.047 430.224 700.5 430.348 703.261C430.368 704.168 430.409 705.115 430.43 706.105C430.718 712.987 431.151 721.313 431.625 729.988C431.646 730.689 431.687 731.369 431.728 732.069C432.944 755.005 434.325 779.795 433.583 786.74Z" fill="#FF6F15"/>
<path opacity="0.5" d="M430.163 684.528C430.163 685.228 430.163 685.908 430.142 686.588C357.152 678.243 276.166 688.752 256.425 691.596C256.528 690.895 256.61 690.195 256.713 689.494C277.485 686.506 357.688 676.264 430.163 684.528Z" fill="#FF6F15"/>
<path opacity="0.5" d="M431.728 732.069C412.811 733.285 393.193 733.759 374.09 733.759C319.812 733.759 269.86 729.926 252.468 728.422C252.53 727.742 252.591 727.041 252.633 726.361C276.083 728.381 359.047 734.687 431.625 729.988C431.646 730.689 431.687 731.369 431.728 732.069Z" fill="#FF6F15"/>
<g opacity="0.5">
<path d="M430.43 706.104L419.529 696.254L392.183 720.982L364.796 696.254L337.43 720.982L310.085 696.254L282.719 720.982L255.785 696.666C255.888 695.821 255.991 694.997 256.115 694.152L282.719 718.221L310.085 693.492L337.43 718.221L364.796 693.492L392.183 718.221L419.529 693.492L430.347 703.26C430.368 704.167 430.409 705.115 430.43 706.104Z" fill="#FF6F15"/>
</g>
<g opacity="0.5">
<path d="M260.247 664.221L252.392 653.402L269.65 648.766L260.247 664.221Z" fill="#FF6F15"/>
</g>
<path opacity="0.5" d="M375.368 601.564C374.832 602.265 374.235 603.048 373.555 603.893C368.918 609.498 360.778 617.535 350.063 620.77C348.826 621.141 347.528 621.471 346.209 621.697C344.932 621.924 343.716 622.027 342.521 622.027C333.536 622.027 326.921 615.969 322.697 610.24C321.069 608.035 319.791 605.892 318.864 604.161C318.843 604.12 318.822 604.079 318.781 604.037C319.296 603.976 319.791 603.934 320.244 603.893C320.492 603.831 320.76 603.79 321.007 603.749C321.007 603.769 321.007 603.79 321.027 603.811C321.728 605.088 322.594 606.551 323.665 608.056C328.034 614.361 335.473 621.533 345.838 619.678C347.734 619.328 349.568 618.813 351.32 618.153C360.078 614.938 366.981 608.324 371.267 603.337C371.741 602.78 372.174 602.244 372.586 601.75C373.431 601.688 374.358 601.626 375.368 601.564Z" fill="#FF6F15"/>
<path d="M414.661 522.215C410.416 515.328 404.405 517.428 401.25 519.239L402.82 503.293C405.35 477.59 386.563 454.702 360.858 452.171C335.155 449.643 312.266 468.428 309.736 494.134L308.168 510.079C305.427 507.687 299.941 504.456 294.435 510.384C287.031 518.355 295.735 538.342 305.769 539.248C306.723 562.17 324.423 581.478 347.908 583.788C371.394 586.101 392.518 570.612 397.922 548.316C407.937 549.381 420.369 531.476 414.661 522.215Z" fill="#B36138"/>
<path d="M310.204 514.098C310.204 514.098 318.42 499.749 319.893 489.324C321.365 478.899 326.762 472.766 331.79 475.097C336.818 477.428 350.064 485.644 358.771 485.522C367.477 485.401 385.137 479.268 388.082 482.946C391.025 486.625 384.649 496.559 388.941 504.53C393.234 512.501 399.121 520.35 399.121 520.35L401.254 519.237C401.254 519.237 404.761 496.926 403.045 489.567C401.328 482.209 390.782 454.369 362.327 451.549C333.875 448.728 316.337 468.719 312.904 478.04C309.47 487.36 307.962 509.904 307.962 509.904L310.204 514.098Z" fill="#A15732"/>
<path d="M307.96 509.906C307.96 509.906 311.593 526.73 305.868 539.321C300.146 551.912 307.34 584.78 323.691 594.918C338.415 604.047 372.093 601.459 383.54 591.976C394.988 582.492 397.767 548.153 397.767 548.153C397.767 548.153 392.257 528.562 401.25 519.241C401.25 519.241 392.48 523.099 385.815 529.609C379.081 536.188 345.679 550.111 331.798 540.928C325.851 537.522 320.928 532.58 317.548 526.617L307.96 509.906Z" fill="#2E150C"/>
<path d="M363.209 494.248C365.302 493.16 367.375 492.812 369.564 492.744C371.738 492.672 373.92 493.135 376.008 493.846C378.101 494.545 380.073 495.682 381.755 497.102C383.469 498.495 384.764 500.319 385.712 502.198C386.019 502.808 385.773 503.554 385.161 503.861C384.753 504.067 384.283 504.026 383.927 503.791L383.801 503.709C382.202 502.66 380.803 501.609 379.191 500.937C377.646 500.193 376.057 499.635 374.4 499.286C372.756 498.899 371.064 498.755 369.347 498.536C367.649 498.341 365.807 498.235 364.089 497.93L363.763 497.873C362.71 497.687 362.009 496.682 362.195 495.629C362.304 495.017 362.698 494.518 363.209 494.248Z" fill="#2E150C"/>
<path d="M348.801 496.425C347.055 496.388 345.227 496.134 343.523 495.994C341.798 495.873 340.111 495.685 338.423 495.745C336.729 495.764 335.062 496.003 333.401 496.431C331.691 496.775 330.112 497.536 328.34 498.251L328.202 498.306C327.567 498.562 326.846 498.257 326.588 497.622C326.417 497.198 326.498 496.732 326.759 496.396C328.056 494.737 329.679 493.2 331.633 492.17C333.56 491.106 335.713 490.375 337.906 490.097C340.092 489.808 342.324 489.779 344.442 490.272C346.577 490.764 348.541 491.51 350.383 492.986C351.218 493.653 351.352 494.871 350.682 495.706C350.293 496.19 349.72 496.439 349.143 496.431L348.801 496.425Z" fill="#2E150C"/>
<path d="M370.858 543.613C364.165 560.336 349.05 548.893 349.05 548.893L370.858 543.613Z" fill="white"/>
<path d="M355.935 512.604C356.287 515.258 356.345 517.906 356.077 520.578C355.828 523.249 355.172 525.934 354.035 528.469C352.829 530.987 351.393 532.967 351.08 535.164C350.936 536.242 351.016 537.353 351.62 538.251C352.209 539.17 353.266 539.947 354.62 539.889C353.421 540.625 351.696 540.219 350.552 539.234C349.345 538.206 348.793 536.561 348.774 535.057C348.702 533.53 349.172 532.063 349.679 530.775C350.221 529.487 350.87 528.347 351.352 527.23C352.407 525.019 353.126 522.623 353.817 520.162C354.49 517.698 355.069 515.144 355.935 512.604Z" fill="#2E150C"/>
<path d="M296.519 517.14C296.729 515.551 297.403 513.779 299.066 512.763C299.861 512.268 300.928 512.019 301.969 512.243C303.014 512.445 303.873 513.068 304.533 513.744C305.887 515.137 306.538 516.81 307.123 518.372C307.702 519.928 308.133 521.453 308.642 522.996C308.895 523.761 308.479 524.585 307.714 524.838C307.067 525.053 306.377 524.787 306.027 524.237L305.99 524.177C305.248 523.013 304.048 522.05 302.688 521.712C302.006 521.541 301.522 521.521 301.085 521.745C300.621 521.966 300.203 522.473 299.945 523.054C299.445 524.197 299.791 525.867 300.638 527.268C301.45 528.653 302.723 529.984 304.566 530.116C302.732 530.724 300.706 529.576 299.43 528.168C298.159 526.761 297.083 524.682 297.681 522.326C297.969 521.209 298.655 520.163 299.741 519.466C300.854 518.741 302.303 518.687 303.342 518.947C305.466 519.448 307.378 520.762 308.493 522.664L305.841 523.847C305.404 522.302 304.912 520.731 304.526 519.206C304.108 517.721 303.622 516.28 302.855 515.207C302.064 514.133 301.007 513.542 299.663 514.007C298.338 514.405 297.295 515.712 296.519 517.14Z" fill="#2E150C"/>
<path d="M411.302 528.435C410.817 526.884 410.051 525.398 408.827 524.751C407.601 524.034 406.449 524.407 405.462 525.305C404.499 526.208 403.743 527.527 403.042 528.901C402.366 530.321 401.577 531.765 400.848 533.195L398.478 531.52C399.941 529.87 402.074 528.955 404.254 528.878C405.326 528.825 406.733 529.161 407.685 530.09C408.617 530.984 409.084 532.147 409.15 533.299C409.278 535.724 407.819 537.554 406.296 538.687C404.769 539.819 402.558 540.55 400.879 539.596C402.713 539.825 404.221 538.768 405.286 537.568C406.389 536.359 407.055 534.79 406.787 533.571C406.646 532.95 406.335 532.371 405.925 532.064C405.54 531.759 405.06 531.685 404.359 531.72C402.96 531.786 401.596 532.497 400.642 533.494L400.594 533.544C400.038 534.127 399.115 534.148 398.531 533.591C398.039 533.119 397.948 532.386 398.27 531.819C399.069 530.405 399.788 528.994 400.66 527.58C401.538 526.162 402.502 524.648 404.104 523.545C404.883 523.012 405.847 522.568 406.91 522.575C407.976 522.558 408.971 523.009 409.657 523.65C411.087 524.965 411.405 526.836 411.302 528.435Z" fill="#2E150C"/>
<path d="M374.014 523.409C373.628 527.324 371.631 530.331 369.55 530.127C367.469 529.923 366.096 526.582 366.482 522.667C366.867 518.752 368.866 515.745 370.945 515.949C373.027 516.155 374.399 519.494 374.014 523.409Z" fill="#2E150C"/>
<path d="M336.624 519.73C336.239 523.645 337.611 526.983 339.693 527.189C341.772 527.393 343.771 524.387 344.156 520.471C344.542 516.556 343.169 513.218 341.088 513.012C339.007 512.808 337.008 515.816 336.624 519.73Z" fill="#2E150C"/>
<path d="M799.543 934.614H548.261C551.558 890.267 579.728 839.945 593.658 817.483C594.111 816.762 594.524 816.082 594.956 815.423C598.892 809.137 601.406 805.531 601.406 805.531H746.397C746.397 805.531 748.911 809.137 752.847 815.423C753.28 816.082 753.692 816.762 754.146 817.483C768.076 839.945 796.246 890.267 799.543 934.614Z" fill="#FFA901"/>
<path opacity="0.5" d="M736.63 817.483H754.146C753.692 816.761 753.28 816.081 752.847 815.422H594.956C594.524 816.081 594.112 816.761 593.658 817.483H734.466C734.466 817.627 734.487 817.771 734.548 817.915C734.858 818.554 763.172 881.261 767.499 934.613H769.56C765.418 883.054 739.041 822.902 736.63 817.483Z" fill="#FFA901"/>
<path d="M643.999 601.929C649.429 600.439 655.329 602.188 658.949 606.499C662.99 611.311 667.165 619.476 667.705 632.889C668.785 659.717 530.514 795.503 497.127 789.288C469.828 784.206 441.881 673.394 432.594 633.134C430.71 624.974 435.369 616.735 443.334 614.147L446.561 613.098C454.26 610.596 462.62 614.182 466.115 621.485L505.211 703.198C505.211 703.198 575.25 620.79 643.999 601.929Z" fill="#CC7548"/>
<path d="M539.542 663.924C539.542 663.924 600.372 606.036 645.503 600.477L599.391 723.445L579.441 740.777C579.441 740.777 528.097 699.244 539.542 663.924Z" fill="#AB9909"/>
<path d="M742.52 780.432C745.425 738.468 753.936 657.458 745.153 634.405C735.497 609.058 691.575 599.942 674.514 597.318H667.656C650.596 599.942 596.748 738.468 599.653 780.432C600.733 796.019 667.656 805.861 667.656 805.861H674.514C674.514 805.861 741.442 796.019 742.52 780.432Z" fill="#CC7548"/>
<path d="M750.478 682.899C748.52 719.517 746.398 805.531 746.398 805.531H600.376L594.235 704.124C593.514 692.275 595.719 680.426 600.644 669.628C610.474 648.011 628.299 612.402 643.548 601.15C643.836 600.944 644.104 600.738 644.393 600.553L645.547 600.512L652.45 600.223C652.45 600.223 657.932 662.621 666.442 664.909C674.932 667.196 691.624 599.502 691.624 599.502C691.624 599.502 693.788 600.058 697.188 601.068C697.806 601.274 698.445 601.46 699.146 601.686C710.109 605.086 729.994 612.175 737.413 620.748C747.861 632.844 752.456 646.259 750.478 682.899Z" fill="#AB9909"/>
<path opacity="0.5" d="M699.146 601.686C695.313 620.665 682.165 663.796 669.41 672.554C667.782 673.667 666.195 674.223 664.629 674.223C664.031 674.223 663.413 674.141 662.815 673.955C649.792 670.122 645.011 621.675 643.548 601.151C643.836 600.944 644.104 600.738 644.393 600.553L645.547 600.512C647.257 625.055 652.512 668.762 663.413 671.997C664.897 672.43 666.483 672.059 668.235 670.864C680.373 662.498 693.458 619.429 697.188 601.068C697.806 601.274 698.445 601.46 699.146 601.686Z" fill="#AB9909"/>
<path d="M807.683 829.95C807.395 834.71 806.818 839.47 805.973 844.169C805.952 844.292 805.931 844.436 805.911 844.581C803.912 855.729 791.63 861.664 781.636 856.327C777.988 854.369 774.32 852.35 770.632 850.248C768.159 848.846 765.727 847.342 763.357 845.755C756.99 841.572 751.034 836.791 745.532 831.454C744.172 830.156 742.812 828.775 741.493 827.394C713.488 797.617 643.177 722.113 615.049 685.144C614.822 684.835 614.616 684.547 614.389 684.258L582.057 646.588C582.057 646.588 576.163 636.12 583.685 636.779C591.206 637.439 620.097 645.723 634.11 666.103L634.069 666.144C649.339 678.179 689.77 709.955 728.614 740.35C719.073 691.821 709.923 637.15 714.642 625.528C714.642 625.528 713.859 611.433 725.646 613.081C736.465 614.606 789.652 687.823 805.561 797.164C806.117 800.956 806.632 804.809 807.085 808.683C807.93 815.751 808.116 822.861 807.683 829.95Z" fill="#CC7548"/>
<path d="M712.639 508.834C707.04 503.69 702.142 507.126 699.753 509.57L697.099 494.749C692.819 470.861 669.984 454.965 646.097 459.245C622.209 463.525 606.313 486.36 610.593 510.247L613.247 525.068C610.158 523.605 604.371 522.084 600.907 528.851C596.25 537.949 609.224 553.798 618.528 552.055C625.246 572.536 646.183 585.473 668.01 581.564C689.835 577.653 704.979 558.254 704.169 536.713C713.5 535.116 720.166 515.75 712.639 508.834Z" fill="#CC7548"/>
<path d="M604.518 534.428C604.301 532.938 604.46 531.164 605.703 529.82C606.296 529.169 607.197 528.672 608.194 528.609C609.191 528.524 610.127 528.868 610.896 529.309C612.476 530.222 613.492 531.57 614.419 532.833C615.341 534.092 616.119 535.361 616.975 536.627C617.399 537.253 617.234 538.104 616.608 538.529C616.076 538.887 615.386 538.826 614.928 538.415L614.879 538.372C613.91 537.509 612.581 536.944 611.264 536.985C610.605 537.006 610.162 537.111 609.822 537.424C609.459 537.742 609.21 538.306 609.128 538.898C608.967 540.06 609.707 541.482 610.83 542.531C611.918 543.575 613.408 544.453 615.11 544.103C613.607 545.121 611.483 544.602 609.968 543.654C608.458 542.706 606.956 541.101 606.894 538.819C606.869 537.735 607.221 536.612 608.027 535.706C608.847 534.764 610.143 534.346 611.149 534.317C613.199 534.226 615.262 534.927 616.756 536.363L614.661 538.108C613.871 536.822 613.024 535.528 612.287 534.249C611.528 533.012 610.722 531.834 609.754 531.061C608.763 530.292 607.656 530.028 606.56 530.791C605.464 531.491 604.854 532.938 604.518 534.428Z" fill="#2E150C"/>
<path d="M646.016 508.311C644.58 508.257 642.799 508.251 641.2 508.401C639.564 508.55 637.94 508.799 636.364 509.244C634.777 509.677 633.293 510.384 631.874 511.243C630.423 512.084 629.205 513.263 627.952 514.497L627.876 514.571C627.484 514.957 626.854 514.952 626.468 514.561C626.155 514.244 626.099 513.765 626.301 513.39C627.214 511.692 628.306 509.976 629.819 508.638C631.261 507.233 632.984 506.085 634.835 505.259C636.673 504.4 638.633 503.792 640.629 503.513C642.661 503.256 644.565 503.186 646.76 503.584C648.058 503.818 648.92 505.061 648.687 506.359C648.472 507.546 647.415 508.368 646.245 508.321L646.016 508.311Z" fill="#2E150C"/>
<path d="M641.441 526.526C642.093 530.165 644.188 532.834 646.121 532.488C648.054 532.141 649.093 528.912 648.44 525.273C647.788 521.636 645.693 518.965 643.76 519.311C641.829 519.658 640.79 522.887 641.441 526.526Z" fill="#2E150C"/>
<path d="M642.89 520.978C642.89 520.978 639.894 521.314 637.996 520.344C637.996 520.344 639.995 523.622 642.672 523.256L642.89 520.978Z" fill="#2E150C"/>
<path d="M647.329 545.764C648.421 551.862 644.364 557.689 638.268 558.781C632.171 559.874 626.343 555.816 625.251 549.721C624.159 543.623 628.216 537.795 634.312 536.703C640.409 535.611 646.237 539.666 647.329 545.764Z" fill="#DE7B5E"/>
<path d="M731.226 546.765C745.513 520.085 693.658 474.982 687.414 469.691C684.02 466.14 679.781 462.76 674.446 459.766C644.325 442.862 605.548 471.016 602.616 494.555C599.216 500.999 573.799 551.187 596.121 571.368C596.121 571.368 581.43 592.158 595.467 608.65C615.089 631.707 647.795 618.461 652.374 600.473L649.431 580.523C649.431 580.523 625.393 574.964 618.362 551.906C618.362 551.906 601.029 549.617 600.046 532.775C600.046 532.775 600.545 521.96 612.048 524.52C612.808 524.983 613.292 525.09 613.292 525.09C629.809 527.052 625.721 506.449 625.721 506.449C643.544 502.033 647.224 483.067 647.224 483.067C647.224 483.067 661.206 496.803 675.186 489.199C675.186 489.199 682.046 504.187 690.962 508.893C693.073 511.247 695.939 512.063 699.714 509.557C709.958 502.759 714.518 511.758 714.518 511.758C719.276 527.945 703.73 535.946 703.73 535.946C704.889 560.024 685.611 574.312 685.611 574.312L690.165 600.077C700.543 615.467 748.007 605.336 751.508 583.965C754.655 564.749 731.226 546.765 731.226 546.765Z" fill="#2E150C"/>
<path d="M81.229 805.535C81.229 805.535 29.3549 885.987 28.374 935.37H281.505C281.505 935.37 271.36 846.417 228.357 805.535H81.229Z" fill="#024442"/>
<path opacity="0.5" d="M199.027 831.565H173.442V805.806C173.442 805.237 172.98 804.775 172.411 804.775C171.842 804.775 171.381 805.237 171.381 805.806V831.565H155.753V806.321C155.753 805.752 155.291 805.291 154.722 805.291C154.153 805.291 153.692 805.752 153.692 806.321V831.565H117.114C116.546 831.565 116.084 832.026 116.084 832.595C116.084 833.164 116.546 833.625 117.114 833.625H171.653C171.84 833.833 172.106 833.969 172.411 833.969C172.714 833.969 172.98 833.833 173.168 833.625H199.027C199.596 833.625 200.058 833.164 200.058 832.595C200.058 832.026 199.596 831.565 199.027 831.565Z" fill="#024442"/>
<g opacity="0.5">
<path d="M137.635 850.455C137.635 850.455 157.469 867.713 173.439 866.426V931.595L157.469 873.38C157.469 873.38 140.726 862.562 137.635 850.455Z" fill="#024442"/>
</g>
<path d="M211.769 516.799C207.165 510.749 201.74 513.265 198.956 515.252V500.196C198.956 475.927 179.282 456.254 155.013 456.254C130.744 456.254 111.071 475.927 111.071 500.196V515.252C108.287 513.267 102.861 510.749 98.2572 516.799C92.0669 524.933 102.045 542.822 111.512 542.746C114.512 564.09 132.84 580.518 155.013 580.518C177.186 580.518 195.514 564.093 198.515 542.746C207.981 542.822 217.959 524.933 211.769 516.799Z" fill="#FFA080"/>
<path d="M152.872 547.782C156.658 547.686 160.293 547.418 163.732 546.457C165.449 545.981 167.06 545.256 168.593 544.36C170.141 543.451 171.42 542.194 172.778 540.838C172.086 542.594 170.988 544.294 169.442 545.53C167.921 546.783 166.12 547.686 164.239 548.238C162.345 548.739 160.4 548.967 158.477 548.885C156.561 548.805 154.648 548.498 152.872 547.782Z" fill="#2E150C"/>
<path d="M162.825 551.796C164.282 551.239 165.733 550.903 167.099 550.337C167.8 550.11 168.469 549.811 169.108 549.469C169.751 549.129 170.355 548.729 170.928 548.191C170.681 548.946 170.12 549.568 169.5 550.065C168.875 550.574 168.142 550.891 167.423 551.202C165.935 551.699 164.387 551.998 162.825 551.796Z" fill="#2E150C"/>
<path d="M155.97 513.217C156.545 515.667 156.841 518.138 156.837 520.662C156.831 523.178 156.514 525.762 155.652 528.229C154.785 530.706 153.577 532.672 153.505 534.761C153.468 535.781 153.647 536.814 154.294 537.599C154.931 538.405 155.99 539.033 157.252 538.854C156.198 539.651 154.548 539.431 153.388 538.615C152.164 537.764 151.496 536.278 151.341 534.873C150.997 531.957 152.316 529.428 153.029 527.316C153.783 525.144 154.284 522.849 154.684 520.481C155.09 518.113 155.397 515.671 155.97 513.217Z" fill="#2E150C"/>
<path d="M100.829 522.926C100.879 521.422 101.348 519.703 102.809 518.601C103.508 518.063 104.483 517.733 105.476 517.846C106.471 517.939 107.333 518.442 108.013 519.013C109.408 520.192 110.17 521.696 110.861 523.101C111.545 524.503 112.087 525.889 112.707 527.285C113.014 527.977 112.701 528.787 112.008 529.092C111.423 529.351 110.753 529.168 110.374 528.686L110.335 528.634C109.536 527.612 108.324 526.823 107.022 526.633C106.368 526.536 105.913 526.561 105.525 526.813C105.113 527.062 104.767 527.573 104.582 528.142C104.219 529.259 104.697 530.788 105.616 532.018C106.502 533.238 107.815 534.365 109.552 534.32C107.893 535.057 105.894 534.169 104.571 532.972C103.252 531.773 102.055 529.926 102.397 527.67C102.564 526.598 103.108 525.556 104.062 524.805C105.037 524.024 106.385 523.841 107.382 523.989C109.416 524.261 111.324 525.314 112.542 526.992L110.17 528.342C109.62 526.936 109.016 525.514 108.513 524.123C107.986 522.772 107.399 521.471 106.583 520.538C105.744 519.606 104.699 519.151 103.487 519.709C102.278 520.2 101.423 521.519 100.829 522.926Z" fill="#2E150C"/>
<path d="M209.199 522.926C208.604 521.519 207.751 520.202 206.547 519.709C205.333 519.151 204.291 519.606 203.452 520.538C202.636 521.471 202.049 522.772 201.521 524.123C201.018 525.514 200.414 526.936 199.864 528.342L197.492 526.992C198.71 525.314 200.618 524.261 202.652 523.989C203.648 523.841 204.997 524.024 205.972 524.805C206.924 525.558 207.47 526.598 207.637 527.67C207.979 529.926 206.784 531.773 205.463 532.972C204.14 534.171 202.139 535.057 200.482 534.32C202.218 534.365 203.53 533.238 204.418 532.018C205.339 530.786 205.818 529.259 205.453 528.142C205.265 527.573 204.921 527.062 204.509 526.813C204.12 526.563 203.666 526.539 203.013 526.633C201.711 526.825 200.499 527.614 199.699 528.634L199.66 528.686C199.194 529.281 198.333 529.386 197.738 528.919C197.233 528.523 197.082 527.845 197.33 527.285C197.948 525.889 198.49 524.503 199.176 523.101C199.866 521.696 200.629 520.19 202.024 519.013C202.704 518.442 203.563 517.939 204.561 517.846C205.554 517.733 206.529 518.063 207.227 518.601C208.68 519.701 209.15 521.42 209.199 522.926Z" fill="#2E150C"/>
<path d="M146.282 504.537C144.879 504.23 143.127 503.91 141.526 503.776C139.89 503.632 138.247 503.593 136.617 503.752C134.981 503.898 133.394 504.331 131.845 504.926C130.27 505.497 128.863 506.443 127.412 507.438L127.324 507.498C126.87 507.809 126.25 507.692 125.941 507.238C125.687 506.87 125.718 506.389 125.982 506.058C127.181 504.547 128.558 503.051 130.281 502C131.948 500.871 133.848 500.044 135.816 499.558C137.778 499.037 139.814 498.783 141.827 498.862C143.873 498.967 145.759 499.233 147.848 500.011C149.085 500.471 149.715 501.848 149.254 503.084C148.833 504.213 147.648 504.838 146.505 504.586L146.282 504.537Z" fill="#2E150C"/>
<path d="M162.903 500.011C164.993 499.235 166.88 498.967 168.927 498.862C170.942 498.783 172.978 499.037 174.938 499.558C176.904 500.044 178.804 500.871 180.473 502C182.196 503.051 183.574 504.547 184.771 506.058C185.114 506.488 185.041 507.115 184.611 507.455C184.26 507.733 183.78 507.737 183.43 507.498L183.339 507.436C181.889 506.443 180.481 505.497 178.907 504.924C177.357 504.329 175.772 503.894 174.134 503.75C172.504 503.589 170.862 503.63 169.226 503.774C167.624 503.908 165.873 504.228 164.469 504.535L164.247 504.584C162.957 504.867 161.685 504.048 161.403 502.76C161.143 501.584 161.803 500.42 162.903 500.011Z" fill="#2E150C"/>
<path d="M170.316 528.351C172.28 528.351 173.871 525.355 173.871 521.658C173.871 517.961 172.28 514.965 170.316 514.965C168.353 514.965 166.762 517.961 166.762 521.658C166.762 525.355 168.353 528.351 170.316 528.351Z" fill="#2E150C"/>
<path d="M171.469 516.455C171.469 516.455 174.477 516.257 176.175 514.967C176.175 514.967 174.786 518.546 172.087 518.658L171.469 516.455Z" fill="#2E150C"/>
<path d="M138.568 521.658C138.568 525.355 140.159 528.351 142.123 528.351C144.087 528.351 145.678 525.355 145.678 521.658C145.678 517.961 144.087 514.965 142.123 514.965C140.159 514.967 138.568 517.963 138.568 521.658Z" fill="#2E150C"/>
<path d="M140.971 516.455C140.971 516.455 137.963 516.257 136.265 514.967C136.265 514.967 137.654 518.546 140.353 518.658L140.971 516.455Z" fill="#2E150C"/>
<path d="M140.972 541.634C140.972 547.829 135.95 552.849 129.757 552.849C123.563 552.849 118.543 547.827 118.543 541.634C118.543 535.44 123.565 530.42 129.757 530.42C135.95 530.42 140.972 535.44 140.972 541.634Z" fill="#F78E6B"/>
<path d="M196.901 541.634C196.901 547.829 191.879 552.849 185.687 552.849C179.493 552.849 174.473 547.827 174.473 541.634C174.473 535.44 179.495 530.42 185.687 530.42C191.879 530.42 196.901 535.44 196.901 541.634Z" fill="#F78E6B"/>
<path d="M198.927 515.119C198.927 515.119 195.003 521.007 193.204 520.679C191.405 520.351 185.52 487.976 185.52 487.976C187.647 496.478 185.52 501.875 185.52 501.875C167.86 507.107 121.91 501.875 121.91 501.875C119.293 496.969 121.91 486.667 121.91 486.667C121.91 486.667 117.576 506.862 117.904 514.528C118.242 522.455 112.693 518.513 111.098 515.202C109.503 511.89 104.495 481.763 121.83 465.409C139.162 449.057 184.867 456.579 192.881 468.679C200.891 480.78 198.927 515.119 198.927 515.119Z" fill="#2E150C"/>
<path d="M182.536 443.574C181.057 454.374 168.142 468.348 154.572 468.348C141.003 468.348 128.088 454.372 126.609 443.574C124.954 431.496 137.39 420.605 154.572 420.605C171.755 420.605 184.191 431.496 182.536 443.574Z" fill="#2E150C"/>
<path d="M173.582 571.246H136.446V606.95H173.582V571.246Z" fill="#FFA080"/>
<path d="M173.568 576.387V584.535C167.938 587.164 161.643 588.646 155.014 588.646C148.384 588.646 142.089 587.164 136.459 584.535V576.387C142.089 579.016 148.384 580.498 155.014 580.498C161.643 580.496 167.938 579.016 173.568 576.387Z" fill="#F78E6B"/>
<path d="M135.972 600.478C135.972 600.478 130.043 590.426 135.378 585.598C138.146 583.094 144.161 583.85 155.553 583.391C167.482 582.908 173.502 582.855 176.156 585.352C181.322 590.214 173.569 600.499 173.569 600.499C173.569 600.499 212.498 608 227.869 625.66C243.24 643.32 224.59 792.783 228.355 805.534H81.2274C81.2274 805.534 82.0084 748.628 78.738 733.257C75.4677 717.887 74.8145 620.428 74.8145 620.428C74.8145 620.428 118.965 601.787 135.972 600.478Z" fill="white"/>
<path d="M179.966 799.625H130.338C129.769 799.625 129.308 799.164 129.308 798.595C129.308 798.026 129.769 797.564 130.338 797.564H179.966C180.535 797.564 180.996 798.026 180.996 798.595C180.996 799.164 180.535 799.625 179.966 799.625Z" fill="#DEF5FF"/>
<path d="M154.766 605.733C145.353 605.733 138.427 602.759 137.994 602.568C137.473 602.339 137.238 601.731 137.466 601.212C137.693 600.69 138.305 600.455 138.822 600.682C138.977 600.75 154.257 607.289 169.949 600.676C170.471 600.459 171.076 600.701 171.299 601.226C171.52 601.749 171.274 602.353 170.749 602.576C165.127 604.941 159.615 605.733 154.766 605.733Z" fill="#DEF5FF"/>
<path d="M136.483 600.498C127.304 602.376 119.461 610.695 121.038 619.931C140.223 732.276 127.399 888.924 119.292 904.301C109.809 922.289 32.2998 906.591 32.2998 906.591C32.2998 906.591 67.9479 757.785 68.2735 734.893C68.6011 712.001 71.5438 619.121 71.5438 619.121C71.5438 619.121 97.9023 600.01 133.876 595.594L136.483 600.498Z" fill="#1EB0D8"/>
<path opacity="0.5" d="M87.1108 900.255H42.4141C41.8454 900.255 41.3838 899.794 41.3838 899.225C41.3838 898.656 41.8454 898.195 42.4141 898.195H87.1108C98.5683 898.195 108.934 890.974 112.905 880.23C115.998 871.863 116.468 862.881 114.265 854.259C108.847 833.044 94.9538 794.741 88.2792 776.335C87.0222 772.871 86.0289 770.13 85.4066 768.373C80.5701 754.702 101.342 726.165 110.496 714.531C112.412 712.095 112.321 708.635 110.279 706.302C102.888 697.864 90.0102 682.668 86.814 675.728C81.6561 664.519 110.388 620.286 111.617 618.409C111.928 617.935 112.567 617.801 113.043 618.108C113.519 618.419 113.653 619.058 113.341 619.534C105.167 632.059 84.7966 666.415 88.6872 674.866C91.8896 681.821 105.939 698.218 111.829 704.946C114.526 708.023 114.646 712.591 112.115 715.808C105.136 724.675 82.7277 754.626 87.3478 767.686C87.9701 769.442 88.9613 772.179 90.2163 775.634C96.9032 794.072 110.819 832.438 116.261 853.75C118.567 862.782 118.075 872.185 114.84 880.945C110.568 892.493 99.4255 900.255 87.1108 900.255Z" fill="#1EB0D8"/>
<path d="M47.8321 936.329C47.8321 936.325 47.83 936.321 47.83 936.317C41.1966 908.011 18.3208 810.082 5.43314 753.458C20.6679 739.557 51.6959 710.923 79.4227 683.4C76.6139 674.853 74.1061 666.189 71.0851 657.644C67.7241 648.134 63.6253 639.029 60.6105 629.6C42.5649 639.779 22.4855 653.057 1.9897 669.798C-14.1415 682.935 -30.4931 698.219 -46.309 715.762C-48.549 718.249 -50.6612 720.827 -52.6993 723.471C-58.6259 731.153 -60.9503 741.075 -58.9679 750.573C-57.5296 757.464 -55.4709 764.231 -52.858 770.807C-48.8767 780.802 -43.2468 794.79 -36.7494 810.725C-18.5555 855.265 6.59743 915.062 22.5308 945.392C22.5328 945.398 22.537 945.402 22.539 945.406C22.5328 945.617 21.5272 984.362 24.0001 985.462C26.4791 986.567 28.1998 975.466 28.1998 975.466C28.1998 975.466 30.0276 994.016 31.7174 994.352C33.4072 994.69 34.7301 976.488 34.7301 976.488C34.7301 976.488 40.4878 996.582 42.1899 996.483C43.8941 996.384 42.9256 976.787 42.9256 976.787C42.9256 976.787 49.8495 992.248 51.055 992.158C52.2606 992.067 51.2116 962.108 51.2116 962.108C51.2116 962.108 63.1328 967.417 64.1755 966.58C65.2182 965.741 47.8383 936.325 47.8383 936.325L47.8321 936.329Z" fill="#FFA080"/>
<path d="M21.195 813.713L22.9878 821.564C9.49022 835.041 -28.777 837.493 -28.777 837.493C-28.777 837.493 -30.7141 833.928 -33.6403 828.035C-33.97 827.375 -34.2997 826.695 -34.65 825.974C-46.19 802.462 -69.785 749.295 -59.4403 726.875C-45.9427 697.695 28.119 646.425 28.119 646.425L73.0629 618.152L87.2405 688.443L7.53255 754.097L20.6592 811.446L21.195 813.713Z" fill="#1EB0D8"/>
<g opacity="0.5">
<path d="M68.9886 703.503L92.2993 686.502L68.2158 730.034L68.9886 703.503Z" fill="#1EB0D8"/>
</g>
<path opacity="0.5" d="M21.1946 813.714C7.2849 825.831 -21.0291 827.789 -33.6406 828.036C-33.9704 827.376 -34.3001 826.696 -34.6504 825.975C-22.5747 825.749 7.44977 823.915 20.6589 811.447L21.1946 813.714Z" fill="#1EB0D8"/>
<path opacity="0.5" d="M7.42496 753.86C7.42496 753.86 -6.87218 745.23 -8.93289 748.45C-10.9936 751.671 7.42496 753.86 7.42496 753.86Z" fill="#1EB0D8"/>
<g opacity="0.5">
<path d="M7.68243 754.376C7.68243 754.376 -2.62108 740.079 1.62809 738.148C5.87726 736.217 7.68243 754.376 7.68243 754.376Z" fill="#1EB0D8"/>
</g>
<path d="M173.571 600.498C182.75 602.375 191.553 610.91 189.016 619.93C169.005 691.068 182.655 888.924 190.762 904.301C200.245 922.289 277.754 906.59 277.754 906.59C277.754 906.59 242.106 757.785 241.778 734.893C241.451 712 238.508 635.144 238.508 635.144C238.508 635.144 212.162 600.467 176.186 596.053L173.571 600.498Z" fill="#1EB0D8"/>
<path opacity="0.5" d="M266.445 900.255H221.747C209.432 900.255 198.29 892.492 194.02 880.942C190.784 872.182 190.292 862.779 192.598 853.747C198.04 832.435 211.956 794.069 218.643 775.632C219.896 772.174 220.889 769.44 221.512 767.684C226.132 754.623 203.724 724.673 196.744 715.806C194.216 712.589 194.335 708.022 197.031 704.944C202.922 698.216 216.97 681.819 220.172 674.864C224.061 666.413 203.693 632.059 195.518 619.532C195.207 619.056 195.341 618.417 195.817 618.106C196.293 617.797 196.932 617.931 197.243 618.407C198.469 620.284 227.203 664.519 222.045 675.725C218.849 682.666 205.972 697.861 198.58 706.3C196.538 708.632 196.447 712.092 198.364 714.528C207.517 726.163 228.289 754.699 223.453 768.37C222.83 770.13 221.837 772.871 220.58 776.333C213.904 794.741 200.012 833.043 194.595 854.256C192.392 862.88 192.862 871.861 195.955 880.227C199.926 890.972 210.291 898.192 221.749 898.192H266.447C267.016 898.192 267.478 898.654 267.478 899.223C267.478 899.791 267.016 900.255 266.445 900.255Z" fill="#1EB0D8"/>
<path d="M309.015 798.016C293.78 731.084 270.238 706.929 247.109 675.295C242.398 681.162 249.53 817.817 249.53 817.817C254.025 869.757 263.314 990.819 265.783 1023.13L265.701 1023.13C265.701 1023.13 258.002 1056.42 259.249 1056.9C260.495 1057.38 270.261 1048.73 270.261 1048.73C270.261 1048.73 278.294 1077.61 279.472 1077.33C280.649 1077.05 282.588 1060.22 282.588 1060.22C282.588 1060.22 287.575 1079.2 289.23 1078.78C290.885 1078.36 290.314 1057.47 290.314 1057.47C290.314 1057.47 297.065 1074.42 298.573 1073.59C300.084 1072.76 296.232 1054.52 296.232 1054.52C296.232 1054.52 301.219 1064.59 303.251 1062.79C305.211 1061.05 293.434 1026.68 292.611 1024.29C300.838 978.589 308.889 875.727 311.881 834.94C312.788 822.547 311.772 810.129 309.015 798.016Z" fill="#FFA080"/>
<path d="M238.508 635.145C238.508 635.145 260.042 663.106 264.704 671.201C269.365 679.295 306.361 762.036 313.229 806.515C313.229 806.515 314.21 858.842 311.595 882.388C311.595 882.388 273.004 895.469 251.093 879.117L246.188 815.345L230.628 704.145L238.508 635.145Z" fill="#1EB0D8"/>
<path d="M102.768 597.777C96.6579 601.262 92.9053 607.776 92.9836 614.809C93.099 625.09 93.711 638.736 96.1241 639.968C100.037 641.967 102.659 632.01 102.659 632.01C102.659 632.01 106.704 648.231 109.387 649.082C112.068 649.934 110.53 630.839 110.53 630.839C110.53 630.839 116.645 647.079 118.961 648.392C121.277 649.705 118.625 627.705 118.625 627.705C118.625 627.705 127.169 644.017 129.86 643.834C132.551 643.65 122.225 606.43 122.225 606.43C122.225 606.43 138.684 604.713 134.635 600.695C132.642 598.719 127.601 596.442 122.994 594.637C117.5 592.485 111.338 592.889 106.215 595.811L102.768 597.777Z" fill="#B36138"/>
<path d="M560.396 525.629C555.793 519.579 550.367 522.095 547.583 524.082V509.026C547.583 484.757 527.909 465.084 503.641 465.084C479.372 465.084 459.698 484.757 459.698 509.026V524.082C456.914 522.097 451.488 519.579 446.885 525.629C440.686 533.775 450.703 551.706 460.18 551.576C463.187 572.914 481.472 589.348 503.638 589.348C525.805 589.348 544.09 572.916 547.099 551.576C556.578 551.706 566.595 533.775 560.396 525.629Z" fill="#FFB87A"/>
<path d="M500.846 559.636C504.631 559.539 508.266 559.269 511.706 558.311C513.422 557.835 515.034 557.11 516.567 556.213C518.114 555.304 519.394 554.047 520.752 552.691C520.06 554.447 518.961 556.147 517.416 557.384C515.895 558.637 514.094 559.539 512.213 560.091C510.319 560.592 508.373 560.821 506.451 560.738C504.532 560.658 502.622 560.351 500.846 559.636Z" fill="#2E150C"/>
<path d="M510.799 563.649C512.256 563.093 513.706 562.757 515.073 562.19C515.773 561.963 516.443 561.665 517.082 561.323C517.725 560.983 518.329 560.583 518.902 560.045C518.654 560.799 518.094 561.421 517.473 561.92C516.849 562.427 516.115 562.747 515.396 563.058C513.908 563.552 512.359 563.851 510.799 563.649Z" fill="#2E150C"/>
<path d="M504.597 522.045C505.172 524.495 505.468 526.966 505.464 529.49C505.458 532.004 505.141 534.588 504.279 537.057C503.412 539.534 502.204 541.5 502.132 543.59C502.095 544.61 502.274 545.642 502.921 546.427C503.558 547.233 504.617 547.863 505.878 547.684C504.825 548.482 503.175 548.261 502.015 547.445C500.791 546.594 500.123 545.108 499.968 543.703C499.624 540.787 500.943 538.259 501.656 536.146C502.41 533.974 502.911 531.679 503.311 529.311C503.717 526.941 504.024 524.499 504.597 522.045Z" fill="#2E150C"/>
<path d="M449.456 531.756C449.506 530.252 449.975 528.533 451.434 527.429C452.133 526.893 453.108 526.561 454.101 526.675C455.098 526.767 455.958 527.27 456.638 527.841C458.033 529.02 458.795 530.524 459.486 531.929C460.17 533.331 460.712 534.717 461.332 536.113C461.639 536.805 461.326 537.615 460.633 537.92C460.048 538.179 459.378 537.996 458.999 537.514L458.958 537.462C458.158 536.44 456.947 535.651 455.644 535.461C454.991 535.364 454.536 535.389 454.148 535.641C453.736 535.89 453.392 536.401 453.204 536.97C452.842 538.087 453.32 539.616 454.239 540.846C455.125 542.066 456.438 543.193 458.175 543.148C456.516 543.885 454.517 542.997 453.194 541.8C451.875 540.601 450.678 538.754 451.02 536.498C451.187 535.426 451.733 534.384 452.685 533.634C453.66 532.852 455.008 532.669 456.005 532.817C458.039 533.089 459.947 534.142 461.165 535.82L458.793 537.17C458.243 535.764 457.639 534.342 457.136 532.951C456.609 531.6 456.021 530.299 455.205 529.366C454.367 528.434 453.322 527.979 452.11 528.537C450.905 529.03 450.05 530.349 449.456 531.756Z" fill="#2E150C"/>
<path d="M557.826 531.756C557.231 530.349 556.378 529.032 555.174 528.539C553.96 527.981 552.918 528.436 552.079 529.368C551.263 530.301 550.676 531.602 550.148 532.953C549.645 534.344 549.041 535.766 548.491 537.172L546.119 535.822C547.337 534.145 549.245 533.092 551.279 532.82C552.277 532.671 553.624 532.855 554.599 533.636C555.551 534.388 556.097 535.428 556.264 536.5C556.606 538.756 555.411 540.603 554.09 541.802C552.767 543.001 550.766 543.888 549.109 543.15C550.845 543.195 552.157 542.068 553.045 540.848C553.967 539.616 554.445 538.087 554.08 536.972C553.892 536.403 553.548 535.892 553.136 535.643C552.747 535.393 552.293 535.369 551.64 535.463C550.338 535.655 549.126 536.444 548.326 537.464L548.287 537.516C547.819 538.111 546.96 538.216 546.363 537.749C545.858 537.353 545.707 536.675 545.955 536.115C546.573 534.719 547.115 533.333 547.801 531.931C548.491 530.526 549.254 529.02 550.649 527.843C551.329 527.272 552.188 526.769 553.183 526.677C554.177 526.563 555.151 526.893 555.85 527.431C557.307 528.531 557.777 530.25 557.826 531.756Z" fill="#2E150C"/>
<path d="M494.909 507.478C493.506 507.171 491.752 506.852 490.153 506.718C488.517 506.574 486.875 506.534 485.245 506.693C483.606 506.839 482.022 507.272 480.472 507.868C478.895 508.438 477.49 509.384 476.039 510.38L475.951 510.439C475.497 510.751 474.877 510.633 474.568 510.18C474.317 509.811 474.345 509.331 474.609 508.999C475.809 507.488 477.185 505.992 478.908 504.941C480.575 503.812 482.475 502.986 484.441 502.5C486.403 501.978 488.439 501.725 490.452 501.803C492.498 501.908 494.384 502.174 496.473 502.953C497.71 503.412 498.34 504.789 497.879 506.025C497.458 507.155 496.273 507.779 495.13 507.528L494.909 507.478Z" fill="#2E150C"/>
<path d="M511.53 502.953C513.62 502.176 515.507 501.908 517.552 501.803C519.567 501.725 521.603 501.98 523.563 502.499C525.529 502.986 527.429 503.812 529.098 504.941C530.821 505.992 532.199 507.488 533.396 508.999C533.739 509.43 533.666 510.056 533.236 510.398C532.885 510.676 532.405 510.68 532.055 510.441L531.966 510.38C530.516 509.386 529.108 508.44 527.534 507.868C525.984 507.272 524.399 506.837 522.761 506.693C521.131 506.532 519.489 506.573 517.853 506.718C516.251 506.852 514.5 507.171 513.096 507.478L512.874 507.528C511.584 507.81 510.31 506.992 510.03 505.704C509.77 504.525 510.43 503.361 511.53 502.953Z" fill="#2E150C"/>
<path d="M512.93 531.513C514.077 530.519 515.471 529.862 516.925 529.423C518.384 528.978 519.938 528.823 521.49 528.92C523.039 529.03 524.585 529.481 525.935 530.247C527.32 530.956 528.422 532.11 529.242 533.351C527.862 532.708 526.65 532.024 525.315 531.647C524.01 531.243 522.695 530.938 521.337 530.874C518.625 530.653 515.874 531.014 512.93 531.513Z" fill="#2E150C"/>
<path d="M495.76 531.513C492.813 531.014 490.064 530.653 487.352 530.876C485.994 530.94 484.679 531.245 483.375 531.649C482.04 532.024 480.83 532.708 479.449 533.353C480.269 532.112 481.372 530.958 482.757 530.25C484.106 529.483 485.652 529.032 487.202 528.922C488.753 528.826 490.307 528.978 491.766 529.425C493.217 529.864 494.612 530.519 495.76 531.513Z" fill="#2E150C"/>
<path d="M547.391 523.541C547.391 523.541 539.296 526.239 533.164 498.032C533.164 498.032 499.805 508.088 476.993 507.107C476.993 507.107 470.615 525.994 459.578 523.787C459.578 523.787 454.672 520.599 449.522 522.561C449.522 522.561 447.315 480.372 471.598 467.373C495.882 454.372 533.9 460.014 542.484 475.222C542.484 475.222 561.861 489.449 559.409 523.544C559.409 523.544 553.769 520.354 547.391 523.541Z" fill="#2E150C"/>
<path d="M619.706 956.974H385.507C390.164 899.48 429.812 825.48 429.812 825.48H502.617C502.596 825.81 502.555 826.119 502.555 826.449L502.658 827.253V826.449C502.658 826.119 502.637 825.81 502.617 825.48H572.413C572.413 825.48 615.069 899.48 619.706 956.974Z" fill="#1792B3"/>
<path opacity="0.5" d="M515.681 831.23L515.66 891.938L498.103 956.974H495.96L513.62 891.526V831.23C513.62 830.653 514.094 830.199 514.651 830.199C515.228 830.199 515.681 830.653 515.681 831.23Z" fill="#1792B3"/>
<path opacity="0.5" d="M444.257 830.466C443.907 830.61 419.323 841.676 404.712 956.973H402.631C417.509 839.224 442.485 828.921 443.556 828.529C444.092 828.344 444.69 828.632 444.875 829.147C445.061 829.683 444.793 830.281 444.257 830.466Z" fill="#1792B3"/>
<path opacity="0.5" d="M606.537 956.973H604.497C598.789 886.477 558.873 826.922 558.461 826.304C558.276 826.057 558.234 825.748 558.296 825.48C558.358 825.233 558.523 825.027 558.729 824.882C559.203 824.553 559.842 824.676 560.151 825.15C560.172 825.171 560.233 825.295 560.357 825.48C563.613 830.364 601.077 888.538 606.537 956.973Z" fill="#1792B3"/>
<path d="M522.21 580.076H485.074V615.78H522.21V580.076Z" fill="#FFB87A"/>
<path d="M522.196 585.217V593.365C516.566 595.994 510.271 597.476 503.641 597.476C497.012 597.476 490.717 595.994 485.087 593.365V585.217C490.717 587.846 497.012 589.328 503.641 589.328C510.271 589.326 516.566 587.846 522.196 585.217Z" fill="#F2A45E"/>
<path d="M577.853 787.603C577.132 802.729 576.493 813.156 576.411 814.516C576.411 814.516 573.67 832.197 566.313 836.606C563.222 838.441 536.515 839.553 507.789 839.615H505.729C471.871 839.636 435.953 838.193 433.048 834.793C427.154 827.931 427.36 814.681 427.36 814.681C427.36 814.681 419.756 666.289 428.555 643.23C438.199 617.884 481.969 611.042 499.031 608.404L502.143 613.432L505.893 608.404C515.208 609.847 532.6 612.546 548.035 618.831C549.209 619.305 550.384 619.821 551.538 620.336C562.892 625.487 572.701 632.803 576.679 643.23C578.059 646.857 579.007 653.595 579.584 662.353C579.687 663.693 579.77 665.094 579.852 666.516C581.604 699.178 579.46 754.611 577.853 787.603Z" fill="white"/>
<path d="M507.789 619.657V839.617H505.729V619.657C505.729 619.08 506.182 618.627 506.759 618.627C507.336 618.627 507.789 619.08 507.789 619.657Z" fill="#CCE8F2"/>
<path d="M484.11 605.098L501.045 608.399C502.512 608.685 503.538 610.017 503.439 611.506L502.116 631.747C502.087 632.198 501.484 632.332 501.267 631.934L493.919 618.463L477.608 612.454L484.11 605.098Z" fill="#CCE8F2"/>
<path d="M522.373 605.098L505.438 608.399C503.971 608.685 502.945 610.017 503.044 611.506L504.367 631.747C504.396 632.198 504.997 632.332 505.216 631.934L512.564 618.463L528.875 612.454L522.373 605.098Z" fill="#CCE8F2"/>
<path d="M660.508 843.758C657.355 886.745 648.576 998.703 639.921 1040.02H615.028C615.028 1040.02 603.364 886.868 598.151 826.655C598.151 826.655 540.719 658.192 547.272 635.607C547.272 635.607 545.644 626.952 551.538 624.046C552.135 623.737 552.795 623.49 553.557 623.325C554.484 623.139 555.535 623.057 556.731 623.098C567.982 623.51 631.967 694.048 657.643 806.851C660.405 818.968 661.414 831.374 660.508 843.758Z" fill="white"/>
<path d="M578.539 766.311L559.65 729.561L577.853 787.604L578.539 766.311Z" fill="#CCE8F2"/>
<path d="M639.653 979.414C635.326 1006.55 632.296 1026.03 630.215 1040.02H628.113C630.462 1024.4 633.636 1004.02 637.633 979.084C653.645 878.996 644.001 777.939 625.867 741.691C617.48 724.938 597.903 694.027 579.851 666.517C568.888 649.763 558.503 634.287 551.537 624.046C550.26 622.109 549.065 620.357 548.034 618.832C549.209 619.306 550.383 619.821 551.537 620.336C552.176 621.284 552.856 622.273 553.557 623.324C560.069 632.948 569.486 647.002 579.584 662.354C598.192 690.648 618.984 723.33 627.722 740.784C645.979 777.3 655.747 878.934 639.653 979.414Z" fill="#CCE8F2"/>
<path d="M438.075 736.085V736.126C433.81 750.366 429.42 764.44 425.381 777.072V777.093C416.356 805.448 409.122 826.653 409.122 826.653C403.909 886.867 392.245 1040.02 392.245 1040.02H367.373C358.697 998.701 349.918 886.743 346.766 843.757C345.859 831.372 346.889 818.966 349.63 806.85C370.216 716.446 415.263 652.544 438.137 630.515C440.548 628.207 442.712 626.353 444.567 624.993C447.081 623.138 449.059 622.149 450.337 622.108C462.227 621.675 460.001 635.605 460.001 635.605C463.195 646.609 451.223 692.192 438.075 736.085Z" fill="white"/>
<path d="M425.361 776.612L438.07 736.084L426.736 801.34L425.361 776.612Z" fill="#CCE8F2"/>
<path d="M372.792 1038.33C372.895 1038.88 372.504 1039.42 371.947 1039.5C371.886 1039.52 371.844 1039.52 371.783 1039.52C371.288 1039.52 370.855 1039.17 370.773 1038.66C370.484 1036.99 343.118 870.092 360.985 787.891C373.885 728.563 415.634 662.868 438.137 630.515C440.548 628.207 442.712 626.352 444.567 624.992C423.857 653.986 376.79 724.895 363.004 788.344C345.22 870.133 372.524 1036.66 372.792 1038.33Z" fill="#CCE8F2"/>
<path d="M442.918 617.935C436.804 621.411 433.041 627.919 433.109 634.952C433.208 645.233 433.802 658.881 436.213 660.118C440.122 662.123 442.758 652.169 442.758 652.169C442.758 652.169 446.78 668.397 449.461 669.253C452.142 670.108 450.629 651.009 450.629 651.009C450.629 651.009 456.721 667.258 459.033 668.575C461.347 669.891 458.728 647.887 458.728 647.887C458.728 647.887 467.249 664.212 469.94 664.033C472.632 663.854 462.359 626.619 462.359 626.619C462.359 626.619 478.82 624.925 474.777 620.902C472.788 618.924 467.752 616.639 463.144 614.827C457.654 612.668 451.491 613.061 446.364 615.977L442.918 617.935Z" fill="#CC7548"/>
</g>
<defs>
<radialGradient id="paint0_radial_3992_13715" cx="0" cy="0" r="1" gradientUnits="userSpaceOnUse" gradientTransform="translate(373 471) rotate(90) scale(471 373)">
<stop stop-color="#7ADDF7"/>
<stop offset="1" stop-color="#90E4FA"/>
</radialGradient>
<clipPath id="clip0_3992_13715">
<path d="M0 50C0 22.3857 22.3858 0 50 0H746V942H50C22.3857 942 0 919.614 0 892V50Z" fill="white"/>
</clipPath>
</defs>
</svg>
