<svg width="42" height="42" viewBox="0 0 42 42" fill="none" xmlns="http://www.w3.org/2000/svg">
<g clip-path="url(#clip0_3992_8209)">
<path d="M21 6.04975C20.2755 6.04975 19.6875 5.46175 19.6875 4.73725V1.3125C19.6875 0.588 20.2755 0 21 0C21.7245 0 22.3125 0.588 22.3125 1.3125V4.73725C22.3125 5.46175 21.7245 6.04975 21 6.04975Z" fill="url(#paint0_linear_3992_8209)"/>
<path d="M32.4996 10.8139C32.1636 10.8139 31.8276 10.6862 31.5721 10.4289C31.0593 9.91619 31.0593 9.08494 31.5721 8.57219L33.9941 6.15019C34.5068 5.63744 35.3381 5.63744 35.8508 6.15019C36.3636 6.66294 36.3636 7.49419 35.8508 8.00694L33.4288 10.4289C33.1716 10.6844 32.8356 10.8139 32.4996 10.8139Z" fill="url(#paint1_linear_3992_8209)"/>
<path d="M40.6865 22.3125H37.2617C36.5372 22.3125 35.9492 21.7245 35.9492 21C35.9492 20.2755 36.5372 19.6875 37.2617 19.6875H40.6865C41.411 19.6875 41.999 20.2755 41.999 21C41.999 21.7245 41.411 22.3125 40.6865 22.3125Z" fill="url(#paint2_linear_3992_8209)"/>
<path d="M34.9216 36.2339C34.5856 36.2339 34.2496 36.1061 33.9941 35.8489L31.5721 33.4269C31.0593 32.9141 31.0593 32.0829 31.5721 31.5701C32.0848 31.0574 32.9161 31.0574 33.4288 31.5701L35.8508 33.9921C36.3636 34.5049 36.3636 35.3361 35.8508 35.8489C35.5936 36.1061 35.2576 36.2339 34.9216 36.2339Z" fill="url(#paint3_linear_3992_8209)"/>
<path d="M7.07964 36.2339C6.74364 36.2339 6.40764 36.1061 6.15214 35.8489C5.63939 35.3361 5.63939 34.5049 6.15214 33.9921L8.57414 31.5701C9.08689 31.0574 9.91814 31.0574 10.4309 31.5701C10.9436 32.0829 10.9436 32.9141 10.4309 33.4269L8.00889 35.8489C7.75164 36.1061 7.41564 36.2339 7.07964 36.2339Z" fill="url(#paint4_linear_3992_8209)"/>
<path d="M4.73725 22.3125H1.3125C0.588 22.3125 0 21.7245 0 21C0 20.2755 0.588 19.6875 1.3125 19.6875H4.73725C5.46175 19.6875 6.04975 20.2755 6.04975 21C6.04975 21.7245 5.46175 22.3125 4.73725 22.3125Z" fill="url(#paint5_linear_3992_8209)"/>
<path d="M9.50164 10.8139C9.16564 10.8139 8.82964 10.6862 8.57414 10.4289L6.15214 8.00694C5.63939 7.49419 5.63939 6.66294 6.15214 6.15019C6.66489 5.63744 7.49614 5.63744 8.00889 6.15019L10.4309 8.57219C10.9436 9.08494 10.9436 9.91619 10.4309 10.4289C10.1719 10.6844 9.83764 10.8139 9.50164 10.8139Z" fill="url(#paint6_linear_3992_8209)"/>
<path d="M26.25 36.75V38.9375C26.25 40.6175 24.8675 42 23.1875 42H18.8125C17.3425 42 15.75 40.88 15.75 38.43V36.75H26.25Z" fill="#FB9474"/>
<path d="M28.7178 11.4796C25.8478 9.15205 22.0678 8.24205 18.3753 9.02955C13.7378 9.99205 9.9753 13.7721 9.0128 18.4096C8.0328 23.1696 9.8178 27.8946 13.6328 30.7821C14.6653 31.5521 15.3828 32.7421 15.6278 34.1246V34.1421C15.6628 34.1246 15.7153 34.1246 15.7503 34.1246H26.2503C26.2853 34.1246 26.3028 34.1246 26.3378 34.1421V34.1246C26.5828 32.7946 27.3703 31.5696 28.5778 30.6246C31.5353 28.2796 33.2503 24.7796 33.2503 20.9996C33.2503 17.2896 31.6053 13.8246 28.7178 11.4796ZM27.5628 21.8746C26.8453 21.8746 26.2503 21.2796 26.2503 20.5621C26.2503 17.9021 24.0978 15.7496 21.4378 15.7496C20.7203 15.7496 20.1253 15.1546 20.1253 14.4371C20.1253 13.7196 20.7203 13.1246 21.4378 13.1246C25.5328 13.1246 28.8753 16.4671 28.8753 20.5621C28.8753 21.2796 28.2803 21.8746 27.5628 21.8746Z" fill="url(#paint7_linear_3992_8209)"/>
<path d="M15.627 34.125H15.7495C15.7145 34.125 15.662 34.125 15.627 34.1425V34.125Z" fill="black"/>
<path d="M26.3375 34.125V34.1425C26.3025 34.125 26.285 34.125 26.25 34.125H26.3375Z" fill="black"/>
</g>
<defs>
<linearGradient id="paint0_linear_3992_8209" x1="21" y1="1.21671" x2="21" y2="5.31124" gradientUnits="userSpaceOnUse">
<stop stop-color="#14CAF8" stop-opacity="0.2"/>
<stop offset="1" stop-color="#27A1C0"/>
</linearGradient>
<linearGradient id="paint1_linear_3992_8209" x1="33.7114" y1="6.78093" x2="33.7114" y2="10.1977" gradientUnits="userSpaceOnUse">
<stop stop-color="#14CAF8" stop-opacity="0.2"/>
<stop offset="1" stop-color="#27A1C0"/>
</linearGradient>
<linearGradient id="paint2_linear_3992_8209" x1="41.6902" y1="20.8456" x2="35.977" y2="20.8456" gradientUnits="userSpaceOnUse">
<stop stop-color="#14CAF8" stop-opacity="0.2"/>
<stop offset="1" stop-color="#27A1C0"/>
</linearGradient>
<linearGradient id="paint3_linear_3992_8209" x1="35.5146" y1="35.8236" x2="31.6544" y2="31.9633" gradientUnits="userSpaceOnUse">
<stop stop-color="#14CAF8" stop-opacity="0.2"/>
<stop offset="1" stop-color="#27A1C0"/>
</linearGradient>
<linearGradient id="paint4_linear_3992_8209" x1="8.29152" y1="32.2008" x2="8.29152" y2="35.6176" gradientUnits="userSpaceOnUse">
<stop stop-color="#27A1C0"/>
<stop offset="1" stop-color="#14CAF8" stop-opacity="0.2"/>
</linearGradient>
<linearGradient id="paint5_linear_3992_8209" x1="1.08088" y1="21" x2="5.86765" y2="21" gradientUnits="userSpaceOnUse">
<stop stop-color="#14CAF8" stop-opacity="0.2"/>
<stop offset="1" stop-color="#27A1C0"/>
</linearGradient>
<linearGradient id="paint6_linear_3992_8209" x1="8.29152" y1="6.78093" x2="8.29152" y2="10.1977" gradientUnits="userSpaceOnUse">
<stop stop-color="#14CAF8" stop-opacity="0.2"/>
<stop offset="1" stop-color="#27A1C0"/>
</linearGradient>
<linearGradient id="paint7_linear_3992_8209" x1="20.2282" y1="12.3524" x2="26.6401" y2="29.6421" gradientUnits="userSpaceOnUse">
<stop stop-color="#96EAFF"/>
<stop offset="1" stop-color="#01B0DC"/>
</linearGradient>
<clipPath id="clip0_3992_8209">
<rect width="42" height="42" fill="white"/>
</clipPath>
</defs>
</svg>
