<svg width="16" height="16" viewBox="0 0 16 16" fill="none" xmlns="http://www.w3.org/2000/svg">
<path d="M7.02332 5.61665C6.90857 5.69738 6.81587 5.80557 6.75368 5.93134C6.6915 6.05711 6.66181 6.19646 6.66732 6.33665C6.66732 6.51346 6.59708 6.68303 6.47205 6.80806C6.34703 6.93308 6.17746 7.00332 6.00065 7.00332C5.82384 7.00332 5.65427 6.93308 5.52925 6.80806C5.40422 6.68303 5.33398 6.51346 5.33398 6.33665C5.33398 5.55265 5.69665 4.94198 6.22732 4.54732C6.73932 4.16598 7.38732 3.99665 8.00065 3.99665C8.61398 3.99665 9.26065 4.16598 9.77398 4.54598C10.3047 4.94065 10.6673 5.55132 10.6673 6.33532C10.6673 6.90732 10.4873 7.34198 10.178 7.67665C9.93398 7.94065 9.62065 8.12065 9.40465 8.24465L9.33665 8.28465C9.08732 8.42998 8.94198 8.52998 8.84332 8.66065C8.75798 8.76998 8.66732 8.95398 8.66732 9.33265C8.66732 9.50946 8.59708 9.67903 8.47205 9.80406C8.34703 9.92908 8.17746 9.99932 8.00065 9.99932C7.82384 9.99932 7.65427 9.92908 7.52925 9.80406C7.40422 9.67903 7.33398 9.50946 7.33398 9.33265C7.33398 8.71132 7.49398 8.22865 7.78465 7.84865C8.05932 7.48998 8.41398 7.27798 8.66465 7.13265L8.70198 7.11132C8.96465 6.95798 9.09932 6.87932 9.19798 6.77132C9.26465 6.70065 9.33398 6.59532 9.33398 6.33532C9.3395 6.19512 9.3098 6.05578 9.24762 5.93001C9.18543 5.80424 9.09273 5.69605 8.97798 5.61532C8.74065 5.44065 8.38732 5.33132 8.00065 5.33132C7.61398 5.33132 7.26198 5.43932 7.02332 5.61665ZM8.00065 12.0007C8.17746 12.0007 8.34703 11.9304 8.47205 11.8054C8.59708 11.6804 8.66732 11.5108 8.66732 11.334C8.66732 11.1572 8.59708 10.9876 8.47205 10.8626C8.34703 10.7376 8.17746 10.6673 8.00065 10.6673C7.82384 10.6673 7.65427 10.7376 7.52925 10.8626C7.40422 10.9876 7.33398 11.1572 7.33398 11.334C7.33398 11.5108 7.40422 11.6804 7.52925 11.8054C7.65427 11.9304 7.82384 12.0007 8.00065 12.0007ZM1.33398 8.00065C1.33398 6.23254 2.03636 4.53685 3.28661 3.28661C4.53685 2.03636 6.23254 1.33398 8.00065 1.33398C9.76876 1.33398 11.4645 2.03636 12.7147 3.28661C13.9649 4.53685 14.6673 6.23254 14.6673 8.00065C14.6673 9.76876 13.9649 11.4645 12.7147 12.7147C11.4645 13.9649 9.76876 14.6673 8.00065 14.6673C6.23254 14.6673 4.53685 13.9649 3.28661 12.7147C2.03636 11.4645 1.33398 9.76876 1.33398 8.00065ZM8.00065 2.66732C6.58616 2.66732 5.22961 3.22922 4.22941 4.22941C3.22922 5.22961 2.66732 6.58616 2.66732 8.00065C2.66732 9.41514 3.22922 10.7717 4.22941 11.7719C5.22961 12.7721 6.58616 13.334 8.00065 13.334C9.41514 13.334 10.7717 12.7721 11.7719 11.7719C12.7721 10.7717 13.334 9.41514 13.334 8.00065C13.334 6.58616 12.7721 5.22961 11.7719 4.22941C10.7717 3.22922 9.41514 2.66732 8.00065 2.66732Z" fill="#292D32"/>
</svg>
