<svg width="362" height="608" viewBox="0 0 362 608" fill="none" xmlns="http://www.w3.org/2000/svg">
<path d="M73.0691 448.279L-71.3923 381.621L-215.852 448.279L-189.681 586.468L-197.29 649.622H-71.3923H54.5074L46.8985 586.468L73.0691 448.279Z" fill="#C5D86D"/>
<path d="M248.285 239.666L140.816 247.586L73.7383 263.337L110.322 450.938C110.322 450.938 107.582 538.516 93.1984 573.809C78.8144 609.102 96.2982 649.435 96.2982 649.435H244.766L248.285 239.666Z" fill="#2EB7DC"/>
<path d="M-1.53431 592.752C-1.53431 592.752 55.3118 566.052 59.9939 571.136C64.1881 575.689 53.2042 584.19 47.5235 588.111C46.8252 588.593 47.238 589.683 48.0822 589.562C51.6678 589.045 57.9947 587.661 61.3593 589.558C65.5286 591.909 64.1861 597.169 64.7489 601.186C65.2075 604.453 67.1713 607.375 67.534 610.652C68.1573 616.3 63.938 621.743 64.9094 627.34C65.1408 628.674 65.6683 629.99 65.5223 631.336C65.4118 632.362 64.9178 633.304 64.432 634.215C62.2119 638.378 61.3781 640.738 56.7147 641.903C52.4808 642.96 47.8696 642.96 43.5398 643.041C2.09507 643.821 -2.53076 641.04 -2.53076 641.04C-2.53076 641.04 -29.6832 622.639 -1.53431 592.752Z" fill="#FFA383"/>
<path d="M20.9125 591.533V635.899C20.9125 643.224 14.988 649.151 7.68341 649.151H-128.108C-158.856 649.151 -188.095 635.899 -208.371 612.778L-266.549 546.476L-268.058 601.917L-268.402 615.04L-268.984 636.501L-269.328 649.149H-508.505V648.998L-508.807 636.501L-509.303 615.04L-509.605 601.917L-511.308 528.742L-543.393 649.149H-631C-631 649.149 -581.463 449.319 -554.162 413.249C-526.841 377.178 -408.396 368.473 -408.396 368.473C-366.466 368.473 -331.817 372.415 -306.801 376.617C-279.544 381.185 -255.26 396.463 -239.4 419.088L-163.232 527.729C-142.913 556.709 -110.053 574.314 -74.6723 575.198L6.94965 577.224C14.7274 577.418 20.9125 583.753 20.9125 591.533Z" fill="#7209B7"/>
<path d="M245.548 239.666L348.706 247.586L415.784 263.337L379.2 450.938C379.2 450.938 381.94 538.516 396.324 573.809C410.708 609.102 393.224 649.435 393.224 649.435H244.758L245.548 239.666Z" fill="#2EB7DC"/>
<path d="M141.973 382.652C141.973 382.652 254.756 553.903 329.171 553.903C359.298 553.903 386.074 530.307 386.074 530.307L377.583 481.669L292.563 491.062L141.973 382.652Z" fill="#032F3F"/>
<path d="M278.662 183.176H210.859V234.114H278.662V183.176Z" fill="#B04046"/>
<path d="M315.189 114.057C315.189 159.179 283.663 201.739 244.774 201.739C205.885 201.739 174.359 159.176 174.359 114.057C174.359 68.9366 205.885 32.3574 244.774 32.3574C283.663 32.3574 315.189 68.9345 315.189 114.057Z" fill="#B04046"/>
<path d="M171.372 119.393C171.372 119.393 160.657 110.775 161.108 122.893C161.556 135.011 175.621 165.324 189.086 165.324L171.372 119.393Z" fill="#B04046"/>
<path d="M318.897 119.393C318.897 119.393 329.612 110.775 329.162 122.893C328.713 135.011 314.648 165.324 301.184 165.324L318.897 119.393Z" fill="#B04046"/>
<path d="M220.991 16.7665C220.991 16.7665 181.266 6.99782 167.274 43.3477C150.334 87.3565 166.64 146.929 200.947 175.253L198.171 164.755C198.171 164.755 212.075 182.675 237.112 190.344V185.879L246.991 194.305L257.118 186.227V190.344C257.118 190.344 274.785 183.677 285.853 171.14L284.756 178.539C284.756 178.539 342.703 142.376 335.419 64.0231C328.135 -14.328 234.27 -8.30133 220.991 16.7665Z" fill="#032F3F"/>
<path d="M244.757 208.645C144.171 208.645 140.809 247.588 140.809 247.588C142.551 254.942 144.782 261.89 147.404 268.447C183.517 358.786 310.828 356.272 343.642 264.684C345.589 259.247 347.294 253.55 348.708 247.588C348.708 247.588 345.343 208.645 244.757 208.645Z" fill="#2EB7DC"/>
<path d="M244.567 336.963C200.033 336.963 162.167 311.171 145.407 269.245C142.678 262.416 140.427 255.297 138.715 248.084C138.44 246.925 139.157 245.764 140.314 245.489C141.465 245.213 142.632 245.928 142.909 247.088C144.571 254.096 146.76 261.013 149.409 267.644C165.751 308.522 202.968 333.346 246.587 332.635C290.31 331.841 326.722 305.524 341.615 263.954C343.575 258.484 345.257 252.81 346.614 247.088C346.889 245.928 348.055 245.216 349.209 245.489C350.366 245.764 351.084 246.925 350.808 248.084C349.414 253.961 347.688 259.789 345.674 265.409C330.162 308.707 292.224 336.118 246.666 336.944C245.968 336.956 245.263 336.963 244.567 336.963Z" fill="#0F6D8F"/>
<path d="M141.98 382.654C141.98 382.654 207.672 466.521 271.226 520.718C301.745 546.742 346.2 548.235 378.539 524.507L460.674 464.245L394.776 397.832L327.743 456.955C322.754 461.355 315.324 461.533 310.132 457.376L181.83 354.672L141.98 382.654Z" fill="#FFA383"/>
<path d="M192.88 363.51C192.88 363.51 165.375 288.355 158.559 289.508C147.172 291.432 162.724 328.805 162.724 328.805C162.724 328.805 130.549 274.484 124.706 273.596C118.863 272.707 121.277 292.197 139.188 323.708C139.188 323.708 116.418 285.947 113.309 282.113C106.593 273.829 97.1994 284.644 128.777 333.754C128.777 333.754 112.44 311.751 104.781 294.667C98.1749 279.931 85.7443 301.209 120.009 343.031C120.009 343.031 106.949 329.26 96.6323 309.349C87.3306 291.398 85.1981 323.84 111.3 351.728C139.626 381.991 158.944 397.88 158.944 397.88C158.944 397.88 191.066 404.525 192.88 363.51Z" fill="#FFA383"/>
<path d="M393.779 395.54L354.312 430.593L414.561 505.813L440.318 484L449.897 649.626H667.959L683.683 360.543H485.88C451.932 360.543 419.161 372.995 393.779 395.54Z" fill="#F72585"/>
<path d="M90.25 582.729C90.25 582.729 126.183 615.581 156.896 615.581C210.259 615.581 377.586 481.668 377.586 481.668L97.0125 549.788L90.25 582.729Z" fill="#032F3F"/>
<path d="M356.573 496.172C356.573 496.172 267.971 555.321 190.667 586.954C153.545 602.144 110.848 589.674 87.5394 557.031L28.3398 474.127L111.686 431.623L156.895 508.728C160.26 514.467 167.262 516.956 173.493 514.629L327.456 457.143L356.573 496.172Z" fill="#EF6E69"/>
<path d="M314.2 462.089C314.2 462.089 363.806 399.288 369.923 402.513C380.139 407.899 353.689 438.543 353.689 438.543C353.689 438.543 401.223 396.992 407.05 397.972C412.879 398.952 404.496 416.713 377.638 441.053C377.638 441.053 411.065 412.296 415.215 409.625C424.184 403.855 429.729 417.063 384.39 453.851C384.39 453.851 406.783 438.051 419.395 424.216C430.275 412.281 435.434 436.375 389.82 465.402C389.82 465.402 406.529 456.4 422.549 440.707C436.994 426.561 428.885 458.045 395.376 476.384C359.014 496.284 335.699 505.341 335.699 505.341C335.699 505.341 303.11 501.618 314.2 462.089Z" fill="#EF6E69"/>
<path d="M-80.7031 325.592L69.516 332.094L156.898 508.725L266.346 479.957L288.539 537.871C288.539 537.871 190.967 601.917 154.086 601.917C91.7216 601.917 28.3444 474.126 28.3444 474.126L-80.7031 325.592Z" fill="#C5D86D"/>
<path d="M136.35 517.78C135.45 517.78 134.61 517.211 134.307 516.31C133.93 515.18 134.537 513.959 135.664 513.581L156.213 506.685C157.343 506.31 158.564 506.915 158.941 508.043C159.319 509.172 158.712 510.394 157.584 510.771L137.036 517.667C136.809 517.742 136.577 517.78 136.35 517.78Z" fill="#839B1E"/>
<path d="M43.062 344.619C53.2788 413.404 26.7622 486.245 -23.044 534.775C-16.986 520.767 -13.5464 501.826 -17.9158 487.204C-33.8612 508.884 -47.7262 534.002 -48.0555 560.913C-70.2903 543.216 -81.1158 515.634 -77.3635 487.465C-94.3116 512.445 -98.558 549.541 -86.4254 577.183C-107.307 569.902 -124.351 553.61 -135.133 534.3C-145.915 514.99 -148.86 491.523 -150.197 469.449C-156.125 492.91 -152.279 523.222 -145.175 546.354C-162.073 528.469 -171.033 504.469 -176.344 480.446C-192.579 407.025 -178.333 330.825 -168.441 256.282C-162.498 211.49 -157.53 164.685 -133.251 126.576C-119.394 104.827 -97.8638 86.1339 -72.2248 83.3551C-38.756 79.7278 -6.79633 94.7956 10.0768 125.242C28.9469 159.294 21.4109 198.304 29.2992 234.85C37.0624 270.82 37.6169 307.967 43.062 344.619Z" fill="#F46036"/>
<path d="M-215.852 377.262C-215.852 377.262 -135.956 491.062 -53.2851 491.062C6.16257 491.062 109.281 412.48 109.281 412.48L98.0763 386.545L-215.852 377.262Z" fill="#032F3F"/>
<path d="M111.942 394.554L2.76926 454.266C-47.9041 481.981 -110.564 474.625 -153.439 435.923L-229.141 364.766C-229.141 364.766 -227.844 302.498 -160.412 320.803C-160.412 320.803 -146.391 333.628 -141.667 339.717C-137.79 344.714 -131.763 347.549 -125.442 347.311C-117.738 347.022 -106.914 349.644 -95.1609 361.768C-88.6172 368.516 -78.0647 369.357 -70.3578 363.974L73.7387 263.336L111.942 394.554Z" fill="#2EB7DC"/>
<path d="M102.454 402.617C101.538 402.617 100.69 402.027 100.398 401.108L69.0911 301.62C68.9723 301.829 68.8534 302.066 68.7367 302.329C66.5645 307.24 65.4159 321.224 82.1409 359.677C82.6162 360.768 82.1159 362.039 81.0236 362.513C79.9291 362.984 78.6617 362.485 78.1885 361.397C61.2716 322.504 61.7365 306.505 65.1073 299.932C66.8668 296.5 69.2433 295.833 69.7019 295.733L71.6239 295.318L104.509 399.817C104.866 400.951 104.236 402.162 103.1 402.521C102.885 402.584 102.668 402.617 102.454 402.617Z" fill="#0F6D8F"/>
<path d="M61.174 530.896C60.4423 530.896 59.7294 530.523 59.3249 529.851L26.4919 475.238C25.879 474.218 26.2084 472.895 27.2277 472.282C28.2492 471.667 29.5709 471.998 30.1838 473.018L63.0168 527.631C63.6297 528.651 63.3004 529.974 62.281 530.587C61.9349 530.798 61.5513 530.896 61.174 530.896Z" fill="#839B1E"/>
</svg>
