<svg width="48" height="50" viewBox="0 0 48 50" fill="none" xmlns="http://www.w3.org/2000/svg">
<path d="M27.3676 2.75552L28.084 3.95999C29.0919 5.65443 31.1909 6.3398 32.9974 5.56429L34.2815 5.01305C37.0131 3.84048 40.0012 6.02213 39.7355 8.99499L39.6105 10.3925C39.4348 12.3587 40.732 14.153 42.6472 14.5926L44.0085 14.9051C46.9043 15.5698 48.0455 19.0998 46.0917 21.348L45.1732 22.405C43.881 23.8919 43.881 26.1096 45.1732 27.5966L46.0917 28.6535C48.0455 30.9017 46.9041 34.4316 44.0085 35.0964L42.6472 35.4089C40.732 35.8486 39.4348 37.6428 39.6105 39.609L39.7355 41.0065C40.0012 43.9794 37.0131 46.161 34.2815 44.9885L32.9974 44.4372C31.1909 43.6617 29.092 44.347 28.084 46.0415L27.3676 47.246C25.8436 49.808 22.1501 49.808 20.6262 47.246L19.9097 46.0415C18.9019 44.3471 16.8029 43.6617 14.9963 44.4372L13.7122 44.9885C10.9806 46.161 7.99255 43.9794 8.25826 41.0065L8.3832 39.609C8.55889 37.6428 7.26175 35.8485 5.34654 35.4089L3.98511 35.0963C1.08934 34.4316 -0.0519339 30.9016 1.90194 28.6534L2.8204 27.5964C4.11259 26.1095 4.11259 23.8918 2.8204 22.4048L1.90194 21.3479C-0.0519339 19.0997 1.08946 15.5698 3.98511 14.9049L5.34642 14.5925C7.26162 14.1528 8.55877 12.3586 8.38308 10.3924L8.25814 8.99487C7.99242 6.02201 10.9805 3.84036 13.7121 5.01293L14.9962 5.56417C16.8027 6.33968 18.9016 5.65443 19.9096 3.95987L20.626 2.7554C22.1501 0.193492 25.8435 0.193492 27.3676 2.75552Z" fill="url(#paint0_linear_3992_13125)"/>
<path d="M33.2634 14.8754C32.3878 13.9999 30.8627 13.9999 29.9883 14.8754L13.8699 30.9933C13.4327 31.4304 13.1914 32.0116 13.1914 32.6306C13.1914 33.2489 13.4327 33.8307 13.8699 34.2684C14.3083 34.7062 14.89 34.9469 15.5078 34.9469C16.1256 34.9469 16.7067 34.7062 17.1451 34.2684L33.2635 18.1506C34.166 17.2479 34.166 15.7782 33.2634 14.8754Z" fill="#FFF9E9"/>
<path d="M16.8661 22.8494C19.3206 22.8494 21.3104 20.8597 21.3104 18.4052C21.3104 15.9507 19.3206 13.9609 16.8661 13.9609C14.4116 13.9609 12.4219 15.9507 12.4219 18.4052C12.4219 20.8597 14.4116 22.8494 16.8661 22.8494Z" fill="#FFF9E9"/>
<path d="M30.2958 35.2303C32.7503 35.2303 34.7401 33.2405 34.7401 30.786C34.7401 28.3316 32.7503 26.3418 30.2958 26.3418C27.8413 26.3418 25.8516 28.3316 25.8516 30.786C25.8516 33.2405 27.8413 35.2303 30.2958 35.2303Z" fill="#FFF9E9"/>
<defs>
<linearGradient id="paint0_linear_3992_13125" x1="26.5482" y1="4.99771" x2="-3.01872" y2="55.1805" gradientUnits="userSpaceOnUse">
<stop stop-color="#57CCF0"/>
<stop offset="1" stop-color="#079ECB"/>
</linearGradient>
</defs>
</svg>
