<svg width="56" height="56" viewBox="0 0 56 56" fill="none" xmlns="http://www.w3.org/2000/svg">
<path d="M35.7726 2.33008C33.4158 2.33387 31.1152 3.04954 29.1722 4.38329C27.2291 5.71704 25.7343 7.60666 24.8837 9.80452C23.9046 7.26213 22.0666 5.14253 19.6885 3.81322C17.3105 2.48391 14.5422 2.02871 11.8636 2.52655C9.18508 3.02439 6.76521 4.44387 5.02357 6.53888C3.28192 8.6339 2.32833 11.2723 2.32812 13.9967C2.32812 26.2856 23.5381 41.2267 24.4403 41.8567C24.5702 41.9479 24.725 41.9967 24.8837 41.9967C25.0423 41.9967 25.1971 41.9479 25.327 41.8567C26.2292 41.2267 47.4392 26.2856 47.4392 13.9967C47.4355 10.9037 46.2051 7.93843 44.018 5.75132C41.8309 3.56421 38.8656 2.33384 35.7726 2.33008ZM34.217 20.9967C34.0109 20.9961 33.8134 20.914 33.6677 20.7683C33.522 20.6225 33.4398 20.4251 33.4392 20.219C33.4374 19.6007 33.191 19.0082 32.7538 18.571C32.3166 18.1338 31.7242 17.8874 31.1059 17.8856C30.8996 17.8856 30.7018 17.8037 30.5559 17.6578C30.4101 17.512 30.3281 17.3141 30.3281 17.1079C30.3281 16.9016 30.4101 16.7037 30.5559 16.5579C30.7018 16.412 30.8996 16.3301 31.1059 16.3301C31.7242 16.3283 32.3166 16.0819 32.7538 15.6447C33.191 15.2075 33.4374 14.615 33.4392 13.9967C33.4392 13.7905 33.5212 13.5926 33.667 13.4468C33.8129 13.3009 34.0107 13.219 34.217 13.219C34.4233 13.219 34.6211 13.3009 34.767 13.4468C34.9128 13.5926 34.9948 13.7905 34.9948 13.9967C34.9966 14.615 35.243 15.2075 35.6802 15.6447C36.1174 16.0819 36.7098 16.3283 37.3281 16.3301C37.5344 16.3301 37.7322 16.412 37.8781 16.5579C38.024 16.7037 38.1059 16.9016 38.1059 17.1079C38.1059 17.3141 38.024 17.512 37.8781 17.6578C37.7322 17.8037 37.5344 17.8856 37.3281 17.8856C36.7098 17.8874 36.1174 18.1338 35.6802 18.571C35.243 19.0082 34.9966 19.6007 34.9948 20.219C34.9942 20.4251 34.912 20.6225 34.7663 20.7683C34.6206 20.914 34.4231 20.9961 34.217 20.9967ZM24.1059 27.9967C24.1053 28.2028 24.0231 28.4003 23.8774 28.546C23.7317 28.6918 23.5342 28.7739 23.3281 28.7745H22.5503C22.3441 28.7745 22.1462 28.6926 22.0004 28.5467C21.8545 28.4009 21.7726 28.203 21.7726 27.9967C21.7726 27.7905 21.8545 27.5926 22.0004 27.4468C22.1462 27.3009 22.3441 27.219 22.5503 27.219H23.3281C23.5342 27.2196 23.7317 27.3017 23.8774 27.4475C24.0231 27.5932 24.1053 27.7907 24.1059 27.9967ZM21.7726 25.6634V26.4412C21.7726 26.6475 21.6906 26.8453 21.5448 26.9912C21.3989 27.137 21.2011 27.219 20.9948 27.219C20.7885 27.219 20.5907 27.137 20.4448 26.9912C20.299 26.8453 20.217 26.6475 20.217 26.4412V25.6634C20.217 25.4571 20.299 25.2593 20.4448 25.1134C20.5907 24.9676 20.7885 24.8856 20.9948 24.8856C21.2011 24.8856 21.3989 24.9676 21.5448 25.1134C21.6906 25.2593 21.7726 25.4571 21.7726 25.6634ZM21.7726 29.5523V30.3301C21.7726 30.5364 21.6906 30.7342 21.5448 30.8801C21.3989 31.0259 21.2011 31.1079 20.9948 31.1079C20.7885 31.1079 20.5907 31.0259 20.4448 30.8801C20.299 30.7342 20.217 30.5364 20.217 30.3301V29.5523C20.217 29.346 20.299 29.1482 20.4448 29.0023C20.5907 28.8565 20.7885 28.7745 20.9948 28.7745C21.2011 28.7745 21.3989 28.8565 21.5448 29.0023C21.6906 29.1482 21.7726 29.346 21.7726 29.5523ZM18.6615 27.219H19.4392C19.6455 27.219 19.8433 27.3009 19.9892 27.4468C20.1351 27.5926 20.217 27.7905 20.217 27.9967C20.217 28.203 20.1351 28.4009 19.9892 28.5467C19.8433 28.6926 19.6455 28.7745 19.4392 28.7745H18.6615C18.4552 28.7745 18.2573 28.6926 18.1115 28.5467C17.9656 28.4009 17.8837 28.203 17.8837 27.9967C17.8837 27.7905 17.9656 27.5926 18.1115 27.4468C18.2573 27.3009 18.4552 27.219 18.6615 27.219Z" fill="url(#paint0_linear_3992_13106)"/>
<path d="M44.3281 47.4412C43.7098 47.4394 43.1174 47.193 42.6802 46.7558C42.243 46.3186 41.9966 45.7261 41.9948 45.1079C41.9948 44.9016 41.9128 44.7037 41.767 44.5579C41.6211 44.412 41.4233 44.3301 41.217 44.3301C41.0107 44.3301 40.8129 44.412 40.667 44.5579C40.5212 44.7037 40.4392 44.9016 40.4392 45.1079C40.4374 45.7261 40.191 46.3186 39.7538 46.7558C39.3166 47.193 38.7242 47.4394 38.1059 47.4412C37.8996 47.4412 37.7018 47.5231 37.5559 47.669C37.4101 47.8149 37.3281 48.0127 37.3281 48.219C37.3281 48.4252 37.4101 48.6231 37.5559 48.7689C37.7018 48.9148 37.8996 48.9967 38.1059 48.9967C38.7242 48.9985 39.3166 49.245 39.7538 49.6822C40.191 50.1193 40.4374 50.7118 40.4392 51.3301C40.4392 51.5364 40.5212 51.7342 40.667 51.8801C40.8129 52.0259 41.0107 52.1079 41.217 52.1079C41.4233 52.1079 41.6211 52.0259 41.767 51.8801C41.9128 51.7342 41.9948 51.5364 41.9948 51.3301C41.9966 50.7118 42.243 50.1193 42.6802 49.6822C43.1174 49.245 43.7098 48.9985 44.3281 48.9967C44.5344 48.9967 44.7322 48.9148 44.8781 48.7689C45.024 48.6231 45.1059 48.4252 45.1059 48.219C45.1059 48.0127 45.024 47.8149 44.8781 47.669C44.7322 47.5231 44.5344 47.4412 44.3281 47.4412Z" fill="#74D4FD"/>
<path d="M52.8828 30.3307C51.615 30.3307 50.5495 28.5496 50.5495 26.4418C50.5495 26.2356 50.4675 26.0377 50.3217 25.8919C50.1758 25.746 49.978 25.6641 49.7717 25.6641C49.5654 25.6641 49.3676 25.746 49.2217 25.8919C49.0759 26.0377 48.9939 26.2356 48.9939 26.4418C48.9939 28.5496 47.9284 30.3307 46.6606 30.3307C46.4543 30.3307 46.2565 30.4127 46.1106 30.5585C45.9648 30.7044 45.8828 30.9022 45.8828 31.1085C45.8828 31.3148 45.9648 31.5126 46.1106 31.6585C46.2565 31.8043 46.4543 31.8863 46.6606 31.8863C47.9284 31.8863 48.9939 33.6674 48.9939 35.7752C48.9939 35.9815 49.0759 36.1793 49.2217 36.3251C49.3676 36.471 49.5654 36.553 49.7717 36.553C49.978 36.553 50.1758 36.471 50.3217 36.3251C50.4675 36.1793 50.5495 35.9815 50.5495 35.7752C50.5495 33.6674 51.615 31.8863 52.8828 31.8863C53.0891 31.8863 53.2869 31.8043 53.4328 31.6585C53.5786 31.5126 53.6606 31.3148 53.6606 31.1085C53.6606 30.9022 53.5786 30.7044 53.4328 30.5585C53.2869 30.4127 53.0891 30.3307 52.8828 30.3307Z" fill="#74D4FD"/>
<path d="M19.4418 49.7767C19.544 49.7768 19.6452 49.7567 19.7396 49.7176C19.8339 49.6785 19.9197 49.6213 19.9919 49.549C20.0642 49.4768 20.1215 49.391 20.1605 49.2966C20.1996 49.2022 20.2197 49.1011 20.2196 48.9989V48.2211C20.2196 48.0149 20.1377 47.817 19.9918 47.6712C19.846 47.5253 19.6481 47.4434 19.4418 47.4434C19.2356 47.4434 19.0377 47.5253 18.8919 47.6712C18.746 47.817 18.6641 48.0149 18.6641 48.2211V48.9989C18.664 49.1011 18.6841 49.2022 18.7231 49.2966C18.7622 49.391 18.8195 49.4768 18.8917 49.549C18.964 49.6213 19.0497 49.6785 19.1441 49.7176C19.2385 49.7567 19.3397 49.7768 19.4418 49.7767Z" fill="#74D4FD"/>
<path d="M21.7704 49.7754H20.9926C20.7863 49.7754 20.5885 49.8573 20.4426 50.0032C20.2968 50.1491 20.2148 50.3469 20.2148 50.5532C20.2148 50.7594 20.2968 50.9573 20.4426 51.1031C20.5885 51.249 20.7863 51.3309 20.9926 51.3309H21.7704C21.9767 51.3309 22.1745 51.249 22.3204 51.1031C22.4662 50.9573 22.5482 50.7594 22.5482 50.5532C22.5482 50.3469 22.4662 50.1491 22.3204 50.0032C22.1745 49.8573 21.9767 49.7754 21.7704 49.7754Z" fill="#74D4FD"/>
<path d="M17.8837 49.7754H17.1059C16.8996 49.7754 16.7018 49.8573 16.5559 50.0032C16.4101 50.1491 16.3281 50.3469 16.3281 50.5532C16.3281 50.7594 16.4101 50.9573 16.5559 51.1031C16.7018 51.249 16.8996 51.3309 17.1059 51.3309H17.8837C18.09 51.3309 18.2878 51.249 18.4337 51.1031C18.5795 50.9573 18.6615 50.7594 18.6615 50.5532C18.6615 50.3469 18.5795 50.1491 18.4337 50.0032C18.2878 49.8573 18.09 49.7754 17.8837 49.7754Z" fill="#74D4FD"/>
<path d="M19.4418 51.3301C19.3397 51.33 19.2385 51.3501 19.1441 51.3892C19.0497 51.4282 18.964 51.4855 18.8917 51.5578C18.8195 51.63 18.7622 51.7158 18.7231 51.8101C18.6841 51.9045 18.664 52.0057 18.6641 52.1079V52.8856C18.6641 53.0919 18.746 53.2897 18.8919 53.4356C19.0377 53.5815 19.2356 53.6634 19.4418 53.6634C19.6481 53.6634 19.846 53.5815 19.9918 53.4356C20.1377 53.2897 20.2196 53.0919 20.2196 52.8856V52.1079C20.2197 52.0057 20.1996 51.9045 20.1605 51.8101C20.1215 51.7158 20.0642 51.63 19.9919 51.5578C19.9197 51.4855 19.8339 51.4282 19.7396 51.3892C19.6452 51.3501 19.544 51.33 19.4418 51.3301Z" fill="#74D4FD"/>
<path d="M5.44184 37.3294C5.544 37.3295 5.64516 37.3094 5.73955 37.2703C5.83394 37.2313 5.91971 37.174 5.99194 37.1018C6.06418 37.0295 6.12147 36.9438 6.16053 36.8494C6.1996 36.755 6.21968 36.6538 6.21962 36.5516V35.7739C6.21962 35.5676 6.13767 35.3698 5.99181 35.2239C5.84595 35.078 5.64812 34.9961 5.44184 34.9961C5.23556 34.9961 5.03773 35.078 4.89187 35.2239C4.74601 35.3698 4.66406 35.5676 4.66406 35.7739V36.5516C4.664 36.6538 4.68408 36.755 4.72315 36.8494C4.76222 36.9438 4.8195 37.0295 4.89174 37.1018C4.96397 37.174 5.04974 37.2313 5.14413 37.2703C5.23852 37.3094 5.33968 37.3295 5.44184 37.3294Z" fill="#74D4FD"/>
<path d="M7.7704 37.3301H6.99262C6.78634 37.3301 6.58851 37.412 6.44265 37.5579C6.29679 37.7037 6.21484 37.9016 6.21484 38.1079C6.21484 38.3141 6.29679 38.512 6.44265 38.6578C6.58851 38.8037 6.78634 38.8856 6.99262 38.8856H7.7704C7.97668 38.8856 8.17451 38.8037 8.32037 38.6578C8.46623 38.512 8.54818 38.3141 8.54818 38.1079C8.54818 37.9016 8.46623 37.7037 8.32037 37.5579C8.17451 37.412 7.97668 37.3301 7.7704 37.3301Z" fill="#74D4FD"/>
<path d="M3.88368 37.3301H3.1059C2.89962 37.3301 2.70179 37.412 2.55593 37.5579C2.41007 37.7037 2.32813 37.9016 2.32812 38.1079C2.32813 38.3141 2.41007 38.512 2.55593 38.6578C2.70179 38.8037 2.89962 38.8856 3.1059 38.8856H3.88368C4.08996 38.8856 4.28779 38.8037 4.43365 38.6578C4.57951 38.512 4.66146 38.3141 4.66146 38.1079C4.66146 37.9016 4.57951 37.7037 4.43365 37.5579C4.28779 37.412 4.08996 37.3301 3.88368 37.3301Z" fill="#74D4FD"/>
<path d="M5.44184 38.8848C5.33968 38.8847 5.23852 38.9048 5.14413 38.9439C5.04974 38.9829 4.96397 39.0402 4.89174 39.1124C4.8195 39.1847 4.76222 39.2704 4.72315 39.3648C4.68408 39.4592 4.664 39.5604 4.66406 39.6625V40.4403C4.66406 40.6466 4.74601 40.8444 4.89187 40.9903C5.03773 41.1362 5.23556 41.2181 5.44184 41.2181C5.64812 41.2181 5.84595 41.1362 5.99181 40.9903C6.13767 40.8444 6.21962 40.6466 6.21962 40.4403V39.6625C6.21968 39.5604 6.1996 39.4592 6.16053 39.3648C6.12147 39.2704 6.06418 39.1847 5.99194 39.1124C5.91971 39.0402 5.83394 38.9829 5.73955 38.9439C5.64516 38.9048 5.544 38.8847 5.44184 38.8848Z" fill="#74D4FD"/>
<defs>
<linearGradient id="paint0_linear_3992_13106" x1="27.3785" y1="5.74719" x2="5.33372" y2="50.327" gradientUnits="userSpaceOnUse">
<stop stop-color="#57CCF0"/>
<stop offset="1" stop-color="#079ECB"/>
</linearGradient>
</defs>
</svg>
