<svg width="18" height="18" viewBox="0 0 18 18" fill="none" xmlns="http://www.w3.org/2000/svg">
<path d="M4.07812 9.5625C2.52731 9.5625 1.26562 10.8242 1.26562 12.375V15.1875C1.26562 16.7383 2.52731 18 4.07812 18H13.9219C15.4727 18 16.7344 16.7383 16.7344 15.1875V12.375C16.7344 10.8242 15.4727 9.5625 13.9219 9.5625C13.1465 9.5625 12.5156 8.93166 12.5156 8.15625H13.2188C13.6071 8.15625 13.9219 7.84146 13.9219 7.45312C13.9219 7.06479 13.6071 6.75 13.2188 6.75H4.78125C4.39291 6.75 4.07812 7.06479 4.07812 7.45312C4.07812 7.84146 4.39291 8.15625 4.78125 8.15625H5.48438C5.48438 8.93166 4.85353 9.5625 4.07812 9.5625ZM6.89062 8.15625H11.1094C11.1094 9.70706 12.3711 10.9688 13.9219 10.9688C14.6973 10.9688 15.3281 11.5996 15.3281 12.375V15.1875C15.3281 15.9629 14.6973 16.5938 13.9219 16.5938H4.07812C3.30272 16.5938 2.67188 15.9629 2.67188 15.1875V12.375C2.67188 11.5996 3.30272 10.9688 4.07812 10.9688C5.62894 10.9688 6.89062 9.70706 6.89062 8.15625Z" fill="#07AED8"/>
<path d="M9 15.1875H13.2188C13.6071 15.1875 13.9219 14.8727 13.9219 14.4844C13.9219 14.096 13.6071 13.7812 13.2188 13.7812H9C8.61166 13.7812 8.29688 14.096 8.29688 14.4844C8.29688 14.8727 8.61166 15.1875 9 15.1875Z" fill="#07AED8"/>
<path d="M5.27845 14.9818L8.26156 11.9987C8.53613 11.724 8.53613 11.2789 8.26156 11.0043C7.98695 10.7297 7.54174 10.7297 7.26717 11.0043L4.28405 13.9874C4.00948 14.262 4.00948 14.7072 4.28405 14.9818C4.55862 15.2564 5.00384 15.2564 5.27845 14.9818Z" fill="#07AED8"/>
<path d="M11.8125 2.8125C11.8125 1.26169 10.5508 0 9 0C7.44919 0 6.1875 1.26169 6.1875 2.8125C6.1875 4.36331 7.44919 5.625 9 5.625C10.5508 5.625 11.8125 4.36331 11.8125 2.8125ZM9 4.21875C8.22459 4.21875 7.59375 3.58791 7.59375 2.8125C7.59375 2.03709 8.22459 1.40625 9 1.40625C9.77541 1.40625 10.4062 2.03709 10.4062 2.8125C10.4062 3.58791 9.77541 4.21875 9 4.21875Z" fill="#07AED8"/>
</svg>
