<svg width="20" height="20" viewBox="0 0 20 20" fill="none" xmlns="http://www.w3.org/2000/svg">
<g clip-path="url(#clip0_8038_781)">
<path d="M16.4542 10.8333C17.0394 9.99211 17.3927 9.01159 17.4785 7.99045C17.5643 6.9693 17.3795 5.94358 16.9429 5.01651C16.5063 4.08945 15.8331 3.29377 14.9912 2.70955C14.1494 2.12534 13.1684 1.77321 12.1472 1.68861C11.1259 1.60402 10.1004 1.78994 9.17387 2.22766C8.24733 2.66538 7.45243 3.33946 6.86921 4.18205C6.28599 5.02463 5.93502 6.00598 5.85163 7.02732C5.76823 8.04866 5.95536 9.07395 6.39417 9.99998" stroke="#0F6D8F" stroke-width="1.66667" stroke-linecap="round" stroke-linejoin="round"/>
<path d="M13.3333 9.31659C13.0008 9.97575 12.3967 10.4166 11.7058 10.4166C10.6575 10.4166 9.8075 9.40075 9.8075 8.14825V6.85159C9.8075 5.59909 10.6575 4.58325 11.7058 4.58325C12.3967 4.58325 13.0008 5.02409 13.3333 5.68325M8.75 7.49992H11.8917" stroke="#0F6D8F" stroke-width="1.66667" stroke-linecap="round"/>
<path d="M2.5 11.6667H4.49583C4.74083 11.6667 4.9825 11.7217 5.20167 11.8284L6.90333 12.6517C7.1225 12.7576 7.36417 12.8126 7.61 12.8126H8.47833C9.31833 12.8126 10 13.4717 10 14.2851C10 14.3184 9.9775 14.3467 9.945 14.3559L7.8275 14.9417C7.44754 15.0467 7.04239 15.01 6.6875 14.8384L4.86833 13.9584M10 13.7501L13.8275 12.5742C14.1607 12.472 14.5177 12.4776 14.8475 12.5903C15.1774 12.703 15.4632 12.917 15.6642 13.2017C15.9717 13.6267 15.8467 14.2367 15.3983 14.4951L9.13583 18.1092C8.94001 18.2225 8.72317 18.2948 8.49853 18.3216C8.27389 18.3484 8.04614 18.3292 7.82917 18.2651L2.5 16.6834" stroke="#0F6D8F" stroke-width="1.66667" stroke-linecap="round" stroke-linejoin="round"/>
</g>
<defs>
<clipPath id="clip0_8038_781">
<rect width="20" height="20" fill="white"/>
</clipPath>
</defs>
</svg>
