<svg width="322" height="240" viewBox="0 0 322 240" fill="none" xmlns="http://www.w3.org/2000/svg">
<path d="M97.8162 36.8459H28C29.1316 33.8915 30.631 31.0988 33.2035 29.3643C35.7901 27.615 39.127 27.2331 42.1986 27.8211C45.256 28.3943 48.0777 29.8641 50.6791 31.5838C51.7225 32.2601 52.8103 33.0098 54.0598 33.0387C55.471 33.0536 56.7205 32.1274 57.7343 31.1574C60.7769 28.203 62.8933 24.2935 66.3771 21.8679C69.1846 19.8983 72.6677 19.0604 76.1071 19.0018C81.8838 18.9284 87.7629 21.1034 91.7168 25.3221C94.715 28.5264 96.4495 32.6272 97.8162 36.8459Z" fill="#EBF7F4"/>
<path d="M214.095 233.656H31C33.8223 230.672 36.4089 227.38 39.7749 225.042C45.1393 221.323 52.3562 220.442 58.4562 222.749C63.4684 224.631 68.1572 228.57 73.4483 227.776C78.5487 227.012 81.8264 222.206 85.4126 218.502C96.4069 207.14 115.426 204.626 128.978 212.784C134.96 216.371 140.177 221.868 147.071 222.911C153.744 223.926 160.167 220.5 166.634 218.59C183.199 213.696 202.409 219.531 213.477 232.803L214.095 233.656Z" fill="#EBF7F4"/>
<path d="M302.172 218.814H232.356C233.488 215.86 234.987 213.067 237.559 211.332C240.145 209.583 243.482 209.201 246.554 209.789C249.611 210.362 252.433 211.832 255.034 213.552C256.078 214.228 257.166 214.978 258.415 215.007C259.826 215.022 261.076 214.095 262.09 213.125C265.132 210.171 267.249 206.262 270.732 203.836C273.54 201.866 277.023 201.028 280.462 200.97C286.239 200.896 292.118 203.071 296.072 207.29C299.071 210.494 300.806 214.595 302.172 218.814Z" fill="#EBF7F4"/>
<path d="M32.4394 126.619L36.7329 128.207C37.5593 128.513 37.5593 129.682 36.7329 129.987L32.4394 131.575C28.8013 132.92 25.9332 135.789 24.5874 139.427L22.9997 143.72C22.6939 144.547 21.5252 144.547 21.2194 143.72L19.6318 139.427C18.2866 135.789 15.4178 132.921 11.7797 131.575L7.6183 130.036C6.77698 129.725 6.79719 128.528 7.64861 128.245L11.356 127.016C15.2406 125.728 18.3149 122.721 19.6883 118.865L21.2322 114.53C21.5299 113.695 22.7087 113.688 23.0159 114.52L24.5867 118.768C25.9332 122.405 28.8013 125.274 32.4394 126.619Z" fill="#FBECDF"/>
<path d="M281.44 15.7202L285.734 17.3078C286.56 17.6136 286.56 18.7823 285.734 19.0874L281.44 20.6751C277.802 22.0202 274.933 24.8891 273.588 28.5271L272.001 32.8206C271.695 33.6471 270.526 33.6471 270.221 32.8206L268.633 28.5271C267.288 24.8891 264.419 22.0202 260.781 20.6751L256.62 19.1359C255.778 18.8247 255.799 17.6278 256.65 17.3455L260.358 16.1162C264.242 14.8277 267.316 11.8208 268.69 7.96513L270.234 3.63058C270.531 2.79533 271.71 2.78792 272.017 3.6198L273.588 7.86814C274.933 11.5062 277.802 14.375 281.44 15.7202Z" fill="#FBECDF"/>
<path d="M309.766 156.266L314.059 157.854C314.886 158.16 314.886 159.328 314.059 159.634L309.766 161.221C306.128 162.566 303.259 165.435 301.914 169.073L300.326 173.367C300.02 174.193 298.851 174.193 298.546 173.367L296.959 169.073C295.613 165.435 292.745 162.566 289.107 161.221L284.945 159.682C284.104 159.371 284.124 158.174 284.975 157.892L288.683 156.662C292.568 155.374 295.642 152.367 297.015 148.511L298.559 144.177C298.857 143.341 300.036 143.335 300.343 144.166L301.914 148.414C303.259 152.052 306.128 154.92 309.766 156.266Z" fill="#FBECDF"/>
<path d="M243.705 100.773C242.077 118.493 236.791 135.873 223.697 147.834C220.731 150.551 217.52 152.834 214.122 154.658C214.354 151.221 214.655 147.789 215.004 144.264C215.136 144.177 215.268 144.076 215.401 143.975C228.738 133.819 233.888 116.767 235.438 100.024C236.559 87.6765 235.938 75.0135 236.225 62.9716C236.273 60.6861 238.159 58.8584 240.458 58.9073C242.758 58.9423 244.57 60.855 244.521 63.1542C244.4 67.5082 244.462 76.9628 244.456 78.896C244.453 86.0961 244.369 93.4567 243.705 100.773Z" fill="#EBF2FF"/>
<path d="M244.456 78.8961C241.22 78.4335 237.866 80.5712 236.133 83.4702C236.152 77.1328 236.124 71.2768 236.156 67.0037C238.654 65.5276 241.73 65.0246 244.475 65.7869C244.416 71.004 244.463 76.6303 244.456 78.8961Z" fill="#DBE6FA"/>
<path d="M201.022 65.4321L199.847 80.9929C168.423 80.9918 136.385 78.475 103.82 73.7402L104.995 58.1794L201.022 65.4321Z" fill="#CBDBF4"/>
<path d="M208.913 51.5728C207.966 53.6582 183.449 53.5152 153.485 51.2521C123.79 49.0093 99.7127 45.4998 98.6753 43.303L98.6379 43.5439L97.3055 61.1852C97.2516 61.8992 97.6878 62.5648 98.3729 62.7727C105.474 64.9283 127.047 68.9038 152.336 70.8139C177.685 72.7284 198.974 71.987 206.269 70.9142C206.976 70.8103 207.505 70.2181 207.559 69.5057L208.913 51.5728Z" fill="#2DC4C9"/>
<path d="M98.8023 52.3215C98.6213 52.2883 98.5026 52.1135 98.5366 51.9319C98.5718 51.7518 98.755 51.6337 98.9261 51.6675C135.22 58.5533 171.722 61.3103 207.421 59.862C207.598 59.8531 207.76 59.9972 207.768 60.1807C207.775 60.3653 207.632 60.5203 207.448 60.5273C171.12 62.0031 134.521 59.1006 98.8023 52.3215Z" fill="#12729B"/>
<path d="M147.104 170.757C159.459 168.502 167.647 156.659 165.392 144.304C163.137 131.949 151.294 123.761 138.939 126.015C126.583 128.27 118.396 140.114 120.65 152.469C122.905 164.824 134.749 173.012 147.104 170.757Z" fill="#FFA20D"/>
<path d="M120.558 133.657C120.55 133.665 120.54 133.69 120.532 133.698C116.518 140.541 116.369 149.099 120.226 156.109C127.195 168.925 144.554 171.989 155.51 161.99C164.795 153.516 165.444 139.133 156.969 129.847C146.405 118.272 127.711 120.839 120.558 133.657Z" fill="#FFB63C"/>
<path d="M141.858 159.55C150.447 157.983 156.138 149.75 154.571 141.161C153.004 132.573 144.771 126.881 136.182 128.449C127.594 130.016 121.902 138.249 123.47 146.837C125.037 155.426 133.27 161.117 141.858 159.55Z" fill="#FFA20D"/>
<path d="M143.391 161.229C151.979 159.662 157.671 151.429 156.104 142.84C154.536 134.252 146.303 128.56 137.715 130.128C129.127 131.695 123.435 139.928 125.002 148.516C126.57 157.105 134.803 162.796 143.391 161.229Z" fill="#FFDE9B"/>
<path d="M208.939 51.4769C208.934 51.5519 208.931 51.5893 208.91 51.6626C207.859 55.5732 183.218 56.8737 153.231 54.6089C123.536 52.366 99.5668 47.4313 98.6643 43.449C98.6421 43.3343 98.6324 43.2587 98.6408 43.1463C98.6493 43.0339 98.6914 42.8864 98.7459 42.7775C100.509 39.0337 124.825 37.7468 154.337 39.9758C184.231 42.2337 208.317 47.2516 208.926 51.2499C208.935 51.3259 208.945 51.402 208.939 51.4769Z" fill="#21DDE7"/>
<path d="M180.128 49.2884C180.126 49.314 180.125 49.3267 180.116 49.3516C179.655 50.6773 167.92 50.869 153.599 49.7874C139.418 48.7163 127.939 46.784 127.468 45.4137C127.456 45.3743 127.451 45.3484 127.454 45.31C127.457 45.2717 127.475 45.2217 127.5 45.1851C128.303 43.9237 139.883 43.7333 153.976 44.7978C168.253 45.876 179.788 47.838 180.119 49.2107C180.125 49.2368 180.13 49.2629 180.128 49.2884Z" fill="#3D4449"/>
<path d="M98.45 56.9513C98.2692 56.9154 98.1518 56.7407 98.1877 56.5593C98.2235 56.3792 98.4072 56.273 98.579 56.2977C135.385 63.5774 170.872 66.2576 207.069 64.4917C207.238 64.4875 207.409 64.6245 207.418 64.808C207.427 64.9928 207.285 65.1492 207.101 65.1575C170.9 66.9247 135.333 64.2474 98.45 56.9513Z" fill="#12729B"/>
<path d="M213.597 202.94C213.202 208.168 181.153 210.021 142.003 207.064C103.005 204.118 71.6779 197.507 71.8499 192.29L71.8541 192.234C72.249 187.006 104.298 185.154 143.434 188.11C182.584 191.067 213.992 197.712 213.597 202.94Z" fill="#BBCFEF"/>
<path d="M106.06 198.237C118.573 199.182 129.483 189.804 130.428 177.291C131.374 164.778 121.996 153.868 109.483 152.923C96.9699 151.978 86.0599 161.356 85.1148 173.869C84.1698 186.382 93.5474 197.292 106.06 198.237Z" fill="#FFA20D"/>
<path d="M110.409 198.565C122.922 199.51 133.832 190.133 134.777 177.62C135.722 165.107 126.345 154.197 113.832 153.252C101.319 152.306 90.4089 161.684 89.4638 174.197C88.5187 186.71 97.8964 197.62 110.409 198.565Z" fill="#FFB63C"/>
<path d="M112.496 191.775C121.194 192.432 128.777 185.914 129.434 177.216C130.091 168.518 123.573 160.935 114.875 160.278C106.177 159.621 98.5939 166.139 97.937 174.837C97.2801 183.535 103.798 191.118 112.496 191.775Z" fill="#FFA20D"/>
<path d="M110.23 191.604C118.928 192.261 126.511 185.743 127.168 177.045C127.825 168.347 121.307 160.764 112.609 160.107C103.912 159.45 96.3284 165.968 95.6714 174.666C95.0145 183.364 101.533 190.947 110.23 191.604Z" fill="#FFDE9B"/>
<path d="M140.459 202.426C151.467 203.257 161.065 195.007 161.897 183.999C162.728 172.99 154.478 163.392 143.47 162.561C132.461 161.729 122.863 169.979 122.032 180.988C121.2 191.996 129.45 201.594 140.459 202.426Z" fill="#FFA20D"/>
<path d="M143.869 200.667C154.877 201.498 164.475 193.248 165.307 182.24C166.138 171.231 157.888 161.633 146.88 160.802C135.871 159.97 126.273 168.221 125.442 179.229C124.61 190.237 132.86 199.836 143.869 200.667Z" fill="#FFB63C"/>
<path d="M145.555 193.958C153.207 194.535 159.879 188.801 160.457 181.149C161.034 173.497 155.3 166.825 147.648 166.247C139.996 165.669 133.324 171.404 132.746 179.056C132.168 186.708 137.903 193.38 145.555 193.958Z" fill="#FFA20D"/>
<path d="M143.78 194.873C151.432 195.451 158.103 189.716 158.681 182.064C159.259 174.412 153.524 167.741 145.872 167.163C138.22 166.585 131.549 172.319 130.971 179.971C130.393 187.623 136.128 194.295 143.78 194.873Z" fill="#FFDE9B"/>
<path d="M182.892 203.604C195.247 201.349 203.435 189.505 201.18 177.15C198.925 164.795 187.081 156.607 174.726 158.862C162.371 161.117 154.183 172.96 156.438 185.315C158.693 197.671 170.536 205.859 182.892 203.604Z" fill="#FFA20D"/>
<path d="M156.372 166.502C156.364 166.51 156.354 166.535 156.345 166.543C152.331 173.386 152.183 181.943 156.04 188.954C163.009 201.77 180.368 204.834 191.324 194.835C200.609 186.361 201.258 171.978 192.783 162.692C185.805 155.046 174.8 153.248 165.952 157.615C161.766 159.664 158.298 163.051 156.372 166.502Z" fill="#FFB63C"/>
<path d="M177.647 192.396C186.236 190.829 191.927 182.596 190.36 174.008C188.793 165.419 180.56 159.727 171.971 161.295C163.383 162.862 157.691 171.095 159.259 179.683C160.826 188.272 169.059 193.964 177.647 192.396Z" fill="#FFA20D"/>
<path d="M179.178 194.077C187.767 192.509 193.459 184.277 191.891 175.688C190.324 167.1 182.091 161.408 173.502 162.975C164.914 164.543 159.222 172.776 160.79 181.364C162.357 189.953 170.59 195.644 179.178 194.077Z" fill="#FFDE9B"/>
<path d="M236.38 62.1293C247.789 60.2441 255.509 49.4675 253.623 38.0593C251.738 26.651 240.961 18.9311 229.553 20.8164C218.145 22.7017 210.425 33.4782 212.31 44.8865C214.196 56.2947 224.972 64.0146 236.38 62.1293Z" fill="#FFA20D"/>
<path d="M214.171 57.976C220.621 65.2911 231.175 67.1006 239.601 62.6499C251.497 56.4423 254.588 40.525 245.564 30.2922C237.916 21.6193 224.698 20.7969 216.025 28.4451C208.883 34.7431 207.057 44.8364 210.934 53.0418C211.755 54.7934 212.828 56.4532 214.171 57.976Z" fill="#FFB63C"/>
<path d="M231.242 59.4474C239.172 58.1369 244.538 50.6458 243.228 42.7156C241.917 34.7855 234.426 29.4191 226.496 30.7297C218.566 32.0402 213.199 39.5312 214.51 47.4614C215.82 55.3916 223.311 60.7579 231.242 59.4474Z" fill="#FFA20D"/>
<path d="M232.812 58.0614C240.742 56.7509 246.108 49.2598 244.798 41.3296C243.487 33.3995 235.996 28.0332 228.066 29.3437C220.136 30.6542 214.769 38.1452 216.08 46.0754C217.39 54.0056 224.881 59.3719 232.812 58.0614Z" fill="#FFDE9B"/>
<path d="M254.936 56.4447C255.81 63.1071 252.616 68.8391 249.472 71.4429C243.644 76.3107 234.507 76.9893 229.45 72.5668C228.238 71.5196 227.493 69.3678 227.046 67.9723C226.577 66.4954 226.35 65.0288 226.294 64.7925C233.561 65.946 240.928 63.1549 245.605 57.5608C245.602 57.547 245.628 57.5287 245.628 57.5287C245.665 57.4942 245.699 57.4459 245.736 57.4115C245.734 57.3977 245.748 57.3954 245.745 57.3816C242.08 55.0234 238.966 51.5389 236.874 47.7154C236.367 46.7923 235.915 45.7749 235.983 44.7285C236.133 43.2291 237.448 42.0049 238.897 41.5953C240.377 41.1949 241.936 41.4478 243.391 41.9306C246.102 42.8016 248.467 44.4104 250.338 46.4694C252.828 49.1779 254.474 52.7064 254.936 56.4447Z" fill="#EBF2FF"/>
<path d="M245.736 57.4114C244.13 61.4206 241.283 63.8477 237.623 66.1541C234.604 68.0566 231.07 69.1511 227.493 69.3024C226.583 66.8027 226.402 65.253 226.294 64.7925C233.561 65.9459 240.928 63.1549 245.605 57.5607C245.602 57.5469 245.628 57.5286 245.628 57.5286C245.665 57.4941 245.699 57.4458 245.736 57.4114Z" fill="#DBE6FA"/>
<g opacity="0.41">
<path d="M213.597 202.94C213.593 202.995 213.603 203.038 213.599 203.093C213.583 203.314 213.568 203.507 213.538 203.726C212.304 215.467 202.219 224.265 190.478 223.961C190.092 223.918 189.717 223.931 189.33 223.902C156.48 223.876 124.23 221.579 92.7108 216.604C80.2954 215.666 70.957 204.847 71.8385 192.442L71.8468 192.331C71.8489 192.303 71.852 192.262 71.8679 192.235C71.9026 191.961 71.9489 191.715 71.9836 191.44C79.5393 144.69 79.9149 124.916 79.2318 94.5526C80.1737 82.0821 91.0481 72.7478 103.505 73.6887C103.6 73.7098 103.725 73.7192 103.82 73.7403C136.385 78.4751 168.423 80.9919 199.847 80.993C199.93 80.9854 200.027 80.9927 200.125 80.9862C204.111 81.2873 207.772 82.6043 210.891 84.6574C217.51 89.0419 221.629 96.7753 220.989 105.259C220.167 109.345 219.41 113.478 218.72 117.657C213.329 149.909 212.873 166.606 213.597 202.94Z" fill="#EBF2FF"/>
</g>
<g opacity="0.35">
<path d="M213.597 202.94C213.593 202.995 213.603 203.038 213.599 203.093C213.583 203.313 213.568 203.507 213.538 203.726C212.304 215.467 202.219 224.265 190.478 223.961C190.092 223.918 189.717 223.931 189.33 223.902C156.48 223.876 124.23 221.579 92.7108 216.604C80.2954 215.666 70.957 204.847 71.8385 192.441L71.8468 192.331C71.8489 192.303 71.852 192.262 71.8679 192.235C72.1264 190.185 73.8156 181.102 76.4629 159.869C87.6971 172.038 105.449 176.528 122.141 176.873C137.157 177.175 152.359 174.646 166.011 168.394C179.665 162.128 191.707 152.022 199.251 139.023C208.661 122.808 210.536 103.499 210.891 84.6573C217.51 89.0418 221.629 96.7753 220.989 105.259C220.167 109.345 219.41 113.478 218.72 117.657C213.134 151.115 212.918 168.221 213.597 202.94Z" fill="#DBE6FA"/>
</g>
<path d="M213.599 203.093C213.583 203.313 213.568 203.507 213.538 203.726C212.304 215.467 202.219 224.265 190.478 223.961C190.092 223.918 189.717 223.931 189.33 223.902C156.48 223.876 124.23 221.579 92.7108 216.604C80.2954 215.666 70.957 204.847 71.8385 192.442L71.8499 192.29C71.6779 197.507 103.005 204.118 142.003 207.064C181.153 210.021 213.202 208.168 213.597 202.94C213.593 202.995 213.603 203.038 213.599 203.093Z" fill="#BBDBEF"/>
<path d="M85.818 93.2287C86.4302 99.0104 86.4979 104.873 86.0351 110.879C85.9146 112.444 87.1814 114.047 88.8007 114.096C90.429 114.146 91.8889 113.008 92.0181 111.331C92.5122 104.917 92.3847 98.4704 91.7074 92.0739C91.5418 90.5097 89.6642 89.3485 88.1853 89.7066C86.4914 90.1168 85.6406 91.5527 85.818 93.2287Z" fill="white"/>
<path d="M86.3545 122.77C86.4297 123.792 86.3717 124.381 86.9037 125.059C87.2511 125.696 88.0013 126.239 88.7703 126.332C89.5628 126.573 90.0663 126.335 90.7046 126.121C91.1742 125.889 91.5589 125.558 91.8588 125.129C91.9773 124.898 92.0959 124.668 92.2144 124.437C92.3969 123.918 92.4369 123.387 92.3345 122.846C92.2593 121.824 92.3174 121.235 91.7853 120.557C91.438 119.92 90.6878 119.378 89.9188 119.284C89.1262 119.043 88.6227 119.281 87.9845 119.495C86.7559 120.102 86.0995 121.423 86.3545 122.77Z" fill="white"/>
<g opacity="0.4">
<path d="M238.363 30.4419C239.166 31.1179 240.608 30.7873 241.146 29.9325C241.769 28.9418 241.494 27.8713 240.637 27.1499C238.235 25.1285 235.025 23.9761 231.887 23.9932C230.843 23.9989 229.777 24.6958 229.742 25.8369C229.711 26.8487 230.465 27.988 231.586 27.9819C234.339 27.9669 236.383 28.7754 238.363 30.4419Z" fill="white"/>
</g>
<g opacity="0.4">
<path d="M242.1 33.8117C242.962 34.9855 243.059 35.2146 243.55 35.4163C244.243 35.8496 245.222 35.7659 246.102 34.7884C246.517 34.184 246.447 33.7344 246.419 33.2669C246.314 32.742 246.21 32.6705 245.133 31.2043C244.48 30.3857 243.095 30.2668 242.313 30.9913C242.199 31.118 242.084 31.2447 241.97 31.3714C241.469 32.1024 241.49 33.0979 242.1 33.8117Z" fill="white"/>
</g>
</svg>
