<svg width="18" height="18" viewBox="0 0 18 18" fill="none" xmlns="http://www.w3.org/2000/svg">
<path fill-rule="evenodd" clip-rule="evenodd" d="M2.93985 9.38C2.81717 9.252 2.7209 9.10109 2.65654 8.93589C2.59219 8.77069 2.561 8.59442 2.56476 8.41717C2.56852 8.23991 2.60716 8.06513 2.67846 7.9028C2.74977 7.74047 2.85235 7.59378 2.98035 7.4711C3.10835 7.34842 3.25926 7.25215 3.42447 7.1878C3.58967 7.12344 3.76593 7.09225 3.94319 7.09601C4.12045 7.09977 4.29523 7.13841 4.45756 7.20971C4.61988 7.28102 4.76657 7.3836 4.88925 7.5116L7.37865 10.1108C7.41955 10.1535 7.45164 10.2038 7.47309 10.2588C7.49454 10.3139 7.50494 10.3727 7.50368 10.4317C7.50243 10.4908 7.48955 10.5491 7.46578 10.6032C7.44201 10.6573 7.40782 10.7062 7.36515 10.7471C7.32249 10.788 7.27218 10.8201 7.21711 10.8415C7.16205 10.863 7.10329 10.8734 7.04421 10.8721C6.98512 10.8709 6.92686 10.858 6.87275 10.8342C6.81864 10.8105 6.76975 10.7763 6.72885 10.7336L4.23945 8.1344C4.15686 8.04823 4.04343 7.9984 3.9241 7.99587C3.80477 7.99334 3.68932 8.03831 3.60315 8.1209C3.51698 8.20349 3.46715 8.31693 3.46462 8.43626C3.46209 8.55559 3.50706 8.67103 3.58965 8.7572L6.07995 11.3564C6.16254 11.4426 6.20752 11.558 6.20498 11.6773C6.20245 11.7967 6.15262 11.9101 6.06645 11.9927C5.98028 12.0753 5.86484 12.1203 5.74551 12.1177C5.62618 12.1152 5.51274 12.0654 5.43015 11.9792L2.93985 9.38Z" fill="#0988B1"/>
<path fill-rule="evenodd" clip-rule="evenodd" d="M3.61741 7.48509C3.49111 7.35783 3.39142 7.20669 3.32416 7.04049C3.25691 6.87428 3.22343 6.69635 3.22569 6.51707C3.22795 6.33779 3.2659 6.16075 3.33733 5.9963C3.40875 5.83184 3.51222 5.68326 3.64169 5.55923C3.77116 5.4352 3.92404 5.3382 4.09141 5.27389C4.25878 5.20959 4.43728 5.17927 4.61649 5.1847C4.7957 5.19013 4.97204 5.23121 5.1352 5.30553C5.29837 5.37986 5.44509 5.48594 5.56681 5.61759L8.05711 8.21678C8.1397 8.30295 8.18468 8.4184 8.18215 8.53773C8.17961 8.65706 8.12978 8.7705 8.04361 8.85309C7.95745 8.93567 7.842 8.98065 7.72267 8.97812C7.60334 8.97558 7.4899 8.92575 7.40731 8.83958L4.91701 6.23949C4.83443 6.15332 4.72099 6.10348 4.60166 6.10095C4.48233 6.09842 4.36688 6.1434 4.28071 6.22598C4.19455 6.30857 4.14471 6.42201 4.14218 6.54134C4.13965 6.66067 4.18463 6.77612 4.26721 6.86228L6.75751 9.46148C6.8401 9.54765 6.88508 9.6631 6.88255 9.78243C6.88001 9.90176 6.83018 10.0152 6.74401 10.0978C6.65785 10.1804 6.5424 10.2253 6.42307 10.2228C6.30374 10.2203 6.1903 10.1705 6.10771 10.0843L3.61741 7.48509Z" fill="#0988B1"/>
<path fill-rule="evenodd" clip-rule="evenodd" d="M5.53897 6.88904C5.4106 6.76224 5.30895 6.61098 5.24003 6.44421C5.17112 6.27744 5.13633 6.09855 5.13774 5.91811C5.13914 5.73767 5.1767 5.55934 5.24821 5.39367C5.31971 5.22799 5.4237 5.07833 5.55403 4.95354C5.68437 4.82874 5.8384 4.73134 6.00702 4.66709C6.17564 4.60284 6.35543 4.57304 6.53576 4.57947C6.71609 4.58589 6.8933 4.6284 7.05692 4.70449C7.22055 4.78057 7.36725 4.88869 7.48837 5.02244L10.2928 7.94835C10.3337 7.99107 10.3657 8.04143 10.3872 8.09656C10.4086 8.15168 10.419 8.21048 10.4177 8.26961C10.4164 8.32874 10.4035 8.38703 10.3796 8.44116C10.3558 8.49529 10.3215 8.5442 10.2788 8.58509C10.2361 8.62599 10.1857 8.65807 10.1306 8.6795C10.0755 8.70093 10.0167 8.71129 9.95756 8.71C9.89843 8.7087 9.84014 8.69577 9.78601 8.67195C9.73188 8.64812 9.68297 8.61387 9.64207 8.57114L6.83857 5.64434C6.79768 5.60168 6.74878 5.56748 6.69468 5.54371C6.64057 5.51995 6.58231 5.50707 6.52322 5.50581C6.40389 5.50328 6.28844 5.54826 6.20227 5.63084C6.11611 5.71343 6.06627 5.82687 6.06374 5.9462C6.06121 6.06553 6.10619 6.18098 6.18877 6.26714L8.67907 8.86545C8.72236 8.9076 8.75672 8.95805 8.78009 9.01377C8.80346 9.0695 8.81537 9.12936 8.8151 9.18978C8.81484 9.25021 8.80241 9.30996 8.77855 9.36548C8.7547 9.421 8.71991 9.47114 8.67625 9.51292C8.6326 9.5547 8.58097 9.58726 8.52446 9.60866C8.46795 9.63006 8.40771 9.63985 8.34733 9.63747C8.28695 9.63508 8.22767 9.62056 8.17303 9.59477C8.11838 9.56897 8.06949 9.53244 8.02927 9.48735L5.53897 6.88904Z" fill="#0988B1"/>
<path fill-rule="evenodd" clip-rule="evenodd" d="M9.21441 6.70664C9.14293 6.36155 9.20089 6.00223 9.37725 5.69711C9.55361 5.392 9.83605 5.16242 10.1708 5.05211C10.5055 4.94181 10.869 4.95847 11.1923 5.09894C11.5155 5.23942 11.7757 5.49387 11.9234 5.81384L12.5984 7.28084C12.6231 7.33462 12.6369 7.39272 12.6391 7.45183C12.6412 7.51095 12.6318 7.56991 12.6112 7.62536C12.5906 7.68081 12.5592 7.73166 12.519 7.77501C12.4787 7.81835 12.4303 7.85335 12.3766 7.87799C12.3228 7.90263 12.2647 7.91644 12.2056 7.91863C12.1465 7.92082 12.0875 7.91134 12.032 7.89074C11.9766 7.87014 11.9257 7.83882 11.8824 7.79857C11.839 7.75831 11.8041 7.70992 11.7794 7.65614L11.1062 6.18824C11.0518 6.06772 10.9548 5.97159 10.8337 5.91834C10.7127 5.8651 10.5763 5.85852 10.4507 5.89986C10.3251 5.9412 10.2192 6.02755 10.1535 6.14227C10.0877 6.25699 10.0668 6.39198 10.0946 6.52124L10.451 8.22404C10.4754 8.34088 10.4523 8.46261 10.3869 8.56244C10.3215 8.66228 10.2191 8.73204 10.1023 8.75639C9.98542 8.78074 9.86369 8.75767 9.76386 8.69227C9.66402 8.62687 9.59426 8.52448 9.56991 8.40764L9.21441 6.70664Z" fill="#0988B1"/>
<path fill-rule="evenodd" clip-rule="evenodd" d="M4.22509 12.6721C4.26776 12.6312 4.31806 12.5991 4.37313 12.5776C4.4282 12.5562 4.48695 12.5458 4.54604 12.547C4.60513 12.5483 4.66339 12.5612 4.7175 12.5849C4.7716 12.6087 4.8205 12.6429 4.86139 12.6856L7.03129 14.95C7.35349 15.2857 7.74049 15.553 8.16889 15.7357L8.19949 15.7492C8.62729 15.9316 9.08856 16.0225 9.55359 16.0158C10.0186 16.0091 10.4771 15.9051 10.8995 15.7105L11.0246 15.6529C11.4746 15.4459 11.8859 15.1669 12.2423 14.8249L12.3566 14.7142C12.8365 14.2545 13.1682 13.6619 13.309 13.0125C13.4498 12.363 13.3933 11.6863 13.1468 11.0692L11.7761 7.64018C11.7541 7.58528 11.7432 7.52659 11.7439 7.46746C11.7446 7.40833 11.7569 7.34991 11.7802 7.29555C11.8034 7.24118 11.8372 7.19193 11.8795 7.15061C11.9218 7.1093 11.9718 7.07671 12.0267 7.05473C12.0816 7.03275 12.1403 7.02179 12.1995 7.02249C12.2586 7.02319 12.317 7.03553 12.3714 7.05881C12.4257 7.08208 12.475 7.11584 12.5163 7.15814C12.5576 7.20045 12.5902 7.25048 12.6122 7.30538L13.982 10.7344C14.2947 11.5182 14.3663 12.3775 14.1877 13.2023C14.0091 14.0271 13.5884 14.7798 12.9794 15.364L12.8651 15.4738C12.4352 15.8845 11.9405 16.2215 11.4008 16.471L11.2757 16.5286C10.7392 16.7756 10.1569 16.9076 9.56634 16.916C8.97576 16.9243 8.38997 16.8089 7.84669 16.5772L7.81609 16.5637C7.27552 16.3343 6.78738 15.9972 6.38149 15.5728L4.21249 13.3084C4.17154 13.2658 4.13938 13.2155 4.11784 13.1605C4.09631 13.1054 4.08583 13.0467 4.087 12.9876C4.08817 12.9285 4.10097 12.8703 4.12466 12.8161C4.14836 12.762 4.18248 12.713 4.22509 12.6721Z" fill="#0988B1"/>
<path fill-rule="evenodd" clip-rule="evenodd" d="M2.88517 11.9252C2.6374 11.6667 2.50247 11.3204 2.51007 10.9624C2.51766 10.6044 2.66716 10.2641 2.92567 10.0163C3.18417 9.76857 3.53052 9.63365 3.8885 9.64124C4.24649 9.64884 4.5868 9.79833 4.83457 10.0568L6.08017 11.3564C6.16275 11.4426 6.20773 11.5581 6.2052 11.6774C6.20267 11.7967 6.15283 11.9101 6.06667 11.9927C5.9805 12.0753 5.86505 12.1203 5.74572 12.1178C5.62639 12.1152 5.51295 12.0654 5.43037 11.9792L4.18477 10.6796C4.14387 10.637 4.09498 10.6028 4.04087 10.579C3.98676 10.5552 3.9285 10.5424 3.86941 10.5411C3.81033 10.5399 3.75157 10.5502 3.6965 10.5717C3.64144 10.5932 3.59113 10.6252 3.54847 10.6661C3.5058 10.707 3.47161 10.7559 3.44784 10.81C3.42407 10.8641 3.41119 10.9224 3.40993 10.9815C3.40868 11.0406 3.41908 11.0993 3.44053 11.1544C3.46198 11.2095 3.49407 11.2598 3.53497 11.3024L6.02617 13.9016C6.06706 13.9443 6.09915 13.9946 6.1206 14.0497C6.14206 14.1047 6.15245 14.1635 6.1512 14.2226C6.14994 14.2817 6.13707 14.3399 6.1133 14.394C6.08953 14.4481 6.05533 14.497 6.01267 14.5379C5.97 14.5788 5.9197 14.6109 5.86463 14.6324C5.80956 14.6538 5.75081 14.6642 5.69172 14.663C5.63263 14.6617 5.57437 14.6488 5.52027 14.6251C5.46616 14.6013 5.41726 14.5671 5.37637 14.5244L2.88517 11.9252ZM7.46347 6.29124C7.33716 6.16398 7.23747 6.01284 7.17022 5.84664C7.10296 5.68043 7.06949 5.5025 7.07174 5.32322C7.07401 5.14394 7.11195 4.9669 7.18338 4.80245C7.2548 4.63799 7.35827 4.48941 7.48774 4.36538C7.61721 4.24135 7.77009 4.14435 7.93746 4.08005C8.10483 4.01574 8.28333 3.98542 8.46254 3.99085C8.64175 3.99629 8.81809 4.03736 8.98125 4.11169C9.14442 4.18601 9.29114 4.29209 9.41287 4.42374L9.84847 4.87914C9.89175 4.9213 9.92611 4.97174 9.94948 5.02747C9.97285 5.08319 9.98476 5.14305 9.9845 5.20347C9.98423 5.2639 9.9718 5.32365 9.94795 5.37917C9.92409 5.43469 9.8893 5.48483 9.84564 5.52661C9.80199 5.56839 9.75037 5.60095 9.69386 5.62235C9.63735 5.64375 9.5771 5.65355 9.51673 5.65116C9.45635 5.64877 9.39707 5.63425 9.34242 5.60846C9.28778 5.58267 9.23889 5.54613 9.19867 5.50104L8.76307 5.04654C8.68048 4.96037 8.56704 4.91054 8.44771 4.90801C8.32838 4.90547 8.21293 4.95045 8.12677 5.03304C8.0406 5.11563 7.99077 5.22906 7.98823 5.34839C7.9857 5.46772 8.03068 5.58317 8.11327 5.66934L9.35797 6.96894C9.44055 7.05511 9.48553 7.17055 9.483 7.28988C9.48047 7.40921 9.43063 7.52265 9.34447 7.60524C9.2583 7.68783 9.14285 7.7328 9.02352 7.73027C8.90419 7.72774 8.79075 7.67791 8.70817 7.59174L7.46347 6.29124ZM11.275 6.20394C11.154 5.86979 11.1668 5.50182 11.3107 5.17689C11.4546 4.85195 11.7184 4.59518 12.0472 4.4602C12.3759 4.32522 12.7441 4.32247 13.0748 4.45252C13.4055 4.58258 13.6732 4.83539 13.822 5.15814L14.5231 6.68544C14.5477 6.73921 14.5615 6.79732 14.5637 6.85643C14.5659 6.91554 14.5564 6.97451 14.5358 7.02996C14.5152 7.08541 14.4839 7.13626 14.4436 7.17961C14.4034 7.22295 14.355 7.25795 14.3012 7.28259C14.2474 7.30723 14.1893 7.32104 14.1302 7.32323C14.0711 7.32541 14.0121 7.31594 13.9567 7.29534C13.9012 7.27474 13.8504 7.24342 13.807 7.20316C13.7637 7.16291 13.7287 7.11451 13.7041 7.06074L13.0039 5.53344C12.9515 5.42278 12.8587 5.33643 12.7445 5.29222C12.6303 5.24801 12.5035 5.24929 12.3903 5.29581C12.2771 5.34233 12.186 5.43054 12.1359 5.54224C12.0858 5.65394 12.0804 5.78062 12.121 5.89614L12.6718 7.41084C12.7126 7.52302 12.7072 7.64683 12.6567 7.75502C12.6062 7.86321 12.5149 7.94692 12.4027 7.98774C12.2905 8.02855 12.1667 8.02313 12.0585 7.97267C11.9503 7.9222 11.8666 7.83082 11.8258 7.71864L11.275 6.20394Z" fill="#0988B1"/>
<path fill-rule="evenodd" clip-rule="evenodd" d="M13.9499 6.4577C14.0607 6.41332 14.1845 6.41476 14.2942 6.46167C14.4039 6.50859 14.4905 6.59716 14.5349 6.7079L15.9047 10.1369C16.2176 10.9208 16.2893 11.7803 16.1107 12.6053C15.9321 13.4302 15.5112 14.1831 14.9021 14.7674L14.8112 14.8547C14.3661 15.2801 13.8537 15.6289 13.2947 15.887L13.1849 15.9374C12.889 16.0731 12.5838 16.1856 12.2705 16.274L11.2319 16.5674C11.175 16.5834 11.1155 16.5881 11.0568 16.5811C10.9981 16.5741 10.9413 16.5556 10.8898 16.5267C10.8382 16.4978 10.7928 16.459 10.7563 16.4125C10.7197 16.3661 10.6926 16.3129 10.6766 16.256C10.6606 16.1991 10.6559 16.1396 10.6629 16.0809C10.6699 16.0222 10.6884 15.9654 10.7173 15.9139C10.7462 15.8623 10.785 15.8169 10.8314 15.7804C10.8779 15.7438 10.9311 15.7167 10.988 15.7007L12.0257 15.4082C12.2951 15.3326 12.5561 15.2366 12.8087 15.1202L12.9185 15.0689C13.3865 14.8528 13.8156 14.5609 14.1884 14.2049L14.2802 14.1176C14.7596 13.6574 15.0909 13.0647 15.2315 12.4151C15.3721 11.7656 15.3157 11.089 15.0695 10.4717L13.6988 7.0427C13.6769 6.9878 13.6659 6.92911 13.6667 6.87C13.6674 6.81088 13.6798 6.75249 13.7031 6.69817C13.7265 6.64384 13.7603 6.59464 13.8026 6.55338C13.8449 6.51212 13.895 6.4796 13.9499 6.4577ZM3.7961 0.977595C3.89483 0.910722 4.01606 0.885766 4.13317 0.90821C4.25028 0.930653 4.3537 0.998661 4.4207 1.0973L5.5061 2.6975C5.56791 2.79623 5.58902 2.91509 5.565 3.02907C5.54097 3.14305 5.47369 3.24327 5.37729 3.30866C5.28089 3.37406 5.16289 3.39952 5.04811 3.3797C4.93332 3.35988 4.83069 3.29633 4.7618 3.2024L3.6755 1.6031C3.64225 1.55418 3.61897 1.49919 3.60699 1.44126C3.595 1.38334 3.59456 1.32362 3.60568 1.26553C3.61679 1.20743 3.63926 1.1521 3.67178 1.1027C3.7043 1.05329 3.74714 1.01078 3.7961 0.977595ZM11.0024 0.949695C10.8962 0.895621 10.7728 0.88591 10.6594 0.922695C10.546 0.95948 10.4519 1.03975 10.3976 1.1459L9.5813 2.7452C9.55232 2.79798 9.53422 2.85604 9.52809 2.91594C9.52195 2.97584 9.5279 3.03636 9.54558 3.09393C9.56326 3.15149 9.59231 3.20491 9.63102 3.25104C9.66972 3.29717 9.71729 3.33506 9.7709 3.36247C9.82452 3.38988 9.88309 3.40625 9.94315 3.41062C10.0032 3.41498 10.0635 3.40724 10.1205 3.38787C10.1776 3.36849 10.2301 3.33787 10.2751 3.29782C10.32 3.25777 10.3565 3.2091 10.3823 3.1547L11.1986 1.5545C11.2527 1.44826 11.2624 1.3249 11.2256 1.21151C11.1888 1.09812 11.1085 1.00396 11.0024 0.949695ZM7.4771 0.450195C7.59645 0.450195 7.71091 0.497606 7.7953 0.581997C7.87969 0.666389 7.9271 0.780848 7.9271 0.900195V2.4995C7.9271 2.61884 7.87969 2.7333 7.7953 2.81769C7.71091 2.90208 7.59645 2.9495 7.4771 2.9495C7.35776 2.9495 7.2433 2.90208 7.1589 2.81769C7.07451 2.7333 7.0271 2.61884 7.0271 2.4995V0.900195C7.0271 0.780848 7.07451 0.666389 7.1589 0.581997C7.2433 0.497606 7.35776 0.450195 7.4771 0.450195Z" fill="#0988B1"/>
</svg>
