<svg width="20" height="20" viewBox="0 0 20 20" fill="none" xmlns="http://www.w3.org/2000/svg">
<g clip-path="url(#clip0_6392_6226)">
<path d="M6.66626 6.66648C10.4817 6.66648 13.3326 5.15818 13.3326 3.80953C13.3326 2.46099 10.4816 0.952637 6.66626 0.952637C2.85092 0.952637 0 2.46099 0 3.80953C0 5.15818 2.85086 6.66648 6.66626 6.66648Z" fill="#0BAA60"/>
<path d="M6.66626 18.0947C7.22315 18.0947 7.75915 18.0624 8.26898 18.0034C7.83922 17.4511 7.48382 16.8382 7.21756 16.1799C7.03462 16.1861 6.85105 16.1903 6.6662 16.1903C4.48609 16.1903 2.42148 15.7584 0.852857 14.974C0.543997 14.8196 0.259775 14.6537 0 14.478V15.2379C0 16.5864 2.85086 18.0947 6.66626 18.0947Z" fill="#0BAA60"/>
<path d="M6.66621 14.2852C6.68576 14.2852 6.705 14.2849 6.7245 14.2848C6.68545 13.9726 6.66506 13.6547 6.66506 13.3321C6.66506 13.0097 6.68538 12.6919 6.7245 12.38C6.705 12.38 6.6857 12.3807 6.66621 12.3807C4.48609 12.3807 2.42154 11.9487 0.852862 11.1644C0.543938 11.01 0.259653 10.844 -0.00012207 10.6685V11.4282C-5.85712e-05 12.7768 2.8508 14.2852 6.66621 14.2852Z" fill="#0BAA60"/>
<path d="M6.66621 10.476C6.85518 10.476 7.04161 10.4722 7.2257 10.465C7.52135 9.73963 7.92539 9.06965 8.41802 8.47549C7.84767 8.53835 7.26151 8.57169 6.66621 8.57169C4.48609 8.57169 2.42154 8.13971 0.852862 7.35537C0.543938 7.20087 0.259653 7.03501 -0.00012207 6.85938V7.61921C-5.85712e-05 8.9678 2.8508 10.476 6.66621 10.476Z" fill="#0BAA60"/>
<path d="M9.52363 10.1751C9.11153 10.7947 8.81708 11.4988 8.67224 12.2555C8.60537 12.6043 8.57007 12.9641 8.57007 13.3321C8.57007 13.6088 8.59026 13.8808 8.62842 14.1471C8.72221 14.8012 8.92712 15.4196 9.22341 15.9831C9.5343 16.5743 9.94559 17.1048 10.4347 17.5516C11.4512 18.48 12.8031 19.047 14.285 19.047C17.4362 19.047 19.9999 16.4833 19.9999 13.3321C19.9999 10.1808 17.4362 7.61719 14.285 7.61719C13.9593 7.61719 13.64 7.645 13.3289 7.69758C11.7448 7.96548 10.3803 8.88742 9.52363 10.1751Z" fill="#0BAA60"/>
</g>
<defs>
<clipPath id="clip0_6392_6226">
<rect width="20" height="20" fill="white"/>
</clipPath>
</defs>
</svg>
