<svg width="20" height="20" viewBox="0 0 20 20" fill="none" xmlns="http://www.w3.org/2000/svg">
<path opacity="0.4" d="M17.0833 8.49199H14.675C12.7 8.49199 11.0917 6.88366 11.0917 4.90866V2.50033C11.0917 2.04199 10.7167 1.66699 10.2583 1.66699H6.72501C4.15834 1.66699 2.08334 3.33366 2.08334 6.30866V13.692C2.08334 16.667 4.15834 18.3337 6.72501 18.3337H13.275C15.8417 18.3337 17.9167 16.667 17.9167 13.692V9.32532C17.9167 8.86699 17.5417 8.49199 17.0833 8.49199Z" fill="#6B7B8D"/>
<path d="M13.1667 1.84207C12.825 1.5004 12.2333 1.73373 12.2333 2.20873V5.11707C12.2333 6.33373 13.2667 7.34207 14.525 7.34207C15.3167 7.3504 16.4167 7.3504 17.3583 7.3504C17.8333 7.3504 18.0833 6.79207 17.75 6.45873C16.55 5.2504 14.4 3.0754 13.1667 1.84207Z" fill="#6B7B8D"/>
<path d="M9.60834 10.392L7.94167 8.72533C7.93334 8.71699 7.925 8.71699 7.925 8.70866C7.875 8.65866 7.80834 8.61699 7.74167 8.58366C7.73334 8.58366 7.73334 8.58366 7.725 8.58366C7.65834 8.55866 7.59167 8.55033 7.525 8.54199C7.5 8.54199 7.48334 8.54199 7.45834 8.54199C7.40834 8.54199 7.35 8.55866 7.3 8.57533C7.275 8.58366 7.25834 8.59199 7.24167 8.60033C7.175 8.63366 7.10834 8.66699 7.05834 8.72533L5.39167 10.392C5.15 10.6337 5.15 11.0337 5.39167 11.2753C5.63334 11.517 6.03334 11.517 6.275 11.2753L6.875 10.6753V14.167C6.875 14.5087 7.15834 14.792 7.5 14.792C7.84167 14.792 8.125 14.5087 8.125 14.167V10.6753L8.725 11.2753C8.85 11.4003 9.00834 11.4587 9.16667 11.4587C9.325 11.4587 9.48334 11.4003 9.60834 11.2753C9.85 11.0337 9.85 10.6337 9.60834 10.392Z" fill="#6B7B8D"/>
</svg>
