<svg width="210" height="210" viewBox="0 0 210 210" fill="none" xmlns="http://www.w3.org/2000/svg">
<path d="M100.948 162.842C89.0568 156.181 80.3488 147.463 78.4239 137.544C70.9431 99.1224 139.484 60.5796 139.484 60.5796C139.484 60.5796 122.549 29.2166 130.935 25.1762C135.119 23.1492 138.756 25.752 142.102 28.5234C145.446 31.3047 148.508 34.2566 151.513 32.9121C153.72 31.9294 155.423 29.9984 157.102 28.0313C158.737 26.1302 160.37 24.1865 162.426 23.0516C165.561 21.3211 169.532 21.2059 172.759 22.7509C175.997 24.298 178.394 27.457 179.017 30.9836C179.141 31.7075 179.189 32.4392 179.271 33.1664C179.345 34.0495 179.45 34.9379 179.72 35.782C180.212 37.3258 181.493 38.7991 183.118 38.7929C183.956 38.7946 184.751 38.3898 185.506 38.0309C186.055 37.7717 186.602 37.5227 187.156 37.2955C188.965 36.5465 190.842 35.9456 192.752 35.5183C194.446 35.1261 196.331 34.8936 197.831 35.7771C199.376 36.6999 200.078 38.658 199.95 40.4487C199.81 42.2477 198.971 43.9121 198.019 45.4416C194.942 50.3995 190.603 54.4322 186.774 58.8381C183.905 62.1456 181.298 65.6881 178.945 69.3906C178.746 69.6908 178.556 69.9927 178.354 70.3028L178.436 70.3171C178.436 70.3171 180.885 74.125 184.019 80.9984C190.072 94.2461 198.679 118.887 197.237 149.631C195.606 184.282 135.118 182.015 100.948 162.842Z" fill="#EDEFF2"/>
<path d="M137.595 58.6379C137.595 58.6379 163.827 59.0838 180.619 68.0281L179.285 71.5382C179.285 71.5382 171.278 67.8927 158.926 65.6196C146.573 63.3465 136.199 62.4938 136.199 62.4938L137.595 58.6379Z" fill="#D1E0ED"/>
<path d="M100.948 162.842C109.974 165.726 119.388 167.433 128.863 167.84C140.511 168.348 152.96 166.63 161.909 159.168C166.347 155.467 169.641 150.589 172.451 145.542C181.466 129.288 185.953 110.547 185.255 91.9684C185.12 88.2869 184.778 84.5901 184.019 80.9976C190.071 94.2452 198.679 118.886 197.236 149.63C195.606 184.282 135.118 182.014 100.948 162.842Z" fill="#DFE2E6"/>
<path opacity="0.18" d="M157.101 28.0312C154.848 36.8029 152.365 45.5129 149.672 54.1648C147.678 47.1261 145.674 40.0857 143.68 33.0466C143.256 31.536 142.769 29.9614 142.101 28.523C145.445 31.3043 148.507 34.2562 151.512 32.9117C153.719 31.929 155.423 29.9984 157.101 28.0312Z" fill="#0A213B"/>
<path opacity="0.18" d="M187.155 37.2948C181.76 44.6309 176.362 51.987 170.345 58.8145C171.644 57.3359 172.16 53.3504 172.809 51.453C173.679 48.9031 174.568 46.3667 175.479 43.8241C176.733 40.3464 177.846 36.6554 179.271 33.1658C179.345 34.0488 179.45 34.9372 179.72 35.7813C180.212 37.3252 181.492 38.7984 183.118 38.7923C183.956 38.7939 184.751 38.3891 185.506 38.0302C186.054 37.771 186.601 37.5216 187.155 37.2948Z" fill="#0A213B"/>
<path d="M25.8488 86.4569C25.8488 86.4569 25.3217 107.272 33.7533 112.806C42.1849 118.339 56.1495 117.548 56.1495 122.291C56.1495 127.034 31.1181 129.142 29.0103 142.316C26.9025 155.491 27.9562 159.707 27.9562 159.707L101.469 156.018C101.469 156.018 100.449 142.408 96.6385 134.06C92.9495 125.98 71.8708 126.507 71.3437 120.886C71.023 117.466 83.1435 115.192 88.2947 108.59C97.3411 96.9967 92.774 80.3091 92.774 80.3091L25.8488 86.4569Z" fill="#CCD6E0"/>
<path d="M70.4096 114.576C79.2961 111.341 86.2642 106.777 88.7547 97.1024C89.8227 92.9529 90.0434 88.4022 89.2616 84.1731L30.592 89.9694C30.7409 103.529 37.8867 113.965 53.6326 115.715C53.6326 115.715 53.7765 115.963 53.7786 115.967C53.8815 116.144 56.0102 116.189 56.404 116.278C57.7977 116.591 59.1869 117.083 60.1454 118.2C61.1868 119.415 61.4838 121.095 61.5621 122.693C61.9202 130.018 63.8783 138.967 60.9805 146.004C58.5212 151.976 46.9277 156.368 46.9277 156.368L81.5326 155.49C81.5326 155.49 69.983 152.372 67.2165 146.18C65.4619 142.252 65.6895 137.237 65.6608 133.036C65.644 130.585 65.6436 128.122 65.7351 125.672C65.8265 123.22 65.1809 120.015 66.2637 117.758C67.0229 116.174 68.6681 115.208 70.319 114.609C70.3489 114.598 70.3793 114.587 70.4096 114.576Z" fill="#F6F2EF"/>
<path d="M95.9336 81.5352L93.1163 81.8035L25.8514 88.1814L23.3335 88.4185C25.0775 85.8698 26.9351 83.4031 28.9165 81.0398L95.2323 75.3845L95.9336 81.5352Z" fill="#D1E0ED"/>
<path d="M25.9606 164.114L103.499 160.746L103.058 154.57L25.5525 157.236L25.9606 164.114Z" fill="#D1E0ED"/>
<path d="M85.4939 99.3013C86.009 100.319 86.9261 101.307 88.066 101.263C89.3252 101.215 90.1656 99.969 90.6906 98.8234C91.9563 96.061 93.9579 87.5725 88.4798 87.4826C83.9181 87.408 84.135 96.618 85.4939 99.3013Z" fill="white"/>
<path d="M190.038 87.3498L190.521 81.875C190.541 81.6515 190.86 81.6294 190.91 81.8488L192.105 87.1086C192.275 87.8572 192.916 88.4056 193.682 88.4576L199.085 88.8256C199.306 88.8407 199.338 89.1541 199.124 89.2123L193.882 90.6409C193.195 90.8283 192.691 91.4157 192.612 92.1236L191.95 98.0036C191.924 98.2276 191.603 98.2407 191.56 98.0192L190.528 92.7011C190.381 91.9423 189.751 91.3722 188.981 91.3013L182.995 90.6155C182.867 90.6007 182.855 90.4198 182.979 90.3874L188.701 88.8904C189.432 88.7193 189.972 88.0979 190.038 87.3498Z" fill="#D0DAE3"/>
<path d="M18.2442 88.7553L18.7274 83.2806C18.7471 83.057 19.0662 83.0349 19.1158 83.2543L20.311 88.5142C20.4812 89.2627 21.1223 89.8111 21.8881 89.8632L27.291 90.2311C27.5125 90.2462 27.5437 90.5596 27.3296 90.6178L22.0882 92.0464C21.4012 92.2339 20.8975 92.8212 20.818 93.5291L20.1556 99.4091C20.1301 99.6331 19.8094 99.6462 19.7663 99.4247L18.7344 94.1066C18.5871 93.3478 17.9567 92.7777 17.1873 92.7068L11.2014 92.021C11.0735 92.0062 11.0608 91.8253 11.1854 91.7929L16.9071 90.2959C17.6388 90.1248 18.1782 89.5035 18.2442 88.7553Z" fill="#D0DAE3"/>
<path d="M123.813 190.526L124.296 185.051C124.316 184.828 124.635 184.806 124.685 185.025L125.88 190.285C126.05 191.034 126.691 191.582 127.457 191.634L132.86 192.002C133.081 192.017 133.113 192.33 132.898 192.389L127.657 193.817C126.97 194.005 126.466 194.592 126.386 195.3L125.724 201.18C125.699 201.404 125.378 201.417 125.335 201.196L124.303 195.877C124.156 195.119 123.525 194.549 122.756 194.478L116.77 193.792C116.642 193.777 116.629 193.596 116.753 193.564L122.475 192.067C123.208 191.896 123.747 191.274 123.813 190.526Z" fill="#D0DAE3"/>
<path d="M115.572 55.1336L116.201 48.0146C116.226 47.7234 116.641 47.6955 116.706 47.9801L118.26 54.8195C118.482 55.7928 119.315 56.506 120.311 56.5737L127.337 57.052C127.625 57.0716 127.665 57.4789 127.387 57.5548L120.571 59.4128C119.678 59.6564 119.023 60.4202 118.919 61.3405L118.058 68.9867C118.025 69.2783 117.608 69.2947 117.552 69.0068L116.21 62.0911C116.019 61.1043 115.199 60.3631 114.198 60.2709L106.415 59.3792C106.248 59.3599 106.232 59.1249 106.394 59.0826L113.834 57.1356C114.785 56.915 115.486 56.1069 115.572 55.1336Z" fill="#D0DAE3"/>
<path d="M95.6777 37.967C95.6777 40.1015 93.9477 41.8315 91.8132 41.8315C89.6788 41.8315 87.9487 40.1015 87.9487 37.967C87.9487 35.8326 89.6788 34.1025 91.8132 34.1025C93.9477 34.1025 95.6777 35.8326 95.6777 37.967Z" fill="#D0DAE3"/>
<path d="M23.8445 140.176C25.9788 140.176 27.709 138.446 27.709 136.312C27.709 134.178 25.9788 132.448 23.8445 132.448C21.7102 132.448 19.98 134.178 19.98 136.312C19.98 138.446 21.7102 140.176 23.8445 140.176Z" fill="#D0DAE3"/>
<path d="M73.8645 188.44C75.9988 188.44 77.729 186.709 77.729 184.575C77.729 182.441 75.9988 180.711 73.8645 180.711C71.7302 180.711 70 182.441 70 184.575C70 186.709 71.7302 188.44 73.8645 188.44Z" fill="#D0DAE3"/>
</svg>
