<svg width="18" height="18" viewBox="0 0 18 18" fill="none" xmlns="http://www.w3.org/2000/svg">
<g clip-path="url(#clip0_6375_4567)">
<path d="M11.8126 7.46288C11.8125 7.45821 11.8126 7.46759 11.8126 7.46288V7.46288ZM18 7.46288C17.9754 8.68542 17.2909 9.85109 16.0207 10.8071C15.6926 11.054 15.2995 11.1775 14.9063 11.1775C14.5131 11.1775 14.1199 11.0541 13.7918 10.8072C12.5217 9.85109 11.8371 8.68539 11.8126 7.46288C11.8126 6.41063 12.6642 5.55459 13.711 5.55459C14.1636 5.55459 14.5797 5.7143 14.9063 5.98054C15.2328 5.7143 15.649 5.55459 16.1016 5.55459C17.1484 5.55459 18 6.41067 18 7.46288ZM16.5937 7.45683C16.5905 7.18276 16.371 6.96086 16.1016 6.96086C15.8302 6.96086 15.6094 7.18445 15.6094 7.45926C15.6094 7.84759 15.2946 8.16238 14.9063 8.16238C14.5179 8.16238 14.2032 7.84759 14.2032 7.45926C14.2032 7.18445 13.9824 6.96086 13.711 6.96086C13.4416 6.96086 13.222 7.18279 13.2188 7.45683C13.2425 8.4323 14.0028 9.20591 14.6375 9.68361C14.7957 9.80271 15.0168 9.80271 15.1751 9.68361C15.8097 9.20591 16.57 8.43227 16.5937 7.45683ZM18 7.46288C18 7.46759 18.0001 7.45821 18 7.46288V7.46288ZM12.0235 2.5109C12.0235 2.51565 12.0236 2.50612 12.0235 2.5109V2.5109ZM3.37516 2.5109C3.37505 2.50612 3.37516 2.51565 3.37516 2.5109V2.5109ZM12.0235 2.5109C11.9885 4.2341 11.0007 5.88161 9.16712 7.24832C8.73498 7.57039 8.21717 7.73144 7.69933 7.73144C7.18148 7.73144 6.66367 7.57039 6.23154 7.24832C4.39798 5.88161 3.41014 4.2341 3.37516 2.5109C3.37516 1.12639 4.50278 8.22914e-10 5.8888 8.22914e-10C6.59923 8.22914e-10 7.24174 0.295204 7.69933 0.769139C8.15692 0.295239 8.79943 8.22914e-10 9.50985 8.22914e-10C10.8959 -3.5155e-05 12.0235 1.12636 12.0235 2.5109ZM10.6173 2.50433C10.6137 1.8982 10.1183 1.40623 9.50985 1.40623C8.89923 1.40623 8.40244 1.89933 8.40244 2.50542C8.40244 2.89375 8.08766 3.20853 7.69933 3.20853C7.311 3.20853 6.99621 2.89375 6.99621 2.50542C6.99621 1.89933 6.49942 1.40623 5.8888 1.40623C5.28036 1.40623 4.78498 1.89824 4.78139 2.50433C4.81778 4.10919 6.04658 5.35655 7.07194 6.12084C7.44132 6.39618 7.95734 6.39618 8.32668 6.12084C9.35207 5.35655 10.5809 4.10919 10.6173 2.50433ZM17.7817 13.4449C17.3232 12.5643 16.279 12.1804 15.3077 12.549C14.6538 12.7972 13.8395 13.1059 12.8958 13.3606C12.9845 12.9545 12.9447 12.5234 12.7757 12.1137C12.5332 11.5261 12.035 11.0888 11.4086 10.9141C11.0884 10.8248 10.7408 10.8047 10.3756 10.8544C7.96578 11.1822 6.53099 10.3704 5.26517 9.65415C4.41493 9.17307 3.61183 8.71865 2.67204 8.71865C1.44159 8.71865 0.493296 9.1023 0.493296 9.1023C0.122683 9.21828 -0.0837169 9.61277 0.0322974 9.98334C0.148276 10.354 0.54276 10.5603 0.913338 10.4443C0.913338 10.4443 1.68768 10.1249 2.67204 10.1249C3.2416 10.1249 3.82899 10.4572 4.57267 10.878C5.68564 11.5078 7.14668 12.3347 9.31811 12.3346C9.70986 12.3346 10.1251 12.3076 10.5652 12.2478C10.737 12.2244 10.8981 12.2316 11.0308 12.2686C11.1791 12.31 11.3766 12.4097 11.4757 12.65C11.5527 12.8364 11.5565 13.0108 11.4872 13.1684C11.4021 13.3617 11.2083 13.5219 10.9414 13.6195C10.5447 13.7645 10.0189 13.8506 9.41968 13.8511C8.9649 13.8514 8.06523 13.7792 7.49128 13.6284C7.1156 13.5297 6.73124 13.7542 6.63256 14.1297C6.53388 14.5053 6.75835 14.8898 7.13388 14.9884C8.19147 15.2576 9.42966 15.2572 9.43951 15.2571C12.162 15.2465 14.3535 14.4153 15.8066 13.8638C16.0509 13.771 16.3809 13.7997 16.5278 14.0818L16.5343 14.0942C16.6662 14.3476 16.5691 14.6629 16.3178 14.7972C14.655 15.6855 12.5442 16.5936 9.49621 16.5936C6.81737 16.5936 4.34986 15.5598 2.7516 14.6926C2.0487 14.3112 1.45414 14.203 1.05484 14.203C0.703282 14.203 0.522335 14.2625 0.522335 14.2625C0.221858 14.3425 0.000164949 14.6156 0.000164949 14.9413C0.000164949 15.3296 0.31495 15.6444 0.703282 15.6444C0.765965 15.6444 0.925256 15.6139 1.01968 15.6143C1.21599 15.615 1.58868 15.6615 2.08093 15.9287C3.82231 16.8735 6.52235 17.9998 9.49618 17.9998C12.8544 17.9998 15.164 17.0079 16.9804 16.0375C17.9083 15.5417 18.2678 14.3786 17.7817 13.4449Z" fill="#07AED8"/>
</g>
<defs>
<clipPath id="clip0_6375_4567">
<rect width="18" height="18" fill="white"/>
</clipPath>
</defs>
</svg>
