<svg width="309" height="231" viewBox="0 0 309 231" fill="none" xmlns="http://www.w3.org/2000/svg">
<path d="M117.743 211.208C98.8717 215.215 79.7666 204.009 66.9599 189.581C46.8559 166.933 37.3782 135.227 41.7532 105.261C43.0772 96.194 45.9374 86.7549 52.8875 80.7829C59.0718 75.4679 67.5758 73.6869 74.2363 68.9824C83.7207 62.2827 88.2007 50.7251 94.839 41.1983C109.497 20.163 135.147 9.08212 160.552 5.6292C172.701 3.97821 185.884 4.05367 196.194 10.6896C211.471 20.5237 215.381 40.9523 226.463 55.3492C235.223 66.7277 248.226 73.9887 258.424 84.0978C274.87 100.402 283.341 125.606 276.269 147.658C273.779 155.422 269.55 162.509 264.995 169.272C256.94 181.232 247.569 192.593 235.61 200.649C223.65 208.705 208.792 213.204 194.615 210.564" fill="#F4F7F8"/>
<path d="M152.089 230C213.285 230 262.893 225.111 262.893 219.08C262.893 213.049 213.285 208.16 152.089 208.16C90.8942 208.16 41.2857 213.049 41.2857 219.08C41.2857 225.111 90.8942 230 152.089 230Z" fill="#EBF7F4"/>
<path d="M88.6707 148.94C81.9348 150.191 75.0418 150.591 68.2066 150.129C64.4334 149.874 60.2105 149.084 58.0981 145.948C57.2772 144.729 56.8858 143.083 57.576 141.786C58.0018 140.985 58.7736 140.428 59.5675 139.99C61.2584 139.055 63.1732 138.529 65.1046 138.469C59.4559 137.567 53.8347 135.937 49.0186 132.85C44.2024 129.763 40.2366 125.096 38.804 119.559C38.5653 118.637 38.3972 117.669 38.585 116.735C38.947 114.933 40.5955 113.612 42.3581 113.093C44.1208 112.575 46.0013 112.709 47.8339 112.849C43.8539 110.726 40.4163 107.507 38.3052 103.521C36.1941 99.5351 35.4689 94.7747 36.5922 90.4058C37.0585 88.5922 37.8524 86.8284 39.1304 85.4602C41.8164 82.5852 46.3528 81.9343 50.0603 83.2515C53.7679 84.5694 56.6895 87.564 58.6883 90.9537C60.6866 94.3434 61.8688 98.1405 63.0339 101.899C63.7413 98.3657 64.8972 94.3716 68.1704 92.8648C71.7018 91.2396 76.0357 93.5931 77.9518 96.9754C79.8678 100.358 79.993 104.427 80.0703 108.314C80.1875 114.222 80.3046 120.13 80.4224 126.039C81.1955 123.781 82.4366 121.685 84.0435 119.921C84.6226 119.284 85.2736 118.676 86.0797 118.376C88.4786 117.484 90.983 119.705 91.918 122.088C93.2187 125.402 92.8034 129.118 92.2389 132.634C91.2008 139.091 90.5695 142.681 88.6707 148.94Z" fill="#BCDDDB"/>
<path opacity="0.74" d="M44.7724 91.8262C46.6657 96.0951 48.8143 100.249 51.1757 104.277C51.7917 105.329 52.4236 106.371 53.0672 107.405C50.2806 105.189 47.494 102.973 44.7067 100.757C43.7324 99.9824 42.7576 99.2075 41.7833 98.4326C41.4004 98.1277 40.9593 98.7461 41.3409 99.0492C44.7049 101.724 48.0694 104.4 51.4334 107.075C52.3954 107.84 53.3568 108.605 54.3188 109.369C55.7649 111.614 57.2656 113.822 58.8258 115.989C60.9375 118.921 63.148 121.78 65.4328 124.579C65.4549 124.621 65.4831 124.654 65.5175 124.68C66.1568 125.462 66.7991 126.241 67.4501 127.014C68.6023 128.381 69.7766 129.729 70.9613 131.068C68.663 129.808 66.3187 128.631 63.9309 127.549C60.7627 126.112 57.5196 124.84 54.22 123.736C52.3396 123.107 50.4413 122.534 48.5284 122.012C48.3308 121.958 48.1161 122.032 48.0406 122.236C47.9744 122.416 48.0664 122.669 48.2652 122.723C51.6291 123.642 54.9483 124.722 58.2036 125.973C61.4222 127.211 64.5769 128.614 67.6525 130.173C69.298 131.006 70.9171 131.891 72.5153 132.811C73.9448 134.395 75.3928 135.963 76.8603 137.512C80.0801 140.91 83.3839 144.228 86.7405 147.491C87.1608 147.899 87.5817 148.306 88.0032 148.713C88.3516 149.048 88.9406 148.569 88.5897 148.231C87.6387 147.313 86.7019 146.381 85.7589 145.455C85.7583 145.453 85.7589 145.452 85.7583 145.45C84.9453 143.345 84.949 141.048 85.1478 138.831C85.3773 136.276 85.7595 133.73 86.0797 131.184C86.2724 129.658 86.4644 128.132 86.6571 126.606C86.7178 126.121 85.9613 126.057 85.9006 126.541C85.5509 129.313 85.2018 132.085 84.8521 134.858C84.5539 137.22 84.1833 139.6 84.3036 141.988C84.3441 142.79 84.4588 143.584 84.6441 144.361C82.6287 142.365 80.628 140.353 78.6641 138.306C76.8898 136.456 75.1418 134.58 73.4203 132.68C73.4227 132.557 73.3798 132.432 73.2712 132.37C73.1841 132.319 73.0951 132.272 73.008 132.221C71.7257 130.799 70.4557 129.365 69.2091 127.911C68.1648 126.693 67.1396 125.459 66.1236 124.217C65.4475 119.051 65.0573 113.845 64.9359 108.637C64.9021 107.188 64.8898 105.738 64.9015 104.289C64.9052 103.805 64.1487 103.735 64.145 104.225C64.1027 109.505 64.3585 114.791 64.88 120.045C64.9819 121.074 65.1101 122.1 65.2353 123.126C63.6063 121.104 62.0136 119.053 60.4737 116.964C57.7134 113.218 55.106 109.358 52.7046 105.372C50.3137 101.404 48.1241 97.3136 46.1841 93.106C45.9393 92.5747 45.6982 92.0415 45.4607 91.5065C45.2632 91.0611 44.5736 91.3789 44.7724 91.8262Z" fill="#F6FFFC"/>
<path d="M209.36 154.361C215.565 157.264 222.136 159.384 228.868 160.656C232.584 161.357 236.869 161.654 239.703 159.149C240.805 158.176 241.597 156.681 241.255 155.252C241.044 154.37 240.437 153.636 239.779 153.012C238.377 151.683 236.656 150.692 234.802 150.148C240.496 150.696 246.346 150.531 251.784 148.753C257.222 146.977 262.233 143.456 265.012 138.456C265.474 137.623 265.88 136.729 265.933 135.778C266.036 133.943 264.772 132.25 263.197 131.305C261.621 130.359 259.767 130.017 257.959 129.692C262.345 128.637 266.481 126.385 269.526 123.058C272.571 119.73 274.47 115.305 274.481 110.794C274.486 108.921 274.161 107.015 273.267 105.369C271.391 101.911 267.163 100.141 263.244 100.484C259.324 100.828 255.743 102.992 252.957 105.77C250.17 108.548 248.072 111.927 245.999 115.271C246.202 111.674 246.088 107.517 243.298 105.237C240.289 102.776 235.502 103.965 232.798 106.757C230.094 109.549 228.949 113.457 227.898 117.199C226.299 122.888 224.701 128.577 223.102 134.266C222.921 131.887 222.247 129.546 221.135 127.435C220.734 126.673 220.257 125.921 219.552 125.428C217.454 123.961 214.472 125.481 212.968 127.552C210.876 130.434 210.344 134.134 210.007 137.68C209.386 144.192 209.095 147.824 209.36 154.361Z" fill="#BCDDDB"/>
<path opacity="0.74" d="M266.204 110.115C263.299 113.771 260.175 117.251 256.877 120.556C256.016 121.419 255.143 122.269 254.26 123.109C257.514 121.664 260.769 120.22 264.023 118.775C265.161 118.27 266.299 117.765 267.437 117.26C267.884 117.061 268.155 117.77 267.711 117.968C263.782 119.712 259.853 121.455 255.925 123.199C254.801 123.698 253.678 124.196 252.555 124.695C250.591 126.503 248.583 128.264 246.529 129.968C243.748 132.275 240.89 134.488 237.974 136.622C237.942 136.657 237.906 136.682 237.867 136.699C237.052 137.296 236.234 137.888 235.41 138.472C233.951 139.506 232.475 140.515 230.992 141.513C233.533 140.871 236.098 140.322 238.681 139.874C242.109 139.279 245.567 138.863 249.039 138.625C251.017 138.488 252.998 138.411 254.981 138.386C255.186 138.384 255.375 138.509 255.396 138.726C255.415 138.917 255.262 139.139 255.056 139.141C251.569 139.185 248.085 139.396 244.62 139.788C241.193 140.177 237.788 140.743 234.419 141.478C232.617 141.872 230.827 142.32 229.049 142.809C227.268 143.983 225.473 145.137 223.663 146.267C219.692 148.746 215.66 151.128 211.591 153.441C211.082 153.731 210.572 154.019 210.061 154.307C209.64 154.544 209.19 153.932 209.615 153.693C210.767 153.044 211.908 152.377 213.053 151.718C213.054 151.717 213.054 151.715 213.055 151.714C214.371 149.88 214.944 147.656 215.31 145.461C215.73 142.93 216 140.369 216.329 137.825C216.527 136.299 216.724 134.774 216.921 133.248C216.984 132.764 217.732 132.892 217.67 133.377C217.311 136.147 216.953 138.919 216.594 141.689C216.289 144.051 216.049 146.447 215.333 148.728C215.092 149.495 214.781 150.234 214.406 150.94C216.859 149.515 219.301 148.07 221.717 146.582C223.899 145.238 226.062 143.862 228.206 142.455C228.235 142.336 228.308 142.226 228.428 142.193C228.525 142.166 228.623 142.142 228.72 142.116C230.319 141.061 231.908 139.993 233.48 138.899C234.797 137.982 236.099 137.045 237.395 136.099C239.348 131.269 241.034 126.327 242.461 121.317C242.858 119.923 243.233 118.524 243.587 117.118C243.705 116.648 244.454 116.771 244.335 117.246C243.049 122.367 241.473 127.42 239.647 132.373C239.29 133.343 238.908 134.304 238.53 135.266C240.614 133.718 242.671 132.134 244.688 130.498C248.301 127.566 251.795 124.486 255.121 121.232C258.433 117.992 261.58 114.584 264.516 110.999C264.887 110.546 265.254 110.09 265.618 109.633C265.922 109.251 266.509 109.732 266.204 110.115Z" fill="#F6FFFC"/>
<path d="M187.452 89.6814H115.745V179.398H187.452V89.6814Z" fill="#C2E5F2"/>
<path d="M81.8471 115.27L115.746 89.6814V195.352L93.3599 216.488L81.8471 115.27Z" fill="#E2F3F9"/>
<path d="M221.35 115.27L187.452 89.6814V195.352L208.391 216.488L221.35 115.27Z" fill="#E2F3F9"/>
<path d="M208.391 216.488H93.3598L81.847 115.27H221.328L208.391 216.488Z" fill="#D2EBF4"/>
<path d="M76.7572 78.868C76.9272 78.8496 77.0652 78.7423 77.126 78.5821C77.3303 78.0422 77.7094 76.6544 77.2922 74.4954C76.9045 72.4904 73.3485 70.9284 73.662 74.7605C73.662 74.7605 71.7447 73.5285 71.0809 75.2531C70.4944 76.779 72.3816 79.3392 76.7572 78.868Z" fill="#21DDE7"/>
<path d="M71.0711 76.4275C71.7141 77.3533 73.3264 77.7717 74.2123 77.8472C75.2136 77.9325 76.2811 77.6472 77.0511 77.1042C77.2027 76.9975 77.3413 76.8797 77.4708 76.7533C77.4284 77.6484 77.2468 78.2638 77.126 78.5822C77.0652 78.7423 76.9272 78.8497 76.7572 78.8681C73.3933 79.2301 71.5006 77.8012 71.0711 76.4275Z" fill="#21DDE7"/>
<path opacity="0.28" d="M76.591 76.396C76.7695 75.8985 76.2118 75.0328 75.9566 74.6555C75.6682 74.2291 75.2032 73.8708 74.7271 73.699C74.6332 73.6652 74.5394 73.6395 74.4449 73.6192C74.7872 73.356 74.9688 73.2714 75.1443 73.272C75.4112 73.2726 75.6615 73.3438 75.8928 73.5634C77.1818 74.7904 76.8947 75.6604 76.591 76.396Z" fill="#21DDE7"/>
<path d="M75.8567 34.0362C76.0193 34.0889 76.1892 34.0478 76.3101 33.9263C76.7175 33.5177 77.631 32.4054 78.1328 30.2648C78.5991 28.277 75.9929 25.3965 74.7118 29.0218C74.7118 29.0218 73.4658 27.1131 72.1553 28.4163C70.9957 29.5685 71.6706 32.6766 75.8567 34.0362Z" fill="#21DDE7"/>
<path d="M71.6656 29.4836C71.8736 30.5917 73.1743 31.6322 73.9516 32.0635C74.8302 32.5506 75.9216 32.7273 76.8456 32.5464C77.0272 32.5108 77.2027 32.4605 77.372 32.3979C76.9671 33.1973 76.5499 33.6844 76.3094 33.9262C76.1885 34.0477 76.0186 34.0888 75.856 34.036C72.638 32.9912 71.4957 30.9125 71.6656 29.4836Z" fill="#21DDE7"/>
<path opacity="0.28" d="M76.7155 31.7127C77.0818 31.3317 76.9266 30.3133 76.848 29.8648C76.7591 29.358 76.4818 28.8402 76.1173 28.4893C76.0456 28.4206 75.9701 28.358 75.8922 28.3009C76.3124 28.2009 76.5124 28.1979 76.6726 28.2696C76.9155 28.3795 77.1149 28.5463 77.2364 28.8421C77.9113 30.4888 77.2935 31.1655 76.7155 31.7127Z" fill="#21DDE7"/>
<path d="M51.8537 42.3703C51.9432 42.331 52.0003 42.2482 52.0058 42.15C52.0242 41.82 51.9911 40.9954 51.3892 39.8874C50.8303 38.8585 48.6161 38.6204 49.4505 40.661C49.4505 40.661 48.1891 40.3193 48.1253 41.377C48.0682 42.3132 49.5431 43.3857 51.8537 42.3703Z" fill="#21DDE7"/>
<path d="M48.3228 42.0212C48.8345 42.4157 49.7885 42.3654 50.2855 42.2531C50.8475 42.1261 51.3819 41.7856 51.7083 41.3555C51.7727 41.2708 51.8279 41.1825 51.877 41.0911C52.0089 41.588 52.0163 41.9555 52.0052 42.1506C51.9997 42.2488 51.9432 42.331 51.8531 42.3709C50.0775 43.1513 48.7952 42.6979 48.3228 42.0212Z" fill="#21DDE7"/>
<path opacity="0.28" d="M51.3346 41.0481C51.3463 40.745 50.8911 40.3683 50.6861 40.2063C50.4548 40.0229 50.1383 39.9075 49.8487 39.8965C49.7916 39.8941 49.7358 39.8965 49.6806 39.902C49.8223 39.6989 49.9063 39.621 50.0027 39.591C50.1487 39.545 50.2978 39.5407 50.4622 39.621C51.3794 40.0683 51.3733 40.5935 51.3346 41.0481Z" fill="#21DDE7"/>
<path d="M64.5898 57.9463C64.6843 57.931 64.7585 57.8665 64.788 57.7751C64.8862 57.4665 65.0567 56.6763 64.7579 55.4787C64.48 54.3664 62.4388 53.5976 62.7302 55.737C62.7302 55.737 61.6179 55.1044 61.2983 56.0916C61.0148 56.964 62.1504 58.3426 64.5898 57.9463Z" fill="#21DDE7"/>
<path d="M61.3277 56.7499C61.7161 57.2493 62.6333 57.4352 63.1321 57.4512C63.6959 57.469 64.2861 57.277 64.7015 56.9487C64.7831 56.8843 64.8573 56.8137 64.926 56.7395C64.9291 57.2426 64.8463 57.5929 64.788 57.7757C64.7585 57.8672 64.6849 57.9316 64.5898 57.9469C62.7143 58.2512 61.6099 57.507 61.3277 56.7499Z" fill="#21DDE7"/>
<path opacity="0.28" d="M64.4223 56.5653C64.5076 56.2806 64.1683 55.8125 64.0137 55.6088C63.8389 55.3781 63.5677 55.1916 63.2953 55.1094C63.2419 55.0934 63.1879 55.0817 63.1345 55.0732C63.3186 54.9149 63.418 54.8621 63.5162 54.8572C63.6659 54.8498 63.8082 54.8817 63.9444 54.9983C64.7046 55.6474 64.5702 56.1438 64.4223 56.5653Z" fill="#21DDE7"/>
<path d="M39.1513 71.3315C39.1862 71.2886 39.193 71.2328 39.1709 71.1825C39.0954 71.0125 38.8666 70.6094 38.2819 70.2112C37.7383 69.8413 36.5714 70.291 37.5125 71.0953C37.5125 71.0953 36.7947 71.2487 37.0346 71.7935C37.2463 72.2751 38.2586 72.4322 39.1513 71.3315Z" fill="#21DDE7"/>
<path d="M37.2984 72.0641C37.6555 72.1298 38.1187 71.8592 38.3383 71.6758C38.5862 71.4684 38.766 71.1604 38.8181 70.8622C38.8285 70.8033 38.8335 70.7451 38.8341 70.6868C39.0273 70.9009 39.1255 71.0825 39.1703 71.1831C39.193 71.2334 39.1856 71.2892 39.1506 71.3322C38.4647 72.1776 37.7082 72.2807 37.2984 72.0641Z" fill="#21DDE7"/>
<path opacity="0.28" d="M38.5525 70.8045C38.4801 70.6505 38.1567 70.5793 38.0126 70.5511C37.85 70.5192 37.6622 70.5425 37.5144 70.6112C37.4855 70.6247 37.4579 70.64 37.4315 70.6572C37.45 70.5192 37.472 70.459 37.5125 70.4192C37.5739 70.359 37.6469 70.3179 37.7494 70.3161C38.323 70.3038 38.4549 70.5676 38.5525 70.8045Z" fill="#21DDE7"/>
<path d="M221.839 78.9022C221.669 78.8838 221.531 78.7764 221.471 78.6163C221.266 78.0764 220.887 76.6886 221.304 74.5296C221.692 72.5246 225.248 70.9626 224.934 74.7947C224.934 74.7947 226.852 73.5627 227.516 75.2873C228.102 76.8132 226.215 79.3734 221.839 78.9022Z" fill="#21DDE7"/>
<path d="M227.525 76.4617C226.882 77.3875 225.269 77.8059 224.384 77.8814C223.382 77.9667 222.315 77.6814 221.545 77.1384C221.393 77.0316 221.254 76.9138 221.125 76.7875C221.167 77.6826 221.349 78.298 221.47 78.6164C221.531 78.7765 221.669 78.8839 221.839 78.9023C225.203 79.2643 227.096 77.8354 227.525 76.4617Z" fill="#21DDE7"/>
<path opacity="0.28" d="M222.005 76.4305C221.826 75.9329 222.384 75.0672 222.639 74.6899C222.928 74.2635 223.393 73.9052 223.869 73.7334C223.963 73.6997 224.057 73.6739 224.151 73.6537C223.808 73.3904 223.627 73.3058 223.452 73.3064C223.185 73.307 222.934 73.3782 222.703 73.5978C221.415 74.8249 221.701 75.6948 222.005 76.4305Z" fill="#21DDE7"/>
<path d="M222.74 34.0703C222.577 34.1231 222.407 34.082 222.287 33.9605C221.879 33.5519 220.966 32.4396 220.464 30.299C219.997 28.3112 222.604 25.4307 223.885 29.056C223.885 29.056 225.131 27.1473 226.441 28.4505C227.601 29.6027 226.926 32.7108 222.74 34.0703Z" fill="#21DDE7"/>
<path d="M226.93 29.5178C226.722 30.6258 225.422 31.6664 224.644 32.0977C223.766 32.5848 222.674 32.7615 221.75 32.5805C221.569 32.545 221.393 32.4946 221.224 32.4321C221.629 33.2315 222.046 33.7186 222.287 33.9604C222.407 34.0818 222.577 34.1229 222.74 34.0702C225.958 33.0253 227.101 30.9467 226.93 29.5178Z" fill="#21DDE7"/>
<path opacity="0.28" d="M221.881 31.7469C221.515 31.3659 221.669 30.3475 221.748 29.899C221.837 29.3922 222.115 28.8744 222.479 28.5235C222.551 28.4547 222.626 28.3922 222.704 28.3351C222.284 28.2351 222.084 28.232 221.925 28.3038C221.681 28.4136 221.482 28.5805 221.361 28.8762C220.685 30.5229 221.302 31.1997 221.881 31.7469Z" fill="#21DDE7"/>
<path d="M246.743 42.4045C246.653 42.3652 246.596 42.2824 246.591 42.1842C246.572 41.8542 246.605 41.0296 247.207 39.9216C247.766 38.8927 249.98 38.6546 249.146 40.6952C249.146 40.6952 250.407 40.3535 250.471 41.4112C250.528 42.3474 249.053 43.4199 246.743 42.4045Z" fill="#21DDE7"/>
<path d="M250.273 42.0553C249.761 42.4498 248.807 42.3995 248.31 42.2873C247.748 42.1603 247.214 41.8198 246.888 41.3897C246.823 41.305 246.768 41.2167 246.719 41.1252C246.587 41.6216 246.58 41.9897 246.591 42.1848C246.596 42.283 246.653 42.3652 246.743 42.4051C248.519 43.1855 249.801 42.7321 250.273 42.0553Z" fill="#21DDE7"/>
<path opacity="0.28" d="M247.261 41.0825C247.25 40.7794 247.705 40.4027 247.91 40.2408C248.141 40.0573 248.458 39.942 248.747 39.9309C248.804 39.9285 248.86 39.9309 248.915 39.9364C248.774 39.7334 248.69 39.6555 248.593 39.6254C248.447 39.5794 248.298 39.5751 248.134 39.6555C247.216 40.1027 247.223 40.6279 247.261 41.0825Z" fill="#21DDE7"/>
<path d="M234.007 57.9805C233.912 57.9651 233.838 57.9007 233.809 57.8093C233.711 57.5007 233.54 56.7105 233.839 55.5129C234.117 54.4006 236.158 53.6318 235.867 55.7712C235.867 55.7712 236.979 55.1386 237.299 56.1258C237.581 56.9982 236.446 58.3768 234.007 57.9805Z" fill="#21DDE7"/>
<path d="M237.268 56.7841C236.88 57.2835 235.963 57.4694 235.464 57.4854C234.9 57.5032 234.31 57.3105 233.894 56.9829C233.813 56.9185 233.739 56.8479 233.67 56.7737C233.667 57.2768 233.75 57.6271 233.808 57.8099C233.837 57.902 233.911 57.9658 234.006 57.9811C235.882 58.2854 236.987 57.5412 237.268 56.7841Z" fill="#21DDE7"/>
<path opacity="0.28" d="M234.174 56.5997C234.089 56.315 234.428 55.8469 234.583 55.6432C234.758 55.4125 235.029 55.226 235.301 55.1438C235.355 55.1278 235.409 55.1162 235.462 55.1076C235.278 54.9493 235.178 54.8965 235.08 54.8916C234.931 54.8843 234.788 54.9162 234.652 55.0327C233.892 55.6818 234.026 56.1782 234.174 56.5997Z" fill="#21DDE7"/>
<path d="M259.446 71.366C259.411 71.323 259.404 71.2672 259.426 71.2169C259.501 71.0475 259.73 70.6438 260.315 70.2457C260.858 69.8757 262.025 70.3254 261.084 71.1298C261.084 71.1298 261.802 71.2831 261.562 71.8279C261.351 72.3096 260.338 72.4666 259.446 71.366Z" fill="#21DDE7"/>
<path d="M261.298 72.0983C260.941 72.164 260.478 71.8934 260.258 71.7099C260.01 71.5026 259.831 71.1952 259.778 70.8964C259.768 70.8375 259.763 70.7792 259.762 70.7209C259.569 70.9351 259.47 71.1167 259.426 71.2173C259.403 71.2676 259.41 71.3234 259.445 71.3664C260.132 72.2118 260.888 72.3149 261.298 72.0983Z" fill="#21DDE7"/>
<path opacity="0.28" d="M260.044 70.8386C260.116 70.6846 260.44 70.6135 260.584 70.5853C260.747 70.5533 260.934 70.5767 261.082 70.6454C261.111 70.6589 261.139 70.6742 261.165 70.6914C261.147 70.5533 261.124 70.4932 261.084 70.4533C261.023 70.3932 260.95 70.3521 260.847 70.3503C260.273 70.338 260.142 70.6018 260.044 70.8386Z" fill="#21DDE7"/>
<path d="M177.167 31.6976C176.372 31.7903 175.632 31.4442 175.188 30.7755C173.695 28.5245 170.526 22.5819 170.191 12.2961C169.88 2.74479 184.492 -8.07411 187.035 9.74081C187.035 9.74081 194.509 2.12942 199.325 9.31379C203.585 15.6687 197.628 29.3116 177.167 31.6976Z" fill="#21DDE7"/>
<path d="M200.587 14.6631C198.612 19.5553 191.687 23.1365 187.722 24.3997C183.242 25.8274 178.072 25.6341 173.996 23.9518C173.195 23.6212 172.438 23.2279 171.717 22.7855C172.839 26.8268 174.306 29.446 175.188 30.7761C175.632 31.4442 176.372 31.7909 177.167 31.6982C192.896 29.8638 200.052 21.3769 200.587 14.6631Z" fill="#2DC4C9"/>
<path opacity="0.28" d="M175.362 20.2464C174.031 18.1611 175.68 13.6308 176.453 11.6442C177.327 9.39869 179.077 7.28081 181.072 6.00406C181.464 5.75313 181.868 5.53656 182.279 5.3482C180.442 4.50154 179.527 4.30398 178.727 4.48804C177.51 4.76842 176.441 5.35127 175.614 6.59489C171.001 13.5296 173.213 17.2021 175.362 20.2464Z" fill="#FAF0E7"/>
<path d="M121.986 25.0325C121.692 25.6116 121.126 25.9577 120.475 25.9577C118.282 25.9577 112.84 25.4337 105.733 21.0446C99.1325 16.9683 98.3723 2.22962 111.563 8.50475C111.563 8.50475 109.769 0.0338104 116.79 6.6588e-05C123 -0.0299961 129.555 10.122 121.986 25.0325Z" fill="#21DDE7"/>
<path d="M120.974 1.54663C123.397 5.07808 122.711 11.3692 121.787 14.6178C120.742 18.2891 118.291 21.6991 115.324 23.701C114.741 24.0943 114.135 24.4305 113.512 24.7195C116.749 25.7741 119.179 25.9575 120.475 25.9575C121.126 25.9575 121.692 25.6121 121.986 25.0324C127.804 13.5699 125.275 4.9204 120.974 1.54663Z" fill="#2DC4C9"/>
<path opacity="0.28" d="M113.43 21.1144C111.422 21.0789 109.098 17.9309 108.101 16.5161C106.975 14.9172 106.327 12.7828 106.359 10.86C106.365 10.4821 106.399 10.1121 106.456 9.74951C105.059 10.6121 104.515 11.1422 104.281 11.7656C103.924 12.7147 103.839 13.6988 104.309 14.8172C106.93 21.0494 110.407 21.2016 113.43 21.1144Z" fill="#FAF0E7"/>
<path d="M142.606 73.9722C142.123 74.3011 141.527 74.3275 141.015 74.0459C139.288 73.0961 135.23 70.3267 131.535 63.7914C128.103 57.7231 133.889 45.7882 141.558 56.4432C141.558 56.4432 143.814 48.9957 149.357 52.0105C154.26 54.6769 155.023 65.5099 142.606 73.9722Z" fill="#21DDE7"/>
<path d="M151.981 55.0405C152.359 58.8708 149.095 63.5274 146.96 65.6846C144.547 68.1227 141.14 69.7461 137.936 70.0375C137.306 70.0946 136.684 70.0964 136.069 70.0547C138.161 72.2873 139.994 73.4843 141.015 74.0457C141.528 74.3279 142.123 74.3009 142.606 73.9721C152.152 67.4669 153.907 59.561 151.981 55.0405Z" fill="#2DC4C9"/>
<path opacity="0.28" d="M137.566 67.1812C136 66.2836 135.534 62.7975 135.361 61.2521C135.167 59.5047 135.581 57.5439 136.439 56.0439C136.608 55.7487 136.795 55.4727 136.997 55.2119C135.524 55.2862 134.866 55.4678 134.411 55.8573C133.719 56.4506 133.225 57.1887 133.111 58.2722C132.475 64.3142 135.147 65.94 137.566 67.1812Z" fill="#FAF0E7"/>
<path d="M209.868 65.9318L209.75 63.7415C209.544 57.3829 203.659 50.19 194.696 46.1573C185.194 41.8823 175.332 42.5547 170.721 47.331L169.96 47.6408L168.901 49.9943C165.709 57.0872 172.084 66.8699 183.139 71.8437C194.194 76.8176 205.743 75.0997 208.934 68.0067L209.868 65.9318Z" fill="#F4862C"/>
<path d="M209.861 65.939C212.728 59.5664 206.091 50.3682 195.036 45.3943C183.981 40.4204 172.695 41.5542 169.828 47.9268C166.961 54.2993 173.598 63.4975 184.653 68.4714C195.707 73.4454 206.993 72.3116 209.861 65.939Z" fill="#FFB649"/>
<path opacity="0.6" d="M205.747 64.0778C203.47 69.1388 194.507 70.0394 185.728 66.0896C176.949 62.1397 171.679 54.8351 173.955 49.7741C176.232 44.7131 185.195 43.8125 193.974 47.7623C202.753 51.7122 208.024 59.0168 205.747 64.0778Z" fill="#F4862C"/>
<path d="M170.136 56.9185C169.924 57.4326 169.713 57.9474 169.501 58.4615C169.471 58.5345 169.441 58.6069 169.412 58.6799C169.312 58.9229 169.689 59.0781 169.789 58.8351C170.001 58.321 170.212 57.8063 170.423 57.2921C170.453 57.2191 170.483 57.1467 170.513 57.0737C170.612 56.8307 170.236 56.6755 170.136 56.9185Z" fill="#EF5411"/>
<path d="M169.372 55.0896C169.161 55.6038 168.95 56.1185 168.738 56.6326C168.708 56.7057 168.678 56.778 168.648 56.8511C168.548 57.094 168.926 57.2492 169.026 57.0063C169.237 56.4921 169.449 55.9774 169.66 55.4633C169.69 55.3903 169.72 55.3179 169.75 55.2448C169.849 55.0019 169.472 54.8467 169.372 55.0896Z" fill="#EF5411"/>
<path d="M171.427 59.023C171.215 59.5371 171.004 60.0519 170.792 60.566C170.762 60.639 170.733 60.7114 170.703 60.7844C170.603 61.0274 170.98 61.1826 171.08 60.9397C171.292 60.4255 171.503 59.9108 171.714 59.3966C171.744 59.3236 171.774 59.2512 171.804 59.1782C171.903 58.9353 171.527 58.7794 171.427 59.023Z" fill="#EF5411"/>
<path d="M174.217 62.6758C174.005 63.1899 173.794 63.7047 173.582 64.2188C173.552 64.2918 173.522 64.3642 173.493 64.4372C173.393 64.6802 173.77 64.8354 173.87 64.5925C174.082 64.0783 174.293 63.5636 174.505 63.0494C174.535 62.9771 174.564 62.904 174.594 62.831C174.694 62.5881 174.317 62.4329 174.217 62.6758Z" fill="#EF5411"/>
<path d="M177.505 65.5454C177.293 66.0596 177.081 66.5743 176.87 67.0884C176.84 67.1608 176.81 67.2339 176.781 67.3069C176.681 67.5498 177.058 67.705 177.158 67.4621C177.37 66.948 177.581 66.4332 177.792 65.9191C177.823 65.8461 177.853 65.7737 177.882 65.7007C177.982 65.4577 177.605 65.3025 177.505 65.5454Z" fill="#EF5411"/>
<path d="M180.95 67.7484C180.738 68.2625 180.527 68.7773 180.315 69.2914C180.285 69.3644 180.256 69.4368 180.226 69.5098C180.126 69.7528 180.503 69.908 180.603 69.6651C180.815 69.1509 181.026 68.6362 181.237 68.1221C181.267 68.049 181.298 67.9766 181.327 67.9036C181.427 67.6613 181.05 67.5055 180.95 67.7484Z" fill="#EF5411"/>
<path d="M184.827 69.586C184.615 70.1001 184.404 70.6149 184.193 71.129C184.163 71.202 184.133 71.2744 184.103 71.3474C184.003 71.5904 184.38 71.7456 184.48 71.5026C184.692 70.9885 184.904 70.4738 185.115 69.9596C185.145 69.8866 185.175 69.8142 185.204 69.7412C185.304 69.4983 184.927 69.3424 184.827 69.586Z" fill="#EF5411"/>
<path d="M188.776 70.9662C188.564 71.4803 188.352 71.9951 188.141 72.5092C188.111 72.5822 188.081 72.6546 188.052 72.7276C187.952 72.9706 188.329 73.1258 188.429 72.8828C188.641 72.3687 188.852 71.854 189.064 71.3398C189.094 71.2674 189.124 71.1944 189.153 71.1214C189.252 70.8791 188.876 70.7232 188.776 70.9662Z" fill="#EF5411"/>
<path d="M179.183 66.7774C178.972 67.2915 178.76 67.8063 178.549 68.3204C178.519 68.3934 178.489 68.4658 178.459 68.5388C178.359 68.7817 178.737 68.937 178.837 68.694C179.048 68.1799 179.259 67.6651 179.471 67.151C179.501 67.078 179.531 67.0056 179.561 66.9326C179.661 66.6896 179.283 66.5344 179.183 66.7774Z" fill="#EF5411"/>
<path d="M182.833 68.7662C182.622 69.2803 182.41 69.795 182.199 70.3092C182.169 70.3822 182.139 70.4546 182.109 70.5276C182.009 70.7706 182.387 70.9258 182.487 70.6828C182.698 70.1687 182.909 69.6539 183.121 69.1398C183.151 69.0668 183.181 68.9944 183.21 68.9214C183.31 68.6784 182.933 68.5226 182.833 68.7662Z" fill="#EF5411"/>
<path d="M186.846 70.416C186.634 70.9302 186.423 71.4449 186.211 71.9591C186.181 72.0321 186.151 72.1045 186.122 72.1775C186.022 72.4204 186.399 72.5756 186.499 72.3327C186.711 71.8186 186.922 71.3038 187.133 70.7897C187.163 70.7167 187.193 70.6443 187.223 70.5713C187.323 70.3283 186.946 70.1731 186.846 70.416Z" fill="#EF5411"/>
<path d="M190.731 71.5254C190.519 72.0396 190.308 72.5543 190.097 73.0684C190.067 73.1408 190.037 73.2138 190.007 73.2868C189.907 73.5292 190.284 73.685 190.384 73.4421C190.596 72.9279 190.807 72.4132 191.019 71.8991C191.049 71.826 191.079 71.7536 191.108 71.6806C191.208 71.4377 190.831 71.2825 190.731 71.5254Z" fill="#EF5411"/>
<path d="M194.571 72.3199C194.359 72.8347 194.148 73.3488 193.937 73.863C193.907 73.9354 193.877 74.0084 193.847 74.0814C193.747 74.3243 194.124 74.4795 194.224 74.2366C194.436 73.7225 194.647 73.2077 194.859 72.6936C194.889 72.6212 194.918 72.5482 194.948 72.4752C195.048 72.2328 194.671 72.077 194.571 72.3199Z" fill="#EF5411"/>
<path d="M198.5 72.1193C198.288 72.6334 198.077 73.1481 197.865 73.6623C197.835 73.7353 197.805 73.8077 197.776 73.8807C197.676 74.1236 198.053 74.2789 198.153 74.0359C198.365 73.5218 198.576 73.007 198.787 72.4929C198.817 72.4205 198.847 72.3475 198.877 72.2745C198.976 72.0321 198.6 71.8763 198.5 72.1193Z" fill="#EF5411"/>
<path d="M202.248 71.6013C202.036 72.1155 201.825 72.6302 201.613 73.1444C201.583 73.2168 201.553 73.2898 201.524 73.3628C201.424 73.6057 201.801 73.761 201.901 73.518C202.113 73.0039 202.324 72.4891 202.535 71.975C202.565 71.902 202.595 71.8296 202.625 71.7566C202.725 71.5136 202.348 71.3584 202.248 71.6013Z" fill="#EF5411"/>
<path d="M192.723 71.9954C192.512 72.5095 192.3 73.0243 192.089 73.5384C192.059 73.6114 192.029 73.6838 191.999 73.7568C191.899 73.9998 192.277 74.155 192.377 73.9121C192.588 73.3979 192.8 72.8832 193.011 72.3691C193.041 72.296 193.07 72.2236 193.101 72.1506C193.201 71.9077 192.823 71.7518 192.723 71.9954Z" fill="#EF5411"/>
<path d="M196.442 72.3033C196.231 72.8174 196.02 73.3322 195.808 73.8463C195.778 73.9193 195.748 73.9917 195.718 74.0647C195.618 74.3077 195.996 74.4629 196.096 74.2199C196.307 73.7058 196.518 73.1911 196.73 72.6769C196.76 72.6039 196.79 72.5315 196.82 72.4585C196.92 72.2155 196.542 72.0597 196.442 72.3033Z" fill="#EF5411"/>
<path d="M200.457 71.8948C200.245 72.4089 200.034 72.9237 199.822 73.4378C199.792 73.5108 199.763 73.5832 199.733 73.6562C199.633 73.8992 200.01 74.0544 200.11 73.8115C200.322 73.2973 200.533 72.7826 200.744 72.2684C200.774 72.196 200.804 72.123 200.834 72.05C200.933 71.8071 200.557 71.6518 200.457 71.8948Z" fill="#EF5411"/>
<path d="M204.236 70.9236C204.024 71.4377 203.813 71.9525 203.602 72.4666C203.572 72.539 203.541 72.612 203.512 72.685C203.412 72.928 203.789 73.0832 203.889 72.8403C204.101 72.3261 204.313 71.8114 204.524 71.2972C204.554 71.2242 204.583 71.1518 204.613 71.0788C204.713 70.8359 204.336 70.6807 204.236 70.9236Z" fill="#EF5411"/>
<path d="M172.768 61.0508C172.556 61.5649 172.345 62.0797 172.133 62.5938C172.103 62.6668 172.074 62.7392 172.044 62.8122C171.944 63.0552 172.321 63.2104 172.421 62.9675C172.633 62.4533 172.844 61.9386 173.055 61.4244C173.085 61.3514 173.116 61.279 173.145 61.206C173.245 60.9631 172.868 60.8079 172.768 61.0508Z" fill="#EF5411"/>
<path d="M175.803 64.2024C175.592 64.7166 175.38 65.2313 175.169 65.7454C175.139 65.8178 175.11 65.8908 175.079 65.9638C174.979 66.2068 175.357 66.362 175.457 66.1191C175.668 65.6049 175.879 65.0902 176.091 64.5761C176.121 64.503 176.151 64.4307 176.181 64.3576C176.281 64.1147 175.903 63.9595 175.803 64.2024Z" fill="#EF5411"/>
<path d="M115.149 38.4025L113.54 37.6779C108.918 35.4778 101.603 37.03 95.4108 41.9486C88.8461 47.1636 85.6865 54.4621 87.3988 59.5224L87.3393 60.1813L88.6308 61.8072C92.5236 66.7074 101.871 65.762 109.508 59.6948C117.146 53.6277 120.181 44.7371 116.288 39.8363L115.149 38.4025Z" fill="#F4862C"/>
<path d="M107.651 57.3595C115.288 51.2926 118.644 42.8054 115.147 38.4028C111.65 34.0002 102.623 35.3494 94.9862 41.4163C87.3489 47.4832 83.9928 55.9704 87.4901 60.373C90.9875 64.7755 100.014 63.4264 107.651 57.3595Z" fill="#FFB649"/>
<path opacity="0.6" d="M112.302 40.6639C115.08 44.1604 112.415 50.9 106.35 55.718C100.285 60.536 93.1169 61.6072 90.3395 58.1107C87.562 54.6142 90.2272 47.8747 96.2919 43.0567C102.357 38.2393 109.525 37.1674 112.302 40.6639Z" fill="#F4862C"/>
<path d="M94.0366 63.4796C94.3261 63.8207 94.6157 64.1618 94.9053 64.503C94.9464 64.5514 94.9869 64.5993 95.028 64.6477C95.1648 64.8085 95.4151 64.5968 95.2783 64.4355C94.9887 64.0943 94.6992 63.7532 94.4096 63.4121C94.3685 63.3636 94.328 63.3158 94.2869 63.2673C94.1501 63.106 93.8997 63.3182 94.0366 63.4796Z" fill="#EF5411"/>
<path d="M92.4475 63.3502C92.7371 63.6913 93.0267 64.0324 93.3163 64.3736C93.3574 64.422 93.3985 64.4699 93.439 64.5183C93.5758 64.6791 93.8261 64.4674 93.6893 64.3061C93.3997 63.965 93.1101 63.6238 92.8205 63.2827C92.7794 63.2342 92.7389 63.1864 92.6978 63.1379C92.561 62.9766 92.3101 63.1888 92.4475 63.3502Z" fill="#EF5411"/>
<path d="M96.0176 63.3334C96.3072 63.6745 96.5968 64.0156 96.8864 64.3567C96.9275 64.4052 96.968 64.453 97.0091 64.5015C97.1459 64.6622 97.3962 64.4506 97.2594 64.2892C96.9698 63.9481 96.6802 63.607 96.3906 63.2659C96.3495 63.2174 96.309 63.1695 96.2679 63.1211C96.1311 62.9597 95.8802 63.172 96.0176 63.3334Z" fill="#EF5411"/>
<path d="M99.6595 62.6876C99.9491 63.0287 100.239 63.3698 100.528 63.711C100.569 63.7594 100.61 63.8073 100.651 63.8558C100.788 64.0165 101.038 63.8048 100.901 63.6435C100.612 63.3024 100.322 62.9612 100.033 62.6201C99.9914 62.5716 99.9503 62.5238 99.9098 62.4753C99.773 62.314 99.5227 62.5262 99.6595 62.6876Z" fill="#EF5411"/>
<path d="M102.925 61.3961C103.214 61.7372 103.504 62.0783 103.793 62.4194C103.835 62.4673 103.875 62.5158 103.916 62.5642C104.053 62.7256 104.303 62.5133 104.166 62.3519C103.877 62.0108 103.587 61.6697 103.298 61.3286C103.257 61.2801 103.216 61.2323 103.175 61.1838C103.038 61.0231 102.788 61.2347 102.925 61.3961Z" fill="#EF5411"/>
<path d="M105.771 59.7469C106.061 60.0881 106.351 60.4292 106.64 60.7703C106.681 60.8188 106.722 60.8666 106.763 60.9151C106.9 61.0758 107.15 60.8642 107.013 60.7028C106.724 60.3617 106.434 60.0206 106.144 59.6794C106.103 59.631 106.063 59.5831 106.022 59.5346C105.885 59.3733 105.635 59.5856 105.771 59.7469Z" fill="#EF5411"/>
<path d="M108.516 57.6529C108.806 57.994 109.096 58.3352 109.385 58.6763C109.426 58.7241 109.467 58.7726 109.508 58.8211C109.645 58.9818 109.895 58.7701 109.758 58.6088C109.469 58.2677 109.179 57.9265 108.889 57.5854C108.848 57.5376 108.808 57.4891 108.767 57.4406C108.63 57.2799 108.38 57.4916 108.516 57.6529Z" fill="#EF5411"/>
<path d="M110.961 55.3397C111.251 55.6808 111.54 56.0219 111.83 56.3631C111.871 56.4115 111.912 56.4594 111.953 56.5078C112.09 56.6686 112.34 56.4569 112.203 56.2956C111.913 55.9544 111.624 55.6133 111.334 55.2722C111.293 55.2237 111.253 55.1759 111.212 55.1274C111.075 54.9667 110.824 55.1783 110.961 55.3397Z" fill="#EF5411"/>
<path d="M104.425 60.6506C104.714 60.9918 105.004 61.3329 105.294 61.674C105.335 61.7225 105.375 61.7703 105.416 61.8188C105.553 61.9795 105.803 61.7679 105.667 61.6065C105.377 61.2654 105.087 60.9243 104.798 60.5831C104.757 60.5347 104.716 60.4868 104.675 60.4384C104.538 60.2776 104.288 60.4899 104.425 60.6506Z" fill="#EF5411"/>
<path d="M107.194 58.7757C107.484 59.1168 107.773 59.458 108.063 59.7991C108.104 59.8475 108.145 59.8954 108.186 59.9439C108.322 60.1046 108.573 59.8929 108.436 59.7316C108.146 59.3905 107.857 59.0493 107.567 58.7082C107.526 58.6598 107.485 58.6119 107.445 58.5634C107.308 58.4027 107.057 58.6144 107.194 58.7757Z" fill="#EF5411"/>
<path d="M109.855 56.5161C110.145 56.8572 110.434 57.1983 110.724 57.5395C110.765 57.5879 110.806 57.6358 110.847 57.6843C110.983 57.845 111.234 57.6333 111.097 57.472C110.807 57.1309 110.518 56.7897 110.228 56.4486C110.187 56.4002 110.146 56.3523 110.105 56.3038C109.969 56.1431 109.718 56.3554 109.855 56.5161Z" fill="#EF5411"/>
<path d="M112.083 54.1483C112.372 54.4894 112.662 54.8305 112.952 55.1717C112.993 55.2201 113.033 55.268 113.074 55.3164C113.211 55.4772 113.461 55.2655 113.325 55.1042C113.035 54.7631 112.745 54.4219 112.456 54.0808C112.415 54.033 112.374 53.9845 112.333 53.936C112.196 53.7747 111.946 53.9869 112.083 54.1483Z" fill="#EF5411"/>
<path d="M114.069 51.6966C114.358 52.0378 114.648 52.3789 114.937 52.72C114.979 52.7685 115.019 52.8163 115.06 52.8648C115.197 53.0255 115.447 52.8139 115.311 52.6525C115.021 52.3114 114.731 51.9703 114.442 51.6292C114.401 51.5807 114.36 51.5328 114.319 51.4844C114.182 51.323 113.932 51.5353 114.069 51.6966Z" fill="#EF5411"/>
<path d="M115.376 48.8138C115.665 49.1549 115.955 49.4961 116.244 49.8372C116.285 49.8856 116.326 49.9335 116.367 49.982C116.504 50.1427 116.754 49.9304 116.617 49.7697C116.328 49.4286 116.038 49.0875 115.749 48.7463C115.707 48.6979 115.667 48.65 115.626 48.6015C115.489 48.4402 115.239 48.6525 115.376 48.8138Z" fill="#EF5411"/>
<path d="M116.389 45.9432C116.679 46.2843 116.968 46.6255 117.258 46.9666C117.299 47.015 117.339 47.0629 117.381 47.1114C117.517 47.2721 117.768 47.0604 117.631 46.8991C117.341 46.558 117.052 46.2168 116.762 45.8757C116.721 45.8273 116.68 45.7794 116.639 45.7309C116.503 45.5696 116.252 45.7819 116.389 45.9432Z" fill="#EF5411"/>
<path d="M113.154 52.8976C113.444 53.2387 113.733 53.5798 114.023 53.9209C114.064 53.9694 114.104 54.0172 114.145 54.0657C114.282 54.2265 114.533 54.0148 114.396 53.8534C114.106 53.5123 113.817 53.1712 113.527 52.8301C113.486 52.7816 113.445 52.7338 113.404 52.6853C113.267 52.5239 113.017 52.7362 113.154 52.8976Z" fill="#EF5411"/>
<path d="M114.747 50.3518C115.037 50.6929 115.326 51.034 115.616 51.3752C115.657 51.4236 115.698 51.4715 115.739 51.52C115.876 51.6807 116.126 51.469 115.989 51.3077C115.699 50.9666 115.41 50.6254 115.12 50.2843C115.079 50.2359 115.039 50.188 114.998 50.1395C114.861 49.9788 114.61 50.1911 114.747 50.3518Z" fill="#EF5411"/>
<path d="M115.938 47.3316C116.227 47.6727 116.517 48.0139 116.806 48.355C116.847 48.4035 116.888 48.4513 116.929 48.4998C117.066 48.6605 117.316 48.4482 117.179 48.2875C116.89 47.9464 116.6 47.6053 116.311 47.2641C116.269 47.2157 116.229 47.1678 116.188 47.1194C116.051 46.9586 115.801 47.1703 115.938 47.3316Z" fill="#EF5411"/>
<path d="M116.638 44.2713C116.928 44.6125 117.217 44.9536 117.507 45.2947C117.548 45.3432 117.589 45.391 117.63 45.4395C117.766 45.6002 118.017 45.3886 117.88 45.2272C117.59 44.8861 117.301 44.545 117.011 44.2038C116.97 44.1554 116.93 44.1075 116.889 44.059C116.752 43.8983 116.501 44.11 116.638 44.2713Z" fill="#EF5411"/>
<path d="M97.9625 63.1231C98.2521 63.4643 98.5417 63.8054 98.8312 64.1465C98.8723 64.195 98.9128 64.2428 98.954 64.2913C99.0908 64.452 99.3411 64.2404 99.2043 64.079C98.9147 63.7379 98.6251 63.3968 98.3355 63.0557C98.2944 63.0072 98.2539 62.9593 98.2128 62.9109C98.076 62.7495 97.8257 62.9618 97.9625 63.1231Z" fill="#EF5411"/>
<path d="M101.336 62.1163C101.626 62.4574 101.915 62.7985 102.205 63.1397C102.246 63.1881 102.287 63.236 102.328 63.2844C102.465 63.4452 102.715 63.2329 102.578 63.0722C102.288 62.7311 101.999 62.3899 101.709 62.0488C101.668 62.0003 101.627 61.9525 101.587 61.904C101.45 61.7433 101.199 61.9549 101.336 62.1163Z" fill="#EF5411"/>
<path d="M160.991 16.5191L160.642 15.5038C159.692 12.538 155.958 9.94093 151.198 9.24458C146.152 8.5059 141.599 10.1446 140.069 13.0116L139.752 13.2595L139.569 14.5092C139.018 18.2763 143.33 22.0268 149.201 22.8857C155.072 23.7452 160.278 21.3881 160.83 17.621L160.991 16.5191Z" fill="#F4862C"/>
<path d="M160.991 16.5191C160.495 19.9033 155.334 21.9506 149.464 21.0911C143.593 20.2315 139.235 16.7915 139.731 13.4067C140.226 10.0225 145.387 7.97515 151.258 8.8347C157.129 9.69425 161.486 13.1343 160.991 16.5191Z" fill="#FFB649"/>
<path opacity="0.6" d="M158.803 16.1982C158.409 18.8861 154.311 20.5113 149.649 19.8285C144.987 19.1462 141.526 16.4142 141.92 13.7263C142.313 11.0385 146.411 9.41327 151.073 10.0955C155.736 10.779 159.196 13.511 158.803 16.1982Z" fill="#F4862C"/>
<path d="M141.079 17.6026C141.048 17.8732 141.017 18.1437 140.987 18.4143C140.982 18.4523 140.978 18.491 140.974 18.529C140.959 18.6566 141.158 18.6793 141.172 18.5517C141.202 18.2812 141.233 18.0106 141.264 17.7406C141.268 17.7026 141.272 17.664 141.277 17.6259C141.291 17.4971 141.093 17.4744 141.079 17.6026Z" fill="#EF5411"/>
<path d="M140.474 16.8436C140.444 17.1142 140.413 17.3848 140.382 17.6553C140.378 17.6934 140.374 17.732 140.369 17.77C140.355 17.8977 140.553 17.9204 140.567 17.7927C140.598 17.5222 140.629 17.2516 140.66 16.9811C140.664 16.943 140.668 16.9044 140.672 16.8663C140.687 16.7381 140.489 16.716 140.474 16.8436Z" fill="#EF5411"/>
<path d="M141.969 18.42C141.938 18.6906 141.907 18.9612 141.877 19.2317C141.872 19.2698 141.868 19.3084 141.864 19.3465C141.849 19.4741 142.048 19.4968 142.062 19.3692C142.093 19.0986 142.123 18.828 142.154 18.5575C142.158 18.5194 142.163 18.4808 142.167 18.4427C142.182 18.3145 141.983 18.2924 141.969 18.42Z" fill="#EF5411"/>
<path d="M143.772 19.7653C143.741 20.0359 143.711 20.3064 143.68 20.577C143.676 20.615 143.671 20.6537 143.667 20.6917C143.653 20.8193 143.851 20.842 143.865 20.7144C143.896 20.4438 143.927 20.1733 143.957 19.9027C143.961 19.8647 143.966 19.826 143.97 19.788C143.985 19.6604 143.787 19.6377 143.772 19.7653Z" fill="#EF5411"/>
<path d="M145.705 20.6753C145.674 20.9458 145.643 21.2164 145.612 21.4869C145.608 21.525 145.604 21.5636 145.6 21.6017C145.585 21.7293 145.784 21.752 145.798 21.6238C145.828 21.3532 145.859 21.0826 145.89 20.8121C145.894 20.774 145.898 20.7354 145.903 20.6973C145.917 20.5703 145.719 20.5476 145.705 20.6753Z" fill="#EF5411"/>
<path d="M147.622 21.2507C147.591 21.5213 147.56 21.7918 147.53 22.0618C147.525 22.0998 147.521 22.1385 147.517 22.1765C147.502 22.3041 147.701 22.3268 147.715 22.1992C147.746 21.9286 147.776 21.6581 147.807 21.3875C147.811 21.3495 147.816 21.3108 147.82 21.2728C147.834 21.1458 147.636 21.1231 147.622 21.2507Z" fill="#EF5411"/>
<path d="M149.693 21.5956C149.662 21.8662 149.632 22.1367 149.601 22.4073C149.597 22.4453 149.592 22.484 149.588 22.522C149.573 22.6496 149.772 22.6723 149.786 22.5447C149.817 22.2742 149.848 22.0036 149.878 21.733C149.883 21.695 149.887 21.6564 149.891 21.6183C149.906 21.4907 149.708 21.468 149.693 21.5956Z" fill="#EF5411"/>
<path d="M151.737 21.7165C151.706 21.987 151.675 22.2576 151.645 22.5282C151.64 22.5662 151.636 22.6048 151.632 22.6429C151.618 22.7705 151.816 22.7932 151.83 22.6656C151.861 22.395 151.891 22.1245 151.922 21.8539C151.926 21.8159 151.931 21.7772 151.935 21.7392C151.95 21.6115 151.751 21.5888 151.737 21.7165Z" fill="#EF5411"/>
<path d="M146.66 21.0304C146.629 21.301 146.598 21.5715 146.568 21.8421C146.563 21.8801 146.559 21.9188 146.555 21.9568C146.54 22.0844 146.739 22.1071 146.753 21.9795C146.784 21.709 146.814 21.4384 146.845 21.1678C146.849 21.1298 146.854 21.0911 146.858 21.0531C146.873 20.9249 146.675 20.9022 146.66 21.0304Z" fill="#EF5411"/>
<path d="M148.645 21.4772C148.614 21.7478 148.583 22.0183 148.553 22.2889C148.548 22.3269 148.544 22.3656 148.54 22.4036C148.526 22.5312 148.724 22.5539 148.738 22.4263C148.768 22.1558 148.799 21.8852 148.83 21.6146C148.834 21.5766 148.838 21.5379 148.843 21.4999C148.857 21.3723 148.659 21.3496 148.645 21.4772Z" fill="#EF5411"/>
<path d="M150.754 21.7157C150.724 21.9863 150.693 22.2569 150.662 22.5274C150.658 22.5655 150.654 22.6041 150.65 22.6422C150.635 22.7698 150.834 22.7925 150.848 22.6642C150.878 22.3937 150.909 22.1231 150.94 21.8532C150.944 21.8151 150.948 21.7765 150.953 21.7384C150.967 21.6108 150.769 21.5881 150.754 21.7157Z" fill="#EF5411"/>
<path d="M152.732 21.7176C152.702 21.9882 152.671 22.2588 152.64 22.5293C152.636 22.5674 152.632 22.606 152.628 22.6441C152.613 22.7717 152.812 22.7944 152.826 22.6662C152.856 22.3956 152.887 22.125 152.918 21.8551C152.922 21.817 152.926 21.7784 152.931 21.7404C152.945 21.6121 152.747 21.5894 152.732 21.7176Z" fill="#EF5411"/>
<path d="M154.646 21.5763C154.615 21.8469 154.585 22.1175 154.554 22.388C154.55 22.4261 154.545 22.4647 154.541 22.5027C154.527 22.6304 154.725 22.6531 154.739 22.5254C154.77 22.2549 154.801 21.9843 154.831 21.7138C154.836 21.6757 154.84 21.6371 154.844 21.599C154.859 21.4714 154.661 21.4487 154.646 21.5763Z" fill="#EF5411"/>
<path d="M156.469 20.9554C156.438 21.226 156.407 21.4965 156.377 21.7671C156.372 21.8051 156.368 21.8438 156.364 21.8818C156.35 22.0095 156.548 22.0321 156.562 21.9045C156.593 21.634 156.623 21.3634 156.654 21.0935C156.658 21.0554 156.663 21.0168 156.667 20.9787C156.682 20.8505 156.483 20.8278 156.469 20.9554Z" fill="#EF5411"/>
<path d="M158.164 20.2095C158.133 20.4801 158.103 20.7507 158.072 21.0212C158.068 21.0593 158.063 21.0979 158.059 21.136C158.044 21.2636 158.243 21.2863 158.257 21.1587C158.288 20.8881 158.319 20.6175 158.349 20.3476C158.354 20.3095 158.358 20.2709 158.362 20.2328C158.377 20.104 158.178 20.0813 158.164 20.2095Z" fill="#EF5411"/>
<path d="M153.733 21.6716C153.702 21.9421 153.672 22.2127 153.641 22.4826C153.637 22.5207 153.632 22.5593 153.628 22.5974C153.613 22.725 153.812 22.7477 153.826 22.6201C153.857 22.3495 153.888 22.0789 153.918 21.8084C153.923 21.7703 153.927 21.7317 153.931 21.6937C153.946 21.566 153.747 21.5433 153.733 21.6716Z" fill="#EF5411"/>
<path d="M155.525 21.3173C155.495 21.5879 155.464 21.8585 155.433 22.1284C155.429 22.1665 155.425 22.2051 155.42 22.2432C155.406 22.3708 155.604 22.3935 155.618 22.2659C155.649 21.9953 155.68 21.7247 155.71 21.4542C155.715 21.4161 155.719 21.3775 155.723 21.3394C155.738 21.2124 155.54 21.1897 155.525 21.3173Z" fill="#EF5411"/>
<path d="M157.36 20.5876C157.33 20.8581 157.299 21.1287 157.268 21.3987C157.264 21.4367 157.26 21.4753 157.255 21.5134C157.241 21.641 157.439 21.6637 157.454 21.5361C157.484 21.2655 157.515 20.995 157.546 20.7244C157.55 20.6864 157.554 20.6477 157.558 20.6097C157.573 20.4821 157.374 20.4594 157.36 20.5876Z" fill="#EF5411"/>
<path d="M159.009 19.6237C158.978 19.8943 158.947 20.1648 158.917 20.4354C158.912 20.4734 158.908 20.5121 158.904 20.5501C158.889 20.6777 159.088 20.7004 159.102 20.5728C159.133 20.3022 159.163 20.0317 159.194 19.7611C159.198 19.7231 159.203 19.6844 159.207 19.6464C159.222 19.5188 159.024 19.4961 159.009 19.6237Z" fill="#EF5411"/>
<path d="M142.872 19.1947C142.841 19.4653 142.811 19.7358 142.78 20.0064C142.776 20.0444 142.771 20.0831 142.767 20.1211C142.753 20.2487 142.951 20.2714 142.965 20.1438C142.996 19.8733 143.026 19.6027 143.057 19.3321C143.061 19.2941 143.066 19.2554 143.07 19.2174C143.085 19.0892 142.887 19.0665 142.872 19.1947Z" fill="#EF5411"/>
<path d="M144.724 20.2716C144.693 20.5422 144.662 20.8127 144.631 21.0833C144.627 21.1213 144.623 21.16 144.619 21.198C144.604 21.3256 144.803 21.3483 144.817 21.2207C144.847 20.9502 144.878 20.6796 144.909 20.409C144.913 20.371 144.917 20.3323 144.922 20.2943C144.936 20.1661 144.738 20.1434 144.724 20.2716Z" fill="#EF5411"/>
<path d="M168.798 95.1122L168.036 93.5201C165.926 88.8567 159.336 85.3209 151.432 85.0816C143.052 84.8283 135.928 88.364 133.97 93.3342L133.5 93.7992L133.437 95.8748C133.248 102.13 140.998 107.44 150.747 107.735C160.497 108.031 168.553 103.198 168.743 96.9429L168.798 95.1122Z" fill="#F4862C"/>
<path d="M168.786 95.1132C168.956 89.4933 161.19 84.6986 151.441 84.4041C141.692 84.1095 133.652 88.4265 133.482 94.0464C133.312 99.6663 141.077 104.461 150.826 104.756C160.575 105.05 168.616 100.733 168.786 95.1132Z" fill="#FFB649"/>
<path opacity="0.6" d="M165.164 95.0023C165.029 99.4657 158.644 102.893 150.901 102.659C143.159 102.425 136.992 98.6166 137.127 94.1538C137.262 89.6904 143.647 86.2626 151.39 86.4964C159.132 86.7314 165.299 90.5389 165.164 95.0023Z" fill="#F4862C"/>
<path d="M136.486 100.641C136.488 101.089 136.488 101.536 136.489 101.984C136.489 102.047 136.49 102.11 136.49 102.173C136.491 102.385 136.819 102.385 136.818 102.173C136.817 101.726 136.816 101.278 136.815 100.83C136.815 100.767 136.815 100.704 136.815 100.641C136.814 100.43 136.486 100.43 136.486 100.641Z" fill="#EF5411"/>
<path d="M135.356 99.5168C135.357 99.9641 135.359 100.412 135.359 100.859C135.359 100.922 135.36 100.986 135.36 101.049C135.36 101.26 135.689 101.259 135.688 101.048C135.687 100.601 135.686 100.153 135.685 99.7058C135.685 99.6426 135.684 99.5794 135.684 99.5156C135.684 99.3045 135.356 99.3051 135.356 99.5168Z" fill="#EF5411"/>
<path d="M138.094 101.808C138.095 102.255 138.096 102.703 138.097 103.151C138.097 103.214 138.097 103.277 138.097 103.34C138.098 103.551 138.426 103.551 138.426 103.34C138.424 102.892 138.424 102.444 138.423 101.997C138.423 101.934 138.422 101.871 138.422 101.808C138.421 101.597 138.093 101.597 138.094 101.808Z" fill="#EF5411"/>
<path d="M141.293 103.665C141.294 104.113 141.295 104.56 141.296 105.008C141.296 105.071 141.296 105.134 141.296 105.198C141.297 105.409 141.625 105.408 141.625 105.197C141.623 104.75 141.623 104.302 141.622 103.855C141.622 103.792 141.622 103.729 141.621 103.665C141.621 103.453 141.293 103.454 141.293 103.665Z" fill="#EF5411"/>
<path d="M144.62 104.786C144.622 105.234 144.622 105.681 144.623 106.129C144.623 106.192 144.624 106.255 144.624 106.318C144.625 106.529 144.953 106.529 144.952 106.318C144.951 105.87 144.95 105.422 144.949 104.975C144.949 104.912 144.949 104.849 144.949 104.786C144.948 104.575 144.62 104.575 144.62 104.786Z" fill="#EF5411"/>
<path d="M147.86 105.364C147.861 105.811 147.862 106.259 147.863 106.706C147.863 106.769 147.864 106.833 147.864 106.896C147.864 107.107 148.192 107.107 148.192 106.896C148.191 106.449 148.19 106.001 148.189 105.553C148.189 105.49 148.188 105.427 148.188 105.364C148.187 105.152 147.859 105.153 147.86 105.364Z" fill="#EF5411"/>
<path d="M151.307 105.536C151.308 105.983 151.31 106.431 151.31 106.879C151.31 106.942 151.311 107.005 151.311 107.068C151.312 107.279 151.64 107.279 151.639 107.067C151.638 106.62 151.637 106.172 151.636 105.725C151.636 105.662 151.635 105.599 151.635 105.535C151.635 105.324 151.307 105.325 151.307 105.536Z" fill="#EF5411"/>
<path d="M154.668 105.348C154.669 105.795 154.671 106.243 154.671 106.69C154.671 106.753 154.672 106.817 154.672 106.88C154.672 107.091 155.001 107.091 155 106.879C154.999 106.432 154.998 105.984 154.997 105.537C154.997 105.474 154.997 105.41 154.996 105.347C154.996 105.136 154.667 105.136 154.668 105.348Z" fill="#EF5411"/>
<path d="M146.247 105.185C146.249 105.632 146.25 106.08 146.251 106.528C146.251 106.591 146.251 106.654 146.251 106.717C146.252 106.928 146.58 106.928 146.579 106.717C146.578 106.269 146.578 105.821 146.576 105.374C146.576 105.311 146.576 105.248 146.576 105.185C146.575 104.974 146.247 104.974 146.247 105.185Z" fill="#EF5411"/>
<path d="M149.573 105.54C149.574 105.988 149.575 106.436 149.576 106.883C149.576 106.946 149.576 107.009 149.576 107.072C149.577 107.283 149.905 107.283 149.905 107.072C149.903 106.625 149.902 106.177 149.902 105.729C149.902 105.666 149.902 105.603 149.901 105.54C149.9 105.329 149.572 105.329 149.573 105.54Z" fill="#EF5411"/>
<path d="M153.064 105.532C153.065 105.979 153.066 106.427 153.067 106.874C153.067 106.937 153.067 107.001 153.067 107.064C153.068 107.275 153.396 107.274 153.396 107.063C153.394 106.616 153.393 106.168 153.393 105.721C153.393 105.658 153.392 105.594 153.392 105.531C153.391 105.32 153.063 105.321 153.064 105.532Z" fill="#EF5411"/>
<path d="M156.293 105.161C156.295 105.609 156.296 106.056 156.296 106.504C156.296 106.567 156.296 106.63 156.297 106.693C156.298 106.904 156.626 106.904 156.625 106.693C156.624 106.245 156.623 105.797 156.622 105.35C156.622 105.287 156.622 105.224 156.622 105.161C156.621 104.949 156.293 104.95 156.293 105.161Z" fill="#EF5411"/>
<path d="M159.393 104.57C159.394 105.017 159.395 105.465 159.396 105.912C159.396 105.975 159.396 106.038 159.397 106.102C159.397 106.313 159.725 106.313 159.725 106.102C159.724 105.654 159.722 105.206 159.722 104.759C159.722 104.696 159.722 104.633 159.721 104.57C159.72 104.358 159.392 104.358 159.393 104.57Z" fill="#EF5411"/>
<path d="M162.251 103.212C162.253 103.659 162.254 104.107 162.254 104.554C162.254 104.617 162.254 104.68 162.255 104.744C162.256 104.955 162.584 104.954 162.583 104.743C162.582 104.296 162.581 103.848 162.58 103.401C162.58 103.337 162.58 103.274 162.58 103.211C162.579 102.999 162.251 103 162.251 103.212Z" fill="#EF5411"/>
<path d="M164.878 101.673C164.88 102.12 164.881 102.568 164.881 103.015C164.881 103.078 164.882 103.142 164.882 103.205C164.883 103.416 165.211 103.416 165.21 103.204C165.209 102.757 165.208 102.309 165.207 101.862C165.207 101.799 165.207 101.735 165.207 101.672C165.206 101.461 164.878 101.461 164.878 101.673Z" fill="#EF5411"/>
<path d="M157.919 104.897C157.92 105.344 157.922 105.792 157.922 106.239C157.922 106.302 157.922 106.366 157.923 106.429C157.923 106.64 158.252 106.64 158.251 106.429C158.25 105.982 158.249 105.534 158.248 105.086C158.248 105.023 158.248 104.96 158.247 104.897C158.247 104.685 157.919 104.685 157.919 104.897Z" fill="#EF5411"/>
<path d="M160.779 103.981C160.78 104.428 160.781 104.876 160.782 105.323C160.782 105.387 160.782 105.45 160.782 105.513C160.783 105.724 161.111 105.723 161.111 105.512C161.11 105.065 161.108 104.617 161.108 104.17C161.108 104.107 161.108 104.044 161.107 103.98C161.106 103.769 160.778 103.77 160.779 103.981Z" fill="#EF5411"/>
<path d="M163.637 102.442C163.638 102.889 163.639 103.337 163.64 103.784C163.64 103.848 163.641 103.911 163.641 103.975C163.642 104.186 163.97 104.185 163.969 103.974C163.968 103.527 163.967 103.079 163.966 102.632C163.966 102.568 163.966 102.505 163.965 102.442C163.965 102.23 163.637 102.23 163.637 102.442Z" fill="#EF5411"/>
<path d="M166.148 100.557C166.149 101.004 166.15 101.452 166.151 101.899C166.151 101.962 166.151 102.025 166.151 102.089C166.152 102.3 166.48 102.3 166.48 102.089C166.478 101.641 166.477 101.194 166.477 100.746C166.477 100.683 166.477 100.62 166.476 100.557C166.475 100.344 166.147 100.345 166.148 100.557Z" fill="#EF5411"/>
<path d="M139.715 102.903C139.717 103.35 139.718 103.798 139.718 104.245C139.718 104.309 139.719 104.372 139.719 104.435C139.72 104.646 140.048 104.646 140.047 104.434C140.046 103.987 140.045 103.539 140.044 103.092C140.044 103.029 140.044 102.966 140.044 102.902C140.043 102.691 139.715 102.691 139.715 102.903Z" fill="#EF5411"/>
<path d="M142.942 104.311C142.944 104.759 142.944 105.206 142.945 105.654C142.945 105.717 142.946 105.78 142.946 105.844C142.947 106.055 143.275 106.054 143.274 105.843C143.273 105.396 143.272 104.948 143.271 104.501C143.271 104.438 143.271 104.375 143.271 104.311C143.27 104.1 142.942 104.1 142.942 104.311Z" fill="#EF5411"/>
<path d="M186.074 103.151C185.639 103.202 185.234 103.012 184.991 102.646C184.174 101.414 182.439 98.1614 182.256 92.5317C182.086 87.3039 190.083 81.3822 191.475 91.1329C191.475 91.1329 195.566 86.9671 198.203 90.8992C200.535 94.3772 197.274 101.844 186.074 103.151Z" fill="#21DDE7"/>
<path d="M198.893 93.8271C197.812 96.5052 194.022 98.4648 191.852 99.1562C189.4 99.9379 186.57 99.8317 184.339 98.9108C183.9 98.7298 183.486 98.5145 183.091 98.2727C183.705 100.485 184.508 101.918 184.991 102.647C185.234 103.012 185.639 103.202 186.074 103.151C194.684 102.147 198.601 97.5015 198.893 93.8271Z" fill="#2DC4C9"/>
<path opacity="0.28" d="M185.087 96.8824C184.358 95.7412 185.26 93.2614 185.684 92.1742C186.162 90.9453 187.12 89.7858 188.212 89.087C188.427 88.9495 188.648 88.8311 188.873 88.728C187.867 88.2648 187.367 88.1562 186.929 88.2575C186.263 88.4109 185.678 88.7299 185.225 89.4109C182.699 93.2062 183.91 95.2161 185.087 96.8824Z" fill="#FAF0E7"/>
<path d="M114.043 101.557C113.856 101.926 113.495 102.146 113.08 102.146C111.685 102.146 108.221 101.813 103.697 99.0193C99.4951 96.4247 99.011 87.0427 107.408 91.0373C107.408 91.0373 106.265 85.6451 110.735 85.6236C114.688 85.6046 118.86 92.0668 114.043 101.557Z" fill="#21DDE7"/>
<path d="M113.398 86.6074C114.941 88.8554 114.504 92.8599 113.915 94.9274C113.25 97.2643 111.69 99.435 109.801 100.709C109.43 100.96 109.044 101.174 108.648 101.358C110.708 102.029 112.255 102.146 113.08 102.146C113.494 102.146 113.855 101.926 114.042 101.557C117.746 94.2611 116.136 88.7554 113.398 86.6074Z" fill="#2DC4C9"/>
<path opacity="0.28" d="M108.596 99.0639C107.318 99.0412 105.838 97.0374 105.204 96.1368C104.487 95.1189 104.074 93.7606 104.095 92.5366C104.099 92.2961 104.12 92.0605 104.157 91.8298C103.267 92.3789 102.921 92.7164 102.772 93.1133C102.545 93.7176 102.49 94.3441 102.79 95.0557C104.459 99.0222 106.671 99.1191 108.596 99.0639Z" fill="#FAF0E7"/>
<path d="M134.1 158.8H133V164.3C133 172.117 135.797 175.576 139.56 178.808C141.08 180.114 141.873 180.844 141.873 181.9V183H150.673V181.9C150.673 179.723 150.54 177.491 150.278 175.265C149.65 169.944 145.367 165.861 140.139 165.437C140.051 164.97 139.972 164.473 139.907 163.943C139.542 161.011 137.046 158.8 134.1 158.8ZM142.481 174.084L143.465 172.116C143.465 172.116 143.472 172.119 143.484 172.126C143.463 172.114 141.835 171.174 140.715 167.724C144.56 168.372 147.619 171.509 148.093 175.523C148.301 177.29 148.425 179.06 148.462 180.8H143.927C143.514 179.304 142.283 178.247 140.994 177.139C138.413 174.922 135.2 172.163 135.2 164.3V161.171C136.528 161.594 137.543 162.763 137.723 164.214C138.162 167.743 139.677 172.682 142.481 174.084Z" fill="#BADFEC"/>
<path d="M170.547 158.8H169.447C166.501 158.8 164.005 161.011 163.64 163.943C163.574 164.473 163.496 164.97 163.408 165.437C158.179 165.861 153.897 169.944 153.269 175.265C153.006 177.491 152.874 179.723 152.874 181.9L152.873 183H161.673V181.9C161.673 180.844 162.466 180.114 163.986 178.808C167.963 175.393 170.547 171.929 170.547 164.3V158.8ZM168.347 164.3C168.347 172.163 165.134 174.922 162.553 177.139C161.264 178.247 160.033 179.304 159.619 180.8H155.085C155.122 179.06 155.245 177.29 155.454 175.523C155.927 171.509 158.987 168.372 162.831 167.724C161.711 171.174 160.083 172.114 160.062 172.126C160.075 172.119 160.081 172.116 160.081 172.116L161.065 174.084C163.923 172.655 165.401 167.609 165.823 164.214C166.004 162.763 167.019 161.594 168.347 161.171V164.3H168.347Z" fill="#BADFEC"/>
<path d="M151.773 151.36C151.068 150.696 149.971 150 148.473 150C145.768 150 144.073 152.615 144.073 155.4C144.073 158.626 146.249 161.646 151.127 165.19L151.773 165.66L152.42 165.19C157.298 161.646 159.473 158.626 159.473 155.4C159.473 152.6 157.766 150 155.073 150C153.575 150 152.479 150.696 151.773 151.36ZM157.273 155.4C157.273 157.69 155.522 160.094 151.773 162.931C148.025 160.094 146.273 157.69 146.273 155.4C146.273 153.827 147.096 152.2 148.473 152.2C149.943 152.2 150.752 153.514 150.815 153.62L151.765 155.412L152.731 153.621C152.792 153.518 153.601 152.2 155.073 152.2C156.45 152.2 157.273 153.827 157.273 155.4Z" fill="#BADFEC"/>
</svg>
