<svg width="30" height="30" viewBox="0 0 30 30" fill="none" xmlns="http://www.w3.org/2000/svg">
<rect width="30" height="30" rx="8" fill="#10C9E9"/>
<path d="M6.09433 23.7734C6.1927 23.915 6.35438 24 6.52742 24H23.4726C23.6456 24 23.8073 23.915 23.9057 23.7734C24.0045 23.6312 24.0272 23.45 23.9665 23.2878C23.761 22.7383 23.3768 22.2562 23.2208 22.075C23.1208 21.9581 22.9746 21.8906 22.8206 21.8906H7.17939C7.02541 21.8906 6.87916 21.9581 6.77924 22.075C6.62322 22.2562 6.23903 22.7383 6.03355 23.2878C5.9728 23.45 5.99544 23.6312 6.09433 23.7734Z" fill="#002D3F"/>
<path d="M8.10938 14.4727H11.3086V20.8359H8.10938V14.4727Z" fill="#002D3F"/>
<path d="M13.418 14.4727H16.582V20.8359H13.418V14.4727Z" fill="#002D3F"/>
<path d="M18.6914 14.4727H21.8906V20.8359H18.6914V14.4727Z" fill="#002D3F"/>
<path d="M7.14142 13.2627C7.24042 13.3621 7.3782 13.418 7.51446 13.418C7.51453 13.418 7.51464 13.4179 7.51471 13.4179C7.51478 13.4179 7.51488 13.418 7.51495 13.4176H22.485C22.4851 13.418 22.4852 13.4179 22.4853 13.4179C22.4854 13.4179 22.4855 13.418 22.4855 13.418C22.6218 13.418 22.7596 13.3621 22.8586 13.2627C22.9659 13.1554 23.7678 12.3202 24 11.3086H6C6.23221 12.3202 7.03409 13.1554 7.14142 13.2627Z" fill="#002D3F"/>
<path d="M23.6647 10.2539L15.2362 6.05561C15.0879 5.98146 14.9128 5.98146 14.7645 6.05561L6.33594 10.2539H23.6647Z" fill="#002D3F"/>
</svg>
