<svg width="46" height="46" viewBox="0 0 46 46" fill="none" xmlns="http://www.w3.org/2000/svg">
<path d="M0 23.1885C0 35.891 11.4924 44.821 24.195 44.821C36.8975 44.821 46 35.891 46 23.1885C46 10.486 34.0564 1.17871 21.3539 1.17871C8.65134 1.17871 0 10.486 0 23.1885Z" fill="#E2CEED"/>
<path d="M29.8887 5.51647C23.2365 3.28079 15.2418 6.70394 13.0062 13.3561C11.2866 18.4726 12.5693 23.7499 16.2793 26.9317C17.0777 27.6164 17.3612 28.7292 17.0261 29.7262L15.5982 33.9749L22.5776 36.3206L24.0627 31.9017C24.452 30.7432 25.4535 29.892 26.6622 29.7114C31.322 29.0151 35.5591 26.0249 37.096 21.4521C39.3317 14.7999 36.541 7.75215 29.8887 5.51647Z" fill="#FFB96E"/>
<path d="M28.4571 11.23C25.7537 11.9744 23.1653 13.5162 21.7155 15.9163C20.2657 18.3164 20.197 21.6438 21.9989 23.7921L22.3706 23.8973C25.1543 23.992 27.7361 21.9547 28.7798 19.3724C29.8233 16.79 29.5101 13.8085 28.4571 11.23Z" fill="#5BC48F"/>
<path d="M19.9615 34.5257C20.8112 28.1442 22.82 21.9128 25.8364 16.2268C26.6953 14.6076 27.6365 13.0331 28.6532 11.5081C28.9645 11.0413 28.2117 10.6055 27.9026 11.0693C24.2678 16.5218 21.6139 22.6289 20.1033 29.0055C19.6716 30.8275 19.3393 32.67 19.0922 34.5257C19.0612 34.7588 19.3142 34.9604 19.5269 34.9604C19.7875 34.9604 19.9304 34.7595 19.9615 34.5257Z" fill="#35875C"/>
<path d="M36.404 19.262C36.2138 20.4824 35.632 21.4052 35.1044 21.3229C34.5769 21.2408 34.3034 20.1847 34.4935 18.9643C34.6836 17.7439 35.2655 16.8211 35.793 16.9033C36.3206 16.9855 36.594 18.0416 36.404 19.262Z" fill="white"/>
<path d="M28.2998 18.2113C27.8569 19.3788 27.0887 20.17 26.584 19.9785C26.0793 19.787 26.0293 18.6854 26.4722 17.5179C26.9151 16.3505 27.6833 15.5593 28.188 15.7507C28.6926 15.9421 28.7427 17.0438 28.2998 18.2113Z" fill="white"/>
<path d="M36.8672 15.2444C36.788 15.7531 36.3671 16.11 35.9273 16.0415C35.4875 15.9729 35.1952 15.5049 35.2744 14.9962C35.3536 14.4875 35.7744 14.1305 36.2143 14.1991C36.6542 14.2677 36.9464 14.7356 36.8672 15.2444Z" fill="white"/>
<path d="M22.6118 37.1735C21.6642 39.9933 19.2046 41.7107 17.1182 41.0096C15.0318 40.3084 14.1086 37.454 15.0563 34.6344C16.0039 31.8146 18.4635 30.0972 20.5499 30.7983C22.6363 31.4995 23.5594 34.3537 22.6118 37.1735Z" fill="#5BC48F"/>
<path d="M25.5586 33.7174C25.8797 32.7618 25.3654 31.7267 24.4097 31.4055L17.1062 28.9511C16.1506 28.6299 15.1156 29.1443 14.7944 30.0999C14.6248 30.6046 14.6899 31.1306 14.9285 31.5627C14.4773 31.7632 14.1077 32.1429 13.9382 32.6477C13.7686 33.1525 13.8338 33.6783 14.0721 34.1105C13.6211 34.3109 13.2515 34.6906 13.0819 35.1954C12.7607 36.151 13.2752 37.1861 14.2307 37.5073L21.5342 39.9617C22.4898 40.2829 23.5248 39.7685 23.846 38.8129C24.0156 38.3081 23.9504 37.7822 23.7121 37.3501C24.1631 37.1497 24.5328 36.7699 24.7024 36.2651C24.8719 35.7604 24.8067 35.2345 24.5683 34.8023C25.0193 34.6019 25.389 34.2222 25.5586 33.7174Z" fill="#432918"/>
<path d="M24.9028 32.9714C24.841 33.3683 24.5547 33.6532 24.2635 33.6079C23.9722 33.5626 23.7862 33.2039 23.8481 32.807C23.9098 32.4101 24.196 32.1252 24.4874 32.1705C24.7786 32.2158 24.9646 32.5744 24.9028 32.9714Z" fill="white"/>
<path d="M9.63045 12.5879C9.44667 12.56 9.30498 12.4106 9.2921 12.2251C9.19037 10.7689 8.88884 9.71265 8.53253 9.71265C8.17613 9.71265 7.8745 10.7689 7.77287 12.2251C7.75999 12.4106 7.6183 12.56 7.43442 12.5879C6.58692 12.7165 6.00171 12.9892 6.00171 13.3052C6.00171 13.6211 6.58692 13.8938 7.43442 14.0224C7.6183 14.0503 7.75999 14.1997 7.77287 14.3852C7.8745 15.8415 8.17613 16.8977 8.53253 16.8977C8.88884 16.8977 9.19047 15.8415 9.2921 14.3852C9.30498 14.1997 9.44667 14.0503 9.63045 14.0224C10.478 13.8937 11.0632 13.6211 11.0632 13.3052C11.0632 12.9892 10.478 12.7165 9.63045 12.5879Z" fill="#FFB96E"/>
<path d="M7.20687 23.1902C6.91102 23.1453 6.68292 22.9048 6.66213 22.6062C6.49853 20.262 6.01302 18.5618 5.43936 18.5618C4.86571 18.5618 4.3802 20.262 4.2166 22.6062C4.19581 22.9048 3.96771 23.1453 3.67175 23.1902C2.3074 23.3973 1.36548 23.8363 1.36548 24.3449C1.36548 24.8536 2.3074 25.2925 3.67175 25.4997C3.9676 25.5446 4.19571 25.7851 4.2166 26.0837C4.3802 28.4279 4.86571 30.1281 5.43936 30.1281C6.01302 30.1281 6.49853 28.4279 6.66213 26.0837C6.68292 25.7851 6.91102 25.5446 7.20687 25.4997C8.57133 25.2925 9.51315 24.8536 9.51315 24.3449C9.51315 23.8363 8.57123 23.3973 7.20687 23.1902Z" fill="#FFB96E"/>
<path d="M43.224 29.0219C42.0116 28.2455 41.0168 27.1621 40.3491 25.8805C40.1212 25.4431 39.5013 25.4387 39.2673 25.8728C38.5814 27.1446 37.5712 28.2139 36.348 28.9728C35.966 29.2097 35.9621 29.7632 36.3406 30.0055C37.553 30.7819 38.5478 31.8653 39.2154 33.1468C39.4433 33.5842 40.0632 33.5887 40.2973 33.1545C40.9831 31.8827 41.9933 30.8134 43.2166 30.0545C43.5986 29.8177 43.6025 29.2643 43.224 29.0219Z" fill="#FFB96E"/>
<path d="M35.303 35.275C34.6753 34.873 34.1604 34.3121 33.8147 33.6487C33.6968 33.4223 33.3757 33.42 33.2546 33.6448C32.8996 34.3032 32.3766 34.8567 31.7433 35.2496C31.5456 35.3722 31.5435 35.6588 31.7395 35.7842C32.3672 36.1862 32.8821 36.747 33.2278 37.4104C33.3457 37.6369 33.6667 37.6392 33.7879 37.4145C34.143 36.7561 34.666 36.2026 35.2992 35.8097C35.4969 35.6869 35.4989 35.4004 35.303 35.275Z" fill="#FFB96E"/>
<path d="M43.1784 16.9205C41.8943 16.6474 41.5432 18.9968 41.5432 18.9968C40.7277 17.4669 39.9001 18.2046 39.9001 18.2046C38.768 18.9593 40.7892 21.2907 41.7908 22.3344C42.0416 22.5958 42.4781 22.5333 42.6391 22.2089C43.8751 19.717 44.3608 17.1721 43.1784 16.9205Z" fill="#FFB96E"/>
</svg>
