<svg width="145" height="46" viewBox="0 0 145 46" fill="none" xmlns="http://www.w3.org/2000/svg">
<rect width="144.456" height="45.3403" rx="10" fill="white"/>
<rect x="0.527213" y="0.527213" width="143.402" height="44.2859" rx="9.47279" stroke="#0D304E" stroke-opacity="0.36" stroke-width="1.05443"/>
<g clip-path="url(#clip0_1010_10424)">
<g clip-path="url(#clip1_1010_10424)">
<g clip-path="url(#clip2_1010_10424)">
<path d="M96.9667 20.1836V22.7804H95.3516V24.4834H96.9667V30.27C96.9667 32.2459 97.8536 33.0363 100.085 33.0363C100.477 33.0363 100.851 32.9892 101.177 32.9328V31.2485C100.897 31.2768 100.72 31.2956 100.412 31.2956C99.4128 31.2956 98.9739 30.8252 98.9739 29.7525V24.4834H101.177V22.7804H98.9739V20.1836H96.9667Z" fill="#0D304E"/>
<path d="M106.861 33.1758C109.83 33.1758 111.651 31.1716 111.651 27.8503C111.651 24.5477 109.821 22.5342 106.861 22.5342C103.892 22.5342 102.062 24.5477 102.062 27.8503C102.062 31.1716 103.883 33.1758 106.861 33.1758ZM106.861 31.3786C105.115 31.3786 104.135 30.0897 104.135 27.8503C104.135 25.6298 105.115 24.3313 106.861 24.3313C108.598 24.3313 109.587 25.6298 109.587 27.8503C109.587 30.0802 108.598 31.3786 106.861 31.3786Z" fill="#0D304E"/>
<path d="M113.211 32.9792H115.218V26.9292C115.218 25.4896 116.292 24.5205 117.814 24.5205C118.168 24.5205 118.766 24.5864 118.934 24.6428V22.6481C118.719 22.5917 118.336 22.5635 118.038 22.5635C116.712 22.5635 115.582 23.2974 115.293 24.3041H115.143V22.7328H113.211V32.9792Z" fill="#0D304E"/>
<path d="M123.915 24.2561C125.4 24.2561 126.371 25.3005 126.417 26.9094H121.283C121.395 25.3099 122.432 24.2561 123.915 24.2561ZM126.409 30.212C126.034 31.0117 125.204 31.4539 123.99 31.4539C122.384 31.4539 121.349 30.3154 121.283 28.5184V28.4054H128.462V27.6997C128.462 24.4818 126.754 22.5342 123.925 22.5342C121.059 22.5342 119.238 24.6136 119.238 27.8879C119.238 31.1622 121.021 33.1758 123.934 33.1758C126.259 33.1758 127.884 32.0467 128.341 30.212H126.409Z" fill="#0D304E"/>
<path d="M83.8047 29.1943C83.9596 31.7104 86.0401 33.3195 89.1365 33.3195C92.4459 33.3195 94.5167 31.6324 94.5167 28.9407C94.5167 26.8245 93.3362 25.6543 90.4719 24.9814L88.9333 24.601C87.1141 24.172 86.3786 23.5966 86.3786 22.5922C86.3786 21.3243 87.5205 20.4954 89.2333 20.4954C90.8589 20.4954 91.9815 21.3048 92.1846 22.6019H94.2941C94.1683 20.2321 92.0975 18.5645 89.2623 18.5645C86.2142 18.5645 84.1822 20.2321 84.1822 22.7384C84.1822 24.8058 85.3336 26.0346 87.8592 26.6296L89.6591 27.0684C91.5073 27.5073 92.3201 28.1509 92.3201 29.2235C92.3201 30.4719 91.0428 31.3788 89.301 31.3788C87.4335 31.3788 86.1368 30.5304 85.953 29.1943H83.8047Z" fill="#0D304E"/>
<path d="M63.0092 22.5635C61.6275 22.5635 60.4325 23.2597 59.8163 24.4264H59.6669V22.7328H57.7344V36.3853H59.7417V31.4268H59.9004C60.4325 32.5088 61.5808 33.1485 63.0279 33.1485C65.5953 33.1485 67.2292 31.1069 67.2292 27.8513C67.2292 24.5958 65.5953 22.5635 63.0092 22.5635ZM62.4398 31.3326C60.7593 31.3326 59.7043 29.9966 59.7043 27.8607C59.7043 25.7155 60.7593 24.3794 62.4491 24.3794C64.1482 24.3794 65.1659 25.6872 65.1659 27.8513C65.1659 30.0248 64.1482 31.3326 62.4398 31.3326Z" fill="#0D304E"/>
<path d="M74.2553 22.5635C72.8736 22.5635 71.6785 23.2597 71.0623 24.4264H70.913V22.7328H68.9805V36.3853H70.9877V31.4268H71.1464C71.6785 32.5088 72.8269 33.1485 74.274 33.1485C76.8414 33.1485 78.4753 31.1069 78.4753 27.8513C78.4753 24.5958 76.8414 22.5635 74.2553 22.5635ZM73.6858 31.3326C72.0053 31.3326 70.9503 29.9966 70.9503 27.8607C70.9503 25.7155 72.0053 24.3794 73.6951 24.3794C75.3943 24.3794 76.412 25.6872 76.412 27.8513C76.412 30.0248 75.3943 31.3326 73.6858 31.3326Z" fill="#0D304E"/>
<path d="M54.1355 32.9776H56.4385L51.3969 18.9053H49.065L44.0234 32.9776H46.249L47.536 29.2426H52.8582L54.1355 32.9776ZM50.1197 21.4604H50.2842L52.3066 27.4092H48.0876L50.1197 21.4604Z" fill="#0D304E"/>
<path d="M45.3711 8.29102V15.0796H47.8032C49.8104 15.0796 50.9727 13.8329 50.9727 11.6641C50.9727 9.5283 49.8011 8.29102 47.8032 8.29102H45.3711ZM46.4168 9.25073H47.6865C49.0823 9.25073 49.9085 10.1446 49.9085 11.6783C49.9085 13.2354 49.0963 14.1199 47.6865 14.1199H46.4168V9.25073Z" fill="#0D304E"/>
<path d="M54.5283 15.1782C56.0127 15.1782 56.923 14.1762 56.923 12.5155C56.923 10.8642 56.008 9.85742 54.5283 9.85742C53.0438 9.85742 52.1289 10.8642 52.1289 12.5155C52.1289 14.1762 53.0392 15.1782 54.5283 15.1782ZM54.5283 14.2797C53.6554 14.2797 53.1652 13.6351 53.1652 12.5155C53.1652 11.4052 53.6554 10.756 54.5283 10.756C55.3966 10.756 55.8913 11.4052 55.8913 12.5155C55.8913 13.6304 55.3966 14.2797 54.5283 14.2797Z" fill="#0D304E"/>
<path d="M64.6768 9.95605H63.6732L62.7677 13.8655H62.6883L61.6426 9.95605H60.6811L59.6354 13.8655H59.5607L58.6504 9.95605H57.6328L59.0332 15.0793H60.0648L61.1105 11.3062H61.1898L62.2401 15.0793H63.2811L64.6768 9.95605Z" fill="#0D304E"/>
<path d="M65.8359 15.0794H66.8395V12.0827C66.8395 11.2829 67.311 10.7842 68.0533 10.7842C68.7955 10.7842 69.1502 11.1935 69.1502 12.0168V15.0794H70.1538V11.7627C70.1538 10.5443 69.5283 9.85742 68.394 9.85742C67.6285 9.85742 67.1243 10.2008 66.8769 10.7701H66.8022V9.95621H65.8359V15.0794Z" fill="#0D304E"/>
<path d="M71.7305 15.0796H72.7341V7.95703H71.7305V15.0796Z" fill="#0D304E"/>
<path d="M76.5126 15.1782C77.997 15.1782 78.9073 14.1762 78.9073 12.5155C78.9073 10.8642 77.9924 9.85742 76.5126 9.85742C75.0282 9.85742 74.1133 10.8642 74.1133 12.5155C74.1133 14.1762 75.0236 15.1782 76.5126 15.1782ZM76.5126 14.2797C75.6398 14.2797 75.1496 13.6351 75.1496 12.5155C75.1496 11.4052 75.6398 10.756 76.5126 10.756C77.3809 10.756 77.8757 11.4052 77.8757 12.5155C77.8757 13.6304 77.3809 14.2797 76.5126 14.2797Z" fill="#0D304E"/>
<path d="M81.8926 14.3126C81.3464 14.3126 80.9496 14.0444 80.9496 13.5834C80.9496 13.1318 81.2671 12.8918 81.9673 12.8448L83.209 12.7648V13.1929C83.209 13.828 82.6489 14.3126 81.8926 14.3126ZM81.6359 15.1641C82.3034 15.1641 82.8589 14.8724 83.1624 14.3596H83.2417V15.0794H84.2079V11.5793C84.2079 10.4972 83.4891 9.85742 82.2147 9.85742C81.0617 9.85742 80.2401 10.422 80.1374 11.3017H81.1083C81.2204 10.9395 81.6078 10.7325 82.168 10.7325C82.8543 10.7325 83.209 11.0383 83.209 11.5793V12.0215L81.8319 12.1015C80.6229 12.1767 79.9414 12.7083 79.9414 13.6304C79.9414 14.5666 80.6556 15.1641 81.6359 15.1641Z" fill="#0D304E"/>
<path d="M87.6177 15.1643C88.318 15.1643 88.9108 14.8303 89.2142 14.2705H89.2936V15.0796H90.2552V7.95703H89.2516V10.7703H89.1769C88.9015 10.2058 88.3133 9.87176 87.6177 9.87176C86.3341 9.87176 85.5078 10.8973 85.5078 12.5157C85.5078 14.1387 86.3247 15.1643 87.6177 15.1643ZM87.9025 10.7797C88.7428 10.7797 89.2702 11.4525 89.2702 12.5204C89.2702 13.593 88.7474 14.2564 87.9025 14.2564C87.053 14.2564 86.5441 13.6024 86.5441 12.5157C86.5441 11.4384 87.0576 10.7797 87.9025 10.7797Z" fill="#0D304E"/>
<path d="M96.7626 15.1782C98.247 15.1782 99.1573 14.1762 99.1573 12.5155C99.1573 10.8642 98.2424 9.85742 96.7626 9.85742C95.2782 9.85742 94.3633 10.8642 94.3633 12.5155C94.3633 14.1762 95.2735 15.1782 96.7626 15.1782ZM96.7626 14.2797C95.8897 14.2797 95.3996 13.6351 95.3996 12.5155C95.3996 11.4052 95.8897 10.756 96.7626 10.756C97.6308 10.756 98.1257 11.4052 98.1257 12.5155C98.1257 13.6304 97.6308 14.2797 96.7626 14.2797Z" fill="#0D304E"/>
<path d="M100.484 15.0794H101.488V12.0827C101.488 11.2829 101.96 10.7842 102.702 10.7842C103.444 10.7842 103.799 11.1935 103.799 12.0168V15.0794H104.802V11.7627C104.802 10.5443 104.177 9.85742 103.043 9.85742C102.277 9.85742 101.773 10.2008 101.525 10.7701H101.451V9.95621H100.484V15.0794Z" fill="#0D304E"/>
<path d="M109.425 8.68164V9.98008H108.617V10.8316H109.425V13.7249C109.425 14.7128 109.868 15.108 110.984 15.108C111.18 15.108 111.367 15.0845 111.53 15.0562V14.2141C111.39 14.2282 111.301 14.2377 111.147 14.2377C110.648 14.2377 110.428 14.0024 110.428 13.4661V10.8316H111.53V9.98008H110.428V8.68164H109.425Z" fill="#0D304E"/>
<path d="M112.879 15.0796H113.883V12.0876C113.883 11.3113 114.34 10.7891 115.162 10.7891C115.871 10.7891 116.249 11.2031 116.249 12.0217V15.0796H117.253V11.7724C117.253 10.5539 116.585 9.86235 115.502 9.86235C114.737 9.86235 114.2 10.2058 113.953 10.7797H113.873V7.95703H112.879V15.0796Z" fill="#0D304E"/>
<path d="M120.874 10.7184C121.616 10.7184 122.101 11.2405 122.125 12.045H119.557C119.613 11.2452 120.132 10.7184 120.874 10.7184ZM122.12 13.6963C121.934 14.0962 121.518 14.3173 120.911 14.3173C120.108 14.3173 119.59 13.748 119.557 12.8495V12.793H123.147V12.4402C123.147 10.8313 122.293 9.85742 120.879 9.85742C119.445 9.85742 118.535 10.8971 118.535 12.5343C118.535 14.1715 119.427 15.1782 120.883 15.1782C122.046 15.1782 122.857 14.6137 123.086 13.6963H122.12Z" fill="#0D304E"/>
<path d="M33.1311 21.4293C33.1555 19.5239 34.1709 17.7209 35.7816 16.7229C34.7655 15.2603 33.0634 14.333 31.2926 14.2772C29.404 14.0774 27.573 15.4161 26.6105 15.4161C25.6295 15.4161 24.1477 14.297 22.552 14.3301C20.4721 14.3978 18.5331 15.5896 17.5212 17.4221C15.346 21.2176 16.9685 26.7956 19.0522 29.8637C20.0947 31.3659 21.3131 33.044 22.9073 32.9846C24.4674 32.9193 25.05 31.9819 26.9332 31.9819C28.7988 31.9819 29.3454 32.9846 30.9721 32.9467C32.6461 32.9193 33.7007 31.4377 34.7066 29.9211C35.4557 28.8508 36.0321 27.6677 36.4145 26.4158C34.4471 25.5772 33.1334 23.582 33.1311 21.4293Z" fill="#0D304E"/>
<path d="M30.0612 12.2594C30.9741 11.1551 31.4237 9.73575 31.3149 8.30273C29.9204 8.45034 28.6323 9.12201 27.7071 10.1839C26.8025 11.2215 26.3318 12.6158 26.4208 13.9941C27.8158 14.0086 29.1871 13.3551 30.0612 12.2594Z" fill="#0D304E"/>
</g>
</g>
</g>
<defs>
<clipPath id="clip0_1010_10424">
<rect width="112.824" height="29.5239" fill="white" transform="translate(15.8164 7.9082)"/>
</clipPath>
<clipPath id="clip1_1010_10424">
<rect width="112.824" height="29.5239" fill="white" transform="translate(15.8164 7.9082)"/>
</clipPath>
<clipPath id="clip2_1010_10424">
<rect width="112.824" height="29.5239" fill="white" transform="translate(15.8164 7.9082)"/>
</clipPath>
</defs>
</svg>
