<svg width="145" height="46" viewBox="0 0 145 46" fill="none" xmlns="http://www.w3.org/2000/svg">
<rect x="0.457031" width="144.456" height="45.3403" rx="10" fill="white"/>
<rect x="0.984245" y="0.527213" width="143.402" height="44.2859" rx="9.47279" stroke="#0D304E" stroke-opacity="0.36" stroke-width="1.05443"/>
<g clip-path="url(#clip0_1010_10451)">
<g clip-path="url(#clip1_1010_10451)">
<g clip-path="url(#clip2_1010_10451)">
<path d="M72.8662 23.9894C70.4379 23.9894 68.4588 25.8252 68.4588 28.3537C68.4588 30.8669 70.4379 32.7182 72.8662 32.7182C75.2953 32.7182 77.2744 30.8669 77.2744 28.3537C77.2734 25.8252 75.2943 23.9894 72.8662 23.9894ZM72.8662 31.0004C71.5353 31.0004 70.3884 29.9095 70.3884 28.3548C70.3884 26.7837 71.5364 25.7093 72.8662 25.7093C74.1969 25.7093 75.3438 26.7837 75.3438 28.3548C75.3438 29.9085 74.1969 31.0004 72.8662 31.0004ZM63.2505 23.9894C60.8223 23.9894 58.8432 25.8252 58.8432 28.3537C58.8432 30.8669 60.8223 32.7182 63.2505 32.7182C65.6797 32.7182 67.6588 30.8669 67.6588 28.3537C67.6588 25.8252 65.6797 23.9894 63.2505 23.9894ZM63.2505 31.0004C61.9197 31.0004 60.7727 29.9095 60.7727 28.3548C60.7727 26.7837 61.9207 25.7093 63.2505 25.7093C64.5812 25.7093 65.7282 26.7837 65.7282 28.3548C65.7292 29.9085 64.5812 31.0004 63.2505 31.0004ZM51.8136 25.3295V27.1808H56.2715C56.1383 28.2224 55.7894 28.9828 55.2566 29.5113C54.6083 30.1558 53.5935 30.8669 51.8136 30.8669C49.0695 30.8669 46.9242 28.6678 46.9242 25.9401C46.9242 23.2125 49.0695 21.0134 51.8136 21.0134C53.2941 21.0134 54.375 21.5922 55.173 22.3361L56.4873 21.0298C55.3723 19.9717 53.8929 19.1621 51.8136 19.1621C48.0547 19.1621 44.8945 22.2038 44.8945 25.9401C44.8945 29.6765 48.0547 32.7182 51.8136 32.7182C53.8423 32.7182 55.3734 32.0563 56.5699 30.8166C57.8004 29.5934 58.1834 27.8735 58.1834 26.4851C58.1834 26.0561 58.1504 25.659 58.0833 25.3285H51.8136V25.3295ZM98.5892 26.7673C98.2237 25.7923 97.1087 23.9894 94.8302 23.9894C92.5683 23.9894 90.6883 25.7585 90.6883 28.3537C90.6883 30.8002 92.5518 32.7182 95.046 32.7182C97.0581 32.7182 98.2226 31.495 98.7059 30.7838L97.2088 29.7915C96.7103 30.5191 96.0278 30.9983 95.046 30.9983C94.0652 30.9983 93.3664 30.5519 92.9172 29.6755L98.7884 27.2619L98.5892 26.7673ZM92.6013 28.2224C92.5518 26.5353 93.9155 25.6764 94.8974 25.6764C95.6624 25.6764 96.3107 26.0571 96.5275 26.602L92.6013 28.2224ZM87.8286 32.4544H89.7571V19.626H87.8286V32.4544ZM84.6674 24.9653H84.6013C84.1687 24.4522 83.3367 23.9894 82.2898 23.9894C80.0939 23.9894 78.0818 25.9073 78.0818 28.3712C78.0818 30.8177 80.0939 32.7193 82.2898 32.7193C83.3376 32.7193 84.1687 32.2565 84.6013 31.7279H84.6674V32.3559C84.6674 34.0256 83.7692 34.9184 82.3228 34.9184C81.1418 34.9184 80.4099 34.0758 80.1104 33.3648L78.4308 34.0594C78.9128 35.216 80.193 36.6383 82.3228 36.6383C84.5848 36.6383 86.4979 35.3155 86.4979 32.0912V24.2551H84.6685V24.9653H84.6674ZM82.4561 31.0004C81.1252 31.0004 80.0113 29.8921 80.0113 28.3712C80.0113 26.833 81.1252 25.7093 82.4561 25.7093C83.7692 25.7093 84.8006 26.833 84.8006 28.3712C84.8006 29.8921 83.7692 31.0004 82.4561 31.0004ZM107.627 19.626H103.011V32.4544H104.936V27.5943H107.626C109.76 27.5943 111.861 26.0582 111.861 23.6107C111.861 21.1632 109.761 19.626 107.627 19.626ZM107.677 25.8088H104.936V21.4115H107.677C109.116 21.4115 109.934 22.5968 109.934 23.6107C109.934 24.604 109.116 25.8088 107.677 25.8088ZM119.581 23.9667C118.187 23.9667 116.742 24.5773 116.145 25.9309L117.855 26.64C118.22 25.9309 118.902 25.699 119.615 25.699C120.611 25.699 121.624 26.2931 121.64 27.3491V27.4815C121.291 27.2834 120.544 26.9868 119.631 26.9868C117.789 26.9868 115.912 27.9936 115.912 29.8746C115.912 31.5915 117.423 32.6966 119.117 32.6966C120.411 32.6966 121.125 32.1189 121.574 31.4416H121.64V32.4319H123.5V27.5133C123.501 25.2372 121.789 23.9667 119.581 23.9667ZM119.348 30.9972C118.718 30.9972 117.838 30.6833 117.838 29.9075C117.838 28.9171 118.934 28.5375 119.881 28.5375C120.727 28.5375 121.126 28.7191 121.64 28.9664C121.491 30.1558 120.462 30.9972 119.348 30.9972ZM130.274 24.2469L128.066 29.8089H128L125.708 24.2469H123.633L127.069 32.0204L125.111 36.3449H127.119L132.416 24.2469H130.274ZM112.924 32.4544H114.849V19.626H112.924V32.4544Z" fill="#0D304E"/>
<path d="M51.4773 12.1774C51.4773 13.0373 51.2212 13.7218 50.7081 14.2328C50.1259 14.8403 49.3661 15.1441 48.4327 15.1441C47.5387 15.1441 46.7778 14.8362 46.1532 14.2205C45.5276 13.6038 45.2148 12.8403 45.2148 11.929C45.2148 11.0167 45.5276 10.2532 46.1532 9.6375C46.7778 9.02075 47.5387 8.71289 48.4327 8.71289C48.8767 8.71289 49.301 8.79909 49.7036 8.97047C50.1073 9.14287 50.4304 9.37172 50.672 9.65802L50.1279 10.1999C49.7181 9.71242 49.1534 9.4692 48.4317 9.4692C47.7793 9.4692 47.2156 9.69702 46.7396 10.1527C46.2637 10.6083 46.0263 11.2004 46.0263 11.928C46.0263 12.6556 46.2637 13.2477 46.7396 13.7033C47.2156 14.1589 47.7793 14.3868 48.4317 14.3868C49.1234 14.3868 49.7005 14.1579 50.162 13.6992C50.4614 13.4006 50.6348 12.985 50.6813 12.4524H48.4317V11.7125H51.4329C51.4639 11.8736 51.4773 12.0286 51.4773 12.1774Z" fill="#0D304E"/>
<path d="M56.2376 9.60592H53.417V11.5578H55.9609V12.2977H53.417V14.2495H56.2376V15.0068H52.6211V8.84961H56.2376V9.60592Z" fill="#0D304E"/>
<path d="M59.5927 15.0068H58.7967V9.60592H57.0664V8.84961H61.323V9.60592H59.5927V15.0068Z" fill="#0D304E"/>
<path d="M64.4023 15.0068V8.84961H65.1983V15.0068H64.4023Z" fill="#0D304E"/>
<path d="M68.7294 15.0068H67.9334V9.60592H66.2031V8.84961H70.4597V9.60592H68.7294V15.0068Z" fill="#0D304E"/>
<path d="M78.5167 14.2114C77.9075 14.8333 77.1508 15.1442 76.2454 15.1442C75.34 15.1442 74.5832 14.8333 73.9751 14.2114C73.3661 13.5895 73.0625 12.8281 73.0625 11.9281C73.0625 11.0281 73.3661 10.2667 73.9751 9.64479C74.5832 9.0229 75.34 8.71094 76.2454 8.71094C77.1456 8.71094 77.9013 9.02393 78.5125 9.64889C79.1237 10.2738 79.4293 11.0332 79.4293 11.9281C79.4293 12.8281 79.1247 13.5895 78.5167 14.2114ZM74.5626 13.6952C75.021 14.157 75.5815 14.3869 76.2454 14.3869C76.9092 14.3869 77.4708 14.156 77.9281 13.6952C78.3865 13.2334 78.6168 12.6444 78.6168 11.9281C78.6168 11.2118 78.3865 10.6228 77.9281 10.161C77.4708 9.69917 76.9092 9.4693 76.2454 9.4693C75.5815 9.4693 75.021 9.7002 74.5626 10.161C74.1052 10.6228 73.875 11.2118 73.875 11.9281C73.875 12.6444 74.1052 13.2334 74.5626 13.6952Z" fill="#0D304E"/>
<path d="M80.543 15.0068V8.84961H81.5113L84.5218 13.6389H84.5559L84.5218 12.4526V8.84961H85.3177V15.0068H84.4866L81.3369 9.98459H81.3028L81.3369 11.1709V15.0068H80.543Z" fill="#0D304E"/>
<path d="M51.4773 12.1774C51.4773 13.0373 51.2212 13.7218 50.7081 14.2328C50.1259 14.8403 49.3661 15.1441 48.4327 15.1441C47.5387 15.1441 46.7778 14.8362 46.1532 14.2205C45.5276 13.6038 45.2148 12.8403 45.2148 11.929C45.2148 11.0167 45.5276 10.2532 46.1532 9.6375C46.7778 9.02075 47.5387 8.71289 48.4327 8.71289C48.8767 8.71289 49.301 8.79909 49.7036 8.97047C50.1073 9.14287 50.4304 9.37172 50.672 9.65802L50.1279 10.1999C49.7181 9.71242 49.1534 9.4692 48.4317 9.4692C47.7793 9.4692 47.2156 9.69702 46.7396 10.1527C46.2637 10.6083 46.0263 11.2004 46.0263 11.928C46.0263 12.6556 46.2637 13.2477 46.7396 13.7033C47.2156 14.1589 47.7793 14.3868 48.4317 14.3868C49.1234 14.3868 49.7005 14.1579 50.162 13.6992C50.4614 13.4006 50.6348 12.985 50.6813 12.4524H48.4317V11.7125H51.4329C51.4639 11.8736 51.4773 12.0286 51.4773 12.1774Z" stroke="#0D304E" stroke-width="0.190922" stroke-miterlimit="10"/>
<path d="M56.2376 9.60592H53.417V11.5578H55.9609V12.2977H53.417V14.2495H56.2376V15.0068H52.6211V8.84961H56.2376V9.60592Z" stroke="#0D304E" stroke-width="0.190922" stroke-miterlimit="10"/>
<path d="M59.5927 15.0068H58.7967V9.60592H57.0664V8.84961H61.323V9.60592H59.5927V15.0068Z" stroke="#0D304E" stroke-width="0.190922" stroke-miterlimit="10"/>
<path d="M64.4023 15.0068V8.84961H65.1983V15.0068H64.4023Z" stroke="#0D304E" stroke-width="0.190922" stroke-miterlimit="10"/>
<path d="M68.7294 15.0068H67.9334V9.60592H66.2031V8.84961H70.4597V9.60592H68.7294V15.0068Z" stroke="#0D304E" stroke-width="0.190922" stroke-miterlimit="10"/>
<path d="M78.5167 14.2114C77.9075 14.8333 77.1508 15.1442 76.2454 15.1442C75.34 15.1442 74.5832 14.8333 73.9751 14.2114C73.3661 13.5895 73.0625 12.8281 73.0625 11.9281C73.0625 11.0281 73.3661 10.2667 73.9751 9.64479C74.5832 9.0229 75.34 8.71094 76.2454 8.71094C77.1456 8.71094 77.9013 9.02393 78.5125 9.64889C79.1237 10.2738 79.4293 11.0332 79.4293 11.9281C79.4293 12.8281 79.1247 13.5895 78.5167 14.2114ZM74.5626 13.6952C75.021 14.157 75.5815 14.3869 76.2454 14.3869C76.9092 14.3869 77.4708 14.156 77.9281 13.6952C78.3865 13.2334 78.6168 12.6444 78.6168 11.9281C78.6168 11.2118 78.3865 10.6228 77.9281 10.161C77.4708 9.69917 76.9092 9.4693 76.2454 9.4693C75.5815 9.4693 75.021 9.7002 74.5626 10.161C74.1052 10.6228 73.875 11.2118 73.875 11.9281C73.875 12.6444 74.1052 13.2334 74.5626 13.6952Z" stroke="#0D304E" stroke-width="0.190922" stroke-miterlimit="10"/>
<path d="M80.543 15.0068V8.84961H81.5113L84.5218 13.6389H84.5558L84.5218 12.4526V8.84961H85.3177V15.0068H84.4866L81.3369 9.98459H81.3028L81.3369 11.1709V15.0068H80.543Z" stroke="#0D304E" stroke-width="0.190922" stroke-miterlimit="10"/>
<path fill-rule="evenodd" clip-rule="evenodd" d="M13.0223 9.80514C12.8899 10.0861 12.8164 10.4348 12.8164 10.8434V33.5389C12.8164 33.9485 12.89 34.2972 13.0225 34.578L25.4826 22.1908L13.0223 9.80514ZM13.6868 35.2636C14.1519 35.4789 14.7672 35.4235 15.4397 35.0443L30.0891 26.7697L26.1597 22.8637L13.6868 35.2636ZM30.9532 26.2827L35.5724 23.674C37.0146 22.8582 37.0146 21.5252 35.5724 20.7103L30.9512 18.1003L26.8367 22.1907L30.9532 26.2827ZM30.0878 17.6126L15.4397 9.33902C14.7671 8.95911 14.1518 8.90418 13.6868 9.11967L26.1596 21.5177L30.0878 17.6126Z" fill="#0D304E"/>
</g>
</g>
</g>
<defs>
<clipPath id="clip0_1010_10451">
<rect width="121.259" height="28.6382" fill="white" transform="translate(12.0547 8.34863)"/>
</clipPath>
<clipPath id="clip1_1010_10451">
<rect width="121.259" height="28.6382" fill="white" transform="translate(12.0547 8.34863)"/>
</clipPath>
<clipPath id="clip2_1010_10451">
<rect width="121.235" height="28.6382" fill="white" transform="translate(12.0664 8.34863)"/>
</clipPath>
</defs>
</svg>
