<svg width="474" height="103" viewBox="0 0 474 103" fill="none" xmlns="http://www.w3.org/2000/svg">
<path d="M183.458 0.429207C174.006 1.20644 166.359 4.64127 159.489 11.185C152.87 17.5031 148.859 24.8742 147.254 33.7246C146.527 37.6859 146.477 45.1824 147.154 49.0435C148.182 54.8852 150.639 60.9024 153.848 65.4655C155.854 68.2736 160.793 73.2628 163.526 75.1934C168.74 78.904 174.632 81.1605 181.652 82.1132C182.555 82.2386 188.673 82.3639 195.241 82.3639L207.226 82.4141L207.276 72.4606C207.326 67.02 207.301 62.482 207.251 62.4318C207.201 62.3817 202.337 62.3315 196.47 62.3315C190.603 62.3315 184.962 62.2062 183.984 62.0808C179.797 61.5292 176.087 59.7241 172.852 56.6402C168.515 52.5034 166.584 47.84 166.584 41.5219C166.584 36.7081 167.587 33.2984 170.019 29.5627C173.153 24.8241 178.519 21.3642 183.558 20.8126C184.36 20.7374 185.263 20.612 185.539 20.587C185.814 20.5368 190.854 20.4867 196.771 20.4867L207.476 20.4616V10.4329V0.404137H197.097C191.38 0.404137 186.567 0.353996 186.366 0.303848C186.19 0.253708 184.887 0.328926 183.458 0.429207Z" fill="#2EB7DC"/>
<path d="M273.54 0.430847C256.817 0.531136 249.797 0.656494 248.719 0.882141C240.52 2.53688 234.077 6.07201 228.034 12.1645C221.691 18.5828 217.981 25.979 216.627 34.8795C216.251 37.3616 216.1 44.482 216.376 46.7886C217.253 53.8088 219.46 59.8511 223.12 65.2164C224.825 67.7236 229.012 72.2115 231.494 74.1921C235.28 77.2008 240.796 79.9336 245.459 81.112C249.471 82.1148 252.304 82.3405 261.33 82.3656L269.904 82.3906V72.4873V62.5839H261.706C252.855 62.5839 251.276 62.4084 248.217 61.0545C243.955 59.1992 239.618 54.8116 237.637 50.3488C235.33 45.1339 235.405 37.6625 237.787 32.4225C239.542 28.4862 243.228 24.6001 246.863 22.7698C251.025 20.6638 251.351 20.6387 265.216 20.5134L277.426 20.4131V51.4019V82.3906H287.204C295.728 82.3906 296.982 82.3405 296.982 82.0145C297.007 65.9435 296.957 0.330559 296.932 0.305489C296.882 0.280411 286.376 0.355629 273.54 0.430847Z" fill="#2EB7DC"/>
<path d="M342.538 0.308174C342.513 0.333252 341.485 0.408463 340.231 0.483681C334.39 0.834686 328.648 2.81536 323.508 6.22513C320.374 8.30608 315.41 13.2703 313.304 16.4294C310.446 20.7668 308.541 25.4803 307.613 30.62C306.986 34.0298 306.961 41.9274 307.563 45.1617C308.866 52.1316 311.75 58.1238 316.213 63.1131C322.305 69.9076 329.4 73.8188 338.05 75.0974C339.454 75.3231 353.394 75.4986 360.54 75.3732C361.041 75.3732 361.041 75.2228 360.991 65.52L360.941 55.6918L350.711 55.5414C341.761 55.4411 340.307 55.3659 339.103 54.9647C334.515 53.4354 331.105 50.6273 328.949 46.4905C327.62 43.9582 327.018 41.4009 326.993 38.1416C326.968 34.8321 327.395 33.0018 328.874 29.9932C330.278 27.0849 333.587 23.7253 336.345 22.3965C340.081 20.5662 339.905 20.5913 355.024 20.5913H368.562V51.8057V83.0201L348.129 83.0703L327.695 83.1204L327.62 92.9235L327.57 102.727L349.809 102.651L372.073 102.551L373.903 101.999C377.463 100.896 380.196 99.1914 382.879 96.3834C385.837 93.2745 387.391 90.1907 388.119 86.0037C388.444 84.1233 388.495 78.081 388.495 42.0528V0.283104H365.529C352.893 0.283104 342.563 0.308174 342.538 0.308174Z" fill="#2EB7DC"/>
<path d="M398.273 41.4985V82.3906H408.302H418.33L418.381 51.4771L418.456 20.5886H426.855C434.627 20.6137 435.429 20.6638 437.435 21.1652C441.497 22.1681 444.606 23.9482 447.639 27.007C451.024 30.4167 452.904 34.6037 453.281 39.4175C453.356 40.3703 453.406 50.4241 453.406 61.7565L453.431 82.3906H463.334H473.238L473.213 59.8761C473.213 36.0328 473.188 35.6568 471.959 30.492C469.552 20.2376 461.153 9.95815 451.049 4.91871C447.639 3.21382 444.706 2.21095 440.895 1.38358C438.313 0.806931 437.962 0.806931 418.28 0.706642L398.273 0.631424V41.4985Z" fill="#2EB7DC"/>
<path d="M116.591 82.2055H136.147V30.3068C136.147 26.8798 133.369 24.1016 129.942 24.1016H122.796C119.369 24.1016 116.591 26.8798 116.591 30.3068V82.2055Z" fill="#2EB7DC"/>
<path d="M0.758789 82.393H20.3148V30.4943C20.3148 27.0673 17.5366 24.2891 14.1095 24.2891H6.96406C3.53699 24.2891 0.758789 27.0673 0.758789 30.4943V82.393Z" fill="#2EB7DC"/>
<path d="M0.758789 6.23652C0.758789 2.80944 3.53699 0.03125 6.96406 0.03125H14.1095C17.5366 0.03125 20.3148 2.80945 20.3148 6.23653V10.6554C20.3148 14.0825 17.5366 16.8607 14.1095 16.8607H6.96406C3.53698 16.8607 0.758789 14.0825 0.758789 10.6554V6.23652Z" fill="black"/>
<path d="M116.591 6.23652C116.591 2.80944 119.369 0.03125 122.796 0.03125H129.942C133.369 0.03125 136.147 2.80945 136.147 6.23653V10.6554C136.147 14.0825 133.369 16.8607 129.942 16.8607H122.796C119.369 16.8607 116.591 14.0825 116.591 10.6554V6.23652Z" fill="black"/>
<path d="M105.899 0.21875H30.9534V17.1422L79.5472 17.1422L30.9534 61.8493V82.266H105.899V65.2801L56.7945 65.2801L105.899 20.0014V0.21875Z" fill="#2EB7DC"/>
</svg>
