<svg width="153" height="34" viewBox="0 0 153 34" fill="none" xmlns="http://www.w3.org/2000/svg">
<path d="M58.8159 1.06849C55.7729 1.3187 53.3112 2.42449 51.0996 4.53113C48.9687 6.56513 47.6773 8.93813 47.1607 11.7873C46.9267 13.0626 46.9105 15.476 47.1285 16.719C47.4594 18.5996 48.2504 20.5368 49.2835 22.0058C49.9292 22.9098 51.5193 24.516 52.3991 25.1375C54.0779 26.332 55.9747 27.0585 58.2347 27.3652C58.5253 27.4055 60.4947 27.4459 62.6094 27.4459L66.4676 27.462L66.4837 24.2577C66.4999 22.5062 66.4918 21.0453 66.4756 21.0291C66.4595 21.013 64.8937 20.9968 63.0049 20.9968C61.1162 20.9968 59.3002 20.9565 58.9854 20.9161C57.6374 20.7385 56.4429 20.1574 55.4017 19.1646C54.0053 17.8328 53.3838 16.3315 53.3838 14.2975C53.3838 12.7478 53.7067 11.6501 54.4896 10.4475C55.4985 8.92198 57.2258 7.80813 58.8482 7.63056C59.1064 7.60634 59.397 7.56598 59.4858 7.55791C59.5746 7.54177 61.1969 7.52563 63.1018 7.52563L66.5483 7.51756V4.28899V1.06042H63.2067C61.3664 1.06042 59.8167 1.04428 59.7522 1.02813C59.6957 1.01199 59.2759 1.03621 58.8159 1.06849Z" fill="black"/>
<path d="M87.8166 1.06862C82.4329 1.10091 80.1729 1.14127 79.8259 1.21391C77.1865 1.74662 75.1122 2.88469 73.1669 4.84605C71.1249 6.91233 69.9303 9.2934 69.4944 12.1588C69.3734 12.9578 69.3249 15.2501 69.4137 15.9927C69.6962 18.2527 70.4065 20.1979 71.5849 21.9252C72.1338 22.7323 73.4817 24.1771 74.2808 24.8147C75.4996 25.7833 77.2753 26.6631 78.7766 27.0425C80.068 27.3653 80.9801 27.438 83.8858 27.446L86.6462 27.4541V24.2659V21.0777H84.0069C81.1577 21.0777 80.6492 21.0212 79.6644 20.5853C78.2923 19.988 76.8959 18.5755 76.2583 17.1388C75.5157 15.46 75.5399 13.0547 76.3067 11.3678C76.8717 10.1005 78.0582 8.84947 79.2286 8.26026C80.5684 7.58226 80.6734 7.57419 85.1369 7.53383L89.0676 7.50155V17.4778V27.4541H92.2155C94.9598 27.4541 95.3634 27.438 95.3634 27.333C95.3714 22.1592 95.3553 1.03634 95.3472 1.02827C95.3311 1.0202 91.9491 1.04441 87.8166 1.06862Z" fill="black"/>
<path d="M110.029 1.02812C110.021 1.03619 109.69 1.06041 109.286 1.08462C107.406 1.19762 105.557 1.83526 103.903 2.93298C102.894 3.6029 101.296 5.20105 100.618 6.21804C99.6975 7.6144 99.0841 9.13183 98.7854 10.7865C98.5836 11.8842 98.5756 14.4267 98.7693 15.4679C99.189 17.7117 100.117 19.6408 101.554 21.247C103.515 23.4344 105.799 24.6935 108.584 25.1052C109.036 25.1778 113.524 25.2343 115.824 25.194C115.986 25.194 115.986 25.1455 115.969 22.0219L115.953 18.8579L112.66 18.8095C109.779 18.7772 109.311 18.753 108.923 18.6238C107.446 18.1315 106.348 17.2275 105.654 15.8957C105.226 15.0805 105.033 14.2572 105.025 13.2079C105.017 12.1425 105.154 11.5533 105.63 10.5847C106.082 9.6484 107.147 8.56683 108.035 8.13904C109.238 7.54983 109.181 7.5579 114.048 7.5579H118.407V17.6068V27.6557L111.829 27.6719L105.251 27.688L105.226 30.844L105.21 33.9999L112.37 33.9757L119.537 33.9434L120.126 33.7658C121.272 33.4107 122.152 32.8618 123.016 31.9578C123.968 30.957 124.469 29.9642 124.703 28.6162C124.808 28.0109 124.824 26.0657 124.824 14.467V1.02005H117.43C113.362 1.02005 110.037 1.02812 110.029 1.02812Z" fill="black"/>
<path d="M127.972 14.2896V27.4541H131.2H134.429L134.445 17.502L134.469 7.55805H137.173C139.675 7.56612 139.934 7.58226 140.579 7.74369C141.887 8.06655 142.888 8.63962 143.864 9.62433C144.954 10.722 145.559 12.07 145.68 13.6197C145.705 13.9264 145.721 17.163 145.721 20.8113L145.729 27.4541H148.917H152.105L152.097 20.206C152.097 12.53 152.089 12.409 151.694 10.7463C150.919 7.44505 148.215 4.13577 144.962 2.51341C143.864 1.96456 142.92 1.6417 141.693 1.37534C140.862 1.1897 140.749 1.1897 134.413 1.15741L127.972 1.1332V14.2896Z" fill="black"/>
<path d="M37.2891 27.3935H43.5848V10.6857C43.5848 9.58238 42.6904 8.68799 41.5871 8.68799H39.2867C38.1835 8.68799 37.2891 9.58238 37.2891 10.6857V27.3935Z" fill="#2EB7DC"/>
<path d="M-0.000976562 27.4541H6.29473V10.7462C6.29473 9.64293 5.40034 8.74854 4.29706 8.74854H1.9967C0.893414 8.74854 -0.000976562 9.64293 -0.000976562 10.7462V27.4541Z" fill="#2EB7DC"/>
<path d="M-0.000976562 2.93701C-0.000976562 1.83372 0.893414 0.939331 1.9967 0.939331H4.29706C5.40034 0.939331 6.29473 1.83372 6.29473 2.93701V4.3596C6.29473 5.46288 5.40034 6.35727 4.29705 6.35727H1.9967C0.893411 6.35727 -0.000976562 5.46288 -0.000976562 4.3596V2.93701Z" fill="black"/>
<path d="M37.2891 2.93701C37.2891 1.83372 38.1835 0.939331 39.2867 0.939331H41.5871C42.6904 0.939331 43.5848 1.83372 43.5848 2.93701V4.3596C43.5848 5.46288 42.6904 6.35727 41.5871 6.35727H39.2867C38.1835 6.35727 37.2891 5.46288 37.2891 4.3596V2.93701Z" fill="black"/>
<path d="M33.8472 1H9.71973V6.44821L25.3636 6.44821L9.71973 20.8408V27.4136H33.8472V21.9453L18.0388 21.9453L33.8472 7.36867V1Z" fill="#2EB7DC"/>
</svg>
