<svg width="158" height="36" viewBox="0 0 158 36" fill="none" xmlns="http://www.w3.org/2000/svg">
<path d="M61.095 1.07114C57.9342 1.33105 55.377 2.47968 53.0797 4.66796C50.8663 6.78077 49.5249 9.24572 48.9883 12.2053C48.7451 13.53 48.7284 16.0369 48.9547 17.3281C49.2985 19.2816 50.1201 21.2938 51.1933 22.8197C51.864 23.7587 53.5157 25.4272 54.4296 26.0728C56.1735 27.3136 58.1438 28.0682 60.4914 28.3868C60.7932 28.4287 62.8389 28.4707 65.0356 28.4707L69.0432 28.4874L69.06 25.1589C69.0768 23.3395 69.0684 21.822 69.0516 21.8052C69.0349 21.7885 67.4083 21.7717 65.4464 21.7717C63.4845 21.7717 61.5981 21.7298 61.2711 21.6879C59.8709 21.5034 58.6301 20.8997 57.5485 19.8685C56.0981 18.4851 55.4525 16.9256 55.4525 14.8128C55.4525 13.2031 55.7878 12.0628 56.6011 10.8136C57.6491 9.22895 59.4433 8.07193 61.1286 7.88748C61.3969 7.86233 61.6987 7.82041 61.7909 7.81203C61.8831 7.79526 63.5684 7.77849 65.547 7.77849L69.1271 7.7701V4.41643V1.06276H65.656C63.7444 1.06276 62.1347 1.04599 62.0676 1.02922C62.0089 1.01245 61.5729 1.0376 61.095 1.07114Z" fill="white"/>
<path d="M91.2199 1.07122C85.6277 1.10476 83.2801 1.14668 82.9196 1.22214C80.1779 1.77549 78.0232 2.95766 76.0026 4.99502C73.8814 7.14137 72.6406 9.61471 72.1878 12.5911C72.0621 13.4211 72.0118 15.8022 72.104 16.5736C72.3974 18.9212 73.1352 20.9417 74.3593 22.736C74.9294 23.5744 76.3296 25.0751 77.1596 25.7375C78.4257 26.7436 80.2702 27.6575 81.8296 28.0515C83.1711 28.3869 84.1185 28.4624 87.1368 28.4707L90.0042 28.4791V25.1674V21.8556H87.2626C84.303 21.8556 83.7748 21.7969 82.7519 21.3442C81.3266 20.7238 79.8761 19.2565 79.2138 17.7641C78.4424 16.0202 78.4676 13.5217 79.2641 11.7694C79.851 10.4531 81.0834 9.15358 82.2991 8.54153C83.6909 7.83726 83.7999 7.82887 88.4364 7.78695L92.5195 7.75342V18.1163V28.4791H95.7893C98.6399 28.4791 99.0591 28.4624 99.0591 28.3534C99.0675 22.9791 99.0507 1.03768 99.0424 1.0293C99.0256 1.02091 95.5126 1.04607 91.2199 1.07122Z" fill="white"/>
<path d="M114.293 1.02929C114.285 1.03767 113.941 1.06282 113.522 1.08797C111.568 1.20535 109.648 1.8677 107.929 3.00795C106.881 3.70384 105.221 5.36391 104.517 6.42031C103.561 7.87078 102.924 9.44701 102.614 11.1658C102.404 12.306 102.396 14.947 102.597 16.0286C103.033 18.3594 103.997 20.3632 105.49 22.0317C107.527 24.3038 109.9 25.6117 112.792 26.0393C113.262 26.1148 117.923 26.1735 120.313 26.1315C120.48 26.1315 120.48 26.0812 120.464 22.8366L120.447 19.55L117.026 19.4996C114.033 19.4661 113.547 19.441 113.144 19.3068C111.61 18.7954 110.47 17.8563 109.749 16.473C109.304 15.6262 109.103 14.771 109.095 13.681C109.086 12.5743 109.229 11.9623 109.724 10.9562C110.193 9.98359 111.3 8.86011 112.222 8.41575C113.471 7.80371 113.413 7.81209 118.468 7.81209H122.996V18.2504V28.6887L116.163 28.7055L109.329 28.7223L109.304 32.0005L109.288 35.2787L116.724 35.2535L124.17 35.22L124.782 35.0355C125.972 34.6666 126.886 34.0965 127.783 33.1575C128.772 32.1178 129.292 31.0866 129.535 29.6864C129.644 29.0576 129.661 27.037 129.661 14.989V1.0209H121.981C117.756 1.0209 114.301 1.02929 114.293 1.02929Z" fill="white"/>
<path d="M132.932 14.8045V28.4791H136.285H139.639L139.656 18.1414L139.681 7.81211H142.49C145.089 7.82049 145.357 7.83726 146.028 8.00494C147.386 8.34031 148.426 8.93559 149.44 9.95846C150.572 11.0987 151.201 12.4989 151.327 14.1086C151.352 14.4272 151.368 17.7893 151.368 21.5789L151.377 28.4791H154.689H158L157.992 20.9501C157.992 12.9768 157.984 12.851 157.573 11.1239C156.768 7.69473 153.959 4.25721 150.58 2.57199C149.44 2.00187 148.459 1.6665 147.185 1.38982C146.321 1.19699 146.204 1.19699 139.622 1.16345L132.932 1.1383V14.8045Z" fill="white"/>
<path d="M38.7344 28.4162H45.274V9.37604C45.274 9.16054 45.0993 8.98584 44.8838 8.98584H39.1246C38.9091 8.98584 38.7344 9.16054 38.7344 9.37604V28.4162Z" fill="white"/>
<path d="M0 28.4792H6.53967V9.43902C6.53967 9.22352 6.36497 9.04883 6.14947 9.04883H0.390196C0.174697 9.04883 0 9.22352 0 9.43902V28.4792Z" fill="white"/>
<path d="M0 1.32721C0 1.11171 0.174697 0.937012 0.390196 0.937012H6.14947C6.36497 0.937012 6.53967 1.11171 6.53967 1.32721V6.1747C6.53967 6.3902 6.36497 6.5649 6.14947 6.5649H0.390196C0.174696 6.5649 0 6.3902 0 6.1747V1.32721Z" fill="white"/>
<path d="M38.7344 1.32721C38.7344 1.11171 38.9091 0.937012 39.1246 0.937012H44.8838C45.0993 0.937012 45.274 1.11171 45.274 1.32721V6.1747C45.274 6.3902 45.0993 6.5649 44.8838 6.5649H39.1246C38.9091 6.5649 38.7344 6.3902 38.7344 6.1747V1.32721Z" fill="white"/>
<path d="M35.16 0.999878H10.0977V6.6592L26.3478 6.6592L10.0977 21.6095V28.437H35.16V22.7568L18.7391 22.7568L35.16 7.61533V0.999878Z" fill="white"/>
</svg>
