<svg width="44" height="44" viewBox="0 0 44 44" fill="none" xmlns="http://www.w3.org/2000/svg">
<rect width="44" height="44" rx="11" fill="#BDEDFE"/>
<path d="M23.137 23.1563C21.9437 22.4465 20.1171 21.9919 18.0684 21.9919C16.0197 21.9919 14.1933 22.4465 13 23.1563H11.5586V25.1156C11.5586 26.8408 14.4732 28.2394 18.0684 28.2394C21.6637 28.2394 24.5783 26.8408 24.5783 25.1156V23.1563H23.137Z" fill="#238CA8"/>
<path d="M18.0687 26.2799C21.664 26.2799 24.5785 24.8814 24.5785 23.1562C24.5785 21.431 21.664 20.0325 18.0687 20.0325C14.4734 20.0325 11.5588 21.431 11.5588 23.1562C11.5588 24.8814 14.4734 26.2799 18.0687 26.2799Z" fill="#6BC3E3"/>
<path d="M15.9475 23.7574C16.2439 23.8213 16.5162 23.8677 16.7641 23.8967C17.0121 23.9257 17.2254 23.9403 17.4038 23.9403C17.5611 23.9403 17.6956 23.9218 17.8077 23.8848C17.9194 23.8478 17.9755 23.7966 17.9755 23.7314C17.9755 23.7155 17.9716 23.6992 17.9641 23.6825C17.9565 23.6658 17.9452 23.6501 17.9301 23.6358C17.9149 23.6212 17.8907 23.6027 17.8576 23.5803C17.8244 23.5578 17.7956 23.5408 17.7714 23.5292C17.7471 23.5175 17.6504 23.4726 17.4811 23.3943C16.9972 23.1696 16.6749 23.0108 16.5147 22.918C16.3906 22.8455 16.2947 22.7648 16.2266 22.6754C16.1586 22.5862 16.1246 22.4989 16.1246 22.4133C16.1246 22.3466 16.145 22.281 16.1858 22.2165C16.2266 22.1519 16.2863 22.0906 16.3649 22.0327C16.4435 21.9747 16.5381 21.9225 16.6485 21.8761C16.7589 21.8297 16.8799 21.7917 17.0115 21.762C17.1431 21.7323 17.3388 21.7014 17.5989 21.6695C17.6049 21.6231 17.608 21.5955 17.608 21.5868L17.6034 21.4453V21.197C17.9331 21.2 18.2069 21.2013 18.4247 21.2013C18.6666 21.2013 18.9387 21.2 19.2413 21.197C19.2261 21.3581 19.2186 21.4524 19.2186 21.48V21.6672C19.518 21.6877 19.813 21.7172 20.1034 21.7565C20.1246 21.991 20.1534 22.234 20.1896 22.4858C19.9445 22.4321 19.7185 22.3936 19.5113 22.3705C19.3041 22.3472 19.1325 22.3356 18.9963 22.3356C18.8421 22.3356 18.7142 22.3527 18.6131 22.3867C18.5116 22.4209 18.4611 22.4648 18.4611 22.5185C18.4611 22.5649 18.4906 22.6086 18.5495 22.6491C18.6085 22.6897 18.6924 22.7348 18.8014 22.7842C19.1944 22.9612 19.4842 23.1026 19.6702 23.2086C19.8562 23.3145 19.9869 23.415 20.0627 23.5101C20.1383 23.6051 20.1761 23.6992 20.1761 23.792C20.1761 23.869 20.1556 23.9412 20.1147 24.0086C20.0739 24.0761 20.0142 24.1383 19.9356 24.1948C19.857 24.2514 19.7663 24.3024 19.6633 24.3473C19.5604 24.3923 19.4546 24.4308 19.3457 24.4626C19.2368 24.4945 19.0764 24.5317 18.8648 24.5737L18.8557 24.8502C18.8557 24.9416 18.8571 25.0301 18.8601 25.1159C18.5304 25.1129 18.2688 25.1115 18.0753 25.1115C17.8816 25.1115 17.5958 25.113 17.2178 25.1159C17.2329 25.0143 17.2405 24.8858 17.2405 24.7305V24.6413C16.9954 24.6253 16.7905 24.6086 16.6257 24.5913C16.4608 24.5739 16.2589 24.5463 16.02 24.5086C15.9988 24.1442 15.9747 23.8938 15.9475 23.7574Z" fill="#FFFAD1"/>
<path d="M23.137 20.6692C21.9437 19.9594 20.1171 19.5049 18.0684 19.5049C16.0197 19.5049 14.1933 19.9594 13 20.6692H11.5586V22.6286C11.5586 24.3537 14.4732 25.7523 18.0684 25.7523C21.6637 25.7523 24.5783 24.3537 24.5783 22.6286V20.6692H23.137Z" fill="#238CA8"/>
<path d="M18.0687 23.7931C21.664 23.7931 24.5785 22.3945 24.5785 20.6694C24.5785 18.9442 21.664 17.5457 18.0687 17.5457C14.4734 17.5457 11.5588 18.9442 11.5588 20.6694C11.5588 22.3945 14.4734 23.7931 18.0687 23.7931Z" fill="#6BC3E3"/>
<path d="M15.9475 21.2697C16.2439 21.3336 16.5162 21.38 16.7641 21.4091C17.0121 21.4382 17.2254 21.4526 17.4038 21.4526C17.5611 21.4526 17.6956 21.4341 17.8077 21.3971C17.9194 21.3601 17.9755 21.309 17.9755 21.2438C17.9755 21.2278 17.9716 21.2115 17.9641 21.1948C17.9565 21.1781 17.9452 21.1626 17.9301 21.148C17.9149 21.1335 17.8907 21.115 17.8576 21.0925C17.8244 21.07 17.7956 21.053 17.7714 21.0413C17.7471 21.0297 17.6504 20.9846 17.4811 20.9065C16.9972 20.6818 16.6749 20.5231 16.5147 20.4301C16.3906 20.3576 16.2947 20.2769 16.2266 20.1876C16.1586 20.0985 16.1246 20.0111 16.1246 19.9255C16.1246 19.8588 16.145 19.7933 16.1858 19.7287C16.2266 19.6641 16.2863 19.6028 16.3649 19.5449C16.4435 19.4869 16.5381 19.4346 16.6485 19.3882C16.7589 19.3419 16.8799 19.3038 17.0115 19.2741C17.1431 19.2444 17.3388 19.2136 17.5989 19.1816C17.6049 19.1352 17.608 19.1076 17.608 19.099L17.6034 18.9577V18.7095C17.9331 18.7125 18.2069 18.7138 18.4247 18.7138C18.6666 18.7138 18.9387 18.7125 19.2413 18.7095C19.2261 18.8706 19.2186 18.9649 19.2186 18.9925V19.1797C19.518 19.2001 19.813 19.2297 20.1034 19.2689C20.1246 19.5034 20.1534 19.7464 20.1896 19.9982C19.9445 19.9445 19.7185 19.9061 19.5113 19.8829C19.3041 19.8597 19.1325 19.848 18.9963 19.848C18.8421 19.848 18.7142 19.8652 18.6131 19.8992C18.5116 19.9334 18.4611 19.9772 18.4611 20.0309C18.4611 20.0773 18.4906 20.1209 18.5495 20.1616C18.6085 20.2022 18.6924 20.2472 18.8014 20.2966C19.1944 20.4737 19.4842 20.6151 19.6702 20.7212C19.8562 20.8271 19.9869 20.9277 20.0627 21.0227C20.1383 21.1177 20.1761 21.2117 20.1761 21.3046C20.1761 21.3816 20.1556 21.4538 20.1147 21.5212C20.0739 21.5887 20.0142 21.6507 19.9356 21.7074C19.857 21.764 19.7663 21.8148 19.6633 21.8599C19.5604 21.9049 19.4546 21.9433 19.3457 21.9752C19.2368 22.0071 19.0764 22.0443 18.8648 22.0864L18.8557 22.3628C18.8557 22.4542 18.8571 22.5427 18.8601 22.6285C18.5304 22.6255 18.2688 22.6241 18.0753 22.6241C17.8816 22.6241 17.5958 22.6256 17.2178 22.6285C17.2329 22.5269 17.2405 22.3984 17.2405 22.2431V22.1539C16.9954 22.138 16.7905 22.1212 16.6257 22.1039C16.4608 22.0865 16.2589 22.0589 16.02 22.0212C15.9988 21.6564 15.9747 21.4061 15.9475 21.2697Z" fill="#FFFAD1"/>
<path d="M23.137 18.1815C21.9437 17.4716 20.1171 17.0171 18.0684 17.0171C16.0197 17.0171 14.1933 17.4716 13 18.1815H11.5586V20.1408C11.5586 21.8659 14.4732 23.2645 18.0684 23.2645C21.6637 23.2645 24.5783 21.8659 24.5783 20.1408V18.1815H23.137Z" fill="#238CA8"/>
<path d="M18.0687 21.3055C21.664 21.3055 24.5785 19.907 24.5785 18.1818C24.5785 16.4566 21.664 15.0581 18.0687 15.0581C14.4734 15.0581 11.5588 16.4566 11.5588 18.1818C11.5588 19.907 14.4734 21.3055 18.0687 21.3055Z" fill="#6BC3E3"/>
<path d="M15.9475 18.7824C16.2439 18.8463 16.5162 18.8927 16.7641 18.9218C17.0121 18.9508 17.2254 18.9653 17.4038 18.9653C17.5611 18.9653 17.6956 18.9468 17.8077 18.9098C17.9194 18.8728 17.9755 18.8217 17.9755 18.7565C17.9755 18.7405 17.9716 18.7242 17.9641 18.7077C17.9565 18.691 17.9452 18.6755 17.9301 18.6608C17.9149 18.6462 17.8907 18.6279 17.8576 18.6053C17.8244 18.5828 17.7956 18.5658 17.7714 18.5543C17.7471 18.5427 17.6504 18.4976 17.4811 18.4195C16.9972 18.1948 16.6749 18.0361 16.5147 17.9431C16.3906 17.8706 16.2947 17.7898 16.2266 17.7006C16.1586 17.6114 16.1246 17.5241 16.1246 17.4384C16.1246 17.3718 16.145 17.3063 16.1858 17.2417C16.2266 17.1772 16.2863 17.1158 16.3649 17.0579C16.4435 16.9998 16.5381 16.9476 16.6485 16.9012C16.7589 16.8548 16.8799 16.8168 17.0115 16.7871C17.1431 16.7574 17.3388 16.7265 17.5989 16.6946C17.6049 16.6482 17.608 16.6206 17.608 16.612L17.6034 16.4704V16.2222C17.9331 16.2252 18.2069 16.2265 18.4247 16.2265C18.6666 16.2265 18.9387 16.2252 19.2413 16.2222C19.2261 16.3833 19.2186 16.4776 19.2186 16.5052V16.6924C19.518 16.7128 19.813 16.7425 20.1034 16.7816C20.1246 17.0161 20.1534 17.2591 20.1896 17.511C19.9445 17.4572 19.7185 17.4188 19.5113 17.3956C19.3041 17.3724 19.1325 17.3607 18.9963 17.3607C18.8421 17.3607 18.7142 17.3779 18.6131 17.4119C18.5116 17.4461 18.4611 17.4899 18.4611 17.5436C18.4611 17.59 18.4906 17.6337 18.5495 17.6743C18.6085 17.7149 18.6924 17.7599 18.8014 17.8093C19.1944 17.9864 19.4842 18.1278 19.6702 18.2337C19.8562 18.3397 19.9869 18.4403 20.0627 18.5352C20.1383 18.6303 20.1761 18.7244 20.1761 18.8172C20.1761 18.8942 20.1556 18.9664 20.1147 19.0338C20.0739 19.1012 20.0142 19.1633 19.9356 19.22C19.857 19.2765 19.7663 19.3274 19.6633 19.3724C19.5604 19.4175 19.4546 19.456 19.3457 19.4878C19.2368 19.5197 19.0764 19.5567 18.8648 19.5987L18.8557 19.8753C18.8557 19.9668 18.8571 20.0552 18.8601 20.141C18.5304 20.138 18.2688 20.1367 18.0753 20.1367C17.8816 20.1367 17.5958 20.1382 17.2178 20.141C17.2329 20.0394 17.2405 19.911 17.2405 19.7557V19.6665C16.9954 19.6505 16.7905 19.6338 16.6257 19.6165C16.4608 19.599 16.2589 19.5714 16.02 19.5337C15.9988 19.1692 15.9747 18.9189 15.9475 18.7824Z" fill="#FFFAD1"/>
<path d="M23.137 15.6946C21.9437 14.9848 20.1171 14.5303 18.0684 14.5303C16.0197 14.5303 14.1933 14.9848 13 15.6946H11.5586V17.654C11.5586 19.3791 14.4732 20.7777 18.0684 20.7777C21.6637 20.7777 24.5783 19.3791 24.5783 17.654V15.6946H23.137Z" fill="#238CA8"/>
<path d="M18.0687 18.8182C21.664 18.8182 24.5785 17.4197 24.5785 15.6945C24.5785 13.9693 21.664 12.5708 18.0687 12.5708C14.4734 12.5708 11.5588 13.9693 11.5588 15.6945C11.5588 17.4197 14.4734 18.8182 18.0687 18.8182Z" fill="#6BC3E3"/>
<path d="M15.9475 16.2951C16.2439 16.359 16.5162 16.4054 16.7641 16.4345C17.0121 16.4635 17.2254 16.478 17.4038 16.478C17.5611 16.478 17.6956 16.4595 17.8077 16.4225C17.9194 16.3855 17.9755 16.3343 17.9755 16.2692C17.9755 16.2532 17.9716 16.2369 17.9641 16.2204C17.9565 16.2037 17.9452 16.1881 17.9301 16.1735C17.9149 16.1589 17.8907 16.1406 17.8576 16.118C17.8244 16.0955 17.7956 16.0785 17.7714 16.067C17.7471 16.0554 17.6504 16.0103 17.4811 15.9322C16.9972 15.7075 16.6749 15.5488 16.5147 15.4558C16.3906 15.3833 16.2947 15.3025 16.2266 15.2132C16.1586 15.124 16.1246 15.0368 16.1246 14.9511C16.1246 14.8845 16.145 14.819 16.1858 14.7544C16.2266 14.6899 16.2863 14.6285 16.3649 14.5706C16.4435 14.5127 16.5381 14.4605 16.6485 14.4139C16.7589 14.3675 16.8799 14.3295 17.0115 14.2998C17.1431 14.2701 17.3388 14.2392 17.5989 14.2073C17.6049 14.1609 17.608 14.1333 17.608 14.1247L17.6034 13.9831V13.7349C17.9331 13.7378 18.2069 13.7392 18.4247 13.7392C18.6666 13.7392 18.9387 13.7378 19.2413 13.7349C19.2261 13.896 19.2186 13.9904 19.2186 14.0179V14.2051C19.518 14.2255 19.813 14.2552 20.1034 14.2943C20.1246 14.5288 20.1534 14.7718 20.1896 15.0236C19.9445 14.9699 19.7185 14.9314 19.5113 14.9083C19.3041 14.885 19.1325 14.8734 18.9963 14.8734C18.8421 14.8734 18.7142 14.8906 18.6131 14.9246C18.5116 14.9587 18.4611 15.0026 18.4611 15.0563C18.4611 15.1027 18.4906 15.1463 18.5495 15.187C18.6085 15.2276 18.6924 15.2726 18.8014 15.322C19.1944 15.4991 19.4842 15.6405 19.6702 15.7464C19.8562 15.8523 19.9869 15.9529 20.0627 16.0479C20.1383 16.143 20.1761 16.2371 20.1761 16.3299C20.1761 16.4068 20.1556 16.4791 20.1147 16.5465C20.0739 16.6139 20.0142 16.676 19.9356 16.7327C19.857 16.7892 19.7663 16.8401 19.6633 16.8851C19.5604 16.9302 19.4546 16.9685 19.3457 17.0004C19.2368 17.0324 19.0764 17.0694 18.8648 17.1114L18.8557 17.3879C18.8557 17.4793 18.8571 17.5678 18.8601 17.6536C18.5304 17.6506 18.2688 17.6492 18.0753 17.6492C17.8816 17.6492 17.5958 17.6507 17.2178 17.6536C17.2329 17.552 17.2405 17.4234 17.2405 17.2682V17.179C16.9954 17.163 16.7905 17.1463 16.6257 17.1289C16.4608 17.1114 16.2589 17.0838 16.02 17.0461C15.9988 16.6818 15.9747 16.4315 15.9475 16.2951Z" fill="#FFFAD1"/>
<path d="M23.137 13.2068C21.9437 12.497 20.1171 12.0425 18.0684 12.0425C16.0197 12.0425 14.1933 12.497 13 13.2068H11.5586V15.1662C11.5586 16.8913 14.4732 18.2899 18.0684 18.2899C21.6637 18.2899 24.5783 16.8913 24.5783 15.1662V13.2068H23.137Z" fill="#238CA8"/>
<path d="M18.0687 16.3307C21.664 16.3307 24.5785 14.9321 24.5785 13.207C24.5785 11.4818 21.664 10.0833 18.0687 10.0833C14.4734 10.0833 11.5588 11.4818 11.5588 13.207C11.5588 14.9321 14.4734 16.3307 18.0687 16.3307Z" fill="#6BC3E3"/>
<path d="M33.392 25.3004C32.1987 24.5906 30.3721 24.136 28.3236 24.136C26.275 24.136 24.4484 24.5906 23.2551 25.3004H21.8137V27.2597C21.8137 28.9848 24.7283 30.3834 28.3236 30.3834C31.9188 30.3834 34.8334 28.9848 34.8334 27.2597V25.3004H33.392Z" fill="#238CA8"/>
<path d="M28.3236 28.4242C31.9188 28.4242 34.8334 27.0256 34.8334 25.3005C34.8334 23.5753 31.9188 22.1768 28.3236 22.1768C24.7283 22.1768 21.8137 23.5753 21.8137 25.3005C21.8137 27.0256 24.7283 28.4242 28.3236 28.4242Z" fill="#6BC3E3"/>
<path d="M26.2024 25.9014C26.4988 25.9652 26.7711 26.0116 27.019 26.0407C27.267 26.0698 27.4803 26.0843 27.6587 26.0843C27.8159 26.0843 27.9505 26.0658 28.0625 26.0288C28.1744 25.9918 28.2304 25.9406 28.2304 25.8754C28.2304 25.8594 28.2265 25.8432 28.219 25.8265C28.2114 25.8098 28.2001 25.7941 28.185 25.7796C28.1698 25.765 28.1456 25.7467 28.1124 25.7241C28.0791 25.7016 28.0503 25.6846 28.0261 25.673C28.0018 25.6613 27.9052 25.6164 27.7358 25.5381C27.2519 25.3134 26.9298 25.1546 26.7694 25.0618C26.6455 24.9893 26.5494 24.9084 26.4814 24.8192C26.4133 24.73 26.3793 24.6427 26.3793 24.5571C26.3793 24.4904 26.3998 24.4248 26.4405 24.3603C26.4814 24.2957 26.541 24.2344 26.6197 24.1765C26.6983 24.1185 26.7927 24.0663 26.9032 24.0199C27.0136 23.9735 27.1346 23.9355 27.2662 23.9058C27.3978 23.8761 27.5935 23.8452 27.8537 23.8133C27.8596 23.7669 27.8628 23.7393 27.8628 23.7306L27.8582 23.589V23.3408C28.1878 23.3438 28.4616 23.3451 28.6794 23.3451C28.9214 23.3451 29.1935 23.3438 29.496 23.3408C29.4808 23.5019 29.4732 23.5964 29.4732 23.6238V23.811C29.7726 23.8315 30.0675 23.8612 30.358 23.9003C30.3792 24.1348 30.408 24.3778 30.4442 24.6296C30.1991 24.5759 29.9731 24.5374 29.7659 24.5143C29.5587 24.491 29.3871 24.4794 29.2509 24.4794C29.0967 24.4794 28.9688 24.4965 28.8675 24.5305C28.7661 24.5647 28.7155 24.6086 28.7155 24.6623C28.7155 24.7087 28.745 24.7524 28.804 24.793C28.8629 24.8335 28.9469 24.8786 29.0558 24.9279C29.449 25.105 29.7386 25.2465 29.9248 25.3525C30.1106 25.4584 30.2415 25.559 30.3171 25.654C30.3928 25.7491 30.4305 25.8432 30.4305 25.936C30.4305 26.013 30.4101 26.0852 30.3693 26.1526C30.3285 26.22 30.2688 26.2821 30.1902 26.3388C30.1115 26.3953 30.0208 26.4462 29.9179 26.4911C29.815 26.5361 29.7092 26.5746 29.6003 26.6066C29.4914 26.6385 29.3312 26.6756 29.1193 26.7177L29.1102 26.9941C29.1102 27.0856 29.1117 27.174 29.1147 27.2598C28.785 27.2568 28.5234 27.2553 28.3299 27.2553C28.1362 27.2553 27.8504 27.2568 27.4724 27.2598C27.4874 27.1582 27.4951 27.0298 27.4951 26.8745V26.7853C27.2499 26.7693 27.0451 26.7526 26.8803 26.7351C26.7154 26.7177 26.5134 26.6901 26.2746 26.6523C26.2539 26.288 26.2295 26.0377 26.2024 25.9014Z" fill="#FFFAD1"/>
<path d="M33.392 22.8133C32.1987 22.1035 30.3721 21.6489 28.3236 21.6489C26.275 21.6489 24.4484 22.1035 23.2551 22.8133H21.8137V24.7726C21.8137 26.4978 24.7283 27.8964 28.3236 27.8964C31.9188 27.8964 34.8334 26.4978 34.8334 24.7726V22.8133H33.392Z" fill="#238CA8"/>
<path d="M28.3236 25.9369C31.9188 25.9369 34.8334 24.5384 34.8334 22.8132C34.8334 21.088 31.9188 19.6895 28.3236 19.6895C24.7283 19.6895 21.8137 21.088 21.8137 22.8132C21.8137 24.5384 24.7283 25.9369 28.3236 25.9369Z" fill="#6BC3E3"/>
<path d="M26.2024 23.4138C26.4988 23.4777 26.7711 23.5241 27.019 23.553C27.267 23.5821 27.4803 23.5966 27.6587 23.5966C27.8159 23.5966 27.9505 23.5781 28.0625 23.5411C28.1744 23.5041 28.2304 23.4529 28.2304 23.3877C28.2304 23.3717 28.2265 23.3555 28.219 23.3388C28.2114 23.3221 28.2001 23.3064 28.185 23.2921C28.1698 23.2775 28.1456 23.259 28.1124 23.2366C28.0791 23.2141 28.0503 23.1971 28.0261 23.1854C28.0018 23.1738 27.9052 23.1289 27.7358 23.0506C27.2519 22.8259 26.9298 22.667 26.7694 22.5742C26.6455 22.5017 26.5494 22.421 26.4814 22.3316C26.4133 22.2426 26.3793 22.1552 26.3793 22.0695C26.3793 22.0029 26.3998 21.9372 26.4405 21.8728C26.4814 21.8082 26.541 21.7469 26.6197 21.689C26.6983 21.6309 26.7927 21.5787 26.9032 21.5323C27.0136 21.486 27.1346 21.4479 27.2662 21.4182C27.3978 21.3885 27.5935 21.3577 27.8537 21.3257C27.8596 21.2793 27.8628 21.2517 27.8628 21.2431L27.8582 21.1015V20.8533C28.1878 20.8563 28.4616 20.8576 28.6794 20.8576C28.9214 20.8576 29.1935 20.8563 29.496 20.8533C29.4808 21.0144 29.4732 21.1087 29.4732 21.1363V21.3235C29.7726 21.3439 30.0675 21.3735 30.358 21.4127C30.3792 21.6472 30.408 21.8902 30.4442 22.142C30.1991 22.0883 29.9731 22.0499 29.7659 22.0266C29.5587 22.0033 29.3871 21.9917 29.2509 21.9917C29.0967 21.9917 28.9688 22.0088 28.8675 22.0428C28.7661 22.077 28.7155 22.1209 28.7155 22.1746C28.7155 22.221 28.745 22.2647 28.804 22.3052C28.8629 22.3458 28.9469 22.3909 29.0558 22.4403C29.449 22.6173 29.7386 22.7587 29.9248 22.8648C30.1106 22.9707 30.2415 23.0713 30.3171 23.1663C30.3928 23.2614 30.4305 23.3555 30.4305 23.4483C30.4305 23.5252 30.4101 23.5975 30.3693 23.6649C30.3285 23.7323 30.2688 23.7944 30.1902 23.8511C30.1115 23.9076 30.0208 23.9585 29.9179 24.0034C29.815 24.0484 29.7092 24.0868 29.6003 24.1187C29.4914 24.1506 29.3312 24.1878 29.1193 24.2298L29.1102 24.5063C29.1102 24.5977 29.1117 24.6862 29.1147 24.772C28.785 24.769 28.5234 24.7676 28.3299 24.7676C28.1362 24.7676 27.8504 24.7691 27.4724 24.772C27.4874 24.6704 27.4951 24.5419 27.4951 24.3866V24.2974C27.2499 24.2814 27.0451 24.2647 26.8803 24.2474C26.7154 24.23 26.5134 24.2024 26.2746 24.1646C26.2539 23.8005 26.2295 23.5502 26.2024 23.4138Z" fill="#FFFAD1"/>
<path d="M33.392 20.3255C32.1987 19.6157 30.3721 19.1611 28.3236 19.1611C26.275 19.1611 24.4484 19.6157 23.2551 20.3255H21.8137V22.2848C21.8137 24.01 24.7283 25.4085 28.3236 25.4085C31.9188 25.4085 34.8334 24.01 34.8334 22.2848V20.3255H33.392Z" fill="#238CA8"/>
<path d="M28.3236 23.4496C31.9188 23.4496 34.8334 22.051 34.8334 20.3259C34.8334 18.6007 31.9188 17.2021 28.3236 17.2021C24.7283 17.2021 21.8137 18.6007 21.8137 20.3259C21.8137 22.051 24.7283 23.4496 28.3236 23.4496Z" fill="#6BC3E3"/>
<path d="M20.745 28.2395C19.5517 27.5297 17.7251 27.0752 15.6766 27.0752C13.628 27.0752 11.8014 27.5296 10.6081 28.2395H9.16675V30.1989C9.16675 31.924 12.0813 33.3226 15.6766 33.3226C19.2719 33.3226 22.1864 31.924 22.1864 30.1989V28.2395H20.745Z" fill="#238CA8"/>
<path d="M15.6766 31.3634C19.2719 31.3634 22.1864 29.9648 22.1864 28.2397C22.1864 26.5145 19.2719 25.116 15.6766 25.116C12.0813 25.116 9.16675 26.5145 9.16675 28.2397C9.16675 29.9648 12.0813 31.3634 15.6766 31.3634Z" fill="#6BC3E3"/>
</svg>
