<svg width="49" height="96" viewBox="0 0 49 96" fill="none" xmlns="http://www.w3.org/2000/svg">
<path d="M0.238878 50.0903C0.210996 50.3659 0.181628 50.3484 0.154096 50.1856C-0.000666976 49.269 0.602506 48.3935 1.50509 48.1721L42.5656 38.0872C43.6057 37.8317 44.6374 38.535 44.779 39.5966L48.9837 71.0351C49.1031 71.9281 48.544 72.7715 47.6753 73.0098L7.70483 83.9656C6.67192 84.2488 5.62171 83.5726 5.4518 82.5153L0.238878 50.0903Z" fill="#371A13"/>
<path d="M42.5656 38.0872L1.50509 48.1721C0.602506 48.3935 -0.000666976 49.269 0.154096 50.1856C0.181628 50.3485 0.210996 50.366 0.238878 50.0903L0.257087 50.2031C0.396059 49.5487 0.908068 49.0027 1.59375 48.8346L42.6542 38.7497C43.6943 38.4942 44.7257 39.1978 44.8679 40.2589L44.779 39.5967C44.6374 38.535 43.6057 37.8317 42.5656 38.0872Z" fill="#79402C"/>
<path d="M44.84 40.3754L1.89083 51.05C0.988246 51.2717 0.385075 52.1469 0.539838 53.0634C0.567399 53.2263 0.596737 53.2441 0.624618 52.9682L0.642827 53.0809C0.781799 52.4266 1.29381 51.8809 1.97949 51.7125L44.9285 41.0379L44.84 40.3754Z" fill="#5C3123"/>
<path d="M45.1865 42.9702L2.23751 53.6448C1.33493 53.8665 0.731755 54.7414 0.886517 55.6583C0.914166 55.8212 0.943416 55.8386 0.971298 55.5627L0.989507 55.6758C1.12848 55.0214 1.64049 54.4754 2.32617 54.307L45.2751 43.6327L45.1865 42.9702Z" fill="#5C3123"/>
<path d="M45.505 45.348L2.55579 56.0226C1.6532 56.2443 1.05003 57.1198 1.20491 58.0361C1.23235 58.1992 1.26169 58.2164 1.28969 57.9408L1.30778 58.0539C1.44687 57.3995 1.95877 56.8535 2.64445 56.6851L45.5935 46.0105L45.505 45.348Z" fill="#5C3123"/>
<path d="M0.697954 51.4824L44.8576 40.3906L44.7865 40.108L0.626953 51.2001" fill="#271210"/>
<path d="M1.03685 54.0098L45.1965 42.9177L45.1257 42.6351L0.96582 53.7272" fill="#271210"/>
<path d="M1.37374 56.5381L45.5333 45.446L45.4625 45.1634L1.30273 56.2555" fill="#271210"/>
<path d="M42.8361 40.8816L41.1 41.3285L38.9516 41.8803L21.7765 46.2965L13.5673 48.4085L6.36914 50.2588C7.3614 50.0039 8.54593 48.8758 9.3924 48.3304C12.1027 46.5843 14.7953 44.8109 17.4678 43.0081C22.8667 39.3651 29.5951 36.4208 31.9063 29.8501C33.6733 32.8949 36.2488 35.4654 39.2971 37.2266C39.6782 37.4469 43.2032 40.7872 42.8361 40.8816Z" fill="#92C860"/>
<path d="M41.1001 41.3282L38.9517 41.88L21.7766 46.2962L13.5674 48.4082C19.5423 45.2165 32.3172 38.1406 37.9066 33.1193L41.1001 41.3282Z" fill="#467837"/>
<path d="M38.9515 41.8807L21.7764 46.2969C25.8677 43.8979 33.3247 39.3911 33.4937 39.2921C33.4724 39.4182 32.869 42.8852 38.4553 40.983L38.9515 41.8807Z" fill="#AEDE76"/>
<path d="M4.62431 84.0245L0.0196841 50.9874C-0.157862 49.7127 0.890195 48.6013 2.17302 48.7041L38.3607 51.603C39.3332 51.6811 40.1099 52.4459 40.2029 53.4172L44.0172 93.2997C44.1512 94.7028 42.839 95.8053 41.4804 95.4312L6.08287 85.6863C5.3085 85.4733 4.73516 84.8201 4.62431 84.0245Z" fill="#5C3123"/>
<path d="M6.56164 84.9404L1.95702 51.9034C1.77939 50.6287 2.82753 49.5175 4.11038 49.6201L39.9635 52.4925C39.6282 52.0211 39.0953 51.7012 38.4846 51.6522L2.29696 48.753C1.01426 48.6502 -0.0340029 49.7617 0.143747 51.0363L4.74814 84.0734C4.85923 84.8691 5.43245 85.5223 6.2069 85.7355L7.01882 85.959C6.77866 85.6746 6.61513 85.3247 6.56164 84.9404Z" fill="#79402C"/>
<path d="M42.1005 85.7804C27.8371 85.679 13.768 79.874 4.17773 69.2617L6.3875 85.7857L41.604 95.4808L41.6232 95.4857C42.5022 95.7187 43.3253 94.9385 43.2047 94.0368L42.1005 85.7804Z" fill="#371A13"/>
<path d="M2.45676 49.9466L38.6443 52.8461C39.4778 52.9125 40.164 53.4856 40.4026 54.2588L40.3268 53.466C40.2339 52.4947 39.4574 51.7299 38.4846 51.6521L2.29696 48.7529C1.01426 48.6501 -0.0340029 49.7616 0.143747 51.0362L0.293964 52.1148C0.193246 50.8897 1.21295 49.8472 2.45676 49.9466Z" fill="#79402C"/>
<path d="M15.1086 23.484C16.1948 27.6945 14.6457 31.7346 11.6483 32.5079C8.65115 33.2811 5.34063 30.495 4.25423 26.2844C3.16795 22.0742 4.71709 18.0338 7.7143 17.2606C10.7117 16.4871 14.0222 19.2735 15.1086 23.484Z" fill="#F47924"/>
<path d="M7.71484 17.2606L9.41018 16.834L13.339 32.0609L11.6489 32.5078L7.71484 17.2606Z" fill="#F47924"/>
<path d="M16.5186 23.1195C17.6051 27.3303 16.0557 31.3704 13.0586 32.1436C10.0613 32.9168 6.75073 30.1307 5.66445 25.9202C4.57805 21.7099 6.12719 17.6696 9.12452 16.8963C12.1219 16.1228 15.4322 18.9093 16.5186 23.1195Z" fill="#F9CE2D"/>
<path d="M15.4127 23.4056C16.2208 26.5384 15.0683 29.5445 12.838 30.1199C10.6078 30.6953 8.14467 28.6221 7.3363 25.4893C6.52805 22.3565 7.68079 19.3503 9.91089 18.7749C12.1411 18.1995 14.6042 20.2727 15.4127 23.4056Z" fill="#F78E29"/>
<path d="M9.91031 18.7748C9.78095 18.8083 9.65596 18.8514 9.53418 18.9009C11.6546 18.6434 13.884 20.6522 14.6455 23.6032C15.4068 26.5543 14.4273 29.3908 12.447 30.1914C12.5779 30.1754 12.7081 30.1529 12.8375 30.1197C15.0677 29.5443 16.2203 26.5382 15.4121 23.4054C14.6036 20.2726 12.1406 18.1993 9.91031 18.7748Z" fill="#F47924"/>
<path d="M29.1185 10.0747C27.0669 13.9086 23.1908 15.8323 20.4618 14.3715C17.7324 12.911 17.1836 8.6189 19.2352 4.78538C21.2871 0.951566 25.1626 -0.972185 27.8919 0.488327C30.6213 1.94884 31.1702 6.24094 29.1185 10.0747Z" fill="#F47924"/>
<path d="M27.8911 0.488556L29.4274 1.32268L22.0071 15.1875L20.4609 14.3717L27.8911 0.488556Z" fill="#F47924"/>
<path d="M30.4026 10.762C28.3509 14.5958 24.4752 16.5198 21.7459 15.059C19.0168 13.5985 18.4676 9.30643 20.5193 5.47262C22.5712 1.63881 26.447 -0.284939 29.1763 1.17557C31.9054 2.63638 32.4545 6.92818 30.4026 10.762Z" fill="#F9CE2D"/>
<path d="M29.3944 10.2225C27.8678 13.0751 24.9841 14.5064 22.9531 13.4194C20.9227 12.3327 20.5139 9.13927 22.0406 6.28671C23.5672 3.43415 26.4513 2.00278 28.4816 3.08949C30.5126 4.1765 30.9211 7.36994 29.3944 10.2225Z" fill="#F78E29"/>
<path d="M28.4814 3.08949C28.3637 3.02656 28.2425 2.97383 28.1192 2.9275C29.8539 4.17388 30.1342 7.16191 28.6961 9.84899C27.258 12.5361 24.6164 13.9602 22.6172 13.2082C22.7241 13.2848 22.8351 13.3565 22.9531 13.4194C24.9838 14.5064 27.8675 13.0751 29.3942 10.2225C30.9208 7.36994 30.5123 4.1765 28.4814 3.08949Z" fill="#F47924"/>
<path d="M4.21838 32.5518C4.26892 32.4525 4.13179 32.3261 4.05371 32.4248C2.56342 34.3081 1.75255 36.8865 1.38962 39.2298C1.01131 41.6733 1.1365 44.1657 1.80921 46.5463C1.85292 46.701 2.08838 46.6361 2.04981 46.4802C1.46141 44.0993 1.33257 41.6235 1.73227 39.2006C2.13173 36.7804 3.11936 34.7151 4.21838 32.5518Z" fill="#E4B93B"/>
<path d="M21.4271 21.8754C21.3852 21.7411 21.1565 21.7568 21.1702 21.9101C21.2727 23.0716 21.4289 24.175 21.3153 25.3462C21.1987 26.5477 20.8954 27.734 20.4371 28.8502C19.4923 31.1492 17.8584 33.1365 15.7689 34.4839C15.6463 34.5629 15.7579 34.7575 15.8837 34.6806C18.0388 33.3658 19.6887 31.384 20.6769 29.0652C21.5824 26.941 22.1325 24.1391 21.4271 21.8754Z" fill="#E4B93B"/>
</svg>
