<svg width="24" height="24" viewBox="0 0 24 24" fill="none" xmlns="http://www.w3.org/2000/svg">
<path d="M17.4727 2.85819C17.3074 2.71728 17.1134 2.61399 16.9042 2.55545C16.6951 2.49692 16.4757 2.48454 16.2612 2.51919L3.81227 4.52712C3.16617 4.62903 2.57787 4.95878 2.15377 5.45674C1.72967 5.95471 1.49777 6.588 1.50002 7.24208V8.49987C1.50002 8.63248 1.5527 8.75967 1.64647 8.85344C1.74024 8.94721 1.86742 8.99989 2.00003 8.99989H17.5C17.6326 8.99989 17.7598 8.94721 17.8536 8.85344C17.9473 8.75967 18 8.63248 18 8.49987V4.00015C18.0002 3.78295 17.9531 3.56831 17.8621 3.37112C17.771 3.17392 17.6381 2.9989 17.4727 2.85819Z" fill="#1F8B02"/>
<path d="M19 6.5H3C2.60231 6.50043 2.22103 6.65861 1.93982 6.93982C1.65861 7.22103 1.50043 7.60231 1.5 8V19C1.50076 19.6628 1.76439 20.2982 2.23306 20.7669C2.70174 21.2356 3.33718 21.4992 3.99998 21.5H19C19.6628 21.4992 20.2982 21.2356 20.7669 20.7669C21.2356 20.2982 21.4992 19.6628 21.5 19V8.99998C21.4992 8.33718 21.2356 7.70174 20.7669 7.23306C20.2982 6.76439 19.6628 6.50076 19 6.5Z" fill="#44BE2D"/>
<path d="M19 20H3.99998C3.33717 19.9993 2.70172 19.7356 2.23305 19.267C1.76437 18.7983 1.50074 18.1628 1.5 17.5V19C1.50076 19.6628 1.76439 20.2982 2.23306 20.7669C2.70174 21.2356 3.33718 21.4992 3.99998 21.5H19C19.6628 21.4992 20.2982 21.2356 20.7669 20.7669C21.2356 20.2982 21.4992 19.6628 21.5 19V17.5C21.4992 18.1628 21.2356 18.7983 20.7669 19.267C20.2982 19.7356 19.6628 19.9993 19 20Z" fill="#1F8B02"/>
<path d="M15 11.5C14.337 11.5 13.7011 11.7634 13.2322 12.2322C12.7634 12.7011 12.5 13.337 12.5 14C12.5 14.6631 12.7634 15.2989 13.2322 15.7678C13.7011 16.2366 14.337 16.5 15 16.5H21.5V11.5H15Z" fill="#1F8B02"/>
<path d="M21.5 10.5H15C14.337 10.5 13.7011 10.7634 13.2322 11.2322C12.7634 11.7011 12.5 12.337 12.5 13C12.5 13.6631 12.7634 14.2989 13.2322 14.7678C13.7011 15.2366 14.337 15.5 15 15.5H21.5C21.7652 15.4997 22.0193 15.3943 22.2068 15.2068C22.3943 15.0193 22.4997 14.7651 22.5 14.5V11.5C22.4997 11.2349 22.3943 10.9807 22.2068 10.7932C22.0193 10.6057 21.7651 10.5003 21.5 10.5Z" fill="#FAC100"/>
<path d="M15 14C15.5523 14 16 13.5523 16 13C16 12.4477 15.5523 12 15 12C14.4477 12 14 12.4477 14 13C14 13.5523 14.4477 14 15 14Z" fill="#EAEFF0"/>
</svg>
