<svg width="120" height="120" viewBox="0 0 120 120" fill="none" xmlns="http://www.w3.org/2000/svg">
<g opacity="0.9">
<path d="M92.9583 29.4295C92.5155 26.9356 92.0643 24.4138 91.0428 22.0959C90.0214 19.778 88.3572 17.6478 86.063 16.574C83.5508 15.3982 80.6344 15.6131 77.8773 15.9167C57.4924 18.1616 37.6625 23.8917 18.1206 30.1122C15.928 30.8101 13.515 31.6536 11.5601 32.8673C9.6758 34.0372 8.38628 35.4537 8.84177 38.4588C9.12122 40.3025 11.1743 41.8417 13.0029 42.5941C14.8315 43.3465 16.8554 43.4718 18.8324 43.4333C23.8402 43.3357 28.8264 42.2377 33.412 40.2229L92.9583 29.4295Z" fill="#FDB287"/>
<path d="M109.191 91.0126C108.214 93.0437 106.627 94.5843 104.423 95.0544C85.6615 99.0116 66.9065 102.967 48.1517 106.923C43.4815 107.909 38.6723 108.9 33.9675 108.115C29.2561 107.332 24.2999 104.594 22.9556 100.013L8.82594 38.3691C10.9135 41.0287 12.3354 41.4872 14.7962 41.9248C17.2504 42.364 19.5094 41.615 21.9749 41.218C42.1239 37.9654 62.2766 32.0713 81.2481 27.7158C83.9235 27.0114 86.5304 26.2528 88.8986 26.0112C91.5058 25.7428 94.2716 26.8389 95.9646 28.8464C97.8164 31.0276 97.8155 34.1098 98.5144 36.8845C98.6528 37.4272 98.7897 37.9631 98.9199 38.5007C101.188 47.4789 103.054 56.7804 105.322 65.7587C105.984 68.3736 106.639 70.9834 107.299 73.5917C107.771 75.4659 108.244 77.3467 108.716 79.2209C109.699 83.1141 111.049 87.1404 109.191 91.0126Z" fill="#FD8E4E"/>
<path d="M109.191 91.0132C108.214 93.0444 106.627 94.5849 104.423 95.055C85.6614 99.0122 66.9065 102.968 48.1517 106.924C43.4815 107.91 38.6722 108.9 33.9675 108.115C29.256 107.332 24.2998 104.595 22.9556 100.014L13.1458 57.2163C20.2336 71.2397 32.9764 82.3699 47.918 87.2945C64.7619 92.8477 84.0586 90.3999 98.9822 80.8222C102.09 78.8279 105.058 76.4946 107.299 73.5923C107.771 75.4665 108.244 77.3473 108.716 79.2215C109.699 83.1147 111.049 87.141 109.191 91.0132Z" fill="#FA7E38"/>
<path d="M69.0348 98.1434C68.8296 98.1893 68.6262 98.0602 68.5804 97.8554C68.5347 97.6509 68.6628 97.4482 68.8666 97.4015C71.1136 96.8948 72.6652 96.5319 72.5745 96.5527C72.7787 96.5059 72.9824 96.633 73.0299 96.837C73.0776 97.0418 72.9503 97.2463 72.7459 97.2939C72.0008 97.4653 70.8737 97.7314 69.0348 98.1434ZM76.4452 96.4143C76.2424 96.4608 76.0395 96.3355 75.9904 96.1329C75.941 95.9289 76.0669 95.7232 76.2709 95.6738C77.5026 95.3763 78.7328 95.0741 79.9625 94.7678C80.17 94.7233 80.3727 94.8415 80.4236 95.0451C80.4741 95.2489 80.3503 95.4552 80.1463 95.5062C78.9151 95.8128 77.6827 96.1154 76.4495 96.4134C76.4481 96.4137 76.4466 96.414 76.4452 96.4143ZM65.3209 98.9558C64.7507 99.076 63.5536 99.3348 61.5869 99.7321C61.381 99.7735 61.1806 99.6404 61.1387 99.4343C61.0975 99.228 61.258 99.0273 61.4364 98.986C62.6778 98.7354 63.9178 98.4775 65.1563 98.213C65.362 98.1693 65.5639 98.3003 65.6079 98.5055C65.6516 98.7093 65.5233 98.9094 65.3209 98.9558ZM83.8272 94.5782C83.6266 94.6242 83.4252 94.5019 83.3739 94.3014C83.3222 94.0976 83.4452 93.8907 83.6486 93.8387C84.8771 93.5258 86.1042 93.2095 87.3306 92.8907C87.5267 92.8533 87.7417 92.9599 87.7947 93.1631C87.8475 93.3667 87.7255 93.5742 87.5223 93.6272C86.2944 93.9464 85.0659 94.263 83.8366 94.5761C83.8334 94.5768 83.8305 94.5775 83.8272 94.5782ZM57.8643 100.46C57.0762 100.607 56.0705 100.801 54.1025 101.147C53.8955 101.183 53.6984 101.045 53.662 100.838C53.6259 100.63 53.7675 100.428 53.9711 100.397C55.2182 100.179 56.4641 99.9512 57.7082 99.716C57.9145 99.6767 58.1137 99.8125 58.1526 100.019C58.1908 100.22 58.0624 100.415 57.8643 100.46ZM91.1907 92.666C90.9915 92.7116 90.7905 92.5911 90.7384 92.392C90.6846 92.189 90.8061 91.9809 91.0092 91.9274C92.2351 91.6045 93.4601 91.2795 94.6849 90.9534C94.8879 90.8947 95.0965 91.0199 95.1503 91.2229C95.2045 91.4262 95.0838 91.6345 94.8808 91.6883C93.6553 92.0145 92.4295 92.3397 91.2029 92.6628C91.199 92.664 91.195 92.665 91.1907 92.666ZM50.346 101.778C48.8727 102.014 47.673 102.191 46.5709 102.332C46.3625 102.359 46.1721 102.212 46.1453 102.003C46.1185 101.795 46.2644 101.605 46.4742 101.578C47.5681 101.437 48.7601 101.262 50.2256 101.027C50.7154 100.949 50.85 101.685 50.346 101.778ZM98.5425 90.7098C98.0624 90.8199 97.8813 90.1001 98.3589 89.9718C99.4969 89.6598 100.748 89.3551 101.9 88.8031C102.089 88.7132 102.316 88.7919 102.407 88.9818C102.498 89.1714 102.418 89.3985 102.228 89.4892C101.022 90.0675 99.7362 90.3827 98.5569 90.7062C98.5523 90.7076 98.5473 90.7088 98.5425 90.7098ZM42.7628 102.712C41.398 102.803 40.1427 102.831 38.9259 102.8C38.7158 102.794 38.55 102.62 38.5555 102.409C38.5611 102.199 38.7373 102.035 38.9459 102.039C40.139 102.07 41.3711 102.042 42.7123 101.953C42.9217 101.939 43.1033 102.098 43.117 102.307C43.131 102.518 42.97 102.699 42.7628 102.712ZM104.653 86.9742C104.467 86.8758 104.397 86.6457 104.496 86.46C104.995 85.5181 105.215 84.3736 105.168 82.9608C105.161 82.7511 105.327 82.574 105.535 82.5679C105.745 82.5606 105.921 82.7252 105.928 82.9352C105.98 84.4845 105.731 85.7542 105.167 86.8168C105.069 87.0019 104.839 87.0731 104.653 86.9742ZM35.0911 102.466C33.7904 102.267 32.5754 101.988 31.3318 101.574C31.1325 101.508 31.0245 101.293 31.0908 101.093C31.1576 100.894 31.3725 100.786 31.5718 100.852C32.7692 101.251 33.9442 101.521 35.2068 101.714C35.4143 101.746 35.5567 101.941 35.5251 102.148C35.4926 102.357 35.2976 102.498 35.0911 102.466ZM27.7888 100.015C26.62 99.3583 25.5576 98.5988 24.6307 97.7575C24.4753 97.6163 24.4636 97.3758 24.6048 97.2204C24.7457 97.0654 24.9869 97.0535 25.1419 97.1944C26.0267 97.997 27.0426 98.723 28.1612 99.3518C28.3444 99.4546 28.4094 99.6867 28.3065 99.8696C28.204 100.053 27.9723 100.118 27.7888 100.015ZM105.08 79.5544C105.08 79.5545 105.079 79.5547 105.078 79.5544C104.874 79.6005 104.672 79.4776 104.625 79.2733C104.35 78.0254 104.077 76.7912 103.802 75.5569C103.693 75.0617 104.436 74.8985 104.545 75.392C104.82 76.6263 105.093 77.8612 105.365 79.0969C105.41 79.3008 105.283 79.5078 105.08 79.5544ZM22.1245 94.7725C21.6798 94.0528 21.3122 93.2934 21.0313 92.5151C20.9597 92.3174 21.0622 92.0995 21.2595 92.028C21.4593 91.9601 21.6752 92.0592 21.7468 92.2566C22.0099 92.9856 22.3545 93.6977 22.7715 94.3727C22.8822 94.5516 22.8265 94.7858 22.6479 94.8961C22.4766 95.0037 22.238 94.9563 22.1245 94.7725ZM102.973 71.8456L102.137 68.1354C102.091 67.931 102.219 67.7276 102.423 67.6807L102.424 67.6805C102.629 67.634 102.832 67.7626 102.879 67.9676L103.716 71.6786C103.827 72.1724 103.085 72.3394 102.973 71.8456ZM101.749 64.7133C101.544 64.7599 101.339 64.6322 101.293 64.4272L101.036 63.3047L100.442 60.7205C100.395 60.5161 100.523 60.3119 100.727 60.2645C100.932 60.2176 101.136 60.3454 101.183 60.5499L101.777 63.1347L102.035 64.2579C102.081 64.4626 101.953 64.6664 101.749 64.7133ZM100.039 57.3003C99.8354 57.3471 99.6318 57.2203 99.584 57.0167L99.5373 56.8148C99.2702 55.6477 99.0102 54.4749 98.7518 53.2994C98.7068 53.0951 98.8352 52.8934 99.0383 52.8469L99.0415 52.8461C99.2469 52.801 99.4497 52.9309 99.4948 53.1359C99.7527 54.3093 100.012 55.4799 100.279 56.6448L100.325 56.8424C100.373 57.0471 100.246 57.2519 100.041 57.2998C100.041 57.3 100.04 57.3002 100.039 57.3003ZM98.3914 49.8732C98.3906 49.8734 98.3896 49.8737 98.3888 49.8738C98.1836 49.9194 97.9805 49.7898 97.935 49.5849C97.7735 48.8567 97.6101 48.1289 97.4434 47.4019C97.3272 46.8946 97.2095 46.3881 97.0897 45.882C97.0414 45.6778 97.1678 45.4727 97.3724 45.4243L97.3749 45.4237C97.5784 45.3771 97.7819 45.5035 97.8301 45.707C97.9502 46.2145 98.0683 46.7232 98.1849 47.2319C98.3519 47.9604 98.5158 48.6904 98.6777 49.42C98.723 49.6242 98.5948 49.8266 98.3914 49.8732ZM96.6239 42.4751C96.4252 42.5206 96.2242 42.4005 96.1718 42.2014C95.8258 40.8966 95.487 39.7045 95.1356 38.5571C95.0739 38.3563 95.1867 38.1433 95.3876 38.082C95.5864 38.0201 95.801 38.1332 95.8626 38.3341C96.2174 39.4909 96.5587 40.6924 96.9069 42.007C96.9607 42.21 96.8399 42.4179 96.6365 42.4718C96.6326 42.4731 96.6283 42.4741 96.6239 42.4751ZM93.7999 35.0859C93.1496 33.9015 92.3528 32.9988 91.4323 32.403C91.2559 32.2887 91.2054 32.0533 91.3194 31.877C91.434 31.7002 91.6701 31.6499 91.8453 31.7641C92.8732 32.4294 93.755 33.4235 94.4667 34.7196C94.568 34.9037 94.5005 35.1349 94.3164 35.2361C94.1365 35.3356 93.9028 35.2731 93.7999 35.0859ZM32.7033 44.9072C32.4984 44.9526 32.2953 44.8231 32.2498 44.6178C32.2045 44.4137 32.3327 44.2116 32.5362 44.165C32.6109 44.1482 33.181 44.0198 33.1062 44.0366C34.0965 43.8096 35.115 43.5579 36.22 43.2677C36.4139 43.2076 36.6314 43.3353 36.6845 43.5385C36.738 43.7419 36.6167 43.9496 36.4137 44.003C34.186 44.5891 32.9179 44.8567 32.7033 44.9072ZM28.9496 45.6392C27.6532 45.8499 26.3963 46.0577 25.1836 46.2326C24.6958 46.3024 24.5676 45.566 25.0749 45.4793C26.2749 45.3067 27.4755 45.1081 28.827 44.8883C29.0342 44.8545 29.2299 44.9949 29.2637 45.2024C29.2959 45.3986 29.1714 45.5988 28.9496 45.6392ZM40.0674 42.9929C39.5901 43.1022 39.407 42.392 39.8777 42.2566C41.095 41.9063 42.3106 41.5469 43.5252 41.1877C44.0177 41.0506 44.2172 41.7765 43.7411 41.9172C42.5244 42.2768 41.3074 42.6366 40.0879 42.9874C40.0812 42.9897 40.0743 42.9913 40.0674 42.9929ZM47.3682 40.8537C46.8914 40.963 46.7074 40.253 47.1781 40.1176C48.3973 39.7653 49.6182 39.4192 50.8407 39.078C51.3431 38.9562 51.5178 39.6784 51.0452 39.8108C49.8249 40.1515 48.6062 40.4972 47.389 40.8482C47.3822 40.8501 47.375 40.8521 47.3682 40.8537ZM88.018 31.4866C86.8032 31.482 85.5262 31.7099 84.3222 31.9439C84.1161 31.9843 83.9164 31.8494 83.8764 31.6433C83.8364 31.4371 83.9969 31.2346 84.177 31.1975C85.4181 30.9561 86.7369 30.7208 88.0213 30.726C88.5222 30.7277 88.5239 31.486 88.018 31.4866ZM21.3782 46.6658C19.9791 46.7719 18.7205 46.7975 17.5311 46.7442C17.3213 46.7348 17.1586 46.5572 17.168 46.3473C17.1777 46.137 17.358 45.9756 17.565 45.9842C18.7236 46.0361 19.9522 46.011 21.3208 45.9068C21.8135 45.8701 21.8904 46.6188 21.3782 46.6658ZM54.6961 38.8097C54.2159 38.9198 54.0349 38.2 54.5124 38.0717C55.7379 37.7417 56.9645 37.4171 58.193 37.0974C58.3993 37.0379 58.6037 37.1667 58.6572 37.3698C58.7099 37.5734 58.5879 37.7809 58.3847 37.8339C57.1582 38.1524 55.9337 38.4765 54.7105 38.806C54.7059 38.8075 54.7008 38.8086 54.6961 38.8097ZM80.6045 32.6848C80.0065 32.8081 78.8582 33.0398 76.8746 33.4627C76.3731 33.5693 76.2225 32.7934 76.7163 32.7186C77.9574 32.4539 79.1998 32.1947 80.4432 31.9413C80.6489 31.8995 80.8498 32.0325 80.8919 32.2382C80.9331 32.441 80.8047 32.6389 80.6045 32.6848ZM62.0591 36.8956C61.8578 36.9418 61.6558 36.8185 61.6051 36.6175C61.5542 36.4134 61.678 36.2071 61.8815 36.1559C64.1158 35.596 65.6573 35.229 65.583 35.2461C65.7858 35.1996 65.9891 35.3249 66.0379 35.5279C66.0869 35.7319 65.9614 35.9375 65.757 35.9867C64.5258 36.2834 63.2957 36.5859 62.0667 36.8939C62.0642 36.8945 62.0617 36.8951 62.0591 36.8956ZM73.1639 34.2706C71.0524 34.7439 71.114 34.7303 69.4546 35.1132C69.25 35.1601 69.0463 35.0327 68.999 34.8282C68.9518 34.6237 69.0791 34.4192 69.2839 34.3719C69.8803 34.2355 70.8651 34.0027 72.9965 33.5285C73.2014 33.4831 73.4047 33.6121 73.4502 33.8174C73.4955 34.0216 73.3677 34.2239 73.1639 34.2706ZM13.6965 46.2318C12.3773 45.9184 11.1519 45.4572 10.0549 44.8611C9.8703 44.7605 9.80212 44.5296 9.90235 44.345C10.0034 44.1607 10.2343 44.0925 10.4184 44.1924C11.4563 44.7568 12.6182 45.1939 13.8721 45.4919C14.0764 45.5403 14.2031 45.7453 14.1543 45.9497C14.1056 46.1562 13.898 46.2802 13.6965 46.2318Z" fill="#FDD7AE"/>
<path d="M90.1568 73.4254C88.4304 73.7663 86.682 74.068 84.9228 74.0256C83.1635 73.9831 81.5429 73.1459 80.0787 72.1697C77.4561 70.4213 75.9621 67.0873 75.4429 63.9784C74.5998 58.9298 76.4861 55.1596 80.105 53.0025C83.995 50.6838 94.2354 48.7414 98.7147 48.097C99.4996 47.9841 100.398 47.8058 100.782 47.1116C101.178 46.3941 100.813 45.5107 100.449 44.7764C101.248 44.6267 102.004 45.0747 102.5 45.719C102.995 46.3633 103.223 47.171 103.392 47.9661C103.69 49.3615 104.165 50.7183 104.517 52.103C104.892 53.5804 105.217 55.0701 105.509 56.5661C106.094 59.5633 106.956 62.5756 107.405 65.5955C107.507 66.2852 107.61 66.9848 107.528 67.6773C107.462 68.2373 106.839 68.942 106.391 69.3227C106.05 69.6131 105.511 69.6313 105.092 69.7444C103.609 70.1449 102.129 70.5527 100.644 70.9458C97.6758 71.7317 94.6958 72.477 91.6911 73.1117C91.1803 73.2195 90.6689 73.3242 90.1568 73.4254Z" fill="#70444D"/>
<path d="M88.6163 70.0447C92.7001 69.1086 95.2519 65.0392 94.3158 60.9553C93.3798 56.8715 89.3103 54.3197 85.2265 55.2558C81.1426 56.1918 78.5908 60.2613 79.5269 64.3451C80.463 68.429 84.5324 70.9808 88.6163 70.0447Z" fill="#512E35"/>
<g opacity="0.4">
<path d="M77.0235 39.623C77.8919 39.407 78.5596 38.4753 78.3095 37.5721C78.0656 36.6911 77.1896 36.0546 76.2587 36.2861C73.6712 36.9297 71.0506 37.4315 68.4008 37.7351C67.5081 37.8374 66.887 38.9629 67.1148 39.786C67.3853 40.7629 68.2093 41.1816 69.1657 41.072C71.82 40.7679 74.4413 40.2653 77.0235 39.623Z" fill="white"/>
</g>
<g opacity="0.4">
<path d="M82.2842 38.9609C83.1695 38.7136 83.6521 38.6979 84.0059 38.6949C85.0917 38.6856 85.7844 37.8889 85.7911 37.0592C85.7896 35.9615 84.9341 35.2672 84.1554 35.2739C83.2708 35.2815 82.3727 35.3857 81.5194 35.6241C80.4888 35.912 80.0151 36.8645 80.2334 37.6749C80.5233 38.7221 81.5208 39.1742 82.2842 38.9609Z" fill="white"/>
</g>
<g opacity="0.4">
<path d="M86.6509 58.7269C88.2078 58.3322 89.5448 59.6937 90.3581 61.0796C90.6598 61.5937 91.3617 61.867 91.9044 61.5429C92.4195 61.2353 92.6912 60.5479 92.3677 59.9966C90.5018 56.8168 88.0925 56.0076 86.141 56.5023C85.5628 56.6489 85.1165 57.2656 85.2837 57.8695C85.4457 58.4547 86.031 58.884 86.6509 58.7269Z" fill="white"/>
</g>
<g opacity="0.4">
<path d="M90.5549 65.941C90.5572 66.4046 90.9564 66.8217 91.34 66.9276C92.1195 67.0646 92.5972 66.7223 92.7703 66.1797C92.9225 65.779 93.0166 65.2643 93.0474 64.891C93.079 64.4886 92.8175 63.9723 92.3808 63.8132C92.0077 63.6017 91.4393 63.6275 90.9403 64.2349C90.8724 64.344 90.4981 65.6289 90.5549 65.941Z" fill="white"/>
</g>
</g>
</svg>
