<svg width="18" height="18" viewBox="0 0 18 18" fill="none" xmlns="http://www.w3.org/2000/svg">
<g clip-path="url(#clip0_6375_4580)">
<path d="M5.414 3.23438C5.72468 3.46736 6.1654 3.40439 6.39838 3.09371L7.03045 2.25084C7.16492 2.07158 7.37024 1.96875 7.59373 1.96875C7.81721 1.96875 8.02253 2.07158 8.15696 2.25081L8.78907 3.09371C9.02096 3.40295 9.4614 3.46841 9.77345 3.23438C10.0841 3.00139 10.1471 2.56068 9.91411 2.25L9.28196 1.40702C8.8853 0.878238 8.25417 0.5625 7.59373 0.5625C6.93328 0.5625 6.30215 0.878238 5.90545 1.40713L5.27334 2.25004C5.04036 2.56068 5.10333 3.00143 5.414 3.23438Z" fill="#07AED8"/>
<path d="M3.51562 17.4375H13.0781C14.2412 17.4375 15.1875 16.4912 15.1875 15.3281C15.1875 14.9398 14.8727 14.625 14.4844 14.625C14.096 14.625 13.7812 14.9398 13.7812 15.3281C13.7812 15.7158 13.4658 16.0312 13.0781 16.0312H3.51562C2.35252 16.0312 1.40625 15.085 1.40625 13.9219V8.29688C1.40625 7.13377 2.35252 6.1875 3.51562 6.1875H13.0781C13.4658 6.1875 13.7812 6.50292 13.7812 6.89062C13.7812 7.27896 14.096 7.59375 14.4844 7.59375C14.8727 7.59375 15.1875 7.27896 15.1875 6.89062C15.1875 5.72752 14.2412 4.78125 13.0781 4.78125H3.51562C1.57711 4.78125 0 6.35836 0 8.29688V13.9219C0 15.8604 1.57711 17.4375 3.51562 17.4375Z" fill="#07AED8"/>
<path d="M15.8906 9H13.0781C11.915 9 10.9688 9.94627 10.9688 11.1094C10.9688 12.2725 11.915 13.2188 13.0781 13.2188H15.8906C17.0537 13.2188 18 12.2725 18 11.1094C18 9.94627 17.0537 9 15.8906 9ZM15.8906 11.8125H13.0781C12.6904 11.8125 12.375 11.4971 12.375 11.1094C12.375 10.7217 12.6904 10.4062 13.0781 10.4062H15.8906C16.2783 10.4062 16.5938 10.7217 16.5938 11.1094C16.5938 11.4971 16.2783 11.8125 15.8906 11.8125Z" fill="#07AED8"/>
<path d="M2.8125 8.29688V13.9219C2.8125 14.3102 3.12729 14.625 3.51562 14.625C3.90396 14.625 4.21875 14.3102 4.21875 13.9219V8.29688C4.21875 7.90854 3.90396 7.59375 3.51562 7.59375C3.12729 7.59375 2.8125 7.90854 2.8125 8.29688Z" fill="#07AED8"/>
</g>
<defs>
<clipPath id="clip0_6375_4580">
<rect width="18" height="18" fill="white"/>
</clipPath>
</defs>
</svg>
