<svg width="106" height="104" viewBox="0 0 106 104" fill="none" xmlns="http://www.w3.org/2000/svg">
<path fill-rule="evenodd" clip-rule="evenodd" d="M53.0041 48.5419C49.3282 41.4301 47.1132 33.8898 46.4371 25.9228C46.2996 24.3347 44.9009 23.1507 43.2995 23.2825C41.7114 23.42 40.5273 24.8187 40.6591 26.4201C41.4183 35.1478 43.8306 43.4035 47.8578 51.2021C48.5888 52.6195 50.3474 53.1857 51.7648 52.4547C53.1879 51.7104 53.7351 49.9593 53.0041 48.5419Z" fill="#FA9596" fill-opacity="0.7"/>
<path fill-rule="evenodd" clip-rule="evenodd" d="M57.7871 29.0492C55.7706 34.5512 53.7274 40.0418 51.7507 45.561C51.2151 47.0648 51.9991 48.7257 53.503 49.2613C55.0068 49.7969 56.6677 49.0129 57.2033 47.509C59.1743 42.0032 61.2117 36.5259 63.2283 31.0239C63.7755 29.5298 62.9944 27.8623 61.4951 27.316C59.9958 26.7697 58.3245 27.5414 57.7871 29.0492Z" fill="#FA9596" fill-opacity="0.7"/>
<path fill-rule="evenodd" clip-rule="evenodd" d="M77.0752 38.627C71.462 42.3003 65.5681 45.3801 59.6244 48.5017C58.2013 49.246 57.6539 50.9971 58.4039 52.4069C59.1482 53.8301 60.8994 54.3773 62.3092 53.6273C68.4108 50.4316 74.4743 47.2512 80.2568 43.4772C81.5945 42.6016 81.9572 40.8028 81.0816 39.4652C80.2193 38.1332 78.4129 37.7514 77.0752 38.627Z" fill="#FA9596" fill-opacity="0.7"/>
<path fill-rule="evenodd" clip-rule="evenodd" d="M82.0686 63.3917C72.6559 59.8371 62.8426 55.6376 53.8586 51.085C52.4291 50.3764 50.6904 50.9379 49.9628 52.375C49.2409 53.7988 49.8156 55.5432 51.2395 56.2651C60.4097 60.8977 70.4227 65.1831 80.0217 68.8176C81.5141 69.3799 83.1957 68.6206 83.758 67.1281C84.3202 65.6357 83.561 63.9539 82.0686 63.3917Z" fill="#FA9596" fill-opacity="0.7"/>
<path fill-rule="evenodd" clip-rule="evenodd" d="M48.0319 50.7739C50.7323 60.1936 53.6894 69.5661 55.84 79.128C56.1962 80.6839 57.7455 81.6645 59.3147 81.314C60.8706 80.9578 61.8512 79.4086 61.495 77.8526C59.3122 68.1823 56.3229 58.7016 53.5903 49.1735C53.1447 47.6422 51.5421 46.749 50.0109 47.1946C48.4663 47.6345 47.5863 49.2427 48.0319 50.7739Z" fill="#FA9596" fill-opacity="0.7"/>
<path fill-rule="evenodd" clip-rule="evenodd" d="M48.8891 53.5375C47.2585 61.4436 44.6872 68.5674 41.6326 75.9722C41.0171 77.4417 41.7251 79.133 43.1946 79.7484C44.6832 80.3563 46.3687 79.6616 46.9766 78.173C50.1798 70.4223 52.8561 62.9811 54.5688 54.7004C54.88 53.1317 53.8829 51.5999 52.3009 51.2829C50.738 50.9583 49.2004 51.9688 48.8891 53.5375Z" fill="#FA9596" fill-opacity="0.7"/>
<path fill-rule="evenodd" clip-rule="evenodd" d="M49.3828 53.0568C41.367 59.828 35.0289 68.4549 26.7871 74.9083C25.5331 75.8829 25.3147 77.7121 26.3026 78.9719C27.2904 80.2316 29.1066 80.4442 30.3606 79.4697C38.6519 72.9744 45.0393 64.3058 53.1236 57.4852C54.3416 56.4479 54.4952 54.6223 53.4769 53.3967C52.4395 52.1787 50.614 52.0252 49.3828 53.0568Z" fill="#FA9596" fill-opacity="0.7"/>
<path fill-rule="evenodd" clip-rule="evenodd" d="M52.5961 52.1178C43.3611 49.9478 34.4938 46.9586 25.417 44.2734C23.8789 43.8176 22.275 44.6892 21.8192 46.2274C21.3634 47.7655 22.2351 49.3695 23.7732 49.8253C32.9431 52.5504 41.9283 55.5588 51.2755 57.7611C52.8271 58.1123 54.393 57.1456 54.7575 55.5998C55.1144 54.0349 54.1609 52.4747 52.5961 52.1178Z" fill="#FA9596" fill-opacity="0.7"/>
<path fill-rule="evenodd" clip-rule="evenodd" d="M60.3037 50.6388C58.5681 49.7987 56.9428 48.9586 55.3214 47.9626C53.9491 47.1209 52.1706 47.555 51.3346 48.914C50.4986 50.2731 50.9268 52.0649 52.2859 52.9009C54.0821 54.0035 55.8747 54.9311 57.7833 55.8455C59.2186 56.5409 60.9553 55.947 61.6431 54.4927C62.3384 53.0575 61.739 51.3341 60.3037 50.6388Z" fill="#FA9596" fill-opacity="0.7"/>
</svg>
