<svg width="172" height="217" viewBox="0 0 172 217" fill="none" xmlns="http://www.w3.org/2000/svg">
<path fill-rule="evenodd" clip-rule="evenodd" d="M147.719 130.028C153.958 145.722 159.181 162.187 170.197 175.325C170.85 176.109 170.752 177.274 169.97 177.934C169.186 178.587 168.021 178.489 167.361 177.707C156.089 164.261 150.661 147.454 144.279 131.395C143.896 130.447 144.365 129.366 145.315 128.991C146.263 128.609 147.337 129.08 147.719 130.028Z" fill="#B199F8" fill-opacity="0.7"/>
<path fill-rule="evenodd" clip-rule="evenodd" d="M124.2 137.109C121.484 143.725 120.075 150.371 120.797 157.506C120.901 158.525 120.159 159.431 119.144 159.538C118.127 159.638 117.217 158.894 117.116 157.881C116.329 150.122 117.826 142.9 120.776 135.708C121.163 134.76 122.244 134.305 123.191 134.696C124.134 135.081 124.589 136.168 124.2 137.109Z" fill="#B199F8" fill-opacity="0.7"/>
<path fill-rule="evenodd" clip-rule="evenodd" d="M69.5373 141.719C62.6165 146.852 58.1963 153.554 56.3406 162.006C56.1213 163.003 55.1339 163.636 54.1353 163.414C53.1393 163.198 52.5066 162.209 52.7259 161.212C54.7819 151.857 59.6694 144.43 67.332 138.746C68.151 138.136 69.3138 138.313 69.9207 139.131C70.5309 139.954 70.3589 141.115 69.5373 141.719Z" fill="#B199F8" fill-opacity="0.7"/>
<path fill-rule="evenodd" clip-rule="evenodd" d="M30.1566 67.6175C31.2433 65.6845 32.5043 63.8447 33.9424 62.1447C34.5824 61.3871 36.0048 59.9454 37.4338 59.2748C38.9541 58.5545 40.4779 58.5985 41.6847 59.7147C43.2862 61.198 43.729 62.6916 43.5848 64.0235C43.4474 65.3055 42.7034 66.5435 41.4835 67.6025C39.1514 69.6253 34.9539 71.0044 32.393 71.344C31.4417 73.3296 30.6799 75.4029 30.1085 77.5321C25.8532 93.3911 35.9544 110.608 54.5134 119.867C61.0105 123.107 71.6825 121.874 82.7035 119.21C99.8641 115.064 117.822 107.166 123.147 105.023C124.463 104.496 125.297 104.33 125.481 104.341C126.376 104.38 126.791 104.882 127.016 105.257C127.336 105.801 127.397 106.307 127.341 106.754C127.262 107.36 126.947 107.95 126.295 108.412C125.933 108.664 125.387 108.898 124.788 109.103C124.371 109.242 123.891 109.325 123.626 109.517C121.937 110.758 120.333 112.093 118.711 113.419C113.252 117.861 108.417 122.783 103.702 128.008C88.7197 144.607 72.5673 161.276 64.3101 182.459C63.9394 183.409 62.8668 183.884 61.9141 183.511C60.964 183.144 60.493 182.071 60.8618 181.114C69.2806 159.508 85.676 142.458 100.955 125.528C104.966 121.084 109.063 116.854 113.539 112.941C104.397 116.552 91.6109 121.195 79.6987 123.683C69.1048 125.897 59.1771 126.326 52.8611 123.177C32.5303 113.035 21.8706 93.941 26.5346 76.5733C27.0343 74.7153 27.6638 72.8883 28.4265 71.1224C12.764 68.732 1.85276 55.2474 3.03176 39.3267C3.10597 38.3049 3.99497 37.542 5.01261 37.6154C6.03281 37.6957 6.79748 38.5809 6.72326 39.6028C5.66115 53.9491 15.8099 66.0189 30.1566 67.6175ZM34.8811 67.0142C35.4672 66.1581 36.098 65.3329 36.7694 64.5321C37.1312 64.1062 37.845 63.337 38.6351 62.8317C38.821 62.7156 39.1336 62.5921 39.2794 62.5381C39.6927 62.9298 39.9452 63.2626 39.9047 63.6248C39.8572 64.0764 39.4848 64.4352 39.0577 64.8063C37.9869 65.7391 36.3925 66.5025 34.8811 67.0142Z" fill="#B199F8" fill-opacity="0.7"/>
</svg>
