<svg width="134" height="27" viewBox="0 0 134 27" fill="none" xmlns="http://www.w3.org/2000/svg">
<path fill-rule="evenodd" clip-rule="evenodd" d="M35.9431 16.9676C30.3474 18.9514 23.8713 20.9788 17.5729 21.7592C12.1894 22.4258 6.93789 22.1879 2.52998 20.1249C1.90865 19.8345 1.16757 20.1026 0.877171 20.7244C0.586245 21.3457 0.854839 22.0868 1.4762 22.3777C6.28465 24.6275 12.0063 24.9545 17.8783 24.2269C24.2901 23.4329 30.8841 21.3876 36.5927 19.3732C37.3464 20.6987 38.8161 21.8895 41.3288 22.6844C45.1882 23.9057 50.3413 23.5859 55.7235 22.4551C63.5295 20.8156 71.8363 17.5097 77.166 15.1942C77.3847 15.0997 77.7097 14.9506 78.1068 14.756C78.247 15.0228 78.4019 15.2848 78.5713 15.5409C80.0422 17.7734 82.5151 19.5033 84.9622 20.0295C100.482 23.3662 118.01 17.2523 132.281 12.2763C132.926 12.0508 133.268 11.3412 133.045 10.6931C132.818 10.0453 132.11 9.70264 131.461 9.9285C117.59 14.7655 100.569 20.8402 85.4824 17.5982C83.6256 17.1988 81.764 15.867 80.6484 14.1727C80.5228 13.9838 80.4117 13.7895 80.3055 13.5919C82.2483 12.4832 84.5208 10.9631 85.7002 9.40938C86.9122 7.81637 87.1401 6.17837 85.9185 4.71545C84.8688 3.46516 83.3876 3.44031 81.8931 4.2079C80.2823 5.03063 78.6787 6.8274 78.1742 7.65608C77.2286 9.20409 76.9955 10.8369 77.2763 12.3993C76.8018 12.6334 76.4155 12.8094 76.177 12.9131C70.9638 15.1774 62.845 18.418 55.2123 20.0214C50.3011 21.0534 45.6005 21.4278 42.0787 20.3139C40.5767 19.8384 39.5676 19.2399 38.9963 18.5101C40.0178 18.1384 41.0023 17.7738 41.943 17.4258C43.8033 16.7374 47.691 15.5506 50.4089 13.6821C52.5703 12.1964 53.9817 10.2649 53.758 7.96029C53.6433 6.7763 52.9103 6.02458 51.7915 5.64472C50.1196 5.07753 47.3143 5.56369 46.2758 5.84871C43.1259 6.71177 39.0328 9.76041 37.1114 13.0381C36.3446 14.3459 35.9217 15.692 35.9431 16.9676ZM38.5177 16.0386C39.403 15.7147 40.2583 15.3976 41.08 15.0934C42.8164 14.4506 46.4622 13.3776 49 11.6327C50.3439 10.7091 51.4223 9.63357 51.283 8.20041C51.272 8.08896 51.1594 8.06368 51.0589 8.02373C50.9034 7.96259 50.7273 7.92457 50.5404 7.89765C49.2757 7.71565 47.6115 8.06072 46.9329 8.24694C44.29 8.9712 40.8686 11.5456 39.2566 14.2959C38.916 14.8769 38.652 15.4638 38.5177 16.0386ZM79.6621 11.1127C80.7937 10.4441 81.9726 9.64664 82.8895 8.80028C83.3763 8.35078 83.783 7.89403 84.0299 7.43019C84.2366 7.04642 84.3037 6.66184 84.0092 6.31141C83.8913 6.16936 83.7273 6.17599 83.5601 6.21368C83.3831 6.25394 83.2031 6.32824 83.0242 6.42092C81.8439 7.02513 80.6657 8.34415 80.2978 8.95209C79.8658 9.65744 79.6744 10.3881 79.6621 11.1127Z" fill="#07AED8"/>
</svg>
