<svg width="22" height="22" viewBox="0 0 22 22" fill="none" xmlns="http://www.w3.org/2000/svg">
<g clip-path="url(#clip0_3992_12434)">
<path d="M21.343 0H19.3835C19.0206 0 18.7266 0.294067 18.7266 0.656952C18.7266 1.01984 19.0206 1.3139 19.3835 1.3139H20.686V2.61639C20.686 2.97928 20.9802 3.27334 21.343 3.27334C21.7058 3.27334 21.9999 2.97928 21.9999 2.61639V0.656952C21.9999 0.294067 21.7058 0 21.343 0Z" fill="#EC320A"/>
<path d="M21.343 11.8442C20.9802 11.8442 20.686 12.1385 20.686 12.5012V13.8037H19.3835C19.0206 13.8037 18.7266 14.0979 18.7266 14.4606C18.7266 14.8235 19.0206 15.1176 19.3835 15.1176H21.343C21.7058 15.1176 21.9999 14.8235 21.9999 14.4606V12.5012C21.9999 12.1385 21.7058 11.8442 21.343 11.8442Z" fill="#EC320A"/>
<path d="M7.53976 3.27334C7.90248 3.27334 8.19672 2.97928 8.19672 2.61639V1.3139H9.49921C9.86192 1.3139 10.1562 1.01984 10.1562 0.656952C10.1562 0.294067 9.86192 0 9.49921 0H7.53976C7.17688 0 6.88281 0.294067 6.88281 0.656952V2.61639C6.88281 2.97928 7.17688 3.27334 7.53976 3.27334Z" fill="#EC320A"/>
<path d="M19.7405 11.0004L17.6741 7.79969L18.6543 4.14785C18.7857 3.65824 18.3361 3.21227 17.8493 3.34286L14.1977 4.32308L10.9965 2.25672C10.5708 1.98196 10.0065 2.27401 9.98387 2.77956L9.81703 6.55494L6.83675 8.95363C6.44013 9.27372 6.54285 9.90331 7.01886 10.0814L8.75507 10.7283L0.513296 18.9699C-0.169839 19.653 -0.172357 20.761 0.513296 21.4466L0.550055 21.4834C0.550558 21.4834 0.550558 21.4834 0.550558 21.4839C1.23319 22.1665 2.34366 22.1665 3.0273 21.4839L11.2689 13.2423L11.9158 14.9778C12.0944 15.4557 12.7245 15.5569 13.043 15.1606L15.4422 12.1796L19.2176 12.0128C19.723 11.9912 20.0151 11.4267 19.7405 11.0004ZM2.09794 20.5545C1.92757 20.7252 1.65029 20.7252 1.47942 20.5545L1.44266 20.5178C1.27112 20.3461 1.2718 20.0698 1.44266 19.8989L10.1088 11.2328L10.5861 11.4106L10.7644 11.8884L2.09794 20.5545ZM15.0876 10.8803C14.8988 10.8886 14.7232 10.9779 14.6045 11.1247L12.7439 13.4372C12.3089 12.2694 11.7125 10.6705 11.7125 10.6705C11.6461 10.4918 11.5049 10.3511 11.3266 10.2847C11.3266 10.2847 9.80545 9.71717 8.56003 9.25324L10.8726 7.39232C11.0193 7.27399 11.1086 7.09842 11.117 6.9096L11.2461 3.98185L13.7302 5.58529C13.8861 5.686 14.0777 5.7157 14.2567 5.66753L17.09 4.90736L16.3296 7.74044C16.2815 7.9197 16.3112 8.11104 16.4119 8.26697L18.0153 10.7511L15.0876 10.8803Z" fill="#EC320A"/>
</g>
<defs>
<clipPath id="clip0_3992_12434">
<rect width="22" height="22" fill="white"/>
</clipPath>
</defs>
</svg>
