<svg width="22" height="22" viewBox="0 0 22 22" fill="none" xmlns="http://www.w3.org/2000/svg">
<path fill-rule="evenodd" clip-rule="evenodd" d="M3.4802 10.8042C3.44983 10.8345 3.4375 10.8693 3.4375 10.899V13.924C3.4375 14.4518 3.87219 14.8865 4.39999 14.8865H5.59163C5.67028 14.8865 5.72919 14.8276 5.72919 14.749V10.899C5.72919 10.8246 5.66533 10.7615 5.59163 10.7615H3.57502C3.54537 10.7615 3.51057 10.7738 3.4802 10.8042ZM2.0625 10.899C2.0625 10.0701 2.74619 9.38647 3.57502 9.38647H5.59163C6.43462 9.38647 7.10419 10.075 7.10419 10.899V14.749C7.10419 15.587 6.42967 16.2615 5.59163 16.2615H4.39999C3.11279 16.2615 2.0625 15.2111 2.0625 13.924V10.899Z" fill="#EC320A"/>
<path fill-rule="evenodd" clip-rule="evenodd" d="M10.9987 3.42773C7.83092 3.42773 5.26953 5.98912 5.26953 9.1569V10.0827C5.26953 10.4624 4.96173 10.7702 4.58203 10.7702C4.20234 10.7702 3.89453 10.4624 3.89453 10.0827V9.1569C3.89453 5.2297 7.07148 2.05273 10.9987 2.05273C14.9259 2.05273 18.1029 5.2297 18.1029 9.1569V10.0736C18.1029 10.4532 17.7951 10.7611 17.4154 10.7611C17.0357 10.7611 16.7279 10.4532 16.7279 10.0736V9.1569C16.7279 5.98912 14.1665 3.42773 10.9987 3.42773Z" fill="#EC320A"/>
<path fill-rule="evenodd" clip-rule="evenodd" d="M17.4617 14.9001C17.834 14.9748 18.0751 15.3372 18.0004 15.7095C17.5154 18.1235 15.3867 19.9374 12.8346 19.9374H11.918C11.5382 19.9374 11.2305 19.6296 11.2305 19.2499C11.2305 18.8702 11.5382 18.5624 11.918 18.5624H12.8346C14.7192 18.5624 16.2939 17.2229 16.6523 15.4387C16.7271 15.0665 17.0895 14.8253 17.4617 14.9001Z" fill="#EC320A"/>
<path fill-rule="evenodd" clip-rule="evenodd" d="M16.3123 10.8042C16.2819 10.8345 16.2695 10.8693 16.2695 10.899V14.749C16.2695 14.8234 16.3334 14.8865 16.4071 14.8865H17.5529C18.1082 14.8865 18.5612 14.4334 18.5612 13.8781V10.899C18.5612 10.8246 18.4974 10.7615 18.4237 10.7615H16.4071C16.3774 10.7615 16.3426 10.7738 16.3123 10.8042ZM14.8945 10.899C14.8945 10.0701 15.5782 9.38647 16.4071 9.38647H18.4237C19.2666 9.38647 19.9362 10.075 19.9362 10.899V13.8781C19.9362 15.1928 18.8676 16.2615 17.5529 16.2615H16.4071C15.5641 16.2615 14.8945 15.5729 14.8945 14.749V10.899Z" fill="#EC320A"/>
</svg>
