<svg width="84" height="85" viewBox="0 0 84 85" fill="none" xmlns="http://www.w3.org/2000/svg">
<g clip-path="url(#clip0_3992_12309)">
<path d="M48.0266 74.299L68.5889 84.4434C70.6118 85.4414 72.9794 83.9694 72.9794 81.7138V11.5944C72.9794 9.13808 70.9882 7.14685 68.5318 7.14685H15.4632C13.0069 7.14685 11.0156 9.13808 11.0156 11.5944V81.7138C11.0156 83.9694 13.3832 85.4414 15.4061 84.4434L35.9682 74.299C39.7691 72.4237 44.226 72.4237 48.0266 74.299Z" fill="url(#paint0_linear_3992_12309)"/>
<path d="M68.5304 7.14685H41.9961V72.8924C44.0605 72.8924 46.1249 73.3612 48.0252 74.2988L68.5875 84.4433C70.6104 85.4413 72.978 83.9693 72.978 81.7136V11.5944C72.978 9.13808 70.9868 7.14685 68.5304 7.14685Z" fill="url(#paint1_linear_3992_12309)"/>
<path d="M72.9777 39.6467V81.714C72.9777 83.9699 70.6102 85.4415 68.5873 84.444L48.0254 74.3C46.1255 73.3616 44.06 72.894 41.9961 72.894V39.6467H72.9777Z" fill="url(#paint2_linear_3992_12309)"/>
<path d="M11.0156 39.6467V81.714C11.0156 83.9699 13.383 85.4415 15.4059 84.444L35.9679 74.3C37.8677 73.3616 39.9333 72.894 41.9972 72.894V39.6467H11.0156Z" fill="url(#paint3_linear_3992_12309)"/>
<path d="M68.5343 7.14856H57.9283V28.9215L17.8672 68.9826L27.4092 78.5246L35.9708 74.3007C39.7715 72.4256 44.2284 72.4256 48.0291 74.3007L68.5914 84.4451C70.6143 85.4431 72.9819 83.9712 72.9819 81.7155V11.5961C72.9819 9.13979 70.9906 7.14856 68.5343 7.14856Z" fill="url(#paint4_linear_3992_12309)"/>
<path d="M46.8501 61.2158L63.3905 69.3761C65.0177 70.1789 66.9223 68.9948 66.9223 67.1803V4.33943C66.9223 2.36346 65.3205 0.761719 63.3446 0.761719H20.6558C18.6799 0.761719 17.0781 2.36346 17.0781 4.33943V67.1803C17.0781 68.9947 18.9827 70.1789 20.6099 69.3761L37.1504 61.2158C40.2077 59.7074 43.7928 59.7074 46.8501 61.2158Z" fill="url(#paint5_linear_3992_12309)"/>
<path d="M63.3444 0.761719H42V60.0844C43.6606 60.0844 45.3213 60.4616 46.8499 61.2156L63.3903 69.3759C65.0175 70.1787 66.9221 68.9947 66.9221 67.1801V4.33943C66.9221 2.36346 65.3203 0.761719 63.3444 0.761719Z" fill="url(#paint6_linear_3992_12309)"/>
<path d="M66.9219 33.3407V67.1799C66.9219 68.9946 65.0175 70.1783 63.3903 69.3759L46.85 61.2159C45.3218 60.461 43.6603 60.0849 42 60.0849V33.3407H66.9219Z" fill="url(#paint7_linear_3992_12309)"/>
<path d="M17.0781 33.3407V67.1799C17.0781 68.9946 18.9826 70.1783 20.6097 69.3759L37.15 61.2159C38.6783 60.461 40.3397 60.0849 42 60.0849V33.3407H17.0781Z" fill="url(#paint8_linear_3992_12309)"/>
<path d="M43.1836 8.85864L55.6822 21.3574H43.8492L43.1836 8.85864Z" fill="url(#paint9_linear_3992_12309)"/>
<path d="M60.4243 21.3776L30.3242 43.9832L48.2484 61.9074L63.3877 69.3765C65.0149 70.1793 66.9195 68.9952 66.9195 67.1807V27.8728L60.4243 21.3776Z" fill="url(#paint10_linear_3992_12309)"/>
<path d="M43.4246 9.21625L48.0203 18.5281C48.2517 18.9967 48.6987 19.3215 49.2159 19.3967L59.4921 20.89C60.7944 21.0791 61.3143 22.6796 60.3719 23.5981L52.936 30.8464C52.5617 31.2111 52.391 31.7368 52.4794 32.2518L54.2349 42.4865C54.4573 43.7836 53.0959 44.7727 51.9311 44.1603L42.7397 39.3281C42.2772 39.085 41.7246 39.085 41.2619 39.3281L32.0705 44.1603C30.9057 44.7727 29.5443 43.7836 29.7667 42.4865L31.5222 32.2518C31.6105 31.7368 31.4398 31.2111 31.0656 30.8464L23.6297 23.5981C22.6873 22.6796 23.2074 21.0791 24.5095 20.89L34.7857 19.3967C35.3029 19.3215 35.7499 18.9967 35.9813 18.5281L40.577 9.21625C41.1596 8.03615 42.8422 8.03615 43.4246 9.21625Z" fill="url(#paint11_linear_3992_12309)"/>
<path d="M35.5635 32.9459C35.8798 31.0999 35.2684 29.2178 33.9278 27.9107L32.1558 26.1834C31.3305 25.379 31.786 23.9778 32.9264 23.8121L35.3743 23.4564C37.2281 23.187 38.8297 22.0235 39.6582 20.3435L40.7528 18.1257C41.2627 17.0924 42.7363 17.0924 43.2462 18.1257L44.341 20.3441C45.1694 22.0233 46.7709 23.187 48.6245 23.4564L51.0725 23.8121C52.2129 23.9778 52.6682 25.3792 51.8431 26.1834L50.0717 27.91C48.7305 29.2179 48.1192 31.0999 48.4354 32.9454L48.8536 35.3839C49.0483 36.5197 47.8564 37.3858 46.8364 36.8495L44.6468 35.6984C43.8337 35.2708 42.9183 35.0448 41.9994 35.0449C41.0804 35.0448 40.165 35.2708 39.3517 35.6984L37.1625 36.8495C36.1425 37.3856 34.9504 36.5195 35.1453 35.3839L35.5635 32.9459Z" fill="url(#paint12_linear_3992_12309)"/>
<path d="M35.5635 32.9459C35.8798 31.0999 35.2684 29.2178 33.9278 27.9107L32.1558 26.1834C31.3305 25.379 31.786 23.9778 32.9264 23.8121L35.3743 23.4564C37.2281 23.187 38.8297 22.0235 39.6582 20.3435L40.7528 18.1257C41.2627 17.0924 42.7363 17.0924 43.2462 18.1257L44.341 20.3441C45.1694 22.0233 46.7709 23.187 48.6245 23.4564L51.0725 23.8121C52.2129 23.9778 52.6682 25.3792 51.8431 26.1834L50.0717 27.91C48.7305 29.2179 48.1192 31.0999 48.4354 32.9454L48.8536 35.3839C49.0483 36.5197 47.8564 37.3858 46.8364 36.8495L44.6468 35.6984C43.8337 35.2708 42.9183 35.0448 41.9994 35.0449C41.0804 35.0448 40.165 35.2708 39.3517 35.6984L37.1625 36.8495C36.1425 37.3856 34.9504 36.5195 35.1453 35.3839L35.5635 32.9459Z" fill="url(#paint13_linear_3992_12309)"/>
<path d="M35.5635 32.9459C35.8798 31.0999 35.2684 29.2178 33.9278 27.9107L32.1558 26.1834C31.3305 25.379 31.786 23.9778 32.9264 23.8121L35.3743 23.4564C37.2281 23.187 38.8297 22.0235 39.6582 20.3435L40.7528 18.1257C41.2627 17.0924 42.7363 17.0924 43.2462 18.1257L44.341 20.3441C45.1694 22.0233 46.7709 23.187 48.6245 23.4564L51.0725 23.8121C52.2129 23.9778 52.6682 25.3792 51.8431 26.1834L50.0717 27.91C48.7305 29.2179 48.1192 31.0999 48.4354 32.9454L48.8536 35.3839C49.0483 36.5197 47.8564 37.3858 46.8364 36.8495L44.6468 35.6984C43.8337 35.2708 42.9183 35.0448 41.9994 35.0449C41.0804 35.0448 40.165 35.2708 39.3517 35.6984L37.1625 36.8495C36.1425 37.3856 34.9504 36.5195 35.1453 35.3839L35.5635 32.9459Z" fill="url(#paint14_linear_3992_12309)"/>
<path d="M42.7386 39.3284L51.93 44.1605C53.0949 44.773 54.4563 43.7839 54.2338 42.4868L52.4785 32.2521C52.3901 31.7371 52.5609 31.2114 52.9351 30.8467L60.3711 23.5984C61.3134 22.6798 60.7934 21.0794 59.4912 20.8902L49.215 19.3969C48.6978 19.3218 48.2508 18.997 48.0195 18.5284L43.4237 9.21654C43.1325 8.62641 42.5662 8.33142 42 8.33142V39.146C42.2536 39.1461 42.5074 39.2068 42.7386 39.3284Z" fill="url(#paint15_linear_3992_12309)"/>
<path d="M60.3712 23.598C60.3917 23.5779 60.4078 23.556 60.427 23.5353H42V39.1457C42.2538 39.1457 42.5076 39.2064 42.7388 39.3281L51.9302 44.1602C53.0951 44.7727 54.4564 43.7835 54.234 42.4865L52.4787 32.2518C52.3902 31.7368 52.561 31.2111 52.9353 30.8464L60.3712 23.598Z" fill="url(#paint16_linear_3992_12309)"/>
<path d="M23.63 23.598C23.6095 23.5779 23.5934 23.556 23.5742 23.5353H42.0012V39.1457C41.7474 39.1457 41.4936 39.2064 41.2625 39.3281L32.071 44.1602C30.9062 44.7727 29.5448 43.7835 29.7673 42.4865L31.5226 32.2518C31.611 31.7368 31.4402 31.2111 31.066 30.8464L23.63 23.598Z" fill="url(#paint17_linear_3992_12309)"/>
</g>
<defs>
<linearGradient id="paint0_linear_3992_12309" x1="19.1152" y1="36.6036" x2="69.6895" y2="57.7842" gradientUnits="userSpaceOnUse">
<stop stop-color="#62DBFB"/>
<stop offset="0.1912" stop-color="#57D5FA"/>
<stop offset="0.5232" stop-color="#3BC5F7"/>
<stop offset="0.954" stop-color="#0DABF2"/>
<stop offset="1" stop-color="#08A9F1"/>
</linearGradient>
<linearGradient id="paint1_linear_3992_12309" x1="62.9977" y1="45.9542" x2="72.6138" y2="45.9542" gradientUnits="userSpaceOnUse">
<stop stop-color="#05B2FC" stop-opacity="0"/>
<stop offset="0.6831" stop-color="#03A9FC" stop-opacity="0.683"/>
<stop offset="1" stop-color="#01ADFC"/>
</linearGradient>
<linearGradient id="paint2_linear_3992_12309" x1="53.2823" y1="70.1911" x2="50.7091" y2="75.805" gradientUnits="userSpaceOnUse">
<stop stop-color="#05B6FC" stop-opacity="0"/>
<stop offset="0.6831" stop-color="#03BAFC" stop-opacity="0.683"/>
<stop offset="1" stop-color="#01ADFC"/>
</linearGradient>
<linearGradient id="paint3_linear_3992_12309" x1="30.7112" y1="70.1911" x2="33.2842" y2="75.805" gradientUnits="userSpaceOnUse">
<stop stop-color="#05AEFC" stop-opacity="0"/>
<stop offset="0.6831" stop-color="#03CAFC" stop-opacity="0.683"/>
<stop offset="1" stop-color="#01B9FC"/>
</linearGradient>
<linearGradient id="paint4_linear_3992_12309" x1="61.6696" y1="54.1703" x2="37.9862" y2="33.2937" gradientUnits="userSpaceOnUse">
<stop stop-color="#05DBFC" stop-opacity="0"/>
<stop offset="0.6831" stop-color="#03CAFC" stop-opacity="0.683"/>
<stop offset="1" stop-color="#01ADFC"/>
</linearGradient>
<linearGradient id="paint5_linear_3992_12309" x1="62.202" y1="45.7292" x2="13.5108" y2="19.7131" gradientUnits="userSpaceOnUse">
<stop stop-color="#63C8EC"/>
<stop offset="1" stop-color="#D0F4FF"/>
</linearGradient>
<linearGradient id="paint6_linear_3992_12309" x1="58.8938" y1="35.1968" x2="66.6291" y2="35.1968" gradientUnits="userSpaceOnUse">
<stop stop-color="#7BACDF" stop-opacity="0"/>
<stop offset="1" stop-color="#7BACDF"/>
</linearGradient>
<linearGradient id="paint7_linear_3992_12309" x1="51.0787" y1="57.9109" x2="49.0091" y2="62.4267" gradientUnits="userSpaceOnUse">
<stop stop-color="#7BACDF" stop-opacity="0"/>
<stop offset="1" stop-color="#7BACDF"/>
</linearGradient>
<linearGradient id="paint8_linear_3992_12309" x1="32.9213" y1="57.9109" x2="34.9911" y2="62.4267" gradientUnits="userSpaceOnUse">
<stop stop-color="#7BACDF" stop-opacity="0"/>
<stop offset="1" stop-color="#7BACDF"/>
</linearGradient>
<linearGradient id="paint9_linear_3992_12309" x1="50.2649" y1="14.7255" x2="46.2591" y2="16.5674" gradientUnits="userSpaceOnUse">
<stop stop-color="#7BACDF" stop-opacity="0"/>
<stop offset="1" stop-color="#7BACDF"/>
</linearGradient>
<linearGradient id="paint10_linear_3992_12309" x1="52.125" y1="40.3557" x2="46.5111" y2="33.2604" gradientUnits="userSpaceOnUse">
<stop stop-color="#7BACDF" stop-opacity="0"/>
<stop offset="1" stop-color="#7BACDF"/>
</linearGradient>
<linearGradient id="paint11_linear_3992_12309" x1="34.1264" y1="23.1868" x2="46.0558" y2="33.245" gradientUnits="userSpaceOnUse">
<stop stop-color="#FEF0AE"/>
<stop offset="1" stop-color="#FBC56D"/>
</linearGradient>
<linearGradient id="paint12_linear_3992_12309" x1="25.4322" y1="12.1398" x2="51.5791" y2="38.2866" gradientUnits="userSpaceOnUse">
<stop stop-color="#DC8758" stop-opacity="0"/>
<stop offset="0.2153" stop-color="#DD8654" stop-opacity="0.215"/>
<stop offset="0.4291" stop-color="#E28448" stop-opacity="0.429"/>
<stop offset="0.6424" stop-color="#EA8034" stop-opacity="0.642"/>
<stop offset="0.8543" stop-color="#F47B18" stop-opacity="0.854"/>
<stop offset="1" stop-color="#FE7701"/>
</linearGradient>
<linearGradient id="paint13_linear_3992_12309" x1="41.3904" y1="27.1706" x2="36.5561" y2="20.3873" gradientUnits="userSpaceOnUse">
<stop stop-color="#DC8758" stop-opacity="0"/>
<stop offset="0.2153" stop-color="#DD8654" stop-opacity="0.215"/>
<stop offset="0.4291" stop-color="#E28448" stop-opacity="0.429"/>
<stop offset="0.6424" stop-color="#EA8034" stop-opacity="0.642"/>
<stop offset="0.8543" stop-color="#F47B18" stop-opacity="0.854"/>
<stop offset="1" stop-color="#FE7701"/>
</linearGradient>
<linearGradient id="paint14_linear_3992_12309" x1="39.3309" y1="29.4683" x2="33.2492" y2="32.0414" gradientUnits="userSpaceOnUse">
<stop stop-color="#DC8758" stop-opacity="0"/>
<stop offset="0.2153" stop-color="#DD8654" stop-opacity="0.215"/>
<stop offset="0.4291" stop-color="#E28448" stop-opacity="0.429"/>
<stop offset="0.6424" stop-color="#EA8034" stop-opacity="0.642"/>
<stop offset="0.8543" stop-color="#F47B18" stop-opacity="0.854"/>
<stop offset="1" stop-color="#FE7701"/>
</linearGradient>
<linearGradient id="paint15_linear_3992_12309" x1="49.3534" y1="27.1589" x2="58.8267" y2="31.0183" gradientUnits="userSpaceOnUse">
<stop stop-color="#DC8758" stop-opacity="0"/>
<stop offset="0.2153" stop-color="#DD8654" stop-opacity="0.215"/>
<stop offset="0.4291" stop-color="#E28448" stop-opacity="0.429"/>
<stop offset="0.6424" stop-color="#EA8034" stop-opacity="0.642"/>
<stop offset="0.8543" stop-color="#F47B18" stop-opacity="0.854"/>
<stop offset="1" stop-color="#FE7701"/>
</linearGradient>
<linearGradient id="paint16_linear_3992_12309" x1="45.9683" y1="38.0729" x2="44.7989" y2="40.646" gradientUnits="userSpaceOnUse">
<stop stop-color="#DC8758" stop-opacity="0"/>
<stop offset="0.2153" stop-color="#DD8654" stop-opacity="0.215"/>
<stop offset="0.4291" stop-color="#E28448" stop-opacity="0.429"/>
<stop offset="0.6424" stop-color="#EA8034" stop-opacity="0.642"/>
<stop offset="0.8543" stop-color="#F47B18" stop-opacity="0.854"/>
<stop offset="1" stop-color="#FE7701"/>
</linearGradient>
<linearGradient id="paint17_linear_3992_12309" x1="38.0329" y1="38.0729" x2="39.2025" y2="40.646" gradientUnits="userSpaceOnUse">
<stop stop-color="#DC8758" stop-opacity="0"/>
<stop offset="0.2153" stop-color="#DD8654" stop-opacity="0.215"/>
<stop offset="0.4291" stop-color="#E28448" stop-opacity="0.429"/>
<stop offset="0.6424" stop-color="#EA8034" stop-opacity="0.642"/>
<stop offset="0.8543" stop-color="#F47B18" stop-opacity="0.854"/>
<stop offset="1" stop-color="#FE7701"/>
</linearGradient>
<clipPath id="clip0_3992_12309">
<rect width="84" height="84" fill="white" transform="translate(0 0.761719)"/>
</clipPath>
</defs>
</svg>
