<svg width="84" height="84" viewBox="0 0 84 84" fill="none" xmlns="http://www.w3.org/2000/svg">
<g clip-path="url(#clip0_3992_12270)">
<path d="M64.1115 65.7408C63.5175 63.6253 61.3218 62.3914 59.2054 62.9858L57.605 63.4352L54.3554 68.0455C51.7847 71.693 47.5729 73.8205 43.1918 73.8205C43.02 73.8205 42.8479 73.8159 42.6758 73.8094C43.7957 73.9982 44.9354 74.094 46.0863 74.094C48.0649 74.094 50.0757 73.8144 52.07 73.2543L61.3568 70.6467C63.472 70.0528 64.7056 67.8564 64.1115 65.7408Z" fill="url(#paint0_linear_3992_12270)"/>
<path d="M64.1115 65.7408C63.5175 63.6253 61.3218 62.3914 59.2054 62.9858L57.605 63.4352L54.3554 68.0455C51.7847 71.693 47.5729 73.8205 43.1918 73.8205C43.02 73.8205 42.8479 73.8159 42.6758 73.8094C43.7957 73.9982 44.9354 74.094 46.0863 74.094C48.0649 74.094 50.0757 73.8144 52.07 73.2543L61.3568 70.6467C63.472 70.0528 64.7056 67.8564 64.1115 65.7408Z" fill="url(#paint1_linear_3992_12270)"/>
<path d="M43.5147 75.6356C42.7402 75.6279 41.962 75.5538 41.1866 75.4097C39.0261 75.0086 37.5999 72.9319 38.0012 70.7715C38.4023 68.6113 40.4794 67.1844 42.6393 67.5861C44.789 67.9851 47.0009 67.0967 48.2778 65.3235L53.5707 57.9712C54.8547 56.1878 57.3411 55.7831 59.1243 57.0669C60.9074 58.3507 61.3124 60.837 60.0286 62.6204L54.7356 69.9727C52.1283 73.594 47.8955 75.6794 43.5147 75.6356Z" fill="url(#paint2_linear_3992_12270)"/>
<path d="M53.8412 58.6485L51.1374 61.3522L48.2796 65.3219C47.4672 66.4502 46.2759 67.2181 44.9634 67.5262L38.6797 73.81C39.2572 74.6178 40.1352 75.2124 41.1887 75.4081C41.9641 75.552 42.7424 75.6262 43.5167 75.634C47.8975 75.6779 52.1304 73.5925 54.7375 69.9709L59.1017 63.9088L53.8412 58.6485Z" fill="url(#paint3_linear_3992_12270)"/>
<path d="M53.8412 58.6485L51.1374 61.3522L48.2796 65.3219C47.4672 66.4502 46.2759 67.2181 44.9634 67.5262L38.6797 73.81C39.2572 74.6178 40.1352 75.2124 41.1887 75.4081C41.9641 75.552 42.7424 75.6262 43.5167 75.634C47.8975 75.6779 52.1304 73.5925 54.7375 69.9709L59.1017 63.9088L53.8412 58.6485Z" fill="url(#paint4_linear_3992_12270)"/>
<path d="M36.1845 77.0364C36.089 77.0246 35.9942 77.0118 35.8987 76.998L28.5592 75.9311C26.3847 75.6151 24.8781 73.596 25.1943 71.4215C25.5061 69.2759 27.4765 67.7805 29.6177 68.0451C29.6464 68.0487 29.675 68.0525 29.7038 68.0568L37.0433 69.1235C39.2008 69.437 41.3823 68.4636 42.5888 66.6414L47.5893 59.0873C48.8022 57.2551 51.2705 56.7527 53.1033 57.9658C54.9353 59.1787 55.4375 61.6473 54.2248 63.4796L49.2242 71.0338C46.3788 75.3318 41.2858 77.6667 36.1845 77.0364Z" fill="url(#paint5_linear_3992_12270)"/>
<path d="M47.918 60.6342L43.9222 64.63L42.5905 66.6417C41.8859 67.706 40.8474 68.4779 39.6765 68.8757L32.1055 76.4467L35.9004 76.9983C35.9959 77.0122 36.0907 77.025 36.1862 77.0367C41.2876 77.667 46.3804 75.3321 49.2259 71.0341L52.8472 65.5635L47.918 60.6342Z" fill="url(#paint6_linear_3992_12270)"/>
<path d="M47.918 60.6342L43.9222 64.63L42.5905 66.6417C41.8859 67.706 40.8474 68.4779 39.6765 68.8757L32.1055 76.4467L35.9004 76.9983C35.9959 77.0122 36.0907 77.025 36.1862 77.0367C41.2876 77.667 46.3804 75.3321 49.2259 71.0341L52.8472 65.5635L47.918 60.6342Z" fill="url(#paint7_linear_3992_12270)"/>
<path d="M47.3551 60.0823C45.6594 58.6871 43.1519 58.9311 41.7549 60.6287L39.35 63.5516C37.5623 62.6127 35.9638 61.3377 34.5775 59.7357L34.1212 59.2105C36.3864 57.826 38.5739 56.321 40.6727 54.696C42.6779 53.1435 42.9945 50.2346 41.3836 48.277C41.1979 48.0506 40.9946 47.8492 40.7789 47.6705C39.2775 46.4238 37.0991 46.2719 35.4139 47.3859C32.0717 49.5981 28.2965 51.0993 24.3283 51.7801C23.6563 51.8968 22.972 51.9411 22.2912 51.9322C19.9588 51.9056 14.0262 51.8738 12.0916 52.231C12.0738 52.2346 11.8158 52.2839 11.706 52.3087C9.34006 52.8232 7.23219 54.1636 5.68672 56.0292L2.91406 59.3695V79.1535H5.95184C9.32431 79.1535 12.6609 78.4619 15.7556 77.1217C17.0923 76.4956 18.5902 76.2323 20.1021 76.3878C20.1021 76.3878 30.4856 77.6469 31.5907 77.6469C35.6135 77.6469 39.5285 75.8609 42.1457 72.6797L47.8997 65.6826C49.2967 63.9867 49.0527 61.4792 47.3551 60.0823Z" fill="url(#paint8_linear_3992_12270)"/>
<path d="M24.4696 51.7543C24.4223 51.7627 24.3756 51.7724 24.3283 51.7804C23.6563 51.8971 22.972 51.9414 22.2912 51.9325C19.9588 51.9059 14.0262 51.8741 12.0916 52.2313C12.0738 52.2349 11.8158 52.2843 11.706 52.309C9.34006 52.8235 7.23219 54.1639 5.68672 56.0295L2.91406 59.3698V79.1539H5.95184C9.32431 79.1539 12.6609 78.4624 15.7556 77.1222C17.0923 76.4961 18.5902 76.2328 20.1021 76.3883C20.1021 76.3883 22.1191 76.6329 24.4696 76.9064V51.7543Z" fill="url(#paint9_linear_3992_12270)"/>
<path d="M40.6732 54.6959C38.5742 56.321 36.3869 57.8259 34.1217 59.2105L34.5779 59.7356C35.9642 61.3377 37.5629 62.6126 39.3505 63.5515L35.9995 67.6239C35.7131 67.9722 35.3895 68.28 35.0376 68.5451C32.1595 61.3277 26.3608 55.781 10.2248 57.2935C8.17025 57.4862 6.14359 57.4793 4.19141 57.831L5.68733 56.0291C7.2328 54.1636 9.34067 52.8232 11.7066 52.3087C11.8162 52.2839 12.0744 52.2343 12.0922 52.2309C14.0266 51.8737 19.9593 51.9056 22.2918 51.9321C22.9726 51.941 23.6569 51.8967 24.3289 51.7801C28.2969 51.0992 32.0724 49.598 35.4145 47.3858C37.0997 46.2718 39.2781 46.4239 40.7795 47.6705C40.9952 47.8491 41.1985 48.0506 41.3842 48.277C42.9948 50.2346 42.6783 53.1434 40.6732 54.6959Z" fill="url(#paint10_linear_3992_12270)"/>
<path d="M31.5898 77.6477C30.4842 77.6477 29.3707 77.5128 28.2733 77.235L19.2689 74.9554C17.1387 74.4161 15.849 72.2521 16.3883 70.1219C16.9277 67.9918 19.092 66.7024 21.2217 67.2413L30.2261 69.521C32.3446 70.0573 34.6103 69.3134 35.9985 67.6257L41.7538 60.6293C43.1498 58.9322 45.6573 58.6884 47.3541 60.0841C49.0511 61.48 49.2951 63.9873 47.8992 65.6844L42.1439 72.6808C39.5273 75.8618 35.6128 77.6477 31.5898 77.6477Z" fill="url(#paint11_linear_3992_12270)"/>
<path d="M40.7776 47.6715C39.2758 46.4246 37.0965 46.2729 35.4114 47.3867C32.0698 49.5989 28.2947 51.0991 24.3272 51.7796C23.6545 51.8969 22.9709 51.9407 22.2887 51.933C21.3089 51.9212 19.6921 51.9089 18.0039 51.9252V67.811C18.9126 67.1918 20.0719 66.9493 21.2213 67.2402L30.2257 69.5199C32.3443 70.0562 34.61 69.3123 35.9981 67.6246L39.3484 63.5518C37.5611 62.6127 35.9614 61.3371 34.5752 59.7367L34.1189 59.21C36.3837 57.8263 38.5723 56.3207 40.6709 54.6958C42.6766 53.144 42.9926 50.234 41.3812 48.2769C41.1969 48.0516 40.9935 47.8498 40.7776 47.6715Z" fill="url(#paint12_linear_3992_12270)"/>
<path d="M40.6716 54.6959C38.5726 56.321 36.3853 57.8259 34.1201 59.2105L19.9879 67.1253L19.9861 67.1271C19.27 67.1713 18.5857 67.4154 18.0039 67.8114V51.9251C19.6926 51.9092 21.3106 51.9215 22.2902 51.9321C22.9711 51.941 23.6554 51.8967 24.3274 51.7801C28.2954 51.0992 32.0708 49.598 35.4129 47.3858C37.0982 46.2718 39.2766 46.4239 40.7779 47.6705C40.9937 47.8491 41.1969 48.0506 41.3826 48.277C42.9932 50.2346 42.6768 53.1434 40.6716 54.6959Z" fill="url(#paint13_linear_3992_12270)"/>
<path d="M40.6716 54.6959C38.5726 56.321 36.3853 57.8259 34.1201 59.2105L19.9879 67.1253L19.9861 67.1271C19.27 67.1713 18.5857 67.4154 18.0039 67.8114V51.9251C19.6926 51.9092 21.3106 51.9215 22.2902 51.9321C22.9711 51.941 23.6554 51.8967 24.3274 51.7801C28.2954 51.0992 32.0708 49.598 35.4129 47.3858C37.0982 46.2718 39.2766 46.4239 40.7779 47.6705C40.9937 47.8491 41.1969 48.0506 41.3826 48.277C42.9932 50.2346 42.6768 53.1434 40.6716 54.6959Z" fill="url(#paint14_linear_3992_12270)"/>
<path d="M11.9318 81.1449H2.60777C1.16747 81.1449 0 79.9773 0 78.5372V49.2431C0 47.803 1.16747 46.6354 2.60777 46.6354H11.9318C13.3719 46.6354 14.5395 47.8028 14.5395 49.2431V78.5372C14.5394 79.9773 13.3719 81.1449 11.9318 81.1449Z" fill="url(#paint15_linear_3992_12270)"/>
<path d="M14.5394 78.5379V58.686H0V78.5379C0 79.9782 1.16747 81.1456 2.60777 81.1456H11.9318C13.3719 81.1456 14.5394 79.978 14.5394 78.5379Z" fill="url(#paint16_linear_3992_12270)"/>
<path d="M79.0855 7.77031C72.1095 0.794374 59.7184 1.427 49.0374 8.50958C38.3565 1.42683 25.9653 0.794374 18.9894 7.77031C10.583 16.1767 13.2244 32.4474 24.8891 44.112C32.156 51.3789 41.2103 55.1429 49.0374 54.9161C56.8645 55.1429 65.9188 51.3788 73.1858 44.112C84.8505 32.4474 87.4919 16.1767 79.0855 7.77031Z" fill="url(#paint17_linear_3992_12270)"/>
<path d="M42.7438 13.6698C44.7286 11.6848 46.8472 9.96186 49.0374 8.50958C38.3565 1.42683 25.9653 0.794373 18.9894 7.77031C10.583 16.1767 13.2244 32.4474 24.8891 44.112C32.1559 51.3788 41.2103 55.1429 49.0373 54.9161C44.3006 54.779 40.0133 53.1807 36.8441 50.0115C28.4377 41.6053 31.0791 25.3345 42.7438 13.6698Z" fill="url(#paint18_linear_3992_12270)"/>
<path d="M67.4457 2.88843L25.5625 44.7718C32.7099 51.6063 41.4493 55.1359 49.0359 54.9161C56.863 55.1428 65.9173 51.3787 73.1843 44.1119C84.8489 32.4472 87.4902 16.1765 79.084 7.77027C76.0388 4.72511 71.9617 3.13042 67.4457 2.88843Z" fill="url(#paint19_linear_3992_12270)"/>
<path d="M24.8872 44.1126C32.1542 51.3796 41.2085 55.1435 49.0355 54.9168C56.8626 55.1435 65.9169 51.3794 73.1839 44.1126C80.9472 36.3493 84.7119 26.5464 83.8847 18.3789H14.1864C13.3593 26.5464 17.1239 36.3493 24.8872 44.1126Z" fill="url(#paint20_linear_3992_12270)"/>
</g>
<defs>
<linearGradient id="paint0_linear_3992_12270" x1="52.3565" y1="66.4658" x2="54.3733" y2="72.8947" gradientUnits="userSpaceOnUse">
<stop stop-color="#FFDFCF"/>
<stop offset="1" stop-color="#FFA78F"/>
</linearGradient>
<linearGradient id="paint1_linear_3992_12270" x1="59.3158" y1="71.8657" x2="54.1475" y2="69.3867" gradientUnits="userSpaceOnUse">
<stop stop-color="#F89580" stop-opacity="0"/>
<stop offset="0.2859" stop-color="#EE8E79" stop-opacity="0.287"/>
<stop offset="0.7624" stop-color="#D57B65" stop-opacity="0.765"/>
<stop offset="0.9972" stop-color="#C5715A"/>
</linearGradient>
<linearGradient id="paint2_linear_3992_12270" x1="48.6056" y1="65.1079" x2="53.5848" y2="70.3394" gradientUnits="userSpaceOnUse">
<stop stop-color="#FFDFCF"/>
<stop offset="1" stop-color="#FFA78F"/>
</linearGradient>
<linearGradient id="paint3_linear_3992_12270" x1="55.3896" y1="72.2737" x2="47.1643" y2="66.9793" gradientUnits="userSpaceOnUse">
<stop stop-color="#F89580" stop-opacity="0"/>
<stop offset="0.2859" stop-color="#EE8E79" stop-opacity="0.287"/>
<stop offset="0.7624" stop-color="#D57B65" stop-opacity="0.765"/>
<stop offset="0.9972" stop-color="#C5715A"/>
</linearGradient>
<linearGradient id="paint4_linear_3992_12270" x1="48.6857" y1="68.0987" x2="50.4505" y2="74.6536" gradientUnits="userSpaceOnUse">
<stop stop-color="#F89580" stop-opacity="0"/>
<stop offset="0.2859" stop-color="#EE8E79" stop-opacity="0.287"/>
<stop offset="0.7624" stop-color="#D57B65" stop-opacity="0.765"/>
<stop offset="0.9972" stop-color="#C5715A"/>
</linearGradient>
<linearGradient id="paint5_linear_3992_12270" x1="40.2094" y1="66.8283" x2="46.5752" y2="73.1941" gradientUnits="userSpaceOnUse">
<stop stop-color="#FFDFCF"/>
<stop offset="1" stop-color="#FFA78F"/>
</linearGradient>
<linearGradient id="paint6_linear_3992_12270" x1="46.2288" y1="73.4967" x2="40.22" y2="68.7066" gradientUnits="userSpaceOnUse">
<stop stop-color="#F89580" stop-opacity="0"/>
<stop offset="0.2859" stop-color="#EE8E79" stop-opacity="0.287"/>
<stop offset="0.7624" stop-color="#D57B65" stop-opacity="0.765"/>
<stop offset="0.9972" stop-color="#C5715A"/>
</linearGradient>
<linearGradient id="paint7_linear_3992_12270" x1="42.3031" y1="69.7996" x2="43.3116" y2="76.8168" gradientUnits="userSpaceOnUse">
<stop stop-color="#F89580" stop-opacity="0"/>
<stop offset="0.2859" stop-color="#EE8E79" stop-opacity="0.287"/>
<stop offset="0.7624" stop-color="#D57B65" stop-opacity="0.765"/>
<stop offset="0.9972" stop-color="#C5715A"/>
</linearGradient>
<linearGradient id="paint8_linear_3992_12270" x1="21.3905" y1="57.5618" x2="29.2059" y2="80.7562" gradientUnits="userSpaceOnUse">
<stop stop-color="#FFDFCF"/>
<stop offset="1" stop-color="#FFA78F"/>
</linearGradient>
<linearGradient id="paint9_linear_3992_12270" x1="18.671" y1="65.4542" x2="10.3502" y2="65.4542" gradientUnits="userSpaceOnUse">
<stop stop-color="#F89580" stop-opacity="0"/>
<stop offset="0.2859" stop-color="#EE8E79" stop-opacity="0.287"/>
<stop offset="0.7624" stop-color="#D57B65" stop-opacity="0.765"/>
<stop offset="0.9972" stop-color="#C5715A"/>
</linearGradient>
<linearGradient id="paint10_linear_3992_12270" x1="23.3739" y1="55.9358" x2="19.5921" y2="67.1548" gradientUnits="userSpaceOnUse">
<stop stop-color="#F89580" stop-opacity="0"/>
<stop offset="0.2859" stop-color="#EE8E79" stop-opacity="0.287"/>
<stop offset="0.7624" stop-color="#D57B65" stop-opacity="0.765"/>
<stop offset="0.9972" stop-color="#C5715A"/>
</linearGradient>
<linearGradient id="paint11_linear_3992_12270" x1="35.5173" y1="70.0621" x2="40.8117" y2="75.2724" gradientUnits="userSpaceOnUse">
<stop stop-color="#F89580" stop-opacity="0"/>
<stop offset="0.2859" stop-color="#EE8E79" stop-opacity="0.287"/>
<stop offset="0.7624" stop-color="#D57B65" stop-opacity="0.765"/>
<stop offset="0.9972" stop-color="#C5715A"/>
</linearGradient>
<linearGradient id="paint12_linear_3992_12270" x1="30.6069" y1="58.5318" x2="41.8258" y2="65.9692" gradientUnits="userSpaceOnUse">
<stop stop-color="#F89580" stop-opacity="0"/>
<stop offset="0.2859" stop-color="#EE8E79" stop-opacity="0.287"/>
<stop offset="0.7624" stop-color="#D57B65" stop-opacity="0.765"/>
<stop offset="0.9972" stop-color="#C5715A"/>
</linearGradient>
<linearGradient id="paint13_linear_3992_12270" x1="32.0332" y1="59.2744" x2="38.8402" y2="63.3082" gradientUnits="userSpaceOnUse">
<stop stop-color="#F89580" stop-opacity="0"/>
<stop offset="0.2859" stop-color="#EE8E79" stop-opacity="0.287"/>
<stop offset="0.7624" stop-color="#D57B65" stop-opacity="0.765"/>
<stop offset="0.9972" stop-color="#C5715A"/>
</linearGradient>
<linearGradient id="paint14_linear_3992_12270" x1="27.3087" y1="55.6342" x2="33.2735" y2="48.9677" gradientUnits="userSpaceOnUse">
<stop stop-color="#F89580" stop-opacity="0"/>
<stop offset="0.2859" stop-color="#EE8E79" stop-opacity="0.287"/>
<stop offset="0.7624" stop-color="#D57B65" stop-opacity="0.765"/>
<stop offset="0.9972" stop-color="#C5715A"/>
</linearGradient>
<linearGradient id="paint15_linear_3992_12270" x1="1.01522" y1="63.8902" x2="16.2465" y2="63.8902" gradientUnits="userSpaceOnUse">
<stop stop-color="#B3EDFE"/>
<stop offset="1" stop-color="#01C6FC"/>
</linearGradient>
<linearGradient id="paint16_linear_3992_12270" x1="7.26977" y1="75.2336" x2="7.26977" y2="81.9318" gradientUnits="userSpaceOnUse">
<stop stop-color="#3194C9" stop-opacity="0"/>
<stop offset="0.2761" stop-color="#3095C4" stop-opacity="0.276"/>
<stop offset="0.5628" stop-color="#2B8BB8" stop-opacity="0.563"/>
<stop offset="0.8535" stop-color="#2474A3" stop-opacity="0.854"/>
<stop offset="1" stop-color="#1F5B96"/>
</linearGradient>
<linearGradient id="paint17_linear_3992_12270" x1="42.6409" y1="12.6955" x2="66.6697" y2="47.7374" gradientUnits="userSpaceOnUse">
<stop stop-color="#FFCEA1"/>
<stop offset="1" stop-color="#FF6445"/>
</linearGradient>
<linearGradient id="paint18_linear_3992_12270" x1="42.8885" y1="15.8763" x2="50.6479" y2="2.77723" gradientUnits="userSpaceOnUse">
<stop stop-color="#FE0364" stop-opacity="0"/>
<stop offset="0.2343" stop-color="#F90362" stop-opacity="0.234"/>
<stop offset="0.5173" stop-color="#EA035B" stop-opacity="0.517"/>
<stop offset="0.8243" stop-color="#D20250" stop-opacity="0.824"/>
<stop offset="1" stop-color="#C00148"/>
</linearGradient>
<linearGradient id="paint19_linear_3992_12270" x1="58.2877" y1="32.5417" x2="71.1364" y2="46.0579" gradientUnits="userSpaceOnUse">
<stop stop-color="#FE0364" stop-opacity="0"/>
<stop offset="0.2343" stop-color="#F90362" stop-opacity="0.234"/>
<stop offset="0.5173" stop-color="#EA035B" stop-opacity="0.517"/>
<stop offset="0.8243" stop-color="#D20250" stop-opacity="0.824"/>
<stop offset="1" stop-color="#C00148"/>
</linearGradient>
<linearGradient id="paint20_linear_3992_12270" x1="47.0271" y1="35.9295" x2="44.3573" y2="56.1203" gradientUnits="userSpaceOnUse">
<stop stop-color="#FE6C03" stop-opacity="0"/>
<stop offset="0.2343" stop-color="#F96E03" stop-opacity="0.234"/>
<stop offset="0.5173" stop-color="#EA5403" stop-opacity="0.517"/>
<stop offset="0.8243" stop-color="#D23902" stop-opacity="0.824"/>
<stop offset="1" stop-color="#C01E01"/>
</linearGradient>
<clipPath id="clip0_3992_12270">
<rect width="84" height="84" fill="white"/>
</clipPath>
</defs>
</svg>
