<svg width="84" height="84" viewBox="0 0 84 84" fill="none" xmlns="http://www.w3.org/2000/svg">
<g clip-path="url(#clip0_3992_12338)">
<path d="M69.2844 10.0898C66.9875 7.79297 65.6258 4.92188 65.1828 1.93594C65.0187 0.820312 64.0508 0 62.9188 0H21.0828C19.9508 0 18.9828 0.820312 18.8187 1.93594C18.3758 4.92188 17.0141 7.79297 14.7172 10.0898C12.2727 12.5344 9.18828 13.9125 6.00547 14.257C5.38203 14.3227 4.90625 14.8477 4.90625 15.4711V32.632C4.90625 46.6922 11.0258 60.0469 21.6898 69.218L36.4719 81.9492C39.6547 84.6891 44.3633 84.6891 47.5297 81.9492L62.3117 69.218C72.9594 60.0469 79.0953 46.6922 79.0953 32.632V15.4875C79.0953 14.8641 78.6195 14.3391 77.9961 14.2734C74.8133 13.9125 71.7289 12.5344 69.2844 10.0898Z" fill="url(#paint0_linear_3992_12338)"/>
<path d="M42.0008 79.8984C40.9508 79.8984 39.9336 79.5211 39.1461 78.832L24.3641 66.1008C14.6023 57.7008 9.00781 45.4945 9.00781 32.632V18.9656C9.00781 18.3422 9.41797 17.7844 10.0086 17.6039C12.8633 16.7016 15.4883 15.1266 17.6211 12.9937C19.8359 10.7789 21.4273 8.08828 22.3133 5.13516C22.4937 4.52812 23.0516 4.10156 23.6914 4.10156H60.3266C60.9664 4.10156 61.5242 4.52812 61.7047 5.13516C62.5742 8.08828 64.1656 10.7789 66.3969 12.9937C68.5297 15.1266 71.1547 16.7016 74.0094 17.6039C74.6 17.7844 75.0102 18.3422 75.0102 18.9656V32.632C75.0102 45.5109 69.4156 57.7008 59.6539 66.1008L44.8719 78.832C44.068 79.5211 43.0508 79.8984 42.0008 79.8984Z" fill="url(#paint1_linear_3992_12338)"/>
<path d="M42.0008 75.7961C41.9352 75.7961 41.8695 75.7797 41.8203 75.7305L27.4977 63.4094C18.3594 55.5508 13.1094 44.0828 13.1094 32.0242V21.7211C13.1094 21.1961 13.4211 20.7203 13.8969 20.4906C16.3578 19.3586 18.6055 17.8 20.525 15.8969C22.5102 13.9117 24.118 11.5656 25.25 9.02266C25.4633 8.53047 25.9391 8.21875 26.4805 8.21875H57.5375C58.0789 8.21875 58.5547 8.53047 58.768 9.02266C59.9 11.5656 61.4914 13.9117 63.493 15.8969C65.3961 17.8 67.6602 19.3586 70.1211 20.4906C70.5969 20.7039 70.9086 21.1797 70.9086 21.7211V32.6477C70.9086 44.3289 65.8391 55.3867 56.9797 63.0156L42.1977 75.7469C42.132 75.7797 42.0664 75.7961 42.0008 75.7961Z" fill="url(#paint2_linear_3992_12338)"/>
<path d="M51.5984 8.20269V67.6261L42.1813 75.7308C42.132 75.78 42.0664 75.7964 42.0008 75.7964C41.9352 75.7964 41.8695 75.7636 41.8203 75.7308L27.4977 63.3933C18.3594 55.5183 13.1094 44.0668 13.1094 32.0082V21.705C13.1094 21.18 13.4211 20.7042 13.8969 20.4746C16.3578 19.3425 18.6055 17.7839 20.525 15.8808C22.5102 13.8957 24.118 11.5496 25.25 8.99019C25.4633 8.498 25.9391 8.18628 26.4805 8.18628H51.5984V8.20269Z" fill="url(#paint3_linear_3992_12338)"/>
<path d="M51.5984 8.20269V67.6261L42.1813 75.7308C42.132 75.78 42.0664 75.7964 42.0008 75.7964C41.9352 75.7964 41.8695 75.7636 41.8203 75.7308L27.4977 63.3933C18.3594 55.5183 13.1094 44.0668 13.1094 32.0082V21.705C13.1094 21.18 13.4211 20.7042 13.8969 20.4746C16.3578 19.3425 18.6055 17.7839 20.525 15.8808C22.5102 13.8957 24.118 11.5496 25.25 8.99019C25.4633 8.498 25.9391 8.18628 26.4805 8.18628H51.5984V8.20269Z" fill="url(#paint4_linear_3992_12338)"/>
<path d="M70.1055 20.4906C67.6445 19.3586 65.3969 17.8 63.4773 15.8969C61.4922 13.9117 59.8844 11.5656 58.7523 9.02266C58.5391 8.53047 58.0633 8.21875 57.5219 8.21875H26.4648C25.9234 8.21875 25.4477 8.53047 25.2344 9.02266C24.1023 11.5656 22.5109 13.9117 20.5094 15.8969C18.6062 17.8 16.3422 19.3586 13.8812 20.4906C13.4055 20.7039 13.0938 21.1797 13.0938 21.7211V32.0242C13.0938 34.4523 13.307 36.8477 13.7172 39.1937H70.3352C70.6961 37.0445 70.8766 34.8461 70.8766 32.6477V21.7211C70.893 21.1797 70.5812 20.7039 70.1055 20.4906Z" fill="url(#paint5_linear_3992_12338)"/>
<path d="M70.1055 20.4906C67.6445 19.3586 65.3969 17.8 63.4773 15.8969C61.4922 13.9117 59.8844 11.5656 58.7523 9.02266C58.5391 8.53047 58.0633 8.21875 57.5219 8.21875H26.4648C25.9234 8.21875 25.4477 8.53047 25.2344 9.02266C24.1023 11.5656 22.5109 13.9117 20.5094 15.8969C18.6062 17.8 16.3422 19.3586 13.8812 20.4906C13.4055 20.7039 13.0938 21.1797 13.0938 21.7211V32.0242C13.0938 34.4523 13.307 36.8477 13.7172 39.1937H70.3352C70.6961 37.0445 70.8766 34.8461 70.8766 32.6477V21.7211C70.893 21.1797 70.5812 20.7039 70.1055 20.4906Z" fill="url(#paint6_linear_3992_12338)"/>
<path d="M77.9953 14.257C74.8125 13.9125 71.7117 12.5344 69.2836 10.0898C66.9867 7.79297 65.625 4.92188 65.182 1.93594C65.018 0.820312 64.05 0 62.918 0H42V8.20312H57.5367C58.0781 8.20312 58.5539 8.51484 58.7672 9.00703C59.8992 11.55 61.4906 13.8961 63.4922 15.8813C65.3953 17.7844 67.6594 19.343 70.1203 20.475C70.5961 20.6883 70.9078 21.1641 70.9078 21.7055V32.632C70.9078 44.3133 65.8383 55.3711 56.9789 63L42.1969 75.7313C42.1477 75.7805 42.082 75.7969 42.0164 75.7969V84C43.9852 84 45.9539 83.3109 47.5453 81.9492L62.3273 69.218C72.975 60.0469 79.1109 46.6922 79.1109 32.632V15.4875C79.0945 14.8477 78.6187 14.3227 77.9953 14.257Z" fill="url(#paint7_linear_3992_12338)"/>
<path d="M77.9953 14.257C74.8125 13.9125 71.7117 12.5344 69.2836 10.0898C66.9867 7.79297 65.625 4.92188 65.182 1.93594C65.018 0.820312 64.05 0 62.918 0H42V8.20312H57.5367C58.0781 8.20312 58.5539 8.51484 58.7672 9.00703C59.8992 11.55 61.4906 13.8961 63.4922 15.8813C65.3953 17.7844 67.6594 19.343 70.1203 20.475C70.5961 20.6883 70.9078 21.1641 70.9078 21.7055V32.632C70.9078 44.3133 65.8383 55.3711 56.9789 63L42.1969 75.7313C42.1477 75.7805 42.082 75.7969 42.0164 75.7969V84C43.9852 84 45.9539 83.3109 47.5453 81.9492L62.3273 69.218C72.975 60.0469 79.1109 46.6922 79.1109 32.632V15.4875C79.0945 14.8477 78.6187 14.3227 77.9953 14.257Z" fill="url(#paint8_linear_3992_12338)"/>
<path d="M77.9953 14.257C74.8125 13.9125 71.7117 12.5344 69.2836 10.0898C66.9867 7.79297 65.625 4.92188 65.182 1.93594C65.018 0.820312 64.05 0 62.918 0H42V8.20312H57.5367C58.0781 8.20312 58.5539 8.51484 58.7672 9.00703C59.8992 11.55 61.4906 13.8961 63.4922 15.8813C65.3953 17.7844 67.6594 19.343 70.1203 20.475C70.5961 20.6883 70.9078 21.1641 70.9078 21.7055V32.632C70.9078 44.3133 65.8383 55.3711 56.9789 63L42.1969 75.7313C42.1477 75.7805 42.082 75.7969 42.0164 75.7969V84C43.9852 84 45.9539 83.3109 47.5453 81.9492L62.3273 69.218C72.975 60.0469 79.1109 46.6922 79.1109 32.632V15.4875C79.0945 14.8477 78.6187 14.3227 77.9953 14.257Z" fill="url(#paint9_linear_3992_12338)"/>
<path d="M70.8094 35.125L56.6016 20.9172L27.3984 50.1204L48.0047 70.7266L56.9789 62.9993C65.182 55.9282 70.1531 45.8711 70.8094 35.125Z" fill="url(#paint10_linear_3992_12338)"/>
<path d="M42.0031 56.1739C53.4108 56.1739 62.6586 46.9261 62.6586 35.5184C62.6586 24.1107 53.4108 14.8629 42.0031 14.8629C30.5954 14.8629 21.3477 24.1107 21.3477 35.5184C21.3477 46.9261 30.5954 56.1739 42.0031 56.1739Z" fill="url(#paint11_linear_3992_12338)"/>
<path d="M42.0008 14.8629C40.557 14.8629 39.1625 15.0106 37.8008 15.2895V55.7473C39.1625 56.0262 40.557 56.1739 42.0008 56.1739C53.4031 56.1739 62.6562 46.9207 62.6562 35.5184C62.6562 24.116 53.4031 14.8629 42.0008 14.8629Z" fill="url(#paint12_linear_3992_12338)"/>
<path d="M21.3477 35.5184C21.3477 46.9207 30.6008 56.1739 42.0031 56.1739C53.4055 56.1739 62.6586 46.9207 62.6586 35.5184C62.6586 34.009 62.4945 32.516 62.1828 31.1051H21.8234C21.5117 32.516 21.3477 33.9926 21.3477 35.5184Z" fill="url(#paint13_linear_3992_12338)"/>
<path d="M52.4516 17.7008L24.1836 45.9688C27.7766 52.0719 34.4047 56.1735 42.0008 56.1735C53.4031 56.1735 62.6562 46.9203 62.6562 35.518C62.6562 27.9219 58.5547 21.2938 52.4516 17.7008Z" fill="url(#paint14_linear_3992_12338)"/>
<path d="M52.4815 33.888C49.4391 37.0494 46.3478 40.282 43.3085 43.488C43.0613 43.7496 42.7635 43.958 42.4331 44.1007C42.1027 44.2433 41.7467 44.3172 41.3868 44.3177H41.3772C41.0177 44.3151 40.6622 44.2407 40.3319 44.0987C40.0015 43.9568 39.7028 43.7503 39.4534 43.4912C37.8292 41.8138 36.1932 40.1375 34.5668 38.475C34.3194 38.2263 34.1242 37.9307 33.9927 37.6054C33.8612 37.2802 33.796 36.932 33.8011 36.5812C33.8061 36.2304 33.8812 35.8842 34.0221 35.5629C34.1629 35.2416 34.3665 34.9517 34.621 34.7102C35.1334 34.2145 35.821 33.9413 36.534 33.9503C37.2469 33.9592 37.9274 34.2496 38.4272 34.758C39.3982 35.7537 40.3712 36.7527 41.3464 37.7548C43.76 35.2265 46.1842 32.6844 48.5701 30.1773C49.5836 29.115 51.2737 29.0938 52.3604 30.1221C53.4472 31.1504 53.5024 32.8278 52.4815 33.888Z" fill="url(#paint15_linear_3992_12338)"/>
</g>
<defs>
<linearGradient id="paint0_linear_3992_12338" x1="21.0881" y1="12.8869" x2="68.5249" y2="60.3238" gradientUnits="userSpaceOnUse">
<stop stop-color="#99E6FC"/>
<stop offset="1" stop-color="#2ED1E2"/>
</linearGradient>
<linearGradient id="paint1_linear_3992_12338" x1="68.7597" y1="53.5917" x2="10.1138" y2="15.8906" gradientUnits="userSpaceOnUse">
<stop stop-color="#99E6FC"/>
<stop offset="1" stop-color="#2ED1E2"/>
</linearGradient>
<linearGradient id="paint2_linear_3992_12338" x1="3.09057" y1="-3.81819" x2="77.9908" y2="71.0821" gradientUnits="userSpaceOnUse">
<stop stop-color="#017BAE" stop-opacity="0"/>
<stop offset="0.1152" stop-color="#017BAE" stop-opacity="0.038"/>
<stop offset="0.2787" stop-color="#017BAE" stop-opacity="0.145"/>
<stop offset="0.471" stop-color="#017BAE" stop-opacity="0.321"/>
<stop offset="0.6854" stop-color="#017BAE" stop-opacity="0.565"/>
<stop offset="0.9152" stop-color="#017BAE" stop-opacity="0.875"/>
<stop offset="1" stop-color="#017BAE"/>
</linearGradient>
<linearGradient id="paint3_linear_3992_12338" x1="23.5559" y1="41.9996" x2="10.5738" y2="41.9996" gradientUnits="userSpaceOnUse">
<stop stop-color="#017BAE" stop-opacity="0"/>
<stop offset="0.1152" stop-color="#017BAE" stop-opacity="0.038"/>
<stop offset="0.2787" stop-color="#017BAE" stop-opacity="0.145"/>
<stop offset="0.471" stop-color="#017BAE" stop-opacity="0.321"/>
<stop offset="0.6854" stop-color="#017BAE" stop-opacity="0.565"/>
<stop offset="0.9152" stop-color="#017BAE" stop-opacity="0.875"/>
<stop offset="1" stop-color="#017BAE"/>
</linearGradient>
<linearGradient id="paint4_linear_3992_12338" x1="26.4281" y1="49.6039" x2="19.7616" y2="55.9194" gradientUnits="userSpaceOnUse">
<stop stop-color="#017BAE" stop-opacity="0"/>
<stop offset="0.1152" stop-color="#017BAE" stop-opacity="0.038"/>
<stop offset="0.2787" stop-color="#017BAE" stop-opacity="0.145"/>
<stop offset="0.471" stop-color="#017BAE" stop-opacity="0.321"/>
<stop offset="0.6854" stop-color="#017BAE" stop-opacity="0.565"/>
<stop offset="0.9152" stop-color="#017BAE" stop-opacity="0.875"/>
<stop offset="1" stop-color="#017BAE"/>
</linearGradient>
<linearGradient id="paint5_linear_3992_12338" x1="42.0016" y1="18.522" x2="42.0016" y2="6.59256" gradientUnits="userSpaceOnUse">
<stop stop-color="#017BAE" stop-opacity="0"/>
<stop offset="0.1152" stop-color="#017BAE" stop-opacity="0.038"/>
<stop offset="0.2787" stop-color="#017BAE" stop-opacity="0.145"/>
<stop offset="0.471" stop-color="#017BAE" stop-opacity="0.321"/>
<stop offset="0.6854" stop-color="#017BAE" stop-opacity="0.565"/>
<stop offset="0.9152" stop-color="#017BAE" stop-opacity="0.875"/>
<stop offset="1" stop-color="#017BAE"/>
</linearGradient>
<linearGradient id="paint6_linear_3992_12338" x1="31.1277" y1="18.0651" x2="22.7068" y2="8.94259" gradientUnits="userSpaceOnUse">
<stop stop-color="#017BAE" stop-opacity="0"/>
<stop offset="0.1152" stop-color="#017BAE" stop-opacity="0.038"/>
<stop offset="0.2787" stop-color="#017BAE" stop-opacity="0.145"/>
<stop offset="0.471" stop-color="#017BAE" stop-opacity="0.321"/>
<stop offset="0.6854" stop-color="#017BAE" stop-opacity="0.565"/>
<stop offset="0.9152" stop-color="#017BAE" stop-opacity="0.875"/>
<stop offset="1" stop-color="#017BAE"/>
</linearGradient>
<linearGradient id="paint7_linear_3992_12338" x1="48.2327" y1="42" x2="35.1004" y2="42" gradientUnits="userSpaceOnUse">
<stop stop-color="#017BAE" stop-opacity="0"/>
<stop offset="0.1152" stop-color="#017BAE" stop-opacity="0.038"/>
<stop offset="0.2787" stop-color="#017BAE" stop-opacity="0.145"/>
<stop offset="0.471" stop-color="#017BAE" stop-opacity="0.321"/>
<stop offset="0.6854" stop-color="#017BAE" stop-opacity="0.565"/>
<stop offset="0.9152" stop-color="#017BAE" stop-opacity="0.875"/>
<stop offset="1" stop-color="#017BAE"/>
</linearGradient>
<linearGradient id="paint8_linear_3992_12338" x1="74.6647" y1="42" x2="80.065" y2="42" gradientUnits="userSpaceOnUse">
<stop stop-color="#017BAE" stop-opacity="0"/>
<stop offset="0.1152" stop-color="#017BAE" stop-opacity="0.038"/>
<stop offset="0.2787" stop-color="#017BAE" stop-opacity="0.145"/>
<stop offset="0.471" stop-color="#017BAE" stop-opacity="0.321"/>
<stop offset="0.6854" stop-color="#017BAE" stop-opacity="0.565"/>
<stop offset="0.9152" stop-color="#017BAE" stop-opacity="0.875"/>
<stop offset="1" stop-color="#017BAE"/>
</linearGradient>
<linearGradient id="paint9_linear_3992_12338" x1="66.9419" y1="54.7598" x2="72.0879" y2="59.4379" gradientUnits="userSpaceOnUse">
<stop stop-color="#017BAE" stop-opacity="0"/>
<stop offset="0.1152" stop-color="#017BAE" stop-opacity="0.038"/>
<stop offset="0.2787" stop-color="#017BAE" stop-opacity="0.145"/>
<stop offset="0.471" stop-color="#017BAE" stop-opacity="0.321"/>
<stop offset="0.6854" stop-color="#017BAE" stop-opacity="0.565"/>
<stop offset="0.9152" stop-color="#017BAE" stop-opacity="0.875"/>
<stop offset="1" stop-color="#017BAE"/>
</linearGradient>
<linearGradient id="paint10_linear_3992_12338" x1="56.9694" y1="50.4859" x2="43.009" y2="36.5255" gradientUnits="userSpaceOnUse">
<stop stop-color="#017BAE" stop-opacity="0"/>
<stop offset="0.1152" stop-color="#017BAE" stop-opacity="0.038"/>
<stop offset="0.2787" stop-color="#017BAE" stop-opacity="0.145"/>
<stop offset="0.471" stop-color="#017BAE" stop-opacity="0.321"/>
<stop offset="0.6854" stop-color="#017BAE" stop-opacity="0.565"/>
<stop offset="0.9152" stop-color="#017BAE" stop-opacity="0.875"/>
<stop offset="1" stop-color="#017BAE"/>
</linearGradient>
<linearGradient id="paint11_linear_3992_12338" x1="34.1078" y1="27.6207" x2="52.1934" y2="45.7063" gradientUnits="userSpaceOnUse">
<stop stop-color="#FEC7AE"/>
<stop offset="1" stop-color="#FA3200"/>
</linearGradient>
<linearGradient id="paint12_linear_3992_12338" x1="42.1688" y1="35.5356" x2="60.0452" y2="40.5915" gradientUnits="userSpaceOnUse">
<stop stop-color="#FE9738" stop-opacity="0"/>
<stop offset="0.1025" stop-color="#FE9738" stop-opacity="0.02"/>
<stop offset="0.2265" stop-color="#FE9738" stop-opacity="0.078"/>
<stop offset="0.3615" stop-color="#FE9738" stop-opacity="0.175"/>
<stop offset="0.5046" stop-color="#FE9738" stop-opacity="0.31"/>
<stop offset="0.6539" stop-color="#FE9738" stop-opacity="0.483"/>
<stop offset="0.8085" stop-color="#FE9738" stop-opacity="0.695"/>
<stop offset="0.9645" stop-color="#FE9738" stop-opacity="0.94"/>
<stop offset="1" stop-color="#FE9738"/>
</linearGradient>
<linearGradient id="paint13_linear_3992_12338" x1="42.0031" y1="38.4494" x2="42.0031" y2="54.2965" gradientUnits="userSpaceOnUse">
<stop stop-color="#FE9738" stop-opacity="0"/>
<stop offset="0.1025" stop-color="#FE9738" stop-opacity="0.02"/>
<stop offset="0.2265" stop-color="#FE9738" stop-opacity="0.078"/>
<stop offset="0.3615" stop-color="#FE9738" stop-opacity="0.175"/>
<stop offset="0.5046" stop-color="#FE9738" stop-opacity="0.31"/>
<stop offset="0.6539" stop-color="#FE9738" stop-opacity="0.483"/>
<stop offset="0.8085" stop-color="#FE9738" stop-opacity="0.695"/>
<stop offset="0.9645" stop-color="#FE9738" stop-opacity="0.94"/>
<stop offset="1" stop-color="#FE9738"/>
</linearGradient>
<linearGradient id="paint14_linear_3992_12338" x1="50.4508" y1="43.9657" x2="58.0228" y2="51.5379" gradientUnits="userSpaceOnUse">
<stop stop-color="#FEF0AE" stop-opacity="0"/>
<stop offset="0.0979226" stop-color="#FEF0AE" stop-opacity="0.021"/>
<stop offset="0.2219" stop-color="#FEF0AF" stop-opacity="0.083"/>
<stop offset="0.3599" stop-color="#FEF0B2" stop-opacity="0.185"/>
<stop offset="0.5083" stop-color="#FEF1B5" stop-opacity="0.327"/>
<stop offset="0.6648" stop-color="#FEF2BA" stop-opacity="0.509"/>
<stop offset="0.8281" stop-color="#FEF3BF" stop-opacity="0.732"/>
<stop offset="0.9942" stop-color="#FEF4C5" stop-opacity="0.991"/>
<stop offset="1" stop-color="#FFF5C6"/>
</linearGradient>
<linearGradient id="paint15_linear_3992_12338" x1="47.9465" y1="38.8511" x2="39.2091" y2="30.1136" gradientUnits="userSpaceOnUse">
<stop stop-color="#BCE4ED"/>
<stop offset="0.57" stop-color="white"/>
<stop offset="1" stop-color="white"/>
</linearGradient>
<clipPath id="clip0_3992_12338">
<rect width="84" height="84" fill="white"/>
</clipPath>
</defs>
</svg>
