<svg width="22" height="22" viewBox="0 0 22 22" fill="none" xmlns="http://www.w3.org/2000/svg">
<path d="M16.7953 5.59644C13.9272 5.59644 11.5938 7.92988 11.5938 10.798C11.5938 13.6662 13.9272 15.9996 16.7953 15.9996C19.6635 15.9996 21.997 13.6662 21.997 10.7981C21.997 7.92992 19.6636 5.59644 16.7953 5.59644ZM16.7953 14.7111C14.6377 14.7111 12.8823 12.9557 12.8823 10.7981C12.8823 8.64041 14.6377 6.88499 16.7953 6.88499C18.953 6.88499 20.7084 8.64041 20.7084 10.7981C20.7084 12.9557 18.953 14.7111 16.7953 14.7111Z" fill="#EC320A"/>
<path d="M18.2632 10.1553C17.9074 10.1553 17.6189 10.4437 17.6189 10.7995C17.6189 11.2524 17.2504 11.621 16.7975 11.621C16.3445 11.621 15.976 11.2524 15.976 10.7995C15.976 10.4437 15.6876 10.1553 15.3318 10.1553C14.976 10.1553 14.6875 10.4437 14.6875 10.7995C14.6875 11.9629 15.634 12.9095 16.7975 12.9095C17.9609 12.9095 18.9074 11.9629 18.9074 10.7995C18.9074 10.4437 18.619 10.1553 18.2632 10.1553Z" fill="#EC320A"/>
<path d="M1.1856 6.06235L5.40813 9.65647C5.52852 9.75891 5.67709 9.81015 5.82574 9.81015C5.97422 9.81015 6.12274 9.75899 6.24304 9.65673L10.4523 6.07794C10.4555 6.07528 10.4586 6.07257 10.4617 6.06986L10.4617 6.06991C11.5467 5.15773 11.9253 3.75497 11.4499 2.40908C10.9458 0.982058 9.65673 0.0405017 8.1655 0.00983516C7.30623 -0.0129285 6.4821 0.266248 5.82574 0.789641C5.16928 0.266162 4.34717 -0.0127137 3.48546 0.00992107C1.99457 0.0404587 0.705804 0.981757 0.201653 2.40839C-0.273248 3.75231 0.104929 5.15335 1.1856 6.06235ZM1.41655 2.83773C1.66248 2.14189 2.35905 1.32115 3.51321 1.29813C3.51475 1.29809 3.51626 1.29809 3.5178 1.29804C3.53936 1.29744 3.56088 1.29714 3.58236 1.29714C4.26037 1.29714 4.89676 1.58774 5.33662 2.1007C5.45907 2.24342 5.63766 2.32554 5.82569 2.32554C6.01373 2.32554 6.19232 2.24342 6.31473 2.1007C6.76845 1.57168 7.43199 1.27923 8.13333 1.298C8.13479 1.29804 8.13629 1.29809 8.13784 1.29809C9.2923 1.32119 9.98908 2.14219 10.2349 2.83824C10.5315 3.67779 10.3063 4.51721 9.63251 5.08368C9.63139 5.08463 9.63019 5.08562 9.62907 5.0866C9.59007 5.1198 6.88412 7.42039 5.82599 8.31999L2.01794 5.0787C1.34533 4.51304 1.12057 3.6753 1.41655 2.83773Z" fill="#EC320A"/>
<path d="M10.5655 14.7551L9.26863 14.7511L9.47707 13.8529C9.60914 13.2839 9.50859 12.6994 9.19407 12.2072C8.77865 11.536 8.00202 11.1611 7.21925 11.2454C6.97027 11.2454 6.74362 11.3888 6.63702 11.6138L5.74743 13.4917C5.52925 13.9524 5.19118 14.3475 4.76984 14.6344L3.28376 15.6463H0.648161C0.29236 15.6463 0.00390625 15.9348 0.00390625 16.2906V21.349C0.00390625 21.7048 0.29236 21.9932 0.648161 21.9932H8.88551C9.99698 21.9932 11.0226 21.3442 11.4984 20.3397L12.6094 17.9945C12.9438 17.2888 12.8945 16.4732 12.4778 15.8128C12.061 15.1524 11.346 14.757 10.5655 14.7551ZM1.29242 16.9348H2.83592V20.7019H1.29242V16.9348ZM11.445 17.4429L10.334 19.7881C10.0702 20.3449 9.50168 20.7047 8.88551 20.7047H4.12439V16.6328L5.49506 15.6995C6.10577 15.2836 6.5957 14.7109 6.9119 14.0433L7.62518 12.5376C7.82498 12.5962 7.99477 12.7234 8.10824 12.901C8.23447 13.0986 8.27484 13.3332 8.22184 13.5617L7.8307 15.2473C7.78637 15.4384 7.83147 15.6392 7.95319 15.7929C8.075 15.9467 8.26011 16.0366 8.45627 16.0372L10.5618 16.0435C10.9042 16.0444 11.2053 16.2109 11.388 16.5004C11.5708 16.79 11.5915 17.1335 11.445 17.4429Z" fill="#EC320A"/>
</svg>
