<svg width="84" height="84" viewBox="0 0 84 84" fill="none" xmlns="http://www.w3.org/2000/svg">
<g clip-path="url(#clip0_3992_12504)">
<path d="M43.0866 7.60317V12.5366C43.0866 13.1376 42.5994 13.6248 41.9984 13.6248C41.3974 13.6248 40.9102 13.1376 40.9102 12.5366V7.60317C40.9102 7.00215 41.3974 6.51495 41.9984 6.51495C42.5994 6.51479 43.0866 7.00215 43.0866 7.60317Z" fill="url(#paint0_linear_3992_12504)"/>
<path d="M34.1491 9.10229L36.2341 13.5736C36.4881 14.1182 36.2526 14.7657 35.7077 15.0198C35.163 15.2738 34.5154 15.0381 34.2614 14.4934L32.1764 10.0222C31.9224 9.47749 32.1581 8.82987 32.7028 8.57589C33.2477 8.32192 33.8951 8.55761 34.1491 9.10229Z" fill="url(#paint1_linear_3992_12504)"/>
<path d="M51.824 10.0222L49.7389 14.4934C49.485 15.0381 48.8375 15.2738 48.2927 15.0198C47.748 14.7659 47.5123 14.1184 47.7663 13.5736L49.8513 9.10229C50.1052 8.55761 50.7529 8.32192 51.2976 8.57589C51.8424 8.83003 52.0779 9.47749 51.824 10.0222Z" fill="url(#paint2_linear_3992_12504)"/>
<path d="M79.2229 55.7288H4.77713C2.13887 55.7288 0 53.5901 0 50.9516V30.7297C0 28.0913 2.13887 25.9526 4.77713 25.9526H79.2229C81.8613 25.9526 84 28.0914 84 30.7297V50.9516C84 53.5901 81.8611 55.7288 79.2229 55.7288Z" fill="url(#paint3_linear_3992_12504)"/>
<path d="M79.2211 25.9526H41.4492V55.7289H79.2211C81.8595 55.7289 83.9982 53.5901 83.9982 50.9518V30.7297C83.9982 28.0914 81.8593 25.9526 79.2211 25.9526Z" fill="url(#paint4_linear_3992_12504)"/>
<path d="M0 36.6112V50.9517C0 53.5901 2.13887 55.7288 4.77713 55.7288H79.2227C81.8611 55.7288 83.9998 53.5899 83.9998 50.9517V36.6112H0Z" fill="url(#paint5_linear_3992_12504)"/>
<path d="M79.2233 25.9526H4.88672V40.2583L20.3572 55.7288H79.2233C81.8617 55.7288 84.0004 53.5899 84.0004 50.9516V30.7297C84.0004 28.0913 81.8615 25.9526 79.2233 25.9526Z" fill="url(#paint6_linear_3992_12504)"/>
<path d="M83.9983 50.9516V30.7297C83.9983 28.0913 81.8595 25.9526 79.2212 25.9526H33.9414V40.2583L49.4119 55.7288H79.221C81.8595 55.7288 83.9983 53.5901 83.9983 50.9516Z" fill="url(#paint7_linear_3992_12504)"/>
<path d="M84 50.9516V30.7297C84 28.0914 81.8615 25.9527 79.2232 25.9526H63V40.2583L78.4705 55.7288H79.2229C81.8611 55.7288 84 53.5901 84 50.9516Z" fill="url(#paint8_linear_3992_12504)"/>
<path d="M12.1425 38.6577L7.18579 40.6887C5.65189 41.3172 3.99281 40.1117 4.1165 38.4587L4.51624 33.117C4.55989 32.5331 4.37229 31.9555 3.99363 31.5088L0.530358 27.4223C-0.541383 26.1576 0.0924049 24.2072 1.70273 23.814L6.90662 22.5437C7.47551 22.4048 7.96683 22.0477 8.27466 21.5497L11.091 16.9931C11.9626 15.583 14.0133 15.583 14.8848 16.9931L17.7011 21.5497C18.0089 22.0477 18.5003 22.4048 19.0692 22.5437L24.273 23.814C25.8834 24.2072 26.5172 26.1576 25.4454 27.4223L21.9821 31.5088C21.6037 31.9555 21.4159 32.5331 21.4595 33.117L21.8593 38.4587C21.983 40.1117 20.3239 41.3172 18.79 40.6887L13.8333 38.6577C13.2916 38.4358 12.6842 38.4358 12.1425 38.6577Z" fill="url(#paint9_linear_3992_12504)"/>
<path d="M18.3748 22.4404L14.6042 26.6468C13.6356 27.7281 12.3408 27.7281 11.3712 26.6468L7.60156 22.4404C7.61144 22.3699 7.61919 22.2984 7.62413 22.2259C7.88469 22.0507 8.10704 21.8214 8.27439 21.5492L11.0912 16.9931C11.3634 16.5523 11.7513 16.2488 12.1832 16.0832C12.6994 15.8864 13.2772 15.8864 13.7934 16.0832C14.2252 16.2488 14.6131 16.5523 14.8854 16.9931L17.7012 21.5492C17.8687 21.8214 18.092 22.0517 18.3524 22.2259C18.3572 22.2984 18.3649 22.3699 18.3748 22.4404Z" fill="url(#paint10_linear_3992_12504)"/>
<path d="M7.18519 40.6885L12.1418 38.6575C12.6837 38.4355 13.291 38.4355 13.8329 38.6575L18.7895 40.6885C20.3234 41.317 21.9825 40.1115 21.8588 38.4585L21.4591 33.1168C21.443 32.9 21.4588 32.6843 21.5042 32.4757L15.5435 28.2692C14.0109 27.1877 11.9636 27.1877 10.4312 28.2692L4.47051 32.4757C4.51596 32.6844 4.53194 32.9002 4.51563 33.1168L4.11589 38.4585C3.9922 40.1115 5.65128 41.317 7.18519 40.6885Z" fill="url(#paint11_linear_3992_12504)"/>
<path d="M21.8588 38.4585L21.4591 33.1168C21.443 32.9 21.4588 32.6843 21.5042 32.4757L15.5435 28.2692C14.0109 27.1877 11.9636 27.1877 10.4312 28.2692L4.47051 32.4757C4.51596 32.6844 4.53194 32.9002 4.51563 33.1168L4.11589 38.4585C3.9922 40.1115 5.65128 41.317 7.18519 40.6885L12.1418 38.6575C12.6837 38.4355 13.291 38.4355 13.8329 38.6575L18.7895 40.6885C20.3234 41.317 21.9825 40.1115 21.8588 38.4585Z" fill="url(#paint12_linear_3992_12504)"/>
<path d="M13.8337 38.6575L18.7904 40.6885C20.3243 41.317 21.9834 40.1115 21.8597 38.4585L21.4599 33.1168C21.4163 32.5329 21.6039 31.9553 21.9825 31.5086L25.4458 27.4221C26.5176 26.1574 25.8838 24.207 24.2734 23.8138L19.0696 22.5435C18.5007 22.4046 18.0093 22.0475 17.7015 21.5495L14.8852 16.9929C14.4494 16.2878 13.7189 15.9353 12.9883 15.9353V38.491C13.2755 38.4911 13.5628 38.5465 13.8337 38.6575Z" fill="url(#paint13_linear_3992_12504)"/>
<path d="M41.1542 38.6577L36.1975 40.6887C34.6636 41.3172 33.0045 40.1117 33.1282 38.4587L33.528 33.117C33.5716 32.5331 33.384 31.9555 33.0053 31.5088L29.5421 27.4223C28.4703 26.1576 29.1041 24.2072 30.7145 23.814L35.9183 22.5437C36.4872 22.4048 36.9785 22.0477 37.2864 21.5497L40.1027 16.9931C40.9743 15.583 43.0251 15.583 43.8965 16.9931L46.7128 21.5497C47.0207 22.0477 47.512 22.4048 48.0809 22.5437L53.2848 23.814C54.8951 24.2072 55.5289 26.1576 54.4571 27.4223L50.9939 31.5088C50.6154 31.9555 50.4276 32.5331 50.4713 33.117L50.871 38.4587C50.9947 40.1117 49.3356 41.3172 47.8017 40.6887L42.845 38.6577C42.3033 38.4358 41.6959 38.4358 41.1542 38.6577Z" fill="url(#paint14_linear_3992_12504)"/>
<path d="M47.3865 22.4404L43.6159 26.6468C42.6473 27.7281 41.3525 27.7281 40.3829 26.6468L36.6133 22.4404C36.6232 22.3699 36.6309 22.2984 36.6358 22.2259C36.8964 22.0507 37.1188 21.8214 37.2861 21.5492L40.1029 16.9931C40.3752 16.5523 40.763 16.2488 41.1949 16.0832C41.7111 15.8864 42.2889 15.8864 42.8051 16.0832C43.2369 16.2488 43.6248 16.5523 43.8971 16.9931L46.7129 21.5492C46.8804 21.8214 47.1037 22.0517 47.3641 22.2259C47.3689 22.2984 47.3766 22.3699 47.3865 22.4404Z" fill="url(#paint15_linear_3992_12504)"/>
<path d="M36.1969 40.6885L41.1536 38.6575C41.6954 38.4355 42.3027 38.4355 42.8446 38.6575L47.8013 40.6885C49.3352 41.317 50.9943 40.1115 50.8706 38.4585L50.4708 33.1168C50.4545 32.9 50.4705 32.6843 50.5159 32.4757L44.5552 28.2692C43.0227 27.1877 40.9754 27.1877 39.4429 28.2692L33.4822 32.4757C33.5277 32.6844 33.5437 32.9002 33.5274 33.1168L33.1276 38.4585C33.0039 40.1115 34.663 41.317 36.1969 40.6885Z" fill="url(#paint16_linear_3992_12504)"/>
<path d="M50.8706 38.4585L50.4708 33.1168C50.4545 32.9 50.4705 32.6843 50.5159 32.4757L44.5552 28.2692C43.0226 27.1877 40.9754 27.1877 39.4429 28.2692L33.4822 32.4757C33.5277 32.6844 33.5437 32.9002 33.5274 33.1168L33.1276 38.4585C33.0039 40.1115 34.663 41.317 36.1969 40.6885L41.1536 38.6575C41.6954 38.4355 42.3027 38.4355 42.8446 38.6575L47.8013 40.6885C49.3352 41.317 50.9943 40.1115 50.8706 38.4585Z" fill="url(#paint17_linear_3992_12504)"/>
<path d="M42.8454 38.6575L47.8021 40.6885C49.336 41.317 50.9951 40.1115 50.8714 38.4585L50.4716 33.1168C50.428 32.5329 50.6156 31.9553 50.9943 31.5086L54.4575 27.4221C55.5293 26.1574 54.8955 24.207 53.2852 23.8138L48.0813 22.5435C47.5124 22.4046 47.0211 22.0475 46.7132 21.5495L43.8969 16.9929C43.4611 16.2878 42.7306 15.9353 42 15.9353V38.491C42.2872 38.4911 42.5747 38.5465 42.8454 38.6575Z" fill="url(#paint18_linear_3992_12504)"/>
<path d="M70.1659 38.6577L65.2092 40.6887C63.6753 41.3172 62.0162 40.1117 62.1399 38.4587L62.5397 33.117C62.5833 32.5331 62.3957 31.9555 62.0171 31.5088L58.5538 27.4223C57.4821 26.1576 58.1158 24.2072 59.7262 23.814L64.9301 22.5437C65.4989 22.4048 65.9903 22.0477 66.2981 21.5497L69.1144 16.9931C69.986 15.583 72.0368 15.583 72.9082 16.9931L75.7245 21.5497C76.0324 22.0477 76.5237 22.4048 77.0926 22.5437L82.2965 23.814C83.9068 24.2072 84.5406 26.1576 83.4689 27.4223L80.0056 31.5088C79.6271 31.9555 79.4393 32.5331 79.483 33.117L79.8827 38.4587C80.0064 40.1117 78.3473 41.3172 76.8134 40.6887L71.8568 38.6577C71.315 38.4358 70.7076 38.4358 70.1659 38.6577Z" fill="url(#paint19_linear_3992_12504)"/>
<path d="M76.3982 22.4404L72.6276 26.6468C71.659 27.7281 70.3642 27.7281 69.3946 26.6468L65.625 22.4404C65.6349 22.3699 65.6426 22.2984 65.6476 22.2259C65.9081 22.0507 66.1305 21.8214 66.2978 21.5492L69.1146 16.9931C69.3869 16.5523 69.7748 16.2488 70.2066 16.0832C70.7228 15.8864 71.3006 15.8864 71.8168 16.0832C72.2487 16.2488 72.6365 16.5523 72.9088 16.9931L75.7246 21.5492C75.8921 21.8214 76.1154 22.0517 76.3758 22.2259C76.3806 22.2984 76.3884 22.3699 76.3982 22.4404Z" fill="url(#paint20_linear_3992_12504)"/>
<path d="M65.2086 40.6885L70.1653 38.6575C70.7072 38.4355 71.3144 38.4355 71.8563 38.6575L76.813 40.6885C78.3469 41.317 80.006 40.1115 79.8823 38.4585L79.4825 33.1168C79.4662 32.9 79.4822 32.6843 79.5277 32.4757L73.567 28.2692C72.0344 27.1877 69.9871 27.1877 68.4546 28.2692L62.4939 32.4757C62.5394 32.6844 62.5554 32.9002 62.5391 33.1168L62.1393 38.4585C62.0156 40.1115 63.6747 41.317 65.2086 40.6885Z" fill="url(#paint21_linear_3992_12504)"/>
<path d="M79.8823 38.4585L79.4825 33.1168C79.4662 32.9 79.4822 32.6843 79.5277 32.4757L73.567 28.2692C72.0344 27.1877 69.9871 27.1877 68.4547 28.2692L62.4939 32.4757C62.5394 32.6844 62.5554 32.9002 62.5391 33.1168L62.1393 38.4585C62.0156 40.1115 63.6747 41.317 65.2086 40.6885L70.1653 38.6575C70.7072 38.4355 71.3144 38.4355 71.8563 38.6575L76.813 40.6885C78.3469 41.317 80.006 40.1115 79.8823 38.4585Z" fill="url(#paint22_linear_3992_12504)"/>
<path d="M71.8572 38.6575L76.8138 40.6885C78.3477 41.317 80.0068 40.1115 79.8831 38.4585L79.4834 33.1168C79.4397 32.5329 79.6273 31.9553 80.006 31.5086L83.4693 27.4221C84.541 26.1574 83.9072 24.207 82.2969 23.8138L77.093 22.5435C76.5241 22.4046 76.0328 22.0475 75.7249 21.5495L72.9086 16.9929C72.4728 16.2878 71.7424 15.9353 71.0117 15.9353V38.491C71.299 38.4911 71.5864 38.5465 71.8572 38.6575Z" fill="url(#paint23_linear_3992_12504)"/>
<path d="M42.0012 77.4852C51.0067 77.4852 58.3071 70.1848 58.3071 61.1794C58.3071 52.1739 51.0067 44.8735 42.0012 44.8735C32.9957 44.8735 25.6953 52.1739 25.6953 61.1794C25.6953 70.1848 32.9957 77.4852 42.0012 77.4852Z" fill="url(#paint24_linear_3992_12504)"/>
<path d="M36.418 70.1471L43.6688 77.3979C47.2696 77.0296 50.7714 75.4682 53.5304 72.7092C58.3415 67.8982 59.515 60.8293 57.0561 54.9141L54.3535 52.2114L36.418 70.1471Z" fill="url(#paint25_linear_3992_12504)"/>
<path d="M37.8764 70.7501C37.3495 70.7501 36.8226 70.5491 36.4206 70.1471L29.6498 63.3763C28.8459 62.5724 28.8459 61.2688 29.6498 60.4647C30.4539 59.6606 31.7574 59.6606 32.5615 60.4647L37.8766 65.7797L51.4447 52.2116C52.2488 51.4075 53.5523 51.4075 54.3564 52.2116C55.1603 53.0155 55.1603 54.3192 54.3564 55.1233L39.3324 70.1472C38.9302 70.5491 38.4033 70.7501 37.8764 70.7501Z" fill="url(#paint26_linear_3992_12504)"/>
<path d="M30.4717 72.7092C36.8395 79.0771 47.1638 79.0771 53.5317 72.7092C57.7722 68.4687 59.1849 62.4744 57.7776 57.0615H26.2259C24.8185 62.4744 26.2312 68.4687 30.4717 72.7092Z" fill="url(#paint27_linear_3992_12504)"/>
</g>
<defs>
<linearGradient id="paint0_linear_3992_12504" x1="40.4048" y1="10.07" x2="43.3707" y2="10.07" gradientUnits="userSpaceOnUse">
<stop stop-color="#99E6FC"/>
<stop offset="1" stop-color="#01C0FA"/>
</linearGradient>
<linearGradient id="paint1_linear_3992_12504" x1="32.7373" y1="12.4516" x2="35.4244" y2="11.1971" gradientUnits="userSpaceOnUse">
<stop stop-color="#99E6FC"/>
<stop offset="1" stop-color="#01C0FA"/>
</linearGradient>
<linearGradient id="paint2_linear_3992_12504" x1="48.3266" y1="11.1238" x2="51.0136" y2="12.3784" gradientUnits="userSpaceOnUse">
<stop stop-color="#99E6FC"/>
<stop offset="1" stop-color="#01C0FA"/>
</linearGradient>
<linearGradient id="paint3_linear_3992_12504" x1="10.9801" y1="37.2534" x2="36.2416" y2="74.6374" gradientUnits="userSpaceOnUse">
<stop stop-color="#62DBFB"/>
<stop offset="0.1912" stop-color="#57D5FA"/>
<stop offset="0.5232" stop-color="#3BC5F7"/>
<stop offset="0.954" stop-color="#0DABF2"/>
<stop offset="1" stop-color="#08A9F1"/>
</linearGradient>
<linearGradient id="paint4_linear_3992_12504" x1="78.0039" y1="40.8407" x2="89.3707" y2="40.8407" gradientUnits="userSpaceOnUse">
<stop stop-color="#FEA613" stop-opacity="0"/>
<stop offset="0.1832" stop-color="#FC9B19" stop-opacity="0.183"/>
<stop offset="0.5086" stop-color="#F57D28" stop-opacity="0.509"/>
<stop offset="0.9356" stop-color="#EB4C40" stop-opacity="0.936"/>
<stop offset="1" stop-color="#E94444"/>
</linearGradient>
<linearGradient id="paint5_linear_3992_12504" x1="42" y1="48.0546" x2="42" y2="62.3065" gradientUnits="userSpaceOnUse">
<stop stop-color="#13D7FE" stop-opacity="0"/>
<stop offset="0.1832" stop-color="#19C7FC" stop-opacity="0.183"/>
<stop offset="0.5086" stop-color="#28CFF5" stop-opacity="0.509"/>
<stop offset="0.9356" stop-color="#40C0EB" stop-opacity="0.936"/>
<stop offset="1" stop-color="#44C0E9"/>
</linearGradient>
<linearGradient id="paint6_linear_3992_12504" x1="67.7623" y1="43.9921" x2="62.6763" y2="27.2175" gradientUnits="userSpaceOnUse">
<stop stop-color="#05DBFC" stop-opacity="0"/>
<stop offset="0.6831" stop-color="#03CAFC" stop-opacity="0.683"/>
<stop offset="1" stop-color="#01ADFC"/>
</linearGradient>
<linearGradient id="paint7_linear_3992_12504" x1="73.7242" y1="43.9921" x2="66.586" y2="29.096" gradientUnits="userSpaceOnUse">
<stop stop-color="#05DBFC" stop-opacity="0"/>
<stop offset="0.6831" stop-color="#03CAFC" stop-opacity="0.683"/>
<stop offset="1" stop-color="#01ADFC"/>
</linearGradient>
<linearGradient id="paint8_linear_3992_12504" x1="79.6898" y1="43.9921" x2="70.6118" y2="36.0446" gradientUnits="userSpaceOnUse">
<stop stop-color="#05DBFC" stop-opacity="0"/>
<stop offset="0.6831" stop-color="#03CAFC" stop-opacity="0.683"/>
<stop offset="1" stop-color="#01ADFC"/>
</linearGradient>
<linearGradient id="paint9_linear_3992_12504" x1="7.05634" y1="24.3156" x2="18.6281" y2="35.8873" gradientUnits="userSpaceOnUse">
<stop stop-color="#FEF48B"/>
<stop offset="0.1462" stop-color="#FDF07E"/>
<stop offset="0.4164" stop-color="#FCE55C"/>
<stop offset="0.778" stop-color="#FBD325"/>
<stop offset="1" stop-color="#FAC600"/>
</linearGradient>
<linearGradient id="paint10_linear_3992_12504" x1="13.7471" y1="23.7434" x2="15.8691" y2="27.6283" gradientUnits="userSpaceOnUse">
<stop stop-color="#FAC600" stop-opacity="0"/>
<stop offset="0.408" stop-color="#EFBD01" stop-opacity="0.408"/>
<stop offset="1" stop-color="#D7AA02"/>
</linearGradient>
<linearGradient id="paint11_linear_3992_12504" x1="13.2935" y1="35.1394" x2="17.3579" y2="17.5593" gradientUnits="userSpaceOnUse">
<stop stop-color="#FAC600" stop-opacity="0"/>
<stop offset="0.408" stop-color="#EFBD01" stop-opacity="0.408"/>
<stop offset="1" stop-color="#D7AA02"/>
</linearGradient>
<linearGradient id="paint12_linear_3992_12504" x1="12.9873" y1="35.4571" x2="12.9873" y2="40.028" gradientUnits="userSpaceOnUse">
<stop stop-color="#FAC600" stop-opacity="0"/>
<stop offset="0.408" stop-color="#EFBD01" stop-opacity="0.408"/>
<stop offset="1" stop-color="#D7AA02"/>
</linearGradient>
<linearGradient id="paint13_linear_3992_12504" x1="19.3097" y1="27.1908" x2="1.02783" y2="35.1565" gradientUnits="userSpaceOnUse">
<stop stop-color="#FAC600" stop-opacity="0"/>
<stop offset="0.408" stop-color="#EFBD01" stop-opacity="0.408"/>
<stop offset="1" stop-color="#D7AA02"/>
</linearGradient>
<linearGradient id="paint14_linear_3992_12504" x1="36.0681" y1="24.3156" x2="47.6398" y2="35.8873" gradientUnits="userSpaceOnUse">
<stop stop-color="#FEF48B"/>
<stop offset="0.1462" stop-color="#FDF07E"/>
<stop offset="0.4164" stop-color="#FCE55C"/>
<stop offset="0.778" stop-color="#FBD325"/>
<stop offset="1" stop-color="#FAC600"/>
</linearGradient>
<linearGradient id="paint15_linear_3992_12504" x1="42.759" y1="23.7434" x2="44.8809" y2="27.6283" gradientUnits="userSpaceOnUse">
<stop stop-color="#FAC600" stop-opacity="0"/>
<stop offset="0.408" stop-color="#EFBD01" stop-opacity="0.408"/>
<stop offset="1" stop-color="#D7AA02"/>
</linearGradient>
<linearGradient id="paint16_linear_3992_12504" x1="42.3052" y1="35.1394" x2="46.3698" y2="17.5593" gradientUnits="userSpaceOnUse">
<stop stop-color="#FAC600" stop-opacity="0"/>
<stop offset="0.408" stop-color="#EFBD01" stop-opacity="0.408"/>
<stop offset="1" stop-color="#D7AA02"/>
</linearGradient>
<linearGradient id="paint17_linear_3992_12504" x1="41.999" y1="35.4571" x2="41.999" y2="40.028" gradientUnits="userSpaceOnUse">
<stop stop-color="#FAC600" stop-opacity="0"/>
<stop offset="0.408" stop-color="#EFBD01" stop-opacity="0.408"/>
<stop offset="1" stop-color="#D7AA02"/>
</linearGradient>
<linearGradient id="paint18_linear_3992_12504" x1="48.3214" y1="27.1908" x2="30.0396" y2="35.1565" gradientUnits="userSpaceOnUse">
<stop stop-color="#FAC600" stop-opacity="0"/>
<stop offset="0.408" stop-color="#EFBD01" stop-opacity="0.408"/>
<stop offset="1" stop-color="#D7AA02"/>
</linearGradient>
<linearGradient id="paint19_linear_3992_12504" x1="65.0799" y1="24.3156" x2="76.6515" y2="35.8873" gradientUnits="userSpaceOnUse">
<stop stop-color="#FEF48B"/>
<stop offset="0.1462" stop-color="#FDF07E"/>
<stop offset="0.4164" stop-color="#FCE55C"/>
<stop offset="0.778" stop-color="#FBD325"/>
<stop offset="1" stop-color="#FAC600"/>
</linearGradient>
<linearGradient id="paint20_linear_3992_12504" x1="71.7707" y1="23.7434" x2="73.8926" y2="27.6283" gradientUnits="userSpaceOnUse">
<stop stop-color="#FAC600" stop-opacity="0"/>
<stop offset="0.408" stop-color="#EFBD01" stop-opacity="0.408"/>
<stop offset="1" stop-color="#D7AA02"/>
</linearGradient>
<linearGradient id="paint21_linear_3992_12504" x1="71.3169" y1="35.1394" x2="75.3815" y2="17.5593" gradientUnits="userSpaceOnUse">
<stop stop-color="#FAC600" stop-opacity="0"/>
<stop offset="0.408" stop-color="#EFBD01" stop-opacity="0.408"/>
<stop offset="1" stop-color="#D7AA02"/>
</linearGradient>
<linearGradient id="paint22_linear_3992_12504" x1="71.0107" y1="35.4571" x2="71.0107" y2="40.028" gradientUnits="userSpaceOnUse">
<stop stop-color="#FAC600" stop-opacity="0"/>
<stop offset="0.408" stop-color="#EFBD01" stop-opacity="0.408"/>
<stop offset="1" stop-color="#D7AA02"/>
</linearGradient>
<linearGradient id="paint23_linear_3992_12504" x1="77.3331" y1="27.1908" x2="59.0513" y2="35.1565" gradientUnits="userSpaceOnUse">
<stop stop-color="#FAC600" stop-opacity="0"/>
<stop offset="0.408" stop-color="#EFBD01" stop-opacity="0.408"/>
<stop offset="1" stop-color="#D7AA02"/>
</linearGradient>
<linearGradient id="paint24_linear_3992_12504" x1="30.1424" y1="49.3205" x2="54.8372" y2="74.0154" gradientUnits="userSpaceOnUse">
<stop stop-color="#BBEC6C"/>
<stop offset="1" stop-color="#78A91F"/>
</linearGradient>
<linearGradient id="paint25_linear_3992_12504" x1="54.0147" y1="69.8081" x2="45.5483" y2="61.3419" gradientUnits="userSpaceOnUse">
<stop stop-color="#78A91F" stop-opacity="0"/>
<stop offset="0.1473" stop-color="#70A421" stop-opacity="0.147"/>
<stop offset="0.3741" stop-color="#5B9927" stop-opacity="0.374"/>
<stop offset="0.6521" stop-color="#378531" stop-opacity="0.652"/>
<stop offset="0.9682" stop-color="#076B3F" stop-opacity="0.968"/>
<stop offset="1" stop-color="#026841"/>
</linearGradient>
<linearGradient id="paint26_linear_3992_12504" x1="41.9789" y1="51.6176" x2="41.9789" y2="70.7564" gradientUnits="userSpaceOnUse">
<stop stop-color="#FFFDF1"/>
<stop offset="1" stop-color="#FFF5C6"/>
</linearGradient>
<linearGradient id="paint27_linear_3992_12504" x1="42.0018" y1="64.4735" x2="42.0018" y2="77.1568" gradientUnits="userSpaceOnUse">
<stop stop-color="#78A91F" stop-opacity="0"/>
<stop offset="0.1473" stop-color="#70A421" stop-opacity="0.147"/>
<stop offset="0.3741" stop-color="#5B9927" stop-opacity="0.374"/>
<stop offset="0.6521" stop-color="#378531" stop-opacity="0.652"/>
<stop offset="0.9682" stop-color="#076B3F" stop-opacity="0.968"/>
<stop offset="1" stop-color="#026841"/>
</linearGradient>
<clipPath id="clip0_3992_12504">
<rect width="84" height="84" fill="white"/>
</clipPath>
</defs>
</svg>
