<svg width="84" height="84" viewBox="0 0 84 84" fill="none" xmlns="http://www.w3.org/2000/svg">
<path d="M64.4468 29.0648H19.5501C18.7559 29.0648 17.9858 29.337 17.3679 29.8359L15.7289 31.1596C12.753 33.5629 11.0234 37.183 11.0234 41.0081V80.5266C11.0234 82.4449 12.5784 83.9998 14.4966 83.9998H69.5002C71.4185 83.9998 72.9734 82.4449 72.9734 80.5266V41.0081C72.9734 37.183 71.2439 33.5629 68.268 31.1597L66.629 29.8361C66.0111 29.337 65.241 29.0648 64.4468 29.0648Z" fill="url(#paint0_linear_3992_12616)"/>
<path d="M25.4339 35.227C28.2623 35.227 30.5553 34.3231 30.5553 33.208C30.5553 32.093 28.2623 31.1891 25.4339 31.1891C22.6054 31.1891 20.3125 32.093 20.3125 33.208C20.3125 34.3231 22.6054 35.227 25.4339 35.227Z" fill="url(#paint1_linear_3992_12616)"/>
<path d="M58.5081 35.227C61.3366 35.227 63.6295 34.3231 63.6295 33.208C63.6295 32.093 61.3366 31.1891 58.5081 31.1891C55.6796 31.1891 53.3867 32.093 53.3867 33.208C53.3867 34.3231 55.6796 35.227 58.5081 35.227Z" fill="url(#paint2_linear_3992_12616)"/>
<path d="M72.9745 80.5268V41.008C72.9745 37.1829 71.245 33.5629 68.269 31.1597L66.63 29.836C66.0122 29.3371 65.2421 29.0649 64.4479 29.0649H26.9814L22.2305 33.8159L71.6607 83.2461C72.4608 82.6097 72.9745 81.6284 72.9745 80.5268Z" fill="url(#paint3_linear_3992_12616)"/>
<path d="M41.9967 76.7898C38.9199 76.7898 36.4166 74.2866 36.4166 71.2097V65.828C36.4166 64.6613 35.9071 63.5734 35.0187 62.843C32.3513 60.6502 30.8905 57.4127 31.0108 53.9609C31.1096 51.1221 32.2984 48.4603 34.358 46.466C36.4165 44.4728 39.1145 43.3693 41.9549 43.3586H41.9967C48.0582 43.3586 52.9896 48.2899 52.9896 54.3513C52.9896 57.6501 51.5265 60.745 48.9756 62.8425C48.0867 63.5734 47.5768 64.6615 47.5768 65.8281V71.2099C47.5768 74.2866 45.0736 76.7898 41.9967 76.7898Z" fill="url(#paint4_linear_3992_12616)"/>
<path d="M41.9967 76.7898C38.9199 76.7898 36.4166 74.2866 36.4166 71.2097V65.828C36.4166 64.6613 35.9071 63.5734 35.0187 62.843C32.3513 60.6502 30.8905 57.4127 31.0108 53.9609C31.1096 51.1221 32.2984 48.4603 34.358 46.466C36.4165 44.4728 39.1145 43.3693 41.9549 43.3586H41.9967C48.0582 43.3586 52.9896 48.2899 52.9896 54.3513C52.9896 57.6501 51.5265 60.745 48.9756 62.8425C48.0867 63.5734 47.5768 64.6615 47.5768 65.8281V71.2099C47.5768 74.2866 45.0736 76.7898 41.9967 76.7898Z" fill="url(#paint5_linear_3992_12616)"/>
<path d="M11.0234 43.229V80.5268C11.0234 82.445 12.5784 84 14.4966 84H69.5002C71.4185 84 72.9734 82.445 72.9734 80.5268V43.229H11.0234Z" fill="url(#paint6_linear_3992_12616)"/>
<path d="M68.2699 31.1597L66.6309 29.836C66.0131 29.3371 65.2428 29.0649 64.4487 29.0649H43.1211V84H69.502C71.4202 84 72.9752 82.445 72.9752 80.5268V41.008C72.9752 37.1829 71.2457 33.5629 68.2699 31.1597Z" fill="url(#paint7_linear_3992_12616)"/>
<path d="M68.2697 31.1597L66.6307 29.836C66.0128 29.3371 65.2426 29.0649 64.4485 29.0649H59.978L55.2891 33.7537L72.975 51.4396V41.0082C72.975 37.1829 71.2455 33.5629 68.2697 31.1597Z" fill="url(#paint8_linear_3992_12616)"/>
<path d="M62.1179 20.1195V33.2081C62.1179 33.9823 60.5268 34.6095 58.563 34.6095C56.6006 34.6095 55.008 33.9823 55.008 33.2081V20.1195C55.008 12.9447 49.1715 7.10981 41.9984 7.10981C34.8252 7.10981 28.9887 12.9447 28.9887 20.1195V33.2081C28.9887 33.9823 27.3962 34.6095 25.4338 34.6095C23.4698 34.6095 21.8789 33.9823 21.8789 33.2081V20.1195C21.8789 9.02491 30.9037 0 41.9984 0C53.0931 0 62.1179 9.02491 62.1179 20.1195Z" fill="url(#paint9_linear_3992_12616)"/>
<path d="M42.0003 0C41.7135 0 41.4285 0.00754688 41.1445 0.0193594V7.14115C41.4277 7.12261 41.7125 7.10998 42.0003 7.10998C49.1734 7.10998 55.0099 12.9449 55.0099 20.1196V33.2082C55.0099 33.9824 56.6025 34.6096 58.5649 34.6096C60.5288 34.6096 62.1198 33.9824 62.1198 33.2082V20.1196C62.1198 9.02491 53.095 0 42.0003 0Z" fill="url(#paint10_linear_3992_12616)"/>
<path d="M25.4338 34.6096C27.3962 34.6096 28.9887 33.9824 28.9887 33.2082V20.1196C28.9887 19.5506 29.0294 18.9913 29.1006 18.4414H21.9495C21.9035 18.995 21.8789 19.5544 21.8789 20.1196V33.2082C21.8789 33.9822 23.47 34.6096 25.4338 34.6096Z" fill="url(#paint11_linear_3992_12616)"/>
<path d="M55.0064 20.1195V33.2081C55.0064 33.9823 56.599 34.6095 58.5613 34.6095C60.5253 34.6095 62.1162 33.9823 62.1162 33.2081V20.1195C62.1162 19.5543 62.0916 18.9948 62.0457 18.4413H54.8945C54.9656 18.9912 55.0064 19.5505 55.0064 20.1195Z" fill="url(#paint12_linear_3992_12616)"/>
<path d="M50.6205 54.3511C50.6205 49.5779 46.7421 45.7105 41.9648 45.7283C37.3651 45.7456 33.5405 49.4463 33.3804 54.0432C33.2826 56.8511 34.5285 59.3709 36.5248 61.0121C37.9633 62.1946 38.7877 63.9657 38.7877 65.8278V71.2097C38.7877 72.9826 40.2249 74.4197 41.9977 74.4197C43.7706 74.4197 45.2078 72.9826 45.2078 71.2097V65.8278C45.2078 63.9654 46.0327 62.1943 47.4714 61.0116C49.394 59.4308 50.6205 57.0347 50.6205 54.3511Z" fill="url(#paint13_linear_3992_12616)"/>
<path d="M50.6205 54.3511C50.6205 49.5779 46.7421 45.7105 41.9648 45.7283C37.3651 45.7456 33.5405 49.4463 33.3804 54.0432C33.2826 56.8511 34.5285 59.3709 36.5248 61.0121C37.9633 62.1946 38.7877 63.9657 38.7877 65.8278V71.2097C38.7877 72.9826 40.2249 74.4197 41.9977 74.4197C43.7706 74.4197 45.2078 72.9826 45.2078 71.2097V65.8278C45.2078 63.9654 46.0327 62.1943 47.4714 61.0116C49.394 59.4308 50.6205 57.0347 50.6205 54.3511Z" fill="url(#paint14_linear_3992_12616)"/>
<path d="M50.6205 54.3511C50.6205 49.5779 46.7421 45.7105 41.9648 45.7283C37.3651 45.7456 33.5405 49.4463 33.3804 54.0432C33.2826 56.8511 34.5285 59.3709 36.5248 61.0121C37.9633 62.1946 38.7877 63.9657 38.7877 65.8278V71.2097C38.7877 72.9826 40.2249 74.4197 41.9977 74.4197C43.7706 74.4197 45.2078 72.9826 45.2078 71.2097V65.8278C45.2078 63.9654 46.0327 62.1943 47.4714 61.0116C49.394 59.4308 50.6205 57.0347 50.6205 54.3511Z" fill="url(#paint15_linear_3992_12616)"/>
<path d="M50.6205 54.3511C50.6205 49.5779 46.7421 45.7105 41.9648 45.7283C37.3651 45.7456 33.5405 49.4463 33.3804 54.0432C33.2826 56.8511 34.5285 59.3709 36.5248 61.0121C37.9633 62.1946 38.7877 63.9657 38.7877 65.8278V71.2097C38.7877 72.9826 40.2249 74.4197 41.9977 74.4197C43.7706 74.4197 45.2078 72.9826 45.2078 71.2097V65.8278C45.2078 63.9654 46.0327 62.1943 47.4714 61.0116C49.394 59.4308 50.6205 57.0347 50.6205 54.3511Z" fill="url(#paint16_linear_3992_12616)"/>
<defs>
<linearGradient id="paint0_linear_3992_12616" x1="41.9984" y1="32.7323" x2="41.9984" y2="46.726" gradientUnits="userSpaceOnUse">
<stop stop-color="#AEE5FE"/>
<stop offset="1" stop-color="#00D0FA"/>
</linearGradient>
<linearGradient id="paint1_linear_3992_12616" x1="25.4339" y1="34.8106" x2="25.4339" y2="31.014" gradientUnits="userSpaceOnUse">
<stop stop-color="#AEDFFE"/>
<stop offset="1" stop-color="#008EFA"/>
</linearGradient>
<linearGradient id="paint2_linear_3992_12616" x1="58.5081" y1="34.8106" x2="58.5081" y2="31.014" gradientUnits="userSpaceOnUse">
<stop stop-color="#AEDFFE"/>
<stop offset="1" stop-color="#008EFA"/>
</linearGradient>
<linearGradient id="paint3_linear_3992_12616" x1="43.4191" y1="29.4913" x2="35.7602" y2="18.6786" gradientUnits="userSpaceOnUse">
<stop stop-color="#38C3FE" stop-opacity="0"/>
<stop offset="1" stop-color="#38A5FE"/>
</linearGradient>
<linearGradient id="paint4_linear_3992_12616" x1="69.2936" y1="86.2518" x2="36.8398" y2="53.7979" gradientUnits="userSpaceOnUse">
<stop stop-color="#FCF3E6"/>
<stop offset="1" stop-color="#FCDABA"/>
</linearGradient>
<linearGradient id="paint5_linear_3992_12616" x1="38.9229" y1="57.8358" x2="27.9975" y2="51.4158" gradientUnits="userSpaceOnUse">
<stop stop-color="#FE9738" stop-opacity="0"/>
<stop offset="1" stop-color="#FE9738"/>
</linearGradient>
<linearGradient id="paint6_linear_3992_12616" x1="41.9984" y1="74.645" x2="41.9984" y2="82.9799" gradientUnits="userSpaceOnUse">
<stop stop-color="#38C9FE" stop-opacity="0"/>
<stop offset="1" stop-color="#38C9FE"/>
</linearGradient>
<linearGradient id="paint7_linear_3992_12616" x1="62.4905" y1="56.5324" x2="72.7401" y2="56.5324" gradientUnits="userSpaceOnUse">
<stop stop-color="#BAE4F4" stop-opacity="0"/>
<stop offset="1" stop-color="#38CDFE"/>
</linearGradient>
<linearGradient id="paint8_linear_3992_12616" x1="67.2008" y1="40.2714" x2="58.697" y2="27.0934" gradientUnits="userSpaceOnUse">
<stop stop-color="#38C3FE" stop-opacity="0"/>
<stop offset="1" stop-color="#38A5FE"/>
</linearGradient>
<linearGradient id="paint9_linear_3992_12616" x1="29.876" y1="3.50979" x2="39.5624" y2="19.8791" gradientUnits="userSpaceOnUse">
<stop stop-color="#F5FBFF"/>
<stop offset="1" stop-color="#C4D7E4"/>
</linearGradient>
<linearGradient id="paint10_linear_3992_12616" x1="51.2065" y1="17.3048" x2="62.0856" y2="17.3048" gradientUnits="userSpaceOnUse">
<stop stop-color="#DBD5EF" stop-opacity="0"/>
<stop offset="0.2853" stop-color="#D9D2EE" stop-opacity="0.285"/>
<stop offset="0.4739" stop-color="#D4C9E9" stop-opacity="0.474"/>
<stop offset="0.6346" stop-color="#CBBAE2" stop-opacity="0.635"/>
<stop offset="0.7795" stop-color="#BFA5D7" stop-opacity="0.78"/>
<stop offset="0.9126" stop-color="#AF8ACA" stop-opacity="0.913"/>
<stop offset="1" stop-color="#A274BF"/>
</linearGradient>
<linearGradient id="paint11_linear_3992_12616" x1="25.4898" y1="26.7761" x2="25.4898" y2="34.8121" gradientUnits="userSpaceOnUse">
<stop stop-color="#DBD5EF" stop-opacity="0"/>
<stop offset="0.2853" stop-color="#D9D2EE" stop-opacity="0.285"/>
<stop offset="0.4739" stop-color="#D4C9E9" stop-opacity="0.474"/>
<stop offset="0.6346" stop-color="#CBBAE2" stop-opacity="0.635"/>
<stop offset="0.7795" stop-color="#BFA5D7" stop-opacity="0.78"/>
<stop offset="0.9126" stop-color="#AF8ACA" stop-opacity="0.913"/>
<stop offset="1" stop-color="#A274BF"/>
</linearGradient>
<linearGradient id="paint12_linear_3992_12616" x1="58.5054" y1="26.7762" x2="58.5054" y2="34.8121" gradientUnits="userSpaceOnUse">
<stop stop-color="#DBD5EF" stop-opacity="0"/>
<stop offset="0.2853" stop-color="#D9D2EE" stop-opacity="0.285"/>
<stop offset="0.4739" stop-color="#D4C9E9" stop-opacity="0.474"/>
<stop offset="0.6346" stop-color="#CBBAE2" stop-opacity="0.635"/>
<stop offset="0.7795" stop-color="#BFA5D7" stop-opacity="0.78"/>
<stop offset="0.9126" stop-color="#AF8ACA" stop-opacity="0.913"/>
<stop offset="1" stop-color="#A274BF"/>
</linearGradient>
<linearGradient id="paint13_linear_3992_12616" x1="36.5241" y1="60.0741" x2="47.0617" y2="60.0741" gradientUnits="userSpaceOnUse">
<stop stop-color="#FCD1B9" stop-opacity="0.1"/>
<stop offset="1" stop-color="#F88538"/>
</linearGradient>
<linearGradient id="paint14_linear_3992_12616" x1="41.6101" y1="60.0759" x2="35.0774" y2="61.9905" gradientUnits="userSpaceOnUse">
<stop stop-color="#FCD1B9" stop-opacity="0"/>
<stop offset="1" stop-color="#F68234"/>
</linearGradient>
<linearGradient id="paint15_linear_3992_12616" x1="39.3913" y1="57.1709" x2="32.7459" y2="51.7645" gradientUnits="userSpaceOnUse">
<stop stop-color="#BAB5B2" stop-opacity="0"/>
<stop offset="1" stop-color="#1B1815"/>
</linearGradient>
<linearGradient id="paint16_linear_3992_12616" x1="41.9977" y1="52.2311" x2="41.9977" y2="44.7727" gradientUnits="userSpaceOnUse">
<stop stop-color="#7C6646" stop-opacity="0"/>
<stop offset="1" stop-color="#774A21"/>
</linearGradient>
</defs>
</svg>
