<svg width="22" height="22" viewBox="0 0 22 22" fill="none" xmlns="http://www.w3.org/2000/svg">
<path d="M20.5094 15.6398C19.5594 13.9982 18.1933 12.6212 16.5588 11.6581C15.8995 11.2696 15.2026 10.9532 14.4808 10.7115C15.9517 9.63138 16.9082 7.8903 16.9082 5.92969C16.9082 2.66003 14.2482 0 10.9786 0C7.7089 0 5.04887 2.66003 5.04887 5.92969C5.04887 7.8903 6.0056 9.63138 7.47627 10.7115C6.75453 10.9532 6.05763 11.2697 5.39833 11.6581C3.76384 12.6214 2.39773 13.9982 1.44772 15.64C1.29347 15.9062 1.29347 16.2345 1.44772 16.5008C3.36016 19.8054 6.92775 22 10.9786 22C15.0287 22 18.5966 19.8061 20.5096 16.5008C20.6636 16.2345 20.6636 15.9062 20.5094 15.6398ZM6.76762 5.92969C6.76762 3.6077 8.65657 1.71875 10.9786 1.71875C13.3005 1.71875 15.1895 3.6077 15.1895 5.92969C15.1895 8.25168 13.3005 10.1406 10.9786 10.1406C8.65657 10.1406 6.76762 8.25168 6.76762 5.92969ZM10.9786 20.2812C7.83647 20.2812 4.92181 18.7025 3.20037 16.0703C3.98304 14.8736 5.03628 13.8665 6.27096 13.1389C7.69162 12.3018 9.31939 11.8594 10.9786 11.8594C12.6377 11.8594 14.2655 12.3018 15.6862 13.1389C16.9208 13.8665 17.9742 14.8737 18.7569 16.0703C17.0377 18.6991 14.1243 20.2812 10.9786 20.2812Z" fill="#EC320A"/>
</svg>
