<svg width="20" height="22" viewBox="0 0 20 22" fill="none" xmlns="http://www.w3.org/2000/svg">
<path d="M18.7514 3.56236L10.3295 0.0656939C10.1186 -0.0218765 9.88141 -0.0219194 9.67047 0.0656939L1.2486 3.56236C0.927836 3.69556 0.71875 4.00872 0.71875 4.35604V8.60672C0.71875 14.4596 4.25632 19.7245 9.67524 21.9363C9.88338 22.0212 10.1166 22.0212 10.3248 21.9363C15.7436 19.7245 19.2812 14.4597 19.2812 8.60672V4.35604C19.2812 4.00872 19.0722 3.69556 18.7514 3.56236ZM17.5625 8.60672C17.5625 13.5823 14.6406 18.1626 10 20.2072C5.48338 18.2172 2.4375 13.7171 2.4375 8.60672V4.92976L10 1.78986L17.5625 4.92976V8.60672ZM9.05013 11.5034L12.7439 7.80969C13.0795 7.47411 13.6236 7.47407 13.9592 7.80969C14.2949 8.14532 14.2948 8.68944 13.9592 9.02502L9.6578 13.3264C9.32212 13.6621 8.77801 13.662 8.44247 13.3264L6.04077 10.9247C5.70514 10.5891 5.70514 10.045 6.04077 9.70939C6.3764 9.3738 6.92052 9.37376 7.2561 9.70939L9.05013 11.5034Z" fill="#EC320A"/>
</svg>
