<svg width="18" height="18" viewBox="0 0 18 18" fill="none" xmlns="http://www.w3.org/2000/svg">
<path d="M14.8087 9.74999C15.3354 8.9929 15.6534 8.11043 15.7306 7.1914C15.8078 6.27237 15.6416 5.34922 15.2486 4.51486C14.8556 3.68051 14.2498 2.96439 13.4921 2.4386C12.7344 1.9128 11.8516 1.59589 10.9324 1.51975C10.0133 1.44362 9.09036 1.61095 8.25646 2.0049C7.42257 2.39885 6.70717 3.00552 6.18227 3.76384C5.65737 4.52216 5.34149 5.40538 5.26644 6.32459C5.19138 7.2438 5.3598 8.16656 5.75473 8.99999" stroke="#F99E5D" stroke-width="1.5" stroke-linecap="round" stroke-linejoin="round"/>
<path d="M12 8.385C11.7008 8.97825 11.157 9.375 10.5352 9.375C9.59175 9.375 8.82675 8.46075 8.82675 7.3335V6.1665C8.82675 5.03925 9.59175 4.125 10.5352 4.125C11.157 4.125 11.7008 4.52175 12 5.115M7.875 6.75H10.7025" stroke="#F99E5D" stroke-width="1.5" stroke-linecap="round"/>
<path d="M2.25 10.5H4.04625C4.26675 10.5 4.48425 10.5495 4.6815 10.6455L6.213 11.3865C6.41025 11.4818 6.62775 11.5312 6.849 11.5312H7.6305C8.3865 11.5312 9 12.1245 9 12.8565C9 12.8865 8.97975 12.912 8.9505 12.9202L7.04475 13.4475C6.70279 13.542 6.33815 13.5089 6.01875 13.3545L4.3815 12.5625M9 12.375L12.4448 11.3167C12.7446 11.2247 13.0659 11.2298 13.3628 11.3312C13.6596 11.4326 13.9169 11.6252 14.0978 11.8815C14.3745 12.264 14.262 12.813 13.8585 13.0455L8.22225 16.2983C8.04601 16.4002 7.85086 16.4652 7.64868 16.4894C7.4465 16.5135 7.24153 16.4962 7.04625 16.4385L2.25 15.015" stroke="#F99E5D" stroke-width="1.5" stroke-linecap="round" stroke-linejoin="round"/>
</svg>
