<svg width="52" height="52" viewBox="0 0 52 52" fill="none" xmlns="http://www.w3.org/2000/svg">
<path d="M0 14C0 6.26801 6.26801 0 14 0H38C45.732 0 52 6.26801 52 14V38C52 45.732 45.732 52 38 52H14C6.26801 52 0 45.732 0 38V14Z" fill="url(#paint0_linear_6310_3477)"/>
<path d="M33.3333 20.5H18.6667C17.6542 20.5 16.8333 21.3208 16.8333 22.3333V29.6667C16.8333 30.6792 17.6542 31.5 18.6667 31.5H33.3333C34.3459 31.5 35.1667 30.6792 35.1667 29.6667V22.3333C35.1667 21.3208 34.3459 20.5 33.3333 20.5Z" stroke="#388E3C" stroke-width="1.65" stroke-linecap="round" stroke-linejoin="round"/>
<path d="M26 27.8333C27.0125 27.8333 27.8333 27.0125 27.8333 26C27.8333 24.9874 27.0125 24.1666 26 24.1666C24.9875 24.1666 24.1667 24.9874 24.1667 26C24.1667 27.0125 24.9875 27.8333 26 27.8333Z" stroke="#388E3C" stroke-width="1.65" stroke-linecap="round" stroke-linejoin="round"/>
<path d="M20.5 26H20.5092M31.5 26H31.5092" stroke="#388E3C" stroke-width="1.65" stroke-linecap="round" stroke-linejoin="round"/>
<defs>
<linearGradient id="paint0_linear_6310_3477" x1="0" y1="0" x2="52" y2="52" gradientUnits="userSpaceOnUse">
<stop stop-color="#E8F5E9"/>
<stop offset="1" stop-color="#C8E6C9"/>
</linearGradient>
</defs>
</svg>
