<svg width="52" height="52" viewBox="0 0 52 52" fill="none" xmlns="http://www.w3.org/2000/svg">
<path d="M0 14C0 6.26801 6.26801 0 14 0H38C45.732 0 52 6.26801 52 14V38C52 45.732 45.732 52 38 52H14C6.26801 52 0 45.732 0 38V14Z" fill="url(#paint0_linear_6310_3442)"/>
<path d="M26 33.3334H34.25" stroke="#00BCD4" stroke-width="1.65" stroke-linecap="round" stroke-linejoin="round"/>
<path d="M30.0113 18.3202C30.3762 17.9553 30.8712 17.7502 31.3873 17.7502C31.9033 17.7502 32.3983 17.9553 32.7632 18.3202C33.1281 18.6851 33.3331 19.18 33.3331 19.6961C33.3331 20.2122 33.1281 20.7071 32.7632 21.072L21.754 32.0821C21.5359 32.3002 21.2664 32.4597 20.9702 32.5459L18.3376 33.3141C18.2587 33.3371 18.1751 33.3385 18.0955 33.3181C18.0159 33.2977 17.9433 33.2563 17.8852 33.1982C17.8271 33.1401 17.7856 33.0674 17.7653 32.9878C17.7449 32.9082 17.7462 32.8246 17.7692 32.7458L18.5374 30.1131C18.6238 29.8173 18.7833 29.5481 19.0012 29.3303L30.0113 18.3202Z" stroke="#00BCD4" stroke-width="1.65" stroke-linecap="round" stroke-linejoin="round"/>
<defs>
<linearGradient id="paint0_linear_6310_3442" x1="0" y1="0" x2="52" y2="52" gradientUnits="userSpaceOnUse">
<stop stop-color="#E0F7FA"/>
<stop offset="1" stop-color="#B2EBF2"/>
</linearGradient>
</defs>
</svg>
