<svg width="36" height="36" viewBox="0 0 36 36" fill="none" xmlns="http://www.w3.org/2000/svg">
<circle cx="18" cy="18" r="18" fill="white"/>
<path d="M26.3989 24.0805L29.6314 23.7773L28.8268 15.1988C28.7736 14.6323 28.2713 14.2161 27.7049 14.2693L26.5237 14.3801C25.9573 14.4332 25.5411 14.9355 25.5943 15.502L26.3989 24.0805Z" fill="#2EB7DC"/>
<path d="M7.25629 25.9074L10.4888 25.6042L9.68417 17.0256C9.63104 16.4591 9.12875 16.043 8.56227 16.0961L7.38117 16.2069C6.81469 16.26 6.39854 16.7623 6.45167 17.3288L7.25629 25.9074Z" fill="#2EB7DC"/>
<path d="M6.07545 13.3193C6.02232 12.7528 6.43847 12.2505 7.00495 12.1974L8.18605 12.0866C8.75253 12.0335 9.25482 12.4496 9.30795 13.0161L9.37646 13.7465C9.42959 14.313 9.01345 14.8153 8.44697 14.8684L7.26586 14.9792C6.69938 15.0323 6.19709 14.6162 6.14396 14.0497L6.07545 13.3193Z" fill="black"/>
<path d="M25.221 11.5236C25.1678 10.9571 25.584 10.4548 26.1505 10.4017L27.3316 10.2909C27.898 10.2377 28.4003 10.6539 28.4535 11.2204L28.522 11.9508C28.5751 12.5173 28.159 13.0196 27.5925 13.0727L26.4114 13.1835C25.8449 13.2366 25.3426 12.8205 25.2895 12.254L25.221 11.5236Z" fill="black"/>
<path d="M23.361 10.6946L10.9729 11.8565L11.2353 14.6539L19.2676 13.9005L11.9284 22.0437L12.2449 25.4185L24.633 24.2565L24.3697 21.4489L16.253 22.2102L23.6677 13.9645L23.361 10.6946Z" fill="#2EB7DC"/>
</svg>
